<svg viewBox="0 0 191 161" xmlns="http://www.w3.org/2000/svg" xmlns:xlink="http://www.w3.org/1999/xlink" width="191.000000" height="161.000000" fill="none" customFrame="#000000">
	<path id="Icon contur wh 05" d="M170.895 0C176.447 0 180.948 4.50516 180.948 10.0625C180.948 15.6199 176.447 20.1251 170.895 20.1251L108.11 20.1251L69.9809 153.704C68.8417 157.693 65.3747 160.572 61.2487 160.957C57.1209 161.341 53.1776 159.15 51.3236 155.439L23.9438 100.625L10.0527 100.625C4.50073 100.625 0 96.1203 0 90.5629C0 85.0055 4.50073 80.5004 10.0527 80.5004L30.158 80.5004C33.9657 80.5004 37.4476 82.6533 39.1504 86.0623L57.7489 123.296L90.8618 7.29633L91.122 6.50528C92.5874 2.6179 96.3185 0 100.527 0L170.895 0ZM173.841 83.4484C177.766 79.5187 184.13 79.5187 188.056 83.4484C191.981 87.3781 191.981 93.7478 188.056 97.6775L165.005 120.751L188.056 143.824C191.981 147.753 191.981 154.123 188.056 158.053C184.13 161.982 177.766 161.982 173.841 158.053L150.79 134.98L127.74 158.053C123.814 161.982 117.45 161.982 113.525 158.053C109.599 154.123 109.599 147.753 113.525 143.824L136.575 120.751L113.525 97.6775C109.599 93.7478 109.599 87.3781 113.525 83.4484C117.45 79.5187 123.814 79.5187 127.74 83.4484L150.79 106.521L173.841 83.4484Z" fill="rgb(115.116,137.766,244.22)" fill-rule="nonzero" />
</svg>
