<svg viewBox="0 0 707.133 122.026" xmlns="http://www.w3.org/2000/svg" xmlns:xlink="http://www.w3.org/1999/xlink" width="707.132812" height="122.025879" fill="none" customFrame="#000000">
	<rect id="Ex max black (color) 10" width="707.132324" height="122.025841" x="0.000000" y="0.000000" fill="rgb(255,255,255)" fill-opacity="0" />
	<path id="Ex max black (color) 10" d="M3.87703 28.0155L1.02092 22.4802C-1.15403 18.2649 0.229996 12.9984 4.37392 10.8245C40.1818 -7.96054 74.0038 1.40645 91.4021 11.2102C94.9895 13.2316 95.9894 17.6134 93.9708 21.2611C92.9314 23.1395 91.6076 25.505 89.942 28.4479C87.5114 32.7426 82.1589 34.1553 77.7864 32.0115C56.5322 21.5908 37.9312 21.5785 16.1367 31.9746C11.6439 34.1177 6.19225 32.5026 3.87703 28.0155Z" fill="rgb(27,66,249)" fill-rule="evenodd" />
	<path id="Ex max black (color) 10" d="M654.889 117.309C650.377 114.164 648.121 109.721 648.121 103.979C648.121 98.2363 650.377 93.8271 654.889 90.751C659.435 87.6748 665.279 86.1367 672.423 86.1367L689.393 86.1367C689.393 82.1377 688.556 79.3521 686.881 77.7798C685.206 76.2075 682.267 75.4214 678.062 75.4214C673.893 75.4214 670.953 76.4639 669.244 78.5488C667.569 80.5996 665.501 81.625 663.041 81.625L655.401 81.625C654.479 81.625 653.709 81.3345 653.094 80.7534C652.513 80.1382 652.223 79.3862 652.223 78.4976C652.223 68.688 661.537 63.7832 680.165 63.7832C688.299 63.7832 694.828 65.6118 699.75 69.269C704.671 72.8921 707.132 78.5146 707.132 86.1367L707.132 117.873C707.132 118.795 706.842 119.547 706.261 120.128C705.68 120.709 704.928 121 704.005 121L694.11 121C693.187 121 692.435 120.709 691.854 120.128C691.273 119.513 690.982 118.761 690.982 117.873L690.982 116.283C685.582 120.146 679.344 122.06 672.269 122.025C665.228 122.025 659.435 120.453 654.889 117.309ZM673.653 97.7749C671.261 97.7749 669.364 98.356 667.962 99.5181C666.595 100.68 665.912 102.184 665.912 104.03C665.912 105.875 666.629 107.396 668.065 108.593C669.5 109.789 671.534 110.387 674.166 110.387C679.43 110.387 684.505 108.849 689.393 105.773L689.393 97.7749L673.653 97.7749Z" fill="rgb(27,66,249)" fill-rule="nonzero" />
	<path id="Ex max black (color) 10" d="M654.889 117.309C650.377 114.164 648.121 109.721 648.121 103.979C648.121 98.2363 650.377 93.8271 654.889 90.751C659.435 87.6748 665.279 86.1367 672.423 86.1367L689.393 86.1367C689.393 82.1377 688.556 79.3521 686.881 77.7798C685.206 76.2075 682.267 75.4214 678.062 75.4214C673.893 75.4214 670.953 76.4639 669.244 78.5488C667.569 80.5996 665.501 81.625 663.041 81.625L655.401 81.625C654.479 81.625 653.709 81.3345 653.094 80.7534C652.513 80.1382 652.223 79.3862 652.223 78.4976C652.223 68.688 661.537 63.7832 680.165 63.7832C688.299 63.7832 694.828 65.6118 699.75 69.269C704.671 72.8921 707.132 78.5146 707.132 86.1367L707.132 117.873C707.132 118.795 706.842 119.547 706.261 120.128C705.68 120.709 704.928 121 704.005 121L694.11 121C693.187 121 692.435 120.709 691.854 120.128C691.273 119.513 690.982 118.761 690.982 117.873L690.982 116.283C685.582 120.146 679.344 122.06 672.269 122.025C665.228 122.025 659.435 120.453 654.889 117.309ZM673.653 97.7749C671.261 97.7749 669.364 98.356 667.962 99.5181C666.595 100.68 665.912 102.184 665.912 104.03C665.912 105.875 666.629 107.396 668.065 108.593C669.5 109.789 671.534 110.387 674.166 110.387C679.43 110.387 684.505 108.849 689.393 105.773L689.393 97.7749L673.653 97.7749Z" fill="rgb(0,0,0)" fill-rule="nonzero" />
	<path id="Ex max black (color) 10" d="M644.379 118.744C644.379 120.248 643.491 121 641.713 121L632.023 121C628.742 121 626.127 119.394 624.179 116.181L617.668 105.568C614.865 101.022 610.798 98.749 605.466 98.749L605.466 117.873C605.466 118.795 605.158 119.547 604.543 120.128C603.962 120.709 603.227 121 602.338 121L590.854 121C589.931 121 589.179 120.709 588.598 120.128C588.017 119.547 587.727 118.795 587.727 117.873L587.727 67.9873C587.727 67.0645 588.017 66.3125 588.598 65.7314C589.213 65.1162 589.965 64.8086 590.854 64.8086L602.338 64.8086C603.261 64.8086 604.013 65.1162 604.594 65.7314C605.175 66.3125 605.466 67.0645 605.466 67.9873L605.466 87.0596C611.413 87.0596 615.48 84.7524 617.668 80.1382L622.59 69.6792C623.273 68.2095 624.282 67.0303 625.615 66.1416C626.948 65.2529 628.383 64.8086 629.921 64.8086L639.611 64.8086C641.32 64.8086 642.175 65.4751 642.175 66.8081C642.175 67.5601 641.901 68.5171 641.354 69.6792L634.741 83.6245C633.613 85.9487 632.075 87.9482 630.126 89.623C628.178 91.2979 626.076 92.3745 623.82 92.853C628.024 94.1177 631.665 97.1938 634.741 102.082L643.457 116.181C644.038 117.172 644.345 118.026 644.379 118.744Z" fill="rgb(27,66,249)" fill-rule="nonzero" />
	<path id="Ex max black (color) 10" d="M644.379 118.744C644.379 120.248 643.491 121 641.713 121L632.023 121C628.742 121 626.127 119.394 624.179 116.181L617.668 105.568C614.865 101.022 610.798 98.749 605.466 98.749L605.466 117.873C605.466 118.795 605.158 119.547 604.543 120.128C603.962 120.709 603.227 121 602.338 121L590.854 121C589.931 121 589.179 120.709 588.598 120.128C588.017 119.547 587.727 118.795 587.727 117.873L587.727 67.9873C587.727 67.0645 588.017 66.3125 588.598 65.7314C589.213 65.1162 589.965 64.8086 590.854 64.8086L602.338 64.8086C603.261 64.8086 604.013 65.1162 604.594 65.7314C605.175 66.3125 605.466 67.0645 605.466 67.9873L605.466 87.0596C611.413 87.0596 615.48 84.7524 617.668 80.1382L622.59 69.6792C623.273 68.2095 624.282 67.0303 625.615 66.1416C626.948 65.2529 628.383 64.8086 629.921 64.8086L639.611 64.8086C641.32 64.8086 642.175 65.4751 642.175 66.8081C642.175 67.5601 641.901 68.5171 641.354 69.6792L634.741 83.6245C633.613 85.9487 632.075 87.9482 630.126 89.623C628.178 91.2979 626.076 92.3745 623.82 92.853C628.024 94.1177 631.665 97.1938 634.741 102.082L643.457 116.181C644.038 117.172 644.345 118.026 644.379 118.744Z" fill="rgb(0,0,0)" fill-rule="nonzero" />
	<path id="Ex max black (color) 10" d="M516.77 117.873L516.77 67.9873C516.77 67.0645 517.06 66.3125 517.641 65.7314C518.256 65.1162 519.008 64.8086 519.897 64.8086L530.612 64.8086C531.535 64.8086 532.287 65.1162 532.868 65.7314C533.483 66.3125 533.791 67.0645 533.791 67.9873L533.791 101.671L551.838 68.5C552.385 67.4404 553.222 66.5688 554.35 65.8853C555.478 65.1675 556.572 64.8086 557.631 64.8086L571.987 64.8086C572.91 64.8086 573.662 65.1162 574.243 65.7314C574.858 66.3125 575.166 67.0645 575.166 67.9873L575.166 117.873C575.166 118.795 574.858 119.547 574.243 120.128C573.662 120.709 572.91 121 571.987 121L561.271 121C560.349 121 559.597 120.709 559.016 120.128C558.435 119.513 558.144 118.761 558.144 117.873L558.144 84.2397L540.097 117.309C539.55 118.3 538.713 119.171 537.585 119.923C536.457 120.641 535.363 121 534.304 121L519.897 121C518.974 121 518.222 120.709 517.641 120.128C517.06 119.547 516.77 118.795 516.77 117.873Z" fill="rgb(27,66,249)" fill-rule="nonzero" />
	<path id="Ex max black (color) 10" d="M516.77 117.873L516.77 67.9873C516.77 67.0645 517.06 66.3125 517.641 65.7314C518.256 65.1162 519.008 64.8086 519.897 64.8086L530.612 64.8086C531.535 64.8086 532.287 65.1162 532.868 65.7314C533.483 66.3125 533.791 67.0645 533.791 67.9873L533.791 101.671L551.838 68.5C552.385 67.4404 553.222 66.5688 554.35 65.8853C555.478 65.1675 556.572 64.8086 557.631 64.8086L571.987 64.8086C572.91 64.8086 573.662 65.1162 574.243 65.7314C574.858 66.3125 575.166 67.0645 575.166 67.9873L575.166 117.873C575.166 118.795 574.858 119.547 574.243 120.128C573.662 120.709 572.91 121 571.987 121L561.271 121C560.349 121 559.597 120.709 559.016 120.128C558.435 119.513 558.144 118.761 558.144 117.873L558.144 84.2397L540.097 117.309C539.55 118.3 538.713 119.171 537.585 119.923C536.457 120.641 535.363 121 534.304 121L519.897 121C518.974 121 518.222 120.709 517.641 120.128C517.06 119.547 516.77 118.795 516.77 117.873Z" fill="rgb(0,0,0)" fill-rule="nonzero" />
	<path id="Ex max black (color) 10" d="M452.531 74.0884L452.531 67.9873C452.531 67.0645 452.822 66.3125 453.403 65.7314C454.018 65.1162 454.787 64.8086 455.71 64.8086L506.21 64.8086C507.133 64.8086 507.885 65.1162 508.466 65.7314C509.047 66.3125 509.338 67.0645 509.338 67.9873L509.338 74.0884C509.338 74.9771 509.047 75.729 508.466 76.3442C507.885 76.9253 507.133 77.2158 506.21 77.2158L489.855 77.2158L489.855 117.873C489.855 118.761 489.548 119.513 488.933 120.128C488.352 120.709 487.6 121 486.677 121L475.244 121C474.321 121 473.552 120.709 472.937 120.128C472.355 119.513 472.065 118.761 472.065 117.873L472.065 77.2158L455.71 77.2158C454.787 77.2158 454.018 76.9253 453.403 76.3442C452.822 75.729 452.531 74.9771 452.531 74.0884Z" fill="rgb(27,66,249)" fill-rule="nonzero" />
	<path id="Ex max black (color) 10" d="M452.531 74.0884L452.531 67.9873C452.531 67.0645 452.822 66.3125 453.403 65.7314C454.018 65.1162 454.787 64.8086 455.71 64.8086L506.21 64.8086C507.133 64.8086 507.885 65.1162 508.466 65.7314C509.047 66.3125 509.338 67.0645 509.338 67.9873L509.338 74.0884C509.338 74.9771 509.047 75.729 508.466 76.3442C507.885 76.9253 507.133 77.2158 506.21 77.2158L489.855 77.2158L489.855 117.873C489.855 118.761 489.548 119.513 488.933 120.128C488.352 120.709 487.6 121 486.677 121L475.244 121C474.321 121 473.552 120.709 472.937 120.128C472.355 119.513 472.065 118.761 472.065 117.873L472.065 77.2158L455.71 77.2158C454.787 77.2158 454.018 76.9253 453.403 76.3442C452.822 75.729 452.531 74.9771 452.531 74.0884Z" fill="rgb(0,0,0)" fill-rule="nonzero" />
	<path id="Ex max black (color) 10" d="M393.928 117.309C389.416 114.164 387.16 109.721 387.16 103.979C387.16 98.2363 389.416 93.8271 393.928 90.751C398.474 87.6748 404.318 86.1367 411.462 86.1367L428.432 86.1367C428.432 82.1377 427.595 79.3521 425.92 77.7798C424.245 76.2075 421.306 75.4214 417.102 75.4214C412.932 75.4214 409.992 76.4639 408.283 78.5488C406.608 80.5996 404.541 81.625 402.08 81.625L394.44 81.625C393.518 81.625 392.749 81.3345 392.133 80.7534C391.552 80.1382 391.262 79.3862 391.262 78.4976C391.262 68.688 400.576 63.7832 419.204 63.7832C427.338 63.7832 433.867 65.6118 438.789 69.269C443.71 72.8921 446.171 78.5146 446.171 86.1367L446.171 117.873C446.171 118.795 445.881 119.547 445.3 120.128C444.719 120.709 443.967 121 443.044 121L433.149 121C432.226 121 431.474 120.709 430.893 120.128C430.312 119.513 430.021 118.761 430.021 117.873L430.021 116.283C424.621 120.146 418.383 122.06 411.308 122.025C404.267 122.025 398.474 120.453 393.928 117.309ZM412.692 97.7749C410.3 97.7749 408.403 98.356 407.001 99.5181C405.634 100.68 404.951 102.184 404.951 104.03C404.951 105.875 405.668 107.396 407.104 108.593C408.54 109.789 410.573 110.387 413.205 110.387C418.469 110.387 423.544 108.849 428.432 105.773L428.432 97.7749L412.692 97.7749Z" fill="rgb(27,66,249)" fill-rule="nonzero" />
	<path id="Ex max black (color) 10" d="M393.928 117.309C389.416 114.164 387.16 109.721 387.16 103.979C387.16 98.2363 389.416 93.8271 393.928 90.751C398.474 87.6748 404.318 86.1367 411.462 86.1367L428.432 86.1367C428.432 82.1377 427.595 79.3521 425.92 77.7798C424.245 76.2075 421.306 75.4214 417.102 75.4214C412.932 75.4214 409.992 76.4639 408.283 78.5488C406.608 80.5996 404.541 81.625 402.08 81.625L394.44 81.625C393.518 81.625 392.749 81.3345 392.133 80.7534C391.552 80.1382 391.262 79.3862 391.262 78.4976C391.262 68.688 400.576 63.7832 419.204 63.7832C427.338 63.7832 433.867 65.6118 438.789 69.269C443.71 72.8921 446.171 78.5146 446.171 86.1367L446.171 117.873C446.171 118.795 445.881 119.547 445.3 120.128C444.719 120.709 443.967 121 443.044 121L433.149 121C432.226 121 431.474 120.709 430.893 120.128C430.312 119.513 430.021 118.761 430.021 117.873L430.021 116.283C424.621 120.146 418.383 122.06 411.308 122.025C404.267 122.025 398.474 120.453 393.928 117.309ZM412.692 97.7749C410.3 97.7749 408.403 98.356 407.001 99.5181C405.634 100.68 404.951 102.184 404.951 104.03C404.951 105.875 405.668 107.396 407.104 108.593C408.54 109.789 410.573 110.387 413.205 110.387C418.469 110.387 423.544 108.849 428.432 105.773L428.432 97.7749L412.692 97.7749Z" fill="rgb(0,0,0)" fill-rule="nonzero" />
	<path id="Ex max black (color) 10" d="M301.949 117.873L301.949 67.9873C301.949 67.0645 302.24 66.3125 302.821 65.7314C303.436 65.1162 304.188 64.8086 305.077 64.8086L322.713 64.8086C324.73 64.8086 326.268 66.0732 327.328 68.6025L339.837 99.1592L352.347 68.6025C353.407 66.0732 354.945 64.8086 356.961 64.8086L374.598 64.8086C375.521 64.8086 376.273 65.1162 376.854 65.7314C377.469 66.3125 377.777 67.0645 377.777 67.9873L377.777 117.873C377.777 118.795 377.469 119.547 376.854 120.128C376.273 120.709 375.521 121 374.598 121L363.473 121C362.55 121 361.798 120.709 361.217 120.128C360.636 119.513 360.345 118.761 360.345 117.873L360.345 85.8291L347.22 117.411C346.161 119.804 344.537 121 342.35 121L337.325 121C335.172 121 333.565 119.804 332.506 117.411L319.381 85.8291L319.381 117.873C319.381 118.795 319.073 119.547 318.458 120.128C317.877 120.709 317.125 121 316.202 121L305.077 121C304.154 121 303.402 120.709 302.821 120.128C302.24 119.547 301.949 118.795 301.949 117.873Z" fill="rgb(27,66,249)" fill-rule="nonzero" />
	<path id="Ex max black (color) 10" d="M301.949 117.873L301.949 67.9873C301.949 67.0645 302.24 66.3125 302.821 65.7314C303.436 65.1162 304.188 64.8086 305.077 64.8086L322.713 64.8086C324.73 64.8086 326.268 66.0732 327.328 68.6025L339.837 99.1592L352.347 68.6025C353.407 66.0732 354.945 64.8086 356.961 64.8086L374.598 64.8086C375.521 64.8086 376.273 65.1162 376.854 65.7314C377.469 66.3125 377.777 67.0645 377.777 67.9873L377.777 117.873C377.777 118.795 377.469 119.547 376.854 120.128C376.273 120.709 375.521 121 374.598 121L363.473 121C362.55 121 361.798 120.709 361.217 120.128C360.636 119.513 360.345 118.761 360.345 117.873L360.345 85.8291L347.22 117.411C346.161 119.804 344.537 121 342.35 121L337.325 121C335.172 121 333.565 119.804 332.506 117.411L319.381 85.8291L319.381 117.873C319.381 118.795 319.073 119.547 318.458 120.128C317.877 120.709 317.125 121 316.202 121L305.077 121C304.154 121 303.402 120.709 302.821 120.128C302.24 119.547 301.949 118.795 301.949 117.873Z" fill="rgb(0,0,0)" fill-rule="nonzero" />
	<path id="Ex max black (color) 10" d="M240.528 114.54C235.265 109.55 232.633 102.372 232.633 93.0068C232.633 83.6074 235.282 76.3955 240.58 71.3711C245.877 66.3125 253.226 63.7832 262.625 63.7832C272.025 63.7832 279.356 66.2441 284.62 71.166C289.884 76.0537 292.516 83.0776 292.516 92.2378L292.516 95.1602C292.516 96.083 292.208 96.8521 291.593 97.4673C291.012 98.0483 290.26 98.3389 289.337 98.3389L250.731 98.3389C251.073 102.543 252.269 105.602 254.32 107.516C256.405 109.43 259.72 110.387 264.266 110.387C268.812 110.387 271.922 109.362 273.597 107.311C275.272 105.26 277.34 104.218 279.801 104.184L287.44 104.184C288.363 104.184 289.115 104.491 289.696 105.106C290.311 105.688 290.619 106.439 290.619 107.362C290.619 117.172 281.271 122.06 262.574 122.025C253.141 122.025 245.792 119.53 240.528 114.54ZM250.628 87.521L274.469 87.521C274.127 79.4546 270.162 75.4214 262.574 75.4214C255.021 75.4214 251.039 79.4546 250.628 87.521Z" fill="rgb(27,66,249)" fill-rule="nonzero" />
	<path id="Ex max black (color) 10" d="M240.528 114.54C235.265 109.55 232.633 102.372 232.633 93.0068C232.633 83.6074 235.282 76.3955 240.58 71.3711C245.877 66.3125 253.226 63.7832 262.625 63.7832C272.025 63.7832 279.356 66.2441 284.62 71.166C289.884 76.0537 292.516 83.0776 292.516 92.2378L292.516 95.1602C292.516 96.083 292.208 96.8521 291.593 97.4673C291.012 98.0483 290.26 98.3389 289.337 98.3389L250.731 98.3389C251.073 102.543 252.269 105.602 254.32 107.516C256.405 109.43 259.72 110.387 264.266 110.387C268.812 110.387 271.922 109.362 273.597 107.311C275.272 105.26 277.34 104.218 279.801 104.184L287.44 104.184C288.363 104.184 289.115 104.491 289.696 105.106C290.311 105.688 290.619 106.439 290.619 107.362C290.619 117.172 281.271 122.06 262.574 122.025C253.141 122.025 245.792 119.53 240.528 114.54ZM250.628 87.521L274.469 87.521C274.127 79.4546 270.162 75.4214 262.574 75.4214C255.021 75.4214 251.039 79.4546 250.628 87.521Z" fill="rgb(0,0,0)" fill-rule="nonzero" />
	<path id="Ex max black (color) 10" d="M172.086 74.0884L172.086 67.9873C172.086 67.0645 172.376 66.3125 172.958 65.7314C173.573 65.1162 174.342 64.8086 175.265 64.8086L225.765 64.8086C226.688 64.8086 227.44 65.1162 228.021 65.7314C228.602 66.3125 228.893 67.0645 228.893 67.9873L228.893 74.0884C228.893 74.9771 228.602 75.729 228.021 76.3442C227.44 76.9253 226.688 77.2158 225.765 77.2158L209.41 77.2158L209.41 117.873C209.41 118.761 209.103 119.513 208.487 120.128C207.906 120.709 207.154 121 206.231 121L194.798 121C193.875 121 193.106 120.709 192.491 120.128C191.91 119.513 191.62 118.761 191.62 117.873L191.62 77.2158L175.265 77.2158C174.342 77.2158 173.573 76.9253 172.958 76.3442C172.376 75.729 172.086 74.9771 172.086 74.0884Z" fill="rgb(27,66,249)" fill-rule="nonzero" />
	<path id="Ex max black (color) 10" d="M172.086 74.0884L172.086 67.9873C172.086 67.0645 172.376 66.3125 172.958 65.7314C173.573 65.1162 174.342 64.8086 175.265 64.8086L225.765 64.8086C226.688 64.8086 227.44 65.1162 228.021 65.7314C228.602 66.3125 228.893 67.0645 228.893 67.9873L228.893 74.0884C228.893 74.9771 228.602 75.729 228.021 76.3442C227.44 76.9253 226.688 77.2158 225.765 77.2158L209.41 77.2158L209.41 117.873C209.41 118.761 209.103 119.513 208.487 120.128C207.906 120.709 207.154 121 206.231 121L194.798 121C193.875 121 193.106 120.709 192.491 120.128C191.91 119.513 191.62 118.761 191.62 117.873L191.62 77.2158L175.265 77.2158C174.342 77.2158 173.573 76.9253 172.958 76.3442C172.376 75.729 172.086 74.9771 172.086 74.0884Z" fill="rgb(0,0,0)" fill-rule="nonzero" />
	<path id="Ex max black (color) 10" d="M113.482 117.309C108.971 114.164 106.715 109.721 106.715 103.979C106.715 98.2363 108.971 93.8271 113.482 90.751C118.028 87.6748 123.873 86.1367 131.017 86.1367L147.987 86.1367C147.987 82.1377 147.149 79.3521 145.475 77.7798C143.8 76.2075 140.86 75.4214 136.656 75.4214C132.486 75.4214 129.547 76.4639 127.838 78.5488C126.163 80.5996 124.095 81.625 121.634 81.625L113.995 81.625C113.072 81.625 112.303 81.3345 111.688 80.7534C111.107 80.1382 110.816 79.3862 110.816 78.4976C110.816 68.688 120.13 63.7832 138.758 63.7832C146.893 63.7832 153.421 65.6118 158.343 69.269C163.265 72.8921 165.726 78.5146 165.726 86.1367L165.726 117.873C165.726 118.795 165.436 119.547 164.854 120.128C164.273 120.709 163.521 121 162.599 121L152.704 121C151.781 121 151.029 120.709 150.448 120.128C149.867 119.513 149.576 118.761 149.576 117.873L149.576 116.283C144.176 120.146 137.938 122.06 130.863 122.025C123.822 122.025 118.028 120.453 113.482 117.309ZM132.247 97.7749C129.854 97.7749 127.958 98.356 126.556 99.5181C125.189 100.68 124.505 102.184 124.505 104.03C124.505 105.875 125.223 107.396 126.659 108.593C128.094 109.789 130.128 110.387 132.76 110.387C138.023 110.387 143.099 108.849 147.987 105.773L147.987 97.7749L132.247 97.7749Z" fill="rgb(27,66,249)" fill-rule="nonzero" />
	<path id="Ex max black (color) 10" d="M113.482 117.309C108.971 114.164 106.715 109.721 106.715 103.979C106.715 98.2363 108.971 93.8271 113.482 90.751C118.028 87.6748 123.873 86.1367 131.017 86.1367L147.987 86.1367C147.987 82.1377 147.149 79.3521 145.475 77.7798C143.8 76.2075 140.86 75.4214 136.656 75.4214C132.486 75.4214 129.547 76.4639 127.838 78.5488C126.163 80.5996 124.095 81.625 121.634 81.625L113.995 81.625C113.072 81.625 112.303 81.3345 111.688 80.7534C111.107 80.1382 110.816 79.3862 110.816 78.4976C110.816 68.688 120.13 63.7832 138.758 63.7832C146.893 63.7832 153.421 65.6118 158.343 69.269C163.265 72.8921 165.726 78.5146 165.726 86.1367L165.726 117.873C165.726 118.795 165.436 119.547 164.854 120.128C164.273 120.709 163.521 121 162.599 121L152.704 121C151.781 121 151.029 120.709 150.448 120.128C149.867 119.513 149.576 118.761 149.576 117.873L149.576 116.283C144.176 120.146 137.938 122.06 130.863 122.025C123.822 122.025 118.028 120.453 113.482 117.309ZM132.247 97.7749C129.854 97.7749 127.958 98.356 126.556 99.5181C125.189 100.68 124.505 102.184 124.505 104.03C124.505 105.875 125.223 107.396 126.659 108.593C128.094 109.789 130.128 110.387 132.76 110.387C138.023 110.387 143.099 108.849 147.987 105.773L147.987 97.7749L132.247 97.7749Z" fill="rgb(0,0,0)" fill-rule="nonzero" />
	<path id="Ex max black (color) 10" d="M2.33203 116.078L2.33203 52.4526C2.33203 51.0513 2.79346 49.8721 3.71631 48.915C4.63916 47.958 5.76709 47.4795 7.1001 47.4795L27.9668 47.4795C29.2998 47.4795 30.5645 47.958 31.7607 48.915C32.957 49.8721 33.7603 51.0171 34.1704 52.3501L49.2949 96.1343L64.4194 52.3501C64.8296 51.0171 65.6328 49.8721 66.8291 48.915C68.0254 47.958 69.29 47.4795 70.623 47.4795L91.4897 47.4795C92.8228 47.4795 93.9336 47.958 94.8223 48.915C95.7451 49.8721 96.2065 51.0513 96.2065 52.4526L96.2065 116.078C96.2065 117.479 95.728 118.659 94.771 119.616C93.8481 120.539 92.7202 121 91.3872 121L82.1587 121C80.8257 121 79.6807 120.539 78.7236 119.616C77.8008 118.659 77.3394 117.479 77.3394 116.078L77.3394 65.9878L59.2412 116.386C58.7627 117.65 57.9253 118.744 56.729 119.667C55.5327 120.556 54.2681 121 52.9351 121L45.6035 121C44.2705 121 43.0059 120.556 41.8096 119.667C40.6475 118.744 39.8101 117.65 39.2974 116.386L21.2505 65.9878L21.2505 116.078C21.2505 117.479 20.772 118.659 19.8149 119.616C18.8921 120.539 17.7642 121 16.4312 121L7.20264 121C5.86963 121 4.72461 120.539 3.76758 119.616C2.81055 118.659 2.33203 117.479 2.33203 116.078Z" fill="rgb(27,66,249)" fill-rule="nonzero" />
	<path id="Ex max black (color) 10" d="M2.33203 116.078L2.33203 52.4526C2.33203 51.0513 2.79346 49.8721 3.71631 48.915C4.63916 47.958 5.76709 47.4795 7.1001 47.4795L27.9668 47.4795C29.2998 47.4795 30.5645 47.958 31.7607 48.915C32.957 49.8721 33.7603 51.0171 34.1704 52.3501L49.2949 96.1343L64.4194 52.3501C64.8296 51.0171 65.6328 49.8721 66.8291 48.915C68.0254 47.958 69.29 47.4795 70.623 47.4795L91.4897 47.4795C92.8228 47.4795 93.9336 47.958 94.8223 48.915C95.7451 49.8721 96.2065 51.0513 96.2065 52.4526L96.2065 116.078C96.2065 117.479 95.728 118.659 94.771 119.616C93.8481 120.539 92.7202 121 91.3872 121L82.1587 121C80.8257 121 79.6807 120.539 78.7236 119.616C77.8008 118.659 77.3394 117.479 77.3394 116.078L77.3394 65.9878L59.2412 116.386C58.7627 117.65 57.9253 118.744 56.729 119.667C55.5327 120.556 54.2681 121 52.9351 121L45.6035 121C44.2705 121 43.0059 120.556 41.8096 119.667C40.6475 118.744 39.8101 117.65 39.2974 116.386L21.2505 65.9878L21.2505 116.078C21.2505 117.479 20.772 118.659 19.8149 119.616C18.8921 120.539 17.7642 121 16.4312 121L7.20264 121C5.86963 121 4.72461 120.539 3.76758 119.616C2.81055 118.659 2.33203 117.479 2.33203 116.078Z" fill="rgb(0,0,0)" fill-rule="nonzero" />
</svg>
