<svg viewBox="0 0 122.719 162.766" xmlns="http://www.w3.org/2000/svg" xmlns:xlink="http://www.w3.org/1999/xlink" width="122.718750" height="162.765625" fill="none" customFrame="#000000">
	<path id="Vector" d="M0 48.8173C0 31.7206 0 23.1926 3.34579 16.6592C6.29907 10.9284 10.9876 6.26513 16.7494 3.32776C23.2977 0 31.8924 0 49.0818 0L73.638 0C90.8274 0 99.4016 0 105.97 3.32776C111.74 6.2538 116.432 10.9202 119.374 16.6592C122.72 23.1722 122.72 31.7206 122.72 48.8173L122.72 113.948C122.72 131.045 122.72 139.573 119.374 146.106C116.432 151.845 111.74 156.511 105.97 159.437C99.4221 162.765 90.8274 162.765 73.638 162.765L49.0818 162.765C31.8924 162.765 23.3182 162.765 16.7494 159.437C10.9876 156.5 6.29907 151.837 3.34579 146.106C0 139.593 0 131.045 0 113.948L0 48.8173ZM49.0818 10.1665L73.638 10.1665C82.4373 10.1665 88.3718 10.1766 92.9761 10.5532C97.4576 10.9094 99.7597 11.5708 101.356 12.385C105.206 14.3363 108.337 17.4498 110.298 21.2794C111.107 22.8669 111.772 25.1567 112.14 29.6038C112.519 34.1833 112.529 40.1265 112.529 48.8377L112.529 113.968C112.529 122.72 112.519 128.623 112.14 133.202C111.782 137.67 111.117 139.959 110.298 141.547C108.334 145.373 105.203 148.487 101.356 150.441C99.7597 151.245 97.4576 151.907 92.9761 152.273C88.3718 152.65 82.4066 152.65 73.638 152.65L49.0818 152.65C40.2825 152.65 34.348 152.639 29.7437 152.273C25.2622 151.917 22.9601 151.255 21.3639 150.441C17.5168 148.487 14.3859 145.373 12.4214 141.547C11.6131 139.959 10.948 137.67 10.5796 133.212C10.2011 128.633 10.1908 122.7 10.1908 113.978L10.1908 48.8479C10.1908 40.096 10.2011 34.1935 10.5796 29.614C10.9378 25.1465 11.6028 22.8669 12.4214 21.2794C14.3832 17.4498 17.5136 14.3363 21.3639 12.385C22.9601 11.5708 25.2622 10.9094 29.7437 10.5532C34.348 10.1665 40.3132 10.1665 49.0818 10.1665ZM61.3726 45.7638C64.7607 45.7609 68.0094 44.421 70.4054 42.038C72.804 39.6524 74.1515 36.4168 74.1515 33.043C74.1515 29.6692 72.804 26.4336 70.4054 24.048C68.0069 21.6624 64.7538 20.3222 61.3617 20.3222C57.9697 20.3222 54.7166 21.6624 52.3181 24.048C49.9195 26.4336 48.572 29.6692 48.572 33.043C48.572 36.4168 49.9195 39.6524 52.3181 42.038C54.7166 44.4236 57.9697 45.7638 61.3617 45.7638C58.3906 45.7685 55.4951 46.6985 53.0821 48.424C50.6581 50.1573 48.8439 52.6054 47.8967 55.4214L47.0066 58.0674C46.8953 58.4058 46.866 58.7655 46.9211 59.1173C46.9762 59.4691 47.1141 59.8029 47.3236 60.0916C47.5331 60.3803 47.8082 60.6157 48.1265 60.7786C48.4448 60.9414 48.7973 61.0272 49.1552 61.0288L73.6092 61.0288C73.9687 61.0317 74.3236 60.9489 74.6444 60.7873C74.9651 60.6257 75.2423 60.3901 75.4527 60.1001C75.663 59.8102 75.8005 59.4743 75.8536 59.1206C75.9067 58.767 75.8739 58.4058 75.7578 58.0674L74.8677 55.4214C72.928 49.6642 67.4945 45.7812 61.4027 45.7639L61.3726 45.7638L61.3726 45.7638ZM30.6664 86.4704C30.6664 85.1209 31.2054 83.8266 32.1649 82.8724C33.1243 81.9181 34.4255 81.382 35.7823 81.382L86.9412 81.382C88.298 81.382 89.5992 81.9181 90.5586 82.8724C91.5181 83.8266 92.057 85.1209 92.057 86.4704C92.057 87.8199 91.5181 89.1141 90.5586 90.0684C89.5992 91.0226 88.298 91.5587 86.9412 91.5587L35.7823 91.5587C34.4255 91.5587 33.1243 91.0226 32.1649 90.0684C31.2054 89.1141 30.6664 87.8199 30.6664 86.4704ZM30.6664 106.824C30.6664 105.474 31.2054 104.18 32.1649 103.226C33.1243 102.271 34.4255 101.735 35.7823 101.735L86.9412 101.735C88.298 101.735 89.5992 102.271 90.5586 103.226C91.5181 104.18 92.057 105.474 92.057 106.824C92.057 108.173 91.5181 109.467 90.5586 110.422C89.5992 111.376 88.298 111.912 86.9412 111.912L35.7823 111.912C34.4255 111.912 33.1243 111.376 32.1649 110.422C31.2054 109.467 30.6664 108.173 30.6664 106.824ZM35.7823 122.089C34.4255 122.089 33.1243 122.625 32.1649 123.579C31.2054 124.533 30.6664 125.827 30.6664 127.177C30.6664 128.526 31.2054 129.821 32.1649 130.775C33.1243 131.729 34.4255 132.265 35.7823 132.265L56.2459 132.265C57.6027 132.265 58.9039 131.729 59.8633 130.775C60.8228 129.821 61.3617 128.526 61.3617 127.177C61.3617 125.827 60.8228 124.533 59.8633 123.579C58.9039 122.625 57.6027 122.089 56.2459 122.089L35.7823 122.089Z" fill="rgb(16.7995,16.7995,16.7995)" fill-rule="evenodd" />
</svg>
