<svg viewBox="0 0 140.844 163.807" xmlns="http://www.w3.org/2000/svg" xmlns:xlink="http://www.w3.org/1999/xlink" width="140.843750" height="163.806641" fill="none" customFrame="#000000">
	<path id="Vector (Stroke)" d="M120.559 125.776C120.559 121.069 118.675 116.543 115.307 113.2C111.937 109.856 107.356 107.969 102.571 107.969C97.7851 107.969 93.2044 109.856 89.8345 113.2C86.4661 116.543 84.5825 121.069 84.5825 125.776C84.5826 130.484 86.4663 135.008 89.8345 138.351C93.2044 141.696 97.785 143.582 102.571 143.582L103.465 143.561C107.924 143.342 112.147 141.487 115.307 138.351C118.675 135.008 120.559 130.484 120.559 125.776ZM0 149.706L0 133.752C0.000105978 123.651 4.04379 113.973 11.2261 106.845C18.4071 99.7179 28.1369 95.7219 38.2726 95.7219L50.3285 95.7219C53.7105 95.7219 56.4521 98.4635 56.4521 101.846C56.452 105.227 53.7104 107.969 50.3285 107.969L38.2726 107.969C31.3556 107.969 24.7311 110.697 19.8539 115.537C14.9784 120.376 12.2473 126.929 12.2472 133.752L12.2472 149.706C12.2472 153.088 9.5056 155.829 6.12362 155.829C2.74164 155.829 0 153.088 0 149.706ZM80.3725 38.0304C80.3723 31.2073 77.6413 24.6539 72.7658 19.815C67.8886 14.9747 61.2641 12.2472 54.3471 12.2472C47.4301 12.2472 40.8056 14.9747 35.9284 19.815C31.0529 24.6539 28.3219 31.2073 28.3217 38.0304C28.3217 44.8536 31.0528 51.4068 35.9284 56.2458C40.8056 61.0863 47.4299 63.8151 54.3471 63.8151L54.9944 63.8061C61.6765 63.6416 68.0409 60.9351 72.7658 56.2458C77.6414 51.4068 80.3725 44.8536 80.3725 38.0304ZM132.806 125.776C132.806 131.676 131.058 137.391 127.857 142.246L139.033 153.337C141.433 155.719 141.448 159.596 139.066 161.996C136.683 164.397 132.807 164.411 130.406 162.029L119.179 150.887C114.486 153.953 108.998 155.681 103.32 155.82L102.571 155.829C94.5665 155.829 86.8804 152.674 81.2067 147.043C75.5319 141.411 72.3353 133.762 72.3352 125.776C72.3352 117.791 75.5316 110.141 81.2067 104.508C86.8804 98.8771 94.5665 95.7219 102.571 95.7219C110.575 95.7219 118.261 98.8771 123.934 104.508C129.61 110.141 132.806 117.791 132.806 125.776ZM92.6197 38.0304C92.6197 48.1318 88.5761 57.8108 81.3936 64.9393C74.4371 71.8435 65.0886 75.8092 55.2964 76.0504L54.3471 76.0623C44.2115 76.0623 34.4816 72.0663 27.3006 64.9393C20.1181 57.8108 16.0745 48.1318 16.0745 38.0304C16.0746 27.9293 20.1183 18.2514 27.3006 11.123C34.4816 3.99597 44.2114 8.1583e-15 54.3471 0C64.4828 4.07915e-15 74.2126 3.99597 81.3936 11.123C88.5759 18.2514 92.6196 27.9293 92.6197 38.0304Z" fill="rgb(16.7995,16.7995,16.7995)" fill-rule="nonzero" />
</svg>
