<svg viewBox="0 0 169.688 169.69" xmlns="http://www.w3.org/2000/svg" xmlns:xlink="http://www.w3.org/1999/xlink" width="169.687500" height="169.690430" fill="none" customFrame="#000000">
	<path id="Vector" d="M79.2574 16.2429C76.1479 20.2997 72.6439 26.5664 67.5456 35.706L64.9649 40.3389L64.4993 41.1755C62.1317 45.4375 60.1192 49.0523 56.8914 51.499C53.632 53.9773 49.6544 54.8692 45.0297 55.911L44.13 56.1162L39.1107 57.2527C29.2062 59.4942 22.4585 61.0333 17.8495 62.8564C13.3432 64.6244 12.3962 66.0845 12.0331 67.2447C11.6464 68.476 11.6385 70.3623 14.3218 74.6401C17.0603 78.981 21.6772 84.3953 28.417 92.2878L31.8421 96.2894L32.434 96.976C35.6145 100.686 38.2662 103.779 39.4816 107.694C40.6891 111.585 40.2866 115.666 39.7973 120.622L39.7183 121.546L39.1975 126.889C38.1715 137.402 37.4928 144.647 37.7217 149.856C37.9584 155.065 39.0554 156.502 39.9314 157.165C40.7048 157.757 42.1412 158.404 46.8212 157.062C51.5801 155.705 57.9095 152.808 67.1826 148.538L71.8862 146.376L72.7465 145.981C77.0476 143.984 80.7727 142.264 84.8449 142.264C88.9172 142.264 92.6423 143.984 96.9434 145.973C97.2223 146.11 97.5116 146.241 97.8115 146.368L102.507 148.538C111.78 152.808 118.11 155.705 122.869 157.062C127.549 158.404 128.985 157.757 129.758 157.165C130.634 156.502 131.731 155.057 131.968 149.856C132.205 144.647 131.51 137.402 130.492 126.889L129.972 121.546L129.893 120.622C129.403 115.666 129.001 111.585 130.208 107.694C131.424 103.779 134.075 100.686 137.256 96.976L137.848 96.2894L141.273 92.2878C148.013 84.3953 152.63 78.981 155.36 74.6401C158.051 70.3623 158.043 68.4839 157.657 67.2447C157.294 66.0845 156.347 64.6244 151.84 62.8564C147.223 61.0333 140.484 59.4942 130.579 57.2527L125.56 56.1162L124.66 55.911C120.035 54.8692 116.058 53.9773 112.798 51.499C109.563 49.0523 107.566 45.4454 105.191 41.1755L104.733 40.3389L102.144 35.706C97.046 26.5664 93.5419 20.2997 90.4325 16.2429C87.323 12.1861 85.7446 11.8389 84.8449 11.8389C83.9452 11.8389 82.3589 12.1861 79.2574 16.2429ZM69.8659 9.04489C73.6146 4.13571 78.263 0 84.8449 0C91.4269 0 96.0674 4.13571 99.8319 9.04489C103.525 13.8751 107.448 20.9074 112.238 29.5024L115.071 34.5774C118.165 40.1337 118.962 41.3176 119.957 42.0753C120.904 42.7935 122.143 43.2039 128.164 44.5694L133.689 45.8164C142.97 47.9158 150.617 49.6443 156.181 51.8384C161.958 54.1194 167.017 57.4737 168.966 63.7325C170.892 69.9282 168.729 75.6266 165.383 80.9383C162.132 86.108 156.939 92.1852 150.593 99.6043L146.845 103.985C142.764 108.752 141.912 109.92 141.51 111.206C141.107 112.524 141.139 114.048 141.762 120.401L142.323 126.226C143.285 136.139 144.067 144.221 143.79 150.377C143.514 156.652 142.094 162.666 136.924 166.596C131.653 170.59 125.52 170.148 119.601 168.443C113.864 166.802 106.714 163.51 98.0325 159.509L92.8553 157.125C87.1889 154.521 85.9814 154.102 84.8449 154.102C83.7085 154.102 82.501 154.521 76.8345 157.125L71.6653 159.509C62.9761 163.51 55.826 166.802 50.0885 168.443C44.1694 170.14 38.0373 170.59 32.7734 166.596C27.5962 162.666 26.1756 156.652 25.8994 150.385C25.6232 144.229 26.4045 136.139 27.3673 126.234L27.9356 120.401C28.5511 114.04 28.5827 112.524 28.1723 111.206C27.7777 109.92 26.9254 108.76 22.8452 103.985L19.0965 99.6043C12.7592 92.1852 7.56624 86.108 4.31473 80.9462C0.960621 75.6266 -1.20179 69.9282 0.723861 63.7325C2.67319 57.4737 7.73198 54.1194 13.5089 51.8384C19.0728 49.6443 26.7202 47.9158 36.0012 45.8164L36.4984 45.7059L41.5177 44.5694C47.5472 43.2039 48.7784 42.7935 49.7333 42.0674C50.7277 41.3176 51.5248 40.1337 54.6264 34.5774L57.4517 29.5024C62.2422 20.8995 66.1645 13.8751 69.858 9.04489" fill="rgb(16.7995,16.7995,16.7995)" fill-rule="evenodd" />
</svg>
