<svg viewBox="0 0 169.695 166.264" xmlns="http://www.w3.org/2000/svg" xmlns:xlink="http://www.w3.org/1999/xlink" width="169.695312" height="166.263672" fill="none" customFrame="#000000">
	<path id="Vector" d="M49.5627 1.73919C48.4525 0.625607 46.9468 0 45.3768 0C43.8082 0.00209797 42.3045 0.628631 41.196 1.74199C40.0876 2.85535 39.465 4.3645 39.465 5.93798L39.465 12.4856C37.418 12.6439 35.4737 12.8445 33.632 13.0873C24.3815 14.3382 16.891 16.9668 10.9792 22.8889C5.07519 28.819 2.45472 36.3325 1.20763 45.6116C0 54.6294 0 66.157 0 80.709L0 97.4303C0 111.982 0 123.502 1.20763 132.528C2.45472 141.807 5.07519 149.32 10.9792 155.25C16.891 161.172 24.3815 163.801 33.632 165.052C42.6222 166.263 54.1143 166.263 68.6217 166.263L101.07 166.263C115.577 166.263 127.061 166.263 136.059 165.052C145.31 163.801 152.8 161.172 158.712 155.25C164.616 149.32 167.237 141.807 168.484 132.528C169.691 123.51 169.691 111.982 169.691 97.4303L169.691 80.709C169.691 66.157 169.691 54.6373 168.484 45.6116C167.237 36.3325 164.616 28.819 158.712 22.8889C152.8 16.9668 145.31 14.3382 136.059 13.0873C134.223 12.8445 132.279 12.6439 130.226 12.4856L130.226 5.93798C130.226 4.36313 129.603 2.85278 128.493 1.73919C127.382 0.625607 125.877 0 124.307 0C122.737 0 121.231 0.625607 120.121 1.73919C119.011 2.85278 118.387 4.36313 118.387 5.93798L118.387 11.9789C113.162 11.876 107.408 11.876 101.07 11.876L68.6057 11.876C62.2756 11.876 56.5217 11.876 51.2966 11.9789L51.2966 5.93798C51.2966 4.36313 50.6729 2.85278 49.5627 1.73919ZM19.3457 31.2892C22.6845 27.9402 27.2624 25.9292 35.1949 24.8603C43.3167 23.7677 54.0038 23.744 69.0558 23.744L100.628 23.744C115.68 23.744 126.375 23.7598 134.481 24.8524C142.421 25.9212 146.999 27.9322 150.338 31.2813C153.677 34.6303 155.681 39.2223 156.747 47.1792C156.926 48.5304 157.078 49.9555 157.205 51.4545L12.4788 51.4545C12.6051 49.9555 12.7577 48.5331 12.9366 47.1871C14.0022 39.2302 16.007 34.6382 19.3457 31.2892ZM11.9342 63.3384C11.8316 68.5084 11.8316 74.391 11.8316 81.1523L11.8316 96.9869C11.8316 112.085 11.8474 122.813 12.9366 130.944C14.0022 138.909 16.007 143.501 19.3457 146.85C22.6845 150.199 27.2624 152.21 35.1949 153.279C43.3167 154.372 54.0038 154.387 69.0558 154.387L100.628 154.387C115.68 154.387 126.375 154.372 134.481 153.279C142.421 152.21 146.999 150.199 150.338 146.85C153.677 143.501 155.681 138.909 156.747 130.952C157.836 122.813 157.852 112.085 157.852 96.9869L157.852 81.1523C157.852 74.391 157.852 68.5084 157.749 63.3384L11.9342 63.3384ZM45.3782 96.9873C47.4716 96.9873 49.4792 96.1532 50.9594 94.6684C52.4396 93.1836 53.2712 91.1698 53.2712 89.07C53.2712 86.9702 52.4396 84.9564 50.9594 83.4717C49.4792 81.9869 47.4716 81.1527 45.3782 81.1527C43.2849 81.1527 41.2772 81.9869 39.797 83.4717C38.3168 84.9564 37.4852 86.9702 37.4852 89.07C37.4852 91.1698 38.3168 93.1836 39.797 94.6684C41.2772 96.1532 43.2849 96.9873 45.3782 96.9873ZM92.7362 89.07C92.7362 91.1698 91.9046 93.1836 90.4244 94.6684C88.9441 96.1532 86.9365 96.9873 84.8432 96.9873C82.7498 96.9873 80.7422 96.1532 79.262 94.6684C77.7818 93.1836 76.9502 91.1698 76.9502 89.07C76.9502 86.9702 77.7818 84.9564 79.262 83.4717C80.7422 81.9869 82.7498 81.1527 84.8432 81.1527C86.9365 81.1527 88.9441 81.9869 90.4244 83.4717C91.9046 84.9564 92.7362 86.9702 92.7362 89.07ZM124.308 96.9873C126.401 96.9873 128.409 96.1532 129.889 94.6684C131.37 93.1836 132.201 91.1698 132.201 89.07C132.201 86.9702 131.37 84.9564 129.889 83.4717C128.409 81.9869 126.401 81.1527 124.308 81.1527C122.215 81.1527 120.207 81.9869 118.727 83.4717C117.247 84.9564 116.415 86.9702 116.415 89.07C116.415 91.1698 117.247 93.1836 118.727 94.6684C120.207 96.1532 122.215 96.9873 124.308 96.9873ZM45.3782 128.657C47.4716 128.657 49.4792 127.822 50.9594 126.338C52.4396 124.853 53.2712 122.839 53.2712 120.739C53.2712 118.639 52.4396 116.626 50.9594 115.141C49.4792 113.656 47.4716 112.822 45.3782 112.822C43.2849 112.822 41.2772 113.656 39.797 115.141C38.3168 116.626 37.4852 118.639 37.4852 120.739C37.4852 122.839 38.3168 124.853 39.797 126.338C41.2772 127.822 43.2849 128.657 45.3782 128.657ZM92.7362 120.739C92.7362 122.839 91.9046 124.853 90.4244 126.338C88.9441 127.822 86.9365 128.657 84.8432 128.657C82.7498 128.657 80.7422 127.822 79.262 126.338C77.7818 124.853 76.9502 122.839 76.9502 120.739C76.9502 118.639 77.7818 116.626 79.262 115.141C80.7422 113.656 82.7498 112.822 84.8432 112.822C86.9365 112.822 88.9441 113.656 90.4244 115.141C91.9046 116.626 92.7362 118.639 92.7362 120.739ZM124.308 128.657C126.401 128.657 128.409 127.822 129.889 126.338C131.37 124.853 132.201 122.839 132.201 120.739C132.201 118.639 131.37 116.626 129.889 115.141C128.409 113.656 126.401 112.822 124.308 112.822C122.215 112.822 120.207 113.656 118.727 115.141C117.247 116.626 116.415 118.639 116.415 120.739C116.415 122.839 117.247 124.853 118.727 126.338C120.207 127.822 122.215 128.657 124.308 128.657Z" fill="rgb(16.7995,16.7995,16.7995)" fill-rule="evenodd" />
</svg>
