<svg viewBox="0 0 912.008 122.026" xmlns="http://www.w3.org/2000/svg" xmlns:xlink="http://www.w3.org/1999/xlink" width="912.007812" height="122.025635" fill="none" customFrame="#000000">
	<rect id="Ex max black (color) 16" width="912.008301" height="122.025566" x="0.000000" y="0.000000" fill="rgb(255,255,255)" fill-opacity="0" />
	<path id="Ex max black (color) 16" d="M3.87703 28.0155L1.02092 22.4802C-1.15403 18.2649 0.229996 12.9984 4.37392 10.8245C40.1818 -7.96054 74.0038 1.40645 91.4021 11.2102C94.9895 13.2316 95.9894 17.6134 93.9708 21.2611C92.9314 23.1395 91.6076 25.505 89.942 28.4479C87.5114 32.7426 82.1589 34.1553 77.7864 32.0115C56.5322 21.5908 37.9312 21.5785 16.1367 31.9746C11.6439 34.1177 6.19225 32.5026 3.87703 28.0155Z" fill="rgb(255,204,0)" fill-rule="evenodd" />
	<path id="Ex max black (color) 16" d="M912.008 118.744C912.008 120.248 911.12 121 909.342 121L899.652 121C896.371 121 893.756 119.394 891.808 116.181L885.297 105.568C882.494 101.022 878.427 98.749 873.095 98.749L873.095 117.873C873.095 118.795 872.787 119.547 872.172 120.128C871.591 120.709 870.856 121 869.967 121L858.483 121C857.56 121 856.808 120.709 856.227 120.128C855.646 119.547 855.355 118.795 855.355 117.873L855.355 67.9873C855.355 67.0645 855.646 66.3125 856.227 65.7314C856.842 65.1162 857.594 64.8086 858.483 64.8086L869.967 64.8086C870.89 64.8086 871.642 65.1162 872.223 65.7314C872.804 66.3125 873.095 67.0645 873.095 67.9873L873.095 87.0596C879.042 87.0596 883.109 84.7524 885.297 80.1382L890.219 69.6792C890.902 68.2095 891.911 67.0303 893.244 66.1416C894.577 65.2529 896.012 64.8086 897.55 64.8086L907.24 64.8086C908.949 64.8086 909.804 65.4751 909.804 66.8081C909.804 67.5601 909.53 68.5171 908.983 69.6792L902.37 83.6245C901.242 85.9487 899.704 87.9482 897.755 89.623C895.807 91.2979 893.705 92.3745 891.449 92.853C895.653 94.1177 899.293 97.1938 902.37 102.082L911.085 116.181C911.667 117.172 911.974 118.026 912.008 118.744Z" fill="rgb(255,204,0)" fill-rule="nonzero" />
	<path id="Ex max black (color) 16" d="M912.008 118.744C912.008 120.248 911.12 121 909.342 121L899.652 121C896.371 121 893.756 119.394 891.808 116.181L885.297 105.568C882.494 101.022 878.427 98.749 873.095 98.749L873.095 117.873C873.095 118.795 872.787 119.547 872.172 120.128C871.591 120.709 870.856 121 869.967 121L858.483 121C857.56 121 856.808 120.709 856.227 120.128C855.646 119.547 855.355 118.795 855.355 117.873L855.355 67.9873C855.355 67.0645 855.646 66.3125 856.227 65.7314C856.842 65.1162 857.594 64.8086 858.483 64.8086L869.967 64.8086C870.89 64.8086 871.642 65.1162 872.223 65.7314C872.804 66.3125 873.095 67.0645 873.095 67.9873L873.095 87.0596C879.042 87.0596 883.109 84.7524 885.297 80.1382L890.219 69.6792C890.902 68.2095 891.911 67.0303 893.244 66.1416C894.577 65.2529 896.012 64.8086 897.55 64.8086L907.24 64.8086C908.949 64.8086 909.804 65.4751 909.804 66.8081C909.804 67.5601 909.53 68.5171 908.983 69.6792L902.37 83.6245C901.242 85.9487 899.704 87.9482 897.755 89.623C895.807 91.2979 893.705 92.3745 891.449 92.853C895.653 94.1177 899.293 97.1938 902.37 102.082L911.085 116.181C911.667 117.172 911.974 118.026 912.008 118.744Z" fill="rgb(0,0,0)" fill-rule="nonzero" />
	<path id="Ex max black (color) 16" d="M764.918 117.873L764.918 67.9873C764.918 67.0645 765.208 66.3125 765.79 65.7314C766.405 65.1162 767.157 64.8086 768.045 64.8086L779.53 64.8086C780.453 64.8086 781.205 65.1162 781.786 65.7314C782.367 66.3125 782.657 67.0645 782.657 67.9873L782.657 83.4194L794.859 83.4194C802.14 83.4194 807.762 84.855 811.727 87.7261C815.726 90.5972 817.726 95.4336 817.726 102.235C817.726 109.003 815.726 113.822 811.727 116.693C807.762 119.564 802.14 121 794.859 121L768.045 121C767.123 121 766.371 120.709 765.79 120.128C765.208 119.547 764.918 118.795 764.918 117.873ZM782.35 109.567L793.27 109.567C797.748 109.567 799.986 107.123 799.986 102.235C799.986 97.3135 797.748 94.8525 793.27 94.8525L782.35 94.8525L782.35 109.567ZM824.955 117.873L824.955 67.9873C824.955 67.0645 825.245 66.3125 825.826 65.7314C826.441 65.1162 827.21 64.8086 828.133 64.8086L839.566 64.8086C840.489 64.8086 841.241 65.1162 841.822 65.7314C842.403 66.3125 842.694 67.0645 842.694 67.9873L842.694 117.873C842.694 118.795 842.403 119.547 841.822 120.128C841.241 120.709 840.489 121 839.566 121L828.133 121C827.21 121 826.441 120.709 825.826 120.128C825.245 119.547 824.955 118.795 824.955 117.873Z" fill="rgb(255,204,0)" fill-rule="nonzero" />
	<path id="Ex max black (color) 16" d="M764.918 117.873L764.918 67.9873C764.918 67.0645 765.208 66.3125 765.79 65.7314C766.405 65.1162 767.157 64.8086 768.045 64.8086L779.53 64.8086C780.453 64.8086 781.205 65.1162 781.786 65.7314C782.367 66.3125 782.657 67.0645 782.657 67.9873L782.657 83.4194L794.859 83.4194C802.14 83.4194 807.762 84.855 811.727 87.7261C815.726 90.5972 817.726 95.4336 817.726 102.235C817.726 109.003 815.726 113.822 811.727 116.693C807.762 119.564 802.14 121 794.859 121L768.045 121C767.123 121 766.371 120.709 765.79 120.128C765.208 119.547 764.918 118.795 764.918 117.873ZM782.35 109.567L793.27 109.567C797.748 109.567 799.986 107.123 799.986 102.235C799.986 97.3135 797.748 94.8525 793.27 94.8525L782.35 94.8525L782.35 109.567ZM824.955 117.873L824.955 67.9873C824.955 67.0645 825.245 66.3125 825.826 65.7314C826.441 65.1162 827.21 64.8086 828.133 64.8086L839.566 64.8086C840.489 64.8086 841.241 65.1162 841.822 65.7314C842.403 66.3125 842.694 67.0645 842.694 67.9873L842.694 117.873C842.694 118.795 842.403 119.547 841.822 120.128C841.241 120.709 840.489 121 839.566 121L828.133 121C827.21 121 826.441 120.709 825.826 120.128C825.245 119.547 824.955 118.795 824.955 117.873Z" fill="rgb(0,0,0)" fill-rule="nonzero" />
	<path id="Ex max black (color) 16" d="M696.523 106.593C696.523 105.67 696.814 104.918 697.395 104.337C698.01 103.756 698.762 103.466 699.651 103.466L707.341 103.466C709.666 103.466 711.477 104.628 712.776 106.952C714.109 109.242 716.638 110.387 720.364 110.387L730.771 110.387C735.728 110.387 738.206 108.354 738.206 104.286C738.206 100.219 735.728 98.2021 730.771 98.2363L718.057 98.2363C717.134 98.2363 716.365 97.9458 715.75 97.3647C715.168 96.7495 714.878 95.9805 714.878 95.0576L714.878 89.7256C714.878 88.8027 715.168 88.0508 715.75 87.4697C716.365 86.8545 717.134 86.5469 718.057 86.5469L729.797 86.5469C732.053 86.5469 733.745 86.0513 734.873 85.0601C736.035 84.0347 736.616 82.6846 736.616 81.0098C736.616 79.335 736.035 77.9849 734.873 76.9595C733.745 75.9341 732.053 75.4214 729.797 75.4214L720.364 75.4214C719.167 75.4214 717.937 75.729 716.672 76.3442C715.408 76.9253 714.468 77.7798 713.853 78.9077C712.52 81.2319 710.691 82.377 708.367 82.3428L700.728 82.3428C699.805 82.3428 699.036 82.0522 698.42 81.4712C697.839 80.8901 697.549 80.1382 697.549 79.2153C697.549 74.6011 699.788 70.8755 704.265 68.0386C708.777 65.2017 714.211 63.7832 720.569 63.7832L730.874 63.7832C738.086 63.7832 743.794 65.1162 747.998 67.7822C752.236 70.4141 754.355 74.4302 754.355 79.8306C754.355 85.231 751.912 89.1274 747.024 91.52C752.971 94.5278 755.945 99.2788 755.945 105.773C755.945 111.447 753.928 115.583 749.895 118.18C745.896 120.744 739.932 122.025 732.002 122.025L720.569 122.025C713.699 122.025 707.974 120.624 703.394 117.821C698.813 115.019 696.523 111.276 696.523 106.593Z" fill="rgb(255,204,0)" fill-rule="nonzero" />
	<path id="Ex max black (color) 16" d="M696.523 106.593C696.523 105.67 696.814 104.918 697.395 104.337C698.01 103.756 698.762 103.466 699.651 103.466L707.341 103.466C709.666 103.466 711.477 104.628 712.776 106.952C714.109 109.242 716.638 110.387 720.364 110.387L730.771 110.387C735.728 110.387 738.206 108.354 738.206 104.286C738.206 100.219 735.728 98.2021 730.771 98.2363L718.057 98.2363C717.134 98.2363 716.365 97.9458 715.75 97.3647C715.168 96.7495 714.878 95.9805 714.878 95.0576L714.878 89.7256C714.878 88.8027 715.168 88.0508 715.75 87.4697C716.365 86.8545 717.134 86.5469 718.057 86.5469L729.797 86.5469C732.053 86.5469 733.745 86.0513 734.873 85.0601C736.035 84.0347 736.616 82.6846 736.616 81.0098C736.616 79.335 736.035 77.9849 734.873 76.9595C733.745 75.9341 732.053 75.4214 729.797 75.4214L720.364 75.4214C719.167 75.4214 717.937 75.729 716.672 76.3442C715.408 76.9253 714.468 77.7798 713.853 78.9077C712.52 81.2319 710.691 82.377 708.367 82.3428L700.728 82.3428C699.805 82.3428 699.036 82.0522 698.42 81.4712C697.839 80.8901 697.549 80.1382 697.549 79.2153C697.549 74.6011 699.788 70.8755 704.265 68.0386C708.777 65.2017 714.211 63.7832 720.569 63.7832L730.874 63.7832C738.086 63.7832 743.794 65.1162 747.998 67.7822C752.236 70.4141 754.355 74.4302 754.355 79.8306C754.355 85.231 751.912 89.1274 747.024 91.52C752.971 94.5278 755.945 99.2788 755.945 105.773C755.945 111.447 753.928 115.583 749.895 118.18C745.896 120.744 739.932 122.025 732.002 122.025L720.569 122.025C713.699 122.025 707.974 120.624 703.394 117.821C698.813 115.019 696.523 111.276 696.523 106.593Z" fill="rgb(0,0,0)" fill-rule="nonzero" />
	<path id="Ex max black (color) 16" d="M631.873 82.9067C631.873 70.8755 639.495 64.8428 654.739 64.8086L684.988 64.8086C685.911 64.8086 686.663 65.1162 687.244 65.7314C687.825 66.3125 688.115 67.0645 688.115 67.9873L688.115 117.873C688.115 118.795 687.825 119.547 687.244 120.128C686.663 120.709 685.911 121 684.988 121L673.555 121C672.632 121 671.863 120.709 671.248 120.128C670.667 119.513 670.376 118.761 670.376 117.873L670.376 100.954L660.327 100.954L651.611 116.488C649.937 119.496 647.271 121 643.613 121L634.385 121C633.12 121 632.3 120.539 631.924 119.616C631.787 119.308 631.719 118.915 631.719 118.437C631.719 117.924 631.975 117.274 632.488 116.488L642.793 99.2617C635.513 96.5615 631.873 91.1099 631.873 82.9067ZM651.406 78.2412C650.21 79.3691 649.612 80.9243 649.612 82.9067C649.612 84.855 650.193 86.4102 651.355 87.5723C652.551 88.7344 654.209 89.3154 656.328 89.3154L670.376 89.3154L670.376 76.498L656.328 76.498C654.243 76.498 652.603 77.0791 651.406 78.2412Z" fill="rgb(255,204,0)" fill-rule="nonzero" />
	<path id="Ex max black (color) 16" d="M631.873 82.9067C631.873 70.8755 639.495 64.8428 654.739 64.8086L684.988 64.8086C685.911 64.8086 686.663 65.1162 687.244 65.7314C687.825 66.3125 688.115 67.0645 688.115 67.9873L688.115 117.873C688.115 118.795 687.825 119.547 687.244 120.128C686.663 120.709 685.911 121 684.988 121L673.555 121C672.632 121 671.863 120.709 671.248 120.128C670.667 119.513 670.376 118.761 670.376 117.873L670.376 100.954L660.327 100.954L651.611 116.488C649.937 119.496 647.271 121 643.613 121L634.385 121C633.12 121 632.3 120.539 631.924 119.616C631.787 119.308 631.719 118.915 631.719 118.437C631.719 117.924 631.975 117.274 632.488 116.488L642.793 99.2617C635.513 96.5615 631.873 91.1099 631.873 82.9067ZM651.406 78.2412C650.21 79.3691 649.612 80.9243 649.612 82.9067C649.612 84.855 650.193 86.4102 651.355 87.5723C652.551 88.7344 654.209 89.3154 656.328 89.3154L670.376 89.3154L670.376 76.498L656.328 76.498C654.243 76.498 652.603 77.0791 651.406 78.2412Z" fill="rgb(0,0,0)" fill-rule="nonzero" />
	<path id="Ex max black (color) 16" d="M526.617 117.873L526.617 67.9873C526.617 67.0645 526.908 66.3125 527.489 65.7314C528.104 65.1162 528.856 64.8086 529.745 64.8086L540.46 64.8086C541.383 64.8086 542.135 65.1162 542.716 65.7314C543.331 66.3125 543.639 67.0645 543.639 67.9873L543.639 101.671L561.686 68.5C562.232 67.4404 563.07 66.5688 564.198 65.8853C565.326 65.1675 566.419 64.8086 567.479 64.8086L581.834 64.8086C582.757 64.8086 583.509 65.1162 584.09 65.7314C584.706 66.3125 585.013 67.0645 585.013 67.9873L585.013 117.873C585.013 118.795 584.706 119.547 584.09 120.128C583.509 120.709 582.757 121 581.834 121L571.119 121C570.196 121 569.444 120.709 568.863 120.128C568.282 119.513 567.992 118.761 567.992 117.873L567.992 84.2397L549.945 117.309C549.398 118.3 548.561 119.171 547.433 119.923C546.305 120.641 545.211 121 544.151 121L529.745 121C528.822 121 528.07 120.709 527.489 120.128C526.908 119.547 526.617 118.795 526.617 117.873ZM538.563 45.3774C538.563 43.6343 539.52 42.7627 541.434 42.7627L545.279 42.7627C546.954 42.7627 548.15 43.6343 548.868 45.3774C549.996 48.1802 552.303 49.5815 555.79 49.5815C559.31 49.5815 561.617 48.1802 562.711 45.3774C563.395 43.6343 564.591 42.7627 566.3 42.7627L570.196 42.7627C572.076 42.7627 573.016 43.6343 573.016 45.3774C573.016 49.3765 571.427 52.6577 568.248 55.2212C565.069 57.7847 560.917 59.0664 555.79 59.0664C550.697 59.0664 546.544 57.7847 543.331 55.2212C540.152 52.6577 538.563 49.3765 538.563 45.3774Z" fill="rgb(255,204,0)" fill-rule="nonzero" />
	<path id="Ex max black (color) 16" d="M526.617 117.873L526.617 67.9873C526.617 67.0645 526.908 66.3125 527.489 65.7314C528.104 65.1162 528.856 64.8086 529.745 64.8086L540.46 64.8086C541.383 64.8086 542.135 65.1162 542.716 65.7314C543.331 66.3125 543.639 67.0645 543.639 67.9873L543.639 101.671L561.686 68.5C562.232 67.4404 563.07 66.5688 564.198 65.8853C565.326 65.1675 566.419 64.8086 567.479 64.8086L581.834 64.8086C582.757 64.8086 583.509 65.1162 584.09 65.7314C584.706 66.3125 585.013 67.0645 585.013 67.9873L585.013 117.873C585.013 118.795 584.706 119.547 584.09 120.128C583.509 120.709 582.757 121 581.834 121L571.119 121C570.196 121 569.444 120.709 568.863 120.128C568.282 119.513 567.992 118.761 567.992 117.873L567.992 84.2397L549.945 117.309C549.398 118.3 548.561 119.171 547.433 119.923C546.305 120.641 545.211 121 544.151 121L529.745 121C528.822 121 528.07 120.709 527.489 120.128C526.908 119.547 526.617 118.795 526.617 117.873ZM538.563 45.3774C538.563 43.6343 539.52 42.7627 541.434 42.7627L545.279 42.7627C546.954 42.7627 548.15 43.6343 548.868 45.3774C549.996 48.1802 552.303 49.5815 555.79 49.5815C559.31 49.5815 561.617 48.1802 562.711 45.3774C563.395 43.6343 564.591 42.7627 566.3 42.7627L570.196 42.7627C572.076 42.7627 573.016 43.6343 573.016 45.3774C573.016 49.3765 571.427 52.6577 568.248 55.2212C565.069 57.7847 560.917 59.0664 555.79 59.0664C550.697 59.0664 546.544 57.7847 543.331 55.2212C540.152 52.6577 538.563 49.3765 538.563 45.3774Z" fill="rgb(0,0,0)" fill-rule="nonzero" />
	<path id="Ex max black (color) 16" d="M455.66 117.873L455.66 67.9873C455.66 67.0645 455.951 66.3125 456.532 65.7314C457.147 65.1162 457.899 64.8086 458.788 64.8086L469.503 64.8086C470.426 64.8086 471.178 65.1162 471.759 65.7314C472.374 66.3125 472.682 67.0645 472.682 67.9873L472.682 101.671L490.729 68.5C491.275 67.4404 492.113 66.5688 493.241 65.8853C494.369 65.1675 495.462 64.8086 496.522 64.8086L510.877 64.8086C511.8 64.8086 512.552 65.1162 513.133 65.7314C513.749 66.3125 514.056 67.0645 514.056 67.9873L514.056 117.873C514.056 118.795 513.749 119.547 513.133 120.128C512.552 120.709 511.8 121 510.877 121L500.162 121C499.239 121 498.487 120.709 497.906 120.128C497.325 119.513 497.035 118.761 497.035 117.873L497.035 84.2397L478.988 117.309C478.441 118.3 477.604 119.171 476.476 119.923C475.348 120.641 474.254 121 473.194 121L458.788 121C457.865 121 457.113 120.709 456.532 120.128C455.951 119.547 455.66 118.795 455.66 117.873Z" fill="rgb(255,204,0)" fill-rule="nonzero" />
	<path id="Ex max black (color) 16" d="M455.66 117.873L455.66 67.9873C455.66 67.0645 455.951 66.3125 456.532 65.7314C457.147 65.1162 457.899 64.8086 458.788 64.8086L469.503 64.8086C470.426 64.8086 471.178 65.1162 471.759 65.7314C472.374 66.3125 472.682 67.0645 472.682 67.9873L472.682 101.671L490.729 68.5C491.275 67.4404 492.113 66.5688 493.241 65.8853C494.369 65.1675 495.462 64.8086 496.522 64.8086L510.877 64.8086C511.8 64.8086 512.552 65.1162 513.133 65.7314C513.749 66.3125 514.056 67.0645 514.056 67.9873L514.056 117.873C514.056 118.795 513.749 119.547 513.133 120.128C512.552 120.709 511.8 121 510.877 121L500.162 121C499.239 121 498.487 120.709 497.906 120.128C497.325 119.513 497.035 118.761 497.035 117.873L497.035 84.2397L478.988 117.309C478.441 118.3 477.604 119.171 476.476 119.923C475.348 120.641 474.254 121 473.194 121L458.788 121C457.865 121 457.113 120.709 456.532 120.128C455.951 119.547 455.66 118.795 455.66 117.873Z" fill="rgb(0,0,0)" fill-rule="nonzero" />
	<path id="Ex max black (color) 16" d="M448.223 118.744C448.223 120.248 447.334 121 445.557 121L435.867 121C432.586 121 429.971 119.394 428.023 116.181L421.512 105.568C418.709 101.022 414.642 98.749 409.31 98.749L409.31 117.873C409.31 118.795 409.002 119.547 408.387 120.128C407.806 120.709 407.071 121 406.182 121L394.698 121C393.775 121 393.023 120.709 392.442 120.128C391.861 119.547 391.57 118.795 391.57 117.873L391.57 67.9873C391.57 67.0645 391.861 66.3125 392.442 65.7314C393.057 65.1162 393.809 64.8086 394.698 64.8086L406.182 64.8086C407.105 64.8086 407.857 65.1162 408.438 65.7314C409.019 66.3125 409.31 67.0645 409.31 67.9873L409.31 87.0596C415.257 87.0596 419.324 84.7524 421.512 80.1382L426.434 69.6792C427.117 68.2095 428.125 67.0303 429.458 66.1416C430.792 65.2529 432.227 64.8086 433.765 64.8086L443.455 64.8086C445.164 64.8086 446.019 65.4751 446.019 66.8081C446.019 67.5601 445.745 68.5171 445.198 69.6792L438.584 83.6245C437.457 85.9487 435.918 87.9482 433.97 89.623C432.022 91.2979 429.92 92.3745 427.664 92.853C431.868 94.1177 435.508 97.1938 438.584 102.082L447.3 116.181C447.881 117.172 448.189 118.026 448.223 118.744Z" fill="rgb(255,204,0)" fill-rule="nonzero" />
	<path id="Ex max black (color) 16" d="M448.223 118.744C448.223 120.248 447.334 121 445.557 121L435.867 121C432.586 121 429.971 119.394 428.023 116.181L421.512 105.568C418.709 101.022 414.642 98.749 409.31 98.749L409.31 117.873C409.31 118.795 409.002 119.547 408.387 120.128C407.806 120.709 407.071 121 406.182 121L394.698 121C393.775 121 393.023 120.709 392.442 120.128C391.861 119.547 391.57 118.795 391.57 117.873L391.57 67.9873C391.57 67.0645 391.861 66.3125 392.442 65.7314C393.057 65.1162 393.809 64.8086 394.698 64.8086L406.182 64.8086C407.105 64.8086 407.857 65.1162 408.438 65.7314C409.019 66.3125 409.31 67.0645 409.31 67.9873L409.31 87.0596C415.257 87.0596 419.324 84.7524 421.512 80.1382L426.434 69.6792C427.117 68.2095 428.125 67.0303 429.458 66.1416C430.792 65.2529 432.227 64.8086 433.765 64.8086L443.455 64.8086C445.164 64.8086 446.019 65.4751 446.019 66.8081C446.019 67.5601 445.745 68.5171 445.198 69.6792L438.584 83.6245C437.457 85.9487 435.918 87.9482 433.97 89.623C432.022 91.2979 429.92 92.3745 427.664 92.853C431.868 94.1177 435.508 97.1938 438.584 102.082L447.3 116.181C447.881 117.172 448.189 118.026 448.223 118.744Z" fill="rgb(0,0,0)" fill-rule="nonzero" />
	<path id="Ex max black (color) 16" d="M318.668 117.873L318.668 67.9873C318.668 67.0645 318.958 66.3125 319.54 65.7314C320.155 65.1162 320.907 64.8086 321.795 64.8086L333.28 64.8086C334.203 64.8086 334.955 65.1162 335.536 65.7314C336.117 66.3125 336.407 67.0645 336.407 67.9873L336.407 108.593L358.248 108.593L358.248 67.9873C358.248 67.0645 358.539 66.3125 359.12 65.7314C359.735 65.1162 360.487 64.8086 361.375 64.8086L372.86 64.8086C373.783 64.8086 374.535 65.1162 375.116 65.7314C375.697 66.3125 375.987 67.0645 375.987 67.9873L375.987 108.593L381.012 108.593C381.935 108.593 382.687 108.9 383.268 109.516C383.883 110.097 384.19 110.849 384.19 111.771L384.19 117.873C384.19 118.795 383.883 119.547 383.268 120.128C382.687 120.709 381.935 121 381.012 121L321.795 121C320.873 121 320.121 120.709 319.54 120.128C318.958 119.547 318.668 118.795 318.668 117.873Z" fill="rgb(255,204,0)" fill-rule="nonzero" />
	<path id="Ex max black (color) 16" d="M318.668 117.873L318.668 67.9873C318.668 67.0645 318.958 66.3125 319.54 65.7314C320.155 65.1162 320.907 64.8086 321.795 64.8086L333.28 64.8086C334.203 64.8086 334.955 65.1162 335.536 65.7314C336.117 66.3125 336.407 67.0645 336.407 67.9873L336.407 108.593L358.248 108.593L358.248 67.9873C358.248 67.0645 358.539 66.3125 359.12 65.7314C359.735 65.1162 360.487 64.8086 361.375 64.8086L372.86 64.8086C373.783 64.8086 374.535 65.1162 375.116 65.7314C375.697 66.3125 375.987 67.0645 375.987 67.9873L375.987 108.593L381.012 108.593C381.935 108.593 382.687 108.9 383.268 109.516C383.883 110.097 384.19 110.849 384.19 111.771L384.19 117.873C384.19 118.795 383.883 119.547 383.268 120.128C382.687 120.709 381.935 121 381.012 121L321.795 121C320.873 121 320.121 120.709 319.54 120.128C318.958 119.547 318.668 118.795 318.668 117.873Z" fill="rgb(0,0,0)" fill-rule="nonzero" />
	<path id="Ex max black (color) 16" d="M257.247 114.54C251.983 109.55 249.352 102.372 249.352 93.0068C249.352 83.6074 252 76.3955 257.298 71.3711C262.596 66.3125 269.945 63.7832 279.344 63.7832C288.744 63.7832 296.075 66.2441 301.339 71.166C306.603 76.0537 309.234 83.0776 309.234 92.2378L309.234 95.1602C309.234 96.083 308.927 96.8521 308.312 97.4673C307.73 98.0483 306.979 98.3389 306.056 98.3389L267.45 98.3389C267.792 102.543 268.988 105.602 271.039 107.516C273.124 109.43 276.439 110.387 280.985 110.387C285.531 110.387 288.641 109.362 290.316 107.311C291.991 105.26 294.059 104.218 296.52 104.184L304.159 104.184C305.082 104.184 305.833 104.491 306.415 105.106C307.03 105.688 307.337 106.439 307.337 107.362C307.337 117.172 297.989 122.06 279.293 122.025C269.859 122.025 262.511 119.53 257.247 114.54ZM267.347 87.521L291.188 87.521C290.846 79.4546 286.881 75.4214 279.293 75.4214C271.739 75.4214 267.757 79.4546 267.347 87.521Z" fill="rgb(255,204,0)" fill-rule="nonzero" />
	<path id="Ex max black (color) 16" d="M257.247 114.54C251.983 109.55 249.352 102.372 249.352 93.0068C249.352 83.6074 252 76.3955 257.298 71.3711C262.596 66.3125 269.945 63.7832 279.344 63.7832C288.744 63.7832 296.075 66.2441 301.339 71.166C306.603 76.0537 309.234 83.0776 309.234 92.2378L309.234 95.1602C309.234 96.083 308.927 96.8521 308.312 97.4673C307.73 98.0483 306.979 98.3389 306.056 98.3389L267.45 98.3389C267.792 102.543 268.988 105.602 271.039 107.516C273.124 109.43 276.439 110.387 280.985 110.387C285.531 110.387 288.641 109.362 290.316 107.311C291.991 105.26 294.059 104.218 296.52 104.184L304.159 104.184C305.082 104.184 305.833 104.491 306.415 105.106C307.03 105.688 307.337 106.439 307.337 107.362C307.337 117.172 297.989 122.06 279.293 122.025C269.859 122.025 262.511 119.53 257.247 114.54ZM267.347 87.521L291.188 87.521C290.846 79.4546 286.881 75.4214 279.293 75.4214C271.739 75.4214 267.757 79.4546 267.347 87.521Z" fill="rgb(0,0,0)" fill-rule="nonzero" />
	<path id="Ex max black (color) 16" d="M164.141 117.873L164.141 67.9873C164.141 67.0645 164.431 66.3125 165.012 65.7314C165.627 65.1162 166.379 64.8086 167.268 64.8086L184.905 64.8086C186.921 64.8086 188.459 66.0732 189.519 68.6025L202.029 99.1592L214.539 68.6025C215.598 66.0732 217.136 64.8086 219.153 64.8086L236.79 64.8086C237.712 64.8086 238.464 65.1162 239.045 65.7314C239.661 66.3125 239.968 67.0645 239.968 67.9873L239.968 117.873C239.968 118.795 239.661 119.547 239.045 120.128C238.464 120.709 237.712 121 236.79 121L225.664 121C224.741 121 223.989 120.709 223.408 120.128C222.827 119.513 222.537 118.761 222.537 117.873L222.537 85.8291L209.412 117.411C208.352 119.804 206.729 121 204.541 121L199.517 121C197.363 121 195.757 119.804 194.697 117.411L181.572 85.8291L181.572 117.873C181.572 118.795 181.265 119.547 180.649 120.128C180.068 120.709 179.316 121 178.394 121L167.268 121C166.345 121 165.593 120.709 165.012 120.128C164.431 119.547 164.141 118.795 164.141 117.873Z" fill="rgb(255,204,0)" fill-rule="nonzero" />
	<path id="Ex max black (color) 16" d="M164.141 117.873L164.141 67.9873C164.141 67.0645 164.431 66.3125 165.012 65.7314C165.627 65.1162 166.379 64.8086 167.268 64.8086L184.905 64.8086C186.921 64.8086 188.459 66.0732 189.519 68.6025L202.029 99.1592L214.539 68.6025C215.598 66.0732 217.136 64.8086 219.153 64.8086L236.79 64.8086C237.712 64.8086 238.464 65.1162 239.045 65.7314C239.661 66.3125 239.968 67.0645 239.968 67.9873L239.968 117.873C239.968 118.795 239.661 119.547 239.045 120.128C238.464 120.709 237.712 121 236.79 121L225.664 121C224.741 121 223.989 120.709 223.408 120.128C222.827 119.513 222.537 118.761 222.537 117.873L222.537 85.8291L209.412 117.411C208.352 119.804 206.729 121 204.541 121L199.517 121C197.363 121 195.757 119.804 194.697 117.411L181.572 85.8291L181.572 117.873C181.572 118.795 181.265 119.547 180.649 120.128C180.068 120.709 179.316 121 178.394 121L167.268 121C166.345 121 165.593 120.709 165.012 120.128C164.431 119.547 164.141 118.795 164.141 117.873Z" fill="rgb(0,0,0)" fill-rule="nonzero" />
	<path id="Ex max black (color) 16" d="M102.72 114.54C97.4561 109.55 94.8242 102.372 94.8242 93.0068C94.8242 83.6074 97.4731 76.3955 102.771 71.3711C108.069 66.3125 115.417 63.7832 124.817 63.7832C134.216 63.7832 141.548 66.2441 146.812 71.166C152.075 76.0537 154.707 83.0776 154.707 92.2378L154.707 95.1602C154.707 96.083 154.399 96.8521 153.784 97.4673C153.203 98.0483 152.451 98.3389 151.528 98.3389L112.922 98.3389C113.264 102.543 114.46 105.602 116.511 107.516C118.596 109.43 121.912 110.387 126.458 110.387C131.003 110.387 134.114 109.362 135.789 107.311C137.463 105.26 139.531 104.218 141.992 104.184L149.631 104.184C150.554 104.184 151.306 104.491 151.887 105.106C152.502 105.688 152.81 106.439 152.81 107.362C152.81 117.172 143.462 122.06 124.766 122.025C115.332 122.025 107.983 119.53 102.72 114.54ZM112.82 87.521L136.66 87.521C136.318 79.4546 132.354 75.4214 124.766 75.4214C117.212 75.4214 113.23 79.4546 112.82 87.521Z" fill="rgb(255,204,0)" fill-rule="nonzero" />
	<path id="Ex max black (color) 16" d="M102.72 114.54C97.4561 109.55 94.8242 102.372 94.8242 93.0068C94.8242 83.6074 97.4731 76.3955 102.771 71.3711C108.069 66.3125 115.417 63.7832 124.817 63.7832C134.216 63.7832 141.548 66.2441 146.812 71.166C152.075 76.0537 154.707 83.0776 154.707 92.2378L154.707 95.1602C154.707 96.083 154.399 96.8521 153.784 97.4673C153.203 98.0483 152.451 98.3389 151.528 98.3389L112.922 98.3389C113.264 102.543 114.46 105.602 116.511 107.516C118.596 109.43 121.912 110.387 126.458 110.387C131.003 110.387 134.114 109.362 135.789 107.311C137.463 105.26 139.531 104.218 141.992 104.184L149.631 104.184C150.554 104.184 151.306 104.491 151.887 105.106C152.502 105.688 152.81 106.439 152.81 107.362C152.81 117.172 143.462 122.06 124.766 122.025C115.332 122.025 107.983 119.53 102.72 114.54ZM112.82 87.521L136.66 87.521C136.318 79.4546 132.354 75.4214 124.766 75.4214C117.212 75.4214 113.23 79.4546 112.82 87.521Z" fill="rgb(0,0,0)" fill-rule="nonzero" />
	<path id="Ex max black (color) 16" d="M10.332 116.181L10.332 52.3501C10.332 51.0171 10.8105 49.8721 11.7676 48.915C12.7246 47.958 13.9038 47.4795 15.3052 47.4795L24.8413 47.4795C26.1743 47.4795 27.3022 47.958 28.2251 48.915C29.1821 49.8721 29.6606 51.0171 29.6606 52.3501L29.6606 75.4214L64.9341 75.4214L64.9341 52.3501C64.9341 51.0171 65.4126 49.8721 66.3696 48.915C67.3267 47.958 68.4717 47.4795 69.8047 47.4795L79.3408 47.4795C80.7422 47.4795 81.9043 47.958 82.8271 48.915C83.7842 49.8721 84.2627 51.0171 84.2627 52.3501L84.2627 116.181C84.2627 117.514 83.7671 118.659 82.7759 119.616C81.8188 120.539 80.6738 121 79.3408 121L69.8047 121C68.4717 121 67.3267 120.556 66.3696 119.667C65.4126 118.744 64.9341 117.616 64.9341 116.283L64.9341 89.9307L29.6606 89.9307L29.6606 116.283C29.6606 117.616 29.1821 118.744 28.2251 119.667C27.3022 120.556 26.1743 121 24.8413 121L15.3052 121C13.9722 121 12.8101 120.539 11.8188 119.616C10.8276 118.659 10.332 117.514 10.332 116.181Z" fill="rgb(255,204,0)" fill-rule="nonzero" />
	<path id="Ex max black (color) 16" d="M10.332 116.181L10.332 52.3501C10.332 51.0171 10.8105 49.8721 11.7676 48.915C12.7246 47.958 13.9038 47.4795 15.3052 47.4795L24.8413 47.4795C26.1743 47.4795 27.3022 47.958 28.2251 48.915C29.1821 49.8721 29.6606 51.0171 29.6606 52.3501L29.6606 75.4214L64.9341 75.4214L64.9341 52.3501C64.9341 51.0171 65.4126 49.8721 66.3696 48.915C67.3267 47.958 68.4717 47.4795 69.8047 47.4795L79.3408 47.4795C80.7422 47.4795 81.9043 47.958 82.8271 48.915C83.7842 49.8721 84.2627 51.0171 84.2627 52.3501L84.2627 116.181C84.2627 117.514 83.7671 118.659 82.7759 119.616C81.8188 120.539 80.6738 121 79.3408 121L69.8047 121C68.4717 121 67.3267 120.556 66.3696 119.667C65.4126 118.744 64.9341 117.616 64.9341 116.283L64.9341 89.9307L29.6606 89.9307L29.6606 116.283C29.6606 117.616 29.1821 118.744 28.2251 119.667C27.3022 120.556 26.1743 121 24.8413 121L15.3052 121C13.9722 121 12.8101 120.539 11.8188 119.616C10.8276 118.659 10.332 117.514 10.332 116.181Z" fill="rgb(0,0,0)" fill-rule="nonzero" />
</svg>
