<svg viewBox="0 0 912.008 122.026" xmlns="http://www.w3.org/2000/svg" xmlns:xlink="http://www.w3.org/1999/xlink" width="912.008301" height="122.025635" fill="none" customFrame="#000000">
	<rect id="Ex max white 16" width="912.008301" height="122.025566" x="0.000000" y="0.000000" fill="rgb(255,255,255)" fill-opacity="0" />
	<path id="Ex max white 16" d="M3.87703 28.0155L1.02092 22.4802C0.331835 21.1446 0 19.7036 0 18.2889C0 15.2382 1.5429 12.3097 4.37392 10.8245C40.1818 -7.96054 74.0038 1.40645 91.4021 11.2102C93.7599 12.5388 95 14.8869 95 17.3762C95 18.6743 94.6627 20.0108 93.9708 21.2611C92.9314 23.1395 91.6076 25.505 89.942 28.4479C87.5114 32.7426 82.1589 34.1553 77.7864 32.0115C56.5322 21.5908 37.9312 21.5785 16.1367 31.9746C11.6439 34.1177 6.19225 32.5026 3.87703 28.0155ZM538.563 45.3774Q538.563 44.192 539.153 43.544Q539.865 42.7627 541.434 42.7627L545.279 42.7627Q546.298 42.7627 547.08 43.1923Q548.228 43.8225 548.868 45.3774Q549.523 47.0052 550.709 48.0028Q552.585 49.5815 555.79 49.5815Q559.072 49.5815 560.948 47.9572Q562.09 46.9683 562.711 45.3774Q563.297 43.883 564.385 43.2427Q565.201 42.7627 566.3 42.7627L570.196 42.7627Q571.712 42.7627 572.413 43.5186Q573.016 44.1686 573.016 45.3774Q573.016 48.2082 571.954 50.5594Q570.766 53.1906 568.248 55.2212Q568.083 55.3541 567.915 55.4823L567.896 55.4969Q563.199 59.0664 555.79 59.0664Q548.552 59.0664 543.846 55.6151Q543.817 55.5942 543.789 55.5733Q543.557 55.4015 543.331 55.2212Q540.813 53.1906 539.625 50.5594Q538.563 48.2082 538.563 45.3774ZM10.332 116.181L10.332 52.3501Q10.332 51.4023 10.6546 50.5812Q11.0125 49.6701 11.7676 48.915Q12.4002 48.2824 13.1624 47.9285Q14.1295 47.4795 15.3052 47.4795L24.8413 47.4795Q25.8497 47.4795 26.7016 47.8446Q27.5389 48.2035 28.2251 48.915Q28.9801 49.6701 29.3381 50.5812Q29.6606 51.4023 29.6606 52.3501L29.6606 75.4214L64.9341 75.4214L64.9341 52.3501Q64.9341 51.4023 65.2567 50.5812Q65.6146 49.6701 66.3696 48.915Q67.1247 48.16 68.0357 47.8021Q68.8568 47.4795 69.8047 47.4795L79.3408 47.4795Q80.572 47.4795 81.557 47.972Q82.2537 48.3203 82.8271 48.915Q83.5822 49.6701 83.9401 50.5812Q84.2627 51.4023 84.2627 52.3501L84.2627 116.181Q84.2627 117.072 83.967 117.852Q83.5997 118.82 82.7759 119.616Q82.0649 120.301 81.2155 120.647Q80.35 121 79.3408 121L69.8047 121Q68.7285 121 67.8155 120.614Q67.0324 120.282 66.3696 119.667Q65.658 118.981 65.2992 118.143Q64.9341 117.292 64.9341 116.283L64.9341 89.9307L29.6606 89.9307L29.6606 116.283Q29.6606 117.292 29.2955 118.143Q28.9367 118.981 28.2251 119.667Q27.6309 120.239 26.9233 120.566Q25.9825 121 24.8413 121L15.3052 121Q14.3645 121 13.5373 120.694Q12.6062 120.349 11.8188 119.616Q10.9951 118.82 10.6277 117.852Q10.332 117.072 10.332 116.181ZM102.72 114.54Q101.73 113.602 100.864 112.56L100.864 112.56Q94.8242 105.293 94.8242 93.0068Q94.8242 80.7252 100.854 73.4232L100.855 73.4222Q101.747 72.3421 102.771 71.3711Q103.493 70.6814 104.267 70.0543L104.268 70.0528Q112.001 63.7832 124.817 63.7832Q138.078 63.7832 145.851 70.3148Q146.342 70.7273 146.812 71.166Q147.984 72.2545 148.982 73.4843Q154.707 80.5376 154.707 92.2378L154.707 95.1602Q154.707 95.9907 154.375 96.6552Q154.153 97.0982 153.784 97.4673Q153.518 97.7339 153.203 97.919Q152.489 98.3389 151.528 98.3389L112.922 98.3389Q113.435 104.645 116.511 107.516Q119.639 110.387 126.458 110.387Q133.276 110.387 135.789 107.311Q137.3 105.46 139.239 104.704Q140.522 104.204 141.992 104.184L149.631 104.184Q150.513 104.184 151.186 104.558Q151.571 104.771 151.887 105.106Q152.222 105.423 152.436 105.807Q152.81 106.481 152.81 107.362Q152.81 110.545 151.498 113.037Q146.744 122.066 124.766 122.025Q111.603 122.025 103.853 115.549Q103.271 115.063 102.72 114.54ZM257.247 114.54Q256.257 113.602 255.392 112.56L255.391 112.56Q249.352 105.293 249.352 93.0068Q249.352 80.7252 255.382 73.4232L255.384 73.4206Q256.275 72.3415 257.298 71.3711Q258.022 70.6805 258.796 70.0528Q266.528 63.7832 279.344 63.7832Q292.606 63.7832 300.379 70.3148L300.381 70.3168Q300.871 70.7285 301.339 71.166Q302.511 72.254 303.508 73.4831L303.509 73.4843Q309.234 80.5376 309.234 92.2378L309.234 95.1602Q309.234 95.9907 308.902 96.6552Q308.681 97.0982 308.312 97.4673Q308.045 97.7339 307.73 97.919Q307.016 98.3389 306.056 98.3389L267.45 98.3389Q267.962 104.645 271.039 107.516Q274.166 110.387 280.985 110.387Q287.804 110.387 290.316 107.311Q291.828 105.46 293.766 104.704Q295.049 104.204 296.52 104.184L304.159 104.184Q305.04 104.184 305.714 104.558Q306.098 104.771 306.415 105.106Q306.75 105.423 306.963 105.807Q307.337 106.481 307.337 107.362Q307.337 110.545 306.025 113.037Q301.272 122.066 279.293 122.025Q266.131 122.025 258.38 115.549Q257.798 115.063 257.247 114.54ZM696.523 106.593Q696.523 105.632 696.943 104.919L696.944 104.918Q697.129 104.604 697.395 104.337Q697.774 103.979 698.222 103.768Q698.865 103.466 699.651 103.466L707.341 103.466Q708.629 103.466 709.707 103.941Q711.547 104.753 712.776 106.952Q713.15 107.595 713.65 108.117L713.651 108.119Q715.822 110.387 720.364 110.387L730.771 110.387Q735.214 110.387 737.001 108.209Q738.206 106.742 738.206 104.286Q738.206 101.827 736.998 100.367Q735.209 98.2057 730.771 98.2363L718.057 98.2363Q717.148 98.2363 716.437 97.8604Q716.066 97.6639 715.75 97.3647Q715.45 97.048 715.254 96.6769Q714.878 95.9668 714.878 95.0576L714.878 89.7256Q714.878 88.7648 715.298 88.051L715.298 88.05Q715.483 87.7359 715.75 87.4697Q716.118 87.1008 716.562 86.8791Q717.226 86.5469 718.057 86.5469L729.797 86.5469Q733.181 86.5469 734.873 85.0601Q735.546 84.466 735.96 83.7264Q736.616 82.5515 736.616 81.0098Q736.616 79.468 735.96 78.2931Q735.546 77.5535 734.873 76.9595Q733.181 75.4214 729.797 75.4214L720.364 75.4214Q718.569 75.4214 716.672 76.3442Q715.347 76.9531 714.497 77.9622L714.496 77.9635Q714.13 78.3984 713.853 78.9077Q712.582 81.1238 710.71 81.9106Q709.637 82.3615 708.367 82.3428L700.728 82.3428Q699.819 82.3428 699.108 81.9668Q698.737 81.7704 698.42 81.4712Q698.154 81.205 697.969 80.8909L697.969 80.89Q697.549 80.1761 697.549 79.2153Q697.549 76.7695 698.388 74.6564Q699.922 70.7902 704.265 68.0386Q711.033 63.7832 720.569 63.7832L730.874 63.7832Q741.692 63.7832 747.998 67.7822Q750.646 69.4268 752.192 71.7923Q754.355 75.1047 754.355 79.8306Q754.355 83.8255 752.572 86.7232Q750.74 89.7011 747.024 91.52Q751.695 93.8823 753.92 97.6784Q755.945 101.132 755.945 105.773Q755.945 111.546 753.161 115.196Q751.841 116.927 749.895 118.18Q743.896 122.025 732.002 122.025L720.569 122.025Q710.264 122.025 703.394 117.821Q698.991 115.127 697.41 111.275Q696.523 109.116 696.523 106.593ZM164.141 117.873L164.141 67.9873Q164.141 67.0265 164.561 66.3127Q164.746 65.998 165.012 65.7314Q165.44 65.3033 165.957 65.0738Q166.553 64.8086 167.268 64.8086L184.905 64.8086Q185.703 64.8086 186.401 65.0728Q188.349 65.8098 189.519 68.6025L202.029 99.1592L214.539 68.6025Q215.708 65.8098 217.656 65.0728Q218.355 64.8086 219.153 64.8086L236.79 64.8086Q237.671 64.8086 238.345 65.1828Q238.729 65.3963 239.045 65.7314Q239.381 66.048 239.594 66.4322Q239.968 67.1058 239.968 67.9873L239.968 117.873Q239.968 118.754 239.594 119.428Q239.381 119.812 239.045 120.128Q238.779 120.395 238.464 120.58Q237.75 121 236.79 121L225.664 121Q224.703 121 223.989 120.58Q223.675 120.395 223.408 120.128Q223.05 119.749 222.839 119.301Q222.537 118.658 222.537 117.873L222.537 85.8291L209.412 117.411Q208.383 119.734 206.645 120.554Q205.698 121 204.541 121L199.517 121Q198.417 121 197.508 120.584Q195.746 119.779 194.697 117.411L181.572 85.8291L181.572 117.873Q181.572 118.754 181.198 119.428Q180.985 119.812 180.649 120.128Q180.383 120.395 180.068 120.58Q179.354 121 178.394 121L167.268 121Q166.307 121 165.593 120.58Q165.279 120.395 165.012 120.128Q164.746 119.862 164.561 119.547Q164.141 118.833 164.141 117.873ZM318.668 117.873L318.668 67.9873Q318.668 67.0265 319.088 66.3127Q319.273 65.998 319.54 65.7314Q319.968 65.3033 320.484 65.0738Q321.081 64.8086 321.795 64.8086L333.28 64.8086Q334.161 64.8086 334.835 65.1828Q335.219 65.3964 335.536 65.7314Q335.802 65.998 335.987 66.3127Q336.407 67.0265 336.407 67.9873L336.407 108.593L358.248 108.593L358.248 67.9873Q358.248 67.0265 358.668 66.3127Q358.853 65.998 359.12 65.7314Q359.548 65.3033 360.064 65.0738Q360.661 64.8086 361.375 64.8086L372.86 64.8086Q373.741 64.8086 374.415 65.1828Q374.799 65.3964 375.116 65.7314Q375.382 65.998 375.567 66.3127Q375.987 67.0265 375.987 67.9873L375.987 108.593L381.012 108.593Q381.893 108.593 382.567 108.967Q382.951 109.181 383.268 109.516Q383.603 109.832 383.816 110.216Q384.19 110.89 384.19 111.771L384.19 117.873Q384.19 118.754 383.816 119.428Q383.603 119.812 383.268 120.128Q383.001 120.395 382.686 120.58Q381.973 121 381.012 121L321.795 121Q320.835 121 320.121 120.58Q319.806 120.395 319.54 120.128Q319.273 119.862 319.088 119.547Q318.668 118.833 318.668 117.873ZM448.223 118.744Q448.223 119.685 447.759 120.234Q447.111 121 445.557 121L435.867 121Q434.088 121 432.57 120.37Q429.889 119.258 428.023 116.181L421.512 105.568Q419.403 102.147 416.339 100.442Q413.295 98.749 409.31 98.749L409.31 117.873Q409.31 118.754 408.935 119.428Q408.722 119.812 408.387 120.128Q408.066 120.449 407.684 120.651Q407.025 121 406.182 121L394.698 121Q393.737 121 393.023 120.58Q392.709 120.395 392.442 120.128Q392.175 119.862 391.99 119.547Q391.57 118.833 391.57 117.873L391.57 67.9873Q391.57 67.0265 391.99 66.3127Q392.175 65.998 392.442 65.7314Q392.87 65.3033 393.386 65.0738Q393.983 64.8086 394.698 64.8086L406.182 64.8086Q407.064 64.8086 407.737 65.1828Q408.122 65.3964 408.438 65.7314Q408.705 65.998 408.89 66.3127Q409.31 67.0265 409.31 67.9873L409.31 87.0596Q414.94 87.0596 418.324 84.3023Q420.302 82.691 421.512 80.1382L426.434 69.6792Q426.987 68.4888 427.825 67.5524Q428.539 66.7547 429.458 66.1416Q430.7 65.3141 432.06 65.0003Q432.89 64.8086 433.765 64.8086L443.455 64.8086Q445.049 64.8086 445.652 65.5815Q446.019 66.0518 446.019 66.8081Q446.019 67.936 445.198 69.6792L438.584 83.6245Q437.682 85.4849 436.428 87.0679Q435.333 88.4514 433.97 89.623Q431.281 91.9351 428.2 92.7273Q427.934 92.7959 427.664 92.853Q427.734 92.8741 427.804 92.8959Q434.022 94.8315 438.584 102.082L447.3 116.181Q448.172 117.667 448.223 118.744ZM455.66 117.873L455.66 67.9873Q455.66 67.0265 456.08 66.3127Q456.265 65.998 456.532 65.7314Q456.96 65.3033 457.476 65.0738Q458.073 64.8086 458.788 64.8086L469.503 64.8086Q470.384 64.8086 471.058 65.1828Q471.442 65.3964 471.759 65.7314Q472.094 66.0479 472.307 66.4322Q472.682 67.1058 472.682 67.9873L472.682 101.671L490.729 68.5Q490.867 68.2325 491.029 67.981Q491.834 66.7381 493.241 65.8853Q494.933 64.8086 496.522 64.8086L510.877 64.8086Q511.759 64.8086 512.433 65.1828Q512.817 65.3963 513.133 65.7314Q513.469 66.048 513.682 66.4322Q514.056 67.1058 514.056 67.9873L514.056 117.873Q514.056 118.754 513.682 119.428Q513.469 119.812 513.133 120.128Q512.867 120.394 512.553 120.579L512.552 120.58Q511.838 121 510.877 121L500.162 121Q499.201 121 498.487 120.58Q498.173 120.395 497.906 120.128Q497.548 119.749 497.337 119.301Q497.035 118.658 497.035 117.873L497.035 84.2397L478.988 117.309Q478.167 118.795 476.476 119.923Q474.784 121 473.194 121L458.788 121Q457.827 121 457.113 120.58Q456.798 120.395 456.532 120.128Q456.265 119.862 456.08 119.547Q455.66 118.833 455.66 117.873ZM526.617 117.873L526.617 67.9873Q526.617 67.0265 527.037 66.3127L527.038 66.3117Q527.223 65.9977 527.489 65.7314Q527.917 65.3036 528.433 65.0738Q529.03 64.8086 529.745 64.8086L540.46 64.8086Q541.341 64.8086 542.015 65.1828Q542.399 65.3963 542.716 65.7314Q543.051 66.048 543.264 66.4322Q543.639 67.1058 543.639 67.9873L543.639 101.671L561.686 68.5Q561.824 68.2325 561.986 67.981Q562.791 66.7381 564.198 65.8853Q565.89 64.8086 567.479 64.8086L581.834 64.8086Q582.716 64.8086 583.39 65.1828Q583.774 65.3963 584.09 65.7314Q584.426 66.048 584.639 66.4322Q585.013 67.1058 585.013 67.9873L585.013 117.873Q585.013 118.754 584.639 119.428Q584.426 119.812 584.09 120.128Q583.824 120.394 583.51 120.579L583.509 120.58Q582.795 121 581.834 121L571.119 121Q570.158 121 569.445 120.58L569.443 120.579Q569.129 120.394 568.863 120.128Q568.505 119.749 568.294 119.301Q567.992 118.658 567.992 117.873L567.992 84.2397L549.945 117.309Q549.125 118.795 547.433 119.923Q545.741 121 544.151 121L529.745 121Q528.784 121 528.07 120.58L528.069 120.579Q527.755 120.394 527.489 120.128Q527.223 119.862 527.038 119.548L527.037 119.547Q526.617 118.833 526.617 117.873ZM631.873 82.9067Q631.873 75.9846 635.237 71.71Q640.643 64.8402 654.739 64.8086L684.988 64.8086Q685.869 64.8086 686.543 65.1828Q686.927 65.3963 687.244 65.7314Q687.51 65.9977 687.695 66.3117L687.695 66.3127Q688.115 67.0265 688.115 67.9873L688.115 117.873Q688.115 118.833 687.695 119.547L687.695 119.548Q687.51 119.862 687.244 120.128Q686.978 120.394 686.664 120.579L686.662 120.58Q685.949 121 684.988 121L673.555 121Q672.646 121 671.935 120.624Q671.564 120.428 671.248 120.128Q670.89 119.749 670.679 119.301Q670.376 118.658 670.376 117.873L670.376 100.954L660.327 100.954L651.611 116.488Q650.503 118.479 648.815 119.592Q646.678 121 643.613 121L634.385 121Q633.086 121 632.412 120.351Q632.102 120.052 631.924 119.616Q631.719 119.154 631.719 118.437Q631.719 117.667 632.488 116.488L642.793 99.2617Q637.792 97.4067 635.081 93.8204Q631.873 89.576 631.873 82.9067ZM764.918 117.873L764.918 67.9873Q764.918 67.0265 765.338 66.3127L765.338 66.3117Q765.523 65.9977 765.79 65.7314Q766.217 65.3036 766.734 65.0738Q767.331 64.8086 768.045 64.8086L779.53 64.8086Q780.411 64.8086 781.085 65.1828Q781.469 65.3963 781.786 65.7314Q782.052 65.9977 782.237 66.3117L782.237 66.3127Q782.657 67.0265 782.657 67.9873L782.657 83.4194L794.859 83.4194Q805.78 83.4194 811.727 87.7261Q812.624 88.3703 813.387 89.1465L813.389 89.1476Q817.726 93.5601 817.726 102.235Q817.726 110.822 813.434 115.227Q812.652 116.03 811.727 116.693Q805.78 121 794.859 121L768.045 121Q767.085 121 766.371 120.58L766.369 120.579Q766.056 120.394 765.79 120.128Q765.523 119.862 765.338 119.548L765.338 119.547Q764.918 118.833 764.918 117.873ZM824.955 117.873L824.955 67.9873Q824.955 67.0265 825.374 66.3127L825.375 66.3117Q825.56 65.9977 825.826 65.7314Q826.195 65.3625 826.638 65.1408Q827.303 64.8086 828.133 64.8086L839.566 64.8086Q840.448 64.8086 841.122 65.1828Q841.506 65.3963 841.822 65.7314Q842.088 65.9977 842.273 66.3117L842.274 66.3127Q842.694 67.0265 842.694 67.9873L842.694 117.873Q842.694 118.833 842.274 119.547L842.273 119.548Q842.088 119.862 841.822 120.128Q841.556 120.394 841.242 120.579L841.241 120.58Q840.527 121 839.566 121L828.133 121Q827.224 121 826.514 120.624Q826.143 120.428 825.826 120.128Q825.56 119.862 825.375 119.548L825.374 119.547Q824.955 118.833 824.955 117.873ZM912.008 118.744Q912.008 119.685 911.544 120.234Q910.896 121 909.342 121L899.652 121Q897.873 121 896.355 120.37Q893.674 119.258 891.808 116.181L885.297 105.568Q883.188 102.147 880.124 100.442Q877.08 98.749 873.095 98.749L873.095 117.873Q873.095 118.754 872.721 119.428Q872.507 119.812 872.172 120.128Q871.852 120.449 871.469 120.651Q870.81 121 869.967 121L858.483 121Q857.522 121 856.808 120.58L856.807 120.579Q856.493 120.394 856.227 120.128Q855.961 119.862 855.776 119.548L855.775 119.547Q855.355 118.833 855.355 117.873L855.355 67.9873Q855.355 67.0265 855.775 66.3127L855.776 66.3117Q855.961 65.9977 856.227 65.7314Q856.655 65.3036 857.172 65.0738Q857.768 64.8086 858.483 64.8086L869.967 64.8086Q870.849 64.8086 871.522 65.1828Q871.907 65.3963 872.223 65.7314Q872.489 65.9977 872.674 66.3117L872.675 66.3127Q873.095 67.0265 873.095 67.9873L873.095 87.0596Q878.725 87.0596 882.109 84.3023Q884.087 82.691 885.297 80.1382L890.219 69.6792Q890.772 68.4888 891.61 67.5524Q892.324 66.7548 893.244 66.1416Q894.485 65.3141 895.845 65.0003L895.846 64.9999Q896.676 64.8086 897.55 64.8086L907.24 64.8086Q908.834 64.8086 909.437 65.5815Q909.804 66.0518 909.804 66.8081Q909.804 67.936 908.983 69.6792L902.37 83.6245Q901.467 85.4849 900.214 87.0679L900.212 87.0695Q899.117 88.4521 897.755 89.623Q895.066 91.9352 891.985 92.7273Q891.719 92.7959 891.449 92.853Q891.519 92.8741 891.589 92.8959Q897.807 94.8315 902.37 102.082L911.085 116.181Q911.957 117.667 912.008 118.744ZM112.82 87.521L136.66 87.521Q136.387 81.0797 133.034 78.0675Q130.088 75.4214 124.766 75.4214Q119.499 75.4214 116.548 78.0352Q113.149 81.0451 112.82 87.521ZM267.347 87.521L291.188 87.521Q290.915 81.0797 287.561 78.0675Q284.616 75.4214 279.293 75.4214Q274.027 75.4214 271.075 78.0352Q267.676 81.0451 267.347 87.521ZM651.406 78.2412Q651.018 78.607 650.714 79.0328Q649.612 80.5761 649.612 82.9067Q649.612 85.1804 650.667 86.7403Q650.968 87.1855 651.355 87.5723Q651.556 87.7674 651.774 87.9407Q653.505 89.3154 656.328 89.3154L670.376 89.3154L670.376 76.498L656.328 76.498Q653.621 76.498 651.912 77.8045Q651.647 78.0071 651.406 78.2412ZM782.35 109.567L793.27 109.567Q796.335 109.567 798.001 108.04Q799.986 106.222 799.986 102.235Q799.986 98.1957 797.976 96.3664Q796.311 94.8525 793.27 94.8525L782.35 94.8525L782.35 109.567Z" fill="rgb(255,255,255)" fill-rule="evenodd" />
</svg>
