<svg width="510" height="59" viewBox="0 0 510 59" fill="none" xmlns="http://www.w3.org/2000/svg">
<path d="M487.575 55.2324C485.319 53.0938 484.191 50.0176 484.191 46.0039C484.191 41.9756 485.327 38.8848 487.597 36.7314C489.868 34.5635 493.017 33.4795 497.045 33.4795C501.074 33.4795 504.216 34.5342 506.472 36.6436C508.728 38.7383 509.855 41.7485 509.855 45.6743V46.9268C509.855 47.3223 509.724 47.6519 509.46 47.9155C509.211 48.1646 508.889 48.2891 508.493 48.2891H491.948C492.094 50.0908 492.607 51.4019 493.486 52.2222C494.379 53.0425 495.8 53.4526 497.749 53.4526C499.697 53.4526 501.03 53.0132 501.748 52.1343C502.465 51.2554 503.352 50.8086 504.406 50.7939H507.68C508.076 50.7939 508.398 50.9258 508.647 51.1895C508.911 51.4385 509.042 51.7607 509.042 52.1562C509.042 56.3604 505.036 58.4551 497.023 58.4404C492.98 58.4404 489.831 57.3711 487.575 55.2324ZM491.904 43.6528H502.121C501.975 40.1958 500.275 38.4673 497.023 38.4673C493.786 38.4673 492.08 40.1958 491.904 43.6528Z" fill="black"/>
<path d="M453.429 56.5508L457.384 40.5767C458.498 36.1382 462.174 33.9189 468.415 33.9189H478.808C479.188 33.9189 479.503 34.0508 479.752 34.3145C480.016 34.5635 480.148 34.8857 480.148 35.2812V56.6606C480.148 57.0415 480.016 57.3638 479.752 57.6274C479.503 57.8765 479.188 58.001 478.808 58.001H473.886C473.505 58.001 473.183 57.8765 472.919 57.6274C472.67 57.3638 472.545 57.0415 472.545 56.6606V39.2363H468.415C466.364 39.2363 465.067 40.313 464.525 42.4663L461.076 56.375C460.944 56.8584 460.68 57.2539 460.285 57.5615C459.904 57.8545 459.494 58.001 459.054 58.001H454.55C454.154 58.001 453.854 57.8838 453.649 57.6494C453.458 57.4004 453.363 57.188 453.363 57.0122C453.363 56.8364 453.385 56.6826 453.429 56.5508Z" fill="black"/>
<path d="M428.424 55.2764C426.139 53.167 424.996 50.0615 424.996 45.96C424.996 41.8438 426.139 38.7383 428.424 36.6436C430.709 34.5342 433.99 33.4795 438.268 33.4795C442.56 33.4795 445.848 34.5342 448.133 36.6436C450.418 38.7383 451.561 41.8438 451.561 45.96C451.561 50.0615 450.418 53.167 448.133 55.2764C445.848 57.3857 442.56 58.4404 438.268 58.4404C433.99 58.4404 430.709 57.3857 428.424 55.2764ZM433.983 40.2471C433.075 41.4336 432.621 43.3306 432.621 45.938C432.621 48.5454 433.075 50.4497 433.983 51.6509C434.891 52.8521 436.319 53.4526 438.268 53.4526C440.23 53.4526 441.666 52.8521 442.574 51.6509C443.497 50.4497 443.958 48.5454 443.958 45.938C443.958 43.3306 443.497 41.4336 442.574 40.2471C441.666 39.0605 440.23 38.4673 438.268 38.4673C436.319 38.4673 434.891 39.0605 433.983 40.2471Z" fill="black"/>
<path d="M423.612 57.0342C423.612 57.6787 423.231 58.001 422.469 58.001H418.316C416.91 58.001 415.79 57.3125 414.955 55.9355L412.164 51.3872C410.963 49.439 409.22 48.4648 406.935 48.4648V56.6606C406.935 57.0562 406.803 57.3784 406.539 57.6274C406.29 57.8765 405.975 58.001 405.594 58.001H400.672C400.277 58.001 399.955 57.8765 399.706 57.6274C399.457 57.3784 399.332 57.0562 399.332 56.6606V35.2812C399.332 34.8857 399.457 34.5635 399.706 34.3145C399.969 34.0508 400.292 33.9189 400.672 33.9189H405.594C405.99 33.9189 406.312 34.0508 406.561 34.3145C406.81 34.5635 406.935 34.8857 406.935 35.2812V43.4551C409.483 43.4551 411.227 42.4663 412.164 40.4888L414.273 36.0063C414.566 35.3765 414.999 34.8711 415.57 34.4902C416.141 34.1094 416.756 33.9189 417.416 33.9189H421.568C422.301 33.9189 422.667 34.2046 422.667 34.7759C422.667 35.0981 422.55 35.5083 422.315 36.0063L419.481 41.9829C418.998 42.979 418.338 43.8359 417.503 44.5537C416.668 45.2715 415.768 45.7329 414.801 45.938C416.603 46.48 418.163 47.7983 419.481 49.8931L423.216 55.9355C423.465 56.3604 423.597 56.7266 423.612 57.0342Z" fill="black"/>
<path d="M357.32 56.6606V35.2812C357.32 34.8857 357.445 34.5635 357.694 34.3145C357.958 34.0508 358.28 33.9189 358.661 33.9189H363.583C363.963 33.9189 364.278 34.0508 364.527 34.3145C364.791 34.5635 364.923 34.8857 364.923 35.2812V52.6836H371.8V35.2812C371.8 34.8857 371.925 34.5635 372.174 34.3145C372.438 34.0508 372.767 33.9189 373.163 33.9189H378.062C378.458 33.9189 378.78 34.0508 379.029 34.3145C379.278 34.5635 379.403 34.8857 379.403 35.2812V52.6836H386.302V35.2812C386.302 34.8857 386.427 34.5635 386.676 34.3145C386.939 34.0508 387.262 33.9189 387.643 33.9189H392.542C392.938 33.9189 393.26 34.0508 393.509 34.3145C393.773 34.5635 393.905 34.8857 393.905 35.2812V56.6606C393.905 57.0415 393.773 57.3638 393.509 57.6274C393.26 57.8765 392.938 58.001 392.542 58.001H358.661C358.28 58.001 357.958 57.8765 357.694 57.6274C357.445 57.3638 357.32 57.0415 357.32 56.6606Z" fill="black"/>
<path d="M338.358 57.0342C338.358 57.6787 337.977 58.001 337.215 58.001H333.062C331.656 58.001 330.536 57.3125 329.701 55.9355L326.91 51.3872C325.709 49.439 323.966 48.4648 321.681 48.4648V56.6606C321.681 57.0562 321.549 57.3784 321.285 57.6274C321.036 57.8765 320.721 58.001 320.34 58.001H315.418C315.023 58.001 314.701 57.8765 314.452 57.6274C314.203 57.3784 314.078 57.0562 314.078 56.6606V35.2812C314.078 34.8857 314.203 34.5635 314.452 34.3145C314.715 34.0508 315.038 33.9189 315.418 33.9189H320.34C320.736 33.9189 321.058 34.0508 321.307 34.3145C321.556 34.5635 321.681 34.8857 321.681 35.2812V43.4551C324.229 43.4551 325.973 42.4663 326.91 40.4888L329.02 36.0063C329.312 35.3765 329.745 34.8711 330.316 34.4902C330.887 34.1094 331.502 33.9189 332.162 33.9189H336.314C337.047 33.9189 337.413 34.2046 337.413 34.7759C337.413 35.0981 337.296 35.5083 337.062 36.0063L334.227 41.9829C333.744 42.979 333.084 43.8359 332.25 44.5537C331.415 45.2715 330.514 45.7329 329.547 45.938C331.349 46.48 332.909 47.7983 334.227 49.8931L337.962 55.9355C338.211 56.3604 338.343 56.7266 338.358 57.0342Z" fill="black"/>
<path d="M270.486 56.4189C268.553 55.0713 267.586 53.167 267.586 50.7061C267.586 48.2451 268.553 46.3555 270.486 45.0371C272.435 43.7188 274.939 43.0596 278.001 43.0596H285.274C285.274 41.3457 284.915 40.1519 284.197 39.478C283.479 38.8042 282.22 38.4673 280.418 38.4673C278.631 38.4673 277.371 38.9141 276.639 39.8076C275.921 40.6865 275.035 41.126 273.98 41.126H270.706C270.311 41.126 269.981 41.0015 269.717 40.7524C269.468 40.4888 269.344 40.1665 269.344 39.7856C269.344 35.5815 273.335 33.4795 281.319 33.4795C284.805 33.4795 287.603 34.2632 289.712 35.8306C291.822 37.3833 292.876 39.793 292.876 43.0596V56.6606C292.876 57.0562 292.752 57.3784 292.503 57.6274C292.254 57.8765 291.932 58.001 291.536 58.001H287.295C286.9 58.001 286.578 57.8765 286.329 57.6274C286.08 57.3638 285.955 57.0415 285.955 56.6606V55.9795C283.641 57.6348 280.967 58.4551 277.935 58.4404C274.917 58.4404 272.435 57.7666 270.486 56.4189ZM278.528 48.0474C277.503 48.0474 276.69 48.2964 276.089 48.7944C275.503 49.2925 275.21 49.937 275.21 50.728C275.21 51.519 275.518 52.1709 276.133 52.6836C276.749 53.1963 277.62 53.4526 278.748 53.4526C281.004 53.4526 283.179 52.7935 285.274 51.4751V48.0474H278.528Z" fill="black"/>
<path d="M265.979 57.0342C265.979 57.6787 265.598 58.001 264.836 58.001H260.684C259.277 58.001 258.157 57.3125 257.322 55.9355L254.531 51.3872C253.33 49.439 251.587 48.4648 249.302 48.4648V56.6606C249.302 57.0562 249.17 57.3784 248.906 57.6274C248.657 57.8765 248.342 58.001 247.961 58.001H243.04C242.644 58.001 242.322 57.8765 242.073 57.6274C241.824 57.3784 241.699 57.0562 241.699 56.6606V35.2812C241.699 34.8857 241.824 34.5635 242.073 34.3145C242.336 34.0508 242.659 33.9189 243.04 33.9189H247.961C248.357 33.9189 248.679 34.0508 248.928 34.3145C249.177 34.5635 249.302 34.8857 249.302 35.2812V43.4551C251.851 43.4551 253.594 42.4663 254.531 40.4888L256.641 36.0063C256.934 35.3765 257.366 34.8711 257.937 34.4902C258.508 34.1094 259.124 33.9189 259.783 33.9189H263.936C264.668 33.9189 265.034 34.2046 265.034 34.7759C265.034 35.0981 264.917 35.5083 264.683 36.0063L261.848 41.9829C261.365 42.979 260.706 43.8359 259.871 44.5537C259.036 45.2715 258.135 45.7329 257.168 45.938C258.97 46.48 260.53 47.7983 261.848 49.8931L265.583 55.9355C265.833 56.3604 265.964 56.7266 265.979 57.0342Z" fill="black"/>
<path d="M212.828 56.6606V35.2812C212.828 34.8857 212.953 34.5635 213.202 34.3145C213.465 34.0508 213.788 33.9189 214.168 33.9189H227.308C230.106 33.9189 232.369 34.4609 234.098 35.5449C235.841 36.6289 236.712 38.2622 236.712 40.4448C236.712 42.6128 235.812 44.2534 234.01 45.3667C236.573 46.6558 237.855 48.5674 237.855 51.1016C237.855 53.6357 237.027 55.4229 235.372 56.4629C233.717 57.4883 231.344 58.001 228.253 58.001H214.168C213.788 58.001 213.465 57.8765 213.202 57.6274C212.953 57.3638 212.828 57.0415 212.828 56.6606ZM220.431 53.1011H227.726C228.531 53.1011 229.146 52.874 229.571 52.4199C230.011 51.9658 230.23 51.3652 230.23 50.6182C230.23 49.8711 230.011 49.2705 229.571 48.8164C229.146 48.3623 228.531 48.1353 227.726 48.1353H220.431V53.1011ZM220.431 43.3232H226.869C227.528 43.3232 228.062 43.1182 228.473 42.708C228.897 42.2832 229.11 41.7412 229.11 41.082C229.11 40.4229 228.897 39.8882 228.473 39.478C228.062 39.0532 227.528 38.8408 226.869 38.8408H220.431V43.3232Z" fill="black"/>
<path d="M185.627 55.2764C183.342 53.167 182.199 50.0615 182.199 45.96C182.199 41.8438 183.342 38.7383 185.627 36.6436C187.912 34.5342 191.193 33.4795 195.471 33.4795C199.763 33.4795 203.051 34.5342 205.336 36.6436C207.622 38.7383 208.764 41.8438 208.764 45.96C208.764 50.0615 207.622 53.167 205.336 55.2764C203.051 57.3857 199.763 58.4404 195.471 58.4404C191.193 58.4404 187.912 57.3857 185.627 55.2764ZM191.186 40.2471C190.278 41.4336 189.824 43.3306 189.824 45.938C189.824 48.5454 190.278 50.4497 191.186 51.6509C192.094 52.8521 193.522 53.4526 195.471 53.4526C197.434 53.4526 198.869 52.8521 199.777 51.6509C200.7 50.4497 201.162 48.5454 201.162 45.938C201.162 43.3306 200.7 41.4336 199.777 40.2471C198.869 39.0605 197.434 38.4673 195.471 38.4673C193.522 38.4673 192.094 39.0605 191.186 40.2471Z" fill="black"/>
<path d="M156.469 37.896V35.2812C156.469 34.8857 156.593 34.5635 156.842 34.3145C157.106 34.0508 157.436 33.9189 157.831 33.9189H179.474C179.87 33.9189 180.192 34.0508 180.441 34.3145C180.69 34.5635 180.814 34.8857 180.814 35.2812V37.896C180.814 38.2769 180.69 38.5991 180.441 38.8628C180.192 39.1118 179.87 39.2363 179.474 39.2363H172.465V56.6606C172.465 57.0415 172.333 57.3638 172.069 57.6274C171.82 57.8765 171.498 58.001 171.103 58.001H166.203C165.807 58.001 165.478 57.8765 165.214 57.6274C164.965 57.3638 164.84 57.0415 164.84 56.6606V39.2363H157.831C157.436 39.2363 157.106 39.1118 156.842 38.8628C156.593 38.5991 156.469 38.2769 156.469 37.896Z" fill="black"/>
<path d="M131.971 55.2764C129.686 53.167 128.543 50.0615 128.543 45.96C128.543 41.8438 129.686 38.7383 131.971 36.6436C134.256 34.5342 137.537 33.4795 141.814 33.4795C146.106 33.4795 149.395 34.5342 151.68 36.6436C153.965 38.7383 155.108 41.8438 155.108 45.96C155.108 50.0615 153.965 53.167 151.68 55.2764C149.395 57.3857 146.106 58.4404 141.814 58.4404C137.537 58.4404 134.256 57.3857 131.971 55.2764ZM137.53 40.2471C136.622 41.4336 136.167 43.3306 136.167 45.938C136.167 48.5454 136.622 50.4497 137.53 51.6509C138.438 52.8521 139.866 53.4526 141.814 53.4526C143.777 53.4526 145.213 52.8521 146.121 51.6509C147.044 50.4497 147.505 48.5454 147.505 45.938C147.505 43.3306 147.044 41.4336 146.121 40.2471C145.213 39.0605 143.777 38.4673 141.814 38.4673C139.866 38.4673 138.438 39.0605 137.53 40.2471Z" fill="black"/>
<path d="M107.625 56.6606V35.2812C107.625 34.8857 107.75 34.5635 107.999 34.3145C108.262 34.0508 108.584 33.9189 108.965 33.9189H125.401C125.782 33.9189 126.097 34.0508 126.346 34.3145C126.609 34.5635 126.741 34.8857 126.741 35.2812V37.896C126.741 38.2769 126.609 38.5991 126.346 38.8628C126.097 39.1118 125.782 39.2363 125.401 39.2363H115.228V56.6606C115.228 57.0415 115.096 57.3638 114.832 57.6274C114.583 57.8765 114.268 58.001 113.887 58.001H108.965C108.584 58.001 108.262 57.8765 107.999 57.6274C107.75 57.3638 107.625 57.0415 107.625 56.6606Z" fill="black"/>
<path d="M73.7656 56.6606V54.0459C73.7656 53.6504 73.8901 53.3281 74.1392 53.0791C74.4028 52.8154 74.7324 52.6836 75.1279 52.6836H76.8418L79.8521 40.5767C80.9653 36.1382 84.6421 33.9189 90.8823 33.9189H100.858C101.253 33.9189 101.576 34.0508 101.825 34.3145C102.088 34.5635 102.22 34.8857 102.22 35.2812V56.6606C102.22 57.0415 102.088 57.3638 101.825 57.6274C101.576 57.8765 101.253 58.001 100.858 58.001H75.1279C74.7324 58.001 74.4028 57.8765 74.1392 57.6274C73.8901 57.3638 73.7656 57.0415 73.7656 56.6606ZM84.0269 52.6836H94.6177V39.2363H90.6406C88.5166 39.2363 87.1689 40.313 86.5977 42.4663L84.0269 52.6836Z" fill="black"/>
<path d="M49.7051 55.2764C47.4199 53.167 46.2773 50.0615 46.2773 45.96C46.2773 41.8438 47.4199 38.7383 49.7051 36.6436C51.9902 34.5342 55.2715 33.4795 59.5488 33.4795C63.8408 33.4795 67.1294 34.5342 69.4146 36.6436C71.6997 38.7383 72.8423 41.8438 72.8423 45.96C72.8423 50.0615 71.6997 53.167 69.4146 55.2764C67.1294 57.3857 63.8408 58.4404 59.5488 58.4404C55.2715 58.4404 51.9902 57.3857 49.7051 55.2764ZM55.2642 40.2471C54.356 41.4336 53.9019 43.3306 53.9019 45.938C53.9019 48.5454 54.356 50.4497 55.2642 51.6509C56.1724 52.8521 57.6006 53.4526 59.5488 53.4526C61.5117 53.4526 62.9473 52.8521 63.8555 51.6509C64.7783 50.4497 65.2397 48.5454 65.2397 45.938C65.2397 43.3306 64.7783 41.4336 63.8555 40.2471C62.9473 39.0605 61.5117 38.4673 59.5488 38.4673C57.6006 38.4673 56.1724 39.0605 55.2642 40.2471Z" fill="black"/>
<path d="M9.14062 55.9355V28.5796C9.14062 28.0083 9.33838 27.5176 9.73389 27.1074C10.1294 26.6973 10.6128 26.4922 11.1841 26.4922H39.7046C40.2759 26.4922 40.7593 26.6973 41.1548 27.1074C41.5649 27.5176 41.77 28.0083 41.77 28.5796V55.9355C41.77 56.5068 41.5576 56.9976 41.1328 57.4077C40.7227 57.8032 40.2319 58.001 39.6606 58.001H35.5737C35.0024 58.001 34.5117 57.8032 34.1016 57.4077C33.6914 56.9976 33.4863 56.5068 33.4863 55.9355V32.7104H17.4243V55.9355C17.4243 56.5068 17.2192 56.9976 16.8091 57.4077C16.4136 57.8032 15.9302 58.001 15.3589 58.001H11.228C10.6567 58.001 10.166 57.8032 9.75586 57.4077C9.3457 56.9976 9.14062 56.5068 9.14062 55.9355Z" fill="black"/>
<path d="M1.99973 14.6819L0.526579 11.781C-0.595237 9.57198 0.118629 6.812 2.25602 5.67273C20.7254 -4.17183 38.1704 0.737068 47.1443 5.87485C48.9946 6.93423 49.5103 9.23057 48.4692 11.1422C47.933 12.1266 47.2503 13.3663 46.3912 14.9085C45.1375 17.1592 42.3767 17.8996 40.1214 16.7761C29.1587 11.315 19.5645 11.3085 8.32315 16.7567C6.00579 17.8799 3.1939 17.0335 1.99973 14.6819Z" fill="#FFD46F"/>
</svg>
