<svg width="1179" height="129" viewBox="0 0 1179 129" fill="none" xmlns="http://www.w3.org/2000/svg">
<path d="M1126.67 120.541C1121.41 115.551 1118.78 108.373 1118.78 99.0078C1118.78 89.6084 1121.43 82.3965 1126.72 77.3721C1132.02 72.3135 1139.37 69.7842 1148.77 69.7842C1158.17 69.7842 1165.5 72.2451 1170.76 77.167C1176.03 82.0547 1178.66 89.0786 1178.66 98.2388V101.161C1178.66 102.084 1178.35 102.853 1177.74 103.468C1177.16 104.049 1176.4 104.34 1175.48 104.34H1136.88C1137.22 108.544 1138.41 111.603 1140.46 113.517C1142.55 115.431 1145.86 116.388 1150.41 116.388C1154.96 116.388 1158.07 115.363 1159.74 113.312C1161.42 111.261 1163.48 110.219 1165.95 110.185H1173.58C1174.51 110.185 1175.26 110.492 1175.84 111.107C1176.46 111.688 1176.76 112.44 1176.76 113.363C1176.76 123.173 1167.42 128.061 1148.72 128.026C1139.29 128.026 1131.94 125.531 1126.67 120.541ZM1136.77 93.522H1160.61C1160.27 85.4556 1156.31 81.4224 1148.72 81.4224C1141.17 81.4224 1137.18 85.4556 1136.77 93.522Z" fill="white"/>
<path d="M1047 123.617L1056.23 86.3442C1058.83 75.9878 1067.41 70.8096 1081.97 70.8096H1106.22C1107.11 70.8096 1107.84 71.1172 1108.42 71.7324C1109.04 72.3135 1109.35 73.0654 1109.35 73.9883V123.874C1109.35 124.762 1109.04 125.514 1108.42 126.129C1107.84 126.71 1107.11 127.001 1106.22 127.001H1094.73C1093.84 127.001 1093.09 126.71 1092.48 126.129C1091.9 125.514 1091.61 124.762 1091.61 123.874V83.2168H1081.97C1077.18 83.2168 1074.16 85.729 1072.89 90.7534L1064.84 123.207C1064.54 124.335 1063.92 125.258 1063 125.976C1062.11 126.659 1061.15 127.001 1060.13 127.001H1049.62C1048.69 127.001 1047.99 126.728 1047.51 126.181C1047.07 125.6 1046.85 125.104 1046.85 124.694C1046.85 124.284 1046.9 123.925 1047 123.617Z" fill="white"/>
<path d="M988.658 120.644C983.326 115.722 980.66 108.476 980.66 98.9053C980.66 89.3008 983.326 82.0547 988.658 77.167C993.99 72.2451 1001.65 69.7842 1011.63 69.7842C1021.64 69.7842 1029.31 72.2451 1034.65 77.167C1039.98 82.0547 1042.65 89.3008 1042.65 98.9053C1042.65 108.476 1039.98 115.722 1034.65 120.644C1029.31 125.565 1021.64 128.026 1011.63 128.026C1001.65 128.026 993.99 125.565 988.658 120.644ZM1001.63 85.5752C999.51 88.3438 998.451 92.77 998.451 98.854C998.451 104.938 999.51 109.381 1001.63 112.184C1003.75 114.987 1007.08 116.388 1011.63 116.388C1016.21 116.388 1019.56 114.987 1021.68 112.184C1023.83 109.381 1024.91 104.938 1024.91 98.854C1024.91 92.77 1023.83 88.3438 1021.68 85.5752C1019.56 82.8066 1016.21 81.4224 1011.63 81.4224C1007.08 81.4224 1003.75 82.8066 1001.63 85.5752Z" fill="white"/>
<path d="M977.43 124.745C977.43 126.249 976.542 127.001 974.764 127.001H965.074C961.793 127.001 959.178 125.395 957.23 122.182L950.719 111.569C947.916 107.023 943.849 104.75 938.517 104.75V123.874C938.517 124.796 938.209 125.548 937.594 126.129C937.013 126.71 936.278 127.001 935.389 127.001H923.905C922.982 127.001 922.23 126.71 921.649 126.129C921.068 125.548 920.777 124.796 920.777 123.874V73.9883C920.777 73.0654 921.068 72.3135 921.649 71.7324C922.264 71.1172 923.016 70.8096 923.905 70.8096H935.389C936.312 70.8096 937.064 71.1172 937.645 71.7324C938.226 72.3135 938.517 73.0654 938.517 73.9883V93.0605C944.464 93.0605 948.531 90.7534 950.719 86.1392L955.641 75.6802C956.324 74.2104 957.333 73.0312 958.666 72.1426C959.999 71.2539 961.434 70.8096 962.972 70.8096H972.662C974.371 70.8096 975.226 71.4761 975.226 72.8091C975.226 73.561 974.952 74.5181 974.405 75.6802L967.792 89.6255C966.664 91.9497 965.125 93.9492 963.177 95.624C961.229 97.2988 959.127 98.3755 956.871 98.854C961.075 100.119 964.715 103.195 967.792 108.083L976.507 122.182C977.088 123.173 977.396 124.027 977.43 124.745Z" fill="white"/>
<path d="M822.75 123.874V73.9883C822.75 73.0654 823.041 72.3135 823.622 71.7324C824.237 71.1172 824.989 70.8096 825.877 70.8096H837.362C838.25 70.8096 838.985 71.1172 839.566 71.7324C840.182 72.3135 840.489 73.0654 840.489 73.9883V114.594H856.537V73.9883C856.537 73.0654 856.827 72.3135 857.408 71.7324C858.023 71.1172 858.792 70.8096 859.715 70.8096H871.148C872.071 70.8096 872.823 71.1172 873.404 71.7324C873.985 72.3135 874.276 73.0654 874.276 73.9883V114.594H890.375V73.9883C890.375 73.0654 890.665 72.3135 891.246 71.7324C891.861 71.1172 892.613 70.8096 893.502 70.8096H904.935C905.858 70.8096 906.61 71.1172 907.191 71.7324C907.806 72.3135 908.114 73.0654 908.114 73.9883V123.874C908.114 124.762 907.806 125.514 907.191 126.129C906.61 126.71 905.858 127.001 904.935 127.001H825.877C824.989 127.001 824.237 126.71 823.622 126.129C823.041 125.514 822.75 124.762 822.75 123.874Z" fill="white"/>
<path d="M778.504 124.745C778.504 126.249 777.616 127.001 775.838 127.001H766.148C762.867 127.001 760.252 125.395 758.304 122.182L751.793 111.569C748.99 107.023 744.923 104.75 739.591 104.75V123.874C739.591 124.796 739.283 125.548 738.668 126.129C738.087 126.71 737.352 127.001 736.463 127.001H724.979C724.056 127.001 723.304 126.71 722.723 126.129C722.142 125.548 721.852 124.796 721.852 123.874V73.9883C721.852 73.0654 722.142 72.3135 722.723 71.7324C723.338 71.1172 724.09 70.8096 724.979 70.8096H736.463C737.386 70.8096 738.138 71.1172 738.719 71.7324C739.3 72.3135 739.591 73.0654 739.591 73.9883V93.0605C745.538 93.0605 749.605 90.7534 751.793 86.1392L756.715 75.6802C757.398 74.2104 758.407 73.0312 759.74 72.1426C761.073 71.2539 762.508 70.8096 764.046 70.8096H773.736C775.445 70.8096 776.3 71.4761 776.3 72.8091C776.3 73.561 776.026 74.5181 775.479 75.6802L768.866 89.6255C767.738 91.9497 766.2 93.9492 764.251 95.624C762.303 97.2988 760.201 98.3755 757.945 98.854C762.149 100.119 765.79 103.195 768.866 108.083L777.582 122.182C778.163 123.173 778.47 124.027 778.504 124.745Z" fill="white"/>
<path d="M620.131 123.31C615.619 120.165 613.363 115.722 613.363 109.979C613.363 104.237 615.619 99.8281 620.131 96.752C624.677 93.6758 630.521 92.1377 637.665 92.1377H654.635C654.635 88.1387 653.798 85.353 652.123 83.7808C650.448 82.2085 647.509 81.4224 643.305 81.4224C639.135 81.4224 636.195 82.4648 634.486 84.5498C632.812 86.6006 630.744 87.626 628.283 87.626H620.644C619.721 87.626 618.952 87.3354 618.336 86.7544C617.755 86.1392 617.465 85.3872 617.465 84.4985C617.465 74.689 626.779 69.7842 645.407 69.7842C653.542 69.7842 660.07 71.6128 664.992 75.27C669.914 78.8931 672.375 84.5156 672.375 92.1377V123.874C672.375 124.796 672.084 125.548 671.503 126.129C670.922 126.71 670.17 127.001 669.247 127.001H659.352C658.429 127.001 657.677 126.71 657.096 126.129C656.515 125.514 656.225 124.762 656.225 123.874V122.284C650.824 126.146 644.586 128.061 637.511 128.026C630.47 128.026 624.677 126.454 620.131 123.31ZM638.896 103.776C636.503 103.776 634.606 104.357 633.205 105.519C631.837 106.681 631.154 108.185 631.154 110.031C631.154 111.876 631.872 113.397 633.307 114.594C634.743 115.79 636.776 116.388 639.408 116.388C644.672 116.388 649.748 114.85 654.635 111.774V103.776H638.896Z" fill="white"/>
<path d="M609.622 124.745C609.622 126.249 608.733 127.001 606.956 127.001H597.266C593.984 127.001 591.37 125.395 589.421 122.182L582.91 111.569C580.107 107.023 576.04 104.75 570.708 104.75V123.874C570.708 124.796 570.4 125.548 569.785 126.129C569.204 126.71 568.469 127.001 567.581 127.001H556.096C555.173 127.001 554.421 126.71 553.84 126.129C553.259 125.548 552.969 124.796 552.969 123.874V73.9883C552.969 73.0654 553.259 72.3135 553.84 71.7324C554.456 71.1172 555.208 70.8096 556.096 70.8096H567.581C568.503 70.8096 569.255 71.1172 569.836 71.7324C570.417 72.3135 570.708 73.0654 570.708 73.9883V93.0605C576.655 93.0605 580.723 90.7534 582.91 86.1392L587.832 75.6802C588.516 74.2104 589.524 73.0312 590.857 72.1426C592.19 71.2539 593.625 70.8096 595.164 70.8096H604.854C606.562 70.8096 607.417 71.4761 607.417 72.8091C607.417 73.561 607.144 74.5181 606.597 75.6802L599.983 89.6255C598.855 91.9497 597.317 93.9492 595.369 95.624C593.42 97.2988 591.318 98.3755 589.062 98.854C593.267 100.119 596.907 103.195 599.983 108.083L608.699 122.182C609.28 123.173 609.587 124.027 609.622 124.745Z" fill="white"/>
<path d="M485.602 123.874V73.9883C485.602 73.0654 485.892 72.3135 486.473 71.7324C487.088 71.1172 487.84 70.8096 488.729 70.8096H519.388C525.917 70.8096 531.197 72.0742 535.23 74.6035C539.298 77.1328 541.332 80.9438 541.332 86.0366C541.332 91.0952 539.229 94.9233 535.025 97.521C541.007 100.529 543.998 104.989 543.998 110.902C543.998 116.815 542.066 120.985 538.204 123.412C534.342 125.805 528.805 127.001 521.593 127.001H488.729C487.84 127.001 487.088 126.71 486.473 126.129C485.892 125.514 485.602 124.762 485.602 123.874ZM503.341 115.568H520.362C522.242 115.568 523.678 115.038 524.669 113.979C525.694 112.919 526.207 111.518 526.207 109.774C526.207 108.031 525.694 106.63 524.669 105.57C523.678 104.511 522.242 103.981 520.362 103.981H503.341V115.568ZM503.341 92.7529H518.363C519.901 92.7529 521.148 92.2744 522.105 91.3174C523.097 90.3262 523.592 89.0615 523.592 87.5234C523.592 85.9854 523.097 84.7378 522.105 83.7808C521.148 82.7896 519.901 82.2939 518.363 82.2939H503.341V92.7529Z" fill="white"/>
<path d="M422.127 120.644C416.795 115.722 414.129 108.476 414.129 98.9053C414.129 89.3008 416.795 82.0547 422.127 77.167C427.459 72.2451 435.115 69.7842 445.096 69.7842C455.11 69.7842 462.784 72.2451 468.116 77.167C473.448 82.0547 476.114 89.3008 476.114 98.9053C476.114 108.476 473.448 115.722 468.116 120.644C462.784 125.565 455.11 128.026 445.096 128.026C435.115 128.026 427.459 125.565 422.127 120.644ZM435.098 85.5752C432.979 88.3438 431.919 92.77 431.919 98.854C431.919 104.938 432.979 109.381 435.098 112.184C437.217 114.987 440.55 116.388 445.096 116.388C449.676 116.388 453.025 114.987 455.145 112.184C457.298 109.381 458.375 104.938 458.375 98.854C458.375 92.77 457.298 88.3438 455.145 85.5752C453.025 82.8066 449.676 81.4224 445.096 81.4224C440.55 81.4224 437.217 82.8066 435.098 85.5752Z" fill="white"/>
<path d="M354.094 80.0894V73.9883C354.094 73.0654 354.384 72.3135 354.965 71.7324C355.581 71.1172 356.35 70.8096 357.272 70.8096H407.773C408.696 70.8096 409.448 71.1172 410.029 71.7324C410.61 72.3135 410.9 73.0654 410.9 73.9883V80.0894C410.9 80.978 410.61 81.73 410.029 82.3452C409.448 82.9263 408.696 83.2168 407.773 83.2168H391.418V123.874C391.418 124.762 391.11 125.514 390.495 126.129C389.914 126.71 389.162 127.001 388.239 127.001H376.806C375.883 127.001 375.114 126.71 374.499 126.129C373.918 125.514 373.627 124.762 373.627 123.874V83.2168H357.272C356.35 83.2168 355.581 82.9263 354.965 82.3452C354.384 81.73 354.094 80.978 354.094 80.0894Z" fill="white"/>
<path d="M296.928 120.644C291.596 115.722 288.93 108.476 288.93 98.9053C288.93 89.3008 291.596 82.0547 296.928 77.167C302.26 72.2451 309.916 69.7842 319.896 69.7842C329.911 69.7842 337.584 72.2451 342.917 77.167C348.249 82.0547 350.915 89.3008 350.915 98.9053C350.915 108.476 348.249 115.722 342.917 120.644C337.584 125.565 329.911 128.026 319.896 128.026C309.916 128.026 302.26 125.565 296.928 120.644ZM309.899 85.5752C307.78 88.3438 306.72 92.77 306.72 98.854C306.72 104.938 307.78 109.381 309.899 112.184C312.018 114.987 315.351 116.388 319.896 116.388C324.477 116.388 327.826 114.987 329.945 112.184C332.099 109.381 333.175 104.938 333.175 98.854C333.175 92.77 332.099 88.3438 329.945 85.5752C327.826 82.8066 324.477 81.4224 319.896 81.4224C315.351 81.4224 312.018 82.8066 309.899 85.5752Z" fill="white"/>
<path d="M240.121 123.874V73.9883C240.121 73.0654 240.412 72.3135 240.993 71.7324C241.608 71.1172 242.36 70.8096 243.249 70.8096H281.598C282.487 70.8096 283.222 71.1172 283.803 71.7324C284.418 72.3135 284.726 73.0654 284.726 73.9883V80.0894C284.726 80.978 284.418 81.73 283.803 82.3452C283.222 82.9263 282.487 83.2168 281.598 83.2168H257.86V123.874C257.86 124.762 257.553 125.514 256.938 126.129C256.356 126.71 255.622 127.001 254.733 127.001H243.249C242.36 127.001 241.608 126.71 240.993 126.129C240.412 125.514 240.121 124.762 240.121 123.874Z" fill="white"/>
<path d="M161.117 123.874V117.772C161.117 116.85 161.408 116.098 161.989 115.517C162.604 114.901 163.373 114.594 164.296 114.594H168.295L175.319 86.3442C177.917 75.9878 186.496 70.8096 201.056 70.8096H224.333C225.255 70.8096 226.007 71.1172 226.588 71.7324C227.204 72.3135 227.511 73.0654 227.511 73.9883V123.874C227.511 124.762 227.204 125.514 226.588 126.129C226.007 126.71 225.255 127.001 224.333 127.001H164.296C163.373 127.001 162.604 126.71 161.989 126.129C161.408 125.514 161.117 124.762 161.117 123.874ZM185.06 114.594H209.772V83.2168H200.492C195.536 83.2168 192.392 85.729 191.059 90.7534L185.06 114.594Z" fill="white"/>
<path d="M104.975 120.644C99.6426 115.722 96.9766 108.476 96.9766 98.9053C96.9766 89.3008 99.6426 82.0547 104.975 77.167C110.307 72.2451 117.963 69.7842 127.943 69.7842C137.958 69.7842 145.631 72.2451 150.963 77.167C156.295 82.0547 158.961 89.3008 158.961 98.9053C158.961 108.476 156.295 115.722 150.963 120.644C145.631 125.565 137.958 128.026 127.943 128.026C117.963 128.026 110.307 125.565 104.975 120.644ZM117.946 85.5752C115.827 88.3438 114.767 92.77 114.767 98.854C114.767 104.938 115.827 109.381 117.946 112.184C120.065 114.987 123.397 116.388 127.943 116.388C132.523 116.388 135.873 114.987 137.992 112.184C140.146 109.381 141.222 104.938 141.222 98.854C141.222 92.77 140.146 88.3438 137.992 85.5752C135.873 82.8066 132.523 81.4224 127.943 81.4224C123.397 81.4224 120.065 82.8066 117.946 85.5752Z" fill="white"/>
<path d="M10.332 122.182V58.3511C10.332 57.0181 10.7935 55.873 11.7163 54.916C12.6392 53.959 13.7671 53.4805 15.1001 53.4805H81.6479C82.981 53.4805 84.1089 53.959 85.0317 54.916C85.9888 55.873 86.4673 57.0181 86.4673 58.3511V122.182C86.4673 123.515 85.9717 124.66 84.9805 125.617C84.0234 126.54 82.8784 127.001 81.5454 127.001H72.0093C70.6763 127.001 69.5312 126.54 68.5742 125.617C67.6172 124.66 67.1387 123.515 67.1387 122.182V67.9897H29.6606V122.182C29.6606 123.515 29.1821 124.66 28.2251 125.617C27.3022 126.54 26.1743 127.001 24.8413 127.001H15.2026C13.8696 127.001 12.7246 126.54 11.7676 125.617C10.8105 124.66 10.332 123.515 10.332 122.182Z" fill="white"/>
<path d="M3.87703 28.0155L1.02092 22.4802C-1.15403 18.2649 0.229996 12.9984 4.37392 10.8245C40.1818 -7.96054 74.0038 1.40645 91.4021 11.2102C94.9895 13.2316 95.9894 17.6134 93.9708 21.2611C92.9314 23.1395 91.6076 25.505 89.942 28.4479C87.5114 32.7426 82.1589 34.1553 77.7864 32.0115C56.5322 21.5908 37.9312 21.5785 16.1367 31.9746C11.6439 34.1177 6.19225 32.5026 3.87703 28.0155Z" fill="white"/>
</svg>
