<svg viewBox="0 0 454.375 65.8672" xmlns="http://www.w3.org/2000/svg" xmlns:xlink="http://www.w3.org/1999/xlink" width="454.375000" height="65.867188" fill="none" customFrame="#000000">
	<rect id="Ex mini black (color) 07" width="454.374512" height="65.867188" x="0.000000" y="0.000000" fill="rgb(255,255,255)" fill-opacity="0" />
	<path id="Ex mini black (color) 07" d="M428.645 64.0654L428.645 35.2812C428.645 34.8857 428.769 34.5635 429.018 34.3145C429.282 34.0508 429.604 33.9189 429.985 33.9189L434.226 33.9189C434.606 33.9189 434.921 34.0508 435.17 34.3145C435.434 34.5635 435.566 34.8857 435.566 35.2812L435.566 35.9404C437.88 34.2998 440.568 33.4795 443.63 33.4795C446.691 33.4795 449.248 34.5635 451.298 36.7314C453.349 38.8848 454.375 41.9756 454.375 46.0039C454.375 50.0176 453.312 53.0938 451.188 55.2324C449.064 57.3711 446.201 58.4404 442.597 58.4404C440.737 58.4404 438.62 58.0669 436.247 57.3198L436.247 64.0654C436.247 64.4609 436.115 64.7832 435.852 65.0322C435.603 65.2959 435.288 65.4277 434.907 65.4277L429.985 65.4277C429.604 65.4277 429.282 65.2959 429.018 65.0322C428.769 64.7832 428.645 64.4609 428.645 64.0654ZM436.247 52.2441C438.137 52.8447 439.726 53.145 441.015 53.145C443.022 53.145 444.443 52.5737 445.278 51.4312C446.127 50.2886 446.552 48.4648 446.552 45.96C446.552 43.4551 446.149 41.6387 445.344 40.5107C444.553 39.3682 443.359 38.7969 441.762 38.7969C440.18 38.7969 438.342 39.4561 436.247 40.7744L436.247 52.2441Z" fill="rgb(0,0,0)" fill-rule="nonzero" />
	<path id="Ex mini black (color) 07" d="M398.234 56.6606L398.234 35.2812C398.234 34.8857 398.359 34.5635 398.608 34.3145C398.872 34.0508 399.194 33.9189 399.575 33.9189L404.167 33.9189C404.562 33.9189 404.885 34.0508 405.134 34.3145C405.397 34.5635 405.529 34.8857 405.529 35.2812L405.529 49.7173L413.264 35.501C413.498 35.0469 413.857 34.6733 414.34 34.3804C414.824 34.0728 415.292 33.9189 415.747 33.9189L421.899 33.9189C422.294 33.9189 422.617 34.0508 422.866 34.3145C423.129 34.5635 423.261 34.8857 423.261 35.2812L423.261 56.6606C423.261 57.0562 423.129 57.3784 422.866 57.6274C422.617 57.8765 422.294 58.001 421.899 58.001L417.307 58.001C416.911 58.001 416.589 57.8765 416.34 57.6274C416.091 57.3638 415.966 57.0415 415.966 56.6606L415.966 42.2466L408.232 56.4189C407.998 56.8438 407.639 57.2173 407.155 57.5396C406.672 57.8472 406.203 58.001 405.749 58.001L399.575 58.001C399.179 58.001 398.857 57.8765 398.608 57.6274C398.359 57.3784 398.234 57.0562 398.234 56.6606Z" fill="rgb(0,0,0)" fill-rule="nonzero" />
	<path id="Ex mini black (color) 07" d="M398.234 56.6606L398.234 35.2812C398.234 34.8857 398.359 34.5635 398.608 34.3145C398.872 34.0508 399.194 33.9189 399.575 33.9189L404.167 33.9189C404.562 33.9189 404.885 34.0508 405.134 34.3145C405.397 34.5635 405.529 34.8857 405.529 35.2812L405.529 49.7173L413.264 35.501C413.498 35.0469 413.857 34.6733 414.34 34.3804C414.824 34.0728 415.292 33.9189 415.747 33.9189L421.899 33.9189C422.294 33.9189 422.617 34.0508 422.866 34.3145C423.129 34.5635 423.261 34.8857 423.261 35.2812L423.261 56.6606C423.261 57.0562 423.129 57.3784 422.866 57.6274C422.617 57.8765 422.294 58.001 421.899 58.001L417.307 58.001C416.911 58.001 416.589 57.8765 416.34 57.6274C416.091 57.3638 415.966 57.0415 415.966 56.6606L415.966 42.2466L408.232 56.4189C407.998 56.8438 407.639 57.2173 407.155 57.5396C406.672 57.8472 406.203 58.001 405.749 58.001L399.575 58.001C399.179 58.001 398.857 57.8765 398.608 57.6274C398.359 57.3784 398.234 57.0562 398.234 56.6606Z" fill="rgb(0,0,0)" fill-rule="nonzero" />
	<path id="Ex mini black (color) 07" d="M360.352 56.6606L360.352 35.2812C360.352 34.8857 360.476 34.5635 360.725 34.3145C360.989 34.0508 361.311 33.9189 361.692 33.9189L369.25 33.9189C370.115 33.9189 370.774 34.4609 371.228 35.5449L376.589 48.6406L381.951 35.5449C382.405 34.4609 383.064 33.9189 383.928 33.9189L391.487 33.9189C391.882 33.9189 392.205 34.0508 392.454 34.3145C392.717 34.5635 392.849 34.8857 392.849 35.2812L392.849 56.6606C392.849 57.0562 392.717 57.3784 392.454 57.6274C392.205 57.8765 391.882 58.001 391.487 58.001L386.719 58.001C386.323 58.001 386.001 57.8765 385.752 57.6274C385.503 57.3638 385.378 57.0415 385.378 56.6606L385.378 42.9277L379.753 56.4629C379.299 57.4883 378.604 58.001 377.666 58.001L375.513 58.001C374.59 58.001 373.901 57.4883 373.447 56.4629L367.822 42.9277L367.822 56.6606C367.822 57.0562 367.69 57.3784 367.427 57.6274C367.178 57.8765 366.855 58.001 366.46 58.001L361.692 58.001C361.296 58.001 360.974 57.8765 360.725 57.6274C360.476 57.3784 360.352 57.0562 360.352 56.6606Z" fill="rgb(0,0,0)" fill-rule="nonzero" />
	<path id="Ex mini black (color) 07" d="M360.352 56.6606L360.352 35.2812C360.352 34.8857 360.476 34.5635 360.725 34.3145C360.989 34.0508 361.311 33.9189 361.692 33.9189L369.25 33.9189C370.115 33.9189 370.774 34.4609 371.228 35.5449L376.589 48.6406L381.951 35.5449C382.405 34.4609 383.064 33.9189 383.928 33.9189L391.487 33.9189C391.882 33.9189 392.205 34.0508 392.454 34.3145C392.717 34.5635 392.849 34.8857 392.849 35.2812L392.849 56.6606C392.849 57.0562 392.717 57.3784 392.454 57.6274C392.205 57.8765 391.882 58.001 391.487 58.001L386.719 58.001C386.323 58.001 386.001 57.8765 385.752 57.6274C385.503 57.3638 385.378 57.0415 385.378 56.6606L385.378 42.9277L379.753 56.4629C379.299 57.4883 378.604 58.001 377.666 58.001L375.513 58.001C374.59 58.001 373.901 57.4883 373.447 56.4629L367.822 42.9277L367.822 56.6606C367.822 57.0562 367.69 57.3784 367.427 57.6274C367.178 57.8765 366.855 58.001 366.46 58.001L361.692 58.001C361.296 58.001 360.974 57.8765 360.725 57.6274C360.476 57.3784 360.352 57.0562 360.352 56.6606Z" fill="rgb(0,0,0)" fill-rule="nonzero" />
	<path id="Ex mini black (color) 07" d="M314.168 56.6606L314.168 35.2812C314.168 34.8857 314.292 34.5635 314.542 34.3145C314.805 34.0508 315.127 33.9189 315.508 33.9189L320.101 33.9189C320.496 33.9189 320.818 34.0508 321.067 34.3145C321.331 34.5635 321.463 34.8857 321.463 35.2812L321.463 49.7173L329.197 35.501C329.432 35.0469 329.791 34.6733 330.274 34.3804C330.757 34.0728 331.226 33.9189 331.68 33.9189L337.833 33.9189C338.228 33.9189 338.55 34.0508 338.799 34.3145C339.063 34.5635 339.195 34.8857 339.195 35.2812L339.195 56.6606C339.195 57.0562 339.063 57.3784 338.799 57.6274C338.55 57.8765 338.228 58.001 337.833 58.001L333.24 58.001C332.845 58.001 332.522 57.8765 332.273 57.6274C332.024 57.3638 331.9 57.0415 331.9 56.6606L331.9 42.2466L324.166 56.4189C323.931 56.8438 323.572 57.2173 323.089 57.5396C322.605 57.8472 322.137 58.001 321.683 58.001L315.508 58.001C315.113 58.001 314.791 57.8765 314.542 57.6274C314.292 57.3784 314.168 57.0562 314.168 56.6606ZM319.288 25.5913C319.288 24.8442 319.698 24.4707 320.518 24.4707L322.166 24.4707C322.884 24.4707 323.396 24.8442 323.704 25.5913C324.188 26.7925 325.176 27.3931 326.67 27.3931C328.179 27.3931 329.168 26.7925 329.637 25.5913C329.93 24.8442 330.442 24.4707 331.175 24.4707L332.845 24.4707C333.65 24.4707 334.053 24.8442 334.053 25.5913C334.053 27.3052 333.372 28.7114 332.01 29.8101C330.647 30.9087 328.868 31.458 326.67 31.458C324.488 31.458 322.708 30.9087 321.331 29.8101C319.969 28.7114 319.288 27.3052 319.288 25.5913Z" fill="rgb(0,0,0)" fill-rule="nonzero" />
	<path id="Ex mini black (color) 07" d="M314.168 56.6606L314.168 35.2812C314.168 34.8857 314.292 34.5635 314.542 34.3145C314.805 34.0508 315.127 33.9189 315.508 33.9189L320.101 33.9189C320.496 33.9189 320.818 34.0508 321.067 34.3145C321.331 34.5635 321.463 34.8857 321.463 35.2812L321.463 49.7173L329.197 35.501C329.432 35.0469 329.791 34.6733 330.274 34.3804C330.757 34.0728 331.226 33.9189 331.68 33.9189L337.833 33.9189C338.228 33.9189 338.55 34.0508 338.799 34.3145C339.063 34.5635 339.195 34.8857 339.195 35.2812L339.195 56.6606C339.195 57.0562 339.063 57.3784 338.799 57.6274C338.55 57.8765 338.228 58.001 337.833 58.001L333.24 58.001C332.845 58.001 332.522 57.8765 332.273 57.6274C332.024 57.3638 331.9 57.0415 331.9 56.6606L331.9 42.2466L324.166 56.4189C323.931 56.8438 323.572 57.2173 323.089 57.5396C322.605 57.8472 322.137 58.001 321.683 58.001L315.508 58.001C315.113 58.001 314.791 57.8765 314.542 57.6274C314.292 57.3784 314.168 57.0562 314.168 56.6606ZM319.288 25.5913C319.288 24.8442 319.698 24.4707 320.518 24.4707L322.166 24.4707C322.884 24.4707 323.396 24.8442 323.704 25.5913C324.188 26.7925 325.176 27.3931 326.67 27.3931C328.179 27.3931 329.168 26.7925 329.637 25.5913C329.93 24.8442 330.442 24.4707 331.175 24.4707L332.845 24.4707C333.65 24.4707 334.053 24.8442 334.053 25.5913C334.053 27.3052 333.372 28.7114 332.01 29.8101C330.647 30.9087 328.868 31.458 326.67 31.458C324.488 31.458 322.708 30.9087 321.331 29.8101C319.969 28.7114 319.288 27.3052 319.288 25.5913Z" fill="rgb(0,0,0)" fill-rule="nonzero" />
	<path id="Ex mini black (color) 07" d="M283.758 56.6606L283.758 35.2812C283.758 34.8857 283.882 34.5635 284.131 34.3145C284.395 34.0508 284.717 33.9189 285.098 33.9189L289.69 33.9189C290.086 33.9189 290.408 34.0508 290.657 34.3145C290.921 34.5635 291.053 34.8857 291.053 35.2812L291.053 49.7173L298.787 35.501C299.021 35.0469 299.38 34.6733 299.864 34.3804C300.347 34.0728 300.816 33.9189 301.27 33.9189L307.422 33.9189C307.818 33.9189 308.14 34.0508 308.389 34.3145C308.653 34.5635 308.785 34.8857 308.785 35.2812L308.785 56.6606C308.785 57.0562 308.653 57.3784 308.389 57.6274C308.14 57.8765 307.818 58.001 307.422 58.001L302.83 58.001C302.435 58.001 302.112 57.8765 301.863 57.6274C301.614 57.3638 301.49 57.0415 301.49 56.6606L301.49 42.2466L293.755 56.4189C293.521 56.8438 293.162 57.2173 292.679 57.5396C292.195 57.8472 291.727 58.001 291.272 58.001L285.098 58.001C284.703 58.001 284.38 57.8765 284.131 57.6274C283.882 57.3784 283.758 57.0562 283.758 56.6606Z" fill="rgb(0,0,0)" fill-rule="nonzero" />
	<path id="Ex mini black (color) 07" d="M283.758 56.6606L283.758 35.2812C283.758 34.8857 283.882 34.5635 284.131 34.3145C284.395 34.0508 284.717 33.9189 285.098 33.9189L289.69 33.9189C290.086 33.9189 290.408 34.0508 290.657 34.3145C290.921 34.5635 291.053 34.8857 291.053 35.2812L291.053 49.7173L298.787 35.501C299.021 35.0469 299.38 34.6733 299.864 34.3804C300.347 34.0728 300.816 33.9189 301.27 33.9189L307.422 33.9189C307.818 33.9189 308.14 34.0508 308.389 34.3145C308.653 34.5635 308.785 34.8857 308.785 35.2812L308.785 56.6606C308.785 57.0562 308.653 57.3784 308.389 57.6274C308.14 57.8765 307.818 58.001 307.422 58.001L302.83 58.001C302.435 58.001 302.112 57.8765 301.863 57.6274C301.614 57.3638 301.49 57.0415 301.49 56.6606L301.49 42.2466L293.755 56.4189C293.521 56.8438 293.162 57.2173 292.679 57.5396C292.195 57.8472 291.727 58.001 291.272 58.001L285.098 58.001C284.703 58.001 284.38 57.8765 284.131 57.6274C283.882 57.3784 283.758 57.0562 283.758 56.6606Z" fill="rgb(0,0,0)" fill-rule="nonzero" />
	<path id="Ex mini black (color) 07" d="M240.516 56.6606L240.516 35.2812C240.516 34.8857 240.64 34.5635 240.889 34.3145C241.153 34.0508 241.475 33.9189 241.856 33.9189L246.778 33.9189C247.173 33.9189 247.496 34.0508 247.745 34.3145C247.994 34.5635 248.118 34.8857 248.118 35.2812L248.118 52.6836L254.996 52.6836L254.996 35.2812C254.996 34.8857 255.12 34.5635 255.369 34.3145C255.633 34.0508 255.962 33.9189 256.358 33.9189L261.258 33.9189C261.653 33.9189 261.976 34.0508 262.225 34.3145C262.474 34.5635 262.598 34.8857 262.598 35.2812L262.598 52.6836L269.498 52.6836L269.498 35.2812C269.498 34.8857 269.622 34.5635 269.871 34.3145C270.135 34.0508 270.457 33.9189 270.838 33.9189L275.738 33.9189C276.133 33.9189 276.456 34.0508 276.705 34.3145C276.968 34.5635 277.1 34.8857 277.1 35.2812L277.1 52.6836L279.253 52.6836C279.649 52.6836 279.971 52.8154 280.22 53.0791C280.484 53.3281 280.616 53.6504 280.616 54.0459L280.616 56.6606C280.616 57.0562 280.484 57.3784 280.22 57.6274C279.971 57.8765 279.649 58.001 279.253 58.001L241.856 58.001C241.46 58.001 241.138 57.8765 240.889 57.6274C240.64 57.3784 240.516 57.0562 240.516 56.6606Z" fill="rgb(0,0,0)" fill-rule="nonzero" />
	<path id="Ex mini black (color) 07" d="M240.516 56.6606L240.516 35.2812C240.516 34.8857 240.64 34.5635 240.889 34.3145C241.153 34.0508 241.475 33.9189 241.856 33.9189L246.778 33.9189C247.173 33.9189 247.496 34.0508 247.745 34.3145C247.994 34.5635 248.118 34.8857 248.118 35.2812L248.118 52.6836L254.996 52.6836L254.996 35.2812C254.996 34.8857 255.12 34.5635 255.369 34.3145C255.633 34.0508 255.962 33.9189 256.358 33.9189L261.258 33.9189C261.653 33.9189 261.976 34.0508 262.225 34.3145C262.474 34.5635 262.598 34.8857 262.598 35.2812L262.598 52.6836L269.498 52.6836L269.498 35.2812C269.498 34.8857 269.622 34.5635 269.871 34.3145C270.135 34.0508 270.457 33.9189 270.838 33.9189L275.738 33.9189C276.133 33.9189 276.456 34.0508 276.705 34.3145C276.968 34.5635 277.1 34.8857 277.1 35.2812L277.1 52.6836L279.253 52.6836C279.649 52.6836 279.971 52.8154 280.22 53.0791C280.484 53.3281 280.616 53.6504 280.616 54.0459L280.616 56.6606C280.616 57.0562 280.484 57.3784 280.22 57.6274C279.971 57.8765 279.649 58.001 279.253 58.001L241.856 58.001C241.46 58.001 241.138 57.8765 240.889 57.6274C240.64 57.3784 240.516 57.0562 240.516 56.6606Z" fill="rgb(0,0,0)" fill-rule="nonzero" />
	<path id="Ex mini black (color) 07" d="M200.391 56.6606L200.391 35.2812C200.391 34.8857 200.515 34.5635 200.764 34.3145C201.028 34.0508 201.35 33.9189 201.731 33.9189L206.653 33.9189C207.034 33.9189 207.349 34.0508 207.598 34.3145C207.861 34.5635 207.993 34.8857 207.993 35.2812L207.993 43.1475L211.223 43.1475C211.619 39.998 212.922 37.603 215.134 35.9624C217.361 34.3071 220.342 33.4795 224.077 33.4795C227.812 33.4795 230.801 34.5488 233.042 36.6875C235.298 38.8115 236.426 41.9097 236.426 45.9819C236.426 50.0396 235.298 53.1304 233.042 55.2544C230.801 57.3784 227.798 58.4404 224.033 58.4404C220.269 58.4404 217.273 57.5908 215.046 55.8916C212.834 54.1777 211.545 51.7021 211.179 48.4648L207.993 48.4648L207.993 56.6606C207.993 57.0415 207.861 57.3638 207.598 57.6274C207.349 57.8765 207.034 58.001 206.653 58.001L201.731 58.001C201.35 58.001 201.028 57.8765 200.764 57.6274C200.515 57.3638 200.391 57.0415 200.391 56.6606ZM228.823 45.96C228.823 40.9648 227.124 38.4673 223.726 38.4673C220.342 38.4673 218.65 40.9648 218.65 45.96C218.65 50.9551 220.342 53.4526 223.726 53.4526C227.124 53.4526 228.823 50.9551 228.823 45.96Z" fill="rgb(0,0,0)" fill-rule="nonzero" />
	<path id="Ex mini black (color) 07" d="M200.391 56.6606L200.391 35.2812C200.391 34.8857 200.515 34.5635 200.764 34.3145C201.028 34.0508 201.35 33.9189 201.731 33.9189L206.653 33.9189C207.034 33.9189 207.349 34.0508 207.598 34.3145C207.861 34.5635 207.993 34.8857 207.993 35.2812L207.993 43.1475L211.223 43.1475C211.619 39.998 212.922 37.603 215.134 35.9624C217.361 34.3071 220.342 33.4795 224.077 33.4795C227.812 33.4795 230.801 34.5488 233.042 36.6875C235.298 38.8115 236.426 41.9097 236.426 45.9819C236.426 50.0396 235.298 53.1304 233.042 55.2544C230.801 57.3784 227.798 58.4404 224.033 58.4404C220.269 58.4404 217.273 57.5908 215.046 55.8916C212.834 54.1777 211.545 51.7021 211.179 48.4648L207.993 48.4648L207.993 56.6606C207.993 57.0415 207.861 57.3638 207.598 57.6274C207.349 57.8765 207.034 58.001 206.653 58.001L201.731 58.001C201.35 58.001 201.028 57.8765 200.764 57.6274C200.515 57.3638 200.391 57.0415 200.391 56.6606ZM228.823 45.96C228.823 40.9648 227.124 38.4673 223.726 38.4673C220.342 38.4673 218.65 40.9648 218.65 45.96C218.65 50.9551 220.342 53.4526 223.726 53.4526C227.124 53.4526 228.823 50.9551 228.823 45.96Z" fill="rgb(0,0,0)" fill-rule="nonzero" />
	<path id="Ex mini black (color) 07" d="M172.576 56.4189C170.643 55.0713 169.676 53.167 169.676 50.7061C169.676 48.2451 170.643 46.3555 172.576 45.0371C174.524 43.7188 177.029 43.0596 180.091 43.0596L187.364 43.0596C187.364 41.3457 187.005 40.1519 186.287 39.478C185.569 38.8042 184.31 38.4673 182.508 38.4673C180.721 38.4673 179.461 38.9141 178.729 39.8076C178.011 40.6865 177.125 41.126 176.07 41.126L172.796 41.126C172.4 41.126 172.071 41.0015 171.807 40.7524C171.558 40.4888 171.434 40.1665 171.434 39.7856C171.434 35.5815 175.425 33.4795 183.409 33.4795C186.895 33.4795 189.693 34.2632 191.802 35.8306C193.912 37.3833 194.966 39.793 194.966 43.0596L194.966 56.6606C194.966 57.0562 194.842 57.3784 194.593 57.6274C194.344 57.8765 194.021 58.001 193.626 58.001L189.385 58.001C188.99 58.001 188.667 57.8765 188.418 57.6274C188.169 57.3638 188.045 57.0415 188.045 56.6606L188.045 55.9795C185.73 57.6348 183.057 58.4551 180.025 58.4404C177.007 58.4404 174.524 57.7666 172.576 56.4189ZM180.618 48.0474C179.593 48.0474 178.78 48.2964 178.179 48.7944C177.593 49.2925 177.3 49.937 177.3 50.728C177.3 51.519 177.608 52.1709 178.223 52.6836C178.838 53.1963 179.71 53.4526 180.838 53.4526C183.094 53.4526 185.269 52.7935 187.364 51.4751L187.364 48.0474L180.618 48.0474Z" fill="rgb(0,0,0)" fill-rule="nonzero" />
	<path id="Ex mini black (color) 07" d="M172.576 56.4189C170.643 55.0713 169.676 53.167 169.676 50.7061C169.676 48.2451 170.643 46.3555 172.576 45.0371C174.524 43.7188 177.029 43.0596 180.091 43.0596L187.364 43.0596C187.364 41.3457 187.005 40.1519 186.287 39.478C185.569 38.8042 184.31 38.4673 182.508 38.4673C180.721 38.4673 179.461 38.9141 178.729 39.8076C178.011 40.6865 177.125 41.126 176.07 41.126L172.796 41.126C172.4 41.126 172.071 41.0015 171.807 40.7524C171.558 40.4888 171.434 40.1665 171.434 39.7856C171.434 35.5815 175.425 33.4795 183.409 33.4795C186.895 33.4795 189.693 34.2632 191.802 35.8306C193.912 37.3833 194.966 39.793 194.966 43.0596L194.966 56.6606C194.966 57.0562 194.842 57.3784 194.593 57.6274C194.344 57.8765 194.021 58.001 193.626 58.001L189.385 58.001C188.99 58.001 188.667 57.8765 188.418 57.6274C188.169 57.3638 188.045 57.0415 188.045 56.6606L188.045 55.9795C185.73 57.6348 183.057 58.4551 180.025 58.4404C177.007 58.4404 174.524 57.7666 172.576 56.4189ZM180.618 48.0474C179.593 48.0474 178.78 48.2964 178.179 48.7944C177.593 49.2925 177.3 49.937 177.3 50.728C177.3 51.519 177.608 52.1709 178.223 52.6836C178.838 53.1963 179.71 53.4526 180.838 53.4526C183.094 53.4526 185.269 52.7935 187.364 51.4751L187.364 48.0474L180.618 48.0474Z" fill="rgb(0,0,0)" fill-rule="nonzero" />
	<path id="Ex mini black (color) 07" d="M129.947 57.4077C129.889 57.2905 129.859 57.1221 129.859 56.9023C129.859 56.668 129.977 56.3457 130.211 55.9355L133.485 49.8931C134.657 47.7104 136.217 46.3921 138.165 45.938C137.066 45.6743 136.107 45.1836 135.287 44.4658C134.481 43.7334 133.88 42.9058 133.485 41.9829L131.112 36.0063C130.936 35.5229 130.833 35.1274 130.804 34.8198C130.804 34.2192 131.163 33.9189 131.881 33.9189L136.012 33.9189C136.729 33.9189 137.374 34.1094 137.945 34.4902C138.517 34.8711 138.919 35.3765 139.154 36.0063L140.824 40.4888C141.571 42.4663 143.014 43.4551 145.152 43.4551L145.152 35.2812C145.152 34.8857 145.277 34.5635 145.526 34.3145C145.79 34.0508 146.112 33.9189 146.493 33.9189L151.415 33.9189C151.795 33.9189 152.11 34.0508 152.359 34.3145C152.623 34.5635 152.755 34.8857 152.755 35.2812L152.755 43.4551C154.879 43.4551 156.322 42.4663 157.083 40.4888L158.731 36.0063C158.98 35.3765 159.391 34.8711 159.962 34.4902C160.533 34.1094 161.178 33.9189 161.896 33.9189L166.026 33.9189C166.715 33.9189 167.059 34.2192 167.059 34.8198C167.059 35.1274 166.971 35.5229 166.795 36.0063L164.4 41.9829C164.02 42.9058 163.419 43.7334 162.599 44.4658C161.793 45.1836 160.833 45.6743 159.72 45.938C161.683 46.3921 163.243 47.7104 164.4 49.8931L167.696 55.9355C167.931 56.3457 168.048 56.668 168.048 56.9023C168.048 57.1221 168.019 57.2905 167.96 57.4077C167.843 57.8032 167.499 58.001 166.927 58.001L162.796 58.001C161.258 58.001 160.13 57.3125 159.413 55.9355L157.083 51.3872C156.087 49.439 154.645 48.4648 152.755 48.4648L152.755 56.6606C152.755 57.0415 152.623 57.3638 152.359 57.6274C152.11 57.8765 151.795 58.001 151.415 58.001L146.493 58.001C146.112 58.001 145.79 57.8765 145.526 57.6274C145.277 57.3638 145.152 57.0415 145.152 56.6606L145.152 48.4648C143.263 48.4648 141.82 49.439 140.824 51.3872L138.495 55.9355C137.777 57.3125 136.649 58.001 135.111 58.001L130.98 58.001C130.409 58.001 130.064 57.8032 129.947 57.4077Z" fill="rgb(0,0,0)" fill-rule="nonzero" />
	<path id="Ex mini black (color) 07" d="M129.947 57.4077C129.889 57.2905 129.859 57.1221 129.859 56.9023C129.859 56.668 129.977 56.3457 130.211 55.9355L133.485 49.8931C134.657 47.7104 136.217 46.3921 138.165 45.938C137.066 45.6743 136.107 45.1836 135.287 44.4658C134.481 43.7334 133.88 42.9058 133.485 41.9829L131.112 36.0063C130.936 35.5229 130.833 35.1274 130.804 34.8198C130.804 34.2192 131.163 33.9189 131.881 33.9189L136.012 33.9189C136.729 33.9189 137.374 34.1094 137.945 34.4902C138.517 34.8711 138.919 35.3765 139.154 36.0063L140.824 40.4888C141.571 42.4663 143.014 43.4551 145.152 43.4551L145.152 35.2812C145.152 34.8857 145.277 34.5635 145.526 34.3145C145.79 34.0508 146.112 33.9189 146.493 33.9189L151.415 33.9189C151.795 33.9189 152.11 34.0508 152.359 34.3145C152.623 34.5635 152.755 34.8857 152.755 35.2812L152.755 43.4551C154.879 43.4551 156.322 42.4663 157.083 40.4888L158.731 36.0063C158.98 35.3765 159.391 34.8711 159.962 34.4902C160.533 34.1094 161.178 33.9189 161.896 33.9189L166.026 33.9189C166.715 33.9189 167.059 34.2192 167.059 34.8198C167.059 35.1274 166.971 35.5229 166.795 36.0063L164.4 41.9829C164.02 42.9058 163.419 43.7334 162.599 44.4658C161.793 45.1836 160.833 45.6743 159.72 45.938C161.683 46.3921 163.243 47.7104 164.4 49.8931L167.696 55.9355C167.931 56.3457 168.048 56.668 168.048 56.9023C168.048 57.1221 168.019 57.2905 167.96 57.4077C167.843 57.8032 167.499 58.001 166.927 58.001L162.796 58.001C161.258 58.001 160.13 57.3125 159.413 55.9355L157.083 51.3872C156.087 49.439 154.645 48.4648 152.755 48.4648L152.755 56.6606C152.755 57.0415 152.623 57.3638 152.359 57.6274C152.11 57.8765 151.795 58.001 151.415 58.001L146.493 58.001C146.112 58.001 145.79 57.8765 145.526 57.6274C145.277 57.3638 145.152 57.0415 145.152 56.6606L145.152 48.4648C143.263 48.4648 141.82 49.439 140.824 51.3872L138.495 55.9355C137.777 57.3125 136.649 58.001 135.111 58.001L130.98 58.001C130.409 58.001 130.064 57.8032 129.947 57.4077Z" fill="rgb(0,0,0)" fill-rule="nonzero" />
	<path id="Ex mini black (color) 07" d="M108.305 60.2861L111.183 60.6597C113.249 60.6597 114.691 59.1436 115.512 56.1113C113.021 56.1113 110.941 55.3643 109.271 53.8701C107.602 52.3613 106.166 49.688 104.965 45.8501L101.691 35.2373C101.647 35.1201 101.625 34.9883 101.625 34.8418C101.625 34.6807 101.713 34.4902 101.889 34.2705C102.079 34.0508 102.357 33.9336 102.724 33.9189L107.316 33.9189C107.741 33.9189 108.144 34.0654 108.524 34.3584C108.92 34.6367 109.176 34.9883 109.293 35.4131L112.172 44.7295C112.89 47.0146 113.615 48.5967 114.347 49.4756C115.094 50.3545 115.973 50.7939 116.984 50.7939L121.356 35.4131C121.474 34.9883 121.701 34.6367 122.038 34.3584C122.389 34.0654 122.777 33.9189 123.202 33.9189L127.838 33.9189C128.205 33.9189 128.476 34.0361 128.651 34.2705C128.827 34.5049 128.915 34.7026 128.915 34.8638C128.915 35.0103 128.9 35.1348 128.871 35.2373L123.114 55.7598C122.089 59.3926 120.814 61.9854 119.291 63.5381C117.782 65.0908 115.834 65.8672 113.446 65.8672C111.059 65.8672 109.367 65.7793 108.371 65.6035C107.389 65.4277 106.774 65.208 106.525 64.9443C106.276 64.6953 106.151 64.4023 106.151 64.0654L106.151 61.6484C106.151 61.2529 106.276 60.9233 106.525 60.6597C106.774 60.4106 107.096 60.2861 107.492 60.2861L108.305 60.2861Z" fill="rgb(0,0,0)" fill-rule="nonzero" />
	<path id="Ex mini black (color) 07" d="M108.305 60.2861L111.183 60.6597C113.249 60.6597 114.691 59.1436 115.512 56.1113C113.021 56.1113 110.941 55.3643 109.271 53.8701C107.602 52.3613 106.166 49.688 104.965 45.8501L101.691 35.2373C101.647 35.1201 101.625 34.9883 101.625 34.8418C101.625 34.6807 101.713 34.4902 101.889 34.2705C102.079 34.0508 102.357 33.9336 102.724 33.9189L107.316 33.9189C107.741 33.9189 108.144 34.0654 108.524 34.3584C108.92 34.6367 109.176 34.9883 109.293 35.4131L112.172 44.7295C112.89 47.0146 113.615 48.5967 114.347 49.4756C115.094 50.3545 115.973 50.7939 116.984 50.7939L121.356 35.4131C121.474 34.9883 121.701 34.6367 122.038 34.3584C122.389 34.0654 122.777 33.9189 123.202 33.9189L127.838 33.9189C128.205 33.9189 128.476 34.0361 128.651 34.2705C128.827 34.5049 128.915 34.7026 128.915 34.8638C128.915 35.0103 128.9 35.1348 128.871 35.2373L123.114 55.7598C122.089 59.3926 120.814 61.9854 119.291 63.5381C117.782 65.0908 115.834 65.8672 113.446 65.8672C111.059 65.8672 109.367 65.7793 108.371 65.6035C107.389 65.4277 106.774 65.208 106.525 64.9443C106.276 64.6953 106.151 64.4023 106.151 64.0654L106.151 61.6484C106.151 61.2529 106.276 60.9233 106.525 60.6597C106.774 60.4106 107.096 60.2861 107.492 60.2861L108.305 60.2861Z" fill="rgb(0,0,0)" fill-rule="nonzero" />
	<path id="Ex mini black (color) 07" d="M74.2695 64.0654L74.2695 35.2812C74.2695 34.8857 74.394 34.5635 74.6431 34.3145C74.9067 34.0508 75.229 33.9189 75.6099 33.9189L79.8506 33.9189C80.2314 33.9189 80.5464 34.0508 80.7954 34.3145C81.0591 34.5635 81.1909 34.8857 81.1909 35.2812L81.1909 35.9404C83.5054 34.2998 86.1934 33.4795 89.2549 33.4795C92.3164 33.4795 94.8726 34.5635 96.9233 36.7314C98.9741 38.8848 99.9995 41.9756 99.9995 46.0039C99.9995 50.0176 98.9375 53.0938 96.8135 55.2324C94.6895 57.3711 91.8257 58.4404 88.2222 58.4404C86.3618 58.4404 84.2451 58.0669 81.8721 57.3198L81.8721 64.0654C81.8721 64.4609 81.7402 64.7832 81.4766 65.0322C81.2275 65.2959 80.9126 65.4277 80.5317 65.4277L75.6099 65.4277C75.229 65.4277 74.9067 65.2959 74.6431 65.0322C74.394 64.7832 74.2695 64.4609 74.2695 64.0654ZM81.8721 52.2441C83.7617 52.8447 85.3511 53.145 86.6401 53.145C88.647 53.145 90.0679 52.5737 90.9028 51.4312C91.7524 50.2886 92.1772 48.4648 92.1772 45.96C92.1772 43.4551 91.7744 41.6387 90.9688 40.5107C90.1777 39.3682 88.9839 38.7969 87.3872 38.7969C85.8052 38.7969 83.9668 39.4561 81.8721 40.7744L81.8721 52.2441Z" fill="rgb(0,0,0)" fill-rule="nonzero" />
	<path id="Ex mini black (color) 07" d="M74.2695 64.0654L74.2695 35.2812C74.2695 34.8857 74.394 34.5635 74.6431 34.3145C74.9067 34.0508 75.229 33.9189 75.6099 33.9189L79.8506 33.9189C80.2314 33.9189 80.5464 34.0508 80.7954 34.3145C81.0591 34.5635 81.1909 34.8857 81.1909 35.2812L81.1909 35.9404C83.5054 34.2998 86.1934 33.4795 89.2549 33.4795C92.3164 33.4795 94.8726 34.5635 96.9233 36.7314C98.9741 38.8848 99.9995 41.9756 99.9995 46.0039C99.9995 50.0176 98.9375 53.0938 96.8135 55.2324C94.6895 57.3711 91.8257 58.4404 88.2222 58.4404C86.3618 58.4404 84.2451 58.0669 81.8721 57.3198L81.8721 64.0654C81.8721 64.4609 81.7402 64.7832 81.4766 65.0322C81.2275 65.2959 80.9126 65.4277 80.5317 65.4277L75.6099 65.4277C75.229 65.4277 74.9067 65.2959 74.6431 65.0322C74.394 64.7832 74.2695 64.4609 74.2695 64.0654ZM81.8721 52.2441C83.7617 52.8447 85.3511 53.145 86.6401 53.145C88.647 53.145 90.0679 52.5737 90.9028 51.4312C91.7524 50.2886 92.1772 48.4648 92.1772 45.96C92.1772 43.4551 91.7744 41.6387 90.9688 40.5107C90.1777 39.3682 88.9839 38.7969 87.3872 38.7969C85.8052 38.7969 83.9668 39.4561 81.8721 40.7744L81.8721 52.2441Z" fill="rgb(0,0,0)" fill-rule="nonzero" />
	<path id="Ex mini black (color) 07" d="M71.0845 57.0342C71.0845 57.6787 70.7036 58.001 69.9419 58.001L65.7891 58.001C64.3828 58.001 63.2622 57.3125 62.4272 55.9355L59.6367 51.3872C58.4355 49.439 56.6924 48.4648 54.4072 48.4648L54.4072 56.6606C54.4072 57.0562 54.2754 57.3784 54.0117 57.6274C53.7627 57.8765 53.4478 58.001 53.0669 58.001L48.145 58.001C47.7495 58.001 47.4272 57.8765 47.1782 57.6274C46.9292 57.3784 46.8047 57.0562 46.8047 56.6606L46.8047 35.2812C46.8047 34.8857 46.9292 34.5635 47.1782 34.3145C47.4419 34.0508 47.7642 33.9189 48.145 33.9189L53.0669 33.9189C53.4624 33.9189 53.7847 34.0508 54.0337 34.3145C54.2827 34.5635 54.4072 34.8857 54.4072 35.2812L54.4072 43.4551C56.9561 43.4551 58.6992 42.4663 59.6367 40.4888L61.7461 36.0063C62.0391 35.3765 62.4712 34.8711 63.0425 34.4902C63.6138 34.1094 64.229 33.9189 64.8882 33.9189L69.041 33.9189C69.7734 33.9189 70.1396 34.2046 70.1396 34.7759C70.1396 35.0981 70.0225 35.5083 69.7881 36.0063L66.9536 41.9829C66.4702 42.979 65.811 43.8359 64.9761 44.5537C64.1411 45.2715 63.2402 45.7329 62.2734 45.938C64.0752 46.48 65.6353 47.7983 66.9536 49.8931L70.689 55.9355C70.938 56.3604 71.0698 56.7266 71.0845 57.0342Z" fill="rgb(0,0,0)" fill-rule="nonzero" />
	<path id="Ex mini black (color) 07" d="M71.0845 57.0342C71.0845 57.6787 70.7036 58.001 69.9419 58.001L65.7891 58.001C64.3828 58.001 63.2622 57.3125 62.4272 55.9355L59.6367 51.3872C58.4355 49.439 56.6924 48.4648 54.4072 48.4648L54.4072 56.6606C54.4072 57.0562 54.2754 57.3784 54.0117 57.6274C53.7627 57.8765 53.4478 58.001 53.0669 58.001L48.145 58.001C47.7495 58.001 47.4272 57.8765 47.1782 57.6274C46.9292 57.3784 46.8047 57.0562 46.8047 56.6606L46.8047 35.2812C46.8047 34.8857 46.9292 34.5635 47.1782 34.3145C47.4419 34.0508 47.7642 33.9189 48.145 33.9189L53.0669 33.9189C53.4624 33.9189 53.7847 34.0508 54.0337 34.3145C54.2827 34.5635 54.4072 34.8857 54.4072 35.2812L54.4072 43.4551C56.9561 43.4551 58.6992 42.4663 59.6367 40.4888L61.7461 36.0063C62.0391 35.3765 62.4712 34.8711 63.0425 34.4902C63.6138 34.1094 64.229 33.9189 64.8882 33.9189L69.041 33.9189C69.7734 33.9189 70.1396 34.2046 70.1396 34.7759C70.1396 35.0981 70.0225 35.5083 69.7881 36.0063L66.9536 41.9829C66.4702 42.979 65.811 43.8359 64.9761 44.5537C64.1411 45.2715 63.2402 45.7329 62.2734 45.938C64.0752 46.48 65.6353 47.7983 66.9536 49.8931L70.689 55.9355C70.938 56.3604 71.0698 56.7266 71.0845 57.0342Z" fill="rgb(0,0,0)" fill-rule="nonzero" />
	<path id="Ex mini black (color) 07" d="M38.2114 54.749C35.2231 57.3711 30.8286 58.6821 25.0278 58.6821C19.2417 58.6821 14.8472 57.3711 11.8442 54.749C8.84131 52.1123 7.33984 47.9448 7.33984 42.2466C7.33984 36.5483 8.84131 32.3882 11.8442 29.7661C14.8472 27.144 19.2417 25.833 25.0278 25.833C30.8286 25.833 35.2231 27.144 38.2114 29.7661C41.2144 32.3882 42.7158 36.5483 42.7158 42.2466C42.7158 47.9448 41.2144 52.1123 38.2114 54.749ZM32.2129 34.4023C30.7334 32.6445 28.3384 31.7656 25.0278 31.7656C21.7319 31.7656 19.3369 32.6445 17.8428 34.4023C16.3633 36.1602 15.6235 38.7822 15.6235 42.2686C15.6235 45.7402 16.3633 48.355 17.8428 50.1128C19.3369 51.856 21.7319 52.7275 25.0278 52.7275C28.3384 52.7275 30.7334 51.856 32.2129 50.1128C33.6924 48.355 34.4321 45.7402 34.4321 42.2686C34.4321 38.7822 33.6924 36.1602 32.2129 34.4023Z" fill="rgb(0,0,0)" fill-rule="nonzero" />
	<path id="Ex mini black (color) 07" d="M38.2114 54.749C35.2231 57.3711 30.8286 58.6821 25.0278 58.6821C19.2417 58.6821 14.8472 57.3711 11.8442 54.749C8.84131 52.1123 7.33984 47.9448 7.33984 42.2466C7.33984 36.5483 8.84131 32.3882 11.8442 29.7661C14.8472 27.144 19.2417 25.833 25.0278 25.833C30.8286 25.833 35.2231 27.144 38.2114 29.7661C41.2144 32.3882 42.7158 36.5483 42.7158 42.2466C42.7158 47.9448 41.2144 52.1123 38.2114 54.749ZM32.2129 34.4023C30.7334 32.6445 28.3384 31.7656 25.0278 31.7656C21.7319 31.7656 19.3369 32.6445 17.8428 34.4023C16.3633 36.1602 15.6235 38.7822 15.6235 42.2686C15.6235 45.7402 16.3633 48.355 17.8428 50.1128C19.3369 51.856 21.7319 52.7275 25.0278 52.7275C28.3384 52.7275 30.7334 51.856 32.2129 50.1128C33.6924 48.355 34.4321 45.7402 34.4321 42.2686C34.4321 38.7822 33.6924 36.1602 32.2129 34.4023Z" fill="rgb(0,0,0)" fill-rule="nonzero" />
	<path id="Ex mini black (color) 07" d="M1.99973 14.6819L0.526579 11.781C-0.595237 9.57198 0.118629 6.812 2.25602 5.67273C20.7254 -4.17183 38.1704 0.737068 47.1443 5.87485C48.9946 6.93423 49.5103 9.23057 48.4692 11.1422C47.933 12.1266 47.2503 13.3663 46.3912 14.9085C45.1375 17.1592 42.3767 17.8996 40.1214 16.7761C29.1587 11.315 19.5645 11.3085 8.32315 16.7567C6.00579 17.8799 3.1939 17.0335 1.99973 14.6819Z" fill="rgb(0,0,0)" fill-rule="nonzero" />
	<path id="Ex mini black (color) 07" d="M1.99973 14.6819L0.526579 11.781C-0.595237 9.57198 0.118629 6.812 2.25602 5.67273C20.7254 -4.17183 38.1704 0.737068 47.1443 5.87485C48.9946 6.93423 49.5103 9.23057 48.4692 11.1422C47.933 12.1266 47.2503 13.3663 46.3912 14.9085C45.1375 17.1592 42.3767 17.8996 40.1214 16.7761C29.1587 11.315 19.5645 11.3085 8.32315 16.7567C6.00579 17.8799 3.1939 17.0335 1.99973 14.6819Z" fill="rgb(76,175,80)" fill-rule="nonzero" />
</svg>
