<svg viewBox="0 0 1049.2 139.354" xmlns="http://www.w3.org/2000/svg" xmlns:xlink="http://www.w3.org/1999/xlink" width="1049.204590" height="139.354492" fill="none" customFrame="#000000">
	<rect id="Ex max white 07" width="1049.204590" height="139.354492" x="0.000000" y="0.000000" fill="rgb(255,255,255)" fill-opacity="0" />
	<path id="Ex max white 07" d="M3.87703 28.0155L1.02092 22.4802C0.331835 21.1446 0 19.7036 0 18.2889C0 15.2382 1.5429 12.3097 4.37392 10.8245C40.1818 -7.96054 74.0038 1.40645 91.4021 11.2102C93.7599 12.5388 95 14.8869 95 17.3762C95 18.6743 94.6627 20.0108 93.9708 21.2611C92.9314 23.1395 91.6076 25.505 89.942 28.4479C87.5114 32.7426 82.1589 34.1553 77.7864 32.0115C56.5322 21.5908 37.9312 21.5785 16.1367 31.9746C11.6439 34.1177 6.19225 32.5026 3.87703 28.0155ZM734 45.3774Q734 44.192 734.591 43.544Q735.302 42.7627 736.872 42.7627L740.717 42.7627Q741.735 42.7627 742.517 43.1923Q743.665 43.8225 744.306 45.3774Q744.961 47.0052 746.146 48.0028Q748.022 49.5815 751.227 49.5815Q754.51 49.5815 756.386 47.9572Q757.528 46.9683 758.148 45.3774Q758.734 43.883 759.823 43.2427Q760.639 42.7627 761.737 42.7627L765.634 42.7627Q767.15 42.7627 767.851 43.5186Q768.454 44.1686 768.454 45.3774Q768.454 48.2082 767.392 50.5594Q766.203 53.1906 763.686 55.2212Q763.521 55.3541 763.353 55.4823L763.333 55.4969Q758.637 59.0664 751.227 59.0664Q743.99 59.0664 739.283 55.6151L739.227 55.5733Q738.994 55.4015 738.769 55.2212Q736.251 53.1906 735.062 50.5594Q734 48.2082 734 45.3774ZM78.1626 113.412Q67.7036 122.589 47.4009 122.589Q27.1494 122.589 16.6392 113.412Q16.1002 112.939 15.5888 112.437L15.5865 112.435Q6.12891 103.159 6.12891 84.2397Q6.12891 65.3229 15.5846 56.0924L15.5862 56.0908Q16.0988 55.5905 16.6392 55.1187Q27.1494 45.9414 47.4009 45.9414Q67.7036 45.9414 78.1626 55.1187Q78.702 55.5896 79.2137 56.089L79.2172 56.0924Q88.6729 65.3229 88.6729 84.2397Q88.6729 103.159 79.2152 112.435L79.2127 112.438Q78.7014 112.939 78.1626 113.412ZM64.166 65.9365Q63.8604 65.5734 63.5324 65.2317L63.5314 65.2306Q58.3028 59.7842 47.4009 59.7842Q36.5895 59.7842 31.3173 65.1882Q30.9641 65.5502 30.6357 65.9365Q25.4575 72.0889 25.4575 84.291Q25.4575 96.4419 30.6357 102.594Q30.9238 102.93 31.231 103.248L31.2316 103.248Q36.5013 108.695 47.4009 108.695Q58.3903 108.695 63.6149 103.207Q63.899 102.909 64.166 102.594Q69.3442 96.4419 69.3442 84.291Q69.3442 72.0889 64.166 65.9365ZM162.293 135.15L162.293 67.9873Q162.293 67.0265 162.713 66.3127Q162.898 65.998 163.165 65.7314Q163.593 65.3033 164.109 65.0738Q164.706 64.8086 165.42 64.8086L175.315 64.8086Q176.086 64.8086 176.702 65.1167Q177.152 65.3419 177.52 65.7314Q177.855 66.048 178.069 66.4322Q178.443 67.1058 178.443 67.9873L178.443 69.5254Q180.842 67.8246 183.471 66.6275Q189.717 63.7832 197.259 63.7832Q203.054 63.7832 207.814 66.0026Q211.856 67.8869 215.152 71.3711Q215.308 71.5353 215.461 71.7026Q222.33 79.2149 222.33 93.0068Q222.33 106.177 215.795 113.579L215.794 113.581Q215.359 114.073 214.896 114.54Q213.322 116.124 211.517 117.373L211.516 117.373Q204.792 122.025 194.849 122.025Q188.338 122.025 180.032 119.411L180.032 135.15Q180.032 136.032 179.658 136.705Q179.445 137.09 179.109 137.406Q178.741 137.796 178.291 138.021Q177.675 138.329 176.905 138.329L165.42 138.329Q164.706 138.329 164.109 138.064Q163.593 137.834 163.165 137.406Q162.898 137.14 162.713 136.825Q162.293 136.111 162.293 135.15ZM391.674 117.309Q388.631 115.188 386.956 112.279Q384.906 108.719 384.906 103.979Q384.906 99.1772 387.009 95.6186Q388.679 92.7931 391.674 90.751Q398.493 86.1367 409.208 86.1367L426.178 86.1367Q426.178 80.1382 423.666 77.7798Q421.154 75.4214 414.848 75.4214Q408.678 75.4214 406.1 78.4644Q406.073 78.4962 406.046 78.5284L406.029 78.5488Q404.525 80.3912 402.597 81.1302Q401.306 81.625 399.826 81.625L392.187 81.625Q391.277 81.625 390.567 81.2491Q390.196 81.0526 389.879 80.7534Q389.521 80.3744 389.31 79.9261Q389.008 79.283 389.008 78.4976Q389.008 75.303 390.325 72.802Q395.074 63.7832 416.95 63.7832Q429.152 63.7832 436.535 69.269Q438.322 70.5847 439.677 72.2519Q443.917 77.4715 443.917 86.1367L443.917 117.873Q443.917 118.833 443.498 119.547Q443.312 119.862 443.046 120.128Q442.779 120.395 442.465 120.58Q441.751 121 440.79 121L430.895 121Q429.934 121 429.22 120.58Q428.906 120.395 428.639 120.128Q428.281 119.749 428.07 119.301Q427.768 118.658 427.768 117.873L427.768 116.283Q425.063 118.217 422.079 119.5Q416.124 122.06 409.054 122.025Q398.493 122.025 391.674 117.309ZM456.582 117.873L456.582 67.9873Q456.582 67.0265 457.002 66.3127Q457.187 65.998 457.454 65.7314Q457.882 65.3033 458.398 65.0738Q458.995 64.8086 459.709 64.8086L471.194 64.8086Q471.964 64.8086 472.58 65.1167Q473.03 65.3418 473.398 65.7314Q473.734 66.0479 473.947 66.4322Q474.321 67.1058 474.321 67.9873L474.321 86.3418L481.858 86.3418Q482.859 78.3681 487.187 73.1576Q488.843 71.165 490.984 69.5767Q498.777 63.7832 511.851 63.7832Q522.571 63.7832 529.775 68.8162L529.777 68.8177Q531.357 69.922 532.769 71.2686Q533.614 72.0641 534.368 72.9378Q540.664 80.2279 540.664 92.9556Q540.664 105.578 534.427 112.854Q533.647 113.764 532.769 114.591Q531.509 115.785 530.112 116.787Q522.808 122.025 511.748 122.025Q498.572 122.025 490.779 116.078Q488.79 114.537 487.227 112.644L487.227 112.644Q482.708 107.168 481.755 98.749L474.321 98.749L474.321 117.873Q474.321 118.587 474.056 119.184Q473.827 119.7 473.398 120.128Q473.078 120.449 472.695 120.651Q472.037 121 471.194 121L459.709 121Q458.924 121 458.281 120.697Q457.833 120.486 457.454 120.128Q457.096 119.749 456.885 119.301Q456.582 118.658 456.582 117.873ZM989.168 135.15L989.168 67.9873Q989.168 67.0265 989.588 66.3127L989.588 66.3117Q989.773 65.9977 990.04 65.7314Q990.467 65.3036 990.984 65.0738Q991.581 64.8086 992.295 64.8086L1002.19 64.8086Q1002.96 64.8086 1003.58 65.1167Q1004.03 65.3419 1004.4 65.7314Q1004.73 66.048 1004.94 66.4322Q1005.32 67.1058 1005.32 67.9873L1005.32 69.5254Q1007.72 67.8248 1010.35 66.6279L1010.35 66.6275Q1016.59 63.7832 1024.13 63.7832Q1029.93 63.7832 1034.69 66.0026Q1038.73 67.8869 1042.03 71.3711Q1042.18 71.5353 1042.34 71.7026Q1049.2 79.215 1049.2 93.0068Q1049.2 106.177 1042.67 113.579Q1042.23 114.072 1041.77 114.54Q1040.2 116.123 1038.39 117.372L1038.39 117.373Q1031.67 122.025 1021.72 122.025Q1015.21 122.025 1006.91 119.411L1006.91 135.15Q1006.91 136.032 1006.53 136.705Q1006.32 137.09 1005.98 137.406Q1005.62 137.796 1005.17 138.021Q1004.55 138.329 1003.78 138.329L992.295 138.329Q991.581 138.329 990.984 138.064Q990.467 137.834 990.04 137.406Q989.773 137.14 989.588 136.825Q989.168 136.111 989.168 135.15ZM154.86 118.744Q154.86 119.685 154.396 120.234Q153.747 121 152.194 121L142.504 121Q140.725 121 139.207 120.37Q136.526 119.258 134.66 116.181L128.148 105.568Q126.039 102.147 122.976 100.442Q119.932 98.749 115.946 98.749L115.946 117.873Q115.946 118.754 115.572 119.428Q115.359 119.812 115.023 120.128Q114.703 120.449 114.32 120.651Q113.662 121 112.819 121L101.334 121Q100.374 121 99.6599 120.58L99.6596 120.58Q99.3451 120.395 99.0786 120.128Q98.8121 119.862 98.6271 119.547L98.6269 119.547Q98.207 118.833 98.207 117.873L98.207 67.9873Q98.207 67.0265 98.6269 66.3127L98.6271 66.3124Q98.8121 65.9979 99.0786 65.7314Q99.5067 65.3034 100.023 65.0738Q100.62 64.8086 101.334 64.8086L112.819 64.8086Q113.7 64.8086 114.374 65.1828Q114.758 65.3963 115.075 65.7314Q115.341 65.9979 115.526 66.3124L115.526 66.3127Q115.946 67.0265 115.946 67.9873L115.946 87.0596Q121.577 87.0596 124.961 84.3023Q126.938 82.691 128.148 80.1382L133.07 69.6792Q133.624 68.4888 134.462 67.5524L134.462 67.5522Q135.176 66.7547 136.095 66.1416Q137.336 65.3141 138.696 65.0003Q139.527 64.8086 140.402 64.8086L150.092 64.8086Q151.686 64.8086 152.288 65.5815Q152.655 66.0518 152.655 66.8081Q152.655 67.936 151.835 69.6792L145.221 83.6245Q144.318 85.4849 143.065 87.0679L143.065 87.0686Q141.97 88.4517 140.607 89.623Q137.917 91.9352 134.837 92.7273L134.826 92.7301Q134.565 92.797 134.301 92.853Q134.371 92.8741 134.441 92.8959Q140.658 94.8315 145.221 102.082L153.937 116.181Q154.809 117.667 154.86 118.744ZM241.711 126.332L248.427 127.204Q250.157 127.204 251.638 126.596Q256.343 124.663 258.527 116.591Q252.399 116.591 247.69 114.006Q245.702 112.914 243.967 111.361Q238.122 106.081 233.918 92.6479L226.279 67.8848Q226.125 67.4746 226.125 66.9619Q226.125 66.3979 226.74 65.6289Q226.846 65.5073 226.966 65.4037L226.967 65.4027Q227.61 64.8517 228.688 64.8086L239.404 64.8086Q239.72 64.8086 240.029 64.855Q241.174 65.0267 242.224 65.834Q243.194 66.5165 243.685 67.4507Q243.895 67.8498 244.018 68.2949L250.734 90.0332Q253.247 98.0312 255.81 101.107Q257.597 103.21 259.815 103.875Q260.843 104.184 261.962 104.184L272.165 68.2949Q272.38 67.5172 272.805 66.8798Q273.192 66.2985 273.754 65.834Q274.565 65.1584 275.487 64.9279Q275.964 64.8086 276.472 64.8086L287.29 64.8086Q288.27 64.8086 288.86 65.2883Q289.042 65.4359 289.187 65.6289Q289.802 66.4492 289.802 67.0132Q289.802 67.5259 289.699 67.8848L276.267 115.771Q272.678 128.485 267.346 133.92Q265.546 135.772 263.389 136.993Q259.217 139.354 253.708 139.354Q245.351 139.354 241.865 138.739Q238.43 138.124 237.558 137.201Q237.057 136.7 236.844 136.096Q236.687 135.651 236.687 135.15L236.687 129.511Q236.687 128.602 237.062 127.892Q237.259 127.52 237.558 127.204Q237.825 126.937 238.139 126.752Q238.853 126.332 239.814 126.332L241.711 126.332ZM292.213 119.616Q292.008 119.206 292.008 118.437Q292.008 117.616 292.828 116.181L300.467 102.082Q303.738 95.9905 308.736 93.7457Q310.006 93.1751 311.388 92.853Q308.866 92.2478 306.763 90.959Q305.66 90.2826 304.671 89.418Q302.038 87.024 300.657 84.0486Q300.559 83.838 300.467 83.6245L294.93 69.6792Q294.315 67.9873 294.212 66.9106Q294.212 66.045 294.638 65.5358Q295.247 64.8086 296.725 64.8086L306.363 64.8086Q307.949 64.8086 309.331 65.3401Q310.138 65.6503 310.875 66.1416Q311.987 66.883 312.735 67.8942L312.735 67.8946Q313.331 68.7011 313.695 69.6792L317.591 80.1382Q318.875 83.5367 321.333 85.2664Q323.881 87.0596 327.691 87.0596L327.691 67.9873Q327.691 67.0265 328.111 66.3127Q328.296 65.998 328.563 65.7314Q328.991 65.3033 329.508 65.0738Q330.104 64.8086 330.819 64.8086L342.303 64.8086Q343.073 64.8086 343.69 65.1167Q344.14 65.3418 344.508 65.7314Q344.843 66.0479 345.056 66.4322Q345.431 67.1058 345.431 67.9873L345.431 87.0596Q349.161 87.0596 351.691 85.3168Q354.203 83.5865 355.531 80.1382L359.376 69.6792Q359.779 68.661 360.422 67.8288Q361.171 66.8589 362.247 66.1416Q362.984 65.6503 363.791 65.3401Q365.173 64.8086 366.759 64.8086L376.397 64.8086Q377.766 64.8086 378.357 65.4865Q378.807 66.0023 378.807 66.9106Q378.807 67.9873 378.192 69.6792L372.604 83.6245Q372.555 83.7423 372.504 83.8593Q371.166 86.948 368.399 89.418Q367.667 90.0702 366.863 90.6153Q364.568 92.1698 361.683 92.853Q363.188 93.2011 364.557 93.8394Q369.44 96.1154 372.604 102.082L380.294 116.181Q381.114 117.616 381.114 118.437Q381.114 119.206 380.909 119.616Q380.792 120.01 380.547 120.292Q379.93 121 378.5 121L368.861 121Q366.217 121 364.265 119.837Q362.244 118.633 360.965 116.181L355.531 105.568Q353.326 101.255 349.87 99.6701Q347.861 98.749 345.431 98.749L345.431 117.873Q345.431 118.587 345.165 119.184Q344.936 119.7 344.508 120.128Q344.187 120.449 343.805 120.651Q343.146 121 342.303 121L330.819 121Q330.033 121 329.39 120.697Q328.942 120.486 328.563 120.128Q328.205 119.749 327.994 119.301Q327.691 118.658 327.691 117.873L327.691 98.749Q325.261 98.749 323.252 99.6701Q319.796 101.255 317.591 105.568L312.157 116.181Q310.878 118.633 308.857 119.837Q306.905 121 304.261 121L294.623 121Q293.192 121 292.575 120.292Q292.33 120.01 292.213 119.616ZM550.199 117.873L550.199 67.9873Q550.199 67.0265 550.619 66.3127L550.62 66.3117Q550.805 65.9977 551.071 65.7314Q551.499 65.3036 552.015 65.0738Q552.612 64.8086 553.327 64.8086L564.811 64.8086Q565.692 64.8086 566.366 65.1828Q566.75 65.3963 567.067 65.7314Q567.333 65.9977 567.518 66.3117L567.519 66.3127Q567.938 67.0265 567.938 67.9873L567.938 108.593L583.986 108.593L583.986 67.9873Q583.986 67.0265 584.406 66.3127L584.406 66.3117Q584.591 65.9977 584.857 65.7314Q585.226 65.3625 585.67 65.1408Q586.334 64.8086 587.165 64.8086L598.598 64.8086Q599.479 64.8086 600.153 65.1828Q600.537 65.3963 600.854 65.7314Q601.12 65.9977 601.305 66.3117L601.305 66.3127Q601.725 67.0265 601.725 67.9873L601.725 108.593L617.824 108.593L617.824 67.9873Q617.824 67.0265 618.244 66.3127L618.244 66.3117Q618.429 65.9977 618.695 65.7314Q619.123 65.3036 619.64 65.0738Q620.237 64.8086 620.951 64.8086L632.384 64.8086Q633.266 64.8086 633.939 65.1828Q634.324 65.3963 634.64 65.7314Q634.975 66.048 635.189 66.4322Q635.563 67.1058 635.563 67.9873L635.563 108.593L640.587 108.593Q641.469 108.593 642.143 108.967Q642.527 109.18 642.843 109.516Q643.178 109.832 643.392 110.216Q643.766 110.89 643.766 111.771L643.766 117.873Q643.766 118.754 643.392 119.428Q643.178 119.812 642.843 120.128Q642.577 120.394 642.263 120.579L642.262 120.58Q641.548 121 640.587 121L553.327 121Q552.366 121 551.652 120.58L551.651 120.579Q551.337 120.394 551.071 120.128Q550.805 119.862 550.62 119.548L550.619 119.547Q550.199 118.833 550.199 117.873ZM651.098 117.873L651.098 67.9873Q651.098 67.0265 651.518 66.3127L651.518 66.3117Q651.703 65.9977 651.969 65.7314Q652.397 65.3036 652.914 65.0738Q653.511 64.8086 654.225 64.8086L664.94 64.8086Q665.822 64.8086 666.496 65.1828Q666.88 65.3963 667.196 65.7314Q667.531 66.048 667.745 66.4322Q668.119 67.1058 668.119 67.9873L668.119 101.671L686.166 68.5Q686.304 68.2325 686.467 67.981Q687.271 66.7381 688.678 65.8853Q690.37 64.8086 691.959 64.8086L706.315 64.8086Q707.196 64.8086 707.87 65.1828Q708.254 65.3963 708.571 65.7314Q708.906 66.048 709.119 66.4322Q709.494 67.1058 709.494 67.9873L709.494 117.873Q709.494 118.754 709.119 119.428Q708.906 119.812 708.571 120.128Q708.305 120.394 707.991 120.579L707.99 120.58Q707.276 121 706.315 121L695.6 121Q694.639 121 693.925 120.58L693.924 120.579Q693.61 120.394 693.344 120.128Q692.986 119.749 692.775 119.301Q692.472 118.658 692.472 117.873L692.472 84.2397L674.425 117.309Q673.605 118.795 671.913 119.923Q670.221 121 668.632 121L654.225 121Q653.264 121 652.55 120.58L652.549 120.579Q652.235 120.394 651.969 120.128Q651.703 119.862 651.518 119.548L651.518 119.547Q651.098 118.833 651.098 117.873ZM722.055 117.873L722.055 67.9873Q722.055 67.0265 722.475 66.3127L722.475 66.3117Q722.66 65.9977 722.926 65.7314Q723.354 65.3036 723.871 65.0738Q724.468 64.8086 725.182 64.8086L735.897 64.8086Q736.779 64.8086 737.453 65.1828Q737.837 65.3963 738.153 65.7314Q738.489 66.048 738.702 66.4322Q739.076 67.1058 739.076 67.9873L739.076 101.671L757.123 68.5Q757.261 68.2325 757.424 67.981Q758.228 66.7381 759.635 65.8853Q761.327 64.8086 762.917 64.8086L777.272 64.8086Q778.153 64.8086 778.827 65.1828Q779.211 65.3963 779.528 65.7314Q779.863 66.048 780.076 66.4322Q780.451 67.1058 780.451 67.9873L780.451 117.873Q780.451 118.754 780.076 119.428Q779.863 119.812 779.528 120.128Q779.262 120.394 778.948 120.579L778.947 120.58Q778.233 121 777.272 121L766.557 121Q765.596 121 764.882 120.58L764.881 120.579Q764.567 120.394 764.301 120.128Q763.943 119.749 763.732 119.301Q763.429 118.658 763.429 117.873L763.429 84.2397L745.382 117.309Q744.562 118.795 742.87 119.923Q741.178 121 739.589 121L725.182 121Q724.221 121 723.508 120.58L723.506 120.579Q723.192 120.394 722.926 120.128Q722.66 119.862 722.475 119.548L722.475 119.547Q722.055 118.833 722.055 117.873ZM829.824 117.873L829.824 67.9873Q829.824 67.0265 830.244 66.3127L830.245 66.3117Q830.43 65.9977 830.696 65.7314Q831.124 65.3036 831.64 65.0738Q832.237 64.8086 832.952 64.8086L850.588 64.8086Q851.387 64.8086 852.085 65.0728Q854.033 65.8098 855.203 68.6025L867.712 99.1592L880.222 68.6025Q881.392 65.8098 883.34 65.0728Q884.038 64.8086 884.836 64.8086L902.473 64.8086Q903.354 64.8086 904.028 65.1828Q904.412 65.3963 904.729 65.7314Q905.064 66.048 905.278 66.4322Q905.652 67.1058 905.652 67.9873L905.652 117.873Q905.652 118.754 905.278 119.428Q905.064 119.812 904.729 120.128Q904.463 120.394 904.149 120.579L904.148 120.58Q903.434 121 902.473 121L891.348 121Q890.387 121 889.673 120.58L889.672 120.579Q889.358 120.394 889.092 120.128Q888.734 119.749 888.523 119.301Q888.22 118.658 888.22 117.873L888.22 85.8291L875.095 117.411Q874.066 119.734 872.328 120.554Q871.382 121 870.225 121L865.2 121Q864.101 121 863.192 120.584Q861.429 119.779 860.381 117.411L847.256 85.8291L847.256 117.873Q847.256 118.754 846.882 119.428Q846.668 119.812 846.333 120.128Q846.067 120.394 845.753 120.579L845.752 120.58Q845.038 121 844.077 121L832.952 121Q831.991 121 831.277 120.58L831.276 120.579Q830.962 120.394 830.696 120.128Q830.43 119.862 830.245 119.548L830.244 119.547Q829.824 118.833 829.824 117.873ZM918.211 117.873L918.211 67.9873Q918.211 67.0265 918.631 66.3127L918.631 66.3117Q918.816 65.9977 919.083 65.7314Q919.51 65.3036 920.027 65.0738Q920.624 64.8086 921.338 64.8086L932.054 64.8086Q932.935 64.8086 933.609 65.1828Q933.993 65.3963 934.31 65.7314Q934.645 66.048 934.858 66.4322Q935.232 67.1058 935.232 67.9873L935.232 101.671L953.279 68.5Q953.417 68.2325 953.58 67.981Q954.384 66.7381 955.792 65.8853Q957.483 64.8086 959.073 64.8086L973.428 64.8086Q974.31 64.8086 974.983 65.1828Q975.367 65.3963 975.684 65.7314Q976.019 66.048 976.233 66.4322Q976.607 67.1058 976.607 67.9873L976.607 117.873Q976.607 118.754 976.233 119.428Q976.019 119.812 975.684 120.128Q975.418 120.394 975.104 120.579L975.103 120.58Q974.389 121 973.428 121L962.713 121Q961.752 121 961.038 120.58L961.037 120.579Q960.723 120.394 960.457 120.128Q960.099 119.749 959.888 119.301Q959.585 118.658 959.585 117.873L959.585 84.2397L941.539 117.309Q940.718 118.795 939.026 119.923Q937.334 121 935.745 121L921.338 121Q920.378 121 919.664 120.58L919.662 120.579Q919.349 120.394 919.083 120.128Q918.816 119.862 918.631 119.548L918.631 119.547Q918.211 118.833 918.211 117.873ZM522.925 92.9043Q522.925 80.9533 517.367 77.1718Q514.794 75.4214 511.03 75.4214Q507.305 75.4214 504.751 77.1512Q499.187 80.9207 499.187 92.9043Q499.187 104.888 504.751 108.657Q507.305 110.387 511.03 110.387Q514.794 110.387 517.367 108.637Q522.925 104.855 522.925 92.9043ZM180.032 107.567Q186.646 109.669 191.158 109.669Q197.324 109.669 200.329 106.587L200.33 106.587Q200.748 106.158 201.104 105.67Q204.078 101.671 204.078 92.9043Q204.078 84.1372 201.258 80.1895Q200.311 78.8223 199.035 77.9226Q196.579 76.1904 192.901 76.1904Q187.364 76.1904 180.032 80.8047L180.032 107.567ZM1006.91 107.567Q1013.52 109.669 1018.03 109.669Q1024.2 109.669 1027.2 106.587Q1027.62 106.159 1027.98 105.67Q1030.95 101.671 1030.95 92.9043Q1030.95 84.1372 1028.13 80.1895Q1027.19 78.8226 1025.91 77.9226Q1023.45 76.1904 1019.78 76.1904Q1014.24 76.1904 1006.91 80.8047L1006.91 107.567ZM410.438 97.7749Q406.85 97.7749 404.748 99.5181Q403.804 100.32 403.295 101.339Q402.697 102.535 402.697 104.03Q402.697 105.367 403.199 106.476Q403.736 107.665 404.85 108.593Q407.003 110.387 410.951 110.387Q412.577 110.387 414.178 110.192L414.181 110.191Q420.357 109.436 426.178 105.773L426.178 97.7749L410.438 97.7749Z" fill="rgb(255,255,255)" fill-rule="evenodd" />
</svg>
