<svg viewBox="0 0 212.344 65.4277" xmlns="http://www.w3.org/2000/svg" xmlns:xlink="http://www.w3.org/1999/xlink" width="212.343750" height="65.427734" fill="none" customFrame="#000000">
	<rect id="Ex mini black (color) 05" width="212.345703" height="65.427734" x="0.000000" y="0.000000" fill="rgb(255,255,255)" fill-opacity="0" />
	<path id="Ex mini black (color) 05" d="M188.242 41.6753C188.242 36.519 191.508 33.9336 198.042 33.9189L211.005 33.9189C211.401 33.9189 211.723 34.0508 211.972 34.3145C212.221 34.5635 212.346 34.8857 212.346 35.2812L212.346 56.6606C212.346 57.0562 212.221 57.3784 211.972 57.6274C211.723 57.8765 211.401 58.001 211.005 58.001L206.105 58.001C205.71 58.001 205.38 57.8765 205.117 57.6274C204.868 57.3638 204.743 57.0415 204.743 56.6606L204.743 49.4097L200.437 49.4097L196.701 56.0674C195.983 57.3564 194.841 58.001 193.273 58.001L189.318 58.001C188.776 58.001 188.425 57.8032 188.264 57.4077C188.205 57.2759 188.176 57.1074 188.176 56.9023C188.176 56.6826 188.286 56.4043 188.505 56.0674L192.922 48.6846C189.802 47.5273 188.242 45.1909 188.242 41.6753ZM196.613 39.6758C196.101 40.1592 195.844 40.8257 195.844 41.6753C195.844 42.5103 196.093 43.1768 196.591 43.6748C197.104 44.1729 197.814 44.4219 198.723 44.4219L204.743 44.4219L204.743 38.9287L198.723 38.9287C197.829 38.9287 197.126 39.1777 196.613 39.6758Z" fill="rgb(0,0,0)" fill-rule="nonzero" />
	<path id="Ex mini black (color) 05" d="M158.906 56.6606L158.906 35.2812C158.906 34.8857 159.031 34.5635 159.28 34.3145C159.543 34.0508 159.866 33.9189 160.247 33.9189L164.839 33.9189C165.234 33.9189 165.557 34.0508 165.806 34.3145C166.069 34.5635 166.201 34.8857 166.201 35.2812L166.201 49.7173L173.936 35.501C174.17 35.0469 174.529 34.6733 175.012 34.3804C175.496 34.0728 175.964 33.9189 176.418 33.9189L182.571 33.9189C182.966 33.9189 183.289 34.0508 183.538 34.3145C183.801 34.5635 183.933 34.8857 183.933 35.2812L183.933 56.6606C183.933 57.0562 183.801 57.3784 183.538 57.6274C183.289 57.8765 182.966 58.001 182.571 58.001L177.979 58.001C177.583 58.001 177.261 57.8765 177.012 57.6274C176.763 57.3638 176.638 57.0415 176.638 56.6606L176.638 42.2466L168.904 56.4189C168.669 56.8438 168.311 57.2173 167.827 57.5396C167.344 57.8472 166.875 58.001 166.421 58.001L160.247 58.001C159.851 58.001 159.529 57.8765 159.28 57.6274C159.031 57.3784 158.906 57.0562 158.906 56.6606Z" fill="rgb(0,0,0)" fill-rule="nonzero" />
	<path id="Ex mini black (color) 05" d="M158.906 56.6606L158.906 35.2812C158.906 34.8857 159.031 34.5635 159.28 34.3145C159.543 34.0508 159.866 33.9189 160.247 33.9189L164.839 33.9189C165.234 33.9189 165.557 34.0508 165.806 34.3145C166.069 34.5635 166.201 34.8857 166.201 35.2812L166.201 49.7173L173.936 35.501C174.17 35.0469 174.529 34.6733 175.012 34.3804C175.496 34.0728 175.964 33.9189 176.418 33.9189L182.571 33.9189C182.966 33.9189 183.289 34.0508 183.538 34.3145C183.801 34.5635 183.933 34.8857 183.933 35.2812L183.933 56.6606C183.933 57.0562 183.801 57.3784 183.538 57.6274C183.289 57.8765 182.966 58.001 182.571 58.001L177.979 58.001C177.583 58.001 177.261 57.8765 177.012 57.6274C176.763 57.3638 176.638 57.0415 176.638 56.6606L176.638 42.2466L168.904 56.4189C168.669 56.8438 168.311 57.2173 167.827 57.5396C167.344 57.8472 166.875 58.001 166.421 58.001L160.247 58.001C159.851 58.001 159.529 57.8765 159.28 57.6274C159.031 57.3784 158.906 57.0562 158.906 56.6606Z" fill="rgb(0,0,0)" fill-rule="nonzero" />
	<path id="Ex mini black (color) 05" d="M129.113 64.0654L129.113 35.2812C129.113 34.8857 129.238 34.5635 129.487 34.3145C129.75 34.0508 130.073 33.9189 130.454 33.9189L134.694 33.9189C135.075 33.9189 135.39 34.0508 135.639 34.3145C135.903 34.5635 136.035 34.8857 136.035 35.2812L136.035 35.9404C138.349 34.2998 141.037 33.4795 144.099 33.4795C147.16 33.4795 149.716 34.5635 151.767 36.7314C153.818 38.8848 154.843 41.9756 154.843 46.0039C154.843 50.0176 153.781 53.0938 151.657 55.2324C149.533 57.3711 146.669 58.4404 143.066 58.4404C141.206 58.4404 139.089 58.0669 136.716 57.3198L136.716 64.0654C136.716 64.4609 136.584 64.7832 136.32 65.0322C136.071 65.2959 135.756 65.4277 135.375 65.4277L130.454 65.4277C130.073 65.4277 129.75 65.2959 129.487 65.0322C129.238 64.7832 129.113 64.4609 129.113 64.0654ZM136.716 52.2441C138.605 52.8447 140.195 53.145 141.484 53.145C143.491 53.145 144.912 52.5737 145.747 51.4312C146.596 50.2886 147.021 48.4648 147.021 45.96C147.021 43.4551 146.618 41.6387 145.812 40.5107C145.021 39.3682 143.828 38.7969 142.231 38.7969C140.649 38.7969 138.811 39.4561 136.716 40.7744L136.716 52.2441Z" fill="rgb(0,0,0)" fill-rule="nonzero" />
	<path id="Ex mini black (color) 05" d="M129.113 64.0654L129.113 35.2812C129.113 34.8857 129.238 34.5635 129.487 34.3145C129.75 34.0508 130.073 33.9189 130.454 33.9189L134.694 33.9189C135.075 33.9189 135.39 34.0508 135.639 34.3145C135.903 34.5635 136.035 34.8857 136.035 35.2812L136.035 35.9404C138.349 34.2998 141.037 33.4795 144.099 33.4795C147.16 33.4795 149.716 34.5635 151.767 36.7314C153.818 38.8848 154.843 41.9756 154.843 46.0039C154.843 50.0176 153.781 53.0938 151.657 55.2324C149.533 57.3711 146.669 58.4404 143.066 58.4404C141.206 58.4404 139.089 58.0669 136.716 57.3198L136.716 64.0654C136.716 64.4609 136.584 64.7832 136.32 65.0322C136.071 65.2959 135.756 65.4277 135.375 65.4277L130.454 65.4277C130.073 65.4277 129.75 65.2959 129.487 65.0322C129.238 64.7832 129.113 64.4609 129.113 64.0654ZM136.716 52.2441C138.605 52.8447 140.195 53.145 141.484 53.145C143.491 53.145 144.912 52.5737 145.747 51.4312C146.596 50.2886 147.021 48.4648 147.021 45.96C147.021 43.4551 146.618 41.6387 145.812 40.5107C145.021 39.3682 143.828 38.7969 142.231 38.7969C140.649 38.7969 138.811 39.4561 136.716 40.7744L136.716 52.2441Z" fill="rgb(0,0,0)" fill-rule="nonzero" />
	<path id="Ex mini black (color) 05" d="M101.912 55.2764C99.627 53.167 98.4844 50.0615 98.4844 45.96C98.4844 41.8438 99.627 38.7383 101.912 36.6436C104.197 34.5342 107.479 33.4795 111.756 33.4795C116.048 33.4795 119.336 34.5342 121.622 36.6436C123.907 38.7383 125.049 41.8438 125.049 45.96C125.049 50.0615 123.907 53.167 121.622 55.2764C119.336 57.3857 116.048 58.4404 111.756 58.4404C107.479 58.4404 104.197 57.3857 101.912 55.2764ZM107.471 40.2471C106.563 41.4336 106.109 43.3306 106.109 45.938C106.109 48.5454 106.563 50.4497 107.471 51.6509C108.379 52.8521 109.808 53.4526 111.756 53.4526C113.719 53.4526 115.154 52.8521 116.062 51.6509C116.985 50.4497 117.447 48.5454 117.447 45.938C117.447 43.3306 116.985 41.4336 116.062 40.2471C115.154 39.0605 113.719 38.4673 111.756 38.4673C109.808 38.4673 108.379 39.0605 107.471 40.2471Z" fill="rgb(0,0,0)" fill-rule="nonzero" />
	<path id="Ex mini black (color) 05" d="M101.912 55.2764C99.627 53.167 98.4844 50.0615 98.4844 45.96C98.4844 41.8438 99.627 38.7383 101.912 36.6436C104.197 34.5342 107.479 33.4795 111.756 33.4795C116.048 33.4795 119.336 34.5342 121.622 36.6436C123.907 38.7383 125.049 41.8438 125.049 45.96C125.049 50.0615 123.907 53.167 121.622 55.2764C119.336 57.3857 116.048 58.4404 111.756 58.4404C107.479 58.4404 104.197 57.3857 101.912 55.2764ZM107.471 40.2471C106.563 41.4336 106.109 43.3306 106.109 45.938C106.109 48.5454 106.563 50.4497 107.471 51.6509C108.379 52.8521 109.808 53.4526 111.756 53.4526C113.719 53.4526 115.154 52.8521 116.062 51.6509C116.985 50.4497 117.447 48.5454 117.447 45.938C117.447 43.3306 116.985 41.4336 116.062 40.2471C115.154 39.0605 113.719 38.4673 111.756 38.4673C109.808 38.4673 108.379 39.0605 107.471 40.2471Z" fill="rgb(0,0,0)" fill-rule="nonzero" />
	<path id="Ex mini black (color) 05" d="M72.7539 37.896L72.7539 35.2812C72.7539 34.8857 72.8784 34.5635 73.1274 34.3145C73.3911 34.0508 73.7207 33.9189 74.1162 33.9189L95.7593 33.9189C96.1548 33.9189 96.4771 34.0508 96.7261 34.3145C96.9751 34.5635 97.0996 34.8857 97.0996 35.2812L97.0996 37.896C97.0996 38.2769 96.9751 38.5991 96.7261 38.8628C96.4771 39.1118 96.1548 39.2363 95.7593 39.2363L88.75 39.2363L88.75 56.6606C88.75 57.0415 88.6182 57.3638 88.3545 57.6274C88.1055 57.8765 87.7832 58.001 87.3877 58.001L82.4878 58.001C82.0923 58.001 81.7627 57.8765 81.499 57.6274C81.25 57.3638 81.1255 57.0415 81.1255 56.6606L81.1255 39.2363L74.1162 39.2363C73.7207 39.2363 73.3911 39.1118 73.1274 38.8628C72.8784 38.5991 72.7539 38.2769 72.7539 37.896Z" fill="rgb(0,0,0)" fill-rule="nonzero" />
	<path id="Ex mini black (color) 05" d="M72.7539 37.896L72.7539 35.2812C72.7539 34.8857 72.8784 34.5635 73.1274 34.3145C73.3911 34.0508 73.7207 33.9189 74.1162 33.9189L95.7593 33.9189C96.1548 33.9189 96.4771 34.0508 96.7261 34.3145C96.9751 34.5635 97.0996 34.8857 97.0996 35.2812L97.0996 37.896C97.0996 38.2769 96.9751 38.5991 96.7261 38.8628C96.4771 39.1118 96.1548 39.2363 95.7593 39.2363L88.75 39.2363L88.75 56.6606C88.75 57.0415 88.6182 57.3638 88.3545 57.6274C88.1055 57.8765 87.7832 58.001 87.3877 58.001L82.4878 58.001C82.0923 58.001 81.7627 57.8765 81.499 57.6274C81.25 57.3638 81.1255 57.0415 81.1255 56.6606L81.1255 39.2363L74.1162 39.2363C73.7207 39.2363 73.3911 39.1118 73.1274 38.8628C72.8784 38.5991 72.7539 38.2769 72.7539 37.896Z" fill="rgb(0,0,0)" fill-rule="nonzero" />
	<path id="Ex mini black (color) 05" d="M58.7109 58.4404C54.6094 58.4404 51.416 57.3857 49.1309 55.2764C46.8457 53.167 45.7031 50.0688 45.7031 45.9819C45.7031 41.8804 46.8384 38.7749 49.1089 36.6655C51.3794 34.5415 54.5361 33.4795 58.5791 33.4795C62.6367 33.4795 65.7495 34.124 67.9175 35.4131C70.1001 36.7021 71.1914 38.6064 71.1914 41.126C71.1914 41.5215 71.0596 41.8438 70.7959 42.0928C70.5469 42.3418 70.2246 42.4663 69.8291 42.4663L66.5552 42.4663C65.5591 42.4663 64.7168 41.9316 64.0283 40.8623C63.1641 39.4854 61.6333 38.7969 59.436 38.7969C57.2534 38.7969 55.7227 39.3608 54.8438 40.4888C53.9795 41.6021 53.5474 43.4258 53.5474 45.96C53.5474 48.4941 53.9941 50.3252 54.8877 51.4531C55.7959 52.5811 57.3633 53.145 59.5898 53.145C61.8311 53.145 63.3838 52.4565 64.248 51.0796C64.9365 49.9956 65.7788 49.4536 66.7749 49.4536L70.0488 49.4536C70.4443 49.4536 70.7666 49.5854 71.0156 49.8491C71.2793 50.0981 71.4111 50.4131 71.4111 50.7939C71.4111 53.3135 70.3198 55.2178 68.1372 56.5068C65.9692 57.7959 62.8271 58.4404 58.7109 58.4404Z" fill="rgb(0,0,0)" fill-rule="nonzero" />
	<path id="Ex mini black (color) 05" d="M58.7109 58.4404C54.6094 58.4404 51.416 57.3857 49.1309 55.2764C46.8457 53.167 45.7031 50.0688 45.7031 45.9819C45.7031 41.8804 46.8384 38.7749 49.1089 36.6655C51.3794 34.5415 54.5361 33.4795 58.5791 33.4795C62.6367 33.4795 65.7495 34.124 67.9175 35.4131C70.1001 36.7021 71.1914 38.6064 71.1914 41.126C71.1914 41.5215 71.0596 41.8438 70.7959 42.0928C70.5469 42.3418 70.2246 42.4663 69.8291 42.4663L66.5552 42.4663C65.5591 42.4663 64.7168 41.9316 64.0283 40.8623C63.1641 39.4854 61.6333 38.7969 59.436 38.7969C57.2534 38.7969 55.7227 39.3608 54.8438 40.4888C53.9795 41.6021 53.5474 43.4258 53.5474 45.96C53.5474 48.4941 53.9941 50.3252 54.8877 51.4531C55.7959 52.5811 57.3633 53.145 59.5898 53.145C61.8311 53.145 63.3838 52.4565 64.248 51.0796C64.9365 49.9956 65.7788 49.4536 66.7749 49.4536L70.0488 49.4536C70.4443 49.4536 70.7666 49.5854 71.0156 49.8491C71.2793 50.0981 71.4111 50.4131 71.4111 50.7939C71.4111 53.3135 70.3198 55.2178 68.1372 56.5068C65.9692 57.7959 62.8271 58.4404 58.7109 58.4404Z" fill="rgb(0,0,0)" fill-rule="nonzero" />
	<path id="Ex mini black (color) 05" d="M9.14062 55.9355L9.14062 28.5796C9.14062 27.979 9.33838 27.481 9.73389 27.0854C10.1294 26.6899 10.6274 26.4922 11.228 26.4922L15.0952 26.4922C15.6665 26.4922 16.1499 26.6899 16.5454 27.0854C16.9556 27.481 17.1606 27.9644 17.1606 28.5356L17.1606 50.5303L29.6631 28.5796C30 28.0083 30.4614 27.5176 31.0474 27.1074C31.6333 26.6973 32.1753 26.4922 32.6733 26.4922L39.1553 26.4922C39.7266 26.4922 40.21 26.6973 40.6055 27.1074C41.001 27.5176 41.1987 28.0083 41.1987 28.5796L41.1987 55.9355C41.1987 56.5068 40.9937 56.9976 40.5835 57.4077C40.1733 57.8032 39.6826 58.001 39.1113 58.001L35.2441 58.001C34.6729 58.001 34.1821 57.8032 33.772 57.4077C33.3765 56.9976 33.1787 56.5068 33.1787 55.9355L33.1787 35.5449L21.709 55.9355C21.3721 56.5068 20.896 56.9976 20.2808 57.4077C19.6655 57.8032 19.0723 58.001 18.501 58.001L11.228 58.001C10.6567 58.001 10.166 57.8032 9.75586 57.4077C9.3457 56.9976 9.14062 56.5068 9.14062 55.9355Z" fill="rgb(0,0,0)" fill-rule="nonzero" />
	<path id="Ex mini black (color) 05" d="M9.14062 55.9355L9.14062 28.5796C9.14062 27.979 9.33838 27.481 9.73389 27.0854C10.1294 26.6899 10.6274 26.4922 11.228 26.4922L15.0952 26.4922C15.6665 26.4922 16.1499 26.6899 16.5454 27.0854C16.9556 27.481 17.1606 27.9644 17.1606 28.5356L17.1606 50.5303L29.6631 28.5796C30 28.0083 30.4614 27.5176 31.0474 27.1074C31.6333 26.6973 32.1753 26.4922 32.6733 26.4922L39.1553 26.4922C39.7266 26.4922 40.21 26.6973 40.6055 27.1074C41.001 27.5176 41.1987 28.0083 41.1987 28.5796L41.1987 55.9355C41.1987 56.5068 40.9937 56.9976 40.5835 57.4077C40.1733 57.8032 39.6826 58.001 39.1113 58.001L35.2441 58.001C34.6729 58.001 34.1821 57.8032 33.772 57.4077C33.3765 56.9976 33.1787 56.5068 33.1787 55.9355L33.1787 35.5449L21.709 55.9355C21.3721 56.5068 20.896 56.9976 20.2808 57.4077C19.6655 57.8032 19.0723 58.001 18.501 58.001L11.228 58.001C10.6567 58.001 10.166 57.8032 9.75586 57.4077C9.3457 56.9976 9.14062 56.5068 9.14062 55.9355Z" fill="rgb(0,0,0)" fill-rule="nonzero" />
	<path id="Ex mini black (color) 05" d="M1.99973 14.6819L0.526579 11.781C-0.595237 9.57198 0.118629 6.812 2.25602 5.67273C20.7254 -4.17183 38.1704 0.737068 47.1443 5.87485C48.9946 6.93423 49.5103 9.23057 48.4692 11.1422C47.933 12.1266 47.2503 13.3663 46.3912 14.9085C45.1375 17.1592 42.3767 17.8996 40.1214 16.7761C29.1587 11.315 19.5645 11.3085 8.32315 16.7567C6.00579 17.8799 3.1939 17.0335 1.99973 14.6819Z" fill="rgb(0,0,0)" fill-rule="nonzero" />
	<path id="Ex mini black (color) 05" d="M1.99973 14.6819L0.526579 11.781C-0.595237 9.57198 0.118629 6.812 2.25602 5.67273C20.7254 -4.17183 38.1704 0.737068 47.1443 5.87485C48.9946 6.93423 49.5103 9.23057 48.4692 11.1422C47.933 12.1266 47.2503 13.3663 46.3912 14.9085C45.1375 17.1592 42.3767 17.8996 40.1214 16.7761C29.1587 11.315 19.5645 11.3085 8.32315 16.7567C6.00579 17.8799 3.1939 17.0335 1.99973 14.6819Z" fill="rgb(141,110,99)" fill-rule="nonzero" />
</svg>
