<svg viewBox="0 0 180 180" xmlns="http://www.w3.org/2000/svg" xmlns:xlink="http://www.w3.org/1999/xlink" width="180.000000" height="180.000000" fill="none" customFrame="#000000">
	<defs>
		<clipPath id="clipPath_0">
			<rect width="119.000000" height="151.999969" x="31.000000" y="14.000000" fill="rgb(255,255,255)" />
		</clipPath>
	</defs>
	<rect id="фрейм 4" width="180.000000" height="180.000000" x="0.000000" y="0.000000" />
	<rect id="Прямоугольник 2" width="180.000000" height="180.000000" x="0.000000" y="0.000000" fill="rgb(255,255,255)" fill-opacity="0" />
	<g id="Экземпляр 1" customFrame="url(#clipPath_0)">
		<rect id="Экземпляр 1" width="119.000000" height="151.999969" x="31.000000" y="14.000000" fill="rgb(255,255,255)" fill-opacity="0" />
		<rect id="Прямоугольник 2" width="34.000000" height="94.000000" x="31.000000" y="72.000000" rx="15.000000" fill="rgb(0,0,0)" />
		<rect id="Прямоугольник 3" width="34.000000" height="94.000000" x="116.000000" y="72.000000" rx="15.000000" fill="rgb(0,0,0)" />
		<path id="Прямоугольник 4" d="M26.8043 0L26.8043 0.00174999C30.398 0.00194313 33.7922 1.66813 35.6455 4.7472C40.683 13.1169 50 32.098 50 58.0007C50 83.5176 41.4752 102.576 36.6806 111.277C34.8272 114.641 31.2226 116.5 27.3821 116.501L27.3821 116.501C17.3736 116.502 10.6549 103.993 14.2193 94.6409C17.8895 85.0113 21 72.556 21 57.9994C21 44.0853 17.774 32.1684 13.8507 22.8205C9.90956 13.4301 16.6203 -0.000664345 26.8043 0Z" fill="rgb(0,0,0)" fill-rule="evenodd" transform="matrix(0,-1,1,0,32,64)" />
	</g>
</svg>
