<svg viewBox="0 0 1014.75 122.025" xmlns="http://www.w3.org/2000/svg" xmlns:xlink="http://www.w3.org/1999/xlink" width="1014.753906" height="122.025391" fill="none" customFrame="#000000">
	<rect id="Ex max black (color) 14" width="1014.754395" height="122.025391" x="0.000000" y="0.000000" fill="rgb(255,255,255)" fill-opacity="0" />
	<path id="Ex max black (color) 14" d="M3.87703 28.0155L1.02092 22.4802C-1.15403 18.2649 0.229996 12.9984 4.37392 10.8245C40.1818 -7.96054 74.0038 1.40645 91.4021 11.2102C94.9895 13.2316 95.9894 17.6134 93.9708 21.2611C92.9314 23.1395 91.6076 25.505 89.942 28.4479C87.5114 32.7426 82.1589 34.1553 77.7864 32.0115C56.5322 21.5908 37.9312 21.5785 16.1367 31.9746C11.6439 34.1177 6.19225 32.5026 3.87703 28.0155Z" fill="rgb(235,21,19)" fill-rule="evenodd" />
	<path id="Ex max black (color) 14" d="M1014.75 118.744C1014.75 120.248 1013.87 121 1012.09 121L1002.4 121C999.117 121 996.502 119.394 994.554 116.181L988.043 105.568C985.24 101.022 981.173 98.749 975.841 98.749L975.841 117.873C975.841 118.795 975.533 119.547 974.918 120.128C974.337 120.709 973.602 121 972.713 121L961.229 121C960.306 121 959.554 120.709 958.973 120.128C958.392 119.547 958.102 118.795 958.102 117.873L958.102 67.9873C958.102 67.0645 958.392 66.3125 958.973 65.7314C959.588 65.1162 960.34 64.8086 961.229 64.8086L972.713 64.8086C973.636 64.8086 974.388 65.1162 974.969 65.7314C975.55 66.3125 975.841 67.0645 975.841 67.9873L975.841 87.0596C981.788 87.0596 985.855 84.7524 988.043 80.1382L992.965 69.6792C993.648 68.2095 994.657 67.0303 995.99 66.1416C997.323 65.2529 998.758 64.8086 1000.3 64.8086L1009.99 64.8086C1011.7 64.8086 1012.55 65.4751 1012.55 66.8081C1012.55 67.5601 1012.28 68.5171 1011.73 69.6792L1005.12 83.6245C1003.99 85.9487 1002.45 87.9482 1000.5 89.623C998.553 91.2979 996.451 92.3745 994.195 92.853C998.399 94.1177 1002.04 97.1938 1005.12 102.082L1013.83 116.181C1014.41 117.172 1014.72 118.026 1014.75 118.744Z" fill="rgb(235,21,19)" fill-rule="nonzero" />
	<path id="Ex max black (color) 14" d="M1014.75 118.744C1014.75 120.248 1013.87 121 1012.09 121L1002.4 121C999.117 121 996.502 119.394 994.554 116.181L988.043 105.568C985.24 101.022 981.173 98.749 975.841 98.749L975.841 117.873C975.841 118.795 975.533 119.547 974.918 120.128C974.337 120.709 973.602 121 972.713 121L961.229 121C960.306 121 959.554 120.709 958.973 120.128C958.392 119.547 958.102 118.795 958.102 117.873L958.102 67.9873C958.102 67.0645 958.392 66.3125 958.973 65.7314C959.588 65.1162 960.34 64.8086 961.229 64.8086L972.713 64.8086C973.636 64.8086 974.388 65.1162 974.969 65.7314C975.55 66.3125 975.841 67.0645 975.841 67.9873L975.841 87.0596C981.788 87.0596 985.855 84.7524 988.043 80.1382L992.965 69.6792C993.648 68.2095 994.657 67.0303 995.99 66.1416C997.323 65.2529 998.758 64.8086 1000.3 64.8086L1009.99 64.8086C1011.7 64.8086 1012.55 65.4751 1012.55 66.8081C1012.55 67.5601 1012.28 68.5171 1011.73 69.6792L1005.12 83.6245C1003.99 85.9487 1002.45 87.9482 1000.5 89.623C998.553 91.2979 996.451 92.3745 994.195 92.853C998.399 94.1177 1002.04 97.1938 1005.12 102.082L1013.83 116.181C1014.41 117.172 1014.72 118.026 1014.75 118.744Z" fill="rgb(0,0,0)" fill-rule="nonzero" />
	<path id="Ex max black (color) 14" d="M867.66 117.873L867.66 67.9873C867.66 67.0645 867.951 66.3125 868.532 65.7314C869.147 65.1162 869.899 64.8086 870.788 64.8086L882.272 64.8086C883.195 64.8086 883.947 65.1162 884.528 65.7314C885.109 66.3125 885.399 67.0645 885.399 67.9873L885.399 83.4194L897.602 83.4194C904.882 83.4194 910.504 84.855 914.469 87.7261C918.468 90.5972 920.468 95.4336 920.468 102.235C920.468 109.003 918.468 113.822 914.469 116.693C910.504 119.564 904.882 121 897.602 121L870.788 121C869.865 121 869.113 120.709 868.532 120.128C867.951 119.547 867.66 118.795 867.66 117.873ZM885.092 109.567L896.012 109.567C900.49 109.567 902.729 107.123 902.729 102.235C902.729 97.3135 900.49 94.8525 896.012 94.8525L885.092 94.8525L885.092 109.567ZM927.697 117.873L927.697 67.9873C927.697 67.0645 927.987 66.3125 928.568 65.7314C929.184 65.1162 929.953 64.8086 930.875 64.8086L942.309 64.8086C943.231 64.8086 943.983 65.1162 944.564 65.7314C945.146 66.3125 945.436 67.0645 945.436 67.9873L945.436 117.873C945.436 118.795 945.146 119.547 944.564 120.128C943.983 120.709 943.231 121 942.309 121L930.875 121C929.953 121 929.184 120.709 928.568 120.128C927.987 119.547 927.697 118.795 927.697 117.873Z" fill="rgb(235,21,19)" fill-rule="nonzero" />
	<path id="Ex max black (color) 14" d="M867.66 117.873L867.66 67.9873C867.66 67.0645 867.951 66.3125 868.532 65.7314C869.147 65.1162 869.899 64.8086 870.788 64.8086L882.272 64.8086C883.195 64.8086 883.947 65.1162 884.528 65.7314C885.109 66.3125 885.399 67.0645 885.399 67.9873L885.399 83.4194L897.602 83.4194C904.882 83.4194 910.504 84.855 914.469 87.7261C918.468 90.5972 920.468 95.4336 920.468 102.235C920.468 109.003 918.468 113.822 914.469 116.693C910.504 119.564 904.882 121 897.602 121L870.788 121C869.865 121 869.113 120.709 868.532 120.128C867.951 119.547 867.66 118.795 867.66 117.873ZM885.092 109.567L896.012 109.567C900.49 109.567 902.729 107.123 902.729 102.235C902.729 97.3135 900.49 94.8525 896.012 94.8525L885.092 94.8525L885.092 109.567ZM927.697 117.873L927.697 67.9873C927.697 67.0645 927.987 66.3125 928.568 65.7314C929.184 65.1162 929.953 64.8086 930.875 64.8086L942.309 64.8086C943.231 64.8086 943.983 65.1162 944.564 65.7314C945.146 66.3125 945.436 67.0645 945.436 67.9873L945.436 117.873C945.436 118.795 945.146 119.547 944.564 120.128C943.983 120.709 943.231 121 942.309 121L930.875 121C929.953 121 929.184 120.709 928.568 120.128C927.987 119.547 927.697 118.795 927.697 117.873Z" fill="rgb(0,0,0)" fill-rule="nonzero" />
	<path id="Ex max black (color) 14" d="M799.266 106.593C799.266 105.67 799.556 104.918 800.137 104.337C800.752 103.756 801.504 103.466 802.393 103.466L810.083 103.466C812.408 103.466 814.219 104.628 815.518 106.952C816.851 109.242 819.38 110.387 823.106 110.387L833.514 110.387C838.47 110.387 840.948 108.354 840.948 104.286C840.948 100.219 838.47 98.2021 833.514 98.2363L820.799 98.2363C819.876 98.2363 819.107 97.9458 818.492 97.3647C817.911 96.7495 817.62 95.9805 817.62 95.0576L817.62 89.7256C817.62 88.8027 817.911 88.0508 818.492 87.4697C819.107 86.8545 819.876 86.5469 820.799 86.5469L832.54 86.5469C834.795 86.5469 836.487 86.0513 837.615 85.0601C838.777 84.0347 839.358 82.6846 839.358 81.0098C839.358 79.335 838.777 77.9849 837.615 76.9595C836.487 75.9341 834.795 75.4214 832.54 75.4214L823.106 75.4214C821.91 75.4214 820.679 75.729 819.415 76.3442C818.15 76.9253 817.21 77.7798 816.595 78.9077C815.262 81.2319 813.433 82.377 811.109 82.3428L803.47 82.3428C802.547 82.3428 801.778 82.0522 801.163 81.4712C800.582 80.8901 800.291 80.1382 800.291 79.2153C800.291 74.6011 802.53 70.8755 807.007 68.0386C811.519 65.2017 816.954 63.7832 823.311 63.7832L833.616 63.7832C840.828 63.7832 846.536 65.1162 850.74 67.7822C854.979 70.4141 857.098 74.4302 857.098 79.8306C857.098 85.231 854.654 89.1274 849.766 91.52C855.713 94.5278 858.687 99.2788 858.687 105.773C858.687 111.447 856.67 115.583 852.637 118.18C848.638 120.744 842.674 122.025 834.744 122.025L823.311 122.025C816.441 122.025 810.716 120.624 806.136 117.821C801.556 115.019 799.266 111.276 799.266 106.593Z" fill="rgb(235,21,19)" fill-rule="nonzero" />
	<path id="Ex max black (color) 14" d="M799.266 106.593C799.266 105.67 799.556 104.918 800.137 104.337C800.752 103.756 801.504 103.466 802.393 103.466L810.083 103.466C812.408 103.466 814.219 104.628 815.518 106.952C816.851 109.242 819.38 110.387 823.106 110.387L833.514 110.387C838.47 110.387 840.948 108.354 840.948 104.286C840.948 100.219 838.47 98.2021 833.514 98.2363L820.799 98.2363C819.876 98.2363 819.107 97.9458 818.492 97.3647C817.911 96.7495 817.62 95.9805 817.62 95.0576L817.62 89.7256C817.62 88.8027 817.911 88.0508 818.492 87.4697C819.107 86.8545 819.876 86.5469 820.799 86.5469L832.54 86.5469C834.795 86.5469 836.487 86.0513 837.615 85.0601C838.777 84.0347 839.358 82.6846 839.358 81.0098C839.358 79.335 838.777 77.9849 837.615 76.9595C836.487 75.9341 834.795 75.4214 832.54 75.4214L823.106 75.4214C821.91 75.4214 820.679 75.729 819.415 76.3442C818.15 76.9253 817.21 77.7798 816.595 78.9077C815.262 81.2319 813.433 82.377 811.109 82.3428L803.47 82.3428C802.547 82.3428 801.778 82.0522 801.163 81.4712C800.582 80.8901 800.291 80.1382 800.291 79.2153C800.291 74.6011 802.53 70.8755 807.007 68.0386C811.519 65.2017 816.954 63.7832 823.311 63.7832L833.616 63.7832C840.828 63.7832 846.536 65.1162 850.74 67.7822C854.979 70.4141 857.098 74.4302 857.098 79.8306C857.098 85.231 854.654 89.1274 849.766 91.52C855.713 94.5278 858.687 99.2788 858.687 105.773C858.687 111.447 856.67 115.583 852.637 118.18C848.638 120.744 842.674 122.025 834.744 122.025L823.311 122.025C816.441 122.025 810.716 120.624 806.136 117.821C801.556 115.019 799.266 111.276 799.266 106.593Z" fill="rgb(0,0,0)" fill-rule="nonzero" />
	<path id="Ex max black (color) 14" d="M734.615 82.9067C734.615 70.8755 742.237 64.8428 757.481 64.8086L787.73 64.8086C788.653 64.8086 789.405 65.1162 789.986 65.7314C790.567 66.3125 790.857 67.0645 790.857 67.9873L790.857 117.873C790.857 118.795 790.567 119.547 789.986 120.128C789.405 120.709 788.653 121 787.73 121L776.297 121C775.374 121 774.605 120.709 773.99 120.128C773.409 119.513 773.118 118.761 773.118 117.873L773.118 100.954L763.069 100.954L754.354 116.488C752.679 119.496 750.013 121 746.355 121L737.127 121C735.862 121 735.042 120.539 734.666 119.616C734.529 119.308 734.461 118.915 734.461 118.437C734.461 117.924 734.717 117.274 735.23 116.488L745.535 99.2617C738.255 96.5615 734.615 91.1099 734.615 82.9067ZM754.148 78.2412C752.952 79.3691 752.354 80.9243 752.354 82.9067C752.354 84.855 752.935 86.4102 754.097 87.5723C755.293 88.7344 756.951 89.3154 759.07 89.3154L773.118 89.3154L773.118 76.498L759.07 76.498C756.985 76.498 755.345 77.0791 754.148 78.2412Z" fill="rgb(235,21,19)" fill-rule="nonzero" />
	<path id="Ex max black (color) 14" d="M734.615 82.9067C734.615 70.8755 742.237 64.8428 757.481 64.8086L787.73 64.8086C788.653 64.8086 789.405 65.1162 789.986 65.7314C790.567 66.3125 790.857 67.0645 790.857 67.9873L790.857 117.873C790.857 118.795 790.567 119.547 789.986 120.128C789.405 120.709 788.653 121 787.73 121L776.297 121C775.374 121 774.605 120.709 773.99 120.128C773.409 119.513 773.118 118.761 773.118 117.873L773.118 100.954L763.069 100.954L754.354 116.488C752.679 119.496 750.013 121 746.355 121L737.127 121C735.862 121 735.042 120.539 734.666 119.616C734.529 119.308 734.461 118.915 734.461 118.437C734.461 117.924 734.717 117.274 735.23 116.488L745.535 99.2617C738.255 96.5615 734.615 91.1099 734.615 82.9067ZM754.148 78.2412C752.952 79.3691 752.354 80.9243 752.354 82.9067C752.354 84.855 752.935 86.4102 754.097 87.5723C755.293 88.7344 756.951 89.3154 759.07 89.3154L773.118 89.3154L773.118 76.498L759.07 76.498C756.985 76.498 755.345 77.0791 754.148 78.2412Z" fill="rgb(0,0,0)" fill-rule="nonzero" />
	<path id="Ex max black (color) 14" d="M629.359 117.873L629.359 67.9873C629.359 67.0645 629.65 66.3125 630.231 65.7314C630.846 65.1162 631.598 64.8086 632.487 64.8086L643.202 64.8086C644.125 64.8086 644.877 65.1162 645.458 65.7314C646.073 66.3125 646.381 67.0645 646.381 67.9873L646.381 101.671L664.428 68.5C664.975 67.4404 665.812 66.5688 666.94 65.8853C668.068 65.1675 669.162 64.8086 670.221 64.8086L684.577 64.8086C685.5 64.8086 686.251 65.1162 686.833 65.7314C687.448 66.3125 687.755 67.0645 687.755 67.9873L687.755 117.873C687.755 118.795 687.448 119.547 686.833 120.128C686.251 120.709 685.5 121 684.577 121L673.861 121C672.938 121 672.187 120.709 671.605 120.128C671.024 119.513 670.734 118.761 670.734 117.873L670.734 84.2397L652.687 117.309C652.14 118.3 651.303 119.171 650.175 119.923C649.047 120.641 647.953 121 646.894 121L632.487 121C631.564 121 630.812 120.709 630.231 120.128C629.65 119.547 629.359 118.795 629.359 117.873ZM641.305 45.3774C641.305 43.6343 642.262 42.7627 644.176 42.7627L648.021 42.7627C649.696 42.7627 650.893 43.6343 651.61 45.3774C652.738 48.1802 655.045 49.5815 658.532 49.5815C662.052 49.5815 664.359 48.1802 665.453 45.3774C666.137 43.6343 667.333 42.7627 669.042 42.7627L672.938 42.7627C674.818 42.7627 675.758 43.6343 675.758 45.3774C675.758 49.3765 674.169 52.6577 670.99 55.2212C667.812 57.7847 663.659 59.0664 658.532 59.0664C653.439 59.0664 649.286 57.7847 646.073 55.2212C642.895 52.6577 641.305 49.3765 641.305 45.3774Z" fill="rgb(235,21,19)" fill-rule="nonzero" />
	<path id="Ex max black (color) 14" d="M629.359 117.873L629.359 67.9873C629.359 67.0645 629.65 66.3125 630.231 65.7314C630.846 65.1162 631.598 64.8086 632.487 64.8086L643.202 64.8086C644.125 64.8086 644.877 65.1162 645.458 65.7314C646.073 66.3125 646.381 67.0645 646.381 67.9873L646.381 101.671L664.428 68.5C664.975 67.4404 665.812 66.5688 666.94 65.8853C668.068 65.1675 669.162 64.8086 670.221 64.8086L684.577 64.8086C685.5 64.8086 686.251 65.1162 686.833 65.7314C687.448 66.3125 687.755 67.0645 687.755 67.9873L687.755 117.873C687.755 118.795 687.448 119.547 686.833 120.128C686.251 120.709 685.5 121 684.577 121L673.861 121C672.938 121 672.187 120.709 671.605 120.128C671.024 119.513 670.734 118.761 670.734 117.873L670.734 84.2397L652.687 117.309C652.14 118.3 651.303 119.171 650.175 119.923C649.047 120.641 647.953 121 646.894 121L632.487 121C631.564 121 630.812 120.709 630.231 120.128C629.65 119.547 629.359 118.795 629.359 117.873ZM641.305 45.3774C641.305 43.6343 642.262 42.7627 644.176 42.7627L648.021 42.7627C649.696 42.7627 650.893 43.6343 651.61 45.3774C652.738 48.1802 655.045 49.5815 658.532 49.5815C662.052 49.5815 664.359 48.1802 665.453 45.3774C666.137 43.6343 667.333 42.7627 669.042 42.7627L672.938 42.7627C674.818 42.7627 675.758 43.6343 675.758 45.3774C675.758 49.3765 674.169 52.6577 670.99 55.2212C667.812 57.7847 663.659 59.0664 658.532 59.0664C653.439 59.0664 649.286 57.7847 646.073 55.2212C642.895 52.6577 641.305 49.3765 641.305 45.3774Z" fill="rgb(0,0,0)" fill-rule="nonzero" />
	<path id="Ex max black (color) 14" d="M558.402 117.873L558.402 67.9873C558.402 67.0645 558.693 66.3125 559.274 65.7314C559.889 65.1162 560.641 64.8086 561.53 64.8086L572.245 64.8086C573.168 64.8086 573.92 65.1162 574.501 65.7314C575.116 66.3125 575.424 67.0645 575.424 67.9873L575.424 101.671L593.471 68.5C594.018 67.4404 594.855 66.5688 595.983 65.8853C597.111 65.1675 598.205 64.8086 599.264 64.8086L613.62 64.8086C614.542 64.8086 615.294 65.1162 615.875 65.7314C616.491 66.3125 616.798 67.0645 616.798 67.9873L616.798 117.873C616.798 118.795 616.491 119.547 615.875 120.128C615.294 120.709 614.542 121 613.62 121L602.904 121C601.981 121 601.229 120.709 600.648 120.128C600.067 119.513 599.777 118.761 599.777 117.873L599.777 84.2397L581.73 117.309C581.183 118.3 580.346 119.171 579.218 119.923C578.09 120.641 576.996 121 575.937 121L561.53 121C560.607 121 559.855 120.709 559.274 120.128C558.693 119.547 558.402 118.795 558.402 117.873Z" fill="rgb(235,21,19)" fill-rule="nonzero" />
	<path id="Ex max black (color) 14" d="M558.402 117.873L558.402 67.9873C558.402 67.0645 558.693 66.3125 559.274 65.7314C559.889 65.1162 560.641 64.8086 561.53 64.8086L572.245 64.8086C573.168 64.8086 573.92 65.1162 574.501 65.7314C575.116 66.3125 575.424 67.0645 575.424 67.9873L575.424 101.671L593.471 68.5C594.018 67.4404 594.855 66.5688 595.983 65.8853C597.111 65.1675 598.205 64.8086 599.264 64.8086L613.62 64.8086C614.542 64.8086 615.294 65.1162 615.875 65.7314C616.491 66.3125 616.798 67.0645 616.798 67.9873L616.798 117.873C616.798 118.795 616.491 119.547 615.875 120.128C615.294 120.709 614.542 121 613.62 121L602.904 121C601.981 121 601.229 120.709 600.648 120.128C600.067 119.513 599.777 118.761 599.777 117.873L599.777 84.2397L581.73 117.309C581.183 118.3 580.346 119.171 579.218 119.923C578.09 120.641 576.996 121 575.937 121L561.53 121C560.607 121 559.855 120.709 559.274 120.128C558.693 119.547 558.402 118.795 558.402 117.873Z" fill="rgb(0,0,0)" fill-rule="nonzero" />
	<path id="Ex max black (color) 14" d="M550.969 118.744C550.969 120.248 550.081 121 548.303 121L538.613 121C535.332 121 532.717 119.394 530.769 116.181L524.258 105.568C521.455 101.022 517.388 98.749 512.056 98.749L512.056 117.873C512.056 118.795 511.748 119.547 511.133 120.128C510.552 120.709 509.817 121 508.928 121L497.444 121C496.521 121 495.769 120.709 495.188 120.128C494.607 119.547 494.316 118.795 494.316 117.873L494.316 67.9873C494.316 67.0645 494.607 66.3125 495.188 65.7314C495.803 65.1162 496.555 64.8086 497.444 64.8086L508.928 64.8086C509.851 64.8086 510.603 65.1162 511.184 65.7314C511.765 66.3125 512.056 67.0645 512.056 67.9873L512.056 87.0596C518.003 87.0596 522.07 84.7524 524.258 80.1382L529.18 69.6792C529.863 68.2095 530.872 67.0303 532.205 66.1416C533.538 65.2529 534.973 64.8086 536.511 64.8086L546.201 64.8086C547.91 64.8086 548.765 65.4751 548.765 66.8081C548.765 67.5601 548.491 68.5171 547.944 69.6792L541.331 83.6245C540.203 85.9487 538.665 87.9482 536.716 89.623C534.768 91.2979 532.666 92.3745 530.41 92.853C534.614 94.1177 538.254 97.1938 541.331 102.082L550.046 116.181C550.627 117.172 550.935 118.026 550.969 118.744Z" fill="rgb(235,21,19)" fill-rule="nonzero" />
	<path id="Ex max black (color) 14" d="M550.969 118.744C550.969 120.248 550.081 121 548.303 121L538.613 121C535.332 121 532.717 119.394 530.769 116.181L524.258 105.568C521.455 101.022 517.388 98.749 512.056 98.749L512.056 117.873C512.056 118.795 511.748 119.547 511.133 120.128C510.552 120.709 509.817 121 508.928 121L497.444 121C496.521 121 495.769 120.709 495.188 120.128C494.607 119.547 494.316 118.795 494.316 117.873L494.316 67.9873C494.316 67.0645 494.607 66.3125 495.188 65.7314C495.803 65.1162 496.555 64.8086 497.444 64.8086L508.928 64.8086C509.851 64.8086 510.603 65.1162 511.184 65.7314C511.765 66.3125 512.056 67.0645 512.056 67.9873L512.056 87.0596C518.003 87.0596 522.07 84.7524 524.258 80.1382L529.18 69.6792C529.863 68.2095 530.872 67.0303 532.205 66.1416C533.538 65.2529 534.973 64.8086 536.511 64.8086L546.201 64.8086C547.91 64.8086 548.765 65.4751 548.765 66.8081C548.765 67.5601 548.491 68.5171 547.944 69.6792L541.331 83.6245C540.203 85.9487 538.665 87.9482 536.716 89.623C534.768 91.2979 532.666 92.3745 530.41 92.853C534.614 94.1177 538.254 97.1938 541.331 102.082L550.046 116.181C550.627 117.172 550.935 118.026 550.969 118.744Z" fill="rgb(0,0,0)" fill-rule="nonzero" />
	<path id="Ex max black (color) 14" d="M456.273 122.025C446.703 122.025 439.252 119.564 433.92 114.643C428.588 109.721 425.922 102.492 425.922 92.9556C425.922 83.3853 428.571 76.1392 433.869 71.2173C439.167 66.2612 446.532 63.7832 455.966 63.7832C465.434 63.7832 472.697 65.2871 477.755 68.2949C482.848 71.3027 485.395 75.7461 485.395 81.625C485.395 82.5479 485.087 83.2998 484.472 83.8809C483.891 84.4619 483.139 84.7524 482.216 84.7524L474.577 84.7524C472.252 84.7524 470.287 83.5049 468.681 81.0098C466.664 77.7969 463.092 76.1904 457.965 76.1904C452.873 76.1904 449.301 77.5063 447.25 80.1382C445.233 82.7358 444.225 86.9912 444.225 92.9043C444.225 98.8174 445.268 103.09 447.353 105.722C449.472 108.354 453.129 109.669 458.324 109.669C463.554 109.669 467.177 108.063 469.193 104.85C470.8 102.321 472.765 101.056 475.089 101.056L482.729 101.056C483.651 101.056 484.403 101.364 484.984 101.979C485.6 102.56 485.907 103.295 485.907 104.184C485.907 110.062 483.361 114.506 478.268 117.514C473.209 120.521 465.878 122.025 456.273 122.025Z" fill="rgb(235,21,19)" fill-rule="nonzero" />
	<path id="Ex max black (color) 14" d="M456.273 122.025C446.703 122.025 439.252 119.564 433.92 114.643C428.588 109.721 425.922 102.492 425.922 92.9556C425.922 83.3853 428.571 76.1392 433.869 71.2173C439.167 66.2612 446.532 63.7832 455.966 63.7832C465.434 63.7832 472.697 65.2871 477.755 68.2949C482.848 71.3027 485.395 75.7461 485.395 81.625C485.395 82.5479 485.087 83.2998 484.472 83.8809C483.891 84.4619 483.139 84.7524 482.216 84.7524L474.577 84.7524C472.252 84.7524 470.287 83.5049 468.681 81.0098C466.664 77.7969 463.092 76.1904 457.965 76.1904C452.873 76.1904 449.301 77.5063 447.25 80.1382C445.233 82.7358 444.225 86.9912 444.225 92.9043C444.225 98.8174 445.268 103.09 447.353 105.722C449.472 108.354 453.129 109.669 458.324 109.669C463.554 109.669 467.177 108.063 469.193 104.85C470.8 102.321 472.765 101.056 475.089 101.056L482.729 101.056C483.651 101.056 484.403 101.364 484.984 101.979C485.6 102.56 485.907 103.295 485.907 104.184C485.907 110.062 483.361 114.506 478.268 117.514C473.209 120.521 465.878 122.025 456.273 122.025Z" fill="rgb(0,0,0)" fill-rule="nonzero" />
	<path id="Ex max black (color) 14" d="M358.145 117.873L358.145 67.9873C358.145 67.0645 358.435 66.3125 359.016 65.7314C359.631 65.1162 360.383 64.8086 361.272 64.8086L371.987 64.8086C372.91 64.8086 373.662 65.1162 374.243 65.7314C374.858 66.3125 375.166 67.0645 375.166 67.9873L375.166 101.671L393.213 68.5C393.76 67.4404 394.597 66.5688 395.725 65.8853C396.853 65.1675 397.947 64.8086 399.006 64.8086L413.362 64.8086C414.285 64.8086 415.037 65.1162 415.618 65.7314C416.233 66.3125 416.541 67.0645 416.541 67.9873L416.541 117.873C416.541 118.795 416.233 119.547 415.618 120.128C415.037 120.709 414.285 121 413.362 121L402.646 121C401.724 121 400.972 120.709 400.391 120.128C399.81 119.513 399.519 118.761 399.519 117.873L399.519 84.2397L381.472 117.309C380.925 118.3 380.088 119.171 378.96 119.923C377.832 120.641 376.738 121 375.679 121L361.272 121C360.349 121 359.597 120.709 359.016 120.128C358.435 119.547 358.145 118.795 358.145 117.873ZM370.09 45.3774C370.09 43.6343 371.047 42.7627 372.961 42.7627L376.807 42.7627C378.481 42.7627 379.678 43.6343 380.396 45.3774C381.523 48.1802 383.831 49.5815 387.317 49.5815C390.837 49.5815 393.145 48.1802 394.238 45.3774C394.922 43.6343 396.118 42.7627 397.827 42.7627L401.724 42.7627C403.604 42.7627 404.543 43.6343 404.543 45.3774C404.543 49.3765 402.954 52.6577 399.775 55.2212C396.597 57.7847 392.444 59.0664 387.317 59.0664C382.224 59.0664 378.071 57.7847 374.858 55.2212C371.68 52.6577 370.09 49.3765 370.09 45.3774Z" fill="rgb(235,21,19)" fill-rule="nonzero" />
	<path id="Ex max black (color) 14" d="M358.145 117.873L358.145 67.9873C358.145 67.0645 358.435 66.3125 359.016 65.7314C359.631 65.1162 360.383 64.8086 361.272 64.8086L371.987 64.8086C372.91 64.8086 373.662 65.1162 374.243 65.7314C374.858 66.3125 375.166 67.0645 375.166 67.9873L375.166 101.671L393.213 68.5C393.76 67.4404 394.597 66.5688 395.725 65.8853C396.853 65.1675 397.947 64.8086 399.006 64.8086L413.362 64.8086C414.285 64.8086 415.037 65.1162 415.618 65.7314C416.233 66.3125 416.541 67.0645 416.541 67.9873L416.541 117.873C416.541 118.795 416.233 119.547 415.618 120.128C415.037 120.709 414.285 121 413.362 121L402.646 121C401.724 121 400.972 120.709 400.391 120.128C399.81 119.513 399.519 118.761 399.519 117.873L399.519 84.2397L381.472 117.309C380.925 118.3 380.088 119.171 378.96 119.923C377.832 120.641 376.738 121 375.679 121L361.272 121C360.349 121 359.597 120.709 359.016 120.128C358.435 119.547 358.145 118.795 358.145 117.873ZM370.09 45.3774C370.09 43.6343 371.047 42.7627 372.961 42.7627L376.807 42.7627C378.481 42.7627 379.678 43.6343 380.396 45.3774C381.523 48.1802 383.831 49.5815 387.317 49.5815C390.837 49.5815 393.145 48.1802 394.238 45.3774C394.922 43.6343 396.118 42.7627 397.827 42.7627L401.724 42.7627C403.604 42.7627 404.543 43.6343 404.543 45.3774C404.543 49.3765 402.954 52.6577 399.775 55.2212C396.597 57.7847 392.444 59.0664 387.317 59.0664C382.224 59.0664 378.071 57.7847 374.858 55.2212C371.68 52.6577 370.09 49.3765 370.09 45.3774Z" fill="rgb(0,0,0)" fill-rule="nonzero" />
	<path id="Ex max black (color) 14" d="M287.188 117.873L287.188 67.9873C287.188 67.0645 287.478 66.3125 288.059 65.7314C288.674 65.1162 289.426 64.8086 290.315 64.8086L301.03 64.8086C301.953 64.8086 302.705 65.1162 303.286 65.7314C303.901 66.3125 304.209 67.0645 304.209 67.9873L304.209 101.671L322.256 68.5C322.803 67.4404 323.64 66.5688 324.768 65.8853C325.896 65.1675 326.99 64.8086 328.049 64.8086L342.405 64.8086C343.328 64.8086 344.08 65.1162 344.661 65.7314C345.276 66.3125 345.583 67.0645 345.583 67.9873L345.583 117.873C345.583 118.795 345.276 119.547 344.661 120.128C344.08 120.709 343.328 121 342.405 121L331.689 121C330.767 121 330.015 120.709 329.434 120.128C328.853 119.513 328.562 118.761 328.562 117.873L328.562 84.2397L310.515 117.309C309.968 118.3 309.131 119.171 308.003 119.923C306.875 120.641 305.781 121 304.722 121L290.315 121C289.392 121 288.64 120.709 288.059 120.128C287.478 119.547 287.188 118.795 287.188 117.873Z" fill="rgb(235,21,19)" fill-rule="nonzero" />
	<path id="Ex max black (color) 14" d="M287.188 117.873L287.188 67.9873C287.188 67.0645 287.478 66.3125 288.059 65.7314C288.674 65.1162 289.426 64.8086 290.315 64.8086L301.03 64.8086C301.953 64.8086 302.705 65.1162 303.286 65.7314C303.901 66.3125 304.209 67.0645 304.209 67.9873L304.209 101.671L322.256 68.5C322.803 67.4404 323.64 66.5688 324.768 65.8853C325.896 65.1675 326.99 64.8086 328.049 64.8086L342.405 64.8086C343.328 64.8086 344.08 65.1162 344.661 65.7314C345.276 66.3125 345.583 67.0645 345.583 67.9873L345.583 117.873C345.583 118.795 345.276 119.547 344.661 120.128C344.08 120.709 343.328 121 342.405 121L331.689 121C330.767 121 330.015 120.709 329.434 120.128C328.853 119.513 328.562 118.761 328.562 117.873L328.562 84.2397L310.515 117.309C309.968 118.3 309.131 119.171 308.003 119.923C306.875 120.641 305.781 121 304.722 121L290.315 121C289.392 121 288.64 120.709 288.059 120.128C287.478 119.547 287.188 118.795 287.188 117.873Z" fill="rgb(0,0,0)" fill-rule="nonzero" />
	<path id="Ex max black (color) 14" d="M212.232 117.616L221.46 80.3433C224.058 69.9868 232.637 64.8086 247.198 64.8086L271.448 64.8086C272.337 64.8086 273.072 65.1162 273.653 65.7314C274.268 66.3125 274.576 67.0645 274.576 67.9873L274.576 117.873C274.576 118.761 274.268 119.513 273.653 120.128C273.072 120.709 272.337 121 271.448 121L259.964 121C259.075 121 258.323 120.709 257.708 120.128C257.127 119.513 256.836 118.761 256.836 117.873L256.836 77.2158L247.198 77.2158C242.413 77.2158 239.388 79.728 238.123 84.7524L230.074 117.206C229.766 118.334 229.151 119.257 228.228 119.975C227.339 120.658 226.382 121 225.357 121L214.847 121C213.924 121 213.223 120.727 212.745 120.18C212.3 119.599 212.078 119.103 212.078 118.693C212.078 118.283 212.129 117.924 212.232 117.616Z" fill="rgb(235,21,19)" fill-rule="nonzero" />
	<path id="Ex max black (color) 14" d="M212.232 117.616L221.46 80.3433C224.058 69.9868 232.637 64.8086 247.198 64.8086L271.448 64.8086C272.337 64.8086 273.072 65.1162 273.653 65.7314C274.268 66.3125 274.576 67.0645 274.576 67.9873L274.576 117.873C274.576 118.761 274.268 119.513 273.653 120.128C273.072 120.709 272.337 121 271.448 121L259.964 121C259.075 121 258.323 120.709 257.708 120.128C257.127 119.513 256.836 118.761 256.836 117.873L256.836 77.2158L247.198 77.2158C242.413 77.2158 239.388 79.728 238.123 84.7524L230.074 117.206C229.766 118.334 229.151 119.257 228.228 119.975C227.339 120.658 226.382 121 225.357 121L214.847 121C213.924 121 213.223 120.727 212.745 120.18C212.3 119.599 212.078 119.103 212.078 118.693C212.078 118.283 212.129 117.924 212.232 117.616Z" fill="rgb(0,0,0)" fill-rule="nonzero" />
	<path id="Ex max black (color) 14" d="M167.422 117.873L167.422 67.9873C167.422 67.0645 167.712 66.3125 168.293 65.7314C168.909 65.1162 169.661 64.8086 170.549 64.8086L208.899 64.8086C209.788 64.8086 210.522 65.1162 211.104 65.7314C211.719 66.3125 212.026 67.0645 212.026 67.9873L212.026 74.0884C212.026 74.9771 211.719 75.729 211.104 76.3442C210.522 76.9253 209.788 77.2158 208.899 77.2158L185.161 77.2158L185.161 117.873C185.161 118.761 184.854 119.513 184.238 120.128C183.657 120.709 182.922 121 182.034 121L170.549 121C169.661 121 168.909 120.709 168.293 120.128C167.712 119.513 167.422 118.761 167.422 117.873Z" fill="rgb(235,21,19)" fill-rule="nonzero" />
	<path id="Ex max black (color) 14" d="M167.422 117.873L167.422 67.9873C167.422 67.0645 167.712 66.3125 168.293 65.7314C168.909 65.1162 169.661 64.8086 170.549 64.8086L208.899 64.8086C209.788 64.8086 210.522 65.1162 211.104 65.7314C211.719 66.3125 212.026 67.0645 212.026 67.9873L212.026 74.0884C212.026 74.9771 211.719 75.729 211.104 76.3442C210.522 76.9253 209.788 77.2158 208.899 77.2158L185.161 77.2158L185.161 117.873C185.161 118.761 184.854 119.513 184.238 120.128C183.657 120.709 182.922 121 182.034 121L170.549 121C169.661 121 168.909 120.709 168.293 120.128C167.712 119.513 167.422 118.761 167.422 117.873Z" fill="rgb(0,0,0)" fill-rule="nonzero" />
	<path id="Ex max black (color) 14" d="M96.875 117.873L96.875 67.9873C96.875 67.0645 97.1655 66.3125 97.7466 65.7314C98.3618 65.1162 99.1138 64.8086 100.002 64.8086L111.487 64.8086C112.41 64.8086 113.162 65.1162 113.743 65.7314C114.324 66.3125 114.614 67.0645 114.614 67.9873L114.614 86.3418L137.07 86.3418L137.07 67.9873C137.07 67.0645 137.361 66.3125 137.942 65.7314C138.557 65.1162 139.326 64.8086 140.249 64.8086L151.682 64.8086C152.605 64.8086 153.357 65.1162 153.938 65.7314C154.519 66.3125 154.81 67.0645 154.81 67.9873L154.81 117.873C154.81 118.795 154.519 119.547 153.938 120.128C153.357 120.709 152.605 121 151.682 121L140.249 121C139.326 121 138.557 120.709 137.942 120.128C137.361 119.513 137.07 118.761 137.07 117.873L137.07 98.749L114.614 98.749L114.614 117.873C114.614 118.795 114.307 119.547 113.691 120.128C113.11 120.709 112.375 121 111.487 121L100.002 121C99.0796 121 98.3276 120.709 97.7466 120.128C97.1655 119.547 96.875 118.795 96.875 117.873Z" fill="rgb(235,21,19)" fill-rule="nonzero" />
	<path id="Ex max black (color) 14" d="M96.875 117.873L96.875 67.9873C96.875 67.0645 97.1655 66.3125 97.7466 65.7314C98.3618 65.1162 99.1138 64.8086 100.002 64.8086L111.487 64.8086C112.41 64.8086 113.162 65.1162 113.743 65.7314C114.324 66.3125 114.614 67.0645 114.614 67.9873L114.614 86.3418L137.07 86.3418L137.07 67.9873C137.07 67.0645 137.361 66.3125 137.942 65.7314C138.557 65.1162 139.326 64.8086 140.249 64.8086L151.682 64.8086C152.605 64.8086 153.357 65.1162 153.938 65.7314C154.519 66.3125 154.81 67.0645 154.81 67.9873L154.81 117.873C154.81 118.795 154.519 119.547 153.938 120.128C153.357 120.709 152.605 121 151.682 121L140.249 121C139.326 121 138.557 120.709 137.942 120.128C137.361 119.513 137.07 118.761 137.07 117.873L137.07 98.749L114.614 98.749L114.614 117.873C114.614 118.795 114.307 119.547 113.691 120.128C113.11 120.709 112.375 121 111.487 121L100.002 121C99.0796 121 98.3276 120.709 97.7466 120.128C97.1655 119.547 96.875 118.795 96.875 117.873Z" fill="rgb(0,0,0)" fill-rule="nonzero" />
	<path id="Ex max black (color) 14" d="M4.2832 116.283L17.1519 67.4746C20.6382 54.1787 31.9858 47.5137 51.1948 47.4795L78.8291 47.4795C80.0938 47.4795 81.1362 47.958 81.9565 48.915C82.811 49.8721 83.2383 50.9829 83.2383 52.2476L83.2383 116.283C83.2383 117.616 82.7598 118.744 81.8027 119.667C80.8457 120.556 79.7007 121 78.3677 121L68.729 121C67.3276 121 66.1655 120.556 65.2427 119.667C64.354 118.744 63.9097 117.582 63.9097 116.181L63.9097 103.261L27.457 103.261L24.022 116.181C23.6802 117.582 22.9111 118.744 21.7148 119.667C20.5186 120.556 19.2539 121 17.9209 121L7.8208 121C6.48779 121 5.53076 120.624 4.94971 119.872C4.36865 119.086 4.07812 118.402 4.07812 117.821C4.1123 117.24 4.18066 116.728 4.2832 116.283ZM31.251 88.7515L63.9097 88.7515L63.9097 61.9888L49.2979 61.9888C46.0166 61.9888 43.1455 62.9287 40.6846 64.8086C38.2578 66.6543 36.6172 69.1494 35.7627 72.2939L31.251 88.7515Z" fill="rgb(235,21,19)" fill-rule="nonzero" />
	<path id="Ex max black (color) 14" d="M4.2832 116.283L17.1519 67.4746C20.6382 54.1787 31.9858 47.5137 51.1948 47.4795L78.8291 47.4795C80.0938 47.4795 81.1362 47.958 81.9565 48.915C82.811 49.8721 83.2383 50.9829 83.2383 52.2476L83.2383 116.283C83.2383 117.616 82.7598 118.744 81.8027 119.667C80.8457 120.556 79.7007 121 78.3677 121L68.729 121C67.3276 121 66.1655 120.556 65.2427 119.667C64.354 118.744 63.9097 117.582 63.9097 116.181L63.9097 103.261L27.457 103.261L24.022 116.181C23.6802 117.582 22.9111 118.744 21.7148 119.667C20.5186 120.556 19.2539 121 17.9209 121L7.8208 121C6.48779 121 5.53076 120.624 4.94971 119.872C4.36865 119.086 4.07812 118.402 4.07812 117.821C4.1123 117.24 4.18066 116.728 4.2832 116.283ZM31.251 88.7515L63.9097 88.7515L63.9097 61.9888L49.2979 61.9888C46.0166 61.9888 43.1455 62.9287 40.6846 64.8086C38.2578 66.6543 36.6172 69.1494 35.7627 72.2939L31.251 88.7515Z" fill="rgb(0,0,0)" fill-rule="nonzero" />
</svg>
