<svg viewBox="0 0 1014.75 122.025" xmlns="http://www.w3.org/2000/svg" xmlns:xlink="http://www.w3.org/1999/xlink" width="1014.754395" height="122.025391" fill="none" customFrame="#000000">
	<rect id="Ex max white 14" width="1014.754395" height="122.025391" x="0.000000" y="0.000000" fill="rgb(255,255,255)" fill-opacity="0" />
	<path id="Ex max white 14" d="M3.87703 28.0155L1.02092 22.4802C0.331835 21.1446 0 19.7036 0 18.2889C0 15.2382 1.5429 12.3097 4.37392 10.8245C40.1818 -7.96054 74.0038 1.40645 91.4021 11.2102C93.7599 12.5388 95 14.8869 95 17.3762C95 18.6743 94.6627 20.0108 93.9708 21.2611C92.9314 23.1395 91.6076 25.505 89.942 28.4479C87.5114 32.7426 82.1589 34.1553 77.7864 32.0115C56.5322 21.5908 37.9312 21.5785 16.1367 31.9746C11.6439 34.1177 6.19225 32.5026 3.87703 28.0155ZM370.09 45.3774Q370.09 44.192 370.68 43.544Q371.392 42.7627 372.961 42.7627L376.807 42.7627Q377.825 42.7627 378.607 43.1923Q379.755 43.8225 380.396 45.3774Q381.051 47.0052 382.236 48.0028Q384.112 49.5815 387.317 49.5815Q390.599 49.5815 392.475 47.9572Q393.617 46.9682 394.238 45.3774Q394.824 43.883 395.913 43.2427Q396.729 42.7627 397.827 42.7627L401.724 42.7627Q403.24 42.7627 403.941 43.5186Q404.543 44.1686 404.543 45.3774Q404.543 48.2081 403.482 50.5594Q402.293 53.1906 399.775 55.2212Q399.601 55.3616 399.423 55.4969Q394.727 59.0664 387.317 59.0664Q380.08 59.0664 375.373 55.6151Q375.112 55.4235 374.858 55.2212Q372.34 53.1906 371.152 50.5594Q370.09 48.2081 370.09 45.3774ZM641.305 45.3774Q641.305 44.192 641.895 43.544Q642.607 42.7627 644.176 42.7627L648.021 42.7627Q649.04 42.7627 649.822 43.1923Q650.97 43.8225 651.61 45.3774Q652.265 47.0052 653.451 48.0028Q655.327 49.5815 658.532 49.5815Q661.814 49.5815 663.69 47.9572Q664.832 46.9683 665.453 45.3774Q666.039 43.883 667.128 43.2427Q667.944 42.7627 669.042 42.7627L672.938 42.7627Q674.455 42.7627 675.156 43.5186Q675.758 44.1686 675.758 45.3774Q675.758 48.2082 674.696 50.5594Q673.508 53.1906 670.99 55.2212Q670.826 55.3541 670.657 55.4823L670.638 55.4969Q665.941 59.0664 658.532 59.0664Q651.294 59.0664 646.588 55.6151Q646.56 55.5942 646.531 55.5733Q646.299 55.4015 646.073 55.2212Q643.555 53.1906 642.367 50.5594Q641.305 48.2082 641.305 45.3774ZM4.2832 116.283L17.1519 67.4746Q18.6538 61.7465 22.1013 57.6593Q30.6569 47.516 51.1948 47.4795L78.8291 47.4795Q79.7865 47.4795 80.5742 47.8452Q81.3471 48.2041 81.9565 48.915Q82.6337 49.6735 82.9531 50.5607Q83.2383 51.3528 83.2383 52.2476L83.2383 116.283Q83.2383 117.292 82.8732 118.143Q82.5143 118.981 81.8027 119.667Q81.1399 120.282 80.3568 120.614Q79.4439 121 78.3677 121L68.729 121Q67.3453 121 66.2726 120.422Q65.7157 120.123 65.2427 119.667Q64.7871 119.194 64.4873 118.637Q63.9097 117.564 63.9097 116.181L63.9097 103.261L27.457 103.261L24.022 116.181Q23.8197 117.01 23.4178 117.728L23.4177 117.728Q22.8011 118.829 21.7148 119.667Q20.3249 120.699 18.812 120.932L18.8119 120.932Q18.3716 121 17.9209 121L7.8208 121Q6.04851 121 5.16236 120.114Q5.04873 120 4.94971 119.872Q4.07812 118.693 4.07812 117.821Q4.12939 116.95 4.2832 116.283ZM31.251 88.7515L63.9097 88.7515L63.9097 61.9888L49.2979 61.9888Q46.1487 61.9888 43.5033 63.1431Q42.0141 63.793 40.6846 64.8086Q39.4433 65.7527 38.4762 66.9234Q36.6073 69.1856 35.7627 72.2939L31.251 88.7515ZM456.273 122.025Q442.471 122.025 434.546 115.201L434.533 115.19Q434.222 114.921 433.92 114.643Q433.001 113.794 432.188 112.855L432.186 112.852Q425.922 105.614 425.922 92.9556Q425.922 80.0994 432.295 72.8355Q433.039 71.9884 433.869 71.2173Q434.372 70.746 434.901 70.3046L434.905 70.3011Q442.716 63.7832 455.966 63.7832Q470.167 63.7832 477.755 68.2949Q481.622 70.5786 483.532 73.9657Q485.395 77.2702 485.395 81.625Q485.395 82.5065 485.02 83.1801Q484.807 83.5644 484.472 83.8809Q484.205 84.1475 483.89 84.3326Q483.177 84.7524 482.216 84.7524L474.577 84.7524Q473.714 84.7524 472.917 84.5232Q470.494 83.8261 468.681 81.0098Q468.068 80.034 467.264 79.2558L467.264 79.2552Q464.098 76.1904 457.965 76.1904Q450.651 76.1904 447.52 79.8095Q447.381 79.9703 447.25 80.1382Q444.225 84.0347 444.225 92.9043Q444.225 101.774 447.353 105.722Q447.421 105.806 447.491 105.889L447.514 105.916Q450.725 109.669 458.324 109.669Q464.708 109.669 467.9 106.477L467.9 106.477Q468.63 105.747 469.193 104.85Q471.021 101.972 473.469 101.277Q474.248 101.056 475.089 101.056L482.729 101.056Q483.61 101.056 484.284 101.43Q484.668 101.644 484.984 101.979Q485.374 102.347 485.599 102.797Q485.907 103.413 485.907 104.184Q485.907 108.538 484.044 111.843Q482.135 115.23 478.268 117.514Q470.68 122.025 456.273 122.025ZM799.266 106.593Q799.266 105.632 799.685 104.919L799.686 104.918Q799.871 104.604 800.137 104.337Q800.516 103.979 800.965 103.768Q801.608 103.466 802.393 103.466L810.083 103.466Q811.371 103.466 812.449 103.941Q814.289 104.753 815.518 106.952Q815.892 107.595 816.392 108.117L816.393 108.119Q818.565 110.387 823.106 110.387L833.514 110.387Q837.956 110.387 839.744 108.209Q840.948 106.742 840.948 104.286Q840.948 101.827 839.74 100.367Q837.951 98.2057 833.514 98.2363L820.799 98.2363Q819.89 98.2363 819.18 97.8604Q818.808 97.6639 818.492 97.3647Q818.193 97.048 817.996 96.6769Q817.62 95.9668 817.62 95.0576L817.62 89.7256Q817.62 88.7648 818.04 88.051L818.041 88.05Q818.226 87.7359 818.492 87.4697Q818.861 87.1008 819.304 86.8791Q819.968 86.5469 820.799 86.5469L832.54 86.5469Q835.923 86.5469 837.615 85.0601Q838.289 84.466 838.702 83.7264Q839.358 82.5515 839.358 81.0098Q839.358 79.468 838.702 78.2931Q838.289 77.5535 837.615 76.9595Q835.923 75.4214 832.54 75.4214L823.106 75.4214Q821.312 75.4214 819.415 76.3442Q818.089 76.9531 817.24 77.9622L817.239 77.9635Q816.872 78.3984 816.595 78.9077Q815.324 81.1238 813.452 81.9106Q812.379 82.3615 811.109 82.3428L803.47 82.3428Q802.561 82.3428 801.85 81.9668Q801.479 81.7704 801.163 81.4712Q800.896 81.205 800.711 80.8909L800.711 80.89Q800.291 80.1761 800.291 79.2153Q800.291 76.7695 801.13 74.6564Q802.664 70.7902 807.007 68.0386Q813.775 63.7832 823.311 63.7832L833.616 63.7832Q844.434 63.7832 850.74 67.7822Q853.389 69.4268 854.934 71.7923Q857.098 75.1047 857.098 79.8306Q857.098 83.8255 855.315 86.7232Q853.482 89.7011 849.766 91.52Q854.437 93.8823 856.662 97.6784Q858.687 101.132 858.687 105.773Q858.687 111.546 855.903 115.196Q854.583 116.927 852.637 118.18Q846.639 122.025 834.744 122.025L823.311 122.025Q813.006 122.025 806.136 117.821Q801.733 115.127 800.152 111.275Q799.266 109.116 799.266 106.593ZM96.875 117.873L96.875 67.9873Q96.875 67.0265 97.2949 66.3127L97.2951 66.3124Q97.4801 65.9979 97.7466 65.7314Q98.1747 65.3034 98.6911 65.0738Q99.2879 64.8086 100.002 64.8086L111.487 64.8086Q112.368 64.8086 113.042 65.1828Q113.426 65.3963 113.743 65.7314Q114.009 65.9979 114.194 66.3124L114.194 66.3127Q114.614 67.0265 114.614 67.9873L114.614 86.3418L137.07 86.3418L137.07 67.9873Q137.07 67.0265 137.49 66.3127Q137.675 65.998 137.942 65.7314Q138.311 65.3623 138.754 65.1408Q139.418 64.8086 140.249 64.8086L151.682 64.8086Q152.564 64.8086 153.237 65.1828Q153.621 65.3963 153.938 65.7314Q154.205 65.998 154.39 66.3127Q154.81 67.0265 154.81 67.9873L154.81 117.873Q154.81 118.833 154.39 119.547Q154.205 119.862 153.938 120.128Q153.671 120.395 153.357 120.58Q152.643 121 151.682 121L140.249 121Q139.34 121 138.63 120.624Q138.259 120.428 137.942 120.128Q137.584 119.749 137.373 119.301Q137.07 118.658 137.07 117.873L137.07 98.749L114.614 98.749L114.614 117.873Q114.614 118.754 114.24 119.428Q114.027 119.812 113.691 120.128Q113.371 120.449 112.988 120.651Q112.33 121 111.487 121L100.002 121Q99.0416 121 98.3278 120.58L98.3275 120.58Q98.0131 120.395 97.7466 120.128Q97.4801 119.862 97.2951 119.547L97.2949 119.547Q96.875 118.833 96.875 117.873ZM167.422 117.873L167.422 67.9873Q167.422 67.0265 167.842 66.3127Q168.027 65.998 168.293 65.7314Q168.722 65.3033 169.238 65.0738Q169.835 64.8086 170.549 64.8086L208.899 64.8086Q209.669 64.8086 210.285 65.1167Q210.736 65.3419 211.104 65.7314Q211.439 66.048 211.652 66.4322Q212.026 67.1058 212.026 67.9873L212.026 74.0884Q212.026 74.803 211.761 75.3997Q211.532 75.9161 211.104 76.3442Q210.783 76.6645 210.401 76.867L210.4 76.8672Q209.742 77.2158 208.899 77.2158L185.161 77.2158L185.161 117.873Q185.161 118.587 184.896 119.184Q184.666 119.7 184.238 120.128Q183.918 120.449 183.536 120.651L183.535 120.651Q182.877 121 182.034 121L170.549 121Q169.764 121 169.121 120.697Q168.672 120.486 168.293 120.128Q167.935 119.749 167.724 119.301Q167.422 118.658 167.422 117.873ZM212.232 117.616L221.46 80.3433Q222.646 75.6164 225.493 72.3279Q232.003 64.8086 247.198 64.8086L271.448 64.8086Q272.218 64.8086 272.835 65.1167Q273.285 65.3418 273.653 65.7314Q273.988 66.0479 274.201 66.4322Q274.576 67.1058 274.576 67.9873L274.576 117.873Q274.576 118.587 274.31 119.184Q274.081 119.7 273.653 120.128Q273.332 120.449 272.95 120.651Q272.291 121 271.448 121L259.964 121Q259.178 121 258.535 120.697Q258.087 120.486 257.708 120.128Q257.35 119.749 257.139 119.301Q256.836 118.658 256.836 117.873L256.836 77.2158L247.198 77.2158Q243.985 77.2158 241.83 78.7256Q239.171 80.5891 238.123 84.7524L230.074 117.206Q229.843 118.052 229.382 118.744Q228.92 119.436 228.228 119.975Q227.28 120.704 226.227 120.915Q225.801 121 225.357 121L214.847 121Q213.703 121 213.015 120.44L213.014 120.44Q212.869 120.322 212.745 120.18Q212.078 119.308 212.078 118.693Q212.078 118.078 212.232 117.616ZM287.188 117.873L287.188 67.9873Q287.188 67.0265 287.607 66.3127Q287.793 65.998 288.059 65.7314Q288.487 65.3033 289.004 65.0738Q289.6 64.8086 290.315 64.8086L301.03 64.8086Q301.912 64.8086 302.585 65.1828Q302.97 65.3964 303.286 65.7314Q303.621 66.0479 303.835 66.4322Q304.209 67.1058 304.209 67.9873L304.209 101.671L322.256 68.5Q322.394 68.2325 322.557 67.981Q323.361 66.7381 324.768 65.8853Q326.46 64.8086 328.049 64.8086L342.405 64.8086Q343.286 64.8086 343.96 65.1828Q344.344 65.3964 344.661 65.7314Q344.996 66.0479 345.209 66.4322Q345.583 67.1058 345.583 67.9873L345.583 117.873Q345.583 118.754 345.209 119.428Q344.996 119.812 344.661 120.128Q344.394 120.395 344.079 120.58Q343.366 121 342.405 121L331.689 121Q330.729 121 330.015 120.58Q329.7 120.395 329.434 120.128Q329.076 119.749 328.865 119.301Q328.562 118.658 328.562 117.873L328.562 84.2397L310.515 117.309Q309.695 118.795 308.003 119.923Q306.311 121 304.722 121L290.315 121Q289.354 121 288.64 120.58Q288.326 120.395 288.059 120.128Q287.793 119.862 287.607 119.547Q287.188 118.833 287.188 117.873ZM358.145 117.873L358.145 67.9873Q358.145 67.0265 358.564 66.3127Q358.75 65.998 359.016 65.7314Q359.444 65.3033 359.961 65.0738Q360.557 64.8086 361.272 64.8086L371.987 64.8086Q372.869 64.8086 373.542 65.1828Q373.927 65.3964 374.243 65.7314Q374.578 66.0479 374.792 66.4322Q375.166 67.1058 375.166 67.9873L375.166 101.671L393.213 68.5Q393.351 68.2325 393.514 67.981Q394.318 66.7381 395.725 65.8853Q397.417 64.8086 399.006 64.8086L413.362 64.8086Q414.243 64.8086 414.917 65.1828Q415.301 65.3964 415.618 65.7314Q415.953 66.0479 416.166 66.4322Q416.541 67.1058 416.541 67.9873L416.541 117.873Q416.541 118.754 416.166 119.428Q415.953 119.812 415.618 120.128Q415.351 120.395 415.036 120.58Q414.323 121 413.362 121L402.646 121Q401.686 121 400.972 120.58Q400.657 120.395 400.391 120.128Q400.033 119.749 399.822 119.301Q399.519 118.658 399.519 117.873L399.519 84.2397L381.472 117.309Q380.652 118.795 378.96 119.923Q377.268 121 375.679 121L361.272 121Q360.311 121 359.597 120.58Q359.283 120.395 359.016 120.128Q358.75 119.862 358.564 119.547Q358.145 118.833 358.145 117.873ZM550.969 118.744Q550.969 119.685 550.505 120.234Q549.857 121 548.303 121L538.613 121Q536.834 121 535.316 120.37Q532.635 119.258 530.769 116.181L524.258 105.568Q522.149 102.147 519.085 100.442Q516.041 98.749 512.056 98.749L512.056 117.873Q512.056 118.754 511.681 119.428Q511.468 119.812 511.133 120.128Q510.812 120.449 510.43 120.651Q509.771 121 508.928 121L497.444 121Q496.483 121 495.769 120.58Q495.455 120.395 495.188 120.128Q494.921 119.862 494.736 119.547Q494.316 118.833 494.316 117.873L494.316 67.9873Q494.316 67.0265 494.736 66.3127Q494.921 65.998 495.188 65.7314Q495.616 65.3033 496.133 65.0738Q496.729 64.8086 497.444 64.8086L508.928 64.8086Q509.81 64.8086 510.483 65.1828Q510.868 65.3964 511.184 65.7314Q511.451 65.998 511.636 66.3127Q512.056 67.0265 512.056 67.9873L512.056 87.0596Q517.686 87.0596 521.07 84.3023Q523.048 82.691 524.258 80.1382L529.18 69.6792Q529.733 68.4888 530.571 67.5524Q531.285 66.7548 532.205 66.1416Q533.446 65.3141 534.806 65.0003L534.807 64.9999Q535.637 64.8086 536.511 64.8086L546.201 64.8086Q547.795 64.8086 548.398 65.5815Q548.765 66.0518 548.765 66.8081Q548.765 67.936 547.944 69.6792L541.331 83.6245Q540.428 85.4849 539.175 87.0679L539.173 87.0695Q538.078 88.4521 536.716 89.623Q534.027 91.9352 530.946 92.7273Q530.68 92.7959 530.41 92.853Q530.48 92.8741 530.55 92.8959Q536.768 94.8315 541.331 102.082L550.046 116.181Q550.918 117.667 550.969 118.744ZM558.402 117.873L558.402 67.9873Q558.402 67.0265 558.822 66.3127L558.823 66.3117Q559.008 65.9977 559.274 65.7314Q559.702 65.3036 560.218 65.0738Q560.815 64.8086 561.53 64.8086L572.245 64.8086Q573.126 64.8086 573.8 65.1828Q574.184 65.3963 574.501 65.7314Q574.836 66.048 575.05 66.4322Q575.424 67.1058 575.424 67.9873L575.424 101.671L593.471 68.5Q593.609 68.2325 593.771 67.981Q594.576 66.7381 595.983 65.8853Q597.675 64.8086 599.264 64.8086L613.62 64.8086Q614.501 64.8086 615.175 65.1828Q615.559 65.3963 615.875 65.7314Q616.211 66.048 616.424 66.4322Q616.798 67.1058 616.798 67.9873L616.798 117.873Q616.798 118.754 616.424 119.428Q616.211 119.812 615.875 120.128Q615.609 120.394 615.296 120.579L615.294 120.58Q614.58 121 613.62 121L602.904 121Q601.943 121 601.23 120.58L601.228 120.579Q600.914 120.394 600.648 120.128Q600.29 119.749 600.079 119.301Q599.777 118.658 599.777 117.873L599.777 84.2397L581.73 117.309Q580.91 118.795 579.218 119.923Q577.526 121 575.937 121L561.53 121Q560.569 121 559.855 120.58L559.854 120.579Q559.54 120.394 559.274 120.128Q559.008 119.862 558.823 119.548L558.822 119.547Q558.402 118.833 558.402 117.873ZM629.359 117.873L629.359 67.9873Q629.359 67.0265 629.779 66.3127L629.78 66.3117Q629.965 65.9977 630.231 65.7314Q630.659 65.3036 631.175 65.0738Q631.772 64.8086 632.487 64.8086L643.202 64.8086Q644.083 64.8086 644.757 65.1828Q645.141 65.3963 645.458 65.7314Q645.793 66.048 646.007 66.4322Q646.381 67.1058 646.381 67.9873L646.381 101.671L664.428 68.5Q664.566 68.2325 664.729 67.981Q665.533 66.7381 666.94 65.8853Q668.632 64.8086 670.221 64.8086L684.577 64.8086Q685.458 64.8086 686.132 65.1828Q686.516 65.3963 686.833 65.7314Q687.168 66.048 687.381 66.4322Q687.755 67.1058 687.755 67.9873L687.755 117.873Q687.755 118.754 687.381 119.428Q687.168 119.812 686.833 120.128Q686.567 120.394 686.253 120.579L686.251 120.58Q685.537 121 684.577 121L673.861 121Q672.901 121 672.187 120.58L672.185 120.579Q671.871 120.394 671.605 120.128Q671.247 119.749 671.036 119.301Q670.734 118.658 670.734 117.873L670.734 84.2397L652.687 117.309Q651.867 118.795 650.175 119.923Q648.483 121 646.894 121L632.487 121Q631.526 121 630.812 120.58L630.811 120.579Q630.497 120.394 630.231 120.128Q629.965 119.862 629.78 119.548L629.779 119.547Q629.359 118.833 629.359 117.873ZM734.615 82.9067Q734.615 75.9846 737.979 71.71Q743.385 64.8402 757.481 64.8086L787.73 64.8086Q788.611 64.8086 789.285 65.1828Q789.669 65.3963 789.986 65.7314Q790.252 65.9977 790.437 66.3117L790.438 66.3127Q790.857 67.0265 790.857 67.9873L790.857 117.873Q790.857 118.833 790.438 119.547L790.437 119.548Q790.252 119.862 789.986 120.128Q789.72 120.394 789.406 120.579L789.405 120.58Q788.691 121 787.73 121L776.297 121Q775.388 121 774.678 120.624Q774.307 120.428 773.99 120.128Q773.632 119.749 773.421 119.301Q773.118 118.658 773.118 117.873L773.118 100.954L763.069 100.954L754.354 116.488Q753.245 118.479 751.557 119.592Q749.42 121 746.355 121L737.127 121Q735.828 121 735.154 120.351Q734.844 120.052 734.666 119.616Q734.461 119.154 734.461 118.437Q734.461 117.667 735.23 116.488L745.535 99.2617Q740.534 97.4067 737.823 93.8204Q734.615 89.576 734.615 82.9067ZM867.66 117.873L867.66 67.9873Q867.66 67.0265 868.08 66.3127L868.081 66.3117Q868.266 65.9977 868.532 65.7314Q868.96 65.3036 869.476 65.0738Q870.073 64.8086 870.788 64.8086L882.272 64.8086Q883.153 64.8086 883.827 65.1828Q884.211 65.3963 884.528 65.7314Q884.794 65.9977 884.979 66.3117L884.98 66.3127Q885.399 67.0265 885.399 67.9873L885.399 83.4194L897.602 83.4194Q908.522 83.4194 914.469 87.7261Q915.367 88.3703 916.13 89.1465L916.131 89.1476Q920.468 93.5601 920.468 102.235Q920.468 110.822 916.176 115.227Q915.394 116.03 914.469 116.693Q908.522 121 897.602 121L870.788 121Q869.827 121 869.113 120.58L869.112 120.579Q868.798 120.394 868.532 120.128Q868.266 119.862 868.081 119.548L868.08 119.547Q867.66 118.833 867.66 117.873ZM927.697 117.873L927.697 67.9873Q927.697 67.0265 928.117 66.3127L928.117 66.3117Q928.302 65.9977 928.568 65.7314Q928.937 65.3625 929.38 65.1408Q930.045 64.8086 930.875 64.8086L942.309 64.8086Q943.19 64.8086 943.864 65.1828Q944.248 65.3963 944.564 65.7314Q944.831 65.9977 945.016 66.3117L945.016 66.3127Q945.436 67.0265 945.436 67.9873L945.436 117.873Q945.436 118.833 945.016 119.547L945.016 119.548Q944.831 119.862 944.564 120.128Q944.298 120.394 943.985 120.579L943.983 120.58Q943.269 121 942.309 121L930.875 121Q929.966 121 929.256 120.624Q928.885 120.428 928.568 120.128Q928.302 119.862 928.117 119.548L928.117 119.547Q927.697 118.833 927.697 117.873ZM1014.75 118.744Q1014.75 119.685 1014.29 120.234Q1013.64 121 1012.09 121L1002.4 121Q1000.62 121 999.101 120.37Q996.42 119.258 994.554 116.181L988.043 105.568Q985.934 102.147 982.87 100.442Q979.826 98.749 975.841 98.749L975.841 117.873Q975.841 118.754 975.467 119.428Q975.253 119.812 974.918 120.128Q974.598 120.449 974.215 120.651Q973.556 121 972.713 121L961.229 121Q960.268 121 959.554 120.58L959.553 120.579Q959.239 120.394 958.973 120.128Q958.707 119.862 958.522 119.548L958.521 119.547Q958.102 118.833 958.102 117.873L958.102 67.9873Q958.102 67.0265 958.521 66.3127L958.522 66.3117Q958.707 65.9977 958.973 65.7314Q959.401 65.3036 959.918 65.0738Q960.514 64.8086 961.229 64.8086L972.713 64.8086Q973.595 64.8086 974.268 65.1828Q974.653 65.3963 974.969 65.7314Q975.235 65.9977 975.42 66.3117L975.421 66.3127Q975.841 67.0265 975.841 67.9873L975.841 87.0596Q981.471 87.0596 984.855 84.3023Q986.833 82.691 988.043 80.1382L992.965 69.6792Q993.519 68.4888 994.356 67.5524Q995.07 66.7548 995.99 66.1416Q997.231 65.3141 998.591 65.0003L998.592 64.9999Q999.422 64.8086 1000.3 64.8086L1009.99 64.8086Q1011.58 64.8086 1012.18 65.5815Q1012.55 66.0518 1012.55 66.8081Q1012.55 67.936 1011.73 69.6792L1005.12 83.6245Q1004.21 85.4849 1002.96 87.0679L1002.96 87.0695Q1001.86 88.4521 1000.5 89.623Q997.812 91.9352 994.731 92.7273Q994.465 92.7959 994.195 92.853Q994.265 92.8741 994.335 92.8959Q1000.55 94.8315 1005.12 102.082L1013.83 116.181Q1014.7 117.667 1014.75 118.744ZM754.148 78.2412Q753.76 78.607 753.456 79.0328Q752.354 80.5761 752.354 82.9067Q752.354 85.1804 753.409 86.7403Q753.71 87.1855 754.097 87.5723Q754.298 87.7674 754.516 87.9407Q756.247 89.3154 759.07 89.3154L773.118 89.3154L773.118 76.498L759.07 76.498Q756.363 76.498 754.654 77.8045Q754.389 78.0071 754.148 78.2412ZM885.092 109.567L896.012 109.567Q899.077 109.567 900.743 108.04Q902.729 106.222 902.729 102.235Q902.729 98.1957 900.718 96.3664Q899.054 94.8525 896.012 94.8525L885.092 94.8525L885.092 109.567Z" fill="rgb(255,255,255)" fill-rule="evenodd" />
</svg>
