<svg viewBox="0 0 439.609 58.4395" xmlns="http://www.w3.org/2000/svg" xmlns:xlink="http://www.w3.org/1999/xlink" width="439.609375" height="58.439453" fill="none" customFrame="#000000">
	<rect id="Ex mini black (color) 14" width="439.607910" height="58.439453" x="0.000000" y="0.000000" fill="rgb(255,255,255)" fill-opacity="0" />
	<path id="Ex mini black (color) 14" d="M439.608 57.0332C439.608 57.6777 439.227 58 438.465 58L434.312 58C432.906 58 431.786 57.3115 430.951 55.9346L428.16 51.3862C426.959 49.438 425.216 48.4639 422.931 48.4639L422.931 56.6597C422.931 57.0552 422.799 57.3774 422.535 57.6265C422.286 57.8755 421.971 58 421.59 58L416.668 58C416.273 58 415.951 57.8755 415.702 57.6265C415.453 57.3774 415.328 57.0552 415.328 56.6597L415.328 35.2803C415.328 34.8848 415.453 34.5625 415.702 34.3135C415.965 34.0498 416.288 33.918 416.668 33.918L421.59 33.918C421.986 33.918 422.308 34.0498 422.557 34.3135C422.806 34.5625 422.931 34.8848 422.931 35.2803L422.931 43.4541C425.479 43.4541 427.223 42.4653 428.16 40.4878L430.27 36.0054C430.562 35.3755 430.995 34.8701 431.566 34.4893C432.137 34.1084 432.752 33.918 433.412 33.918L437.564 33.918C438.297 33.918 438.663 34.2036 438.663 34.7749C438.663 35.0972 438.546 35.5073 438.312 36.0054L435.477 41.9819C434.994 42.978 434.334 43.835 433.5 44.5527C432.665 45.2705 431.764 45.7319 430.797 45.937C432.599 46.479 434.159 47.7974 435.477 49.8921L439.212 55.9346C439.461 56.3594 439.593 56.7256 439.608 57.0332Z" fill="rgb(0,0,0)" fill-rule="evenodd" />
	<path id="Ex mini black (color) 14" d="M376.57 56.6597L376.57 35.2803C376.57 34.8848 376.695 34.5625 376.944 34.3135C377.208 34.0498 377.53 33.918 377.911 33.918L382.833 33.918C383.228 33.918 383.55 34.0498 383.799 34.3135C384.048 34.5625 384.173 34.8848 384.173 35.2803L384.173 41.894L389.402 41.894C392.522 41.894 394.932 42.5093 396.631 43.7397C398.345 44.9702 399.202 47.043 399.202 49.958C399.202 52.8584 398.345 54.9238 396.631 56.1543C394.932 57.3848 392.522 58 389.402 58L377.911 58C377.515 58 377.193 57.8755 376.944 57.6265C376.695 57.3774 376.57 57.0552 376.57 56.6597ZM384.041 53.1001L388.721 53.1001C390.64 53.1001 391.6 52.0527 391.6 49.958C391.6 47.8486 390.64 46.7939 388.721 46.7939L384.041 46.7939L384.041 53.1001ZM402.3 56.6597L402.3 35.2803C402.3 34.8848 402.425 34.5625 402.674 34.3135C402.938 34.0498 403.267 33.918 403.663 33.918L408.562 33.918C408.958 33.918 409.28 34.0498 409.529 34.3135C409.778 34.5625 409.903 34.8848 409.903 35.2803L409.903 56.6597C409.903 57.0552 409.778 57.3774 409.529 57.6265C409.28 57.8755 408.958 58 408.562 58L403.663 58C403.267 58 402.938 57.8755 402.674 57.6265C402.425 57.3774 402.3 57.0552 402.3 56.6597Z" fill="rgb(0,0,0)" fill-rule="evenodd" />
	<path id="Ex mini black (color) 14" d="M376.57 56.6597L376.57 35.2803C376.57 34.8848 376.695 34.5625 376.944 34.3135C377.208 34.0498 377.53 33.918 377.911 33.918L382.833 33.918C383.228 33.918 383.55 34.0498 383.799 34.3135C384.048 34.5625 384.173 34.8848 384.173 35.2803L384.173 41.894L389.402 41.894C392.522 41.894 394.932 42.5093 396.631 43.7397C398.345 44.9702 399.202 47.043 399.202 49.958C399.202 52.8584 398.345 54.9238 396.631 56.1543C394.932 57.3848 392.522 58 389.402 58L377.911 58C377.515 58 377.193 57.8755 376.944 57.6265C376.695 57.3774 376.57 57.0552 376.57 56.6597ZM384.041 53.1001L388.721 53.1001C390.64 53.1001 391.6 52.0527 391.6 49.958C391.6 47.8486 390.64 46.7939 388.721 46.7939L384.041 46.7939L384.041 53.1001ZM402.3 56.6597L402.3 35.2803C402.3 34.8848 402.425 34.5625 402.674 34.3135C402.938 34.0498 403.267 33.918 403.663 33.918L408.562 33.918C408.958 33.918 409.28 34.0498 409.529 34.3135C409.778 34.5625 409.903 34.8848 409.903 35.2803L409.903 56.6597C409.903 57.0552 409.778 57.3774 409.529 57.6265C409.28 57.8755 408.958 58 408.562 58L403.663 58C403.267 58 402.938 57.8755 402.674 57.6265C402.425 57.3774 402.3 57.0552 402.3 56.6597Z" fill="rgb(0,0,0)" fill-rule="evenodd" />
	<path id="Ex mini black (color) 14" d="M347.258 51.8257C347.258 51.4302 347.382 51.1079 347.631 50.8589C347.895 50.6099 348.217 50.4854 348.598 50.4854L351.894 50.4854C352.89 50.4854 353.667 50.9834 354.223 51.9795C354.794 52.9609 355.878 53.4517 357.475 53.4517L361.936 53.4517C364.06 53.4517 365.122 52.5801 365.122 50.8369C365.122 49.0938 364.06 48.2295 361.936 48.2441L356.486 48.2441C356.091 48.2441 355.761 48.1196 355.498 47.8706C355.249 47.6069 355.124 47.2773 355.124 46.8818L355.124 44.5967C355.124 44.2012 355.249 43.8789 355.498 43.6299C355.761 43.3662 356.091 43.2344 356.486 43.2344L361.518 43.2344C362.485 43.2344 363.21 43.022 363.693 42.5972C364.191 42.1577 364.44 41.5791 364.44 40.8613C364.44 40.1436 364.191 39.5649 363.693 39.1255C363.21 38.686 362.485 38.4663 361.518 38.4663L357.475 38.4663C356.962 38.4663 356.435 38.5981 355.893 38.8618C355.351 39.1108 354.948 39.4771 354.685 39.9604C354.113 40.9565 353.33 41.4473 352.333 41.4326L349.06 41.4326C348.664 41.4326 348.334 41.3081 348.071 41.0591C347.822 40.8101 347.697 40.4878 347.697 40.0923C347.697 38.1147 348.657 36.5181 350.576 35.3022C352.509 34.0864 354.838 33.4785 357.563 33.4785L361.979 33.4785C365.07 33.4785 367.517 34.0498 369.318 35.1924C371.135 36.3203 372.043 38.0415 372.043 40.356C372.043 42.6704 370.996 44.3403 368.901 45.3657C371.45 46.6548 372.724 48.6909 372.724 51.4741C372.724 53.9058 371.86 55.6782 370.131 56.7915C368.417 57.8901 365.861 58.4395 362.463 58.4395L357.563 58.4395C354.619 58.4395 352.165 57.8389 350.202 56.6377C348.239 55.4365 347.258 53.8325 347.258 51.8257Z" fill="rgb(0,0,0)" fill-rule="evenodd" />
	<path id="Ex mini black (color) 14" d="M347.258 51.8257C347.258 51.4302 347.382 51.1079 347.631 50.8589C347.895 50.6099 348.217 50.4854 348.598 50.4854L351.894 50.4854C352.89 50.4854 353.667 50.9834 354.223 51.9795C354.794 52.9609 355.878 53.4517 357.475 53.4517L361.936 53.4517C364.06 53.4517 365.122 52.5801 365.122 50.8369C365.122 49.0938 364.06 48.2295 361.936 48.2441L356.486 48.2441C356.091 48.2441 355.761 48.1196 355.498 47.8706C355.249 47.6069 355.124 47.2773 355.124 46.8818L355.124 44.5967C355.124 44.2012 355.249 43.8789 355.498 43.6299C355.761 43.3662 356.091 43.2344 356.486 43.2344L361.518 43.2344C362.485 43.2344 363.21 43.022 363.693 42.5972C364.191 42.1577 364.44 41.5791 364.44 40.8613C364.44 40.1436 364.191 39.5649 363.693 39.1255C363.21 38.686 362.485 38.4663 361.518 38.4663L357.475 38.4663C356.962 38.4663 356.435 38.5981 355.893 38.8618C355.351 39.1108 354.948 39.4771 354.685 39.9604C354.113 40.9565 353.33 41.4473 352.333 41.4326L349.06 41.4326C348.664 41.4326 348.334 41.3081 348.071 41.0591C347.822 40.8101 347.697 40.4878 347.697 40.0923C347.697 38.1147 348.657 36.5181 350.576 35.3022C352.509 34.0864 354.838 33.4785 357.563 33.4785L361.979 33.4785C365.07 33.4785 367.517 34.0498 369.318 35.1924C371.135 36.3203 372.043 38.0415 372.043 40.356C372.043 42.6704 370.996 44.3403 368.901 45.3657C371.45 46.6548 372.724 48.6909 372.724 51.4741C372.724 53.9058 371.86 55.6782 370.131 56.7915C368.417 57.8901 365.861 58.4395 362.463 58.4395L357.563 58.4395C354.619 58.4395 352.165 57.8389 350.202 56.6377C348.239 55.4365 347.258 53.8325 347.258 51.8257Z" fill="rgb(0,0,0)" fill-rule="evenodd" />
	<path id="Ex mini black (color) 14" d="M319.55 41.6743C319.55 36.5181 322.817 33.9326 329.35 33.918L342.314 33.918C342.709 33.918 343.032 34.0498 343.281 34.3135C343.53 34.5625 343.654 34.8848 343.654 35.2803L343.654 56.6597C343.654 57.0552 343.53 57.3774 343.281 57.6265C343.032 57.8755 342.709 58 342.314 58L337.414 58C337.019 58 336.689 57.8755 336.425 57.6265C336.176 57.3628 336.052 57.0405 336.052 56.6597L336.052 49.4087L331.745 49.4087L328.01 56.0664C327.292 57.3555 326.149 58 324.582 58L320.627 58C320.085 58 319.733 57.8022 319.572 57.4067C319.514 57.2749 319.484 57.1064 319.484 56.9014C319.484 56.6816 319.594 56.4033 319.814 56.0664L324.23 48.6836C321.11 47.5264 319.55 45.1899 319.55 41.6743ZM327.922 39.6748C327.409 40.1582 327.153 40.8247 327.153 41.6743C327.153 42.5093 327.402 43.1758 327.9 43.6738C328.413 44.1719 329.123 44.4209 330.031 44.4209L336.052 44.4209L336.052 38.9277L330.031 38.9277C329.138 38.9277 328.435 39.1768 327.922 39.6748Z" fill="rgb(0,0,0)" fill-rule="evenodd" />
	<path id="Ex mini black (color) 14" d="M319.55 41.6743C319.55 36.5181 322.817 33.9326 329.35 33.918L342.314 33.918C342.709 33.918 343.032 34.0498 343.281 34.3135C343.53 34.5625 343.654 34.8848 343.654 35.2803L343.654 56.6597C343.654 57.0552 343.53 57.3774 343.281 57.6265C343.032 57.8755 342.709 58 342.314 58L337.414 58C337.019 58 336.689 57.8755 336.425 57.6265C336.176 57.3628 336.052 57.0405 336.052 56.6597L336.052 49.4087L331.745 49.4087L328.01 56.0664C327.292 57.3555 326.149 58 324.582 58L320.627 58C320.085 58 319.733 57.8022 319.572 57.4067C319.514 57.2749 319.484 57.1064 319.484 56.9014C319.484 56.6816 319.594 56.4033 319.814 56.0664L324.23 48.6836C321.11 47.5264 319.55 45.1899 319.55 41.6743ZM327.922 39.6748C327.409 40.1582 327.153 40.8247 327.153 41.6743C327.153 42.5093 327.402 43.1758 327.9 43.6738C328.413 44.1719 329.123 44.4209 330.031 44.4209L336.052 44.4209L336.052 38.9277L330.031 38.9277C329.138 38.9277 328.435 39.1768 327.922 39.6748Z" fill="rgb(0,0,0)" fill-rule="evenodd" />
	<path id="Ex mini black (color) 14" d="M274.441 56.6597L274.441 35.2803C274.441 34.8848 274.566 34.5625 274.815 34.3135C275.079 34.0498 275.401 33.918 275.782 33.918L280.374 33.918C280.77 33.918 281.092 34.0498 281.341 34.3135C281.604 34.5625 281.736 34.8848 281.736 35.2803L281.736 49.7163L289.471 35.5C289.705 35.0459 290.064 34.6724 290.547 34.3794C291.031 34.0718 291.5 33.918 291.954 33.918L298.106 33.918C298.501 33.918 298.824 34.0498 299.073 34.3135C299.336 34.5625 299.468 34.8848 299.468 35.2803L299.468 56.6597C299.468 57.0552 299.336 57.3774 299.073 57.6265C298.824 57.8755 298.501 58 298.106 58L293.514 58C293.118 58 292.796 57.8755 292.547 57.6265C292.298 57.3628 292.173 57.0405 292.173 56.6597L292.173 42.2456L284.439 56.418C284.205 56.8428 283.846 57.2163 283.362 57.5386C282.879 57.8462 282.41 58 281.956 58L275.782 58C275.386 58 275.064 57.8755 274.815 57.6265C274.566 57.3774 274.441 57.0552 274.441 56.6597ZM279.561 25.5903C279.561 24.8433 279.971 24.4697 280.792 24.4697L282.439 24.4697C283.157 24.4697 283.67 24.8433 283.978 25.5903C284.461 26.7915 285.45 27.3921 286.944 27.3921C288.453 27.3921 289.441 26.7915 289.91 25.5903C290.203 24.8433 290.716 24.4697 291.448 24.4697L293.118 24.4697C293.924 24.4697 294.327 24.8433 294.327 25.5903C294.327 27.3042 293.646 28.7104 292.283 29.8091C290.921 30.9077 289.141 31.457 286.944 31.457C284.761 31.457 282.981 30.9077 281.604 29.8091C280.242 28.7104 279.561 27.3042 279.561 25.5903Z" fill="rgb(0,0,0)" fill-rule="evenodd" />
	<path id="Ex mini black (color) 14" d="M274.441 56.6597L274.441 35.2803C274.441 34.8848 274.566 34.5625 274.815 34.3135C275.079 34.0498 275.401 33.918 275.782 33.918L280.374 33.918C280.77 33.918 281.092 34.0498 281.341 34.3135C281.604 34.5625 281.736 34.8848 281.736 35.2803L281.736 49.7163L289.471 35.5C289.705 35.0459 290.064 34.6724 290.547 34.3794C291.031 34.0718 291.5 33.918 291.954 33.918L298.106 33.918C298.501 33.918 298.824 34.0498 299.073 34.3135C299.336 34.5625 299.468 34.8848 299.468 35.2803L299.468 56.6597C299.468 57.0552 299.336 57.3774 299.073 57.6265C298.824 57.8755 298.501 58 298.106 58L293.514 58C293.118 58 292.796 57.8755 292.547 57.6265C292.298 57.3628 292.173 57.0405 292.173 56.6597L292.173 42.2456L284.439 56.418C284.205 56.8428 283.846 57.2163 283.362 57.5386C282.879 57.8462 282.41 58 281.956 58L275.782 58C275.386 58 275.064 57.8755 274.815 57.6265C274.566 57.3774 274.441 57.0552 274.441 56.6597ZM279.561 25.5903C279.561 24.8433 279.971 24.4697 280.792 24.4697L282.439 24.4697C283.157 24.4697 283.67 24.8433 283.978 25.5903C284.461 26.7915 285.45 27.3921 286.944 27.3921C288.453 27.3921 289.441 26.7915 289.91 25.5903C290.203 24.8433 290.716 24.4697 291.448 24.4697L293.118 24.4697C293.924 24.4697 294.327 24.8433 294.327 25.5903C294.327 27.3042 293.646 28.7104 292.283 29.8091C290.921 30.9077 289.141 31.457 286.944 31.457C284.761 31.457 282.981 30.9077 281.604 29.8091C280.242 28.7104 279.561 27.3042 279.561 25.5903Z" fill="rgb(0,0,0)" fill-rule="evenodd" />
	<path id="Ex mini black (color) 14" d="M244.031 56.6597L244.031 35.2803C244.031 34.8848 244.156 34.5625 244.405 34.3135C244.668 34.0498 244.991 33.918 245.372 33.918L249.964 33.918C250.359 33.918 250.682 34.0498 250.931 34.3135C251.194 34.5625 251.326 34.8848 251.326 35.2803L251.326 49.7163L259.061 35.5C259.295 35.0459 259.654 34.6724 260.137 34.3794C260.621 34.0718 261.089 33.918 261.543 33.918L267.696 33.918C268.091 33.918 268.414 34.0498 268.663 34.3135C268.926 34.5625 269.058 34.8848 269.058 35.2803L269.058 56.6597C269.058 57.0552 268.926 57.3774 268.663 57.6265C268.414 57.8755 268.091 58 267.696 58L263.104 58C262.708 58 262.386 57.8755 262.137 57.6265C261.888 57.3628 261.763 57.0405 261.763 56.6597L261.763 42.2456L254.029 56.418C253.794 56.8428 253.436 57.2163 252.952 57.5386C252.469 57.8462 252 58 251.546 58L245.372 58C244.976 58 244.654 57.8755 244.405 57.6265C244.156 57.3774 244.031 57.0552 244.031 56.6597Z" fill="rgb(0,0,0)" fill-rule="evenodd" />
	<path id="Ex mini black (color) 14" d="M244.031 56.6597L244.031 35.2803C244.031 34.8848 244.156 34.5625 244.405 34.3135C244.668 34.0498 244.991 33.918 245.372 33.918L249.964 33.918C250.359 33.918 250.682 34.0498 250.931 34.3135C251.194 34.5625 251.326 34.8848 251.326 35.2803L251.326 49.7163L259.061 35.5C259.295 35.0459 259.654 34.6724 260.137 34.3794C260.621 34.0718 261.089 33.918 261.543 33.918L267.696 33.918C268.091 33.918 268.414 34.0498 268.663 34.3135C268.926 34.5625 269.058 34.8848 269.058 35.2803L269.058 56.6597C269.058 57.0552 268.926 57.3774 268.663 57.6265C268.414 57.8755 268.091 58 267.696 58L263.104 58C262.708 58 262.386 57.8755 262.137 57.6265C261.888 57.3628 261.763 57.0405 261.763 56.6597L261.763 42.2456L254.029 56.418C253.794 56.8428 253.436 57.2163 252.952 57.5386C252.469 57.8462 252 58 251.546 58L245.372 58C244.976 58 244.654 57.8755 244.405 57.6265C244.156 57.3774 244.031 57.0552 244.031 56.6597Z" fill="rgb(0,0,0)" fill-rule="evenodd" />
	<path id="Ex mini black (color) 14" d="M240.842 57.0332C240.842 57.6777 240.461 58 239.7 58L235.547 58C234.141 58 233.02 57.3115 232.185 55.9346L229.395 51.3862C228.193 49.438 226.45 48.4639 224.165 48.4639L224.165 56.6597C224.165 57.0552 224.033 57.3774 223.77 57.6265C223.521 57.8755 223.206 58 222.825 58L217.903 58C217.507 58 217.185 57.8755 216.936 57.6265C216.687 57.3774 216.562 57.0552 216.562 56.6597L216.562 35.2803C216.562 34.8848 216.687 34.5625 216.936 34.3135C217.2 34.0498 217.522 33.918 217.903 33.918L222.825 33.918C223.22 33.918 223.542 34.0498 223.792 34.3135C224.041 34.5625 224.165 34.8848 224.165 35.2803L224.165 43.4541C226.714 43.4541 228.457 42.4653 229.395 40.4878L231.504 36.0054C231.797 35.3755 232.229 34.8701 232.8 34.4893C233.372 34.1084 233.987 33.918 234.646 33.918L238.799 33.918C239.531 33.918 239.897 34.2036 239.897 34.7749C239.897 35.0972 239.78 35.5073 239.546 36.0054L236.711 41.9819C236.228 42.978 235.569 43.835 234.734 44.5527C233.899 45.2705 232.998 45.7319 232.031 45.937C233.833 46.479 235.393 47.7974 236.711 49.8921L240.447 55.9346C240.696 56.3594 240.828 56.7256 240.842 57.0332Z" fill="rgb(0,0,0)" fill-rule="evenodd" />
	<path id="Ex mini black (color) 14" d="M240.842 57.0332C240.842 57.6777 240.461 58 239.7 58L235.547 58C234.141 58 233.02 57.3115 232.185 55.9346L229.395 51.3862C228.193 49.438 226.45 48.4639 224.165 48.4639L224.165 56.6597C224.165 57.0552 224.033 57.3774 223.77 57.6265C223.521 57.8755 223.206 58 222.825 58L217.903 58C217.507 58 217.185 57.8755 216.936 57.6265C216.687 57.3774 216.562 57.0552 216.562 56.6597L216.562 35.2803C216.562 34.8848 216.687 34.5625 216.936 34.3135C217.2 34.0498 217.522 33.918 217.903 33.918L222.825 33.918C223.22 33.918 223.542 34.0498 223.792 34.3135C224.041 34.5625 224.165 34.8848 224.165 35.2803L224.165 43.4541C226.714 43.4541 228.457 42.4653 229.395 40.4878L231.504 36.0054C231.797 35.3755 232.229 34.8701 232.8 34.4893C233.372 34.1084 233.987 33.918 234.646 33.918L238.799 33.918C239.531 33.918 239.897 34.2036 239.897 34.7749C239.897 35.0972 239.78 35.5073 239.546 36.0054L236.711 41.9819C236.228 42.978 235.569 43.835 234.734 44.5527C233.899 45.2705 232.998 45.7319 232.031 45.937C233.833 46.479 235.393 47.7974 236.711 49.8921L240.447 55.9346C240.696 56.3594 240.828 56.7256 240.842 57.0332Z" fill="rgb(0,0,0)" fill-rule="evenodd" />
	<path id="Ex mini black (color) 14" d="M200.262 58.4395C196.16 58.4395 192.967 57.3848 190.682 55.2754C188.396 53.166 187.254 50.0679 187.254 45.981C187.254 41.8794 188.389 38.7739 190.66 36.6646C192.93 34.5405 196.087 33.4785 200.13 33.4785C204.188 33.4785 207.3 34.123 209.468 35.4121C211.651 36.7012 212.742 38.6055 212.742 41.125C212.742 41.5205 212.61 41.8428 212.347 42.0918C212.098 42.3408 211.775 42.4653 211.38 42.4653L208.106 42.4653C207.11 42.4653 206.268 41.9307 205.579 40.8613C204.715 39.4844 203.184 38.7959 200.987 38.7959C198.804 38.7959 197.273 39.3599 196.395 40.4878C195.53 41.6011 195.098 43.4248 195.098 45.959C195.098 48.4932 195.545 50.3242 196.438 51.4521C197.347 52.5801 198.914 53.144 201.141 53.144C203.382 53.144 204.935 52.4556 205.799 51.0786C206.487 49.9946 207.33 49.4526 208.326 49.4526L211.6 49.4526C211.995 49.4526 212.317 49.5845 212.566 49.8481C212.83 50.0972 212.962 50.4121 212.962 50.793C212.962 53.3125 211.871 55.2168 209.688 56.5059C207.52 57.7949 204.378 58.4395 200.262 58.4395Z" fill="rgb(0,0,0)" fill-rule="evenodd" />
	<path id="Ex mini black (color) 14" d="M200.262 58.4395C196.16 58.4395 192.967 57.3848 190.682 55.2754C188.396 53.166 187.254 50.0679 187.254 45.981C187.254 41.8794 188.389 38.7739 190.66 36.6646C192.93 34.5405 196.087 33.4785 200.13 33.4785C204.188 33.4785 207.3 34.123 209.468 35.4121C211.651 36.7012 212.742 38.6055 212.742 41.125C212.742 41.5205 212.61 41.8428 212.347 42.0918C212.098 42.3408 211.775 42.4653 211.38 42.4653L208.106 42.4653C207.11 42.4653 206.268 41.9307 205.579 40.8613C204.715 39.4844 203.184 38.7959 200.987 38.7959C198.804 38.7959 197.273 39.3599 196.395 40.4878C195.53 41.6011 195.098 43.4248 195.098 45.959C195.098 48.4932 195.545 50.3242 196.438 51.4521C197.347 52.5801 198.914 53.144 201.141 53.144C203.382 53.144 204.935 52.4556 205.799 51.0786C206.487 49.9946 207.33 49.4526 208.326 49.4526L211.6 49.4526C211.995 49.4526 212.317 49.5845 212.566 49.8481C212.83 50.0972 212.962 50.4121 212.962 50.793C212.962 53.3125 211.871 55.2168 209.688 56.5059C207.52 57.7949 204.378 58.4395 200.262 58.4395Z" fill="rgb(0,0,0)" fill-rule="evenodd" />
	<path id="Ex mini black (color) 14" d="M158.203 56.6597L158.203 35.2803C158.203 34.8848 158.328 34.5625 158.577 34.3135C158.84 34.0498 159.163 33.918 159.543 33.918L164.136 33.918C164.531 33.918 164.854 34.0498 165.103 34.3135C165.366 34.5625 165.498 34.8848 165.498 35.2803L165.498 49.7163L173.232 35.5C173.467 35.0459 173.826 34.6724 174.309 34.3794C174.792 34.0718 175.261 33.918 175.715 33.918L181.868 33.918C182.263 33.918 182.585 34.0498 182.834 34.3135C183.098 34.5625 183.23 34.8848 183.23 35.2803L183.23 56.6597C183.23 57.0552 183.098 57.3774 182.834 57.6265C182.585 57.8755 182.263 58 181.868 58L177.275 58C176.88 58 176.558 57.8755 176.309 57.6265C176.06 57.3628 175.935 57.0405 175.935 56.6597L175.935 42.2456L168.201 56.418C167.966 56.8428 167.607 57.2163 167.124 57.5386C166.641 57.8462 166.172 58 165.718 58L159.543 58C159.148 58 158.826 57.8755 158.577 57.6265C158.328 57.3774 158.203 57.0552 158.203 56.6597ZM163.323 25.5903C163.323 24.8433 163.733 24.4697 164.553 24.4697L166.201 24.4697C166.919 24.4697 167.432 24.8433 167.739 25.5903C168.223 26.7915 169.211 27.3921 170.706 27.3921C172.214 27.3921 173.203 26.7915 173.672 25.5903C173.965 24.8433 174.478 24.4697 175.21 24.4697L176.88 24.4697C177.686 24.4697 178.088 24.8433 178.088 25.5903C178.088 27.3042 177.407 28.7104 176.045 29.8091C174.683 30.9077 172.903 31.457 170.706 31.457C168.523 31.457 166.743 30.9077 165.366 29.8091C164.004 28.7104 163.323 27.3042 163.323 25.5903Z" fill="rgb(0,0,0)" fill-rule="evenodd" />
	<path id="Ex mini black (color) 14" d="M158.203 56.6597L158.203 35.2803C158.203 34.8848 158.328 34.5625 158.577 34.3135C158.84 34.0498 159.163 33.918 159.543 33.918L164.136 33.918C164.531 33.918 164.854 34.0498 165.103 34.3135C165.366 34.5625 165.498 34.8848 165.498 35.2803L165.498 49.7163L173.232 35.5C173.467 35.0459 173.826 34.6724 174.309 34.3794C174.792 34.0718 175.261 33.918 175.715 33.918L181.868 33.918C182.263 33.918 182.585 34.0498 182.834 34.3135C183.098 34.5625 183.23 34.8848 183.23 35.2803L183.23 56.6597C183.23 57.0552 183.098 57.3774 182.834 57.6265C182.585 57.8755 182.263 58 181.868 58L177.275 58C176.88 58 176.558 57.8755 176.309 57.6265C176.06 57.3628 175.935 57.0405 175.935 56.6597L175.935 42.2456L168.201 56.418C167.966 56.8428 167.607 57.2163 167.124 57.5386C166.641 57.8462 166.172 58 165.718 58L159.543 58C159.148 58 158.826 57.8755 158.577 57.6265C158.328 57.3774 158.203 57.0552 158.203 56.6597ZM163.323 25.5903C163.323 24.8433 163.733 24.4697 164.553 24.4697L166.201 24.4697C166.919 24.4697 167.432 24.8433 167.739 25.5903C168.223 26.7915 169.211 27.3921 170.706 27.3921C172.214 27.3921 173.203 26.7915 173.672 25.5903C173.965 24.8433 174.478 24.4697 175.21 24.4697L176.88 24.4697C177.686 24.4697 178.088 24.8433 178.088 25.5903C178.088 27.3042 177.407 28.7104 176.045 29.8091C174.683 30.9077 172.903 31.457 170.706 31.457C168.523 31.457 166.743 30.9077 165.366 29.8091C164.004 28.7104 163.323 27.3042 163.323 25.5903Z" fill="rgb(0,0,0)" fill-rule="evenodd" />
	<path id="Ex mini black (color) 14" d="M127.793 56.6597L127.793 35.2803C127.793 34.8848 127.917 34.5625 128.167 34.3135C128.43 34.0498 128.752 33.918 129.133 33.918L133.726 33.918C134.121 33.918 134.443 34.0498 134.692 34.3135C134.956 34.5625 135.088 34.8848 135.088 35.2803L135.088 49.7163L142.822 35.5C143.057 35.0459 143.416 34.6724 143.899 34.3794C144.382 34.0718 144.851 33.918 145.305 33.918L151.458 33.918C151.853 33.918 152.175 34.0498 152.424 34.3135C152.688 34.5625 152.82 34.8848 152.82 35.2803L152.82 56.6597C152.82 57.0552 152.688 57.3774 152.424 57.6265C152.175 57.8755 151.853 58 151.458 58L146.865 58C146.47 58 146.147 57.8755 145.898 57.6265C145.649 57.3628 145.525 57.0405 145.525 56.6597L145.525 42.2456L137.791 56.418C137.556 56.8428 137.197 57.2163 136.714 57.5386C136.23 57.8462 135.762 58 135.308 58L129.133 58C128.738 58 128.416 57.8755 128.167 57.6265C127.917 57.3774 127.793 57.0552 127.793 56.6597Z" fill="rgb(0,0,0)" fill-rule="evenodd" />
	<path id="Ex mini black (color) 14" d="M127.793 56.6597L127.793 35.2803C127.793 34.8848 127.917 34.5625 128.167 34.3135C128.43 34.0498 128.752 33.918 129.133 33.918L133.726 33.918C134.121 33.918 134.443 34.0498 134.692 34.3135C134.956 34.5625 135.088 34.8848 135.088 35.2803L135.088 49.7163L142.822 35.5C143.057 35.0459 143.416 34.6724 143.899 34.3794C144.382 34.0718 144.851 33.918 145.305 33.918L151.458 33.918C151.853 33.918 152.175 34.0498 152.424 34.3135C152.688 34.5625 152.82 34.8848 152.82 35.2803L152.82 56.6597C152.82 57.0552 152.688 57.3774 152.424 57.6265C152.175 57.8755 151.853 58 151.458 58L146.865 58C146.47 58 146.147 57.8755 145.898 57.6265C145.649 57.3628 145.525 57.0405 145.525 56.6597L145.525 42.2456L137.791 56.418C137.556 56.8428 137.197 57.2163 136.714 57.5386C136.23 57.8462 135.762 58 135.308 58L129.133 58C128.738 58 128.416 57.8755 128.167 57.6265C127.917 57.3774 127.793 57.0552 127.793 56.6597Z" fill="rgb(0,0,0)" fill-rule="evenodd" />
	<path id="Ex mini black (color) 14" d="M95.6714 56.5498L99.6265 40.5757C100.74 36.1372 104.417 33.918 110.657 33.918L121.05 33.918C121.431 33.918 121.746 34.0498 121.995 34.3135C122.258 34.5625 122.39 34.8848 122.39 35.2803L122.39 56.6597C122.39 57.0405 122.258 57.3628 121.995 57.6265C121.746 57.8755 121.431 58 121.05 58L116.128 58C115.747 58 115.425 57.8755 115.161 57.6265C114.912 57.3628 114.788 57.0405 114.788 56.6597L114.788 39.2354L110.657 39.2354C108.606 39.2354 107.31 40.312 106.768 42.4653L103.318 56.374C103.186 56.8574 102.922 57.2529 102.527 57.5605C102.146 57.8535 101.736 58 101.296 58L96.792 58C96.3965 58 96.0962 57.8828 95.8911 57.6484C95.7007 57.3994 95.6055 57.187 95.6055 57.0112C95.6055 56.8354 95.6274 56.6816 95.6714 56.5498Z" fill="rgb(0,0,0)" fill-rule="evenodd" />
	<path id="Ex mini black (color) 14" d="M95.6714 56.5498L99.6265 40.5757C100.74 36.1372 104.417 33.918 110.657 33.918L121.05 33.918C121.431 33.918 121.746 34.0498 121.995 34.3135C122.258 34.5625 122.39 34.8848 122.39 35.2803L122.39 56.6597C122.39 57.0405 122.258 57.3628 121.995 57.6265C121.746 57.8755 121.431 58 121.05 58L116.128 58C115.747 58 115.425 57.8755 115.161 57.6265C114.912 57.3628 114.788 57.0405 114.788 56.6597L114.788 39.2354L110.657 39.2354C108.606 39.2354 107.31 40.312 106.768 42.4653L103.318 56.374C103.186 56.8574 102.922 57.2529 102.527 57.5605C102.146 57.8535 101.736 58 101.296 58L96.792 58C96.3965 58 96.0962 57.8828 95.8911 57.6484C95.7007 57.3994 95.6055 57.187 95.6055 57.0112C95.6055 56.8354 95.6274 56.6816 95.6714 56.5498Z" fill="rgb(0,0,0)" fill-rule="evenodd" />
	<path id="Ex mini black (color) 14" d="M76.4648 56.6597L76.4648 35.2803C76.4648 34.8848 76.5894 34.5625 76.8384 34.3135C77.1021 34.0498 77.4243 33.918 77.8052 33.918L94.2407 33.918C94.6216 33.918 94.9365 34.0498 95.1855 34.3135C95.4492 34.5625 95.5811 34.8848 95.5811 35.2803L95.5811 37.895C95.5811 38.2759 95.4492 38.5981 95.1855 38.8618C94.9365 39.1108 94.6216 39.2354 94.2407 39.2354L84.0674 39.2354L84.0674 56.6597C84.0674 57.0405 83.9355 57.3628 83.6719 57.6265C83.4229 57.8755 83.1079 58 82.7271 58L77.8052 58C77.4243 58 77.1021 57.8755 76.8384 57.6265C76.5894 57.3628 76.4648 57.0405 76.4648 56.6597Z" fill="rgb(0,0,0)" fill-rule="evenodd" />
	<path id="Ex mini black (color) 14" d="M76.4648 56.6597L76.4648 35.2803C76.4648 34.8848 76.5894 34.5625 76.8384 34.3135C77.1021 34.0498 77.4243 33.918 77.8052 33.918L94.2407 33.918C94.6216 33.918 94.9365 34.0498 95.1855 34.3135C95.4492 34.5625 95.5811 34.8848 95.5811 35.2803L95.5811 37.895C95.5811 38.2759 95.4492 38.5981 95.1855 38.8618C94.9365 39.1108 94.6216 39.2354 94.2407 39.2354L84.0674 39.2354L84.0674 56.6597C84.0674 57.0405 83.9355 57.3628 83.6719 57.6265C83.4229 57.8755 83.1079 58 82.7271 58L77.8052 58C77.4243 58 77.1021 57.8755 76.8384 57.6265C76.5894 57.3628 76.4648 57.0405 76.4648 56.6597Z" fill="rgb(0,0,0)" fill-rule="evenodd" />
	<path id="Ex mini black (color) 14" d="M46.2305 56.6597L46.2305 35.2803C46.2305 34.8848 46.355 34.5625 46.604 34.3135C46.8677 34.0498 47.1899 33.918 47.5708 33.918L52.4927 33.918C52.8882 33.918 53.2104 34.0498 53.4595 34.3135C53.7085 34.5625 53.833 34.8848 53.833 35.2803L53.833 43.1465L63.457 43.1465L63.457 35.2803C63.457 34.8848 63.5815 34.5625 63.8306 34.3135C64.0942 34.0498 64.4238 33.918 64.8193 33.918L69.7192 33.918C70.1147 33.918 70.437 34.0498 70.686 34.3135C70.9351 34.5625 71.0596 34.8848 71.0596 35.2803L71.0596 56.6597C71.0596 57.0552 70.9351 57.3774 70.686 57.6265C70.437 57.8755 70.1147 58 69.7192 58L64.8193 58C64.4238 58 64.0942 57.8755 63.8306 57.6265C63.5815 57.3628 63.457 57.0405 63.457 56.6597L63.457 48.4639L53.833 48.4639L53.833 56.6597C53.833 57.0552 53.7012 57.3774 53.4375 57.6265C53.1885 57.8755 52.8735 58 52.4927 58L47.5708 58C47.1753 58 46.853 57.8755 46.604 57.6265C46.355 57.3774 46.2305 57.0552 46.2305 56.6597Z" fill="rgb(0,0,0)" fill-rule="evenodd" />
	<path id="Ex mini black (color) 14" d="M46.2305 56.6597L46.2305 35.2803C46.2305 34.8848 46.355 34.5625 46.604 34.3135C46.8677 34.0498 47.1899 33.918 47.5708 33.918L52.4927 33.918C52.8882 33.918 53.2104 34.0498 53.4595 34.3135C53.7085 34.5625 53.833 34.8848 53.833 35.2803L53.833 43.1465L63.457 43.1465L63.457 35.2803C63.457 34.8848 63.5815 34.5625 63.8306 34.3135C64.0942 34.0498 64.4238 33.918 64.8193 33.918L69.7192 33.918C70.1147 33.918 70.437 34.0498 70.686 34.3135C70.9351 34.5625 71.0596 34.8848 71.0596 35.2803L71.0596 56.6597C71.0596 57.0552 70.9351 57.3774 70.686 57.6265C70.437 57.8755 70.1147 58 69.7192 58L64.8193 58C64.4238 58 64.0942 57.8755 63.8306 57.6265C63.5815 57.3628 63.457 57.0405 63.457 56.6597L63.457 48.4639L53.833 48.4639L53.833 56.6597C53.833 57.0552 53.7012 57.3774 53.4375 57.6265C53.1885 57.8755 52.8735 58 52.4927 58L47.5708 58C47.1753 58 46.853 57.8755 46.604 57.6265C46.355 57.3774 46.2305 57.0552 46.2305 56.6597Z" fill="rgb(0,0,0)" fill-rule="evenodd" />
	<path id="Ex mini black (color) 14" d="M6.54883 55.9785L12.064 35.0605C13.5581 29.3623 18.4214 26.5059 26.6538 26.4912L38.4971 26.4912C39.0391 26.4912 39.4858 26.6963 39.8374 27.1064C40.2036 27.5166 40.3867 27.9927 40.3867 28.5347L40.3867 55.9785C40.3867 56.5498 40.1816 57.0332 39.7715 57.4287C39.3613 57.8096 38.8706 58 38.2993 58L34.1685 58C33.5679 58 33.0698 57.8096 32.6743 57.4287C32.2935 57.0332 32.103 56.5352 32.103 55.9346L32.103 50.3975L16.4805 50.3975L15.0083 55.9346C14.8618 56.5352 14.5322 57.0332 14.0195 57.4287C13.5068 57.8096 12.9648 58 12.3936 58L8.06494 58C7.49365 58 7.0835 57.8389 6.83447 57.5166C6.58545 57.1797 6.46094 56.8867 6.46094 56.6377C6.47559 56.3887 6.50488 56.1689 6.54883 55.9785ZM18.1064 44.1792L32.103 44.1792L32.103 32.7095L25.8408 32.7095C24.4346 32.7095 23.2041 33.1123 22.1494 33.918C21.1094 34.709 20.4062 35.7783 20.04 37.126L18.1064 44.1792Z" fill="rgb(0,0,0)" fill-rule="evenodd" />
	<path id="Ex mini black (color) 14" d="M6.54883 55.9785L12.064 35.0605C13.5581 29.3623 18.4214 26.5059 26.6538 26.4912L38.4971 26.4912C39.0391 26.4912 39.4858 26.6963 39.8374 27.1064C40.2036 27.5166 40.3867 27.9927 40.3867 28.5347L40.3867 55.9785C40.3867 56.5498 40.1816 57.0332 39.7715 57.4287C39.3613 57.8096 38.8706 58 38.2993 58L34.1685 58C33.5679 58 33.0698 57.8096 32.6743 57.4287C32.2935 57.0332 32.103 56.5352 32.103 55.9346L32.103 50.3975L16.4805 50.3975L15.0083 55.9346C14.8618 56.5352 14.5322 57.0332 14.0195 57.4287C13.5068 57.8096 12.9648 58 12.3936 58L8.06494 58C7.49365 58 7.0835 57.8389 6.83447 57.5166C6.58545 57.1797 6.46094 56.8867 6.46094 56.6377C6.47559 56.3887 6.50488 56.1689 6.54883 55.9785ZM18.1064 44.1792L32.103 44.1792L32.103 32.7095L25.8408 32.7095C24.4346 32.7095 23.2041 33.1123 22.1494 33.918C21.1094 34.709 20.4062 35.7783 20.04 37.126L18.1064 44.1792Z" fill="rgb(0,0,0)" fill-rule="evenodd" />
	<path id="Ex mini black (color) 14" d="M1.99973 14.6819L0.526579 11.781C-0.595237 9.57198 0.118629 6.812 2.25602 5.67273C20.7254 -4.17183 38.1704 0.737068 47.1443 5.87485C48.9946 6.93423 49.5103 9.23057 48.4692 11.1422C47.933 12.1266 47.2503 13.3663 46.3912 14.9085C45.1375 17.1592 42.3767 17.8996 40.1214 16.7761C29.1587 11.315 19.5645 11.3085 8.32315 16.7567C6.00579 17.8799 3.1939 17.0335 1.99973 14.6819Z" fill="rgb(0,0,0)" fill-rule="nonzero" />
	<path id="Ex mini black (color) 14" d="M1.99973 14.6819L0.526579 11.781C-0.595237 9.57198 0.118629 6.812 2.25602 5.67273C20.7254 -4.17183 38.1704 0.737068 47.1443 5.87485C48.9946 6.93423 49.5103 9.23057 48.4692 11.1422C47.933 12.1266 47.2503 13.3663 46.3912 14.9085C45.1375 17.1592 42.3767 17.8996 40.1214 16.7761C29.1587 11.315 19.5645 11.3085 8.32315 16.7567C6.00579 17.8799 3.1939 17.0335 1.99973 14.6819Z" fill="rgb(235,21,19)" fill-rule="nonzero" />
</svg>
