<svg viewBox="0 0 415.836 58.4397" xmlns="http://www.w3.org/2000/svg" xmlns:xlink="http://www.w3.org/1999/xlink" width="415.835938" height="58.439697" fill="none" customFrame="#000000">
	<rect id="Ex mini black (color) 20" width="415.834473" height="58.439648" x="0.000000" y="0.000000" fill="rgb(255,255,255)" fill-opacity="0" />
	<path id="Ex mini black (color) 20" d="M415.834 57.0332C415.834 57.6777 415.454 58 414.692 58L410.539 58C409.133 58 408.012 57.3115 407.177 55.9346L404.387 51.3862C403.186 49.438 401.442 48.4639 399.157 48.4639L399.157 56.6597C399.157 57.0552 399.025 57.3774 398.762 57.6265C398.513 57.8755 398.198 58 397.817 58L392.895 58C392.5 58 392.177 57.8755 391.928 57.6265C391.679 57.3774 391.555 57.0552 391.555 56.6597L391.555 35.2803C391.555 34.8848 391.679 34.5625 391.928 34.3135C392.192 34.0498 392.514 33.918 392.895 33.918L397.817 33.918C398.212 33.918 398.535 34.0498 398.784 34.3135C399.033 34.5625 399.157 34.8848 399.157 35.2803L399.157 43.4541C401.706 43.4541 403.449 42.4653 404.387 40.4878L406.496 36.0054C406.789 35.3755 407.221 34.8701 407.792 34.4893C408.364 34.1084 408.979 33.918 409.638 33.918L413.791 33.918C414.523 33.918 414.89 34.2036 414.89 34.7749C414.89 35.0972 414.772 35.5073 414.538 36.0054L411.704 41.9819C411.22 42.978 410.561 43.835 409.726 44.5527C408.891 45.2705 407.99 45.7319 407.023 45.937C408.825 46.479 410.385 47.7974 411.704 49.8921L415.439 55.9346C415.688 56.3594 415.82 56.7256 415.834 57.0332Z" fill="rgb(0,0,0)" fill-rule="evenodd" />
	<path id="Ex mini black (color) 20" d="M352.793 56.6597L352.793 35.2803C352.793 34.8848 352.917 34.5625 353.167 34.3135C353.43 34.0498 353.752 33.918 354.133 33.918L359.055 33.918C359.451 33.918 359.773 34.0498 360.022 34.3135C360.271 34.5625 360.396 34.8848 360.396 35.2803L360.396 41.894L365.625 41.894C368.745 41.894 371.155 42.5093 372.854 43.7397C374.568 44.9702 375.425 47.043 375.425 49.958C375.425 52.8584 374.568 54.9238 372.854 56.1543C371.155 57.3848 368.745 58 365.625 58L354.133 58C353.738 58 353.416 57.8755 353.167 57.6265C352.917 57.3774 352.793 57.0552 352.793 56.6597ZM360.264 53.1001L364.944 53.1001C366.863 53.1001 367.822 52.0527 367.822 49.958C367.822 47.8486 366.863 46.7939 364.944 46.7939L360.264 46.7939L360.264 53.1001ZM378.523 56.6597L378.523 35.2803C378.523 34.8848 378.647 34.5625 378.896 34.3135C379.16 34.0498 379.49 33.918 379.885 33.918L384.785 33.918C385.181 33.918 385.503 34.0498 385.752 34.3135C386.001 34.5625 386.125 34.8848 386.125 35.2803L386.125 56.6597C386.125 57.0552 386.001 57.3774 385.752 57.6265C385.503 57.8755 385.181 58 384.785 58L379.885 58C379.49 58 379.16 57.8755 378.896 57.6265C378.647 57.3774 378.523 57.0552 378.523 56.6597Z" fill="rgb(0,0,0)" fill-rule="evenodd" />
	<path id="Ex mini black (color) 20" d="M352.793 56.6597L352.793 35.2803C352.793 34.8848 352.917 34.5625 353.167 34.3135C353.43 34.0498 353.752 33.918 354.133 33.918L359.055 33.918C359.451 33.918 359.773 34.0498 360.022 34.3135C360.271 34.5625 360.396 34.8848 360.396 35.2803L360.396 41.894L365.625 41.894C368.745 41.894 371.155 42.5093 372.854 43.7397C374.568 44.9702 375.425 47.043 375.425 49.958C375.425 52.8584 374.568 54.9238 372.854 56.1543C371.155 57.3848 368.745 58 365.625 58L354.133 58C353.738 58 353.416 57.8755 353.167 57.6265C352.917 57.3774 352.793 57.0552 352.793 56.6597ZM360.264 53.1001L364.944 53.1001C366.863 53.1001 367.822 52.0527 367.822 49.958C367.822 47.8486 366.863 46.7939 364.944 46.7939L360.264 46.7939L360.264 53.1001ZM378.523 56.6597L378.523 35.2803C378.523 34.8848 378.647 34.5625 378.896 34.3135C379.16 34.0498 379.49 33.918 379.885 33.918L384.785 33.918C385.181 33.918 385.503 34.0498 385.752 34.3135C386.001 34.5625 386.125 34.8848 386.125 35.2803L386.125 56.6597C386.125 57.0552 386.001 57.3774 385.752 57.6265C385.503 57.8755 385.181 58 384.785 58L379.885 58C379.49 58 379.16 57.8755 378.896 57.6265C378.647 57.3774 378.523 57.0552 378.523 56.6597Z" fill="rgb(0,0,0)" fill-rule="evenodd" />
	<path id="Ex mini black (color) 20" d="M323.484 51.8257C323.484 51.4302 323.609 51.1079 323.858 50.8589C324.122 50.6099 324.444 50.4854 324.825 50.4854L328.121 50.4854C329.117 50.4854 329.893 50.9834 330.45 51.9795C331.021 52.9609 332.105 53.4517 333.702 53.4517L338.162 53.4517C340.286 53.4517 341.348 52.5801 341.348 50.8369C341.348 49.0938 340.286 48.2295 338.162 48.2441L332.713 48.2441C332.317 48.2441 331.988 48.1196 331.724 47.8706C331.475 47.6069 331.351 47.2773 331.351 46.8818L331.351 44.5967C331.351 44.2012 331.475 43.8789 331.724 43.6299C331.988 43.3662 332.317 43.2344 332.713 43.2344L337.745 43.2344C338.711 43.2344 339.437 43.022 339.92 42.5972C340.418 42.1577 340.667 41.5791 340.667 40.8613C340.667 40.1436 340.418 39.5649 339.92 39.1255C339.437 38.686 338.711 38.4663 337.745 38.4663L333.702 38.4663C333.189 38.4663 332.662 38.5981 332.12 38.8618C331.578 39.1108 331.175 39.4771 330.911 39.9604C330.34 40.9565 329.556 41.4473 328.56 41.4326L325.286 41.4326C324.891 41.4326 324.561 41.3081 324.297 41.0591C324.048 40.8101 323.924 40.4878 323.924 40.0923C323.924 38.1147 324.883 36.5181 326.802 35.3022C328.736 34.0864 331.065 33.4785 333.79 33.4785L338.206 33.4785C341.297 33.4785 343.743 34.0498 345.545 35.1924C347.361 36.3203 348.27 38.0415 348.27 40.356C348.27 42.6704 347.222 44.3403 345.127 45.3657C347.676 46.6548 348.951 48.6909 348.951 51.4741C348.951 53.9058 348.086 55.6782 346.358 56.7915C344.644 57.8901 342.088 58.4395 338.689 58.4395L333.79 58.4395C330.845 58.4395 328.392 57.8389 326.429 56.6377C324.466 55.4365 323.484 53.8325 323.484 51.8257Z" fill="rgb(0,0,0)" fill-rule="evenodd" />
	<path id="Ex mini black (color) 20" d="M323.484 51.8257C323.484 51.4302 323.609 51.1079 323.858 50.8589C324.122 50.6099 324.444 50.4854 324.825 50.4854L328.121 50.4854C329.117 50.4854 329.893 50.9834 330.45 51.9795C331.021 52.9609 332.105 53.4517 333.702 53.4517L338.162 53.4517C340.286 53.4517 341.348 52.5801 341.348 50.8369C341.348 49.0938 340.286 48.2295 338.162 48.2441L332.713 48.2441C332.317 48.2441 331.988 48.1196 331.724 47.8706C331.475 47.6069 331.351 47.2773 331.351 46.8818L331.351 44.5967C331.351 44.2012 331.475 43.8789 331.724 43.6299C331.988 43.3662 332.317 43.2344 332.713 43.2344L337.745 43.2344C338.711 43.2344 339.437 43.022 339.92 42.5972C340.418 42.1577 340.667 41.5791 340.667 40.8613C340.667 40.1436 340.418 39.5649 339.92 39.1255C339.437 38.686 338.711 38.4663 337.745 38.4663L333.702 38.4663C333.189 38.4663 332.662 38.5981 332.12 38.8618C331.578 39.1108 331.175 39.4771 330.911 39.9604C330.34 40.9565 329.556 41.4473 328.56 41.4326L325.286 41.4326C324.891 41.4326 324.561 41.3081 324.297 41.0591C324.048 40.8101 323.924 40.4878 323.924 40.0923C323.924 38.1147 324.883 36.5181 326.802 35.3022C328.736 34.0864 331.065 33.4785 333.79 33.4785L338.206 33.4785C341.297 33.4785 343.743 34.0498 345.545 35.1924C347.361 36.3203 348.27 38.0415 348.27 40.356C348.27 42.6704 347.222 44.3403 345.127 45.3657C347.676 46.6548 348.951 48.6909 348.951 51.4741C348.951 53.9058 348.086 55.6782 346.358 56.7915C344.644 57.8901 342.088 58.4395 338.689 58.4395L333.79 58.4395C330.845 58.4395 328.392 57.8389 326.429 56.6377C324.466 55.4365 323.484 53.8325 323.484 51.8257Z" fill="rgb(0,0,0)" fill-rule="evenodd" />
	<path id="Ex mini black (color) 20" d="M295.777 41.6743C295.777 36.5181 299.043 33.9326 305.577 33.918L318.541 33.918C318.936 33.918 319.258 34.0498 319.507 34.3135C319.756 34.5625 319.881 34.8848 319.881 35.2803L319.881 56.6597C319.881 57.0552 319.756 57.3774 319.507 57.6265C319.258 57.8755 318.936 58 318.541 58L313.641 58C313.245 58 312.916 57.8755 312.652 57.6265C312.403 57.3628 312.278 57.0405 312.278 56.6597L312.278 49.4087L307.972 49.4087L304.236 56.0664C303.519 57.3555 302.376 58 300.809 58L296.854 58C296.312 58 295.96 57.8022 295.799 57.4067C295.74 57.2749 295.711 57.1064 295.711 56.9014C295.711 56.6816 295.821 56.4033 296.041 56.0664L300.457 48.6836C297.337 47.5264 295.777 45.1899 295.777 41.6743ZM304.148 39.6748C303.636 40.1582 303.379 40.8247 303.379 41.6743C303.379 42.5093 303.628 43.1758 304.126 43.6738C304.639 44.1719 305.35 44.4209 306.258 44.4209L312.278 44.4209L312.278 38.9277L306.258 38.9277C305.364 38.9277 304.661 39.1768 304.148 39.6748Z" fill="rgb(0,0,0)" fill-rule="evenodd" />
	<path id="Ex mini black (color) 20" d="M295.777 41.6743C295.777 36.5181 299.043 33.9326 305.577 33.918L318.541 33.918C318.936 33.918 319.258 34.0498 319.507 34.3135C319.756 34.5625 319.881 34.8848 319.881 35.2803L319.881 56.6597C319.881 57.0552 319.756 57.3774 319.507 57.6265C319.258 57.8755 318.936 58 318.541 58L313.641 58C313.245 58 312.916 57.8755 312.652 57.6265C312.403 57.3628 312.278 57.0405 312.278 56.6597L312.278 49.4087L307.972 49.4087L304.236 56.0664C303.519 57.3555 302.376 58 300.809 58L296.854 58C296.312 58 295.96 57.8022 295.799 57.4067C295.74 57.2749 295.711 57.1064 295.711 56.9014C295.711 56.6816 295.821 56.4033 296.041 56.0664L300.457 48.6836C297.337 47.5264 295.777 45.1899 295.777 41.6743ZM304.148 39.6748C303.636 40.1582 303.379 40.8247 303.379 41.6743C303.379 42.5093 303.628 43.1758 304.126 43.6738C304.639 44.1719 305.35 44.4209 306.258 44.4209L312.278 44.4209L312.278 38.9277L306.258 38.9277C305.364 38.9277 304.661 39.1768 304.148 39.6748Z" fill="rgb(0,0,0)" fill-rule="evenodd" />
	<path id="Ex mini black (color) 20" d="M250.664 56.6597L250.664 35.2803C250.664 34.8848 250.789 34.5625 251.038 34.3135C251.301 34.0498 251.624 33.918 252.004 33.918L256.597 33.918C256.992 33.918 257.314 34.0498 257.563 34.3135C257.827 34.5625 257.959 34.8848 257.959 35.2803L257.959 49.7163L265.693 35.5C265.928 35.0459 266.287 34.6724 266.77 34.3794C267.253 34.0718 267.722 33.918 268.176 33.918L274.329 33.918C274.724 33.918 275.046 34.0498 275.295 34.3135C275.559 34.5625 275.691 34.8848 275.691 35.2803L275.691 56.6597C275.691 57.0552 275.559 57.3774 275.295 57.6265C275.046 57.8755 274.724 58 274.329 58L269.736 58C269.341 58 269.019 57.8755 268.77 57.6265C268.521 57.3628 268.396 57.0405 268.396 56.6597L268.396 42.2456L260.662 56.418C260.427 56.8428 260.068 57.2163 259.585 57.5386C259.102 57.8462 258.633 58 258.179 58L252.004 58C251.609 58 251.287 57.8755 251.038 57.6265C250.789 57.3774 250.664 57.0552 250.664 56.6597ZM255.784 25.5903C255.784 24.8433 256.194 24.4697 257.014 24.4697L258.662 24.4697C259.38 24.4697 259.893 24.8433 260.2 25.5903C260.684 26.7915 261.672 27.3921 263.167 27.3921C264.675 27.3921 265.664 26.7915 266.133 25.5903C266.426 24.8433 266.938 24.4697 267.671 24.4697L269.341 24.4697C270.146 24.4697 270.549 24.8433 270.549 25.5903C270.549 27.3042 269.868 28.7104 268.506 29.8091C267.144 30.9077 265.364 31.457 263.167 31.457C260.984 31.457 259.204 30.9077 257.827 29.8091C256.465 28.7104 255.784 27.3042 255.784 25.5903Z" fill="rgb(0,0,0)" fill-rule="evenodd" />
	<path id="Ex mini black (color) 20" d="M250.664 56.6597L250.664 35.2803C250.664 34.8848 250.789 34.5625 251.038 34.3135C251.301 34.0498 251.624 33.918 252.004 33.918L256.597 33.918C256.992 33.918 257.314 34.0498 257.563 34.3135C257.827 34.5625 257.959 34.8848 257.959 35.2803L257.959 49.7163L265.693 35.5C265.928 35.0459 266.287 34.6724 266.77 34.3794C267.253 34.0718 267.722 33.918 268.176 33.918L274.329 33.918C274.724 33.918 275.046 34.0498 275.295 34.3135C275.559 34.5625 275.691 34.8848 275.691 35.2803L275.691 56.6597C275.691 57.0552 275.559 57.3774 275.295 57.6265C275.046 57.8755 274.724 58 274.329 58L269.736 58C269.341 58 269.019 57.8755 268.77 57.6265C268.521 57.3628 268.396 57.0405 268.396 56.6597L268.396 42.2456L260.662 56.418C260.427 56.8428 260.068 57.2163 259.585 57.5386C259.102 57.8462 258.633 58 258.179 58L252.004 58C251.609 58 251.287 57.8755 251.038 57.6265C250.789 57.3774 250.664 57.0552 250.664 56.6597ZM255.784 25.5903C255.784 24.8433 256.194 24.4697 257.014 24.4697L258.662 24.4697C259.38 24.4697 259.893 24.8433 260.2 25.5903C260.684 26.7915 261.672 27.3921 263.167 27.3921C264.675 27.3921 265.664 26.7915 266.133 25.5903C266.426 24.8433 266.938 24.4697 267.671 24.4697L269.341 24.4697C270.146 24.4697 270.549 24.8433 270.549 25.5903C270.549 27.3042 269.868 28.7104 268.506 29.8091C267.144 30.9077 265.364 31.457 263.167 31.457C260.984 31.457 259.204 30.9077 257.827 29.8091C256.465 28.7104 255.784 27.3042 255.784 25.5903Z" fill="rgb(0,0,0)" fill-rule="evenodd" />
	<path id="Ex mini black (color) 20" d="M220.254 56.6597L220.254 35.2803C220.254 34.8848 220.378 34.5625 220.627 34.3135C220.891 34.0498 221.213 33.918 221.594 33.918L226.187 33.918C226.582 33.918 226.904 34.0498 227.153 34.3135C227.417 34.5625 227.549 34.8848 227.549 35.2803L227.549 49.7163L235.283 35.5C235.518 35.0459 235.876 34.6724 236.36 34.3794C236.843 34.0718 237.312 33.918 237.766 33.918L243.918 33.918C244.314 33.918 244.636 34.0498 244.885 34.3135C245.149 34.5625 245.281 34.8848 245.281 35.2803L245.281 56.6597C245.281 57.0552 245.149 57.3774 244.885 57.6265C244.636 57.8755 244.314 58 243.918 58L239.326 58C238.931 58 238.608 57.8755 238.359 57.6265C238.11 57.3628 237.986 57.0405 237.986 56.6597L237.986 42.2456L230.251 56.418C230.017 56.8428 229.658 57.2163 229.175 57.5386C228.691 57.8462 228.223 58 227.769 58L221.594 58C221.199 58 220.876 57.8755 220.627 57.6265C220.378 57.3774 220.254 57.0552 220.254 56.6597Z" fill="rgb(0,0,0)" fill-rule="evenodd" />
	<path id="Ex mini black (color) 20" d="M220.254 56.6597L220.254 35.2803C220.254 34.8848 220.378 34.5625 220.627 34.3135C220.891 34.0498 221.213 33.918 221.594 33.918L226.187 33.918C226.582 33.918 226.904 34.0498 227.153 34.3135C227.417 34.5625 227.549 34.8848 227.549 35.2803L227.549 49.7163L235.283 35.5C235.518 35.0459 235.876 34.6724 236.36 34.3794C236.843 34.0718 237.312 33.918 237.766 33.918L243.918 33.918C244.314 33.918 244.636 34.0498 244.885 34.3135C245.149 34.5625 245.281 34.8848 245.281 35.2803L245.281 56.6597C245.281 57.0552 245.149 57.3774 244.885 57.6265C244.636 57.8755 244.314 58 243.918 58L239.326 58C238.931 58 238.608 57.8755 238.359 57.6265C238.11 57.3628 237.986 57.0405 237.986 56.6597L237.986 42.2456L230.251 56.418C230.017 56.8428 229.658 57.2163 229.175 57.5386C228.691 57.8462 228.223 58 227.769 58L221.594 58C221.199 58 220.876 57.8755 220.627 57.6265C220.378 57.3774 220.254 57.0552 220.254 56.6597Z" fill="rgb(0,0,0)" fill-rule="evenodd" />
	<path id="Ex mini black (color) 20" d="M217.069 57.0332C217.069 57.6777 216.688 58 215.926 58L211.773 58C210.367 58 209.247 57.3115 208.412 55.9346L205.621 51.3862C204.42 49.438 202.677 48.4639 200.392 48.4639L200.392 56.6597C200.392 57.0552 200.26 57.3774 199.996 57.6265C199.747 57.8755 199.432 58 199.051 58L194.129 58C193.734 58 193.412 57.8755 193.163 57.6265C192.914 57.3774 192.789 57.0552 192.789 56.6597L192.789 35.2803C192.789 34.8848 192.914 34.5625 193.163 34.3135C193.426 34.0498 193.749 33.918 194.129 33.918L199.051 33.918C199.447 33.918 199.769 34.0498 200.018 34.3135C200.267 34.5625 200.392 34.8848 200.392 35.2803L200.392 43.4541C202.94 43.4541 204.684 42.4653 205.621 40.4878L207.73 36.0054C208.023 35.3755 208.456 34.8701 209.027 34.4893C209.598 34.1084 210.213 33.918 210.873 33.918L215.025 33.918C215.758 33.918 216.124 34.2036 216.124 34.7749C216.124 35.0972 216.007 35.5073 215.772 36.0054L212.938 41.9819C212.455 42.978 211.795 43.835 210.96 44.5527C210.125 45.2705 209.225 45.7319 208.258 45.937C210.06 46.479 211.62 47.7974 212.938 49.8921L216.673 55.9346C216.922 56.3594 217.054 56.7256 217.069 57.0332Z" fill="rgb(0,0,0)" fill-rule="evenodd" />
	<path id="Ex mini black (color) 20" d="M217.069 57.0332C217.069 57.6777 216.688 58 215.926 58L211.773 58C210.367 58 209.247 57.3115 208.412 55.9346L205.621 51.3862C204.42 49.438 202.677 48.4639 200.392 48.4639L200.392 56.6597C200.392 57.0552 200.26 57.3774 199.996 57.6265C199.747 57.8755 199.432 58 199.051 58L194.129 58C193.734 58 193.412 57.8755 193.163 57.6265C192.914 57.3774 192.789 57.0552 192.789 56.6597L192.789 35.2803C192.789 34.8848 192.914 34.5625 193.163 34.3135C193.426 34.0498 193.749 33.918 194.129 33.918L199.051 33.918C199.447 33.918 199.769 34.0498 200.018 34.3135C200.267 34.5625 200.392 34.8848 200.392 35.2803L200.392 43.4541C202.94 43.4541 204.684 42.4653 205.621 40.4878L207.73 36.0054C208.023 35.3755 208.456 34.8701 209.027 34.4893C209.598 34.1084 210.213 33.918 210.873 33.918L215.025 33.918C215.758 33.918 216.124 34.2036 216.124 34.7749C216.124 35.0972 216.007 35.5073 215.772 36.0054L212.938 41.9819C212.455 42.978 211.795 43.835 210.96 44.5527C210.125 45.2705 209.225 45.7319 208.258 45.937C210.06 46.479 211.62 47.7974 212.938 49.8921L216.673 55.9346C216.922 56.3594 217.054 56.7256 217.069 57.0332Z" fill="rgb(0,0,0)" fill-rule="evenodd" />
	<path id="Ex mini black (color) 20" d="M176.484 58.4395C172.383 58.4395 169.189 57.3848 166.904 55.2754C164.619 53.166 163.477 50.0679 163.477 45.981C163.477 41.8794 164.612 38.7739 166.882 36.6646C169.153 34.5405 172.31 33.4785 176.353 33.4785C180.41 33.4785 183.523 34.123 185.691 35.4121C187.874 36.7012 188.965 38.6055 188.965 41.125C188.965 41.5205 188.833 41.8428 188.569 42.0918C188.32 42.3408 187.998 42.4653 187.603 42.4653L184.329 42.4653C183.333 42.4653 182.49 41.9307 181.802 40.8613C180.938 39.4844 179.407 38.7959 177.209 38.7959C175.027 38.7959 173.496 39.3599 172.617 40.4878C171.753 41.6011 171.321 43.4248 171.321 45.959C171.321 48.4932 171.768 50.3242 172.661 51.4521C173.569 52.5801 175.137 53.144 177.363 53.144C179.604 53.144 181.157 52.4556 182.021 51.0786C182.71 49.9946 183.552 49.4526 184.548 49.4526L187.822 49.4526C188.218 49.4526 188.54 49.5845 188.789 49.8481C189.053 50.0972 189.185 50.4121 189.185 50.793C189.185 53.3125 188.093 55.2168 185.911 56.5059C183.743 57.7949 180.601 58.4395 176.484 58.4395Z" fill="rgb(0,0,0)" fill-rule="evenodd" />
	<path id="Ex mini black (color) 20" d="M176.484 58.4395C172.383 58.4395 169.189 57.3848 166.904 55.2754C164.619 53.166 163.477 50.0679 163.477 45.981C163.477 41.8794 164.612 38.7739 166.882 36.6646C169.153 34.5405 172.31 33.4785 176.353 33.4785C180.41 33.4785 183.523 34.123 185.691 35.4121C187.874 36.7012 188.965 38.6055 188.965 41.125C188.965 41.5205 188.833 41.8428 188.569 42.0918C188.32 42.3408 187.998 42.4653 187.603 42.4653L184.329 42.4653C183.333 42.4653 182.49 41.9307 181.802 40.8613C180.938 39.4844 179.407 38.7959 177.209 38.7959C175.027 38.7959 173.496 39.3599 172.617 40.4878C171.753 41.6011 171.321 43.4248 171.321 45.959C171.321 48.4932 171.768 50.3242 172.661 51.4521C173.569 52.5801 175.137 53.144 177.363 53.144C179.604 53.144 181.157 52.4556 182.021 51.0786C182.71 49.9946 183.552 49.4526 184.548 49.4526L187.822 49.4526C188.218 49.4526 188.54 49.5845 188.789 49.8481C189.053 50.0972 189.185 50.4121 189.185 50.793C189.185 53.3125 188.093 55.2168 185.911 56.5059C183.743 57.7949 180.601 58.4395 176.484 58.4395Z" fill="rgb(0,0,0)" fill-rule="evenodd" />
	<path id="Ex mini black (color) 20" d="M134.605 56.6597L134.605 35.2803C134.605 34.8848 134.73 34.5625 134.979 34.3135C135.243 34.0498 135.565 33.918 135.946 33.918L140.868 33.918C141.263 33.918 141.585 34.0498 141.834 34.3135C142.083 34.5625 142.208 34.8848 142.208 35.2803L142.208 43.1465L151.832 43.1465L151.832 35.2803C151.832 34.8848 151.957 34.5625 152.206 34.3135C152.469 34.0498 152.799 33.918 153.194 33.918L158.094 33.918C158.49 33.918 158.812 34.0498 159.061 34.3135C159.31 34.5625 159.435 34.8848 159.435 35.2803L159.435 56.6597C159.435 57.0552 159.31 57.3774 159.061 57.6265C158.812 57.8755 158.49 58 158.094 58L153.194 58C152.799 58 152.469 57.8755 152.206 57.6265C151.957 57.3628 151.832 57.0405 151.832 56.6597L151.832 48.4639L142.208 48.4639L142.208 56.6597C142.208 57.0552 142.076 57.3774 141.812 57.6265C141.563 57.8755 141.249 58 140.868 58L135.946 58C135.55 58 135.228 57.8755 134.979 57.6265C134.73 57.3774 134.605 57.0552 134.605 56.6597Z" fill="rgb(0,0,0)" fill-rule="evenodd" />
	<path id="Ex mini black (color) 20" d="M134.605 56.6597L134.605 35.2803C134.605 34.8848 134.73 34.5625 134.979 34.3135C135.243 34.0498 135.565 33.918 135.946 33.918L140.868 33.918C141.263 33.918 141.585 34.0498 141.834 34.3135C142.083 34.5625 142.208 34.8848 142.208 35.2803L142.208 43.1465L151.832 43.1465L151.832 35.2803C151.832 34.8848 151.957 34.5625 152.206 34.3135C152.469 34.0498 152.799 33.918 153.194 33.918L158.094 33.918C158.49 33.918 158.812 34.0498 159.061 34.3135C159.31 34.5625 159.435 34.8848 159.435 35.2803L159.435 56.6597C159.435 57.0552 159.31 57.3774 159.061 57.6265C158.812 57.8755 158.49 58 158.094 58L153.194 58C152.799 58 152.469 57.8755 152.206 57.6265C151.957 57.3628 151.832 57.0405 151.832 56.6597L151.832 48.4639L142.208 48.4639L142.208 56.6597C142.208 57.0552 142.076 57.3774 141.812 57.6265C141.563 57.8755 141.249 58 140.868 58L135.946 58C135.55 58 135.228 57.8755 134.979 57.6265C134.73 57.3774 134.605 57.0552 134.605 56.6597Z" fill="rgb(0,0,0)" fill-rule="evenodd" />
	<path id="Ex mini black (color) 20" d="M106.787 56.418C104.854 55.0703 103.887 53.166 103.887 50.7051C103.887 48.2441 104.854 46.3545 106.787 45.0361C108.735 43.7178 111.24 43.0586 114.302 43.0586L121.575 43.0586C121.575 41.3447 121.216 40.1509 120.498 39.4771C119.78 38.8032 118.521 38.4663 116.719 38.4663C114.932 38.4663 113.672 38.9131 112.939 39.8066C112.222 40.6855 111.335 41.125 110.281 41.125L107.007 41.125C106.611 41.125 106.282 41.0005 106.018 40.7515C105.769 40.4878 105.645 40.1655 105.645 39.7847C105.645 35.5806 109.636 33.4785 117.62 33.4785C121.106 33.4785 123.904 34.2622 126.013 35.8296C128.123 37.3823 129.177 39.792 129.177 43.0586L129.177 56.6597C129.177 57.0552 129.053 57.3774 128.804 57.6265C128.555 57.8755 128.232 58 127.837 58L123.596 58C123.201 58 122.878 57.8755 122.629 57.6265C122.38 57.3628 122.256 57.0405 122.256 56.6597L122.256 55.9785C119.941 57.6338 117.268 58.4541 114.236 58.4395C111.218 58.4395 108.735 57.7656 106.787 56.418ZM114.829 48.0464C113.804 48.0464 112.991 48.2954 112.39 48.7935C111.804 49.2915 111.511 49.936 111.511 50.7271C111.511 51.5181 111.819 52.1699 112.434 52.6826C113.049 53.1953 113.921 53.4517 115.049 53.4517C117.305 53.4517 119.48 52.7925 121.575 51.4741L121.575 48.0464L114.829 48.0464Z" fill="rgb(0,0,0)" fill-rule="evenodd" />
	<path id="Ex mini black (color) 20" d="M106.787 56.418C104.854 55.0703 103.887 53.166 103.887 50.7051C103.887 48.2441 104.854 46.3545 106.787 45.0361C108.735 43.7178 111.24 43.0586 114.302 43.0586L121.575 43.0586C121.575 41.3447 121.216 40.1509 120.498 39.4771C119.78 38.8032 118.521 38.4663 116.719 38.4663C114.932 38.4663 113.672 38.9131 112.939 39.8066C112.222 40.6855 111.335 41.125 110.281 41.125L107.007 41.125C106.611 41.125 106.282 41.0005 106.018 40.7515C105.769 40.4878 105.645 40.1655 105.645 39.7847C105.645 35.5806 109.636 33.4785 117.62 33.4785C121.106 33.4785 123.904 34.2622 126.013 35.8296C128.123 37.3823 129.177 39.792 129.177 43.0586L129.177 56.6597C129.177 57.0552 129.053 57.3774 128.804 57.6265C128.555 57.8755 128.232 58 127.837 58L123.596 58C123.201 58 122.878 57.8755 122.629 57.6265C122.38 57.3628 122.256 57.0405 122.256 56.6597L122.256 55.9785C119.941 57.6338 117.268 58.4541 114.236 58.4395C111.218 58.4395 108.735 57.7656 106.787 56.418ZM114.829 48.0464C113.804 48.0464 112.991 48.2954 112.39 48.7935C111.804 49.2915 111.511 49.936 111.511 50.7271C111.511 51.5181 111.819 52.1699 112.434 52.6826C113.049 53.1953 113.921 53.4517 115.049 53.4517C117.305 53.4517 119.48 52.7925 121.575 51.4741L121.575 48.0464L114.829 48.0464Z" fill="rgb(0,0,0)" fill-rule="evenodd" />
	<path id="Ex mini black (color) 20" d="M75.0156 56.6597L75.0156 35.2803C75.0156 34.8848 75.1401 34.5625 75.3892 34.3135C75.6528 34.0498 75.9751 33.918 76.356 33.918L98.5044 33.918C98.8999 33.918 99.2222 34.0498 99.4712 34.3135C99.7202 34.5625 99.8447 34.8848 99.8447 35.2803L99.8447 56.6597C99.8447 57.0552 99.7202 57.3774 99.4712 57.6265C99.2222 57.8755 98.8999 58 98.5044 58L93.6045 58C93.209 58 92.8794 57.8755 92.6157 57.6265C92.3667 57.3628 92.2422 57.0405 92.2422 56.6597L92.2422 39.2354L82.6182 39.2354L82.6182 56.6597C82.6182 57.0552 82.4863 57.3774 82.2227 57.6265C81.9736 57.8755 81.6587 58 81.2778 58L76.356 58C75.9604 58 75.6382 57.8755 75.3892 57.6265C75.1401 57.3774 75.0156 57.0552 75.0156 56.6597Z" fill="rgb(0,0,0)" fill-rule="evenodd" />
	<path id="Ex mini black (color) 20" d="M75.0156 56.6597L75.0156 35.2803C75.0156 34.8848 75.1401 34.5625 75.3892 34.3135C75.6528 34.0498 75.9751 33.918 76.356 33.918L98.5044 33.918C98.8999 33.918 99.2222 34.0498 99.4712 34.3135C99.7202 34.5625 99.8447 34.8848 99.8447 35.2803L99.8447 56.6597C99.8447 57.0552 99.7202 57.3774 99.4712 57.6265C99.2222 57.8755 98.8999 58 98.5044 58L93.6045 58C93.209 58 92.8794 57.8755 92.6157 57.6265C92.3667 57.3628 92.2422 57.0405 92.2422 56.6597L92.2422 39.2354L82.6182 39.2354L82.6182 56.6597C82.6182 57.0552 82.4863 57.3774 82.2227 57.6265C81.9736 57.8755 81.6587 58 81.2778 58L76.356 58C75.9604 58 75.6382 57.8755 75.3892 57.6265C75.1401 57.3774 75.0156 57.0552 75.0156 56.6597Z" fill="rgb(0,0,0)" fill-rule="evenodd" />
	<path id="Ex mini black (color) 20" d="M58.7109 58.4395C54.6094 58.4395 51.416 57.3848 49.1309 55.2754C46.8457 53.166 45.7031 50.0679 45.7031 45.981C45.7031 41.8794 46.8384 38.7739 49.1089 36.6646C51.3794 34.5405 54.5361 33.4785 58.5791 33.4785C62.6367 33.4785 65.7495 34.123 67.9175 35.4121C70.1001 36.7012 71.1914 38.6055 71.1914 41.125C71.1914 41.5205 71.0596 41.8428 70.7959 42.0918C70.5469 42.3408 70.2246 42.4653 69.8291 42.4653L66.5552 42.4653C65.5591 42.4653 64.7168 41.9307 64.0283 40.8613C63.1641 39.4844 61.6333 38.7959 59.436 38.7959C57.2534 38.7959 55.7227 39.3599 54.8438 40.4878C53.9795 41.6011 53.5474 43.4248 53.5474 45.959C53.5474 48.4932 53.9941 50.3242 54.8877 51.4521C55.7959 52.5801 57.3633 53.144 59.5898 53.144C61.8311 53.144 63.3838 52.4556 64.248 51.0786C64.9365 49.9946 65.7788 49.4526 66.7749 49.4526L70.0488 49.4526C70.4443 49.4526 70.7666 49.5845 71.0156 49.8481C71.2793 50.0972 71.4111 50.4121 71.4111 50.793C71.4111 53.3125 70.3198 55.2168 68.1372 56.5059C65.9692 57.7949 62.8271 58.4395 58.7109 58.4395Z" fill="rgb(0,0,0)" fill-rule="evenodd" />
	<path id="Ex mini black (color) 20" d="M58.7109 58.4395C54.6094 58.4395 51.416 57.3848 49.1309 55.2754C46.8457 53.166 45.7031 50.0679 45.7031 45.981C45.7031 41.8794 46.8384 38.7739 49.1089 36.6646C51.3794 34.5405 54.5361 33.4785 58.5791 33.4785C62.6367 33.4785 65.7495 34.123 67.9175 35.4121C70.1001 36.7012 71.1914 38.6055 71.1914 41.125C71.1914 41.5205 71.0596 41.8428 70.7959 42.0918C70.5469 42.3408 70.2246 42.4653 69.8291 42.4653L66.5552 42.4653C65.5591 42.4653 64.7168 41.9307 64.0283 40.8613C63.1641 39.4844 61.6333 38.7959 59.436 38.7959C57.2534 38.7959 55.7227 39.3599 54.8438 40.4878C53.9795 41.6011 53.5474 43.4248 53.5474 45.959C53.5474 48.4932 53.9941 50.3242 54.8877 51.4521C55.7959 52.5801 57.3633 53.144 59.5898 53.144C61.8311 53.144 63.3838 52.4556 64.248 51.0786C64.9365 49.9946 65.7788 49.4526 66.7749 49.4526L70.0488 49.4526C70.4443 49.4526 70.7666 49.5845 71.0156 49.8481C71.2793 50.0972 71.4111 50.4121 71.4111 50.793C71.4111 53.3125 70.3198 55.2168 68.1372 56.5059C65.9692 57.7949 62.8271 58.4395 58.7109 58.4395Z" fill="rgb(0,0,0)" fill-rule="evenodd" />
	<path id="Ex mini black (color) 20" d="M9.14062 55.9346L9.14062 28.5786C9.14062 27.978 9.33838 27.48 9.73389 27.0845C10.1294 26.689 10.6274 26.4912 11.228 26.4912L15.0952 26.4912C15.6665 26.4912 16.1499 26.689 16.5454 27.0845C16.9556 27.48 17.1606 27.9634 17.1606 28.5347L17.1606 50.5293L29.6631 28.5786C30 28.0073 30.4614 27.5166 31.0474 27.1064C31.6333 26.6963 32.1753 26.4912 32.6733 26.4912L39.1553 26.4912C39.7266 26.4912 40.21 26.6963 40.6055 27.1064C41.001 27.5166 41.1987 28.0073 41.1987 28.5786L41.1987 55.9346C41.1987 56.5059 40.9937 56.9966 40.5835 57.4067C40.1733 57.8022 39.6826 58 39.1113 58L35.2441 58C34.6729 58 34.1821 57.8022 33.772 57.4067C33.3765 56.9966 33.1787 56.5059 33.1787 55.9346L33.1787 35.5439L21.709 55.9346C21.3721 56.5059 20.896 56.9966 20.2808 57.4067C19.6655 57.8022 19.0723 58 18.501 58L11.228 58C10.6567 58 10.166 57.8022 9.75586 57.4067C9.3457 56.9966 9.14062 56.5059 9.14062 55.9346Z" fill="rgb(0,0,0)" fill-rule="evenodd" />
	<path id="Ex mini black (color) 20" d="M9.14062 55.9346L9.14062 28.5786C9.14062 27.978 9.33838 27.48 9.73389 27.0845C10.1294 26.689 10.6274 26.4912 11.228 26.4912L15.0952 26.4912C15.6665 26.4912 16.1499 26.689 16.5454 27.0845C16.9556 27.48 17.1606 27.9634 17.1606 28.5347L17.1606 50.5293L29.6631 28.5786C30 28.0073 30.4614 27.5166 31.0474 27.1064C31.6333 26.6963 32.1753 26.4912 32.6733 26.4912L39.1553 26.4912C39.7266 26.4912 40.21 26.6963 40.6055 27.1064C41.001 27.5166 41.1987 28.0073 41.1987 28.5786L41.1987 55.9346C41.1987 56.5059 40.9937 56.9966 40.5835 57.4067C40.1733 57.8022 39.6826 58 39.1113 58L35.2441 58C34.6729 58 34.1821 57.8022 33.772 57.4067C33.3765 56.9966 33.1787 56.5059 33.1787 55.9346L33.1787 35.5439L21.709 55.9346C21.3721 56.5059 20.896 56.9966 20.2808 57.4067C19.6655 57.8022 19.0723 58 18.501 58L11.228 58C10.6567 58 10.166 57.8022 9.75586 57.4067C9.3457 56.9966 9.14062 56.5059 9.14062 55.9346Z" fill="rgb(0,0,0)" fill-rule="evenodd" />
	<path id="Ex mini black (color) 20" d="M1.99973 14.6819L0.526579 11.781C-0.595237 9.57198 0.118629 6.812 2.25602 5.67273C20.7254 -4.17183 38.1704 0.737068 47.1443 5.87485C48.9946 6.93423 49.5103 9.23057 48.4692 11.1422C47.933 12.1266 47.2503 13.3663 46.3912 14.9085C45.1375 17.1592 42.3767 17.8996 40.1214 16.7761C29.1587 11.315 19.5645 11.3085 8.32315 16.7567C6.00579 17.8799 3.1939 17.0335 1.99973 14.6819Z" fill="rgb(0,0,0)" fill-rule="nonzero" />
	<path id="Ex mini black (color) 20" d="M1.99973 14.6819L0.526579 11.781C-0.595237 9.57198 0.118629 6.812 2.25602 5.67273C20.7254 -4.17183 38.1704 0.737068 47.1443 5.87485C48.9946 6.93423 49.5103 9.23057 48.4692 11.1422C47.933 12.1266 47.2503 13.3663 46.3912 14.9085C45.1375 17.1592 42.3767 17.8996 40.1214 16.7761C29.1587 11.315 19.5645 11.3085 8.32315 16.7567C6.00579 17.8799 3.1939 17.0335 1.99973 14.6819Z" fill="rgb(186,0,17)" fill-rule="nonzero" />
</svg>
