<svg viewBox="0 0 395.578 58.4395" xmlns="http://www.w3.org/2000/svg" xmlns:xlink="http://www.w3.org/1999/xlink" width="395.578125" height="58.439453" fill="none" customFrame="#000000">
	<rect id="Ex mini black (color) 16" width="395.576660" height="58.439529" x="0.000000" y="0.000000" fill="rgb(255,255,255)" fill-opacity="0" />
	<path id="Ex mini black (color) 16" d="M395.577 57.0332C395.577 57.6777 395.196 58 394.434 58L390.281 58C388.875 58 387.754 57.3115 386.919 55.9346L384.129 51.3862C382.928 49.438 381.185 48.4639 378.899 48.4639L378.899 56.6597C378.899 57.0552 378.768 57.3774 378.504 57.6265C378.255 57.8755 377.94 58 377.559 58L372.637 58C372.242 58 371.919 57.8755 371.67 57.6265C371.421 57.3774 371.297 57.0552 371.297 56.6597L371.297 35.2803C371.297 34.8848 371.421 34.5625 371.67 34.3135C371.934 34.0498 372.256 33.918 372.637 33.918L377.559 33.918C377.955 33.918 378.277 34.0498 378.526 34.3135C378.775 34.5625 378.899 34.8848 378.899 35.2803L378.899 43.4541C381.448 43.4541 383.191 42.4653 384.129 40.4878L386.238 36.0054C386.531 35.3755 386.963 34.8701 387.535 34.4893C388.106 34.1084 388.721 33.918 389.38 33.918L393.533 33.918C394.266 33.918 394.632 34.2036 394.632 34.7749C394.632 35.0972 394.515 35.5073 394.28 36.0054L391.446 41.9819C390.962 42.978 390.303 43.835 389.468 44.5527C388.633 45.2705 387.732 45.7319 386.766 45.937C388.567 46.479 390.127 47.7974 391.446 49.8921L395.181 55.9346C395.43 56.3594 395.562 56.7256 395.577 57.0332Z" fill="rgb(0,0,0)" fill-rule="evenodd" />
	<path id="Ex mini black (color) 16" d="M332.535 56.6597L332.535 35.2803C332.535 34.8848 332.66 34.5625 332.909 34.3135C333.172 34.0498 333.495 33.918 333.875 33.918L338.797 33.918C339.193 33.918 339.515 34.0498 339.764 34.3135C340.013 34.5625 340.138 34.8848 340.138 35.2803L340.138 41.894L345.367 41.894C348.487 41.894 350.897 42.5093 352.596 43.7397C354.31 44.9702 355.167 47.043 355.167 49.958C355.167 52.8584 354.31 54.9238 352.596 56.1543C350.897 57.3848 348.487 58 345.367 58L333.875 58C333.48 58 333.158 57.8755 332.909 57.6265C332.66 57.3774 332.535 57.0552 332.535 56.6597ZM340.006 53.1001L344.686 53.1001C346.605 53.1001 347.564 52.0527 347.564 49.958C347.564 47.8486 346.605 46.7939 344.686 46.7939L340.006 46.7939L340.006 53.1001ZM358.265 56.6597L358.265 35.2803C358.265 34.8848 358.39 34.5625 358.639 34.3135C358.902 34.0498 359.232 33.918 359.627 33.918L364.527 33.918C364.923 33.918 365.245 34.0498 365.494 34.3135C365.743 34.5625 365.868 34.8848 365.868 35.2803L365.868 56.6597C365.868 57.0552 365.743 57.3774 365.494 57.6265C365.245 57.8755 364.923 58 364.527 58L359.627 58C359.232 58 358.902 57.8755 358.639 57.6265C358.39 57.3774 358.265 57.0552 358.265 56.6597Z" fill="rgb(0,0,0)" fill-rule="evenodd" />
	<path id="Ex mini black (color) 16" d="M332.535 56.6597L332.535 35.2803C332.535 34.8848 332.66 34.5625 332.909 34.3135C333.172 34.0498 333.495 33.918 333.875 33.918L338.797 33.918C339.193 33.918 339.515 34.0498 339.764 34.3135C340.013 34.5625 340.138 34.8848 340.138 35.2803L340.138 41.894L345.367 41.894C348.487 41.894 350.897 42.5093 352.596 43.7397C354.31 44.9702 355.167 47.043 355.167 49.958C355.167 52.8584 354.31 54.9238 352.596 56.1543C350.897 57.3848 348.487 58 345.367 58L333.875 58C333.48 58 333.158 57.8755 332.909 57.6265C332.66 57.3774 332.535 57.0552 332.535 56.6597ZM340.006 53.1001L344.686 53.1001C346.605 53.1001 347.564 52.0527 347.564 49.958C347.564 47.8486 346.605 46.7939 344.686 46.7939L340.006 46.7939L340.006 53.1001ZM358.265 56.6597L358.265 35.2803C358.265 34.8848 358.39 34.5625 358.639 34.3135C358.902 34.0498 359.232 33.918 359.627 33.918L364.527 33.918C364.923 33.918 365.245 34.0498 365.494 34.3135C365.743 34.5625 365.868 34.8848 365.868 35.2803L365.868 56.6597C365.868 57.0552 365.743 57.3774 365.494 57.6265C365.245 57.8755 364.923 58 364.527 58L359.627 58C359.232 58 358.902 57.8755 358.639 57.6265C358.39 57.3774 358.265 57.0552 358.265 56.6597Z" fill="rgb(0,0,0)" fill-rule="evenodd" />
	<path id="Ex mini black (color) 16" d="M303.223 51.8257C303.223 51.4302 303.347 51.1079 303.596 50.8589C303.86 50.6099 304.182 50.4854 304.563 50.4854L307.859 50.4854C308.855 50.4854 309.631 50.9834 310.188 51.9795C310.759 52.9609 311.843 53.4517 313.44 53.4517L317.9 53.4517C320.024 53.4517 321.086 52.5801 321.086 50.8369C321.086 49.0938 320.024 48.2295 317.9 48.2441L312.451 48.2441C312.056 48.2441 311.726 48.1196 311.462 47.8706C311.213 47.6069 311.089 47.2773 311.089 46.8818L311.089 44.5967C311.089 44.2012 311.213 43.8789 311.462 43.6299C311.726 43.3662 312.056 43.2344 312.451 43.2344L317.483 43.2344C318.45 43.2344 319.175 43.022 319.658 42.5972C320.156 42.1577 320.405 41.5791 320.405 40.8613C320.405 40.1436 320.156 39.5649 319.658 39.1255C319.175 38.686 318.45 38.4663 317.483 38.4663L313.44 38.4663C312.927 38.4663 312.4 38.5981 311.858 38.8618C311.316 39.1108 310.913 39.4771 310.649 39.9604C310.078 40.9565 309.294 41.4473 308.298 41.4326L305.024 41.4326C304.629 41.4326 304.299 41.3081 304.036 41.0591C303.787 40.8101 303.662 40.4878 303.662 40.0923C303.662 38.1147 304.622 36.5181 306.541 35.3022C308.474 34.0864 310.803 33.4785 313.528 33.4785L317.944 33.4785C321.035 33.4785 323.481 34.0498 325.283 35.1924C327.1 36.3203 328.008 38.0415 328.008 40.356C328.008 42.6704 326.96 44.3403 324.866 45.3657C327.415 46.6548 328.689 48.6909 328.689 51.4741C328.689 53.9058 327.825 55.6782 326.096 56.7915C324.382 57.8901 321.826 58.4395 318.428 58.4395L313.528 58.4395C310.583 58.4395 308.13 57.8389 306.167 56.6377C304.204 55.4365 303.223 53.8325 303.223 51.8257Z" fill="rgb(0,0,0)" fill-rule="evenodd" />
	<path id="Ex mini black (color) 16" d="M303.223 51.8257C303.223 51.4302 303.347 51.1079 303.596 50.8589C303.86 50.6099 304.182 50.4854 304.563 50.4854L307.859 50.4854C308.855 50.4854 309.631 50.9834 310.188 51.9795C310.759 52.9609 311.843 53.4517 313.44 53.4517L317.9 53.4517C320.024 53.4517 321.086 52.5801 321.086 50.8369C321.086 49.0938 320.024 48.2295 317.9 48.2441L312.451 48.2441C312.056 48.2441 311.726 48.1196 311.462 47.8706C311.213 47.6069 311.089 47.2773 311.089 46.8818L311.089 44.5967C311.089 44.2012 311.213 43.8789 311.462 43.6299C311.726 43.3662 312.056 43.2344 312.451 43.2344L317.483 43.2344C318.45 43.2344 319.175 43.022 319.658 42.5972C320.156 42.1577 320.405 41.5791 320.405 40.8613C320.405 40.1436 320.156 39.5649 319.658 39.1255C319.175 38.686 318.45 38.4663 317.483 38.4663L313.44 38.4663C312.927 38.4663 312.4 38.5981 311.858 38.8618C311.316 39.1108 310.913 39.4771 310.649 39.9604C310.078 40.9565 309.294 41.4473 308.298 41.4326L305.024 41.4326C304.629 41.4326 304.299 41.3081 304.036 41.0591C303.787 40.8101 303.662 40.4878 303.662 40.0923C303.662 38.1147 304.622 36.5181 306.541 35.3022C308.474 34.0864 310.803 33.4785 313.528 33.4785L317.944 33.4785C321.035 33.4785 323.481 34.0498 325.283 35.1924C327.1 36.3203 328.008 38.0415 328.008 40.356C328.008 42.6704 326.96 44.3403 324.866 45.3657C327.415 46.6548 328.689 48.6909 328.689 51.4741C328.689 53.9058 327.825 55.6782 326.096 56.7915C324.382 57.8901 321.826 58.4395 318.428 58.4395L313.528 58.4395C310.583 58.4395 308.13 57.8389 306.167 56.6377C304.204 55.4365 303.223 53.8325 303.223 51.8257Z" fill="rgb(0,0,0)" fill-rule="evenodd" />
	<path id="Ex mini black (color) 16" d="M275.515 41.6743C275.515 36.5181 278.782 33.9326 285.315 33.918L298.279 33.918C298.674 33.918 298.997 34.0498 299.246 34.3135C299.495 34.5625 299.619 34.8848 299.619 35.2803L299.619 56.6597C299.619 57.0552 299.495 57.3774 299.246 57.6265C298.997 57.8755 298.674 58 298.279 58L293.379 58C292.983 58 292.654 57.8755 292.39 57.6265C292.141 57.3628 292.017 57.0405 292.017 56.6597L292.017 49.4087L287.71 49.4087L283.975 56.0664C283.257 57.3555 282.114 58 280.547 58L276.592 58C276.05 58 275.698 57.8022 275.537 57.4067C275.479 57.2749 275.449 57.1064 275.449 56.9014C275.449 56.6816 275.559 56.4033 275.779 56.0664L280.195 48.6836C277.075 47.5264 275.515 45.1899 275.515 41.6743ZM283.887 39.6748C283.374 40.1582 283.118 40.8247 283.118 41.6743C283.118 42.5093 283.367 43.1758 283.865 43.6738C284.377 44.1719 285.088 44.4209 285.996 44.4209L292.017 44.4209L292.017 38.9277L285.996 38.9277C285.103 38.9277 284.399 39.1768 283.887 39.6748Z" fill="rgb(0,0,0)" fill-rule="evenodd" />
	<path id="Ex mini black (color) 16" d="M275.515 41.6743C275.515 36.5181 278.782 33.9326 285.315 33.918L298.279 33.918C298.674 33.918 298.997 34.0498 299.246 34.3135C299.495 34.5625 299.619 34.8848 299.619 35.2803L299.619 56.6597C299.619 57.0552 299.495 57.3774 299.246 57.6265C298.997 57.8755 298.674 58 298.279 58L293.379 58C292.983 58 292.654 57.8755 292.39 57.6265C292.141 57.3628 292.017 57.0405 292.017 56.6597L292.017 49.4087L287.71 49.4087L283.975 56.0664C283.257 57.3555 282.114 58 280.547 58L276.592 58C276.05 58 275.698 57.8022 275.537 57.4067C275.479 57.2749 275.449 57.1064 275.449 56.9014C275.449 56.6816 275.559 56.4033 275.779 56.0664L280.195 48.6836C277.075 47.5264 275.515 45.1899 275.515 41.6743ZM283.887 39.6748C283.374 40.1582 283.118 40.8247 283.118 41.6743C283.118 42.5093 283.367 43.1758 283.865 43.6738C284.377 44.1719 285.088 44.4209 285.996 44.4209L292.017 44.4209L292.017 38.9277L285.996 38.9277C285.103 38.9277 284.399 39.1768 283.887 39.6748Z" fill="rgb(0,0,0)" fill-rule="evenodd" />
	<path id="Ex mini black (color) 16" d="M230.406 56.6597L230.406 35.2803C230.406 34.8848 230.531 34.5625 230.78 34.3135C231.043 34.0498 231.366 33.918 231.747 33.918L236.339 33.918C236.734 33.918 237.057 34.0498 237.306 34.3135C237.569 34.5625 237.701 34.8848 237.701 35.2803L237.701 49.7163L245.436 35.5C245.67 35.0459 246.029 34.6724 246.512 34.3794C246.996 34.0718 247.464 33.918 247.918 33.918L254.071 33.918C254.466 33.918 254.789 34.0498 255.038 34.3135C255.301 34.5625 255.433 34.8848 255.433 35.2803L255.433 56.6597C255.433 57.0552 255.301 57.3774 255.038 57.6265C254.789 57.8755 254.466 58 254.071 58L249.479 58C249.083 58 248.761 57.8755 248.512 57.6265C248.263 57.3628 248.138 57.0405 248.138 56.6597L248.138 42.2456L240.404 56.418C240.169 56.8428 239.811 57.2163 239.327 57.5386C238.844 57.8462 238.375 58 237.921 58L231.747 58C231.351 58 231.029 57.8755 230.78 57.6265C230.531 57.3774 230.406 57.0552 230.406 56.6597ZM235.526 25.5903C235.526 24.8433 235.936 24.4697 236.756 24.4697L238.404 24.4697C239.122 24.4697 239.635 24.8433 239.942 25.5903C240.426 26.7915 241.415 27.3921 242.909 27.3921C244.417 27.3921 245.406 26.7915 245.875 25.5903C246.168 24.8433 246.681 24.4697 247.413 24.4697L249.083 24.4697C249.889 24.4697 250.292 24.8433 250.292 25.5903C250.292 27.3042 249.61 28.7104 248.248 29.8091C246.886 30.9077 245.106 31.457 242.909 31.457C240.726 31.457 238.946 30.9077 237.569 29.8091C236.207 28.7104 235.526 27.3042 235.526 25.5903Z" fill="rgb(0,0,0)" fill-rule="evenodd" />
	<path id="Ex mini black (color) 16" d="M230.406 56.6597L230.406 35.2803C230.406 34.8848 230.531 34.5625 230.78 34.3135C231.043 34.0498 231.366 33.918 231.747 33.918L236.339 33.918C236.734 33.918 237.057 34.0498 237.306 34.3135C237.569 34.5625 237.701 34.8848 237.701 35.2803L237.701 49.7163L245.436 35.5C245.67 35.0459 246.029 34.6724 246.512 34.3794C246.996 34.0718 247.464 33.918 247.918 33.918L254.071 33.918C254.466 33.918 254.789 34.0498 255.038 34.3135C255.301 34.5625 255.433 34.8848 255.433 35.2803L255.433 56.6597C255.433 57.0552 255.301 57.3774 255.038 57.6265C254.789 57.8755 254.466 58 254.071 58L249.479 58C249.083 58 248.761 57.8755 248.512 57.6265C248.263 57.3628 248.138 57.0405 248.138 56.6597L248.138 42.2456L240.404 56.418C240.169 56.8428 239.811 57.2163 239.327 57.5386C238.844 57.8462 238.375 58 237.921 58L231.747 58C231.351 58 231.029 57.8755 230.78 57.6265C230.531 57.3774 230.406 57.0552 230.406 56.6597ZM235.526 25.5903C235.526 24.8433 235.936 24.4697 236.756 24.4697L238.404 24.4697C239.122 24.4697 239.635 24.8433 239.942 25.5903C240.426 26.7915 241.415 27.3921 242.909 27.3921C244.417 27.3921 245.406 26.7915 245.875 25.5903C246.168 24.8433 246.681 24.4697 247.413 24.4697L249.083 24.4697C249.889 24.4697 250.292 24.8433 250.292 25.5903C250.292 27.3042 249.61 28.7104 248.248 29.8091C246.886 30.9077 245.106 31.457 242.909 31.457C240.726 31.457 238.946 30.9077 237.569 29.8091C236.207 28.7104 235.526 27.3042 235.526 25.5903Z" fill="rgb(0,0,0)" fill-rule="evenodd" />
	<path id="Ex mini black (color) 16" d="M199.996 56.6597L199.996 35.2803C199.996 34.8848 200.121 34.5625 200.37 34.3135C200.633 34.0498 200.956 33.918 201.336 33.918L205.929 33.918C206.324 33.918 206.646 34.0498 206.896 34.3135C207.159 34.5625 207.291 34.8848 207.291 35.2803L207.291 49.7163L215.025 35.5C215.26 35.0459 215.619 34.6724 216.102 34.3794C216.585 34.0718 217.054 33.918 217.508 33.918L223.661 33.918C224.056 33.918 224.378 34.0498 224.627 34.3135C224.891 34.5625 225.023 34.8848 225.023 35.2803L225.023 56.6597C225.023 57.0552 224.891 57.3774 224.627 57.6265C224.378 57.8755 224.056 58 223.661 58L219.068 58C218.673 58 218.351 57.8755 218.102 57.6265C217.853 57.3628 217.728 57.0405 217.728 56.6597L217.728 42.2456L209.994 56.418C209.759 56.8428 209.4 57.2163 208.917 57.5386C208.434 57.8462 207.965 58 207.511 58L201.336 58C200.941 58 200.619 57.8755 200.37 57.6265C200.121 57.3774 199.996 57.0552 199.996 56.6597Z" fill="rgb(0,0,0)" fill-rule="evenodd" />
	<path id="Ex mini black (color) 16" d="M199.996 56.6597L199.996 35.2803C199.996 34.8848 200.121 34.5625 200.37 34.3135C200.633 34.0498 200.956 33.918 201.336 33.918L205.929 33.918C206.324 33.918 206.646 34.0498 206.896 34.3135C207.159 34.5625 207.291 34.8848 207.291 35.2803L207.291 49.7163L215.025 35.5C215.26 35.0459 215.619 34.6724 216.102 34.3794C216.585 34.0718 217.054 33.918 217.508 33.918L223.661 33.918C224.056 33.918 224.378 34.0498 224.627 34.3135C224.891 34.5625 225.023 34.8848 225.023 35.2803L225.023 56.6597C225.023 57.0552 224.891 57.3774 224.627 57.6265C224.378 57.8755 224.056 58 223.661 58L219.068 58C218.673 58 218.351 57.8755 218.102 57.6265C217.853 57.3628 217.728 57.0405 217.728 56.6597L217.728 42.2456L209.994 56.418C209.759 56.8428 209.4 57.2163 208.917 57.5386C208.434 57.8462 207.965 58 207.511 58L201.336 58C200.941 58 200.619 57.8755 200.37 57.6265C200.121 57.3774 199.996 57.0552 199.996 56.6597Z" fill="rgb(0,0,0)" fill-rule="evenodd" />
	<path id="Ex mini black (color) 16" d="M196.811 57.0332C196.811 57.6777 196.43 58 195.668 58L191.516 58C190.109 58 188.989 57.3115 188.154 55.9346L185.363 51.3862C184.162 49.438 182.419 48.4639 180.134 48.4639L180.134 56.6597C180.134 57.0552 180.002 57.3774 179.738 57.6265C179.489 57.8755 179.174 58 178.793 58L173.872 58C173.476 58 173.154 57.8755 172.905 57.6265C172.656 57.3774 172.531 57.0552 172.531 56.6597L172.531 35.2803C172.531 34.8848 172.656 34.5625 172.905 34.3135C173.168 34.0498 173.491 33.918 173.872 33.918L178.793 33.918C179.189 33.918 179.511 34.0498 179.76 34.3135C180.009 34.5625 180.134 34.8848 180.134 35.2803L180.134 43.4541C182.683 43.4541 184.426 42.4653 185.363 40.4878L187.473 36.0054C187.766 35.3755 188.198 34.8701 188.769 34.4893C189.34 34.1084 189.956 33.918 190.615 33.918L194.768 33.918C195.5 33.918 195.866 34.2036 195.866 34.7749C195.866 35.0972 195.749 35.5073 195.515 36.0054L192.68 41.9819C192.197 42.978 191.538 43.835 190.703 44.5527C189.868 45.2705 188.967 45.7319 188 45.937C189.802 46.479 191.362 47.7974 192.68 49.8921L196.416 55.9346C196.665 56.3594 196.796 56.7256 196.811 57.0332Z" fill="rgb(0,0,0)" fill-rule="evenodd" />
	<path id="Ex mini black (color) 16" d="M196.811 57.0332C196.811 57.6777 196.43 58 195.668 58L191.516 58C190.109 58 188.989 57.3115 188.154 55.9346L185.363 51.3862C184.162 49.438 182.419 48.4639 180.134 48.4639L180.134 56.6597C180.134 57.0552 180.002 57.3774 179.738 57.6265C179.489 57.8755 179.174 58 178.793 58L173.872 58C173.476 58 173.154 57.8755 172.905 57.6265C172.656 57.3774 172.531 57.0552 172.531 56.6597L172.531 35.2803C172.531 34.8848 172.656 34.5625 172.905 34.3135C173.168 34.0498 173.491 33.918 173.872 33.918L178.793 33.918C179.189 33.918 179.511 34.0498 179.76 34.3135C180.009 34.5625 180.134 34.8848 180.134 35.2803L180.134 43.4541C182.683 43.4541 184.426 42.4653 185.363 40.4878L187.473 36.0054C187.766 35.3755 188.198 34.8701 188.769 34.4893C189.34 34.1084 189.956 33.918 190.615 33.918L194.768 33.918C195.5 33.918 195.866 34.2036 195.866 34.7749C195.866 35.0972 195.749 35.5073 195.515 36.0054L192.68 41.9819C192.197 42.978 191.538 43.835 190.703 44.5527C189.868 45.2705 188.967 45.7319 188 45.937C189.802 46.479 191.362 47.7974 192.68 49.8921L196.416 55.9346C196.665 56.3594 196.796 56.7256 196.811 57.0332Z" fill="rgb(0,0,0)" fill-rule="evenodd" />
	<path id="Ex mini black (color) 16" d="M141.285 56.6597L141.285 35.2803C141.285 34.8848 141.41 34.5625 141.659 34.3135C141.922 34.0498 142.245 33.918 142.625 33.918L147.547 33.918C147.943 33.918 148.265 34.0498 148.514 34.3135C148.763 34.5625 148.888 34.8848 148.888 35.2803L148.888 52.6826L158.248 52.6826L158.248 35.2803C158.248 34.8848 158.373 34.5625 158.622 34.3135C158.885 34.0498 159.208 33.918 159.588 33.918L164.51 33.918C164.906 33.918 165.228 34.0498 165.477 34.3135C165.726 34.5625 165.851 34.8848 165.851 35.2803L165.851 52.6826L168.004 52.6826C168.399 52.6826 168.722 52.8145 168.971 53.0781C169.234 53.3271 169.366 53.6494 169.366 54.0449L169.366 56.6597C169.366 57.0552 169.234 57.3774 168.971 57.6265C168.722 57.8755 168.399 58 168.004 58L142.625 58C142.23 58 141.908 57.8755 141.659 57.6265C141.41 57.3774 141.285 57.0552 141.285 56.6597Z" fill="rgb(0,0,0)" fill-rule="evenodd" />
	<path id="Ex mini black (color) 16" d="M141.285 56.6597L141.285 35.2803C141.285 34.8848 141.41 34.5625 141.659 34.3135C141.922 34.0498 142.245 33.918 142.625 33.918L147.547 33.918C147.943 33.918 148.265 34.0498 148.514 34.3135C148.763 34.5625 148.888 34.8848 148.888 35.2803L148.888 52.6826L158.248 52.6826L158.248 35.2803C158.248 34.8848 158.373 34.5625 158.622 34.3135C158.885 34.0498 159.208 33.918 159.588 33.918L164.51 33.918C164.906 33.918 165.228 34.0498 165.477 34.3135C165.726 34.5625 165.851 34.8848 165.851 35.2803L165.851 52.6826L168.004 52.6826C168.399 52.6826 168.722 52.8145 168.971 53.0781C169.234 53.3271 169.366 53.6494 169.366 54.0449L169.366 56.6597C169.366 57.0552 169.234 57.3774 168.971 57.6265C168.722 57.8755 168.399 58 168.004 58L142.625 58C142.23 58 141.908 57.8755 141.659 57.6265C141.41 57.3774 141.285 57.0552 141.285 56.6597Z" fill="rgb(0,0,0)" fill-rule="evenodd" />
	<path id="Ex mini black (color) 16" d="M114.962 55.2314C112.706 53.0928 111.578 50.0166 111.578 46.0029C111.578 41.9746 112.713 38.8838 114.984 36.7305C117.254 34.5625 120.404 33.4785 124.432 33.4785C128.46 33.4785 131.603 34.5332 133.858 36.6426C136.114 38.7373 137.242 41.7476 137.242 45.6733L137.242 46.9258C137.242 47.3213 137.11 47.6509 136.847 47.9146C136.598 48.1636 136.275 48.2881 135.88 48.2881L119.334 48.2881C119.481 50.0898 119.994 51.4009 120.873 52.2212C121.766 53.0415 123.187 53.4517 125.135 53.4517C127.083 53.4517 128.417 53.0122 129.134 52.1333C129.852 51.2544 130.738 50.8076 131.793 50.793L135.067 50.793C135.462 50.793 135.785 50.9248 136.034 51.1885C136.297 51.4375 136.429 51.7598 136.429 52.1553C136.429 56.3594 132.423 58.4541 124.41 58.4395C120.367 58.4395 117.218 57.3701 114.962 55.2314ZM119.291 43.6519L129.508 43.6519C129.361 40.1948 127.662 38.4663 124.41 38.4663C121.173 38.4663 119.466 40.1948 119.291 43.6519Z" fill="rgb(0,0,0)" fill-rule="evenodd" />
	<path id="Ex mini black (color) 16" d="M114.962 55.2314C112.706 53.0928 111.578 50.0166 111.578 46.0029C111.578 41.9746 112.713 38.8838 114.984 36.7305C117.254 34.5625 120.404 33.4785 124.432 33.4785C128.46 33.4785 131.603 34.5332 133.858 36.6426C136.114 38.7373 137.242 41.7476 137.242 45.6733L137.242 46.9258C137.242 47.3213 137.11 47.6509 136.847 47.9146C136.598 48.1636 136.275 48.2881 135.88 48.2881L119.334 48.2881C119.481 50.0898 119.994 51.4009 120.873 52.2212C121.766 53.0415 123.187 53.4517 125.135 53.4517C127.083 53.4517 128.417 53.0122 129.134 52.1333C129.852 51.2544 130.738 50.8076 131.793 50.793L135.067 50.793C135.462 50.793 135.785 50.9248 136.034 51.1885C136.297 51.4375 136.429 51.7598 136.429 52.1553C136.429 56.3594 132.423 58.4541 124.41 58.4395C120.367 58.4395 117.218 57.3701 114.962 55.2314ZM119.291 43.6519L129.508 43.6519C129.361 40.1948 127.662 38.4663 124.41 38.4663C121.173 38.4663 119.466 40.1948 119.291 43.6519Z" fill="rgb(0,0,0)" fill-rule="evenodd" />
	<path id="Ex mini black (color) 16" d="M75.0586 56.6597L75.0586 35.2803C75.0586 34.8848 75.1831 34.5625 75.4321 34.3135C75.6958 34.0498 76.0181 33.918 76.3989 33.918L83.9575 33.918C84.8218 33.918 85.481 34.46 85.9351 35.5439L91.2964 48.6396L96.6577 35.5439C97.1118 34.46 97.771 33.918 98.6353 33.918L106.194 33.918C106.589 33.918 106.912 34.0498 107.161 34.3135C107.424 34.5625 107.556 34.8848 107.556 35.2803L107.556 56.6597C107.556 57.0552 107.424 57.3774 107.161 57.6265C106.912 57.8755 106.589 58 106.194 58L101.426 58C101.03 58 100.708 57.8755 100.459 57.6265C100.21 57.3628 100.085 57.0405 100.085 56.6597L100.085 42.9268L94.4604 56.4619C94.0063 57.4873 93.3105 58 92.373 58L90.2197 58C89.2969 58 88.6084 57.4873 88.1543 56.4619L82.5293 42.9268L82.5293 56.6597C82.5293 57.0552 82.3975 57.3774 82.1338 57.6265C81.8848 57.8755 81.5625 58 81.167 58L76.3989 58C76.0034 58 75.6812 57.8755 75.4321 57.6265C75.1831 57.3774 75.0586 57.0552 75.0586 56.6597Z" fill="rgb(0,0,0)" fill-rule="evenodd" />
	<path id="Ex mini black (color) 16" d="M75.0586 56.6597L75.0586 35.2803C75.0586 34.8848 75.1831 34.5625 75.4321 34.3135C75.6958 34.0498 76.0181 33.918 76.3989 33.918L83.9575 33.918C84.8218 33.918 85.481 34.46 85.9351 35.5439L91.2964 48.6396L96.6577 35.5439C97.1118 34.46 97.771 33.918 98.6353 33.918L106.194 33.918C106.589 33.918 106.912 34.0498 107.161 34.3135C107.424 34.5625 107.556 34.8848 107.556 35.2803L107.556 56.6597C107.556 57.0552 107.424 57.3774 107.161 57.6265C106.912 57.8755 106.589 58 106.194 58L101.426 58C101.03 58 100.708 57.8755 100.459 57.6265C100.21 57.3628 100.085 57.0405 100.085 56.6597L100.085 42.9268L94.4604 56.4619C94.0063 57.4873 93.3105 58 92.373 58L90.2197 58C89.2969 58 88.6084 57.4873 88.1543 56.4619L82.5293 42.9268L82.5293 56.6597C82.5293 57.0552 82.3975 57.3774 82.1338 57.6265C81.8848 57.8755 81.5625 58 81.167 58L76.3989 58C76.0034 58 75.6812 57.8755 75.4321 57.6265C75.1831 57.3774 75.0586 57.0552 75.0586 56.6597Z" fill="rgb(0,0,0)" fill-rule="evenodd" />
	<path id="Ex mini black (color) 16" d="M48.7354 55.2314C46.4795 53.0928 45.3516 50.0166 45.3516 46.0029C45.3516 41.9746 46.4868 38.8838 48.7573 36.7305C51.0278 34.5625 54.1772 33.4785 58.2056 33.4785C62.2339 33.4785 65.376 34.5332 67.6318 36.6426C69.8877 38.7373 71.0156 41.7476 71.0156 45.6733L71.0156 46.9258C71.0156 47.3213 70.8838 47.6509 70.6201 47.9146C70.3711 48.1636 70.0488 48.2881 69.6533 48.2881L53.1079 48.2881C53.2544 50.0898 53.7671 51.4009 54.646 52.2212C55.5396 53.0415 56.9604 53.4517 58.9087 53.4517C60.8569 53.4517 62.1899 53.0122 62.9077 52.1333C63.6255 51.2544 64.5117 50.8076 65.5664 50.793L68.8403 50.793C69.2358 50.793 69.5581 50.9248 69.8071 51.1885C70.0708 51.4375 70.2026 51.7598 70.2026 52.1553C70.2026 56.3594 66.1963 58.4541 58.1836 58.4395C54.1406 58.4395 50.9912 57.3701 48.7354 55.2314ZM53.064 43.6519L63.2812 43.6519C63.1348 40.1948 61.4355 38.4663 58.1836 38.4663C54.9463 38.4663 53.2397 40.1948 53.064 43.6519Z" fill="rgb(0,0,0)" fill-rule="evenodd" />
	<path id="Ex mini black (color) 16" d="M48.7354 55.2314C46.4795 53.0928 45.3516 50.0166 45.3516 46.0029C45.3516 41.9746 46.4868 38.8838 48.7573 36.7305C51.0278 34.5625 54.1772 33.4785 58.2056 33.4785C62.2339 33.4785 65.376 34.5332 67.6318 36.6426C69.8877 38.7373 71.0156 41.7476 71.0156 45.6733L71.0156 46.9258C71.0156 47.3213 70.8838 47.6509 70.6201 47.9146C70.3711 48.1636 70.0488 48.2881 69.6533 48.2881L53.1079 48.2881C53.2544 50.0898 53.7671 51.4009 54.646 52.2212C55.5396 53.0415 56.9604 53.4517 58.9087 53.4517C60.8569 53.4517 62.1899 53.0122 62.9077 52.1333C63.6255 51.2544 64.5117 50.8076 65.5664 50.793L68.8403 50.793C69.2358 50.793 69.5581 50.9248 69.8071 51.1885C70.0708 51.4375 70.2026 51.7598 70.2026 52.1553C70.2026 56.3594 66.1963 58.4541 58.1836 58.4395C54.1406 58.4395 50.9912 57.3701 48.7354 55.2314ZM53.064 43.6519L63.2812 43.6519C63.1348 40.1948 61.4355 38.4663 58.1836 38.4663C54.9463 38.4663 53.2397 40.1948 53.064 43.6519Z" fill="rgb(0,0,0)" fill-rule="evenodd" />
	<path id="Ex mini black (color) 16" d="M9.14062 55.9346L9.14062 28.5786C9.14062 28.0073 9.3457 27.5166 9.75586 27.1064C10.166 26.6963 10.6714 26.4912 11.272 26.4912L15.3589 26.4912C15.9302 26.4912 16.4136 26.6963 16.8091 27.1064C17.2192 27.5166 17.4243 28.0073 17.4243 28.5786L17.4243 38.4663L32.5415 38.4663L32.5415 28.5786C32.5415 28.0073 32.7466 27.5166 33.1567 27.1064C33.5669 26.6963 34.0576 26.4912 34.6289 26.4912L38.7158 26.4912C39.3164 26.4912 39.8145 26.6963 40.21 27.1064C40.6201 27.5166 40.8252 28.0073 40.8252 28.5786L40.8252 55.9346C40.8252 56.5059 40.6128 56.9966 40.188 57.4067C39.7778 57.8022 39.2871 58 38.7158 58L34.6289 58C34.0576 58 33.5669 57.8096 33.1567 57.4287C32.7466 57.0332 32.5415 56.5498 32.5415 55.9785L32.5415 44.6846L17.4243 44.6846L17.4243 55.9785C17.4243 56.5498 17.2192 57.0332 16.8091 57.4287C16.4136 57.8096 15.9302 58 15.3589 58L11.272 58C10.7007 58 10.2026 57.8022 9.77783 57.4067C9.35303 56.9966 9.14062 56.5059 9.14062 55.9346Z" fill="rgb(0,0,0)" fill-rule="evenodd" />
	<path id="Ex mini black (color) 16" d="M9.14062 55.9346L9.14062 28.5786C9.14062 28.0073 9.3457 27.5166 9.75586 27.1064C10.166 26.6963 10.6714 26.4912 11.272 26.4912L15.3589 26.4912C15.9302 26.4912 16.4136 26.6963 16.8091 27.1064C17.2192 27.5166 17.4243 28.0073 17.4243 28.5786L17.4243 38.4663L32.5415 38.4663L32.5415 28.5786C32.5415 28.0073 32.7466 27.5166 33.1567 27.1064C33.5669 26.6963 34.0576 26.4912 34.6289 26.4912L38.7158 26.4912C39.3164 26.4912 39.8145 26.6963 40.21 27.1064C40.6201 27.5166 40.8252 28.0073 40.8252 28.5786L40.8252 55.9346C40.8252 56.5059 40.6128 56.9966 40.188 57.4067C39.7778 57.8022 39.2871 58 38.7158 58L34.6289 58C34.0576 58 33.5669 57.8096 33.1567 57.4287C32.7466 57.0332 32.5415 56.5498 32.5415 55.9785L32.5415 44.6846L17.4243 44.6846L17.4243 55.9785C17.4243 56.5498 17.2192 57.0332 16.8091 57.4287C16.4136 57.8096 15.9302 58 15.3589 58L11.272 58C10.7007 58 10.2026 57.8022 9.77783 57.4067C9.35303 56.9966 9.14062 56.5059 9.14062 55.9346Z" fill="rgb(0,0,0)" fill-rule="evenodd" />
	<path id="Ex mini black (color) 16" d="M1.99973 14.6819L0.526579 11.781C-0.595237 9.57198 0.118629 6.812 2.25602 5.67273C20.7254 -4.17183 38.1704 0.737068 47.1443 5.87485C48.9946 6.93423 49.5103 9.23057 48.4692 11.1422C47.933 12.1266 47.2503 13.3663 46.3912 14.9085C45.1375 17.1592 42.3767 17.8996 40.1214 16.7761C29.1587 11.315 19.5645 11.3085 8.32315 16.7567C6.00579 17.8799 3.1939 17.0335 1.99973 14.6819Z" fill="rgb(0,0,0)" fill-rule="nonzero" />
	<path id="Ex mini black (color) 16" d="M1.99973 14.6819L0.526579 11.781C-0.595237 9.57198 0.118629 6.812 2.25602 5.67273C20.7254 -4.17183 38.1704 0.737068 47.1443 5.87485C48.9946 6.93423 49.5103 9.23057 48.4692 11.1422C47.933 12.1266 47.2503 13.3663 46.3912 14.9085C45.1375 17.1592 42.3767 17.8996 40.1214 16.7761C29.1587 11.315 19.5645 11.3085 8.32315 16.7567C6.00579 17.8799 3.1939 17.0335 1.99973 14.6819Z" fill="rgb(255,204,0)" fill-rule="nonzero" />
</svg>
