<svg viewBox="0 0 475.676 65.8662" xmlns="http://www.w3.org/2000/svg" xmlns:xlink="http://www.w3.org/1999/xlink" width="475.675781" height="65.866211" fill="none" customFrame="#000000">
	<rect id="Ex mini black (color) 18" width="475.674316" height="65.866211" x="0.000000" y="0.000000" fill="rgb(255,255,255)" fill-opacity="0" />
	<path id="Ex mini black (color) 18" d="M475.674 57.0332C475.674 57.6777 475.293 58 474.532 58L470.379 58C468.973 58 467.852 57.3115 467.017 55.9346L464.227 51.3862C463.025 49.438 461.282 48.4639 458.997 48.4639L458.997 56.6597C458.997 57.0552 458.865 57.3774 458.602 57.6265C458.353 57.8755 458.038 58 457.657 58L452.735 58C452.339 58 452.017 57.8755 451.768 57.6265C451.519 57.3774 451.395 57.0552 451.395 56.6597L451.395 35.2803C451.395 34.8848 451.519 34.5625 451.768 34.3135C452.032 34.0498 452.354 33.918 452.735 33.918L457.657 33.918C458.052 33.918 458.375 34.0498 458.624 34.3135C458.873 34.5625 458.997 34.8848 458.997 35.2803L458.997 43.4541C461.546 43.4541 463.289 42.4653 464.227 40.4878L466.336 36.0054C466.629 35.3755 467.061 34.8701 467.632 34.4893C468.204 34.1084 468.819 33.918 469.478 33.918L473.631 33.918C474.363 33.918 474.729 34.2036 474.729 34.7749C474.729 35.0972 474.612 35.5073 474.378 36.0054L471.543 41.9819C471.06 42.978 470.401 43.835 469.566 44.5527C468.731 45.2705 467.83 45.7319 466.863 45.937C468.665 46.479 470.225 47.7974 471.543 49.8921L475.279 55.9346C475.528 56.3594 475.66 56.7256 475.674 57.0332Z" fill="rgb(0,0,0)" fill-rule="evenodd" />
	<path id="Ex mini black (color) 18" d="M412.637 56.6597L412.637 35.2803C412.637 34.8848 412.761 34.5625 413.01 34.3135C413.274 34.0498 413.596 33.918 413.977 33.918L418.899 33.918C419.294 33.918 419.617 34.0498 419.866 34.3135C420.115 34.5625 420.239 34.8848 420.239 35.2803L420.239 41.894L425.469 41.894C428.589 41.894 430.999 42.5093 432.698 43.7397C434.412 44.9702 435.269 47.043 435.269 49.958C435.269 52.8584 434.412 54.9238 432.698 56.1543C430.999 57.3848 428.589 58 425.469 58L413.977 58C413.582 58 413.259 57.8755 413.01 57.6265C412.761 57.3774 412.637 57.0552 412.637 56.6597ZM420.107 53.1001L424.788 53.1001C426.707 53.1001 427.666 52.0527 427.666 49.958C427.666 47.8486 426.707 46.7939 424.788 46.7939L420.107 46.7939L420.107 53.1001ZM438.367 56.6597L438.367 35.2803C438.367 34.8848 438.491 34.5625 438.74 34.3135C439.004 34.0498 439.333 33.918 439.729 33.918L444.629 33.918C445.024 33.918 445.347 34.0498 445.596 34.3135C445.845 34.5625 445.969 34.8848 445.969 35.2803L445.969 56.6597C445.969 57.0552 445.845 57.3774 445.596 57.6265C445.347 57.8755 445.024 58 444.629 58L439.729 58C439.333 58 439.004 57.8755 438.74 57.6265C438.491 57.3774 438.367 57.0552 438.367 56.6597Z" fill="rgb(0,0,0)" fill-rule="evenodd" />
	<path id="Ex mini black (color) 18" d="M412.637 56.6597L412.637 35.2803C412.637 34.8848 412.761 34.5625 413.01 34.3135C413.274 34.0498 413.596 33.918 413.977 33.918L418.899 33.918C419.294 33.918 419.617 34.0498 419.866 34.3135C420.115 34.5625 420.239 34.8848 420.239 35.2803L420.239 41.894L425.469 41.894C428.589 41.894 430.999 42.5093 432.698 43.7397C434.412 44.9702 435.269 47.043 435.269 49.958C435.269 52.8584 434.412 54.9238 432.698 56.1543C430.999 57.3848 428.589 58 425.469 58L413.977 58C413.582 58 413.259 57.8755 413.01 57.6265C412.761 57.3774 412.637 57.0552 412.637 56.6597ZM420.107 53.1001L424.788 53.1001C426.707 53.1001 427.666 52.0527 427.666 49.958C427.666 47.8486 426.707 46.7939 424.788 46.7939L420.107 46.7939L420.107 53.1001ZM438.367 56.6597L438.367 35.2803C438.367 34.8848 438.491 34.5625 438.74 34.3135C439.004 34.0498 439.333 33.918 439.729 33.918L444.629 33.918C445.024 33.918 445.347 34.0498 445.596 34.3135C445.845 34.5625 445.969 34.8848 445.969 35.2803L445.969 56.6597C445.969 57.0552 445.845 57.3774 445.596 57.6265C445.347 57.8755 445.024 58 444.629 58L439.729 58C439.333 58 439.004 57.8755 438.74 57.6265C438.491 57.3774 438.367 57.0552 438.367 56.6597Z" fill="rgb(0,0,0)" fill-rule="evenodd" />
	<path id="Ex mini black (color) 18" d="M383.324 51.8257C383.324 51.4302 383.449 51.1079 383.698 50.8589C383.961 50.6099 384.284 50.4854 384.665 50.4854L387.96 50.4854C388.957 50.4854 389.733 50.9834 390.29 51.9795C390.861 52.9609 391.945 53.4517 393.542 53.4517L398.002 53.4517C400.126 53.4517 401.188 52.5801 401.188 50.8369C401.188 49.0938 400.126 48.2295 398.002 48.2441L392.553 48.2441C392.157 48.2441 391.828 48.1196 391.564 47.8706C391.315 47.6069 391.19 47.2773 391.19 46.8818L391.19 44.5967C391.19 44.2012 391.315 43.8789 391.564 43.6299C391.828 43.3662 392.157 43.2344 392.553 43.2344L397.584 43.2344C398.551 43.2344 399.276 43.022 399.76 42.5972C400.258 42.1577 400.507 41.5791 400.507 40.8613C400.507 40.1436 400.258 39.5649 399.76 39.1255C399.276 38.686 398.551 38.4663 397.584 38.4663L393.542 38.4663C393.029 38.4663 392.501 38.5981 391.959 38.8618C391.417 39.1108 391.015 39.4771 390.751 39.9604C390.18 40.9565 389.396 41.4473 388.4 41.4326L385.126 41.4326C384.73 41.4326 384.401 41.3081 384.137 41.0591C383.888 40.8101 383.764 40.4878 383.764 40.0923C383.764 38.1147 384.723 36.5181 386.642 35.3022C388.576 34.0864 390.905 33.4785 393.629 33.4785L398.046 33.4785C401.137 33.4785 403.583 34.0498 405.385 35.1924C407.201 36.3203 408.109 38.0415 408.109 40.356C408.109 42.6704 407.062 44.3403 404.967 45.3657C407.516 46.6548 408.791 48.6909 408.791 51.4741C408.791 53.9058 407.926 55.6782 406.198 56.7915C404.484 57.8901 401.928 58.4395 398.529 58.4395L393.629 58.4395C390.685 58.4395 388.231 57.8389 386.269 56.6377C384.306 55.4365 383.324 53.8325 383.324 51.8257Z" fill="rgb(0,0,0)" fill-rule="evenodd" />
	<path id="Ex mini black (color) 18" d="M383.324 51.8257C383.324 51.4302 383.449 51.1079 383.698 50.8589C383.961 50.6099 384.284 50.4854 384.665 50.4854L387.96 50.4854C388.957 50.4854 389.733 50.9834 390.29 51.9795C390.861 52.9609 391.945 53.4517 393.542 53.4517L398.002 53.4517C400.126 53.4517 401.188 52.5801 401.188 50.8369C401.188 49.0938 400.126 48.2295 398.002 48.2441L392.553 48.2441C392.157 48.2441 391.828 48.1196 391.564 47.8706C391.315 47.6069 391.19 47.2773 391.19 46.8818L391.19 44.5967C391.19 44.2012 391.315 43.8789 391.564 43.6299C391.828 43.3662 392.157 43.2344 392.553 43.2344L397.584 43.2344C398.551 43.2344 399.276 43.022 399.76 42.5972C400.258 42.1577 400.507 41.5791 400.507 40.8613C400.507 40.1436 400.258 39.5649 399.76 39.1255C399.276 38.686 398.551 38.4663 397.584 38.4663L393.542 38.4663C393.029 38.4663 392.501 38.5981 391.959 38.8618C391.417 39.1108 391.015 39.4771 390.751 39.9604C390.18 40.9565 389.396 41.4473 388.4 41.4326L385.126 41.4326C384.73 41.4326 384.401 41.3081 384.137 41.0591C383.888 40.8101 383.764 40.4878 383.764 40.0923C383.764 38.1147 384.723 36.5181 386.642 35.3022C388.576 34.0864 390.905 33.4785 393.629 33.4785L398.046 33.4785C401.137 33.4785 403.583 34.0498 405.385 35.1924C407.201 36.3203 408.109 38.0415 408.109 40.356C408.109 42.6704 407.062 44.3403 404.967 45.3657C407.516 46.6548 408.791 48.6909 408.791 51.4741C408.791 53.9058 407.926 55.6782 406.198 56.7915C404.484 57.8901 401.928 58.4395 398.529 58.4395L393.629 58.4395C390.685 58.4395 388.231 57.8389 386.269 56.6377C384.306 55.4365 383.324 53.8325 383.324 51.8257Z" fill="rgb(0,0,0)" fill-rule="evenodd" />
	<path id="Ex mini black (color) 18" d="M355.617 41.6743C355.617 36.5181 358.883 33.9326 365.417 33.918L378.38 33.918C378.776 33.918 379.098 34.0498 379.347 34.3135C379.596 34.5625 379.721 34.8848 379.721 35.2803L379.721 56.6597C379.721 57.0552 379.596 57.3774 379.347 57.6265C379.098 57.8755 378.776 58 378.38 58L373.48 58C373.085 58 372.755 57.8755 372.492 57.6265C372.243 57.3628 372.118 57.0405 372.118 56.6597L372.118 49.4087L367.812 49.4087L364.076 56.0664C363.358 57.3555 362.216 58 360.648 58L356.693 58C356.151 58 355.8 57.8022 355.639 57.4067C355.58 57.2749 355.551 57.1064 355.551 56.9014C355.551 56.6816 355.661 56.4033 355.88 56.0664L360.297 48.6836C357.177 47.5264 355.617 45.1899 355.617 41.6743ZM363.988 39.6748C363.476 40.1582 363.219 40.8247 363.219 41.6743C363.219 42.5093 363.468 43.1758 363.966 43.6738C364.479 44.1719 365.189 44.4209 366.098 44.4209L372.118 44.4209L372.118 38.9277L366.098 38.9277C365.204 38.9277 364.501 39.1768 363.988 39.6748Z" fill="rgb(0,0,0)" fill-rule="evenodd" />
	<path id="Ex mini black (color) 18" d="M355.617 41.6743C355.617 36.5181 358.883 33.9326 365.417 33.918L378.38 33.918C378.776 33.918 379.098 34.0498 379.347 34.3135C379.596 34.5625 379.721 34.8848 379.721 35.2803L379.721 56.6597C379.721 57.0552 379.596 57.3774 379.347 57.6265C379.098 57.8755 378.776 58 378.38 58L373.48 58C373.085 58 372.755 57.8755 372.492 57.6265C372.243 57.3628 372.118 57.0405 372.118 56.6597L372.118 49.4087L367.812 49.4087L364.076 56.0664C363.358 57.3555 362.216 58 360.648 58L356.693 58C356.151 58 355.8 57.8022 355.639 57.4067C355.58 57.2749 355.551 57.1064 355.551 56.9014C355.551 56.6816 355.661 56.4033 355.88 56.0664L360.297 48.6836C357.177 47.5264 355.617 45.1899 355.617 41.6743ZM363.988 39.6748C363.476 40.1582 363.219 40.8247 363.219 41.6743C363.219 42.5093 363.468 43.1758 363.966 43.6738C364.479 44.1719 365.189 44.4209 366.098 44.4209L372.118 44.4209L372.118 38.9277L366.098 38.9277C365.204 38.9277 364.501 39.1768 363.988 39.6748Z" fill="rgb(0,0,0)" fill-rule="evenodd" />
	<path id="Ex mini black (color) 18" d="M310.508 56.6597L310.508 35.2803C310.508 34.8848 310.632 34.5625 310.881 34.3135C311.145 34.0498 311.467 33.918 311.848 33.918L316.44 33.918C316.836 33.918 317.158 34.0498 317.407 34.3135C317.671 34.5625 317.803 34.8848 317.803 35.2803L317.803 49.7163L325.537 35.5C325.771 35.0459 326.13 34.6724 326.614 34.3794C327.097 34.0718 327.566 33.918 328.02 33.918L334.172 33.918C334.568 33.918 334.89 34.0498 335.139 34.3135C335.403 34.5625 335.535 34.8848 335.535 35.2803L335.535 56.6597C335.535 57.0552 335.403 57.3774 335.139 57.6265C334.89 57.8755 334.568 58 334.172 58L329.58 58C329.185 58 328.862 57.8755 328.613 57.6265C328.364 57.3628 328.24 57.0405 328.24 56.6597L328.24 42.2456L320.505 56.418C320.271 56.8428 319.912 57.2163 319.429 57.5386C318.945 57.8462 318.477 58 318.022 58L311.848 58C311.453 58 311.13 57.8755 310.881 57.6265C310.632 57.3774 310.508 57.0552 310.508 56.6597ZM315.627 25.5903C315.627 24.8433 316.038 24.4697 316.858 24.4697L318.506 24.4697C319.224 24.4697 319.736 24.8433 320.044 25.5903C320.527 26.7915 321.516 27.3921 323.01 27.3921C324.519 27.3921 325.508 26.7915 325.977 25.5903C326.27 24.8433 326.782 24.4697 327.515 24.4697L329.185 24.4697C329.99 24.4697 330.393 24.8433 330.393 25.5903C330.393 27.3042 329.712 28.7104 328.35 29.8091C326.987 30.9077 325.208 31.457 323.01 31.457C320.828 31.457 319.048 30.9077 317.671 29.8091C316.309 28.7104 315.627 27.3042 315.627 25.5903Z" fill="rgb(0,0,0)" fill-rule="evenodd" />
	<path id="Ex mini black (color) 18" d="M310.508 56.6597L310.508 35.2803C310.508 34.8848 310.632 34.5625 310.881 34.3135C311.145 34.0498 311.467 33.918 311.848 33.918L316.44 33.918C316.836 33.918 317.158 34.0498 317.407 34.3135C317.671 34.5625 317.803 34.8848 317.803 35.2803L317.803 49.7163L325.537 35.5C325.771 35.0459 326.13 34.6724 326.614 34.3794C327.097 34.0718 327.566 33.918 328.02 33.918L334.172 33.918C334.568 33.918 334.89 34.0498 335.139 34.3135C335.403 34.5625 335.535 34.8848 335.535 35.2803L335.535 56.6597C335.535 57.0552 335.403 57.3774 335.139 57.6265C334.89 57.8755 334.568 58 334.172 58L329.58 58C329.185 58 328.862 57.8755 328.613 57.6265C328.364 57.3628 328.24 57.0405 328.24 56.6597L328.24 42.2456L320.505 56.418C320.271 56.8428 319.912 57.2163 319.429 57.5386C318.945 57.8462 318.477 58 318.022 58L311.848 58C311.453 58 311.13 57.8755 310.881 57.6265C310.632 57.3774 310.508 57.0552 310.508 56.6597ZM315.627 25.5903C315.627 24.8433 316.038 24.4697 316.858 24.4697L318.506 24.4697C319.224 24.4697 319.736 24.8433 320.044 25.5903C320.527 26.7915 321.516 27.3921 323.01 27.3921C324.519 27.3921 325.508 26.7915 325.977 25.5903C326.27 24.8433 326.782 24.4697 327.515 24.4697L329.185 24.4697C329.99 24.4697 330.393 24.8433 330.393 25.5903C330.393 27.3042 329.712 28.7104 328.35 29.8091C326.987 30.9077 325.208 31.457 323.01 31.457C320.828 31.457 319.048 30.9077 317.671 29.8091C316.309 28.7104 315.627 27.3042 315.627 25.5903Z" fill="rgb(0,0,0)" fill-rule="evenodd" />
	<path id="Ex mini black (color) 18" d="M280.098 56.6597L280.098 35.2803C280.098 34.8848 280.222 34.5625 280.471 34.3135C280.735 34.0498 281.057 33.918 281.438 33.918L286.03 33.918C286.426 33.918 286.748 34.0498 286.997 34.3135C287.261 34.5625 287.393 34.8848 287.393 35.2803L287.393 49.7163L295.127 35.5C295.361 35.0459 295.72 34.6724 296.204 34.3794C296.687 34.0718 297.156 33.918 297.61 33.918L303.762 33.918C304.158 33.918 304.48 34.0498 304.729 34.3135C304.993 34.5625 305.125 34.8848 305.125 35.2803L305.125 56.6597C305.125 57.0552 304.993 57.3774 304.729 57.6265C304.48 57.8755 304.158 58 303.762 58L299.17 58C298.774 58 298.452 57.8755 298.203 57.6265C297.954 57.3628 297.83 57.0405 297.83 56.6597L297.83 42.2456L290.095 56.418C289.861 56.8428 289.502 57.2163 289.019 57.5386C288.535 57.8462 288.066 58 287.612 58L281.438 58C281.042 58 280.72 57.8755 280.471 57.6265C280.222 57.3774 280.098 57.0552 280.098 56.6597Z" fill="rgb(0,0,0)" fill-rule="evenodd" />
	<path id="Ex mini black (color) 18" d="M280.098 56.6597L280.098 35.2803C280.098 34.8848 280.222 34.5625 280.471 34.3135C280.735 34.0498 281.057 33.918 281.438 33.918L286.03 33.918C286.426 33.918 286.748 34.0498 286.997 34.3135C287.261 34.5625 287.393 34.8848 287.393 35.2803L287.393 49.7163L295.127 35.5C295.361 35.0459 295.72 34.6724 296.204 34.3794C296.687 34.0718 297.156 33.918 297.61 33.918L303.762 33.918C304.158 33.918 304.48 34.0498 304.729 34.3135C304.993 34.5625 305.125 34.8848 305.125 35.2803L305.125 56.6597C305.125 57.0552 304.993 57.3774 304.729 57.6265C304.48 57.8755 304.158 58 303.762 58L299.17 58C298.774 58 298.452 57.8755 298.203 57.6265C297.954 57.3628 297.83 57.0405 297.83 56.6597L297.83 42.2456L290.095 56.418C289.861 56.8428 289.502 57.2163 289.019 57.5386C288.535 57.8462 288.066 58 287.612 58L281.438 58C281.042 58 280.72 57.8755 280.471 57.6265C280.222 57.3774 280.098 57.0552 280.098 56.6597Z" fill="rgb(0,0,0)" fill-rule="evenodd" />
	<path id="Ex mini black (color) 18" d="M276.913 57.0332C276.913 57.6777 276.532 58 275.77 58L271.617 58C270.211 58 269.09 57.3115 268.255 55.9346L265.465 51.3862C264.264 49.438 262.521 48.4639 260.235 48.4639L260.235 56.6597C260.235 57.0552 260.104 57.3774 259.84 57.6265C259.591 57.8755 259.276 58 258.895 58L253.973 58C253.578 58 253.255 57.8755 253.006 57.6265C252.757 57.3774 252.633 57.0552 252.633 56.6597L252.633 35.2803C252.633 34.8848 252.757 34.5625 253.006 34.3135C253.27 34.0498 253.592 33.918 253.973 33.918L258.895 33.918C259.291 33.918 259.613 34.0498 259.862 34.3135C260.111 34.5625 260.235 34.8848 260.235 35.2803L260.235 43.4541C262.784 43.4541 264.527 42.4653 265.465 40.4878L267.574 36.0054C267.867 35.3755 268.299 34.8701 268.871 34.4893C269.442 34.1084 270.057 33.918 270.716 33.918L274.869 33.918C275.602 33.918 275.968 34.2036 275.968 34.7749C275.968 35.0972 275.851 35.5073 275.616 36.0054L272.782 41.9819C272.298 42.978 271.639 43.835 270.804 44.5527C269.969 45.2705 269.068 45.7319 268.102 45.937C269.903 46.479 271.463 47.7974 272.782 49.8921L276.517 55.9346C276.766 56.3594 276.898 56.7256 276.913 57.0332Z" fill="rgb(0,0,0)" fill-rule="evenodd" />
	<path id="Ex mini black (color) 18" d="M276.913 57.0332C276.913 57.6777 276.532 58 275.77 58L271.617 58C270.211 58 269.09 57.3115 268.255 55.9346L265.465 51.3862C264.264 49.438 262.521 48.4639 260.235 48.4639L260.235 56.6597C260.235 57.0552 260.104 57.3774 259.84 57.6265C259.591 57.8755 259.276 58 258.895 58L253.973 58C253.578 58 253.255 57.8755 253.006 57.6265C252.757 57.3774 252.633 57.0552 252.633 56.6597L252.633 35.2803C252.633 34.8848 252.757 34.5625 253.006 34.3135C253.27 34.0498 253.592 33.918 253.973 33.918L258.895 33.918C259.291 33.918 259.613 34.0498 259.862 34.3135C260.111 34.5625 260.235 34.8848 260.235 35.2803L260.235 43.4541C262.784 43.4541 264.527 42.4653 265.465 40.4878L267.574 36.0054C267.867 35.3755 268.299 34.8701 268.871 34.4893C269.442 34.1084 270.057 33.918 270.716 33.918L274.869 33.918C275.602 33.918 275.968 34.2036 275.968 34.7749C275.968 35.0972 275.851 35.5073 275.616 36.0054L272.782 41.9819C272.298 42.978 271.639 43.835 270.804 44.5527C269.969 45.2705 269.068 45.7319 268.102 45.937C269.903 46.479 271.463 47.7974 272.782 49.8921L276.517 55.9346C276.766 56.3594 276.898 56.7256 276.913 57.0332Z" fill="rgb(0,0,0)" fill-rule="evenodd" />
	<path id="Ex mini black (color) 18" d="M236.328 58.4395C232.227 58.4395 229.033 57.3848 226.748 55.2754C224.463 53.166 223.32 50.0679 223.32 45.981C223.32 41.8794 224.456 38.7739 226.726 36.6646C228.997 34.5405 232.153 33.4785 236.196 33.4785C240.254 33.4785 243.367 34.123 245.535 35.4121C247.717 36.7012 248.809 38.6055 248.809 41.125C248.809 41.5205 248.677 41.8428 248.413 42.0918C248.164 42.3408 247.842 42.4653 247.446 42.4653L244.172 42.4653C243.176 42.4653 242.334 41.9307 241.646 40.8613C240.781 39.4844 239.25 38.7959 237.053 38.7959C234.871 38.7959 233.34 39.3599 232.461 40.4878C231.597 41.6011 231.165 43.4248 231.165 45.959C231.165 48.4932 231.611 50.3242 232.505 51.4521C233.413 52.5801 234.98 53.144 237.207 53.144C239.448 53.144 241.001 52.4556 241.865 51.0786C242.554 49.9946 243.396 49.4526 244.392 49.4526L247.666 49.4526C248.062 49.4526 248.384 49.5845 248.633 49.8481C248.896 50.0972 249.028 50.4121 249.028 50.793C249.028 53.3125 247.937 55.2168 245.754 56.5059C243.586 57.7949 240.444 58.4395 236.328 58.4395Z" fill="rgb(0,0,0)" fill-rule="evenodd" />
	<path id="Ex mini black (color) 18" d="M236.328 58.4395C232.227 58.4395 229.033 57.3848 226.748 55.2754C224.463 53.166 223.32 50.0679 223.32 45.981C223.32 41.8794 224.456 38.7739 226.726 36.6646C228.997 34.5405 232.153 33.4785 236.196 33.4785C240.254 33.4785 243.367 34.123 245.535 35.4121C247.717 36.7012 248.809 38.6055 248.809 41.125C248.809 41.5205 248.677 41.8428 248.413 42.0918C248.164 42.3408 247.842 42.4653 247.446 42.4653L244.172 42.4653C243.176 42.4653 242.334 41.9307 241.646 40.8613C240.781 39.4844 239.25 38.7959 237.053 38.7959C234.871 38.7959 233.34 39.3599 232.461 40.4878C231.597 41.6011 231.165 43.4248 231.165 45.959C231.165 48.4932 231.611 50.3242 232.505 51.4521C233.413 52.5801 234.98 53.144 237.207 53.144C239.448 53.144 241.001 52.4556 241.865 51.0786C242.554 49.9946 243.396 49.4526 244.392 49.4526L247.666 49.4526C248.062 49.4526 248.384 49.5845 248.633 49.8481C248.896 50.0972 249.028 50.4121 249.028 50.793C249.028 53.3125 247.937 55.2168 245.754 56.5059C243.586 57.7949 240.444 58.4395 236.328 58.4395Z" fill="rgb(0,0,0)" fill-rule="evenodd" />
	<path id="Ex mini black (color) 18" d="M195.371 51.8257C195.371 51.4302 195.496 51.1079 195.745 50.8589C196.008 50.6099 196.331 50.4854 196.711 50.4854L200.007 50.4854C201.003 50.4854 201.78 50.9834 202.336 51.9795C202.908 52.9609 203.992 53.4517 205.588 53.4517L210.049 53.4517C212.173 53.4517 213.235 52.5801 213.235 50.8369C213.235 49.0938 212.173 48.2295 210.049 48.2441L204.6 48.2441C204.204 48.2441 203.875 48.1196 203.611 47.8706C203.362 47.6069 203.237 47.2773 203.237 46.8818L203.237 44.5967C203.237 44.2012 203.362 43.8789 203.611 43.6299C203.875 43.3662 204.204 43.2344 204.6 43.2344L209.631 43.2344C210.598 43.2344 211.323 43.022 211.807 42.5972C212.305 42.1577 212.554 41.5791 212.554 40.8613C212.554 40.1436 212.305 39.5649 211.807 39.1255C211.323 38.686 210.598 38.4663 209.631 38.4663L205.588 38.4663C205.076 38.4663 204.548 38.5981 204.006 38.8618C203.464 39.1108 203.062 39.4771 202.798 39.9604C202.227 40.9565 201.443 41.4473 200.447 41.4326L197.173 41.4326C196.777 41.4326 196.448 41.3081 196.184 41.0591C195.935 40.8101 195.811 40.4878 195.811 40.0923C195.811 38.1147 196.77 36.5181 198.689 35.3022C200.623 34.0864 202.952 33.4785 205.676 33.4785L210.093 33.4785C213.184 33.4785 215.63 34.0498 217.432 35.1924C219.248 36.3203 220.156 38.0415 220.156 40.356C220.156 42.6704 219.109 44.3403 217.014 45.3657C219.563 46.6548 220.837 48.6909 220.837 51.4741C220.837 53.9058 219.973 55.6782 218.245 56.7915C216.531 57.8901 213.975 58.4395 210.576 58.4395L205.676 58.4395C202.732 58.4395 200.278 57.8389 198.315 56.6377C196.353 55.4365 195.371 53.8325 195.371 51.8257Z" fill="rgb(0,0,0)" fill-rule="evenodd" />
	<path id="Ex mini black (color) 18" d="M195.371 51.8257C195.371 51.4302 195.496 51.1079 195.745 50.8589C196.008 50.6099 196.331 50.4854 196.711 50.4854L200.007 50.4854C201.003 50.4854 201.78 50.9834 202.336 51.9795C202.908 52.9609 203.992 53.4517 205.588 53.4517L210.049 53.4517C212.173 53.4517 213.235 52.5801 213.235 50.8369C213.235 49.0938 212.173 48.2295 210.049 48.2441L204.6 48.2441C204.204 48.2441 203.875 48.1196 203.611 47.8706C203.362 47.6069 203.237 47.2773 203.237 46.8818L203.237 44.5967C203.237 44.2012 203.362 43.8789 203.611 43.6299C203.875 43.3662 204.204 43.2344 204.6 43.2344L209.631 43.2344C210.598 43.2344 211.323 43.022 211.807 42.5972C212.305 42.1577 212.554 41.5791 212.554 40.8613C212.554 40.1436 212.305 39.5649 211.807 39.1255C211.323 38.686 210.598 38.4663 209.631 38.4663L205.588 38.4663C205.076 38.4663 204.548 38.5981 204.006 38.8618C203.464 39.1108 203.062 39.4771 202.798 39.9604C202.227 40.9565 201.443 41.4473 200.447 41.4326L197.173 41.4326C196.777 41.4326 196.448 41.3081 196.184 41.0591C195.935 40.8101 195.811 40.4878 195.811 40.0923C195.811 38.1147 196.77 36.5181 198.689 35.3022C200.623 34.0864 202.952 33.4785 205.676 33.4785L210.093 33.4785C213.184 33.4785 215.63 34.0498 217.432 35.1924C219.248 36.3203 220.156 38.0415 220.156 40.356C220.156 42.6704 219.109 44.3403 217.014 45.3657C219.563 46.6548 220.837 48.6909 220.837 51.4741C220.837 53.9058 219.973 55.6782 218.245 56.7915C216.531 57.8901 213.975 58.4395 210.576 58.4395L205.676 58.4395C202.732 58.4395 200.278 57.8389 198.315 56.6377C196.353 55.4365 195.371 53.8325 195.371 51.8257Z" fill="rgb(0,0,0)" fill-rule="evenodd" />
	<path id="Ex mini black (color) 18" d="M173.422 60.2852L176.3 60.6587C178.366 60.6587 179.809 59.1426 180.629 56.1104C178.139 56.1104 176.059 55.3633 174.389 53.8691C172.719 52.3604 171.283 49.687 170.082 45.8491L166.808 35.2363C166.764 35.1191 166.742 34.9873 166.742 34.8408C166.742 34.6797 166.83 34.4893 167.006 34.2695C167.196 34.0498 167.475 33.9326 167.841 33.918L172.433 33.918C172.858 33.918 173.261 34.0645 173.642 34.3574C174.037 34.6357 174.293 34.9873 174.411 35.4121L177.289 44.7285C178.007 47.0137 178.732 48.5957 179.464 49.4746C180.211 50.3535 181.09 50.793 182.101 50.793L186.474 35.4121C186.591 34.9873 186.818 34.6357 187.155 34.3574C187.506 34.0645 187.895 33.918 188.319 33.918L192.956 33.918C193.322 33.918 193.593 34.0352 193.769 34.2695C193.944 34.5039 194.032 34.7017 194.032 34.8628C194.032 35.0093 194.018 35.1338 193.988 35.2363L188.231 55.7588C187.206 59.3916 185.932 61.9844 184.408 63.5371C182.899 65.0898 180.951 65.8662 178.563 65.8662C176.176 65.8662 174.484 65.7783 173.488 65.6025C172.506 65.4268 171.891 65.207 171.642 64.9434C171.393 64.6943 171.269 64.4014 171.269 64.0645L171.269 61.6475C171.269 61.252 171.393 60.9224 171.642 60.6587C171.891 60.4097 172.213 60.2852 172.609 60.2852L173.422 60.2852Z" fill="rgb(0,0,0)" fill-rule="evenodd" />
	<path id="Ex mini black (color) 18" d="M173.422 60.2852L176.3 60.6587C178.366 60.6587 179.809 59.1426 180.629 56.1104C178.139 56.1104 176.059 55.3633 174.389 53.8691C172.719 52.3604 171.283 49.687 170.082 45.8491L166.808 35.2363C166.764 35.1191 166.742 34.9873 166.742 34.8408C166.742 34.6797 166.83 34.4893 167.006 34.2695C167.196 34.0498 167.475 33.9326 167.841 33.918L172.433 33.918C172.858 33.918 173.261 34.0645 173.642 34.3574C174.037 34.6357 174.293 34.9873 174.411 35.4121L177.289 44.7285C178.007 47.0137 178.732 48.5957 179.464 49.4746C180.211 50.3535 181.09 50.793 182.101 50.793L186.474 35.4121C186.591 34.9873 186.818 34.6357 187.155 34.3574C187.506 34.0645 187.895 33.918 188.319 33.918L192.956 33.918C193.322 33.918 193.593 34.0352 193.769 34.2695C193.944 34.5039 194.032 34.7017 194.032 34.8628C194.032 35.0093 194.018 35.1338 193.988 35.2363L188.231 55.7588C187.206 59.3916 185.932 61.9844 184.408 63.5371C182.899 65.0898 180.951 65.8662 178.563 65.8662C176.176 65.8662 174.484 65.7783 173.488 65.6025C172.506 65.4268 171.891 65.207 171.642 64.9434C171.393 64.6943 171.269 64.4014 171.269 64.0645L171.269 61.6475C171.269 61.252 171.393 60.9224 171.642 60.6587C171.891 60.4097 172.213 60.2852 172.609 60.2852L173.422 60.2852Z" fill="rgb(0,0,0)" fill-rule="evenodd" />
	<path id="Ex mini black (color) 18" d="M137.934 56.6597L137.934 35.2803C137.934 34.8848 138.058 34.5625 138.307 34.3135C138.571 34.0498 138.893 33.918 139.274 33.918L144.196 33.918C144.591 33.918 144.914 34.0498 145.163 34.3135C145.412 34.5625 145.536 34.8848 145.536 35.2803L145.536 52.6826L154.896 52.6826L154.896 35.2803C154.896 34.8848 155.021 34.5625 155.27 34.3135C155.534 34.0498 155.856 33.918 156.237 33.918L161.159 33.918C161.554 33.918 161.876 34.0498 162.125 34.3135C162.375 34.5625 162.499 34.8848 162.499 35.2803L162.499 52.6826L164.652 52.6826C165.048 52.6826 165.37 52.8145 165.619 53.0781C165.883 53.3271 166.015 53.6494 166.015 54.0449L166.015 56.6597C166.015 57.0552 165.883 57.3774 165.619 57.6265C165.37 57.8755 165.048 58 164.652 58L139.274 58C138.878 58 138.556 57.8755 138.307 57.6265C138.058 57.3774 137.934 57.0552 137.934 56.6597Z" fill="rgb(0,0,0)" fill-rule="evenodd" />
	<path id="Ex mini black (color) 18" d="M137.934 56.6597L137.934 35.2803C137.934 34.8848 138.058 34.5625 138.307 34.3135C138.571 34.0498 138.893 33.918 139.274 33.918L144.196 33.918C144.591 33.918 144.914 34.0498 145.163 34.3135C145.412 34.5625 145.536 34.8848 145.536 35.2803L145.536 52.6826L154.896 52.6826L154.896 35.2803C154.896 34.8848 155.021 34.5625 155.27 34.3135C155.534 34.0498 155.856 33.918 156.237 33.918L161.159 33.918C161.554 33.918 161.876 34.0498 162.125 34.3135C162.375 34.5625 162.499 34.8848 162.499 35.2803L162.499 52.6826L164.652 52.6826C165.048 52.6826 165.37 52.8145 165.619 53.0781C165.883 53.3271 166.015 53.6494 166.015 54.0449L166.015 56.6597C166.015 57.0552 165.883 57.3774 165.619 57.6265C165.37 57.8755 165.048 58 164.652 58L139.274 58C138.878 58 138.556 57.8755 138.307 57.6265C138.058 57.3774 137.934 57.0552 137.934 56.6597Z" fill="rgb(0,0,0)" fill-rule="evenodd" />
	<path id="Ex mini black (color) 18" d="M107.699 56.6597L107.699 35.2803C107.699 34.8848 107.824 34.5625 108.073 34.3135C108.336 34.0498 108.659 33.918 109.04 33.918L113.961 33.918C114.357 33.918 114.679 34.0498 114.928 34.3135C115.177 34.5625 115.302 34.8848 115.302 35.2803L115.302 43.1465L124.926 43.1465L124.926 35.2803C124.926 34.8848 125.05 34.5625 125.299 34.3135C125.563 34.0498 125.893 33.918 126.288 33.918L131.188 33.918C131.583 33.918 131.906 34.0498 132.155 34.3135C132.404 34.5625 132.528 34.8848 132.528 35.2803L132.528 56.6597C132.528 57.0552 132.404 57.3774 132.155 57.6265C131.906 57.8755 131.583 58 131.188 58L126.288 58C125.893 58 125.563 57.8755 125.299 57.6265C125.05 57.3628 124.926 57.0405 124.926 56.6597L124.926 48.4639L115.302 48.4639L115.302 56.6597C115.302 57.0552 115.17 57.3774 114.906 57.6265C114.657 57.8755 114.342 58 113.961 58L109.04 58C108.644 58 108.322 57.8755 108.073 57.6265C107.824 57.3774 107.699 57.0552 107.699 56.6597Z" fill="rgb(0,0,0)" fill-rule="evenodd" />
	<path id="Ex mini black (color) 18" d="M107.699 56.6597L107.699 35.2803C107.699 34.8848 107.824 34.5625 108.073 34.3135C108.336 34.0498 108.659 33.918 109.04 33.918L113.961 33.918C114.357 33.918 114.679 34.0498 114.928 34.3135C115.177 34.5625 115.302 34.8848 115.302 35.2803L115.302 43.1465L124.926 43.1465L124.926 35.2803C124.926 34.8848 125.05 34.5625 125.299 34.3135C125.563 34.0498 125.893 33.918 126.288 33.918L131.188 33.918C131.583 33.918 131.906 34.0498 132.155 34.3135C132.404 34.5625 132.528 34.8848 132.528 35.2803L132.528 56.6597C132.528 57.0552 132.404 57.3774 132.155 57.6265C131.906 57.8755 131.583 58 131.188 58L126.288 58C125.893 58 125.563 57.8755 125.299 57.6265C125.05 57.3628 124.926 57.0405 124.926 56.6597L124.926 48.4639L115.302 48.4639L115.302 56.6597C115.302 57.0552 115.17 57.3774 114.906 57.6265C114.657 57.8755 114.342 58 113.961 58L109.04 58C108.644 58 108.322 57.8755 108.073 57.6265C107.824 57.3774 107.699 57.0552 107.699 56.6597Z" fill="rgb(0,0,0)" fill-rule="evenodd" />
	<path id="Ex mini black (color) 18" d="M79.8809 56.418C77.9473 55.0703 76.9805 53.166 76.9805 50.7051C76.9805 48.2441 77.9473 46.3545 79.8809 45.0361C81.8291 43.7178 84.334 43.0586 87.3955 43.0586L94.6685 43.0586C94.6685 41.3447 94.3096 40.1509 93.5918 39.4771C92.874 38.8032 91.6143 38.4663 89.8125 38.4663C88.0254 38.4663 86.7656 38.9131 86.0332 39.8066C85.3154 40.6855 84.4292 41.125 83.3745 41.125L80.1006 41.125C79.7051 41.125 79.3755 41.0005 79.1118 40.7515C78.8628 40.4878 78.7383 40.1655 78.7383 39.7847C78.7383 35.5806 82.73 33.4785 90.7134 33.4785C94.1997 33.4785 96.9976 34.2622 99.1069 35.8296C101.216 37.3823 102.271 39.792 102.271 43.0586L102.271 56.6597C102.271 57.0552 102.146 57.3774 101.897 57.6265C101.648 57.8755 101.326 58 100.931 58L96.6899 58C96.2944 58 95.9722 57.8755 95.7231 57.6265C95.4741 57.3628 95.3496 57.0405 95.3496 56.6597L95.3496 55.9785C93.0352 57.6338 90.3618 58.4541 87.3296 58.4395C84.312 58.4395 81.8291 57.7656 79.8809 56.418ZM87.9229 48.0464C86.8975 48.0464 86.0845 48.2954 85.4839 48.7935C84.8979 49.2915 84.605 49.936 84.605 50.7271C84.605 51.5181 84.9126 52.1699 85.5278 52.6826C86.1431 53.1953 87.0146 53.4517 88.1426 53.4517C90.3984 53.4517 92.5737 52.7925 94.6685 51.4741L94.6685 48.0464L87.9229 48.0464Z" fill="rgb(0,0,0)" fill-rule="evenodd" />
	<path id="Ex mini black (color) 18" d="M79.8809 56.418C77.9473 55.0703 76.9805 53.166 76.9805 50.7051C76.9805 48.2441 77.9473 46.3545 79.8809 45.0361C81.8291 43.7178 84.334 43.0586 87.3955 43.0586L94.6685 43.0586C94.6685 41.3447 94.3096 40.1509 93.5918 39.4771C92.874 38.8032 91.6143 38.4663 89.8125 38.4663C88.0254 38.4663 86.7656 38.9131 86.0332 39.8066C85.3154 40.6855 84.4292 41.125 83.3745 41.125L80.1006 41.125C79.7051 41.125 79.3755 41.0005 79.1118 40.7515C78.8628 40.4878 78.7383 40.1655 78.7383 39.7847C78.7383 35.5806 82.73 33.4785 90.7134 33.4785C94.1997 33.4785 96.9976 34.2622 99.1069 35.8296C101.216 37.3823 102.271 39.792 102.271 43.0586L102.271 56.6597C102.271 57.0552 102.146 57.3774 101.897 57.6265C101.648 57.8755 101.326 58 100.931 58L96.6899 58C96.2944 58 95.9722 57.8755 95.7231 57.6265C95.4741 57.3628 95.3496 57.0405 95.3496 56.6597L95.3496 55.9785C93.0352 57.6338 90.3618 58.4541 87.3296 58.4395C84.312 58.4395 81.8291 57.7656 79.8809 56.418ZM87.9229 48.0464C86.8975 48.0464 86.0845 48.2954 85.4839 48.7935C84.8979 49.2915 84.605 49.936 84.605 50.7271C84.605 51.5181 84.9126 52.1699 85.5278 52.6826C86.1431 53.1953 87.0146 53.4517 88.1426 53.4517C90.3984 53.4517 92.5737 52.7925 94.6685 51.4741L94.6685 48.0464L87.9229 48.0464Z" fill="rgb(0,0,0)" fill-rule="evenodd" />
	<path id="Ex mini black (color) 18" d="M48.5508 64.0645L48.5508 35.2803C48.5508 34.8848 48.6753 34.5625 48.9243 34.3135C49.188 34.0498 49.5103 33.918 49.8911 33.918L54.1318 33.918C54.5127 33.918 54.8276 34.0498 55.0767 34.3135C55.3403 34.5625 55.4722 34.8848 55.4722 35.2803L55.4722 35.9395C57.7866 34.2988 60.4746 33.4785 63.5361 33.4785C66.5977 33.4785 69.1538 34.5625 71.2046 36.7305C73.2554 38.8838 74.2808 41.9746 74.2808 46.0029C74.2808 50.0166 73.2188 53.0928 71.0947 55.2314C68.9707 57.3701 66.1069 58.4395 62.5034 58.4395C60.6431 58.4395 58.5264 58.0659 56.1533 57.3188L56.1533 64.0645C56.1533 64.46 56.0215 64.7822 55.7578 65.0312C55.5088 65.2949 55.1938 65.4268 54.813 65.4268L49.8911 65.4268C49.5103 65.4268 49.188 65.2949 48.9243 65.0312C48.6753 64.7822 48.5508 64.46 48.5508 64.0645ZM56.1533 52.2432C58.043 52.8438 59.6323 53.144 60.9214 53.144C62.9282 53.144 64.3491 52.5728 65.1841 51.4302C66.0337 50.2876 66.4585 48.4639 66.4585 45.959C66.4585 43.4541 66.0557 41.6377 65.25 40.5098C64.459 39.3672 63.2651 38.7959 61.6685 38.7959C60.0864 38.7959 58.248 39.4551 56.1533 40.7734L56.1533 52.2432Z" fill="rgb(0,0,0)" fill-rule="evenodd" />
	<path id="Ex mini black (color) 18" d="M48.5508 64.0645L48.5508 35.2803C48.5508 34.8848 48.6753 34.5625 48.9243 34.3135C49.188 34.0498 49.5103 33.918 49.8911 33.918L54.1318 33.918C54.5127 33.918 54.8276 34.0498 55.0767 34.3135C55.3403 34.5625 55.4722 34.8848 55.4722 35.2803L55.4722 35.9395C57.7866 34.2988 60.4746 33.4785 63.5361 33.4785C66.5977 33.4785 69.1538 34.5625 71.2046 36.7305C73.2554 38.8838 74.2808 41.9746 74.2808 46.0029C74.2808 50.0166 73.2188 53.0928 71.0947 55.2314C68.9707 57.3701 66.1069 58.4395 62.5034 58.4395C60.6431 58.4395 58.5264 58.0659 56.1533 57.3188L56.1533 64.0645C56.1533 64.46 56.0215 64.7822 55.7578 65.0312C55.5088 65.2949 55.1938 65.4268 54.813 65.4268L49.8911 65.4268C49.5103 65.4268 49.188 65.2949 48.9243 65.0312C48.6753 64.7822 48.5508 64.46 48.5508 64.0645ZM56.1533 52.2432C58.043 52.8438 59.6323 53.144 60.9214 53.144C62.9282 53.144 64.3491 52.5728 65.1841 51.4302C66.0337 50.2876 66.4585 48.4639 66.4585 45.959C66.4585 43.4541 66.0557 41.6377 65.25 40.5098C64.459 39.3672 63.2651 38.7959 61.6685 38.7959C60.0864 38.7959 58.248 39.4551 56.1533 40.7734L56.1533 52.2432Z" fill="rgb(0,0,0)" fill-rule="evenodd" />
	<path id="Ex mini black (color) 18" d="M20.272 29.3257L20.272 27.1724C20.272 26.6011 20.4771 26.1177 20.8872 25.7222C21.2974 25.312 21.8027 25.1069 22.4033 25.1069L26.4463 25.1069C27.0469 25.1069 27.5449 25.312 27.9404 25.7222C28.3506 26.1177 28.5557 26.6011 28.5557 27.1724L28.5557 29.3257C33.5654 29.3257 37.5498 30.3584 40.5088 32.4238C43.4678 34.4746 44.9473 37.7485 44.9473 42.2456C44.9473 46.7427 43.4678 50.0239 40.5088 52.0894C37.5498 54.1401 33.5654 55.1655 28.5557 55.1655L28.5557 57.3188C28.5557 57.8901 28.3433 58.3735 27.9185 58.769C27.5083 59.1792 27.0176 59.3843 26.4463 59.3843L22.4033 59.3843C21.832 59.3843 21.334 59.1792 20.9092 58.769C20.4844 58.3735 20.272 57.8901 20.272 57.3188L20.272 55.1655C15.2622 55.1655 11.2778 54.1401 8.31885 52.0894C5.37451 50.0239 3.90234 46.7427 3.90234 42.2456C3.90234 37.7485 5.37451 34.4746 8.31885 32.4238C11.2778 30.3584 15.2622 29.3257 20.272 29.3257ZM20.5137 49.2329L20.5137 35.2803C17.9355 35.2803 15.8994 35.8589 14.4053 37.0161C12.9258 38.1587 12.186 39.9019 12.186 42.2456C12.186 44.5894 12.9258 46.3398 14.4053 47.4971C15.8994 48.6543 17.9355 49.2329 20.5137 49.2329ZM28.3359 49.2329C30.9141 49.2329 32.9429 48.6543 34.4224 47.4971C35.9165 46.3398 36.6636 44.5894 36.6636 42.2456C36.6636 39.9019 35.9165 38.1587 34.4224 37.0161C32.9429 35.8589 30.9141 35.2803 28.3359 35.2803L28.3359 49.2329Z" fill="rgb(0,0,0)" fill-rule="evenodd" />
	<path id="Ex mini black (color) 18" d="M20.272 29.3257L20.272 27.1724C20.272 26.6011 20.4771 26.1177 20.8872 25.7222C21.2974 25.312 21.8027 25.1069 22.4033 25.1069L26.4463 25.1069C27.0469 25.1069 27.5449 25.312 27.9404 25.7222C28.3506 26.1177 28.5557 26.6011 28.5557 27.1724L28.5557 29.3257C33.5654 29.3257 37.5498 30.3584 40.5088 32.4238C43.4678 34.4746 44.9473 37.7485 44.9473 42.2456C44.9473 46.7427 43.4678 50.0239 40.5088 52.0894C37.5498 54.1401 33.5654 55.1655 28.5557 55.1655L28.5557 57.3188C28.5557 57.8901 28.3433 58.3735 27.9185 58.769C27.5083 59.1792 27.0176 59.3843 26.4463 59.3843L22.4033 59.3843C21.832 59.3843 21.334 59.1792 20.9092 58.769C20.4844 58.3735 20.272 57.8901 20.272 57.3188L20.272 55.1655C15.2622 55.1655 11.2778 54.1401 8.31885 52.0894C5.37451 50.0239 3.90234 46.7427 3.90234 42.2456C3.90234 37.7485 5.37451 34.4746 8.31885 32.4238C11.2778 30.3584 15.2622 29.3257 20.272 29.3257ZM20.5137 49.2329L20.5137 35.2803C17.9355 35.2803 15.8994 35.8589 14.4053 37.0161C12.9258 38.1587 12.186 39.9019 12.186 42.2456C12.186 44.5894 12.9258 46.3398 14.4053 47.4971C15.8994 48.6543 17.9355 49.2329 20.5137 49.2329ZM28.3359 49.2329C30.9141 49.2329 32.9429 48.6543 34.4224 47.4971C35.9165 46.3398 36.6636 44.5894 36.6636 42.2456C36.6636 39.9019 35.9165 38.1587 34.4224 37.0161C32.9429 35.8589 30.9141 35.2803 28.3359 35.2803L28.3359 49.2329Z" fill="rgb(0,0,0)" fill-rule="evenodd" />
	<path id="Ex mini black (color) 18" d="M1.99973 14.6819L0.526579 11.781C-0.595237 9.57198 0.118629 6.812 2.25602 5.67273C20.7254 -4.17183 38.1704 0.737068 47.1443 5.87485C48.9946 6.93423 49.5103 9.23057 48.4692 11.1422C47.933 12.1266 47.2503 13.3663 46.3912 14.9085C45.1375 17.1592 42.3767 17.8996 40.1214 16.7761C29.1587 11.315 19.5645 11.3085 8.32315 16.7567C6.00579 17.8799 3.1939 17.0335 1.99973 14.6819Z" fill="rgb(0,0,0)" fill-rule="nonzero" />
	<path id="Ex mini black (color) 18" d="M1.99973 14.6819L0.526579 11.781C-0.595237 9.57198 0.118629 6.812 2.25602 5.67273C20.7254 -4.17183 38.1704 0.737068 47.1443 5.87485C48.9946 6.93423 49.5103 9.23057 48.4692 11.1422C47.933 12.1266 47.2503 13.3663 46.3912 14.9085C45.1375 17.1592 42.3767 17.8996 40.1214 16.7761C29.1587 11.315 19.5645 11.3085 8.32315 16.7567C6.00579 17.8799 3.1939 17.0335 1.99973 14.6819Z" fill="rgb(0,68.0603,143.931)" fill-rule="nonzero" />
</svg>
