<svg viewBox="0 0 994.09 122.589" xmlns="http://www.w3.org/2000/svg" xmlns:xlink="http://www.w3.org/1999/xlink" width="994.089844" height="122.589355" fill="none" customFrame="#000000">
	<rect id="Ex max black (color) 06" width="994.089844" height="122.589355" x="0.000000" y="0.000000" fill="rgb(255,255,255)" fill-opacity="0" />
	<path id="Ex max black (color) 06" d="M3.87703 28.0155L1.02092 22.4802C-1.15403 18.2649 0.229996 12.9984 4.37392 10.8245C40.1818 -7.96054 74.0038 1.40645 91.4021 11.2102C94.9895 13.2316 95.9894 17.6134 93.9708 21.2611C92.9314 23.1395 91.6076 25.505 89.942 28.4479C87.5114 32.7426 82.1589 34.1553 77.7864 32.0115C56.5322 21.5908 37.9312 21.5785 16.1367 31.9746C11.6439 34.1177 6.19225 32.5026 3.87703 28.0155Z" fill="rgb(255,107,107)" fill-rule="evenodd" />
	<path id="Ex max black (color) 06" d="M942.103 114.54C936.839 109.55 934.207 102.372 934.207 93.0068C934.207 83.6074 936.856 76.3955 942.154 71.3711C947.452 66.3125 954.8 63.7832 964.2 63.7832C973.599 63.7832 980.931 66.2441 986.194 71.166C991.458 76.0537 994.09 83.0776 994.09 92.2378L994.09 95.1602C994.09 96.083 993.782 96.8521 993.167 97.4673C992.586 98.0483 991.834 98.3389 990.911 98.3389L952.305 98.3389C952.647 102.543 953.843 105.602 955.894 107.516C957.979 109.43 961.294 110.387 965.84 110.387C970.386 110.387 973.497 109.362 975.171 107.311C976.846 105.26 978.914 104.218 981.375 104.184L989.014 104.184C989.937 104.184 990.689 104.491 991.27 105.106C991.885 105.688 992.193 106.439 992.193 107.362C992.193 117.172 982.845 122.06 964.148 122.025C954.715 122.025 947.366 119.53 942.103 114.54ZM952.203 87.521L976.043 87.521C975.701 79.4546 971.736 75.4214 964.148 75.4214C956.595 75.4214 952.613 79.4546 952.203 87.521Z" fill="rgb(255,107,107)" fill-rule="nonzero" />
	<path id="Ex max black (color) 06" d="M942.103 114.54C936.839 109.55 934.207 102.372 934.207 93.0068C934.207 83.6074 936.856 76.3955 942.154 71.3711C947.452 66.3125 954.8 63.7832 964.2 63.7832C973.599 63.7832 980.931 66.2441 986.194 71.166C991.458 76.0537 994.09 83.0776 994.09 92.2378L994.09 95.1602C994.09 96.083 993.782 96.8521 993.167 97.4673C992.586 98.0483 991.834 98.3389 990.911 98.3389L952.305 98.3389C952.647 102.543 953.843 105.602 955.894 107.516C957.979 109.43 961.294 110.387 965.84 110.387C970.386 110.387 973.497 109.362 975.171 107.311C976.846 105.26 978.914 104.218 981.375 104.184L989.014 104.184C989.937 104.184 990.689 104.491 991.27 105.106C991.885 105.688 992.193 106.439 992.193 107.362C992.193 117.172 982.845 122.06 964.148 122.025C954.715 122.025 947.366 119.53 942.103 114.54ZM952.203 87.521L976.043 87.521C975.701 79.4546 971.736 75.4214 964.148 75.4214C956.595 75.4214 952.613 79.4546 952.203 87.521Z" fill="rgb(0,0,0)" fill-rule="nonzero" />
	<path id="Ex max black (color) 06" d="M866.43 117.873L866.43 67.9873C866.43 67.0645 866.72 66.3125 867.301 65.7314C867.917 65.1162 868.668 64.8086 869.557 64.8086L880.272 64.8086C881.195 64.8086 881.947 65.1162 882.528 65.7314C883.144 66.3125 883.451 67.0645 883.451 67.9873L883.451 101.671L901.498 68.5C902.045 67.4404 902.882 66.5688 904.01 65.8853C905.138 65.1675 906.232 64.8086 907.292 64.8086L921.647 64.8086C922.57 64.8086 923.322 65.1162 923.903 65.7314C924.518 66.3125 924.826 67.0645 924.826 67.9873L924.826 117.873C924.826 118.795 924.518 119.547 923.903 120.128C923.322 120.709 922.57 121 921.647 121L910.932 121C910.009 121 909.257 120.709 908.676 120.128C908.095 119.513 907.804 118.761 907.804 117.873L907.804 84.2397L889.757 117.309C889.21 118.3 888.373 119.171 887.245 119.923C886.117 120.641 885.023 121 883.964 121L869.557 121C868.634 121 867.882 120.709 867.301 120.128C866.72 119.547 866.43 118.795 866.43 117.873Z" fill="rgb(255,107,107)" fill-rule="nonzero" />
	<path id="Ex max black (color) 06" d="M866.43 117.873L866.43 67.9873C866.43 67.0645 866.72 66.3125 867.301 65.7314C867.917 65.1162 868.668 64.8086 869.557 64.8086L880.272 64.8086C881.195 64.8086 881.947 65.1162 882.528 65.7314C883.144 66.3125 883.451 67.0645 883.451 67.9873L883.451 101.671L901.498 68.5C902.045 67.4404 902.882 66.5688 904.01 65.8853C905.138 65.1675 906.232 64.8086 907.292 64.8086L921.647 64.8086C922.57 64.8086 923.322 65.1162 923.903 65.7314C924.518 66.3125 924.826 67.0645 924.826 67.9873L924.826 117.873C924.826 118.795 924.518 119.547 923.903 120.128C923.322 120.709 922.57 121 921.647 121L910.932 121C910.009 121 909.257 120.709 908.676 120.128C908.095 119.513 907.804 118.761 907.804 117.873L907.804 84.2397L889.757 117.309C889.21 118.3 888.373 119.171 887.245 119.923C886.117 120.641 885.023 121 883.964 121L869.557 121C868.634 121 867.882 120.709 867.301 120.128C866.72 119.547 866.43 118.795 866.43 117.873Z" fill="rgb(0,0,0)" fill-rule="nonzero" />
	<path id="Ex max black (color) 06" d="M795.883 117.873L795.883 67.9873C795.883 67.0645 796.173 66.3125 796.754 65.7314C797.37 65.1162 798.122 64.8086 799.01 64.8086L810.495 64.8086C811.417 64.8086 812.169 65.1162 812.75 65.7314C813.332 66.3125 813.622 67.0645 813.622 67.9873L813.622 86.3418L836.078 86.3418L836.078 67.9873C836.078 67.0645 836.369 66.3125 836.95 65.7314C837.565 65.1162 838.334 64.8086 839.257 64.8086L850.69 64.8086C851.613 64.8086 852.365 65.1162 852.946 65.7314C853.527 66.3125 853.817 67.0645 853.817 67.9873L853.817 117.873C853.817 118.795 853.527 119.547 852.946 120.128C852.365 120.709 851.613 121 850.69 121L839.257 121C838.334 121 837.565 120.709 836.95 120.128C836.369 119.513 836.078 118.761 836.078 117.873L836.078 98.749L813.622 98.749L813.622 117.873C813.622 118.795 813.314 119.547 812.699 120.128C812.118 120.709 811.383 121 810.495 121L799.01 121C798.087 121 797.335 120.709 796.754 120.128C796.173 119.547 795.883 118.795 795.883 117.873Z" fill="rgb(255,107,107)" fill-rule="nonzero" />
	<path id="Ex max black (color) 06" d="M795.883 117.873L795.883 67.9873C795.883 67.0645 796.173 66.3125 796.754 65.7314C797.37 65.1162 798.122 64.8086 799.01 64.8086L810.495 64.8086C811.417 64.8086 812.169 65.1162 812.75 65.7314C813.332 66.3125 813.622 67.0645 813.622 67.9873L813.622 86.3418L836.078 86.3418L836.078 67.9873C836.078 67.0645 836.369 66.3125 836.95 65.7314C837.565 65.1162 838.334 64.8086 839.257 64.8086L850.69 64.8086C851.613 64.8086 852.365 65.1162 852.946 65.7314C853.527 66.3125 853.817 67.0645 853.817 67.9873L853.817 117.873C853.817 118.795 853.527 119.547 852.946 120.128C852.365 120.709 851.613 121 850.69 121L839.257 121C838.334 121 837.565 120.709 836.95 120.128C836.369 119.513 836.078 118.761 836.078 117.873L836.078 98.749L813.622 98.749L813.622 117.873C813.622 118.795 813.314 119.547 812.699 120.128C812.118 120.709 811.383 121 810.495 121L799.01 121C798.087 121 797.335 120.709 796.754 120.128C796.173 119.547 795.883 118.795 795.883 117.873Z" fill="rgb(0,0,0)" fill-rule="nonzero" />
	<path id="Ex max black (color) 06" d="M730.975 117.309C726.463 114.164 724.207 109.721 724.207 103.979C724.207 98.2363 726.463 93.8271 730.975 90.751C735.521 87.6748 741.365 86.1367 748.509 86.1367L765.479 86.1367C765.479 82.1377 764.642 79.3521 762.967 77.7798C761.292 76.2075 758.353 75.4214 754.148 75.4214C749.979 75.4214 747.039 76.4639 745.33 78.5488C743.655 80.5996 741.587 81.625 739.126 81.625L731.487 81.625C730.564 81.625 729.795 81.3345 729.18 80.7534C728.599 80.1382 728.309 79.3862 728.309 78.4976C728.309 68.688 737.623 63.7832 756.25 63.7832C764.385 63.7832 770.914 65.6118 775.835 69.269C780.757 72.8921 783.218 78.5146 783.218 86.1367L783.218 117.873C783.218 118.795 782.928 119.547 782.347 120.128C781.766 120.709 781.014 121 780.091 121L770.196 121C769.273 121 768.521 120.709 767.94 120.128C767.359 119.513 767.068 118.761 767.068 117.873L767.068 116.283C761.668 120.146 755.43 122.06 748.355 122.025C741.314 122.025 735.521 120.453 730.975 117.309ZM749.739 97.7749C747.347 97.7749 745.45 98.356 744.048 99.5181C742.681 100.68 741.998 102.184 741.998 104.03C741.998 105.875 742.715 107.396 744.151 108.593C745.586 109.789 747.62 110.387 750.252 110.387C755.516 110.387 760.591 108.849 765.479 105.773L765.479 97.7749L749.739 97.7749Z" fill="rgb(255,107,107)" fill-rule="nonzero" />
	<path id="Ex max black (color) 06" d="M730.975 117.309C726.463 114.164 724.207 109.721 724.207 103.979C724.207 98.2363 726.463 93.8271 730.975 90.751C735.521 87.6748 741.365 86.1367 748.509 86.1367L765.479 86.1367C765.479 82.1377 764.642 79.3521 762.967 77.7798C761.292 76.2075 758.353 75.4214 754.148 75.4214C749.979 75.4214 747.039 76.4639 745.33 78.5488C743.655 80.5996 741.587 81.625 739.126 81.625L731.487 81.625C730.564 81.625 729.795 81.3345 729.18 80.7534C728.599 80.1382 728.309 79.3862 728.309 78.4976C728.309 68.688 737.623 63.7832 756.25 63.7832C764.385 63.7832 770.914 65.6118 775.835 69.269C780.757 72.8921 783.218 78.5146 783.218 86.1367L783.218 117.873C783.218 118.795 782.928 119.547 782.347 120.128C781.766 120.709 781.014 121 780.091 121L770.196 121C769.273 121 768.521 120.709 767.94 120.128C767.359 119.513 767.068 118.761 767.068 117.873L767.068 116.283C761.668 120.146 755.43 122.06 748.355 122.025C741.314 122.025 735.521 120.453 730.975 117.309ZM749.739 97.7749C747.347 97.7749 745.45 98.356 744.048 99.5181C742.681 100.68 741.998 102.184 741.998 104.03C741.998 105.875 742.715 107.396 744.151 108.593C745.586 109.789 747.62 110.387 750.252 110.387C755.516 110.387 760.591 108.849 765.479 105.773L765.479 97.7749L749.739 97.7749Z" fill="rgb(0,0,0)" fill-rule="nonzero" />
	<path id="Ex max black (color) 06" d="M656.84 117.873L656.84 67.9873C656.84 67.0645 657.13 66.3125 657.711 65.7314C658.327 65.1162 659.079 64.8086 659.967 64.8086L671.452 64.8086C672.375 64.8086 673.126 65.1162 673.708 65.7314C674.289 66.3125 674.579 67.0645 674.579 67.9873L674.579 86.3418L697.035 86.3418L697.035 67.9873C697.035 67.0645 697.326 66.3125 697.907 65.7314C698.522 65.1162 699.291 64.8086 700.214 64.8086L711.647 64.8086C712.57 64.8086 713.322 65.1162 713.903 65.7314C714.484 66.3125 714.774 67.0645 714.774 67.9873L714.774 117.873C714.774 118.795 714.484 119.547 713.903 120.128C713.322 120.709 712.57 121 711.647 121L700.214 121C699.291 121 698.522 120.709 697.907 120.128C697.326 119.513 697.035 118.761 697.035 117.873L697.035 98.749L674.579 98.749L674.579 117.873C674.579 118.795 674.271 119.547 673.656 120.128C673.075 120.709 672.34 121 671.452 121L659.967 121C659.044 121 658.292 120.709 657.711 120.128C657.13 119.547 656.84 118.795 656.84 117.873Z" fill="rgb(255,107,107)" fill-rule="nonzero" />
	<path id="Ex max black (color) 06" d="M656.84 117.873L656.84 67.9873C656.84 67.0645 657.13 66.3125 657.711 65.7314C658.327 65.1162 659.079 64.8086 659.967 64.8086L671.452 64.8086C672.375 64.8086 673.126 65.1162 673.708 65.7314C674.289 66.3125 674.579 67.0645 674.579 67.9873L674.579 86.3418L697.035 86.3418L697.035 67.9873C697.035 67.0645 697.326 66.3125 697.907 65.7314C698.522 65.1162 699.291 64.8086 700.214 64.8086L711.647 64.8086C712.57 64.8086 713.322 65.1162 713.903 65.7314C714.484 66.3125 714.774 67.0645 714.774 67.9873L714.774 117.873C714.774 118.795 714.484 119.547 713.903 120.128C713.322 120.709 712.57 121 711.647 121L700.214 121C699.291 121 698.522 120.709 697.907 120.128C697.326 119.513 697.035 118.761 697.035 117.873L697.035 98.749L674.579 98.749L674.579 117.873C674.579 118.795 674.271 119.547 673.656 120.128C673.075 120.709 672.34 121 671.452 121L659.967 121C659.044 121 658.292 120.709 657.711 120.128C657.13 119.547 656.84 118.795 656.84 117.873Z" fill="rgb(0,0,0)" fill-rule="nonzero" />
	<path id="Ex max black (color) 06" d="M588.445 106.593C588.445 105.67 588.736 104.918 589.317 104.337C589.932 103.756 590.684 103.466 591.573 103.466L599.263 103.466C601.587 103.466 603.399 104.628 604.698 106.952C606.031 109.242 608.56 110.387 612.286 110.387L622.693 110.387C627.649 110.387 630.127 108.354 630.127 104.286C630.127 100.219 627.649 98.2021 622.693 98.2363L609.979 98.2363C609.056 98.2363 608.287 97.9458 607.671 97.3647C607.09 96.7495 606.8 95.9805 606.8 95.0576L606.8 89.7256C606.8 88.8027 607.09 88.0508 607.671 87.4697C608.287 86.8545 609.056 86.5469 609.979 86.5469L621.719 86.5469C623.975 86.5469 625.667 86.0513 626.795 85.0601C627.957 84.0347 628.538 82.6846 628.538 81.0098C628.538 79.335 627.957 77.9849 626.795 76.9595C625.667 75.9341 623.975 75.4214 621.719 75.4214L612.286 75.4214C611.089 75.4214 609.859 75.729 608.594 76.3442C607.33 76.9253 606.39 77.7798 605.774 78.9077C604.441 81.2319 602.613 82.377 600.289 82.3428L592.649 82.3428C591.727 82.3428 590.958 82.0522 590.342 81.4712C589.761 80.8901 589.471 80.1382 589.471 79.2153C589.471 74.6011 591.709 70.8755 596.187 68.0386C600.699 65.2017 606.133 63.7832 612.491 63.7832L622.796 63.7832C630.008 63.7832 635.716 65.1162 639.92 67.7822C644.158 70.4141 646.277 74.4302 646.277 79.8306C646.277 85.231 643.833 89.1274 638.946 91.52C644.893 94.5278 647.867 99.2788 647.867 105.773C647.867 111.447 645.85 115.583 641.817 118.18C637.818 120.744 631.854 122.025 623.924 122.025L612.491 122.025C605.621 122.025 599.896 120.624 595.315 117.821C590.735 115.019 588.445 111.276 588.445 106.593Z" fill="rgb(255,107,107)" fill-rule="nonzero" />
	<path id="Ex max black (color) 06" d="M588.445 106.593C588.445 105.67 588.736 104.918 589.317 104.337C589.932 103.756 590.684 103.466 591.573 103.466L599.263 103.466C601.587 103.466 603.399 104.628 604.698 106.952C606.031 109.242 608.56 110.387 612.286 110.387L622.693 110.387C627.649 110.387 630.127 108.354 630.127 104.286C630.127 100.219 627.649 98.2021 622.693 98.2363L609.979 98.2363C609.056 98.2363 608.287 97.9458 607.671 97.3647C607.09 96.7495 606.8 95.9805 606.8 95.0576L606.8 89.7256C606.8 88.8027 607.09 88.0508 607.671 87.4697C608.287 86.8545 609.056 86.5469 609.979 86.5469L621.719 86.5469C623.975 86.5469 625.667 86.0513 626.795 85.0601C627.957 84.0347 628.538 82.6846 628.538 81.0098C628.538 79.335 627.957 77.9849 626.795 76.9595C625.667 75.9341 623.975 75.4214 621.719 75.4214L612.286 75.4214C611.089 75.4214 609.859 75.729 608.594 76.3442C607.33 76.9253 606.39 77.7798 605.774 78.9077C604.441 81.2319 602.613 82.377 600.289 82.3428L592.649 82.3428C591.727 82.3428 590.958 82.0522 590.342 81.4712C589.761 80.8901 589.471 80.1382 589.471 79.2153C589.471 74.6011 591.709 70.8755 596.187 68.0386C600.699 65.2017 606.133 63.7832 612.491 63.7832L622.796 63.7832C630.008 63.7832 635.716 65.1162 639.92 67.7822C644.158 70.4141 646.277 74.4302 646.277 79.8306C646.277 85.231 643.833 89.1274 638.946 91.52C644.893 94.5278 647.867 99.2788 647.867 105.773C647.867 111.447 645.85 115.583 641.817 118.18C637.818 120.744 631.854 122.025 623.924 122.025L612.491 122.025C605.621 122.025 599.896 120.624 595.315 117.821C590.735 115.019 588.445 111.276 588.445 106.593Z" fill="rgb(0,0,0)" fill-rule="nonzero" />
	<path id="Ex max black (color) 06" d="M529.178 114.643C523.846 109.721 521.18 102.475 521.18 92.9043C521.18 83.2998 523.846 76.0537 529.178 71.166C534.51 66.2441 542.166 63.7832 552.146 63.7832C562.161 63.7832 569.834 66.2441 575.167 71.166C580.499 76.0537 583.165 83.2998 583.165 92.9043C583.165 102.475 580.499 109.721 575.167 114.643C569.834 119.564 562.161 122.025 552.146 122.025C542.166 122.025 534.51 119.564 529.178 114.643ZM542.149 79.5742C540.03 82.3428 538.97 86.769 538.97 92.853C538.97 98.937 540.03 103.38 542.149 106.183C544.268 108.986 547.601 110.387 552.146 110.387C556.727 110.387 560.076 108.986 562.195 106.183C564.349 103.38 565.425 98.937 565.425 92.853C565.425 86.769 564.349 82.3428 562.195 79.5742C560.076 76.8057 556.727 75.4214 552.146 75.4214C547.601 75.4214 544.268 76.8057 542.149 79.5742Z" fill="rgb(255,107,107)" fill-rule="nonzero" />
	<path id="Ex max black (color) 06" d="M529.178 114.643C523.846 109.721 521.18 102.475 521.18 92.9043C521.18 83.2998 523.846 76.0537 529.178 71.166C534.51 66.2441 542.166 63.7832 552.146 63.7832C562.161 63.7832 569.834 66.2441 575.167 71.166C580.499 76.0537 583.165 83.2998 583.165 92.9043C583.165 102.475 580.499 109.721 575.167 114.643C569.834 119.564 562.161 122.025 552.146 122.025C542.166 122.025 534.51 119.564 529.178 114.643ZM542.149 79.5742C540.03 82.3428 538.97 86.769 538.97 92.853C538.97 98.937 540.03 103.38 542.149 106.183C544.268 108.986 547.601 110.387 552.146 110.387C556.727 110.387 560.076 108.986 562.195 106.183C564.349 103.38 565.425 98.937 565.425 92.853C565.425 86.769 564.349 82.3428 562.195 79.5742C560.076 76.8057 556.727 75.4214 552.146 75.4214C547.601 75.4214 544.268 76.8057 542.149 79.5742Z" fill="rgb(0,0,0)" fill-rule="nonzero" />
	<path id="Ex max black (color) 06" d="M456.992 117.873L456.992 67.9873C456.992 67.0645 457.283 66.3125 457.864 65.7314C458.479 65.1162 459.231 64.8086 460.12 64.8086L490.779 64.8086C497.307 64.8086 502.588 66.0732 506.621 68.6025C510.688 71.1318 512.722 74.9429 512.722 80.0356C512.722 85.0942 510.62 88.9224 506.416 91.52C512.397 94.5278 515.388 98.9883 515.388 104.901C515.388 110.814 513.457 114.984 509.595 117.411C505.732 119.804 500.195 121 492.983 121L460.12 121C459.231 121 458.479 120.709 457.864 120.128C457.283 119.513 456.992 118.761 456.992 117.873ZM474.731 109.567L491.753 109.567C493.633 109.567 495.068 109.037 496.06 107.978C497.085 106.918 497.598 105.517 497.598 103.773C497.598 102.03 497.085 100.629 496.06 99.5693C495.068 98.5098 493.633 97.98 491.753 97.98L474.731 97.98L474.731 109.567ZM474.731 86.752L489.753 86.752C491.292 86.752 492.539 86.2734 493.496 85.3164C494.487 84.3252 494.983 83.0605 494.983 81.5225C494.983 79.9844 494.487 78.7368 493.496 77.7798C492.539 76.7886 491.292 76.293 489.753 76.293L474.731 76.293L474.731 86.752Z" fill="rgb(255,107,107)" fill-rule="nonzero" />
	<path id="Ex max black (color) 06" d="M456.992 117.873L456.992 67.9873C456.992 67.0645 457.283 66.3125 457.864 65.7314C458.479 65.1162 459.231 64.8086 460.12 64.8086L490.779 64.8086C497.307 64.8086 502.588 66.0732 506.621 68.6025C510.688 71.1318 512.722 74.9429 512.722 80.0356C512.722 85.0942 510.62 88.9224 506.416 91.52C512.397 94.5278 515.388 98.9883 515.388 104.901C515.388 110.814 513.457 114.984 509.595 117.411C505.732 119.804 500.195 121 492.983 121L460.12 121C459.231 121 458.479 120.709 457.864 120.128C457.283 119.513 456.992 118.761 456.992 117.873ZM474.731 109.567L491.753 109.567C493.633 109.567 495.068 109.037 496.06 107.978C497.085 106.918 497.598 105.517 497.598 103.773C497.598 102.03 497.085 100.629 496.06 99.5693C495.068 98.5098 493.633 97.98 491.753 97.98L474.731 97.98L474.731 109.567ZM474.731 86.752L489.753 86.752C491.292 86.752 492.539 86.2734 493.496 85.3164C494.487 84.3252 494.983 83.0605 494.983 81.5225C494.983 79.9844 494.487 78.7368 493.496 77.7798C492.539 76.7886 491.292 76.293 489.753 76.293L474.731 76.293L474.731 86.752Z" fill="rgb(0,0,0)" fill-rule="nonzero" />
	<path id="Ex max black (color) 06" d="M392.75 74.0884L392.75 67.9873C392.75 67.0645 393.041 66.3125 393.622 65.7314C394.237 65.1162 395.006 64.8086 395.929 64.8086L446.429 64.8086C447.352 64.8086 448.104 65.1162 448.685 65.7314C449.266 66.3125 449.557 67.0645 449.557 67.9873L449.557 74.0884C449.557 74.9771 449.266 75.729 448.685 76.3442C448.104 76.9253 447.352 77.2158 446.429 77.2158L430.074 77.2158L430.074 117.873C430.074 118.761 429.767 119.513 429.151 120.128C428.57 120.709 427.818 121 426.896 121L415.462 121C414.54 121 413.771 120.709 413.155 120.128C412.574 119.513 412.284 118.761 412.284 117.873L412.284 77.2158L395.929 77.2158C395.006 77.2158 394.237 76.9253 393.622 76.3442C393.041 75.729 392.75 74.9771 392.75 74.0884Z" fill="rgb(255,107,107)" fill-rule="nonzero" />
	<path id="Ex max black (color) 06" d="M392.75 74.0884L392.75 67.9873C392.75 67.0645 393.041 66.3125 393.622 65.7314C394.237 65.1162 395.006 64.8086 395.929 64.8086L446.429 64.8086C447.352 64.8086 448.104 65.1162 448.685 65.7314C449.266 66.3125 449.557 67.0645 449.557 67.9873L449.557 74.0884C449.557 74.9771 449.266 75.729 448.685 76.3442C448.104 76.9253 447.352 77.2158 446.429 77.2158L430.074 77.2158L430.074 117.873C430.074 118.761 429.767 119.513 429.151 120.128C428.57 120.709 427.818 121 426.896 121L415.462 121C414.54 121 413.771 120.709 413.155 120.128C412.574 119.513 412.284 118.761 412.284 117.873L412.284 77.2158L395.929 77.2158C395.006 77.2158 394.237 76.9253 393.622 76.3442C393.041 75.729 392.75 74.9771 392.75 74.0884Z" fill="rgb(0,0,0)" fill-rule="nonzero" />
	<path id="Ex max black (color) 06" d="M359.988 122.025C350.418 122.025 342.967 119.564 337.635 114.643C332.303 109.721 329.637 102.492 329.637 92.9556C329.637 83.3853 332.286 76.1392 337.583 71.2173C342.881 66.2612 350.247 63.7832 359.681 63.7832C369.148 63.7832 376.412 65.2871 381.47 68.2949C386.563 71.3027 389.109 75.7461 389.109 81.625C389.109 82.5479 388.802 83.2998 388.187 83.8809C387.605 84.4619 386.854 84.7524 385.931 84.7524L378.292 84.7524C375.967 84.7524 374.002 83.5049 372.396 81.0098C370.379 77.7969 366.807 76.1904 361.68 76.1904C356.587 76.1904 353.016 77.5063 350.965 80.1382C348.948 82.7358 347.94 86.9912 347.94 92.9043C347.94 98.8174 348.982 103.09 351.067 105.722C353.187 108.354 356.844 109.669 362.039 109.669C367.269 109.669 370.892 108.063 372.908 104.85C374.515 102.321 376.48 101.056 378.804 101.056L386.443 101.056C387.366 101.056 388.118 101.364 388.699 101.979C389.314 102.56 389.622 103.295 389.622 104.184C389.622 110.062 387.076 114.506 381.983 117.514C376.924 120.521 369.593 122.025 359.988 122.025Z" fill="rgb(255,107,107)" fill-rule="nonzero" />
	<path id="Ex max black (color) 06" d="M359.988 122.025C350.418 122.025 342.967 119.564 337.635 114.643C332.303 109.721 329.637 102.492 329.637 92.9556C329.637 83.3853 332.286 76.1392 337.583 71.2173C342.881 66.2612 350.247 63.7832 359.681 63.7832C369.148 63.7832 376.412 65.2871 381.47 68.2949C386.563 71.3027 389.109 75.7461 389.109 81.625C389.109 82.5479 388.802 83.2998 388.187 83.8809C387.605 84.4619 386.854 84.7524 385.931 84.7524L378.292 84.7524C375.967 84.7524 374.002 83.5049 372.396 81.0098C370.379 77.7969 366.807 76.1904 361.68 76.1904C356.587 76.1904 353.016 77.5063 350.965 80.1382C348.948 82.7358 347.94 86.9912 347.94 92.9043C347.94 98.8174 348.982 103.09 351.067 105.722C353.187 108.354 356.844 109.669 362.039 109.669C367.269 109.669 370.892 108.063 372.908 104.85C374.515 102.321 376.48 101.056 378.804 101.056L386.443 101.056C387.366 101.056 388.118 101.364 388.699 101.979C389.314 102.56 389.622 103.295 389.622 104.184C389.622 110.062 387.076 114.506 381.983 117.514C376.924 120.521 369.593 122.025 359.988 122.025Z" fill="rgb(0,0,0)" fill-rule="nonzero" />
	<path id="Ex max black (color) 06" d="M271.396 114.54C266.132 109.55 263.5 102.372 263.5 93.0068C263.5 83.6074 266.149 76.3955 271.447 71.3711C276.745 66.3125 284.093 63.7832 293.493 63.7832C302.892 63.7832 310.224 66.2441 315.487 71.166C320.751 76.0537 323.383 83.0776 323.383 92.2378L323.383 95.1602C323.383 96.083 323.075 96.8521 322.46 97.4673C321.879 98.0483 321.127 98.3389 320.204 98.3389L281.598 98.3389C281.94 102.543 283.136 105.602 285.187 107.516C287.272 109.43 290.587 110.387 295.133 110.387C299.679 110.387 302.79 109.362 304.464 107.311C306.139 105.26 308.207 104.218 310.668 104.184L318.307 104.184C319.23 104.184 319.982 104.491 320.563 105.106C321.178 105.688 321.486 106.439 321.486 107.362C321.486 117.172 312.138 122.06 293.441 122.025C284.008 122.025 276.659 119.53 271.396 114.54ZM281.496 87.521L305.336 87.521C304.994 79.4546 301.029 75.4214 293.441 75.4214C285.888 75.4214 281.906 79.4546 281.496 87.521Z" fill="rgb(255,107,107)" fill-rule="nonzero" />
	<path id="Ex max black (color) 06" d="M271.396 114.54C266.132 109.55 263.5 102.372 263.5 93.0068C263.5 83.6074 266.149 76.3955 271.447 71.3711C276.745 66.3125 284.093 63.7832 293.493 63.7832C302.892 63.7832 310.224 66.2441 315.487 71.166C320.751 76.0537 323.383 83.0776 323.383 92.2378L323.383 95.1602C323.383 96.083 323.075 96.8521 322.46 97.4673C321.879 98.0483 321.127 98.3389 320.204 98.3389L281.598 98.3389C281.94 102.543 283.136 105.602 285.187 107.516C287.272 109.43 290.587 110.387 295.133 110.387C299.679 110.387 302.79 109.362 304.464 107.311C306.139 105.26 308.207 104.218 310.668 104.184L318.307 104.184C319.23 104.184 319.982 104.491 320.563 105.106C321.178 105.688 321.486 106.439 321.486 107.362C321.486 117.172 312.138 122.06 293.441 122.025C284.008 122.025 276.659 119.53 271.396 114.54ZM281.496 87.521L305.336 87.521C304.994 79.4546 301.029 75.4214 293.441 75.4214C285.888 75.4214 281.906 79.4546 281.496 87.521Z" fill="rgb(0,0,0)" fill-rule="nonzero" />
	<path id="Ex max black (color) 06" d="M165.781 117.873L165.781 67.9873C165.781 67.0645 166.072 66.3125 166.653 65.7314C167.268 65.1162 168.02 64.8086 168.909 64.8086L180.393 64.8086C181.316 64.8086 182.068 65.1162 182.649 65.7314C183.23 66.3125 183.521 67.0645 183.521 67.9873L183.521 108.593L199.568 108.593L199.568 67.9873C199.568 67.0645 199.858 66.3125 200.439 65.7314C201.055 65.1162 201.824 64.8086 202.747 64.8086L214.18 64.8086C215.103 64.8086 215.854 65.1162 216.436 65.7314C217.017 66.3125 217.307 67.0645 217.307 67.9873L217.307 108.593L233.406 108.593L233.406 67.9873C233.406 67.0645 233.696 66.3125 234.277 65.7314C234.893 65.1162 235.645 64.8086 236.533 64.8086L247.966 64.8086C248.889 64.8086 249.641 65.1162 250.222 65.7314C250.837 66.3125 251.145 67.0645 251.145 67.9873L251.145 108.593L256.169 108.593C257.092 108.593 257.844 108.9 258.425 109.516C259.041 110.097 259.348 110.849 259.348 111.771L259.348 117.873C259.348 118.795 259.041 119.547 258.425 120.128C257.844 120.709 257.092 121 256.169 121L168.909 121C167.986 121 167.234 120.709 166.653 120.128C166.072 119.547 165.781 118.795 165.781 117.873Z" fill="rgb(255,107,107)" fill-rule="nonzero" />
	<path id="Ex max black (color) 06" d="M165.781 117.873L165.781 67.9873C165.781 67.0645 166.072 66.3125 166.653 65.7314C167.268 65.1162 168.02 64.8086 168.909 64.8086L180.393 64.8086C181.316 64.8086 182.068 65.1162 182.649 65.7314C183.23 66.3125 183.521 67.0645 183.521 67.9873L183.521 108.593L199.568 108.593L199.568 67.9873C199.568 67.0645 199.858 66.3125 200.439 65.7314C201.055 65.1162 201.824 64.8086 202.747 64.8086L214.18 64.8086C215.103 64.8086 215.854 65.1162 216.436 65.7314C217.017 66.3125 217.307 67.0645 217.307 67.9873L217.307 108.593L233.406 108.593L233.406 67.9873C233.406 67.0645 233.696 66.3125 234.277 65.7314C234.893 65.1162 235.645 64.8086 236.533 64.8086L247.966 64.8086C248.889 64.8086 249.641 65.1162 250.222 65.7314C250.837 66.3125 251.145 67.0645 251.145 67.9873L251.145 108.593L256.169 108.593C257.092 108.593 257.844 108.9 258.425 109.516C259.041 110.097 259.348 110.849 259.348 111.771L259.348 117.873C259.348 118.795 259.041 119.547 258.425 120.128C257.844 120.709 257.092 121 256.169 121L168.909 121C167.986 121 167.234 120.709 166.653 120.128C166.072 119.547 165.781 118.795 165.781 117.873Z" fill="rgb(0,0,0)" fill-rule="nonzero" />
	<path id="Ex max black (color) 06" d="M95.0273 93.7246L95.0273 86.3418C95.0273 74.584 97.0952 65.646 101.231 59.5278C105.367 53.4097 112.408 49.8892 122.354 48.9663L150.604 46.4541C150.604 46.4541 150.774 46.4541 151.116 46.4541C151.834 46.4541 152.466 46.625 153.013 46.9668C153.628 47.5479 153.936 48.2485 153.936 49.0688L153.936 55.7852C153.936 56.9131 153.56 57.9727 152.808 58.9639C152.09 59.9209 151.219 60.4336 150.193 60.502L128.66 62.2964C121.517 62.8774 116.492 64.5522 113.587 67.3208C110.682 70.0552 109.229 74.4814 109.229 80.5996C113.433 74.6865 119.859 71.73 128.506 71.73C137.154 71.73 144.024 73.9175 149.117 78.2925C154.244 82.6675 156.807 88.8882 156.807 96.9546C156.807 105.021 154.175 111.225 148.912 115.565C143.648 119.872 135.992 122.025 125.943 122.025C105.333 122.025 95.0273 112.592 95.0273 93.7246ZM125.892 83.4194C121.722 83.4194 118.492 84.5986 116.202 86.957C113.946 89.2812 112.818 92.5967 112.818 96.9033C112.818 101.21 113.946 104.542 116.202 106.901C118.492 109.225 121.722 110.387 125.892 110.387C130.096 110.387 133.343 109.225 135.633 106.901C137.923 104.542 139.068 101.21 139.068 96.9033C139.068 92.5967 137.923 89.2812 135.633 86.957C133.343 84.5986 130.096 83.4194 125.892 83.4194Z" fill="rgb(255,107,107)" fill-rule="nonzero" />
	<path id="Ex max black (color) 06" d="M95.0273 93.7246L95.0273 86.3418C95.0273 74.584 97.0952 65.646 101.231 59.5278C105.367 53.4097 112.408 49.8892 122.354 48.9663L150.604 46.4541C150.604 46.4541 150.774 46.4541 151.116 46.4541C151.834 46.4541 152.466 46.625 153.013 46.9668C153.628 47.5479 153.936 48.2485 153.936 49.0688L153.936 55.7852C153.936 56.9131 153.56 57.9727 152.808 58.9639C152.09 59.9209 151.219 60.4336 150.193 60.502L128.66 62.2964C121.517 62.8774 116.492 64.5522 113.587 67.3208C110.682 70.0552 109.229 74.4814 109.229 80.5996C113.433 74.6865 119.859 71.73 128.506 71.73C137.154 71.73 144.024 73.9175 149.117 78.2925C154.244 82.6675 156.807 88.8882 156.807 96.9546C156.807 105.021 154.175 111.225 148.912 115.565C143.648 119.872 135.992 122.025 125.943 122.025C105.333 122.025 95.0273 112.592 95.0273 93.7246ZM125.892 83.4194C121.722 83.4194 118.492 84.5986 116.202 86.957C113.946 89.2812 112.818 92.5967 112.818 96.9033C112.818 101.21 113.946 104.542 116.202 106.901C118.492 109.225 121.722 110.387 125.892 110.387C130.096 110.387 133.343 109.225 135.633 106.901C137.923 104.542 139.068 101.21 139.068 96.9033C139.068 92.5967 137.923 89.2812 135.633 86.957C133.343 84.5986 130.096 83.4194 125.892 83.4194Z" fill="rgb(0,0,0)" fill-rule="nonzero" />
	<path id="Ex max black (color) 06" d="M78.1626 113.412C71.1899 119.53 60.936 122.589 47.4009 122.589C33.8999 122.589 23.646 119.53 16.6392 113.412C9.63232 107.26 6.12891 97.5356 6.12891 84.2397C6.12891 70.9438 9.63232 61.2368 16.6392 55.1187C23.646 49.0005 33.8999 45.9414 47.4009 45.9414C60.936 45.9414 71.1899 49.0005 78.1626 55.1187C85.1694 61.2368 88.6729 70.9438 88.6729 84.2397C88.6729 97.5356 85.1694 107.26 78.1626 113.412ZM64.166 65.9365C60.7139 61.835 55.1255 59.7842 47.4009 59.7842C39.7104 59.7842 34.1221 61.835 30.6357 65.9365C27.1836 70.0381 25.4575 76.1562 25.4575 84.291C25.4575 92.3916 27.1836 98.4927 30.6357 102.594C34.1221 106.662 39.7104 108.695 47.4009 108.695C55.1255 108.695 60.7139 106.662 64.166 102.594C67.6182 98.4927 69.3442 92.3916 69.3442 84.291C69.3442 76.1562 67.6182 70.0381 64.166 65.9365Z" fill="rgb(255,107,107)" fill-rule="nonzero" />
	<path id="Ex max black (color) 06" d="M78.1626 113.412C71.1899 119.53 60.936 122.589 47.4009 122.589C33.8999 122.589 23.646 119.53 16.6392 113.412C9.63232 107.26 6.12891 97.5356 6.12891 84.2397C6.12891 70.9438 9.63232 61.2368 16.6392 55.1187C23.646 49.0005 33.8999 45.9414 47.4009 45.9414C60.936 45.9414 71.1899 49.0005 78.1626 55.1187C85.1694 61.2368 88.6729 70.9438 88.6729 84.2397C88.6729 97.5356 85.1694 107.26 78.1626 113.412ZM64.166 65.9365C60.7139 61.835 55.1255 59.7842 47.4009 59.7842C39.7104 59.7842 34.1221 61.835 30.6357 65.9365C27.1836 70.0381 25.4575 76.1562 25.4575 84.291C25.4575 92.3916 27.1836 98.4927 30.6357 102.594C34.1221 106.662 39.7104 108.695 47.4009 108.695C55.1255 108.695 60.7139 106.662 64.166 102.594C67.6182 98.4927 69.3442 92.3916 69.3442 84.291C69.3442 76.1562 67.6182 70.0381 64.166 65.9365Z" fill="rgb(0,0,0)" fill-rule="nonzero" />
</svg>
