<svg viewBox="0 0 1101.91 139.354" xmlns="http://www.w3.org/2000/svg" xmlns:xlink="http://www.w3.org/1999/xlink" width="1101.910156" height="139.354492" fill="none" customFrame="#000000">
	<rect id="Ex max black (color) 18" width="1101.910645" height="139.354492" x="0.000000" y="0.000000" fill="rgb(255,255,255)" fill-opacity="0" />
	<path id="Ex max black (color) 18" d="M3.87703 28.0155L1.02092 22.4802C-1.15403 18.2649 0.229996 12.9984 4.37392 10.8245C40.1818 -7.96054 74.0038 1.40645 91.4021 11.2102C94.9895 13.2316 95.9894 17.6134 93.9708 21.2611C92.9314 23.1395 91.6076 25.505 89.942 28.4479C87.5114 32.7426 82.1589 34.1553 77.7864 32.0115C56.5322 21.5908 37.9312 21.5785 16.1367 31.9746C11.6439 34.1177 6.19225 32.5026 3.87703 28.0155Z" fill="rgb(0,68.0603,143.931)" fill-rule="evenodd" />
	<path id="Ex max black (color) 18" d="M1101.91 118.744C1101.91 120.248 1101.02 121 1099.24 121L1089.55 121C1086.27 121 1083.66 119.394 1081.71 116.181L1075.2 105.568C1072.4 101.022 1068.33 98.749 1063 98.749L1063 117.873C1063 118.795 1062.69 119.547 1062.07 120.128C1061.49 120.709 1060.76 121 1059.87 121L1048.39 121C1047.46 121 1046.71 120.709 1046.13 120.128C1045.55 119.547 1045.26 118.795 1045.26 117.873L1045.26 67.9873C1045.26 67.0645 1045.55 66.3125 1046.13 65.7314C1046.74 65.1162 1047.5 64.8086 1048.39 64.8086L1059.87 64.8086C1060.79 64.8086 1061.54 65.1162 1062.13 65.7314C1062.71 66.3125 1063 67.0645 1063 67.9873L1063 87.0596C1068.94 87.0596 1073.01 84.7524 1075.2 80.1382L1080.12 69.6792C1080.8 68.2095 1081.81 67.0303 1083.15 66.1416C1084.48 65.2529 1085.91 64.8086 1087.45 64.8086L1097.14 64.8086C1098.85 64.8086 1099.71 65.4751 1099.71 66.8081C1099.71 67.5601 1099.43 68.5171 1098.89 69.6792L1092.27 83.6245C1091.14 85.9487 1089.61 87.9482 1087.66 89.623C1085.71 91.2979 1083.61 92.3745 1081.35 92.853C1085.56 94.1177 1089.2 97.1938 1092.27 102.082L1100.99 116.181C1101.57 117.172 1101.88 118.026 1101.91 118.744Z" fill="rgb(0,68.0603,143.931)" fill-rule="nonzero" />
	<path id="Ex max black (color) 18" d="M1101.91 118.744C1101.91 120.248 1101.02 121 1099.24 121L1089.55 121C1086.27 121 1083.66 119.394 1081.71 116.181L1075.2 105.568C1072.4 101.022 1068.33 98.749 1063 98.749L1063 117.873C1063 118.795 1062.69 119.547 1062.07 120.128C1061.49 120.709 1060.76 121 1059.87 121L1048.39 121C1047.46 121 1046.71 120.709 1046.13 120.128C1045.55 119.547 1045.26 118.795 1045.26 117.873L1045.26 67.9873C1045.26 67.0645 1045.55 66.3125 1046.13 65.7314C1046.74 65.1162 1047.5 64.8086 1048.39 64.8086L1059.87 64.8086C1060.79 64.8086 1061.54 65.1162 1062.13 65.7314C1062.71 66.3125 1063 67.0645 1063 67.9873L1063 87.0596C1068.94 87.0596 1073.01 84.7524 1075.2 80.1382L1080.12 69.6792C1080.8 68.2095 1081.81 67.0303 1083.15 66.1416C1084.48 65.2529 1085.91 64.8086 1087.45 64.8086L1097.14 64.8086C1098.85 64.8086 1099.71 65.4751 1099.71 66.8081C1099.71 67.5601 1099.43 68.5171 1098.89 69.6792L1092.27 83.6245C1091.14 85.9487 1089.61 87.9482 1087.66 89.623C1085.71 91.2979 1083.61 92.3745 1081.35 92.853C1085.56 94.1177 1089.2 97.1938 1092.27 102.082L1100.99 116.181C1101.57 117.172 1101.88 118.026 1101.91 118.744Z" fill="rgb(0,0,0)" fill-rule="nonzero" />
	<path id="Ex max black (color) 18" d="M954.816 117.873L954.816 67.9873C954.816 67.0645 955.107 66.3125 955.688 65.7314C956.303 65.1162 957.055 64.8086 957.944 64.8086L969.428 64.8086C970.351 64.8086 971.103 65.1162 971.684 65.7314C972.265 66.3125 972.556 67.0645 972.556 67.9873L972.556 83.4194L984.758 83.4194C992.038 83.4194 997.661 84.855 1001.63 87.7261C1005.62 90.5972 1007.62 95.4336 1007.62 102.235C1007.62 109.003 1005.62 113.822 1001.63 116.693C997.661 119.564 992.038 121 984.758 121L957.944 121C957.021 121 956.269 120.709 955.688 120.128C955.107 119.547 954.816 118.795 954.816 117.873ZM972.248 109.567L983.168 109.567C987.646 109.567 989.885 107.123 989.885 102.235C989.885 97.3135 987.646 94.8525 983.168 94.8525L972.248 94.8525L972.248 109.567ZM1014.85 117.873L1014.85 67.9873C1014.85 67.0645 1015.14 66.3125 1015.72 65.7314C1016.34 65.1162 1017.11 64.8086 1018.03 64.8086L1029.46 64.8086C1030.39 64.8086 1031.14 65.1162 1031.72 65.7314C1032.3 66.3125 1032.59 67.0645 1032.59 67.9873L1032.59 117.873C1032.59 118.795 1032.3 119.547 1031.72 120.128C1031.14 120.709 1030.39 121 1029.46 121L1018.03 121C1017.11 121 1016.34 120.709 1015.72 120.128C1015.14 119.547 1014.85 118.795 1014.85 117.873Z" fill="rgb(0,68.0603,143.931)" fill-rule="nonzero" />
	<path id="Ex max black (color) 18" d="M954.816 117.873L954.816 67.9873C954.816 67.0645 955.107 66.3125 955.688 65.7314C956.303 65.1162 957.055 64.8086 957.944 64.8086L969.428 64.8086C970.351 64.8086 971.103 65.1162 971.684 65.7314C972.265 66.3125 972.556 67.0645 972.556 67.9873L972.556 83.4194L984.758 83.4194C992.038 83.4194 997.661 84.855 1001.63 87.7261C1005.62 90.5972 1007.62 95.4336 1007.62 102.235C1007.62 109.003 1005.62 113.822 1001.63 116.693C997.661 119.564 992.038 121 984.758 121L957.944 121C957.021 121 956.269 120.709 955.688 120.128C955.107 119.547 954.816 118.795 954.816 117.873ZM972.248 109.567L983.168 109.567C987.646 109.567 989.885 107.123 989.885 102.235C989.885 97.3135 987.646 94.8525 983.168 94.8525L972.248 94.8525L972.248 109.567ZM1014.85 117.873L1014.85 67.9873C1014.85 67.0645 1015.14 66.3125 1015.72 65.7314C1016.34 65.1162 1017.11 64.8086 1018.03 64.8086L1029.46 64.8086C1030.39 64.8086 1031.14 65.1162 1031.72 65.7314C1032.3 66.3125 1032.59 67.0645 1032.59 67.9873L1032.59 117.873C1032.59 118.795 1032.3 119.547 1031.72 120.128C1031.14 120.709 1030.39 121 1029.46 121L1018.03 121C1017.11 121 1016.34 120.709 1015.72 120.128C1015.14 119.547 1014.85 118.795 1014.85 117.873Z" fill="rgb(0,0,0)" fill-rule="nonzero" />
	<path id="Ex max black (color) 18" d="M886.426 106.593C886.426 105.67 886.716 104.918 887.297 104.337C887.913 103.756 888.665 103.466 889.553 103.466L897.244 103.466C899.568 103.466 901.379 104.628 902.678 106.952C904.011 109.242 906.541 110.387 910.266 110.387L920.674 110.387C925.63 110.387 928.108 108.354 928.108 104.286C928.108 100.219 925.63 98.2021 920.674 98.2363L907.959 98.2363C907.036 98.2363 906.267 97.9458 905.652 97.3647C905.071 96.7495 904.78 95.9805 904.78 95.0576L904.78 89.7256C904.78 88.8027 905.071 88.0508 905.652 87.4697C906.267 86.8545 907.036 86.5469 907.959 86.5469L919.7 86.5469C921.956 86.5469 923.647 86.0513 924.775 85.0601C925.938 84.0347 926.519 82.6846 926.519 81.0098C926.519 79.335 925.938 77.9849 924.775 76.9595C923.647 75.9341 921.956 75.4214 919.7 75.4214L910.266 75.4214C909.07 75.4214 907.839 75.729 906.575 76.3442C905.31 76.9253 904.37 77.7798 903.755 78.9077C902.422 81.2319 900.593 82.377 898.269 82.3428L890.63 82.3428C889.707 82.3428 888.938 82.0522 888.323 81.4712C887.742 80.8901 887.451 80.1382 887.451 79.2153C887.451 74.6011 889.69 70.8755 894.167 68.0386C898.679 65.2017 904.114 63.7832 910.471 63.7832L920.776 63.7832C927.988 63.7832 933.696 65.1162 937.9 67.7822C942.139 70.4141 944.258 74.4302 944.258 79.8306C944.258 85.231 941.814 89.1274 936.926 91.52C942.874 94.5278 945.847 99.2788 945.847 105.773C945.847 111.447 943.831 115.583 939.797 118.18C935.798 120.744 929.834 122.025 921.904 122.025L910.471 122.025C903.601 122.025 897.876 120.624 893.296 117.821C888.716 115.019 886.426 111.276 886.426 106.593Z" fill="rgb(0,68.0603,143.931)" fill-rule="nonzero" />
	<path id="Ex max black (color) 18" d="M886.426 106.593C886.426 105.67 886.716 104.918 887.297 104.337C887.913 103.756 888.665 103.466 889.553 103.466L897.244 103.466C899.568 103.466 901.379 104.628 902.678 106.952C904.011 109.242 906.541 110.387 910.266 110.387L920.674 110.387C925.63 110.387 928.108 108.354 928.108 104.286C928.108 100.219 925.63 98.2021 920.674 98.2363L907.959 98.2363C907.036 98.2363 906.267 97.9458 905.652 97.3647C905.071 96.7495 904.78 95.9805 904.78 95.0576L904.78 89.7256C904.78 88.8027 905.071 88.0508 905.652 87.4697C906.267 86.8545 907.036 86.5469 907.959 86.5469L919.7 86.5469C921.956 86.5469 923.647 86.0513 924.775 85.0601C925.938 84.0347 926.519 82.6846 926.519 81.0098C926.519 79.335 925.938 77.9849 924.775 76.9595C923.647 75.9341 921.956 75.4214 919.7 75.4214L910.266 75.4214C909.07 75.4214 907.839 75.729 906.575 76.3442C905.31 76.9253 904.37 77.7798 903.755 78.9077C902.422 81.2319 900.593 82.377 898.269 82.3428L890.63 82.3428C889.707 82.3428 888.938 82.0522 888.323 81.4712C887.742 80.8901 887.451 80.1382 887.451 79.2153C887.451 74.6011 889.69 70.8755 894.167 68.0386C898.679 65.2017 904.114 63.7832 910.471 63.7832L920.776 63.7832C927.988 63.7832 933.696 65.1162 937.9 67.7822C942.139 70.4141 944.258 74.4302 944.258 79.8306C944.258 85.231 941.814 89.1274 936.926 91.52C942.874 94.5278 945.847 99.2788 945.847 105.773C945.847 111.447 943.831 115.583 939.797 118.18C935.798 120.744 929.834 122.025 921.904 122.025L910.471 122.025C903.601 122.025 897.876 120.624 893.296 117.821C888.716 115.019 886.426 111.276 886.426 106.593Z" fill="rgb(0,0,0)" fill-rule="nonzero" />
	<path id="Ex max black (color) 18" d="M821.775 82.9067C821.775 70.8755 829.397 64.8428 844.641 64.8086L874.89 64.8086C875.813 64.8086 876.565 65.1162 877.146 65.7314C877.727 66.3125 878.018 67.0645 878.018 67.9873L878.018 117.873C878.018 118.795 877.727 119.547 877.146 120.128C876.565 120.709 875.813 121 874.89 121L863.457 121C862.534 121 861.765 120.709 861.15 120.128C860.569 119.513 860.278 118.761 860.278 117.873L860.278 100.954L850.229 100.954L841.514 116.488C839.839 119.496 837.173 121 833.516 121L824.287 121C823.022 121 822.202 120.539 821.826 119.616C821.689 119.308 821.621 118.915 821.621 118.437C821.621 117.924 821.877 117.274 822.39 116.488L832.695 99.2617C825.415 96.5615 821.775 91.1099 821.775 82.9067ZM841.309 78.2412C840.112 79.3691 839.514 80.9243 839.514 82.9067C839.514 84.855 840.095 86.4102 841.257 87.5723C842.454 88.7344 844.111 89.3154 846.23 89.3154L860.278 89.3154L860.278 76.498L846.23 76.498C844.146 76.498 842.505 77.0791 841.309 78.2412Z" fill="rgb(0,68.0603,143.931)" fill-rule="nonzero" />
	<path id="Ex max black (color) 18" d="M821.775 82.9067C821.775 70.8755 829.397 64.8428 844.641 64.8086L874.89 64.8086C875.813 64.8086 876.565 65.1162 877.146 65.7314C877.727 66.3125 878.018 67.0645 878.018 67.9873L878.018 117.873C878.018 118.795 877.727 119.547 877.146 120.128C876.565 120.709 875.813 121 874.89 121L863.457 121C862.534 121 861.765 120.709 861.15 120.128C860.569 119.513 860.278 118.761 860.278 117.873L860.278 100.954L850.229 100.954L841.514 116.488C839.839 119.496 837.173 121 833.516 121L824.287 121C823.022 121 822.202 120.539 821.826 119.616C821.689 119.308 821.621 118.915 821.621 118.437C821.621 117.924 821.877 117.274 822.39 116.488L832.695 99.2617C825.415 96.5615 821.775 91.1099 821.775 82.9067ZM841.309 78.2412C840.112 79.3691 839.514 80.9243 839.514 82.9067C839.514 84.855 840.095 86.4102 841.257 87.5723C842.454 88.7344 844.111 89.3154 846.23 89.3154L860.278 89.3154L860.278 76.498L846.23 76.498C844.146 76.498 842.505 77.0791 841.309 78.2412Z" fill="rgb(0,0,0)" fill-rule="nonzero" />
	<path id="Ex max black (color) 18" d="M716.516 117.873L716.516 67.9873C716.516 67.0645 716.806 66.3125 717.387 65.7314C718.002 65.1162 718.754 64.8086 719.643 64.8086L730.358 64.8086C731.281 64.8086 732.033 65.1162 732.614 65.7314C733.229 66.3125 733.537 67.0645 733.537 67.9873L733.537 101.671L751.584 68.5C752.131 67.4404 752.968 66.5688 754.096 65.8853C755.224 65.1675 756.318 64.8086 757.377 64.8086L771.733 64.8086C772.656 64.8086 773.408 65.1162 773.989 65.7314C774.604 66.3125 774.912 67.0645 774.912 67.9873L774.912 117.873C774.912 118.795 774.604 119.547 773.989 120.128C773.408 120.709 772.656 121 771.733 121L761.018 121C760.095 121 759.343 120.709 758.762 120.128C758.181 119.513 757.89 118.761 757.89 117.873L757.89 84.2397L739.843 117.309C739.296 118.3 738.459 119.171 737.331 119.923C736.203 120.641 735.109 121 734.05 121L719.643 121C718.72 121 717.968 120.709 717.387 120.128C716.806 119.547 716.516 118.795 716.516 117.873ZM728.461 45.3774C728.461 43.6343 729.418 42.7627 731.333 42.7627L735.178 42.7627C736.853 42.7627 738.049 43.6343 738.767 45.3774C739.895 48.1802 742.202 49.5815 745.688 49.5815C749.208 49.5815 751.516 48.1802 752.609 45.3774C753.293 43.6343 754.489 42.7627 756.198 42.7627L760.095 42.7627C761.975 42.7627 762.915 43.6343 762.915 45.3774C762.915 49.3765 761.325 52.6577 758.146 55.2212C754.968 57.7847 750.815 59.0664 745.688 59.0664C740.595 59.0664 736.442 57.7847 733.229 55.2212C730.051 52.6577 728.461 49.3765 728.461 45.3774Z" fill="rgb(0,68.0603,143.931)" fill-rule="nonzero" />
	<path id="Ex max black (color) 18" d="M716.516 117.873L716.516 67.9873C716.516 67.0645 716.806 66.3125 717.387 65.7314C718.002 65.1162 718.754 64.8086 719.643 64.8086L730.358 64.8086C731.281 64.8086 732.033 65.1162 732.614 65.7314C733.229 66.3125 733.537 67.0645 733.537 67.9873L733.537 101.671L751.584 68.5C752.131 67.4404 752.968 66.5688 754.096 65.8853C755.224 65.1675 756.318 64.8086 757.377 64.8086L771.733 64.8086C772.656 64.8086 773.408 65.1162 773.989 65.7314C774.604 66.3125 774.912 67.0645 774.912 67.9873L774.912 117.873C774.912 118.795 774.604 119.547 773.989 120.128C773.408 120.709 772.656 121 771.733 121L761.018 121C760.095 121 759.343 120.709 758.762 120.128C758.181 119.513 757.89 118.761 757.89 117.873L757.89 84.2397L739.843 117.309C739.296 118.3 738.459 119.171 737.331 119.923C736.203 120.641 735.109 121 734.05 121L719.643 121C718.72 121 717.968 120.709 717.387 120.128C716.806 119.547 716.516 118.795 716.516 117.873ZM728.461 45.3774C728.461 43.6343 729.418 42.7627 731.333 42.7627L735.178 42.7627C736.853 42.7627 738.049 43.6343 738.767 45.3774C739.895 48.1802 742.202 49.5815 745.688 49.5815C749.208 49.5815 751.516 48.1802 752.609 45.3774C753.293 43.6343 754.489 42.7627 756.198 42.7627L760.095 42.7627C761.975 42.7627 762.915 43.6343 762.915 45.3774C762.915 49.3765 761.325 52.6577 758.146 55.2212C754.968 57.7847 750.815 59.0664 745.688 59.0664C740.595 59.0664 736.442 57.7847 733.229 55.2212C730.051 52.6577 728.461 49.3765 728.461 45.3774Z" fill="rgb(0,0,0)" fill-rule="nonzero" />
	<path id="Ex max black (color) 18" d="M645.559 117.873L645.559 67.9873C645.559 67.0645 645.849 66.3125 646.43 65.7314C647.045 65.1162 647.797 64.8086 648.686 64.8086L659.401 64.8086C660.324 64.8086 661.076 65.1162 661.657 65.7314C662.272 66.3125 662.58 67.0645 662.58 67.9873L662.58 101.671L680.627 68.5C681.174 67.4404 682.011 66.5688 683.139 65.8853C684.267 65.1675 685.361 64.8086 686.42 64.8086L700.776 64.8086C701.699 64.8086 702.451 65.1162 703.032 65.7314C703.647 66.3125 703.955 67.0645 703.955 67.9873L703.955 117.873C703.955 118.795 703.647 119.547 703.032 120.128C702.451 120.709 701.699 121 700.776 121L690.061 121C689.138 121 688.386 120.709 687.805 120.128C687.224 119.513 686.933 118.761 686.933 117.873L686.933 84.2397L668.886 117.309C668.339 118.3 667.502 119.171 666.374 119.923C665.246 120.641 664.152 121 663.093 121L648.686 121C647.763 121 647.011 120.709 646.43 120.128C645.849 119.547 645.559 118.795 645.559 117.873Z" fill="rgb(0,68.0603,143.931)" fill-rule="nonzero" />
	<path id="Ex max black (color) 18" d="M645.559 117.873L645.559 67.9873C645.559 67.0645 645.849 66.3125 646.43 65.7314C647.045 65.1162 647.797 64.8086 648.686 64.8086L659.401 64.8086C660.324 64.8086 661.076 65.1162 661.657 65.7314C662.272 66.3125 662.58 67.0645 662.58 67.9873L662.58 101.671L680.627 68.5C681.174 67.4404 682.011 66.5688 683.139 65.8853C684.267 65.1675 685.361 64.8086 686.42 64.8086L700.776 64.8086C701.699 64.8086 702.451 65.1162 703.032 65.7314C703.647 66.3125 703.955 67.0645 703.955 67.9873L703.955 117.873C703.955 118.795 703.647 119.547 703.032 120.128C702.451 120.709 701.699 121 700.776 121L690.061 121C689.138 121 688.386 120.709 687.805 120.128C687.224 119.513 686.933 118.761 686.933 117.873L686.933 84.2397L668.886 117.309C668.339 118.3 667.502 119.171 666.374 119.923C665.246 120.641 664.152 121 663.093 121L648.686 121C647.763 121 647.011 120.709 646.43 120.128C645.849 119.547 645.559 118.795 645.559 117.873Z" fill="rgb(0,0,0)" fill-rule="nonzero" />
	<path id="Ex max black (color) 18" d="M638.125 118.744C638.125 120.248 637.237 121 635.459 121L625.77 121C622.488 121 619.874 119.394 617.925 116.181L611.414 105.568C608.611 101.022 604.544 98.749 599.212 98.749L599.212 117.873C599.212 118.795 598.904 119.547 598.289 120.128C597.708 120.709 596.973 121 596.084 121L584.6 121C583.677 121 582.925 120.709 582.344 120.128C581.763 119.547 581.473 118.795 581.473 117.873L581.473 67.9873C581.473 67.0645 581.763 66.3125 582.344 65.7314C582.959 65.1162 583.711 64.8086 584.6 64.8086L596.084 64.8086C597.007 64.8086 597.759 65.1162 598.34 65.7314C598.921 66.3125 599.212 67.0645 599.212 67.9873L599.212 87.0596C605.159 87.0596 609.227 84.7524 611.414 80.1382L616.336 69.6792C617.02 68.2095 618.028 67.0303 619.361 66.1416C620.694 65.2529 622.129 64.8086 623.667 64.8086L633.357 64.8086C635.066 64.8086 635.921 65.4751 635.921 66.8081C635.921 67.5601 635.647 68.5171 635.101 69.6792L628.487 83.6245C627.359 85.9487 625.821 87.9482 623.873 89.623C621.924 91.2979 619.822 92.3745 617.566 92.853C621.771 94.1177 625.411 97.1938 628.487 102.082L637.203 116.181C637.784 117.172 638.091 118.026 638.125 118.744Z" fill="rgb(0,68.0603,143.931)" fill-rule="nonzero" />
	<path id="Ex max black (color) 18" d="M638.125 118.744C638.125 120.248 637.237 121 635.459 121L625.77 121C622.488 121 619.874 119.394 617.925 116.181L611.414 105.568C608.611 101.022 604.544 98.749 599.212 98.749L599.212 117.873C599.212 118.795 598.904 119.547 598.289 120.128C597.708 120.709 596.973 121 596.084 121L584.6 121C583.677 121 582.925 120.709 582.344 120.128C581.763 119.547 581.473 118.795 581.473 117.873L581.473 67.9873C581.473 67.0645 581.763 66.3125 582.344 65.7314C582.959 65.1162 583.711 64.8086 584.6 64.8086L596.084 64.8086C597.007 64.8086 597.759 65.1162 598.34 65.7314C598.921 66.3125 599.212 67.0645 599.212 67.9873L599.212 87.0596C605.159 87.0596 609.227 84.7524 611.414 80.1382L616.336 69.6792C617.02 68.2095 618.028 67.0303 619.361 66.1416C620.694 65.2529 622.129 64.8086 623.667 64.8086L633.357 64.8086C635.066 64.8086 635.921 65.4751 635.921 66.8081C635.921 67.5601 635.647 68.5171 635.101 69.6792L628.487 83.6245C627.359 85.9487 625.821 87.9482 623.873 89.623C621.924 91.2979 619.822 92.3745 617.566 92.853C621.771 94.1177 625.411 97.1938 628.487 102.082L637.203 116.181C637.784 117.172 638.091 118.026 638.125 118.744Z" fill="rgb(0,0,0)" fill-rule="nonzero" />
	<path id="Ex max black (color) 18" d="M543.43 122.025C533.859 122.025 526.408 119.564 521.076 114.643C515.744 109.721 513.078 102.492 513.078 92.9556C513.078 83.3853 515.727 76.1392 521.025 71.2173C526.323 66.2612 533.688 63.7832 543.122 63.7832C552.59 63.7832 559.853 65.2871 564.912 68.2949C570.004 71.3027 572.551 75.7461 572.551 81.625C572.551 82.5479 572.243 83.2998 571.628 83.8809C571.047 84.4619 570.295 84.7524 569.372 84.7524L561.733 84.7524C559.409 84.7524 557.443 83.5049 555.837 81.0098C553.82 77.7969 550.249 76.1904 545.122 76.1904C540.029 76.1904 536.457 77.5063 534.406 80.1382C532.39 82.7358 531.381 86.9912 531.381 92.9043C531.381 98.8174 532.424 103.09 534.509 105.722C536.628 108.354 540.285 109.669 545.48 109.669C550.71 109.669 554.333 108.063 556.35 104.85C557.956 102.321 559.921 101.056 562.246 101.056L569.885 101.056C570.808 101.056 571.56 101.364 572.141 101.979C572.756 102.56 573.063 103.295 573.063 104.184C573.063 110.062 570.517 114.506 565.424 117.514C560.366 120.521 553.034 122.025 543.43 122.025Z" fill="rgb(0,68.0603,143.931)" fill-rule="nonzero" />
	<path id="Ex max black (color) 18" d="M543.43 122.025C533.859 122.025 526.408 119.564 521.076 114.643C515.744 109.721 513.078 102.492 513.078 92.9556C513.078 83.3853 515.727 76.1392 521.025 71.2173C526.323 66.2612 533.688 63.7832 543.122 63.7832C552.59 63.7832 559.853 65.2871 564.912 68.2949C570.004 71.3027 572.551 75.7461 572.551 81.625C572.551 82.5479 572.243 83.2998 571.628 83.8809C571.047 84.4619 570.295 84.7524 569.372 84.7524L561.733 84.7524C559.409 84.7524 557.443 83.5049 555.837 81.0098C553.82 77.7969 550.249 76.1904 545.122 76.1904C540.029 76.1904 536.457 77.5063 534.406 80.1382C532.39 82.7358 531.381 86.9912 531.381 92.9043C531.381 98.8174 532.424 103.09 534.509 105.722C536.628 108.354 540.285 109.669 545.48 109.669C550.71 109.669 554.333 108.063 556.35 104.85C557.956 102.321 559.921 101.056 562.246 101.056L569.885 101.056C570.808 101.056 571.56 101.364 572.141 101.979C572.756 102.56 573.063 103.295 573.063 104.184C573.063 110.062 570.517 114.506 565.424 117.514C560.366 120.521 553.034 122.025 543.43 122.025Z" fill="rgb(0,0,0)" fill-rule="nonzero" />
	<path id="Ex max black (color) 18" d="M447.863 106.593C447.863 105.67 448.154 104.918 448.735 104.337C449.35 103.756 450.102 103.466 450.991 103.466L458.681 103.466C461.005 103.466 462.817 104.628 464.116 106.952C465.449 109.242 467.978 110.387 471.704 110.387L482.111 110.387C487.067 110.387 489.545 108.354 489.545 104.286C489.545 100.219 487.067 98.2021 482.111 98.2363L469.396 98.2363C468.474 98.2363 467.705 97.9458 467.089 97.3647C466.508 96.7495 466.218 95.9805 466.218 95.0576L466.218 89.7256C466.218 88.8027 466.508 88.0508 467.089 87.4697C467.705 86.8545 468.474 86.5469 469.396 86.5469L481.137 86.5469C483.393 86.5469 485.085 86.0513 486.213 85.0601C487.375 84.0347 487.956 82.6846 487.956 81.0098C487.956 79.335 487.375 77.9849 486.213 76.9595C485.085 75.9341 483.393 75.4214 481.137 75.4214L471.704 75.4214C470.507 75.4214 469.277 75.729 468.012 76.3442C466.748 76.9253 465.808 77.7798 465.192 78.9077C463.859 81.2319 462.031 82.377 459.707 82.3428L452.067 82.3428C451.145 82.3428 450.375 82.0522 449.76 81.4712C449.179 80.8901 448.889 80.1382 448.889 79.2153C448.889 74.6011 451.127 70.8755 455.605 68.0386C460.117 65.2017 465.551 63.7832 471.909 63.7832L482.214 63.7832C489.426 63.7832 495.134 65.1162 499.338 67.7822C503.576 70.4141 505.695 74.4302 505.695 79.8306C505.695 85.231 503.251 89.1274 498.364 91.52C504.311 94.5278 507.285 99.2788 507.285 105.773C507.285 111.447 505.268 115.583 501.235 118.18C497.236 120.744 491.271 122.025 483.342 122.025L471.909 122.025C465.039 122.025 459.313 120.624 454.733 117.821C450.153 115.019 447.863 111.276 447.863 106.593Z" fill="rgb(0,68.0603,143.931)" fill-rule="nonzero" />
	<path id="Ex max black (color) 18" d="M447.863 106.593C447.863 105.67 448.154 104.918 448.735 104.337C449.35 103.756 450.102 103.466 450.991 103.466L458.681 103.466C461.005 103.466 462.817 104.628 464.116 106.952C465.449 109.242 467.978 110.387 471.704 110.387L482.111 110.387C487.067 110.387 489.545 108.354 489.545 104.286C489.545 100.219 487.067 98.2021 482.111 98.2363L469.396 98.2363C468.474 98.2363 467.705 97.9458 467.089 97.3647C466.508 96.7495 466.218 95.9805 466.218 95.0576L466.218 89.7256C466.218 88.8027 466.508 88.0508 467.089 87.4697C467.705 86.8545 468.474 86.5469 469.396 86.5469L481.137 86.5469C483.393 86.5469 485.085 86.0513 486.213 85.0601C487.375 84.0347 487.956 82.6846 487.956 81.0098C487.956 79.335 487.375 77.9849 486.213 76.9595C485.085 75.9341 483.393 75.4214 481.137 75.4214L471.704 75.4214C470.507 75.4214 469.277 75.729 468.012 76.3442C466.748 76.9253 465.808 77.7798 465.192 78.9077C463.859 81.2319 462.031 82.377 459.707 82.3428L452.067 82.3428C451.145 82.3428 450.375 82.0522 449.76 81.4712C449.179 80.8901 448.889 80.1382 448.889 79.2153C448.889 74.6011 451.127 70.8755 455.605 68.0386C460.117 65.2017 465.551 63.7832 471.909 63.7832L482.214 63.7832C489.426 63.7832 495.134 65.1162 499.338 67.7822C503.576 70.4141 505.695 74.4302 505.695 79.8306C505.695 85.231 503.251 89.1274 498.364 91.52C504.311 94.5278 507.285 99.2788 507.285 105.773C507.285 111.447 505.268 115.583 501.235 118.18C497.236 120.744 491.271 122.025 483.342 122.025L471.909 122.025C465.039 122.025 459.313 120.624 454.733 117.821C450.153 115.019 447.863 111.276 447.863 106.593Z" fill="rgb(0,0,0)" fill-rule="nonzero" />
	<path id="Ex max black (color) 18" d="M396.648 126.332L403.365 127.204C408.184 127.204 411.551 123.666 413.465 116.591C407.654 116.591 402.801 114.848 398.904 111.361C395.008 107.841 391.658 101.603 388.855 92.6479L381.216 67.8848C381.114 67.6113 381.062 67.3037 381.062 66.9619C381.062 66.5859 381.268 66.1416 381.678 65.6289C382.122 65.1162 382.771 64.8428 383.626 64.8086L394.341 64.8086C395.333 64.8086 396.272 65.1504 397.161 65.834C398.084 66.4834 398.682 67.3037 398.956 68.2949L405.672 90.0332C407.347 95.3652 409.039 99.0566 410.748 101.107C412.491 103.158 414.542 104.184 416.9 104.184L427.103 68.2949C427.376 67.3037 427.906 66.4834 428.692 65.834C429.512 65.1504 430.418 64.8086 431.409 64.8086L442.227 64.8086C443.082 64.8086 443.714 65.082 444.124 65.6289C444.534 66.1758 444.739 66.6372 444.739 67.0132C444.739 67.355 444.705 67.6455 444.637 67.8848L431.204 115.771C428.812 124.247 425.838 130.297 422.283 133.92C418.763 137.543 414.217 139.354 408.646 139.354C403.074 139.354 399.126 139.149 396.802 138.739C394.512 138.329 393.077 137.816 392.496 137.201C391.915 136.62 391.624 135.937 391.624 135.15L391.624 129.511C391.624 128.588 391.915 127.819 392.496 127.204C393.077 126.623 393.829 126.332 394.751 126.332L396.648 126.332Z" fill="rgb(0,68.0603,143.931)" fill-rule="nonzero" />
	<path id="Ex max black (color) 18" d="M396.648 126.332L403.365 127.204C408.184 127.204 411.551 123.666 413.465 116.591C407.654 116.591 402.801 114.848 398.904 111.361C395.008 107.841 391.658 101.603 388.855 92.6479L381.216 67.8848C381.114 67.6113 381.062 67.3037 381.062 66.9619C381.062 66.5859 381.268 66.1416 381.678 65.6289C382.122 65.1162 382.771 64.8428 383.626 64.8086L394.341 64.8086C395.333 64.8086 396.272 65.1504 397.161 65.834C398.084 66.4834 398.682 67.3037 398.956 68.2949L405.672 90.0332C407.347 95.3652 409.039 99.0566 410.748 101.107C412.491 103.158 414.542 104.184 416.9 104.184L427.103 68.2949C427.376 67.3037 427.906 66.4834 428.692 65.834C429.512 65.1504 430.418 64.8086 431.409 64.8086L442.227 64.8086C443.082 64.8086 443.714 65.082 444.124 65.6289C444.534 66.1758 444.739 66.6372 444.739 67.0132C444.739 67.355 444.705 67.6455 444.637 67.8848L431.204 115.771C428.812 124.247 425.838 130.297 422.283 133.92C418.763 137.543 414.217 139.354 408.646 139.354C403.074 139.354 399.126 139.149 396.802 138.739C394.512 138.329 393.077 137.816 392.496 137.201C391.915 136.62 391.624 135.937 391.624 135.15L391.624 129.511C391.624 128.588 391.915 127.819 392.496 127.204C393.077 126.623 393.829 126.332 394.751 126.332L396.648 126.332Z" fill="rgb(0,0,0)" fill-rule="nonzero" />
	<path id="Ex max black (color) 18" d="M313.848 117.873L313.848 67.9873C313.848 67.0645 314.138 66.3125 314.719 65.7314C315.334 65.1162 316.086 64.8086 316.975 64.8086L328.459 64.8086C329.382 64.8086 330.134 65.1162 330.715 65.7314C331.296 66.3125 331.587 67.0645 331.587 67.9873L331.587 108.593L353.428 108.593L353.428 67.9873C353.428 67.0645 353.718 66.3125 354.299 65.7314C354.915 65.1162 355.667 64.8086 356.555 64.8086L368.04 64.8086C368.962 64.8086 369.714 65.1162 370.295 65.7314C370.876 66.3125 371.167 67.0645 371.167 67.9873L371.167 108.593L376.191 108.593C377.114 108.593 377.866 108.9 378.447 109.516C379.062 110.097 379.37 110.849 379.37 111.771L379.37 117.873C379.37 118.795 379.062 119.547 378.447 120.128C377.866 120.709 377.114 121 376.191 121L316.975 121C316.052 121 315.3 120.709 314.719 120.128C314.138 119.547 313.848 118.795 313.848 117.873Z" fill="rgb(0,68.0603,143.931)" fill-rule="nonzero" />
	<path id="Ex max black (color) 18" d="M313.848 117.873L313.848 67.9873C313.848 67.0645 314.138 66.3125 314.719 65.7314C315.334 65.1162 316.086 64.8086 316.975 64.8086L328.459 64.8086C329.382 64.8086 330.134 65.1162 330.715 65.7314C331.296 66.3125 331.587 67.0645 331.587 67.9873L331.587 108.593L353.428 108.593L353.428 67.9873C353.428 67.0645 353.718 66.3125 354.299 65.7314C354.915 65.1162 355.667 64.8086 356.555 64.8086L368.04 64.8086C368.962 64.8086 369.714 65.1162 370.295 65.7314C370.876 66.3125 371.167 67.0645 371.167 67.9873L371.167 108.593L376.191 108.593C377.114 108.593 377.866 108.9 378.447 109.516C379.062 110.097 379.37 110.849 379.37 111.771L379.37 117.873C379.37 118.795 379.062 119.547 378.447 120.128C377.866 120.709 377.114 121 376.191 121L316.975 121C316.052 121 315.3 120.709 314.719 120.128C314.138 119.547 313.848 118.795 313.848 117.873Z" fill="rgb(0,0,0)" fill-rule="nonzero" />
	<path id="Ex max black (color) 18" d="M243.301 117.873L243.301 67.9873C243.301 67.0645 243.591 66.3125 244.172 65.7314C244.788 65.1162 245.54 64.8086 246.428 64.8086L257.913 64.8086C258.835 64.8086 259.587 65.1162 260.168 65.7314C260.75 66.3125 261.04 67.0645 261.04 67.9873L261.04 86.3418L283.496 86.3418L283.496 67.9873C283.496 67.0645 283.787 66.3125 284.368 65.7314C284.983 65.1162 285.752 64.8086 286.675 64.8086L298.108 64.8086C299.031 64.8086 299.783 65.1162 300.364 65.7314C300.945 66.3125 301.235 67.0645 301.235 67.9873L301.235 117.873C301.235 118.795 300.945 119.547 300.364 120.128C299.783 120.709 299.031 121 298.108 121L286.675 121C285.752 121 284.983 120.709 284.368 120.128C283.787 119.513 283.496 118.761 283.496 117.873L283.496 98.749L261.04 98.749L261.04 117.873C261.04 118.795 260.732 119.547 260.117 120.128C259.536 120.709 258.801 121 257.913 121L246.428 121C245.505 121 244.753 120.709 244.172 120.128C243.591 119.547 243.301 118.795 243.301 117.873Z" fill="rgb(0,68.0603,143.931)" fill-rule="nonzero" />
	<path id="Ex max black (color) 18" d="M243.301 117.873L243.301 67.9873C243.301 67.0645 243.591 66.3125 244.172 65.7314C244.788 65.1162 245.54 64.8086 246.428 64.8086L257.913 64.8086C258.835 64.8086 259.587 65.1162 260.168 65.7314C260.75 66.3125 261.04 67.0645 261.04 67.9873L261.04 86.3418L283.496 86.3418L283.496 67.9873C283.496 67.0645 283.787 66.3125 284.368 65.7314C284.983 65.1162 285.752 64.8086 286.675 64.8086L298.108 64.8086C299.031 64.8086 299.783 65.1162 300.364 65.7314C300.945 66.3125 301.235 67.0645 301.235 67.9873L301.235 117.873C301.235 118.795 300.945 119.547 300.364 120.128C299.783 120.709 299.031 121 298.108 121L286.675 121C285.752 121 284.983 120.709 284.368 120.128C283.787 119.513 283.496 118.761 283.496 117.873L283.496 98.749L261.04 98.749L261.04 117.873C261.04 118.795 260.732 119.547 260.117 120.128C259.536 120.709 258.801 121 257.913 121L246.428 121C245.505 121 244.753 120.709 244.172 120.128C243.591 119.547 243.301 118.795 243.301 117.873Z" fill="rgb(0,0,0)" fill-rule="nonzero" />
	<path id="Ex max black (color) 18" d="M178.393 117.309C173.881 114.164 171.625 109.721 171.625 103.979C171.625 98.2363 173.881 93.8271 178.393 90.751C182.938 87.6748 188.783 86.1367 195.927 86.1367L212.897 86.1367C212.897 82.1377 212.06 79.3521 210.385 77.7798C208.71 76.2075 205.771 75.4214 201.566 75.4214C197.396 75.4214 194.457 76.4639 192.748 78.5488C191.073 80.5996 189.005 81.625 186.544 81.625L178.905 81.625C177.982 81.625 177.213 81.3345 176.598 80.7534C176.017 80.1382 175.727 79.3862 175.727 78.4976C175.727 68.688 185.041 63.7832 203.668 63.7832C211.803 63.7832 218.332 65.6118 223.253 69.269C228.175 72.8921 230.636 78.5146 230.636 86.1367L230.636 117.873C230.636 118.795 230.346 119.547 229.765 120.128C229.184 120.709 228.432 121 227.509 121L217.614 121C216.691 121 215.939 120.709 215.358 120.128C214.777 119.513 214.486 118.761 214.486 117.873L214.486 116.283C209.086 120.146 202.848 122.06 195.773 122.025C188.732 122.025 182.938 120.453 178.393 117.309ZM197.157 97.7749C194.765 97.7749 192.868 98.356 191.466 99.5181C190.099 100.68 189.416 102.184 189.416 104.03C189.416 105.875 190.133 107.396 191.569 108.593C193.004 109.789 195.038 110.387 197.67 110.387C202.934 110.387 208.009 108.849 212.897 105.773L212.897 97.7749L197.157 97.7749Z" fill="rgb(0,68.0603,143.931)" fill-rule="nonzero" />
	<path id="Ex max black (color) 18" d="M178.393 117.309C173.881 114.164 171.625 109.721 171.625 103.979C171.625 98.2363 173.881 93.8271 178.393 90.751C182.938 87.6748 188.783 86.1367 195.927 86.1367L212.897 86.1367C212.897 82.1377 212.06 79.3521 210.385 77.7798C208.71 76.2075 205.771 75.4214 201.566 75.4214C197.396 75.4214 194.457 76.4639 192.748 78.5488C191.073 80.5996 189.005 81.625 186.544 81.625L178.905 81.625C177.982 81.625 177.213 81.3345 176.598 80.7534C176.017 80.1382 175.727 79.3862 175.727 78.4976C175.727 68.688 185.041 63.7832 203.668 63.7832C211.803 63.7832 218.332 65.6118 223.253 69.269C228.175 72.8921 230.636 78.5146 230.636 86.1367L230.636 117.873C230.636 118.795 230.346 119.547 229.765 120.128C229.184 120.709 228.432 121 227.509 121L217.614 121C216.691 121 215.939 120.709 215.358 120.128C214.777 119.513 214.486 118.761 214.486 117.873L214.486 116.283C209.086 120.146 202.848 122.06 195.773 122.025C188.732 122.025 182.938 120.453 178.393 117.309ZM197.157 97.7749C194.765 97.7749 192.868 98.356 191.466 99.5181C190.099 100.68 189.416 102.184 189.416 104.03C189.416 105.875 190.133 107.396 191.569 108.593C193.004 109.789 195.038 110.387 197.67 110.387C202.934 110.387 208.009 108.849 212.897 105.773L212.897 97.7749L197.157 97.7749Z" fill="rgb(0,0,0)" fill-rule="nonzero" />
	<path id="Ex max black (color) 18" d="M105.281 135.15L105.281 67.9873C105.281 67.0645 105.572 66.3125 106.153 65.7314C106.768 65.1162 107.52 64.8086 108.409 64.8086L118.304 64.8086C119.192 64.8086 119.927 65.1162 120.508 65.7314C121.124 66.3125 121.431 67.0645 121.431 67.9873L121.431 69.5254C126.832 65.6973 133.104 63.7832 140.247 63.7832C147.391 63.7832 153.355 66.3125 158.14 71.3711C162.925 76.3955 165.318 83.6074 165.318 93.0068C165.318 102.372 162.84 109.55 157.884 114.54C152.928 119.53 146.246 122.025 137.837 122.025C133.497 122.025 128.558 121.154 123.021 119.411L123.021 135.15C123.021 136.073 122.713 136.825 122.098 137.406C121.517 138.021 120.782 138.329 119.893 138.329L108.409 138.329C107.52 138.329 106.768 138.021 106.153 137.406C105.572 136.825 105.281 136.073 105.281 135.15ZM123.021 107.567C127.43 108.969 131.138 109.669 134.146 109.669C138.829 109.669 142.144 108.336 144.092 105.67C146.075 103.004 147.066 98.749 147.066 92.9043C147.066 87.0596 146.126 82.8213 144.246 80.1895C142.4 77.5234 139.615 76.1904 135.889 76.1904C132.198 76.1904 127.908 77.7285 123.021 80.8047L123.021 107.567Z" fill="rgb(0,68.0603,143.931)" fill-rule="nonzero" />
	<path id="Ex max black (color) 18" d="M105.281 135.15L105.281 67.9873C105.281 67.0645 105.572 66.3125 106.153 65.7314C106.768 65.1162 107.52 64.8086 108.409 64.8086L118.304 64.8086C119.192 64.8086 119.927 65.1162 120.508 65.7314C121.124 66.3125 121.431 67.0645 121.431 67.9873L121.431 69.5254C126.832 65.6973 133.104 63.7832 140.247 63.7832C147.391 63.7832 153.355 66.3125 158.14 71.3711C162.925 76.3955 165.318 83.6074 165.318 93.0068C165.318 102.372 162.84 109.55 157.884 114.54C152.928 119.53 146.246 122.025 137.837 122.025C133.497 122.025 128.558 121.154 123.021 119.411L123.021 135.15C123.021 136.073 122.713 136.825 122.098 137.406C121.517 138.021 120.782 138.329 119.893 138.329L108.409 138.329C107.52 138.329 106.768 138.021 106.153 137.406C105.572 136.825 105.281 136.073 105.281 135.15ZM123.021 107.567C127.43 108.969 131.138 109.669 134.146 109.669C138.829 109.669 142.144 108.336 144.092 105.67C146.075 103.004 147.066 98.749 147.066 92.9043C147.066 87.0596 146.126 82.8213 144.246 80.1895C142.4 77.5234 139.615 76.1904 135.889 76.1904C132.198 76.1904 127.908 77.7285 123.021 80.8047L123.021 107.567Z" fill="rgb(0,0,0)" fill-rule="nonzero" />
	<path id="Ex max black (color) 18" d="M39.2974 54.0933L39.2974 49.0688C39.2974 47.7358 39.7759 46.6079 40.7329 45.6851C41.6899 44.728 42.8691 44.2495 44.2705 44.2495L53.7041 44.2495C55.1055 44.2495 56.2676 44.728 57.1904 45.6851C58.1475 46.6079 58.626 47.7358 58.626 49.0688L58.626 54.0933C70.3154 54.0933 79.6123 56.5029 86.5166 61.3223C93.4209 66.1074 96.873 73.7466 96.873 84.2397C96.873 94.7329 93.4209 102.389 86.5166 107.208C79.6123 111.994 70.3154 114.386 58.626 114.386L58.626 119.411C58.626 120.744 58.1304 121.872 57.1392 122.794C56.1821 123.751 55.0371 124.23 53.7041 124.23L44.2705 124.23C42.9375 124.23 41.7754 123.751 40.7842 122.794C39.793 121.872 39.2974 120.744 39.2974 119.411L39.2974 114.386C27.6079 114.386 18.311 111.994 11.4067 107.208C4.53662 102.389 1.10156 94.7329 1.10156 84.2397C1.10156 73.7466 4.53662 66.1074 11.4067 61.3223C18.311 56.5029 27.6079 54.0933 39.2974 54.0933ZM39.8613 100.543L39.8613 67.9873C33.8457 67.9873 29.0947 69.3374 25.6084 72.0376C22.1562 74.7036 20.4302 78.771 20.4302 84.2397C20.4302 89.7085 22.1562 93.793 25.6084 96.4932C29.0947 99.1934 33.8457 100.543 39.8613 100.543ZM58.1133 100.543C64.1289 100.543 68.8628 99.1934 72.3149 96.4932C75.8013 93.793 77.5444 89.7085 77.5444 84.2397C77.5444 78.771 75.8013 74.7036 72.3149 72.0376C68.8628 69.3374 64.1289 67.9873 58.1133 67.9873L58.1133 100.543Z" fill="rgb(0,68.0603,143.931)" fill-rule="nonzero" />
	<path id="Ex max black (color) 18" d="M39.2974 54.0933L39.2974 49.0688C39.2974 47.7358 39.7759 46.6079 40.7329 45.6851C41.6899 44.728 42.8691 44.2495 44.2705 44.2495L53.7041 44.2495C55.1055 44.2495 56.2676 44.728 57.1904 45.6851C58.1475 46.6079 58.626 47.7358 58.626 49.0688L58.626 54.0933C70.3154 54.0933 79.6123 56.5029 86.5166 61.3223C93.4209 66.1074 96.873 73.7466 96.873 84.2397C96.873 94.7329 93.4209 102.389 86.5166 107.208C79.6123 111.994 70.3154 114.386 58.626 114.386L58.626 119.411C58.626 120.744 58.1304 121.872 57.1392 122.794C56.1821 123.751 55.0371 124.23 53.7041 124.23L44.2705 124.23C42.9375 124.23 41.7754 123.751 40.7842 122.794C39.793 121.872 39.2974 120.744 39.2974 119.411L39.2974 114.386C27.6079 114.386 18.311 111.994 11.4067 107.208C4.53662 102.389 1.10156 94.7329 1.10156 84.2397C1.10156 73.7466 4.53662 66.1074 11.4067 61.3223C18.311 56.5029 27.6079 54.0933 39.2974 54.0933ZM39.8613 100.543L39.8613 67.9873C33.8457 67.9873 29.0947 69.3374 25.6084 72.0376C22.1562 74.7036 20.4302 78.771 20.4302 84.2397C20.4302 89.7085 22.1562 93.793 25.6084 96.4932C29.0947 99.1934 33.8457 100.543 39.8613 100.543ZM58.1133 100.543C64.1289 100.543 68.8628 99.1934 72.3149 96.4932C75.8013 93.793 77.5444 89.7085 77.5444 84.2397C77.5444 78.771 75.8013 74.7036 72.3149 72.0376C68.8628 69.3374 64.1289 67.9873 58.1133 67.9873L58.1133 100.543Z" fill="rgb(0,0,0)" fill-rule="nonzero" />
</svg>
