<svg viewBox="0 0 1101.91 139.354" xmlns="http://www.w3.org/2000/svg" xmlns:xlink="http://www.w3.org/1999/xlink" width="1101.910645" height="139.354492" fill="none" customFrame="#000000">
	<rect id="Ex max white 18" width="1101.910645" height="139.354492" x="0.000000" y="0.000000" fill="rgb(255,255,255)" fill-opacity="0" />
	<path id="Ex max white 18" d="M3.87703 28.0155L1.02092 22.4802C0.331835 21.1446 0 19.7036 0 18.2889C0 15.2382 1.5429 12.3097 4.37392 10.8245C40.1818 -7.96054 74.0038 1.40645 91.4021 11.2102C93.7599 12.5388 95 14.8869 95 17.3762C95 18.6743 94.6627 20.0108 93.9708 21.2611C92.9314 23.1395 91.6076 25.505 89.942 28.4479C87.5114 32.7426 82.1589 34.1553 77.7864 32.0115C56.5322 21.5908 37.9312 21.5785 16.1367 31.9746C11.6439 34.1177 6.19225 32.5026 3.87703 28.0155ZM728.461 45.3774Q728.461 44.192 729.052 43.544Q729.763 42.7627 731.333 42.7627L735.178 42.7627Q736.196 42.7627 736.978 43.1923Q738.126 43.8225 738.767 45.3774Q739.422 47.0052 740.607 48.0028Q742.483 49.5815 745.688 49.5815Q748.97 49.5815 750.846 47.9572Q751.989 46.9683 752.609 45.3774Q753.195 43.883 754.284 43.2427Q755.1 42.7627 756.198 42.7627L760.095 42.7627Q761.611 42.7627 762.312 43.5186Q762.915 44.1686 762.915 45.3774Q762.915 48.2082 761.853 50.5594Q760.664 53.1906 758.146 55.2212Q757.982 55.3541 757.814 55.4823L757.794 55.4969Q753.098 59.0664 745.688 59.0664Q738.451 59.0664 733.744 55.6151L733.688 55.5733Q733.455 55.4015 733.229 55.2212Q730.712 53.1906 729.523 50.5594Q728.461 48.2082 728.461 45.3774ZM39.2974 54.0933L39.2974 49.0688Q39.2974 48.0605 39.6625 47.2086Q40.0213 46.3712 40.7329 45.6851Q41.3656 45.0524 42.1277 44.6986Q43.0949 44.2495 44.2705 44.2495L53.7041 44.2495Q54.9353 44.2495 55.9203 44.742Q56.6169 45.0903 57.1904 45.6851Q57.902 46.3712 58.2609 47.2086Q58.626 48.0605 58.626 49.0688L58.626 54.0933Q76.1602 54.0933 86.5166 61.3223Q89.1434 63.1428 91.104 65.5143L91.1041 65.5144Q96.873 72.4924 96.873 84.2397Q96.873 95.9736 91.1173 102.978Q89.1524 105.369 86.5166 107.208Q76.1602 114.386 58.626 114.386L58.626 119.411Q58.626 120.361 58.2903 121.172Q57.9195 122.068 57.1392 122.794Q56.3841 123.549 55.473 123.907Q54.6519 124.23 53.7041 124.23L44.2705 124.23Q43.3884 124.23 42.606 123.951Q41.615 123.597 40.7842 122.794Q40.0038 122.068 39.633 121.172Q39.2974 120.361 39.2974 119.411L39.2974 114.386Q21.7632 114.386 11.4067 107.208Q8.82964 105.401 6.89702 103.061L6.89692 103.06Q1.10156 96.0432 1.10156 84.2397Q1.10156 72.4231 6.90989 65.4322Q8.83825 63.1113 11.4067 61.3223Q21.7632 54.0933 39.2974 54.0933ZM105.281 135.15L105.281 67.9873Q105.281 67.0265 105.701 66.3127L105.701 66.3124Q105.886 65.9979 106.153 65.7314Q106.581 65.3034 107.097 65.0738Q107.694 64.8086 108.409 64.8086L118.304 64.8086Q119.074 64.8086 119.69 65.1167Q120.14 65.3418 120.508 65.7314Q120.843 66.048 121.057 66.4322Q121.431 67.1058 121.431 67.9873L121.431 69.5254Q123.831 67.8245 126.459 66.6275Q132.706 63.7832 140.247 63.7832Q146.042 63.7832 150.803 66.0026Q154.844 67.8869 158.14 71.3711Q158.297 71.5353 158.449 71.7026Q165.318 79.2149 165.318 93.0068Q165.318 106.177 158.784 113.579L158.782 113.581Q158.347 114.073 157.884 114.54Q156.311 116.124 154.506 117.373L154.505 117.373Q147.78 122.025 137.837 122.025Q131.326 122.025 123.021 119.411L123.021 135.15Q123.021 136.032 122.646 136.705Q122.433 137.09 122.098 137.406Q121.73 137.796 121.279 138.021Q120.663 138.329 119.893 138.329L108.409 138.329Q107.694 138.329 107.097 138.064Q106.581 137.834 106.153 137.406Q105.886 137.14 105.701 136.825Q105.281 136.111 105.281 135.15ZM178.393 117.309Q175.35 115.188 173.675 112.279Q171.625 108.719 171.625 103.979Q171.625 99.1773 173.728 95.6186Q175.397 92.7931 178.393 90.751Q185.211 86.1367 195.927 86.1367L212.897 86.1367Q212.897 80.1382 210.385 77.7798Q207.873 75.4214 201.566 75.4214Q195.397 75.4214 192.818 78.4644Q192.783 78.5063 192.748 78.5488Q191.243 80.3913 189.316 81.1302Q188.025 81.625 186.544 81.625L178.905 81.625Q177.996 81.625 177.286 81.2491Q176.915 81.0525 176.598 80.7534Q176.24 80.3743 176.029 79.9261Q175.727 79.283 175.727 78.4976Q175.727 75.303 177.044 72.802Q181.793 63.7832 203.668 63.7832Q215.871 63.7832 223.253 69.269Q225.041 70.5847 226.395 72.2519Q230.636 77.4715 230.636 86.1367L230.636 117.873Q230.636 118.833 230.216 119.547Q230.031 119.862 229.765 120.128Q229.498 120.395 229.183 120.58Q228.47 121 227.509 121L217.614 121Q216.653 121 215.939 120.58Q215.625 120.395 215.358 120.128Q215 119.749 214.789 119.301Q214.486 118.658 214.486 117.873L214.486 116.283Q211.782 118.217 208.798 119.5L208.798 119.5Q202.843 122.06 195.773 122.025Q185.211 122.025 178.393 117.309ZM447.863 106.593Q447.863 105.632 448.283 104.919Q448.468 104.604 448.735 104.337Q449.114 103.979 449.562 103.768Q450.205 103.466 450.991 103.466L458.681 103.466Q459.969 103.466 461.046 103.941Q462.887 104.753 464.116 106.952Q464.49 107.596 464.991 108.119Q467.162 110.387 471.704 110.387L482.111 110.387Q486.553 110.387 488.341 108.209Q489.545 106.742 489.545 104.286Q489.545 101.827 488.337 100.367Q486.549 98.2057 482.111 98.2363L469.396 98.2363Q468.487 98.2363 467.777 97.8604Q467.406 97.6639 467.089 97.3647Q466.79 97.048 466.594 96.6769Q466.218 95.9667 466.218 95.0576L466.218 89.7256Q466.218 88.7648 466.638 88.051Q466.823 87.7363 467.089 87.4697Q467.458 87.1006 467.901 86.8791Q468.566 86.5469 469.396 86.5469L481.137 86.5469Q484.521 86.5469 486.213 85.0601Q486.886 84.4659 487.299 83.7264Q487.956 82.5515 487.956 81.0098Q487.956 79.468 487.299 78.2931Q486.886 77.5536 486.213 76.9595Q484.521 75.4214 481.137 75.4214L471.704 75.4214Q469.909 75.4214 468.012 76.3442Q466.687 76.953 465.837 77.9622L465.837 77.9626Q465.47 78.3979 465.192 78.9077Q463.921 81.1239 462.05 81.9106Q460.977 82.3615 459.707 82.3428L452.067 82.3428Q451.158 82.3428 450.448 81.9668Q450.077 81.7704 449.76 81.4712Q449.494 81.2046 449.309 80.89Q448.889 80.1761 448.889 79.2153Q448.889 76.7695 449.727 74.6564Q451.262 70.7902 455.605 68.0386Q462.373 63.7832 471.909 63.7832L482.214 63.7832Q493.032 63.7832 499.338 67.7822Q501.986 69.4269 503.532 71.7923Q505.695 75.1047 505.695 79.8306Q505.695 83.8255 503.912 86.7232Q502.08 89.7011 498.364 91.52Q503.035 93.8823 505.26 97.6784Q507.285 101.132 507.285 105.773Q507.285 111.546 504.501 115.196Q503.181 116.927 501.235 118.18Q495.236 122.025 483.342 122.025L471.909 122.025Q461.604 122.025 454.733 117.821Q450.331 115.127 448.749 111.275Q447.863 109.116 447.863 106.593ZM543.43 122.025Q529.628 122.025 521.702 115.201L521.689 115.19Q521.378 114.921 521.076 114.643Q520.156 113.793 519.342 112.852Q513.078 105.614 513.078 92.9556Q513.078 80.0994 519.452 72.8355L519.457 72.829Q520.198 71.9854 521.025 71.2173Q521.531 70.7441 522.062 70.3011Q529.872 63.7832 543.122 63.7832Q557.324 63.7832 564.912 68.2949Q568.778 70.5786 570.688 73.9657Q572.551 77.2703 572.551 81.625Q572.551 82.5065 572.177 83.1801Q571.963 83.5643 571.628 83.8809Q571.362 84.1469 571.048 84.3317L571.047 84.3326Q570.333 84.7524 569.372 84.7524L561.733 84.7524Q560.87 84.7524 560.073 84.5232Q557.65 83.8261 555.837 81.0098Q555.224 80.0336 554.42 79.2552Q551.254 76.1904 545.122 76.1904Q537.807 76.1904 534.676 79.8095L534.658 79.8308Q534.528 79.9814 534.406 80.1382Q531.381 84.0347 531.381 92.9043Q531.381 101.774 534.509 105.722Q534.588 105.82 534.67 105.916Q537.881 109.669 545.48 109.669Q551.864 109.669 555.056 106.477Q555.786 105.747 556.35 104.85Q558.178 101.972 560.626 101.277Q561.405 101.056 562.246 101.056L569.885 101.056Q570.766 101.056 571.44 101.43Q571.824 101.644 572.141 101.979Q572.53 102.347 572.755 102.797Q573.063 103.413 573.063 104.184Q573.063 108.538 571.201 111.843Q569.291 115.23 565.424 117.514Q557.836 122.025 543.43 122.025ZM886.426 106.593Q886.426 105.632 886.846 104.919L886.846 104.918Q887.031 104.604 887.297 104.337Q887.676 103.979 888.125 103.768Q888.768 103.466 889.553 103.466L897.244 103.466Q898.531 103.466 899.609 103.941Q901.449 104.753 902.678 106.952Q903.052 107.595 903.552 108.117L903.553 108.119Q905.725 110.387 910.266 110.387L920.674 110.387Q925.116 110.387 926.904 108.209Q928.108 106.742 928.108 104.286Q928.108 101.827 926.9 100.367Q925.111 98.2057 920.674 98.2363L907.959 98.2363Q907.05 98.2363 906.34 97.8604Q905.969 97.6639 905.652 97.3647Q905.353 97.048 905.156 96.6769Q904.78 95.9668 904.78 95.0576L904.78 89.7256Q904.78 88.7648 905.2 88.051L905.201 88.05Q905.386 87.7359 905.652 87.4697Q906.021 87.1008 906.464 86.8791Q907.128 86.5469 907.959 86.5469L919.7 86.5469Q923.083 86.5469 924.775 85.0601Q925.449 84.466 925.862 83.7264Q926.519 82.5515 926.519 81.0098Q926.519 79.468 925.862 78.2931Q925.449 77.5535 924.775 76.9595Q923.083 75.4214 919.7 75.4214L910.266 75.4214Q908.472 75.4214 906.575 76.3442Q905.25 76.9531 904.4 77.9622L904.399 77.9635Q904.033 78.3984 903.755 78.9077Q902.484 81.1238 900.612 81.9106Q899.539 82.3615 898.269 82.3428L890.63 82.3428Q889.721 82.3428 889.011 81.9668Q888.64 81.7704 888.323 81.4712Q888.057 81.205 887.872 80.8909L887.871 80.89Q887.451 80.1761 887.451 79.2153Q887.451 76.7695 888.29 74.6564Q889.825 70.7902 894.167 68.0386Q900.935 63.7832 910.471 63.7832L920.776 63.7832Q931.594 63.7832 937.9 67.7822Q940.549 69.4268 942.094 71.7923Q944.258 75.1047 944.258 79.8306Q944.258 83.8255 942.475 86.7232Q940.642 89.7011 936.926 91.52Q941.597 93.8823 943.823 97.6784Q945.847 101.132 945.847 105.773Q945.847 111.546 943.063 115.196Q941.743 116.927 939.797 118.18Q933.799 122.025 921.904 122.025L910.471 122.025Q900.166 122.025 893.296 117.821Q888.893 115.127 887.312 111.275Q886.426 109.116 886.426 106.593ZM243.301 117.873L243.301 67.9873Q243.301 67.0265 243.721 66.3127Q243.906 65.998 244.172 65.7314Q244.6 65.3033 245.117 65.0738Q245.714 64.8086 246.428 64.8086L257.913 64.8086Q258.794 64.8086 259.468 65.1828Q259.852 65.3964 260.168 65.7314Q260.435 65.998 260.62 66.3127Q261.04 67.0265 261.04 67.9873L261.04 86.3418L283.496 86.3418L283.496 67.9873Q283.496 67.0265 283.916 66.3127Q284.101 65.998 284.368 65.7314Q284.737 65.3623 285.18 65.1408Q285.844 64.8086 286.675 64.8086L298.108 64.8086Q298.989 64.8086 299.663 65.1828Q300.047 65.3964 300.364 65.7314Q300.63 65.998 300.815 66.3127Q301.235 67.0265 301.235 67.9873L301.235 117.873Q301.235 118.833 300.815 119.547Q300.63 119.862 300.364 120.128Q300.097 120.395 299.783 120.58Q299.069 121 298.108 121L286.675 121Q285.766 121 285.056 120.624Q284.684 120.428 284.368 120.128Q284.01 119.749 283.799 119.301Q283.496 118.658 283.496 117.873L283.496 98.749L261.04 98.749L261.04 117.873Q261.04 118.754 260.666 119.428Q260.452 119.812 260.117 120.128Q259.797 120.449 259.414 120.651Q258.756 121 257.913 121L246.428 121Q245.467 121 244.754 120.58Q244.439 120.395 244.172 120.128Q243.906 119.862 243.721 119.547Q243.301 118.833 243.301 117.873ZM313.848 117.873L313.848 67.9873Q313.848 67.0265 314.268 66.3127Q314.453 65.998 314.719 65.7314Q315.147 65.3033 315.664 65.0738Q316.261 64.8086 316.975 64.8086L328.459 64.8086Q329.341 64.8086 330.015 65.1828Q330.399 65.3964 330.715 65.7314Q330.982 65.998 331.167 66.3127Q331.587 67.0265 331.587 67.9873L331.587 108.593L353.428 108.593L353.428 67.9873Q353.428 67.0265 353.848 66.3127Q354.033 65.998 354.299 65.7314Q354.727 65.3033 355.244 65.0738Q355.841 64.8086 356.555 64.8086L368.04 64.8086Q368.921 64.8086 369.595 65.1828Q369.979 65.3964 370.295 65.7314Q370.562 65.998 370.747 66.3127Q371.167 67.0265 371.167 67.9873L371.167 108.593L376.191 108.593Q377.073 108.593 377.746 108.967Q378.131 109.181 378.447 109.516Q378.782 109.832 378.996 110.216Q379.37 110.89 379.37 111.771L379.37 117.873Q379.37 118.754 378.996 119.428Q378.782 119.812 378.447 120.128Q378.181 120.395 377.866 120.58Q377.152 121 376.191 121L316.975 121Q316.014 121 315.3 120.58Q314.986 120.395 314.719 120.128Q314.453 119.862 314.268 119.547Q313.848 118.833 313.848 117.873ZM396.648 126.332L403.365 127.204Q405.095 127.204 406.576 126.596Q411.281 124.663 413.465 116.591Q407.337 116.591 402.628 114.006Q400.64 112.914 398.904 111.361Q393.06 106.081 388.855 92.6479L381.216 67.8848Q381.062 67.4746 381.062 66.9619Q381.062 66.3979 381.678 65.6289Q381.784 65.5068 381.905 65.4027Q382.548 64.8517 383.626 64.8086L394.341 64.8086Q394.656 64.8086 394.964 64.8546L394.967 64.855Q396.112 65.0267 397.161 65.834Q398.131 66.5165 398.623 67.4507L398.623 67.4513Q398.833 67.8502 398.956 68.2949L405.672 90.0332Q408.184 98.0312 410.748 101.107Q412.535 103.21 414.753 103.875Q415.78 104.184 416.9 104.184L427.103 68.2949Q427.317 67.5172 427.742 66.8798Q428.13 66.2985 428.692 65.834Q429.503 65.1584 430.424 64.9279Q430.902 64.8086 431.409 64.8086L442.227 64.8086Q443.207 64.8086 443.798 65.2883Q443.979 65.4359 444.124 65.6289Q444.739 66.4492 444.739 67.0132Q444.739 67.5259 444.637 67.8848L431.204 115.771Q427.615 128.485 422.283 133.92Q420.484 135.772 418.327 136.993Q414.154 139.354 408.646 139.354Q400.289 139.354 396.802 138.739Q393.367 138.124 392.496 137.201Q391.994 136.7 391.781 136.096Q391.624 135.651 391.624 135.15L391.624 129.511Q391.624 128.602 392 127.892Q392.196 127.52 392.496 127.204Q392.762 126.937 393.077 126.752Q393.791 126.332 394.751 126.332L396.648 126.332ZM638.125 118.744Q638.125 119.685 637.661 120.234Q637.013 121 635.459 121L625.77 121Q623.99 121 622.472 120.37Q619.791 119.258 617.925 116.181L611.414 105.568Q609.305 102.147 606.241 100.442Q603.198 98.749 599.212 98.749L599.212 117.873Q599.212 118.754 598.838 119.428Q598.624 119.812 598.289 120.128Q597.969 120.449 597.586 120.651Q596.927 121 596.084 121L584.6 121Q583.639 121 582.925 120.58L582.924 120.579Q582.61 120.394 582.344 120.128Q582.078 119.862 581.893 119.548L581.893 119.547Q581.473 118.833 581.473 117.873L581.473 67.9873Q581.473 67.0265 581.893 66.3127L581.893 66.3117Q582.078 65.9977 582.344 65.7314Q582.772 65.3036 583.289 65.0738Q583.886 64.8086 584.6 64.8086L596.084 64.8086Q596.966 64.8086 597.64 65.1828Q598.024 65.3963 598.34 65.7314Q598.607 65.9977 598.791 66.3117L598.792 66.3127Q599.212 67.0265 599.212 67.9873L599.212 87.0596Q604.842 87.0596 608.226 84.3023Q610.204 82.691 611.414 80.1382L616.336 69.6792Q616.89 68.4888 617.727 67.5524Q618.441 66.7548 619.361 66.1416Q620.602 65.3141 621.962 65.0003L621.964 64.9999Q622.793 64.8086 623.667 64.8086L633.357 64.8086Q634.951 64.8086 635.554 65.5815Q635.921 66.0518 635.921 66.8081Q635.921 67.936 635.101 69.6792L628.487 83.6245Q627.584 85.4849 626.331 87.0679L626.329 87.0695Q625.235 88.4521 623.873 89.623Q621.183 91.9352 618.102 92.7273Q617.836 92.7959 617.566 92.853Q617.636 92.8741 617.706 92.8959Q623.924 94.8315 628.487 102.082L637.203 116.181Q638.074 117.667 638.125 118.744ZM645.559 117.873L645.559 67.9873Q645.559 67.0265 645.978 66.3127L645.979 66.3117Q646.164 65.9977 646.43 65.7314Q646.858 65.3036 647.375 65.0738Q647.971 64.8086 648.686 64.8086L659.401 64.8086Q660.283 64.8086 660.956 65.1828Q661.341 65.3963 661.657 65.7314Q661.992 66.048 662.206 66.4322Q662.58 67.1058 662.58 67.9873L662.58 101.671L680.627 68.5Q680.765 68.2325 680.928 67.981Q681.732 66.7381 683.139 65.8853Q684.831 64.8086 686.42 64.8086L700.776 64.8086Q701.657 64.8086 702.331 65.1828Q702.715 65.3963 703.032 65.7314Q703.367 66.048 703.58 66.4322Q703.955 67.1058 703.955 67.9873L703.955 117.873Q703.955 118.754 703.58 119.428Q703.367 119.812 703.032 120.128Q702.766 120.394 702.452 120.579L702.451 120.58Q701.737 121 700.776 121L690.061 121Q689.1 121 688.386 120.58L688.385 120.579Q688.071 120.394 687.805 120.128Q687.447 119.749 687.236 119.301Q686.933 118.658 686.933 117.873L686.933 84.2397L668.886 117.309Q668.066 118.795 666.374 119.923Q664.682 121 663.093 121L648.686 121Q647.725 121 647.011 120.58L647.01 120.579Q646.696 120.394 646.43 120.128Q646.164 119.862 645.979 119.548L645.978 119.547Q645.559 118.833 645.559 117.873ZM716.516 117.873L716.516 67.9873Q716.516 67.0265 716.935 66.3127L716.936 66.3117Q717.121 65.9977 717.387 65.7314Q717.815 65.3036 718.332 65.0738Q718.929 64.8086 719.643 64.8086L730.358 64.8086Q731.24 64.8086 731.914 65.1828Q732.298 65.3963 732.614 65.7314Q732.949 66.048 733.163 66.4322Q733.537 67.1058 733.537 67.9873L733.537 101.671L751.584 68.5Q751.722 68.2325 751.885 67.981Q752.689 66.7381 754.096 65.8853Q755.788 64.8086 757.377 64.8086L771.733 64.8086Q772.614 64.8086 773.288 65.1828Q773.672 65.3963 773.989 65.7314Q774.324 66.048 774.537 66.4322Q774.912 67.1058 774.912 67.9873L774.912 117.873Q774.912 118.754 774.537 119.428Q774.324 119.812 773.989 120.128Q773.723 120.394 773.409 120.579L773.408 120.58Q772.694 121 771.733 121L761.018 121Q760.057 121 759.343 120.58L759.342 120.579Q759.028 120.394 758.762 120.128Q758.404 119.749 758.193 119.301Q757.89 118.658 757.89 117.873L757.89 84.2397L739.843 117.309Q739.023 118.795 737.331 119.923Q735.639 121 734.05 121L719.643 121Q718.682 121 717.968 120.58L717.967 120.579Q717.653 120.394 717.387 120.128Q717.121 119.862 716.936 119.548L716.935 119.547Q716.516 118.833 716.516 117.873ZM821.775 82.9067Q821.775 75.9846 825.139 71.71Q830.546 64.8402 844.641 64.8086L874.89 64.8086Q875.771 64.8086 876.445 65.1828Q876.829 65.3963 877.146 65.7314Q877.412 65.9977 877.597 66.3117L877.598 66.3127Q878.018 67.0265 878.018 67.9873L878.018 117.873Q878.018 118.833 877.598 119.547L877.597 119.548Q877.412 119.862 877.146 120.128Q876.88 120.394 876.566 120.579L876.565 120.58Q875.851 121 874.89 121L863.457 121Q862.548 121 861.838 120.624Q861.467 120.428 861.15 120.128Q860.792 119.749 860.581 119.301Q860.278 118.658 860.278 117.873L860.278 100.954L850.229 100.954L841.514 116.488Q840.405 118.479 838.717 119.592Q836.581 121 833.516 121L824.287 121Q822.988 121 822.314 120.351Q822.004 120.052 821.826 119.616Q821.621 119.154 821.621 118.437Q821.621 117.667 822.39 116.488L832.695 99.2617Q827.694 97.4067 824.983 93.8204Q821.775 89.576 821.775 82.9067ZM954.816 117.873L954.816 67.9873Q954.816 67.0265 955.236 66.3127L955.237 66.3117Q955.422 65.9977 955.688 65.7314Q956.116 65.3036 956.633 65.0738Q957.229 64.8086 957.944 64.8086L969.428 64.8086Q970.31 64.8086 970.983 65.1828Q971.367 65.3963 971.684 65.7314Q971.95 65.9977 972.135 66.3117L972.136 66.3127Q972.556 67.0265 972.556 67.9873L972.556 83.4194L984.758 83.4194Q995.678 83.4194 1001.63 87.7261Q1002.52 88.3703 1003.29 89.1465L1003.29 89.1476Q1007.62 93.5601 1007.62 102.235Q1007.62 110.822 1003.33 115.227Q1002.55 116.03 1001.63 116.693Q995.678 121 984.758 121L957.944 121Q956.983 121 956.269 120.58L956.268 120.579Q955.954 120.394 955.688 120.128Q955.422 119.862 955.237 119.548L955.236 119.547Q954.816 118.833 954.816 117.873ZM1014.85 117.873L1014.85 67.9873Q1014.85 67.0265 1015.27 66.3127L1015.27 66.3117Q1015.46 65.9977 1015.72 65.7314Q1016.09 65.3625 1016.54 65.1408Q1017.2 64.8086 1018.03 64.8086L1029.46 64.8086Q1030.35 64.8086 1031.02 65.1828L1031.02 65.1839Q1031.4 65.3971 1031.72 65.7314Q1031.99 65.9978 1032.17 66.3127Q1032.59 67.0266 1032.59 67.9873L1032.59 117.873Q1032.59 118.833 1032.17 119.547Q1031.99 119.862 1031.72 120.128Q1031.45 120.395 1031.14 120.58Q1030.43 121 1029.46 121L1018.03 121Q1017.12 121 1016.41 120.624Q1016.04 120.428 1015.72 120.128Q1015.46 119.862 1015.27 119.548L1015.27 119.547Q1014.85 118.833 1014.85 117.873ZM1101.91 118.744Q1101.91 119.685 1101.45 120.234Q1100.8 121 1099.24 121L1089.55 121Q1087.78 121 1086.26 120.37Q1083.58 119.258 1081.71 116.181L1075.2 105.568Q1073.09 102.147 1070.03 100.442Q1066.98 98.749 1063 98.749L1063 117.873Q1063 118.754 1062.62 119.428Q1062.41 119.812 1062.07 120.128Q1061.76 120.448 1061.37 120.65L1061.37 120.651Q1060.71 121 1059.87 121L1048.39 121Q1047.42 121 1046.71 120.58Q1046.4 120.395 1046.13 120.128Q1045.86 119.862 1045.68 119.547Q1045.26 118.833 1045.26 117.873L1045.26 67.9873Q1045.26 67.0266 1045.68 66.3127Q1045.86 65.9978 1046.13 65.7314Q1046.56 65.3039 1047.07 65.0738Q1047.67 64.8086 1048.39 64.8086L1059.87 64.8086Q1060.75 64.8086 1061.42 65.1828L1061.43 65.1839Q1061.81 65.3971 1062.13 65.7314Q1062.39 65.9978 1062.58 66.3127Q1063 67.0266 1063 67.9873L1063 87.0596Q1068.63 87.0596 1072.01 84.3023Q1073.99 82.6906 1075.2 80.1382L1080.12 69.6792Q1080.67 68.4888 1081.51 67.5524Q1082.23 66.7548 1083.15 66.1416Q1084.39 65.3145 1085.75 65.0003Q1086.58 64.8086 1087.45 64.8086L1097.14 64.8086Q1098.74 64.8086 1099.34 65.5815Q1099.71 66.0518 1099.71 66.8081Q1099.71 67.936 1098.89 69.6792L1092.27 83.6245Q1091.37 85.4849 1090.12 87.0679L1090.11 87.0695Q1089.02 88.4521 1087.66 89.623Q1084.97 91.9352 1081.89 92.7273Q1081.83 92.7429 1081.77 92.7578Q1081.56 92.8088 1081.35 92.853Q1081.42 92.8741 1081.49 92.8959Q1087.71 94.8315 1092.27 102.082L1100.99 116.181Q1101.86 117.667 1101.91 118.744ZM39.8613 100.543L39.8613 67.9873Q30.8379 67.9873 25.6084 72.0376Q24.4443 72.9366 23.5418 74.0482Q20.4302 77.8808 20.4302 84.2397Q20.4302 90.5822 23.5257 94.4421Q24.4339 95.5745 25.6084 96.4932Q30.8379 100.543 39.8613 100.543ZM58.1133 100.543Q67.1367 100.543 72.3149 96.4932Q73.5495 95.537 74.4926 94.3494Q77.5444 90.5063 77.5444 84.2397Q77.5444 77.9562 74.476 74.1394Q73.5387 72.9734 72.3149 72.0376Q67.1367 67.9873 58.1133 67.9873L58.1133 100.543ZM123.021 107.567Q129.634 109.669 134.146 109.669Q140.312 109.669 143.318 106.587L143.318 106.587Q143.736 106.158 144.092 105.67Q147.066 101.671 147.066 92.9043Q147.066 84.1372 144.246 80.1895Q143.3 78.8223 142.024 77.9226Q139.567 76.1904 135.889 76.1904Q130.352 76.1904 123.021 80.8047L123.021 107.567ZM841.309 78.2412Q840.921 78.607 840.617 79.0328Q839.514 80.5761 839.514 82.9067Q839.514 85.1804 840.569 86.7403Q840.871 87.1855 841.257 87.5723Q841.458 87.7674 841.676 87.9407Q843.408 89.3154 846.23 89.3154L860.278 89.3154L860.278 76.498L846.23 76.498Q843.523 76.498 841.815 77.8045Q841.55 78.0071 841.309 78.2412ZM972.248 109.567L983.168 109.567Q986.233 109.567 987.899 108.04Q989.885 106.222 989.885 102.235Q989.885 98.1957 987.874 96.3664Q986.21 94.8525 983.168 94.8525L972.248 94.8525L972.248 109.567ZM197.157 97.7749Q193.568 97.7749 191.466 99.5181Q190.523 100.32 190.014 101.339Q189.416 102.535 189.416 104.03Q189.416 105.367 189.918 106.476Q190.455 107.665 191.569 108.593Q193.722 110.387 197.67 110.387Q199.295 110.387 200.897 110.192L200.9 110.191Q207.076 109.436 212.897 105.773L212.897 97.7749L197.157 97.7749Z" fill="rgb(255,255,255)" fill-rule="evenodd" />
</svg>
