<svg viewBox="0 0 1147.59 138.329" xmlns="http://www.w3.org/2000/svg" xmlns:xlink="http://www.w3.org/1999/xlink" width="1147.593750" height="138.329102" fill="none" customFrame="#000000">
	<rect id="Ex max black (color) 21" width="1147.593750" height="138.329102" x="0.000000" y="0.000000" fill="rgb(255,255,255)" fill-opacity="0" />
	<path id="Ex max black (color) 21" d="M3.87703 28.0155L1.02092 22.4802C-1.15403 18.2649 0.229996 12.9984 4.37392 10.8245C40.1818 -7.96054 74.0038 1.40645 91.4021 11.2102C94.9895 13.2316 95.9894 17.6134 93.9708 21.2611C92.9314 23.1395 91.6076 25.505 89.942 28.4479C87.5114 32.7426 82.1589 34.1553 77.7864 32.0115C56.5322 21.5908 37.9312 21.5785 16.1367 31.9746C11.6439 34.1177 6.19225 32.5026 3.87703 28.0155Z" fill="rgb(16.7995,16.7995,16.7995)" fill-rule="evenodd" />
	<path id="Ex max black (color) 21" d="M1095.61 114.54C1090.34 109.55 1087.71 102.372 1087.71 93.0068C1087.71 83.6074 1090.36 76.3955 1095.66 71.3711C1100.96 66.3125 1108.3 63.7832 1117.7 63.7832C1127.1 63.7832 1134.43 66.2441 1139.7 71.166C1144.96 76.0537 1147.59 83.0776 1147.59 92.2378L1147.59 95.1602C1147.59 96.083 1147.29 96.8521 1146.67 97.4673C1146.09 98.0483 1145.34 98.3389 1144.42 98.3389L1105.81 98.3389C1106.15 102.543 1107.35 105.602 1109.4 107.516C1111.48 109.43 1114.8 110.387 1119.34 110.387C1123.89 110.387 1127 109.362 1128.68 107.311C1130.35 105.26 1132.42 104.218 1134.88 104.184L1142.52 104.184C1143.44 104.184 1144.19 104.491 1144.77 105.106C1145.39 105.688 1145.7 106.439 1145.7 107.362C1145.7 117.172 1136.35 122.06 1117.65 122.025C1108.22 122.025 1100.87 119.53 1095.61 114.54ZM1105.71 87.521L1129.55 87.521C1129.21 79.4546 1125.24 75.4214 1117.65 75.4214C1110.1 75.4214 1106.12 79.4546 1105.71 87.521Z" fill="rgb(16.7995,16.7995,16.7995)" fill-rule="nonzero" />
	<path id="Ex max black (color) 21" d="M1095.61 114.54C1090.34 109.55 1087.71 102.372 1087.71 93.0068C1087.71 83.6074 1090.36 76.3955 1095.66 71.3711C1100.96 66.3125 1108.3 63.7832 1117.7 63.7832C1127.1 63.7832 1134.43 66.2441 1139.7 71.166C1144.96 76.0537 1147.59 83.0776 1147.59 92.2378L1147.59 95.1602C1147.59 96.083 1147.29 96.8521 1146.67 97.4673C1146.09 98.0483 1145.34 98.3389 1144.42 98.3389L1105.81 98.3389C1106.15 102.543 1107.35 105.602 1109.4 107.516C1111.48 109.43 1114.8 110.387 1119.34 110.387C1123.89 110.387 1127 109.362 1128.68 107.311C1130.35 105.26 1132.42 104.218 1134.88 104.184L1142.52 104.184C1143.44 104.184 1144.19 104.491 1144.77 105.106C1145.39 105.688 1145.7 106.439 1145.7 107.362C1145.7 117.172 1136.35 122.06 1117.65 122.025C1108.22 122.025 1100.87 119.53 1095.61 114.54ZM1105.71 87.521L1129.55 87.521C1129.21 79.4546 1125.24 75.4214 1117.65 75.4214C1110.1 75.4214 1106.12 79.4546 1105.71 87.521Z" fill="rgb(0,0,0)" fill-rule="nonzero" />
	<path id="Ex max black (color) 21" d="M1019.93 117.873L1019.93 67.9873C1019.93 67.0645 1020.22 66.3125 1020.8 65.7314C1021.42 65.1162 1022.17 64.8086 1023.06 64.8086L1033.77 64.8086C1034.7 64.8086 1035.45 65.1162 1036.03 65.7314C1036.64 66.3125 1036.95 67.0645 1036.95 67.9873L1036.95 101.671L1055 68.5C1055.54 67.4404 1056.38 66.5688 1057.51 65.8853C1058.64 65.1675 1059.73 64.8086 1060.79 64.8086L1075.15 64.8086C1076.07 64.8086 1076.82 65.1162 1077.4 65.7314C1078.02 66.3125 1078.33 67.0645 1078.33 67.9873L1078.33 117.873C1078.33 118.795 1078.02 119.547 1077.4 120.128C1076.82 120.709 1076.07 121 1075.15 121L1064.43 121C1063.51 121 1062.76 120.709 1062.18 120.128C1061.59 119.513 1061.3 118.761 1061.3 117.873L1061.3 84.2397L1043.26 117.309C1042.71 118.3 1041.87 119.171 1040.75 119.923C1039.62 120.641 1038.52 121 1037.46 121L1023.06 121C1022.13 121 1021.38 120.709 1020.8 120.128C1020.22 119.547 1019.93 118.795 1019.93 117.873Z" fill="rgb(16.7995,16.7995,16.7995)" fill-rule="nonzero" />
	<path id="Ex max black (color) 21" d="M1019.93 117.873L1019.93 67.9873C1019.93 67.0645 1020.22 66.3125 1020.8 65.7314C1021.42 65.1162 1022.17 64.8086 1023.06 64.8086L1033.77 64.8086C1034.7 64.8086 1035.45 65.1162 1036.03 65.7314C1036.64 66.3125 1036.95 67.0645 1036.95 67.9873L1036.95 101.671L1055 68.5C1055.54 67.4404 1056.38 66.5688 1057.51 65.8853C1058.64 65.1675 1059.73 64.8086 1060.79 64.8086L1075.15 64.8086C1076.07 64.8086 1076.82 65.1162 1077.4 65.7314C1078.02 66.3125 1078.33 67.0645 1078.33 67.9873L1078.33 117.873C1078.33 118.795 1078.02 119.547 1077.4 120.128C1076.82 120.709 1076.07 121 1075.15 121L1064.43 121C1063.51 121 1062.76 120.709 1062.18 120.128C1061.59 119.513 1061.3 118.761 1061.3 117.873L1061.3 84.2397L1043.26 117.309C1042.71 118.3 1041.87 119.171 1040.75 119.923C1039.62 120.641 1038.52 121 1037.46 121L1023.06 121C1022.13 121 1021.38 120.709 1020.8 120.128C1020.22 119.547 1019.93 118.795 1019.93 117.873Z" fill="rgb(0,0,0)" fill-rule="nonzero" />
	<path id="Ex max black (color) 21" d="M949.383 117.873L949.383 67.9873C949.383 67.0645 949.673 66.3125 950.254 65.7314C950.87 65.1162 951.622 64.8086 952.51 64.8086L963.995 64.8086C964.917 64.8086 965.669 65.1162 966.25 65.7314C966.832 66.3125 967.122 67.0645 967.122 67.9873L967.122 86.3418L989.578 86.3418L989.578 67.9873C989.578 67.0645 989.869 66.3125 990.45 65.7314C991.065 65.1162 991.834 64.8086 992.757 64.8086L1004.19 64.8086C1005.11 64.8086 1005.86 65.1162 1006.45 65.7314C1007.03 66.3125 1007.32 67.0645 1007.32 67.9873L1007.32 117.873C1007.32 118.795 1007.03 119.547 1006.45 120.128C1005.86 120.709 1005.11 121 1004.19 121L992.757 121C991.834 121 991.065 120.709 990.45 120.128C989.869 119.513 989.578 118.761 989.578 117.873L989.578 98.749L967.122 98.749L967.122 117.873C967.122 118.795 966.814 119.547 966.199 120.128C965.618 120.709 964.883 121 963.995 121L952.51 121C951.587 121 950.835 120.709 950.254 120.128C949.673 119.547 949.383 118.795 949.383 117.873Z" fill="rgb(16.7995,16.7995,16.7995)" fill-rule="nonzero" />
	<path id="Ex max black (color) 21" d="M949.383 117.873L949.383 67.9873C949.383 67.0645 949.673 66.3125 950.254 65.7314C950.87 65.1162 951.622 64.8086 952.51 64.8086L963.995 64.8086C964.917 64.8086 965.669 65.1162 966.25 65.7314C966.832 66.3125 967.122 67.0645 967.122 67.9873L967.122 86.3418L989.578 86.3418L989.578 67.9873C989.578 67.0645 989.869 66.3125 990.45 65.7314C991.065 65.1162 991.834 64.8086 992.757 64.8086L1004.19 64.8086C1005.11 64.8086 1005.86 65.1162 1006.45 65.7314C1007.03 66.3125 1007.32 67.0645 1007.32 67.9873L1007.32 117.873C1007.32 118.795 1007.03 119.547 1006.45 120.128C1005.86 120.709 1005.11 121 1004.19 121L992.757 121C991.834 121 991.065 120.709 990.45 120.128C989.869 119.513 989.578 118.761 989.578 117.873L989.578 98.749L967.122 98.749L967.122 117.873C967.122 118.795 966.814 119.547 966.199 120.128C965.618 120.709 964.883 121 963.995 121L952.51 121C951.587 121 950.835 120.709 950.254 120.128C949.673 119.547 949.383 118.795 949.383 117.873Z" fill="rgb(0,0,0)" fill-rule="nonzero" />
	<path id="Ex max black (color) 21" d="M884.479 117.309C879.967 114.164 877.711 109.721 877.711 103.979C877.711 98.2363 879.967 93.8271 884.479 90.751C889.024 87.6748 894.869 86.1367 902.013 86.1367L918.983 86.1367C918.983 82.1377 918.146 79.3521 916.471 77.7798C914.796 76.2075 911.856 75.4214 907.652 75.4214C903.482 75.4214 900.543 76.4639 898.834 78.5488C897.159 80.5996 895.091 81.625 892.63 81.625L884.991 81.625C884.068 81.625 883.299 81.3345 882.684 80.7534C882.103 80.1382 881.812 79.3862 881.812 78.4976C881.812 68.688 891.126 63.7832 909.754 63.7832C917.889 63.7832 924.417 65.6118 929.339 69.269C934.261 72.8921 936.722 78.5146 936.722 86.1367L936.722 117.873C936.722 118.795 936.432 119.547 935.851 120.128C935.27 120.709 934.518 121 933.595 121L923.7 121C922.777 121 922.025 120.709 921.444 120.128C920.863 119.513 920.572 118.761 920.572 117.873L920.572 116.283C915.172 120.146 908.934 122.06 901.859 122.025C894.818 122.025 889.024 120.453 884.479 117.309ZM903.243 97.7749C900.851 97.7749 898.954 98.356 897.552 99.5181C896.185 100.68 895.501 102.184 895.501 104.03C895.501 105.875 896.219 107.396 897.655 108.593C899.09 109.789 901.124 110.387 903.756 110.387C909.02 110.387 914.095 108.849 918.983 105.773L918.983 97.7749L903.243 97.7749Z" fill="rgb(16.7995,16.7995,16.7995)" fill-rule="nonzero" />
	<path id="Ex max black (color) 21" d="M884.479 117.309C879.967 114.164 877.711 109.721 877.711 103.979C877.711 98.2363 879.967 93.8271 884.479 90.751C889.024 87.6748 894.869 86.1367 902.013 86.1367L918.983 86.1367C918.983 82.1377 918.146 79.3521 916.471 77.7798C914.796 76.2075 911.856 75.4214 907.652 75.4214C903.482 75.4214 900.543 76.4639 898.834 78.5488C897.159 80.5996 895.091 81.625 892.63 81.625L884.991 81.625C884.068 81.625 883.299 81.3345 882.684 80.7534C882.103 80.1382 881.812 79.3862 881.812 78.4976C881.812 68.688 891.126 63.7832 909.754 63.7832C917.889 63.7832 924.417 65.6118 929.339 69.269C934.261 72.8921 936.722 78.5146 936.722 86.1367L936.722 117.873C936.722 118.795 936.432 119.547 935.851 120.128C935.27 120.709 934.518 121 933.595 121L923.7 121C922.777 121 922.025 120.709 921.444 120.128C920.863 119.513 920.572 118.761 920.572 117.873L920.572 116.283C915.172 120.146 908.934 122.06 901.859 122.025C894.818 122.025 889.024 120.453 884.479 117.309ZM903.243 97.7749C900.851 97.7749 898.954 98.356 897.552 99.5181C896.185 100.68 895.501 102.184 895.501 104.03C895.501 105.875 896.219 107.396 897.655 108.593C899.09 109.789 901.124 110.387 903.756 110.387C909.02 110.387 914.095 108.849 918.983 105.773L918.983 97.7749L903.243 97.7749Z" fill="rgb(0,0,0)" fill-rule="nonzero" />
	<path id="Ex max black (color) 21" d="M813.52 117.873L813.52 67.9873C813.52 67.0645 813.81 66.3125 814.391 65.7314C815.006 65.1162 815.758 64.8086 816.647 64.8086L847.306 64.8086C853.834 64.8086 859.115 66.0732 863.148 68.6025C867.216 71.1318 869.25 74.9429 869.25 80.0356C869.25 85.0942 867.147 88.9224 862.943 91.52C868.925 94.5278 871.916 98.9883 871.916 104.901C871.916 110.814 869.984 114.984 866.122 117.411C862.26 119.804 856.723 121 849.511 121L816.647 121C815.758 121 815.006 120.709 814.391 120.128C813.81 119.513 813.52 118.761 813.52 117.873ZM831.259 109.567L848.28 109.567C850.16 109.567 851.596 109.037 852.587 107.978C853.612 106.918 854.125 105.517 854.125 103.773C854.125 102.03 853.612 100.629 852.587 99.5693C851.596 98.5098 850.16 97.98 848.28 97.98L831.259 97.98L831.259 109.567ZM831.259 86.752L846.281 86.752C847.819 86.752 849.066 86.2734 850.023 85.3164C851.015 84.3252 851.51 83.0605 851.51 81.5225C851.51 79.9844 851.015 78.7368 850.023 77.7798C849.066 76.7886 847.819 76.293 846.281 76.293L831.259 76.293L831.259 86.752Z" fill="rgb(16.7995,16.7995,16.7995)" fill-rule="nonzero" />
	<path id="Ex max black (color) 21" d="M813.52 117.873L813.52 67.9873C813.52 67.0645 813.81 66.3125 814.391 65.7314C815.006 65.1162 815.758 64.8086 816.647 64.8086L847.306 64.8086C853.834 64.8086 859.115 66.0732 863.148 68.6025C867.216 71.1318 869.25 74.9429 869.25 80.0356C869.25 85.0942 867.147 88.9224 862.943 91.52C868.925 94.5278 871.916 98.9883 871.916 104.901C871.916 110.814 869.984 114.984 866.122 117.411C862.26 119.804 856.723 121 849.511 121L816.647 121C815.758 121 815.006 120.709 814.391 120.128C813.81 119.513 813.52 118.761 813.52 117.873ZM831.259 109.567L848.28 109.567C850.16 109.567 851.596 109.037 852.587 107.978C853.612 106.918 854.125 105.517 854.125 103.773C854.125 102.03 853.612 100.629 852.587 99.5693C851.596 98.5098 850.16 97.98 848.28 97.98L831.259 97.98L831.259 109.567ZM831.259 86.752L846.281 86.752C847.819 86.752 849.066 86.2734 850.023 85.3164C851.015 84.3252 851.51 83.0605 851.51 81.5225C851.51 79.9844 851.015 78.7368 850.023 77.7798C849.066 76.7886 847.819 76.293 846.281 76.293L831.259 76.293L831.259 86.752Z" fill="rgb(0,0,0)" fill-rule="nonzero" />
	<path id="Ex max black (color) 21" d="M750.049 114.643C744.717 109.721 742.051 102.475 742.051 92.9043C742.051 83.2998 744.717 76.0537 750.049 71.166C755.381 66.2441 763.037 63.7832 773.018 63.7832C783.032 63.7832 790.706 66.2441 796.038 71.166C801.37 76.0537 804.036 83.2998 804.036 92.9043C804.036 102.475 801.37 109.721 796.038 114.643C790.706 119.564 783.032 122.025 773.018 122.025C763.037 122.025 755.381 119.564 750.049 114.643ZM763.02 79.5742C760.901 82.3428 759.841 86.769 759.841 92.853C759.841 98.937 760.901 103.38 763.02 106.183C765.139 108.986 768.472 110.387 773.018 110.387C777.598 110.387 780.947 108.986 783.066 106.183C785.22 103.38 786.296 98.937 786.296 92.853C786.296 86.769 785.22 82.3428 783.066 79.5742C780.947 76.8057 777.598 75.4214 773.018 75.4214C768.472 75.4214 765.139 76.8057 763.02 79.5742Z" fill="rgb(16.7995,16.7995,16.7995)" fill-rule="nonzero" />
	<path id="Ex max black (color) 21" d="M750.049 114.643C744.717 109.721 742.051 102.475 742.051 92.9043C742.051 83.2998 744.717 76.0537 750.049 71.166C755.381 66.2441 763.037 63.7832 773.018 63.7832C783.032 63.7832 790.706 66.2441 796.038 71.166C801.37 76.0537 804.036 83.2998 804.036 92.9043C804.036 102.475 801.37 109.721 796.038 114.643C790.706 119.564 783.032 122.025 773.018 122.025C763.037 122.025 755.381 119.564 750.049 114.643ZM763.02 79.5742C760.901 82.3428 759.841 86.769 759.841 92.853C759.841 98.937 760.901 103.38 763.02 106.183C765.139 108.986 768.472 110.387 773.018 110.387C777.598 110.387 780.947 108.986 783.066 106.183C785.22 103.38 786.296 98.937 786.296 92.853C786.296 86.769 785.22 82.3428 783.066 79.5742C780.947 76.8057 777.598 75.4214 773.018 75.4214C768.472 75.4214 765.139 76.8057 763.02 79.5742Z" fill="rgb(0,0,0)" fill-rule="nonzero" />
	<path id="Ex max black (color) 21" d="M675.707 135.15L675.707 67.9873C675.707 67.0645 675.998 66.3125 676.579 65.7314C677.194 65.1162 677.946 64.8086 678.834 64.8086L688.729 64.8086C689.618 64.8086 690.353 65.1162 690.934 65.7314C691.549 66.3125 691.857 67.0645 691.857 67.9873L691.857 69.5254C697.257 65.6973 703.529 63.7832 710.673 63.7832C717.816 63.7832 723.781 66.3125 728.566 71.3711C733.351 76.3955 735.744 83.6074 735.744 93.0068C735.744 102.372 733.266 109.55 728.31 114.54C723.354 119.53 716.671 122.025 708.263 122.025C703.922 122.025 698.983 121.154 693.446 119.411L693.446 135.15C693.446 136.073 693.139 136.825 692.523 137.406C691.942 138.021 691.208 138.329 690.319 138.329L678.834 138.329C677.946 138.329 677.194 138.021 676.579 137.406C675.998 136.825 675.707 136.073 675.707 135.15ZM693.446 107.567C697.855 108.969 701.564 109.669 704.572 109.669C709.254 109.669 712.57 108.336 714.518 105.67C716.5 103.004 717.492 98.749 717.492 92.9043C717.492 87.0596 716.552 82.8213 714.672 80.1895C712.826 77.5234 710.041 76.1904 706.315 76.1904C702.624 76.1904 698.334 77.7285 693.446 80.8047L693.446 107.567Z" fill="rgb(16.7995,16.7995,16.7995)" fill-rule="nonzero" />
	<path id="Ex max black (color) 21" d="M675.707 135.15L675.707 67.9873C675.707 67.0645 675.998 66.3125 676.579 65.7314C677.194 65.1162 677.946 64.8086 678.834 64.8086L688.729 64.8086C689.618 64.8086 690.353 65.1162 690.934 65.7314C691.549 66.3125 691.857 67.0645 691.857 67.9873L691.857 69.5254C697.257 65.6973 703.529 63.7832 710.673 63.7832C717.816 63.7832 723.781 66.3125 728.566 71.3711C733.351 76.3955 735.744 83.6074 735.744 93.0068C735.744 102.372 733.266 109.55 728.31 114.54C723.354 119.53 716.671 122.025 708.263 122.025C703.922 122.025 698.983 121.154 693.446 119.411L693.446 135.15C693.446 136.073 693.139 136.825 692.523 137.406C691.942 138.021 691.208 138.329 690.319 138.329L678.834 138.329C677.946 138.329 677.194 138.021 676.579 137.406C675.998 136.825 675.707 136.073 675.707 135.15ZM693.446 107.567C697.855 108.969 701.564 109.669 704.572 109.669C709.254 109.669 712.57 108.336 714.518 105.67C716.5 103.004 717.492 98.749 717.492 92.9043C717.492 87.0596 716.552 82.8213 714.672 80.1895C712.826 77.5234 710.041 76.1904 706.315 76.1904C702.624 76.1904 698.334 77.7285 693.446 80.8047L693.446 107.567Z" fill="rgb(0,0,0)" fill-rule="nonzero" />
	<path id="Ex max black (color) 21" d="M604.75 117.873L604.75 67.9873C604.75 67.0645 605.041 66.3125 605.622 65.7314C606.237 65.1162 606.989 64.8086 607.877 64.8086L618.593 64.8086C619.516 64.8086 620.268 65.1162 620.849 65.7314C621.464 66.3125 621.771 67.0645 621.771 67.9873L621.771 101.671L639.818 68.5C640.365 67.4404 641.203 66.5688 642.331 65.8853C643.458 65.1675 644.552 64.8086 645.612 64.8086L659.967 64.8086C660.89 64.8086 661.642 65.1162 662.223 65.7314C662.838 66.3125 663.146 67.0645 663.146 67.9873L663.146 117.873C663.146 118.795 662.838 119.547 662.223 120.128C661.642 120.709 660.89 121 659.967 121L649.252 121C648.329 121 647.577 120.709 646.996 120.128C646.415 119.513 646.125 118.761 646.125 117.873L646.125 84.2397L628.078 117.309C627.531 118.3 626.693 119.171 625.565 119.923C624.438 120.641 623.344 121 622.284 121L607.877 121C606.955 121 606.203 120.709 605.622 120.128C605.041 119.547 604.75 118.795 604.75 117.873Z" fill="rgb(16.7995,16.7995,16.7995)" fill-rule="nonzero" />
	<path id="Ex max black (color) 21" d="M604.75 117.873L604.75 67.9873C604.75 67.0645 605.041 66.3125 605.622 65.7314C606.237 65.1162 606.989 64.8086 607.877 64.8086L618.593 64.8086C619.516 64.8086 620.268 65.1162 620.849 65.7314C621.464 66.3125 621.771 67.0645 621.771 67.9873L621.771 101.671L639.818 68.5C640.365 67.4404 641.203 66.5688 642.331 65.8853C643.458 65.1675 644.552 64.8086 645.612 64.8086L659.967 64.8086C660.89 64.8086 661.642 65.1162 662.223 65.7314C662.838 66.3125 663.146 67.0645 663.146 67.9873L663.146 117.873C663.146 118.795 662.838 119.547 662.223 120.128C661.642 120.709 660.89 121 659.967 121L649.252 121C648.329 121 647.577 120.709 646.996 120.128C646.415 119.513 646.125 118.761 646.125 117.873L646.125 84.2397L628.078 117.309C627.531 118.3 626.693 119.171 625.565 119.923C624.438 120.641 623.344 121 622.284 121L607.877 121C606.955 121 606.203 120.709 605.622 120.128C605.041 119.547 604.75 118.795 604.75 117.873Z" fill="rgb(0,0,0)" fill-rule="nonzero" />
	<path id="Ex max black (color) 21" d="M516.363 117.873L516.363 67.9873C516.363 67.0645 516.654 66.3125 517.235 65.7314C517.85 65.1162 518.602 64.8086 519.491 64.8086L537.127 64.8086C539.144 64.8086 540.682 66.0732 541.742 68.6025L554.251 99.1592L566.761 68.6025C567.821 66.0732 569.359 64.8086 571.375 64.8086L589.012 64.8086C589.935 64.8086 590.687 65.1162 591.268 65.7314C591.883 66.3125 592.191 67.0645 592.191 67.9873L592.191 117.873C592.191 118.795 591.883 119.547 591.268 120.128C590.687 120.709 589.935 121 589.012 121L577.887 121C576.964 121 576.212 120.709 575.631 120.128C575.05 119.513 574.759 118.761 574.759 117.873L574.759 85.8291L561.634 117.411C560.575 119.804 558.951 121 556.764 121L551.739 121C549.586 121 547.979 119.804 546.92 117.411L533.795 85.8291L533.795 117.873C533.795 118.795 533.487 119.547 532.872 120.128C532.291 120.709 531.539 121 530.616 121L519.491 121C518.568 121 517.816 120.709 517.235 120.128C516.654 119.547 516.363 118.795 516.363 117.873Z" fill="rgb(16.7995,16.7995,16.7995)" fill-rule="nonzero" />
	<path id="Ex max black (color) 21" d="M516.363 117.873L516.363 67.9873C516.363 67.0645 516.654 66.3125 517.235 65.7314C517.85 65.1162 518.602 64.8086 519.491 64.8086L537.127 64.8086C539.144 64.8086 540.682 66.0732 541.742 68.6025L554.251 99.1592L566.761 68.6025C567.821 66.0732 569.359 64.8086 571.375 64.8086L589.012 64.8086C589.935 64.8086 590.687 65.1162 591.268 65.7314C591.883 66.3125 592.191 67.0645 592.191 67.9873L592.191 117.873C592.191 118.795 591.883 119.547 591.268 120.128C590.687 120.709 589.935 121 589.012 121L577.887 121C576.964 121 576.212 120.709 575.631 120.128C575.05 119.513 574.759 118.761 574.759 117.873L574.759 85.8291L561.634 117.411C560.575 119.804 558.951 121 556.764 121L551.739 121C549.586 121 547.979 119.804 546.92 117.411L533.795 85.8291L533.795 117.873C533.795 118.795 533.487 119.547 532.872 120.128C532.291 120.709 531.539 121 530.616 121L519.491 121C518.568 121 517.816 120.709 517.235 120.128C516.654 119.547 516.363 118.795 516.363 117.873Z" fill="rgb(0,0,0)" fill-rule="nonzero" />
	<path id="Ex max black (color) 21" d="M427.973 117.873L427.973 67.9873C427.973 67.0645 428.263 66.3125 428.844 65.7314C429.459 65.1162 430.211 64.8086 431.1 64.8086L448.737 64.8086C450.753 64.8086 452.292 66.0732 453.351 68.6025L465.861 99.1592L478.371 68.6025C479.43 66.0732 480.968 64.8086 482.985 64.8086L500.622 64.8086C501.544 64.8086 502.296 65.1162 502.877 65.7314C503.493 66.3125 503.8 67.0645 503.8 67.9873L503.8 117.873C503.8 118.795 503.493 119.547 502.877 120.128C502.296 120.709 501.544 121 500.622 121L489.496 121C488.573 121 487.821 120.709 487.24 120.128C486.659 119.513 486.369 118.761 486.369 117.873L486.369 85.8291L473.244 117.411C472.184 119.804 470.561 121 468.373 121L463.349 121C461.195 121 459.589 119.804 458.529 117.411L445.404 85.8291L445.404 117.873C445.404 118.795 445.097 119.547 444.481 120.128C443.9 120.709 443.148 121 442.226 121L431.1 121C430.177 121 429.425 120.709 428.844 120.128C428.263 119.547 427.973 118.795 427.973 117.873Z" fill="rgb(16.7995,16.7995,16.7995)" fill-rule="nonzero" />
	<path id="Ex max black (color) 21" d="M427.973 117.873L427.973 67.9873C427.973 67.0645 428.263 66.3125 428.844 65.7314C429.459 65.1162 430.211 64.8086 431.1 64.8086L448.737 64.8086C450.753 64.8086 452.292 66.0732 453.351 68.6025L465.861 99.1592L478.371 68.6025C479.43 66.0732 480.968 64.8086 482.985 64.8086L500.622 64.8086C501.544 64.8086 502.296 65.1162 502.877 65.7314C503.493 66.3125 503.8 67.0645 503.8 67.9873L503.8 117.873C503.8 118.795 503.493 119.547 502.877 120.128C502.296 120.709 501.544 121 500.622 121L489.496 121C488.573 121 487.821 120.709 487.24 120.128C486.659 119.513 486.369 118.761 486.369 117.873L486.369 85.8291L473.244 117.411C472.184 119.804 470.561 121 468.373 121L463.349 121C461.195 121 459.589 119.804 458.529 117.411L445.404 85.8291L445.404 117.873C445.404 118.795 445.097 119.547 444.481 120.128C443.9 120.709 443.148 121 442.226 121L431.1 121C430.177 121 429.425 120.709 428.844 120.128C428.263 119.547 427.973 118.795 427.973 117.873Z" fill="rgb(0,0,0)" fill-rule="nonzero" />
	<path id="Ex max black (color) 21" d="M363.064 117.309C358.553 114.164 356.297 109.721 356.297 103.979C356.297 98.2363 358.553 93.8271 363.064 90.751C367.61 87.6748 373.455 86.1367 380.599 86.1367L397.569 86.1367C397.569 82.1377 396.731 79.3521 395.057 77.7798C393.382 76.2075 390.442 75.4214 386.238 75.4214C382.068 75.4214 379.129 76.4639 377.42 78.5488C375.745 80.5996 373.677 81.625 371.216 81.625L363.577 81.625C362.654 81.625 361.885 81.3345 361.27 80.7534C360.689 80.1382 360.398 79.3862 360.398 78.4976C360.398 68.688 369.712 63.7832 388.34 63.7832C396.475 63.7832 403.003 65.6118 407.925 69.269C412.847 72.8921 415.308 78.5146 415.308 86.1367L415.308 117.873C415.308 118.795 415.018 119.547 414.437 120.128C413.855 120.709 413.104 121 412.181 121L402.286 121C401.363 121 400.611 120.709 400.03 120.128C399.449 119.513 399.158 118.761 399.158 117.873L399.158 116.283C393.758 120.146 387.52 122.06 380.445 122.025C373.404 122.025 367.61 120.453 363.064 117.309ZM381.829 97.7749C379.437 97.7749 377.54 98.356 376.138 99.5181C374.771 100.68 374.087 102.184 374.087 104.03C374.087 105.875 374.805 107.396 376.241 108.593C377.676 109.789 379.71 110.387 382.342 110.387C387.605 110.387 392.681 108.849 397.569 105.773L397.569 97.7749L381.829 97.7749Z" fill="rgb(16.7995,16.7995,16.7995)" fill-rule="nonzero" />
	<path id="Ex max black (color) 21" d="M363.064 117.309C358.553 114.164 356.297 109.721 356.297 103.979C356.297 98.2363 358.553 93.8271 363.064 90.751C367.61 87.6748 373.455 86.1367 380.599 86.1367L397.569 86.1367C397.569 82.1377 396.731 79.3521 395.057 77.7798C393.382 76.2075 390.442 75.4214 386.238 75.4214C382.068 75.4214 379.129 76.4639 377.42 78.5488C375.745 80.5996 373.677 81.625 371.216 81.625L363.577 81.625C362.654 81.625 361.885 81.3345 361.27 80.7534C360.689 80.1382 360.398 79.3862 360.398 78.4976C360.398 68.688 369.712 63.7832 388.34 63.7832C396.475 63.7832 403.003 65.6118 407.925 69.269C412.847 72.8921 415.308 78.5146 415.308 86.1367L415.308 117.873C415.308 118.795 415.018 119.547 414.437 120.128C413.855 120.709 413.104 121 412.181 121L402.286 121C401.363 121 400.611 120.709 400.03 120.128C399.449 119.513 399.158 118.761 399.158 117.873L399.158 116.283C393.758 120.146 387.52 122.06 380.445 122.025C373.404 122.025 367.61 120.453 363.064 117.309ZM381.829 97.7749C379.437 97.7749 377.54 98.356 376.138 99.5181C374.771 100.68 374.087 102.184 374.087 104.03C374.087 105.875 374.805 107.396 376.241 108.593C377.676 109.789 379.71 110.387 382.342 110.387C387.605 110.387 392.681 108.849 397.569 105.773L397.569 97.7749L381.829 97.7749Z" fill="rgb(0,0,0)" fill-rule="nonzero" />
	<path id="Ex max black (color) 21" d="M289.957 135.15L289.957 67.9873C289.957 67.0645 290.248 66.3125 290.829 65.7314C291.444 65.1162 292.196 64.8086 293.084 64.8086L302.979 64.8086C303.868 64.8086 304.603 65.1162 305.184 65.7314C305.799 66.3125 306.107 67.0645 306.107 67.9873L306.107 69.5254C311.507 65.6973 317.779 63.7832 324.923 63.7832C332.066 63.7832 338.031 66.3125 342.816 71.3711C347.601 76.3955 349.994 83.6074 349.994 93.0068C349.994 102.372 347.516 109.55 342.56 114.54C337.604 119.53 330.921 122.025 322.513 122.025C318.172 122.025 313.233 121.154 307.696 119.411L307.696 135.15C307.696 136.073 307.389 136.825 306.773 137.406C306.192 138.021 305.458 138.329 304.569 138.329L293.084 138.329C292.196 138.329 291.444 138.021 290.829 137.406C290.248 136.825 289.957 136.073 289.957 135.15ZM307.696 107.567C312.105 108.969 315.814 109.669 318.822 109.669C323.504 109.669 326.82 108.336 328.768 105.67C330.75 103.004 331.742 98.749 331.742 92.9043C331.742 87.0596 330.802 82.8213 328.922 80.1895C327.076 77.5234 324.291 76.1904 320.565 76.1904C316.874 76.1904 312.584 77.7285 307.696 80.8047L307.696 107.567Z" fill="rgb(16.7995,16.7995,16.7995)" fill-rule="nonzero" />
	<path id="Ex max black (color) 21" d="M289.957 135.15L289.957 67.9873C289.957 67.0645 290.248 66.3125 290.829 65.7314C291.444 65.1162 292.196 64.8086 293.084 64.8086L302.979 64.8086C303.868 64.8086 304.603 65.1162 305.184 65.7314C305.799 66.3125 306.107 67.0645 306.107 67.9873L306.107 69.5254C311.507 65.6973 317.779 63.7832 324.923 63.7832C332.066 63.7832 338.031 66.3125 342.816 71.3711C347.601 76.3955 349.994 83.6074 349.994 93.0068C349.994 102.372 347.516 109.55 342.56 114.54C337.604 119.53 330.921 122.025 322.513 122.025C318.172 122.025 313.233 121.154 307.696 119.411L307.696 135.15C307.696 136.073 307.389 136.825 306.773 137.406C306.192 138.021 305.458 138.329 304.569 138.329L293.084 138.329C292.196 138.329 291.444 138.021 290.829 137.406C290.248 136.825 289.957 136.073 289.957 135.15ZM307.696 107.567C312.105 108.969 315.814 109.669 318.822 109.669C323.504 109.669 326.82 108.336 328.768 105.67C330.75 103.004 331.742 98.749 331.742 92.9043C331.742 87.0596 330.802 82.8213 328.922 80.1895C327.076 77.5234 324.291 76.1904 320.565 76.1904C316.874 76.1904 312.584 77.7285 307.696 80.8047L307.696 107.567Z" fill="rgb(0,0,0)" fill-rule="nonzero" />
	<path id="Ex max black (color) 21" d="M237.969 117.873L237.969 67.9873C237.969 67.0645 238.259 66.3125 238.84 65.7314C239.456 65.1162 240.208 64.8086 241.096 64.8086L279.446 64.8086C280.334 64.8086 281.069 65.1162 281.65 65.7314C282.266 66.3125 282.573 67.0645 282.573 67.9873L282.573 74.0884C282.573 74.9771 282.266 75.729 281.65 76.3442C281.069 76.9253 280.334 77.2158 279.446 77.2158L255.708 77.2158L255.708 117.873C255.708 118.761 255.4 119.513 254.785 120.128C254.204 120.709 253.469 121 252.581 121L241.096 121C240.208 121 239.456 120.709 238.84 120.128C238.259 119.513 237.969 118.761 237.969 117.873Z" fill="rgb(16.7995,16.7995,16.7995)" fill-rule="nonzero" />
	<path id="Ex max black (color) 21" d="M237.969 117.873L237.969 67.9873C237.969 67.0645 238.259 66.3125 238.84 65.7314C239.456 65.1162 240.208 64.8086 241.096 64.8086L279.446 64.8086C280.334 64.8086 281.069 65.1162 281.65 65.7314C282.266 66.3125 282.573 67.0645 282.573 67.9873L282.573 74.0884C282.573 74.9771 282.266 75.729 281.65 76.3442C281.069 76.9253 280.334 77.2158 279.446 77.2158L255.708 77.2158L255.708 117.873C255.708 118.761 255.4 119.513 254.785 120.128C254.204 120.709 253.469 121 252.581 121L241.096 121C240.208 121 239.456 120.709 238.84 120.128C238.259 119.513 237.969 118.761 237.969 117.873Z" fill="rgb(0,0,0)" fill-rule="nonzero" />
	<path id="Ex max black (color) 21" d="M174.498 114.643C169.166 109.721 166.5 102.475 166.5 92.9043C166.5 83.2998 169.166 76.0537 174.498 71.166C179.83 66.2441 187.486 63.7832 197.467 63.7832C207.481 63.7832 215.155 66.2441 220.487 71.166C225.819 76.0537 228.485 83.2998 228.485 92.9043C228.485 102.475 225.819 109.721 220.487 114.643C215.155 119.564 207.481 122.025 197.467 122.025C187.486 122.025 179.83 119.564 174.498 114.643ZM187.469 79.5742C185.35 82.3428 184.291 86.769 184.291 92.853C184.291 98.937 185.35 103.38 187.469 106.183C189.588 108.986 192.921 110.387 197.467 110.387C202.047 110.387 205.396 108.986 207.516 106.183C209.669 103.38 210.746 98.937 210.746 92.853C210.746 86.769 209.669 82.3428 207.516 79.5742C205.396 76.8057 202.047 75.4214 197.467 75.4214C192.921 75.4214 189.588 76.8057 187.469 79.5742Z" fill="rgb(16.7995,16.7995,16.7995)" fill-rule="nonzero" />
	<path id="Ex max black (color) 21" d="M174.498 114.643C169.166 109.721 166.5 102.475 166.5 92.9043C166.5 83.2998 169.166 76.0537 174.498 71.166C179.83 66.2441 187.486 63.7832 197.467 63.7832C207.481 63.7832 215.155 66.2441 220.487 71.166C225.819 76.0537 228.485 83.2998 228.485 92.9043C228.485 102.475 225.819 109.721 220.487 114.643C215.155 119.564 207.481 122.025 197.467 122.025C187.486 122.025 179.83 119.564 174.498 114.643ZM187.469 79.5742C185.35 82.3428 184.291 86.769 184.291 92.853C184.291 98.937 185.35 103.38 187.469 106.183C189.588 108.986 192.921 110.387 197.467 110.387C202.047 110.387 205.396 108.986 207.516 106.183C209.669 103.38 210.746 98.937 210.746 92.853C210.746 86.769 209.669 82.3428 207.516 79.5742C205.396 76.8057 202.047 75.4214 197.467 75.4214C192.921 75.4214 189.588 76.8057 187.469 79.5742Z" fill="rgb(0,0,0)" fill-rule="nonzero" />
	<path id="Ex max black (color) 21" d="M100.156 135.15L100.156 67.9873C100.156 67.0645 100.447 66.3125 101.028 65.7314C101.643 65.1162 102.395 64.8086 103.284 64.8086L113.179 64.8086C114.067 64.8086 114.802 65.1162 115.383 65.7314C115.999 66.3125 116.306 67.0645 116.306 67.9873L116.306 69.5254C121.707 65.6973 127.979 63.7832 135.122 63.7832C142.266 63.7832 148.23 66.3125 153.015 71.3711C157.8 76.3955 160.193 83.6074 160.193 93.0068C160.193 102.372 157.715 109.55 152.759 114.54C147.803 119.53 141.121 122.025 132.712 122.025C128.372 122.025 123.433 121.154 117.896 119.411L117.896 135.15C117.896 136.073 117.588 136.825 116.973 137.406C116.392 138.021 115.657 138.329 114.768 138.329L103.284 138.329C102.395 138.329 101.643 138.021 101.028 137.406C100.447 136.825 100.156 136.073 100.156 135.15ZM117.896 107.567C122.305 108.969 126.013 109.669 129.021 109.669C133.704 109.669 137.019 108.336 138.967 105.67C140.95 103.004 141.941 98.749 141.941 92.9043C141.941 87.0596 141.001 82.8213 139.121 80.1895C137.275 77.5234 134.49 76.1904 130.764 76.1904C127.073 76.1904 122.783 77.7285 117.896 80.8047L117.896 107.567Z" fill="rgb(16.7995,16.7995,16.7995)" fill-rule="nonzero" />
	<path id="Ex max black (color) 21" d="M100.156 135.15L100.156 67.9873C100.156 67.0645 100.447 66.3125 101.028 65.7314C101.643 65.1162 102.395 64.8086 103.284 64.8086L113.179 64.8086C114.067 64.8086 114.802 65.1162 115.383 65.7314C115.999 66.3125 116.306 67.0645 116.306 67.9873L116.306 69.5254C121.707 65.6973 127.979 63.7832 135.122 63.7832C142.266 63.7832 148.23 66.3125 153.015 71.3711C157.8 76.3955 160.193 83.6074 160.193 93.0068C160.193 102.372 157.715 109.55 152.759 114.54C147.803 119.53 141.121 122.025 132.712 122.025C128.372 122.025 123.433 121.154 117.896 119.411L117.896 135.15C117.896 136.073 117.588 136.825 116.973 137.406C116.392 138.021 115.657 138.329 114.768 138.329L103.284 138.329C102.395 138.329 101.643 138.021 101.028 137.406C100.447 136.825 100.156 136.073 100.156 135.15ZM117.896 107.567C122.305 108.969 126.013 109.669 129.021 109.669C133.704 109.669 137.019 108.336 138.967 105.67C140.95 103.004 141.941 98.749 141.941 92.9043C141.941 87.0596 141.001 82.8213 139.121 80.1895C137.275 77.5234 134.49 76.1904 130.764 76.1904C127.073 76.1904 122.783 77.7285 117.896 80.8047L117.896 107.567Z" fill="rgb(0,0,0)" fill-rule="nonzero" />
	<path id="Ex max black (color) 21" d="M10.332 116.181L10.332 52.3501C10.332 51.0171 10.7935 49.8721 11.7163 48.915C12.6392 47.958 13.7671 47.4795 15.1001 47.4795L81.6479 47.4795C82.981 47.4795 84.1089 47.958 85.0317 48.915C85.9888 49.8721 86.4673 51.0171 86.4673 52.3501L86.4673 116.181C86.4673 117.514 85.9717 118.659 84.9805 119.616C84.0234 120.539 82.8784 121 81.5454 121L72.0093 121C70.6763 121 69.5312 120.539 68.5742 119.616C67.6172 118.659 67.1387 117.514 67.1387 116.181L67.1387 61.9888L29.6606 61.9888L29.6606 116.181C29.6606 117.514 29.1821 118.659 28.2251 119.616C27.3022 120.539 26.1743 121 24.8413 121L15.2026 121C13.8696 121 12.7246 120.539 11.7676 119.616C10.8105 118.659 10.332 117.514 10.332 116.181Z" fill="rgb(16.7995,16.7995,16.7995)" fill-rule="nonzero" />
	<path id="Ex max black (color) 21" d="M10.332 116.181L10.332 52.3501C10.332 51.0171 10.7935 49.8721 11.7163 48.915C12.6392 47.958 13.7671 47.4795 15.1001 47.4795L81.6479 47.4795C82.981 47.4795 84.1089 47.958 85.0317 48.915C85.9888 49.8721 86.4673 51.0171 86.4673 52.3501L86.4673 116.181C86.4673 117.514 85.9717 118.659 84.9805 119.616C84.0234 120.539 82.8784 121 81.5454 121L72.0093 121C70.6763 121 69.5312 120.539 68.5742 119.616C67.6172 118.659 67.1387 117.514 67.1387 116.181L67.1387 61.9888L29.6606 61.9888L29.6606 116.181C29.6606 117.514 29.1821 118.659 28.2251 119.616C27.3022 120.539 26.1743 121 24.8413 121L15.2026 121C13.8696 121 12.7246 120.539 11.7676 119.616C10.8105 118.659 10.332 117.514 10.332 116.181Z" fill="rgb(0,0,0)" fill-rule="nonzero" />
</svg>
