<svg viewBox="0 0 1147.59 138.329" xmlns="http://www.w3.org/2000/svg" xmlns:xlink="http://www.w3.org/1999/xlink" width="1147.593750" height="138.329102" fill="none" customFrame="#000000">
	<rect id="Ex max white 21" width="1147.593750" height="138.329102" x="0.000000" y="0.000000" fill="rgb(255,255,255)" fill-opacity="0" />
	<path id="Ex max white 21" d="M3.87703 28.0155L1.02092 22.4802C0.331835 21.1446 0 19.7036 0 18.2889C0 15.2382 1.5429 12.3097 4.37392 10.8245C40.1818 -7.96054 74.0038 1.40645 91.4021 11.2102C93.7599 12.5388 95 14.8869 95 17.3762C95 18.6743 94.6627 20.0108 93.9708 21.2611C92.9314 23.1395 91.6076 25.505 89.942 28.4479C87.5114 32.7426 82.1589 34.1553 77.7864 32.0115C56.5322 21.5908 37.9312 21.5785 16.1367 31.9746C11.6439 34.1177 6.19225 32.5026 3.87703 28.0155ZM10.332 116.181L10.332 52.3501Q10.332 51.3409 10.6846 50.4754Q11.0307 49.626 11.7163 48.915Q12.4025 48.2035 13.2398 47.8446Q14.0917 47.4795 15.1001 47.4795L81.6479 47.4795Q82.6563 47.4795 83.5082 47.8446Q84.3456 48.2035 85.0317 48.915Q85.7868 49.6701 86.1447 50.5812Q86.4673 51.4023 86.4673 52.3501L86.4673 116.181Q86.4673 117.072 86.1716 117.852Q85.8042 118.82 84.9805 119.616Q84.2694 120.301 83.4201 120.647Q82.5545 121 81.5454 121L72.0093 121Q71.0001 121 70.1346 120.647Q69.2852 120.301 68.5742 119.616Q67.8192 118.861 67.4613 117.95Q67.1387 117.129 67.1387 116.181L67.1387 61.9888L29.6606 61.9888L29.6606 116.181Q29.6606 117.129 29.3381 117.95Q28.9801 118.861 28.2251 119.616Q27.5829 120.258 26.8083 120.602Q25.9132 121 24.8413 121L15.2026 121Q14.1935 121 13.328 120.647Q12.4786 120.301 11.7676 119.616Q11.0125 118.861 10.6546 117.95Q10.332 117.129 10.332 116.181ZM100.156 135.15L100.156 67.9873Q100.156 67.0265 100.576 66.3127L100.576 66.3124Q100.761 65.9979 101.028 65.7314Q101.456 65.3034 101.972 65.0738Q102.569 64.8086 103.284 64.8086L113.179 64.8086Q113.949 64.8086 114.565 65.1167Q115.015 65.3418 115.383 65.7314Q115.718 66.048 115.932 66.4322Q116.306 67.1058 116.306 67.9873L116.306 69.5254Q118.706 67.8245 121.334 66.6275Q127.581 63.7832 135.122 63.7832Q140.917 63.7832 145.678 66.0026Q149.719 67.8869 153.015 71.3711Q153.172 71.5353 153.324 71.7026Q160.193 79.2149 160.193 93.0068Q160.193 106.177 153.659 113.579L153.657 113.581Q153.222 114.073 152.759 114.54Q151.186 116.124 149.381 117.373L149.38 117.373Q142.655 122.025 132.712 122.025Q126.201 122.025 117.896 119.411L117.896 135.15Q117.896 136.032 117.521 136.705Q117.308 137.09 116.973 137.406Q116.605 137.796 116.154 138.021Q115.538 138.329 114.768 138.329L103.284 138.329Q102.569 138.329 101.972 138.064Q101.456 137.834 101.028 137.406Q100.761 137.14 100.576 136.825Q100.156 136.111 100.156 135.15ZM174.498 114.643Q173.611 113.824 172.822 112.919L172.822 112.919Q166.5 105.667 166.5 92.9043Q166.5 80.0259 172.891 72.8012L172.891 72.8009Q173.65 71.9437 174.498 71.166Q182.496 63.7832 197.467 63.7832Q212.489 63.7832 220.487 71.166Q221.335 71.9437 222.094 72.8009L222.094 72.8012Q228.485 80.0259 228.485 92.9043Q228.485 105.667 222.163 112.919L222.163 112.919Q221.374 113.824 220.487 114.643Q212.489 122.025 197.467 122.025Q182.496 122.025 174.498 114.643ZM289.957 135.15L289.957 67.9873Q289.957 67.0265 290.377 66.3127Q290.562 65.998 290.829 65.7314Q291.257 65.3033 291.773 65.0738Q292.37 64.8086 293.084 64.8086L302.979 64.8086Q303.75 64.8086 304.366 65.1167Q304.816 65.3418 305.184 65.7314Q305.519 66.0479 305.733 66.4322Q306.107 67.1058 306.107 67.9873L306.107 69.5254Q308.506 67.8248 311.134 66.6279L311.135 66.6275Q317.381 63.7832 324.923 63.7832Q330.718 63.7832 335.478 66.0026Q339.52 67.8869 342.816 71.3711Q342.963 71.5252 343.106 71.6819L343.125 71.7026Q349.994 79.2149 349.994 93.0068Q349.994 106.177 343.459 113.579Q343.024 114.072 342.56 114.54Q340.986 116.124 339.181 117.373Q332.456 122.025 322.513 122.025Q316.002 122.025 307.696 119.411L307.696 135.15Q307.696 136.032 307.322 136.705Q307.108 137.09 306.773 137.406Q306.405 137.796 305.955 138.021Q305.339 138.329 304.569 138.329L293.084 138.329Q292.37 138.329 291.773 138.064Q291.257 137.834 290.829 137.406Q290.562 137.14 290.377 136.825Q289.957 136.111 289.957 135.15ZM363.064 117.309Q360.021 115.188 358.347 112.279Q356.297 108.719 356.297 103.979Q356.297 99.1772 358.4 95.6186Q360.069 92.7931 363.064 90.751Q369.883 86.1367 380.599 86.1367L397.569 86.1367Q397.569 80.1382 395.057 77.7798Q392.544 75.4214 386.238 75.4214Q380.068 75.4214 377.49 78.4644Q377.463 78.4962 377.437 78.5284L377.42 78.5488Q375.915 80.3912 373.988 81.1302Q372.697 81.625 371.216 81.625L363.577 81.625Q362.668 81.625 361.958 81.2491Q361.587 81.0526 361.27 80.7534Q360.912 80.3744 360.701 79.9261Q360.398 79.283 360.398 78.4976Q360.398 75.303 361.715 72.802Q366.465 63.7832 388.34 63.7832Q400.542 63.7832 407.925 69.269Q409.713 70.5847 411.067 72.2519Q415.308 77.4715 415.308 86.1367L415.308 117.873Q415.308 118.833 414.888 119.547Q414.703 119.862 414.437 120.128Q414.17 120.395 413.855 120.58Q413.141 121 412.181 121L402.286 121Q401.325 121 400.611 120.58Q400.296 120.395 400.03 120.128Q399.672 119.749 399.461 119.301Q399.158 118.658 399.158 117.873L399.158 116.283Q396.454 118.217 393.47 119.5Q387.515 122.06 380.445 122.025Q369.883 122.025 363.064 117.309ZM675.707 135.15L675.707 67.9873Q675.707 67.0265 676.127 66.3127L676.128 66.3117Q676.312 65.9977 676.579 65.7314Q677.006 65.3036 677.523 65.0738Q678.12 64.8086 678.834 64.8086L688.729 64.8086Q689.5 64.8086 690.116 65.1167Q690.566 65.3419 690.934 65.7314Q691.269 66.048 691.483 66.4322Q691.857 67.1058 691.857 67.9873L691.857 69.5254Q694.256 67.8248 696.884 66.6279L696.885 66.6275Q703.131 63.7832 710.673 63.7832Q716.468 63.7832 721.228 66.0026Q725.27 67.887 728.566 71.3711Q728.678 71.4892 728.789 71.6089Q728.832 71.6556 728.875 71.7026Q735.744 79.2149 735.744 93.0068Q735.744 106.177 729.209 113.579L729.204 113.585Q728.771 114.075 728.31 114.54Q726.736 116.124 724.931 117.373Q718.206 122.025 708.263 122.025Q701.752 122.025 693.446 119.411L693.446 135.15Q693.446 136.032 693.072 136.705Q692.859 137.09 692.523 137.406Q692.156 137.796 691.705 138.021Q691.089 138.329 690.319 138.329L678.834 138.329Q678.12 138.329 677.523 138.064Q677.007 137.834 676.579 137.406Q676.312 137.14 676.127 136.825Q675.707 136.111 675.707 135.15ZM750.049 114.643Q749.164 113.826 748.377 112.924L748.373 112.919Q742.051 105.667 742.051 92.9043Q742.051 80.0259 748.442 72.8012L748.446 72.797Q749.202 71.9419 750.049 71.166Q758.047 63.7832 773.018 63.7832Q788.04 63.7832 796.038 71.166Q796.884 71.9419 797.641 72.797L797.645 72.8012Q804.036 80.0259 804.036 92.9043Q804.036 105.667 797.714 112.919L797.71 112.924Q796.922 113.826 796.038 114.643Q788.04 122.025 773.018 122.025Q758.047 122.025 750.049 114.643ZM884.479 117.309Q881.435 115.188 879.761 112.279Q877.711 108.719 877.711 103.979Q877.711 99.1772 879.814 95.6186Q881.483 92.7931 884.479 90.751Q891.297 86.1367 902.013 86.1367L918.983 86.1367Q918.983 80.1382 916.471 77.7798Q913.958 75.4214 907.652 75.4214Q901.482 75.4214 898.904 78.4644Q898.869 78.5063 898.834 78.5488Q897.329 80.3912 895.402 81.1302Q894.111 81.625 892.63 81.625L884.991 81.625Q884.082 81.625 883.372 81.2491Q883.001 81.0526 882.684 80.7534Q882.326 80.3743 882.115 79.9261Q881.812 79.283 881.812 78.4976Q881.812 75.3031 883.13 72.802Q887.879 63.7832 909.754 63.7832Q921.957 63.7832 929.339 69.269Q931.126 70.5844 932.481 72.2519Q936.722 77.4715 936.722 86.1367L936.722 117.873Q936.722 118.833 936.302 119.547L936.302 119.548Q936.117 119.862 935.851 120.128Q935.585 120.394 935.271 120.579L935.269 120.58Q934.556 121 933.595 121L923.7 121Q922.739 121 922.025 120.58L922.024 120.579Q921.71 120.394 921.444 120.128Q921.086 119.749 920.875 119.301Q920.572 118.658 920.572 117.873L920.572 116.283Q917.868 118.217 914.884 119.5Q908.928 122.06 901.859 122.025Q891.297 122.025 884.479 117.309ZM1095.61 114.54Q1094.62 113.601 1093.75 112.56Q1087.71 105.293 1087.71 93.0068Q1087.71 80.7252 1093.74 73.4232Q1094.63 72.3426 1095.66 71.3711Q1096.38 70.6805 1097.16 70.0528Q1104.89 63.7832 1117.7 63.7832Q1130.96 63.7832 1138.74 70.3148L1138.77 70.3391Q1139.24 70.7403 1139.7 71.166Q1140.87 72.2545 1141.87 73.4843Q1147.59 80.5377 1147.59 92.2378L1147.59 95.1602Q1147.59 95.9905 1147.26 96.6552Q1147.04 97.0981 1146.67 97.4673Q1146.4 97.7339 1146.09 97.919Q1145.38 98.3389 1144.42 98.3389L1105.81 98.3389Q1106.32 104.645 1109.4 107.516Q1112.53 110.387 1119.34 110.387Q1126.16 110.387 1128.68 107.311Q1130.19 105.46 1132.13 104.704Q1133.41 104.204 1134.88 104.184L1142.52 104.184Q1143.4 104.184 1144.07 104.558L1144.08 104.559Q1144.46 104.772 1144.77 105.106Q1145.11 105.423 1145.32 105.807Q1145.7 106.481 1145.7 107.362Q1145.7 110.545 1144.38 113.037Q1139.63 122.066 1117.65 122.025Q1104.49 122.025 1096.74 115.549L1096.74 115.546Q1096.16 115.061 1095.61 114.54ZM237.969 117.873L237.969 67.9873Q237.969 67.0265 238.389 66.3127Q238.574 65.998 238.84 65.7314Q239.268 65.3033 239.785 65.0738Q240.382 64.8086 241.096 64.8086L279.446 64.8086Q280.216 64.8086 280.832 65.1167Q281.282 65.3418 281.65 65.7314Q281.985 66.0479 282.199 66.4322Q282.573 67.1058 282.573 67.9873L282.573 74.0884Q282.573 74.8029 282.308 75.3997Q282.078 75.9161 281.65 76.3442Q281.33 76.6646 280.947 76.8672Q280.289 77.2158 279.446 77.2158L255.708 77.2158L255.708 117.873Q255.708 118.587 255.443 119.184Q255.213 119.7 254.785 120.128Q254.465 120.449 254.082 120.651L254.082 120.651Q253.424 121 252.581 121L241.096 121Q240.311 121 239.668 120.697Q239.219 120.486 238.84 120.128Q238.482 119.749 238.271 119.301Q237.969 118.658 237.969 117.873ZM427.973 117.873L427.973 67.9873Q427.973 67.0265 428.393 66.3127Q428.578 65.998 428.844 65.7314Q429.272 65.3033 429.789 65.0738Q430.386 64.8086 431.1 64.8086L448.737 64.8086Q449.535 64.8086 450.233 65.0728Q452.181 65.8098 453.351 68.6025L465.861 99.1592L478.371 68.6025Q479.541 65.8098 481.488 65.0728Q482.187 64.8086 482.985 64.8086L500.622 64.8086Q501.503 64.8086 502.177 65.1828Q502.561 65.3964 502.877 65.7314Q503.213 66.0479 503.426 66.4322Q503.8 67.1058 503.8 67.9873L503.8 117.873Q503.8 118.754 503.426 119.428Q503.213 119.812 502.877 120.128Q502.611 120.395 502.296 120.58Q501.582 121 500.622 121L489.496 121Q488.535 121 487.821 120.58Q487.507 120.395 487.24 120.128Q486.882 119.749 486.671 119.301Q486.369 118.658 486.369 117.873L486.369 85.8291L473.244 117.411Q472.215 119.734 470.477 120.554Q469.53 121 468.373 121L463.349 121Q462.25 121 461.34 120.584Q459.578 119.779 458.529 117.411L445.404 85.8291L445.404 117.873Q445.404 118.754 445.03 119.428Q444.817 119.812 444.481 120.128Q444.215 120.395 443.9 120.58Q443.186 121 442.226 121L431.1 121Q430.139 121 429.425 120.58Q429.111 120.395 428.844 120.128Q428.578 119.862 428.393 119.547Q427.973 118.833 427.973 117.873ZM516.363 117.873L516.363 67.9873Q516.363 67.0265 516.783 66.3127L516.784 66.3117Q516.969 65.9977 517.235 65.7314Q517.663 65.3036 518.179 65.0738Q518.776 64.8086 519.491 64.8086L537.127 64.8086Q537.926 64.8086 538.624 65.0728Q540.572 65.8098 541.742 68.6025L554.251 99.1592L566.761 68.6025Q567.931 65.8098 569.879 65.0728Q570.577 64.8086 571.375 64.8086L589.012 64.8086Q589.893 64.8086 590.567 65.1828Q590.951 65.3963 591.268 65.7314Q591.603 66.048 591.817 66.4322Q592.191 67.1058 592.191 67.9873L592.191 117.873Q592.191 118.754 591.817 119.428Q591.603 119.812 591.268 120.128Q591.002 120.394 590.688 120.579L590.687 120.58Q589.973 121 589.012 121L577.887 121Q576.926 121 576.212 120.58L576.211 120.579Q575.897 120.394 575.631 120.128Q575.273 119.749 575.062 119.301Q574.759 118.658 574.759 117.873L574.759 85.8291L561.634 117.411Q560.605 119.734 558.867 120.554Q557.921 121 556.764 121L551.739 121Q550.64 121 549.731 120.584Q547.968 119.779 546.92 117.411L533.795 85.8291L533.795 117.873Q533.795 118.754 533.421 119.428Q533.207 119.812 532.872 120.128Q532.606 120.394 532.292 120.579L532.291 120.58Q531.577 121 530.616 121L519.491 121Q518.53 121 517.816 120.58L517.815 120.579Q517.501 120.394 517.235 120.128Q516.969 119.862 516.784 119.548L516.783 119.547Q516.363 118.833 516.363 117.873ZM604.75 117.873L604.75 67.9873Q604.75 67.0265 605.17 66.3127L605.17 66.3117Q605.355 65.9977 605.622 65.7314Q606.049 65.3036 606.566 65.0738Q607.163 64.8086 607.877 64.8086L618.593 64.8086Q619.474 64.8086 620.148 65.1828Q620.532 65.3963 620.849 65.7314Q621.184 66.048 621.397 66.4322Q621.771 67.1058 621.771 67.9873L621.771 101.671L639.818 68.5Q639.956 68.2325 640.119 67.981Q640.923 66.7381 642.331 65.8853Q644.022 64.8086 645.612 64.8086L659.967 64.8086Q660.849 64.8086 661.522 65.1828Q661.907 65.3963 662.223 65.7314Q662.558 66.048 662.772 66.4322Q663.146 67.1058 663.146 67.9873L663.146 117.873Q663.146 118.754 662.772 119.428Q662.558 119.812 662.223 120.128Q661.957 120.394 661.643 120.579L661.642 120.58Q660.928 121 659.967 121L649.252 121Q648.291 121 647.577 120.58L647.576 120.579Q647.262 120.394 646.996 120.128Q646.638 119.749 646.427 119.301Q646.125 118.658 646.125 117.873L646.125 84.2397L628.078 117.309Q627.257 118.795 625.565 119.923Q623.874 121 622.284 121L607.877 121Q606.917 121 606.203 120.58L606.201 120.579Q605.888 120.394 605.622 120.128Q605.355 119.862 605.17 119.548L605.17 119.547Q604.75 118.833 604.75 117.873ZM813.52 117.873L813.52 67.9873Q813.52 67.0265 813.939 66.3127L813.94 66.3117Q814.125 65.9977 814.391 65.7314Q814.819 65.3036 815.336 65.0738Q815.932 64.8086 816.647 64.8086L847.306 64.8086Q857.099 64.8086 863.148 68.6025Q865.804 70.2537 867.303 72.6331Q869.25 75.7211 869.25 80.0356Q869.25 84.0162 867.514 86.9809Q865.941 89.6676 862.943 91.52Q868.43 94.2789 870.561 98.6673Q871.916 101.455 871.916 104.901Q871.916 111.655 868.556 115.377Q867.504 116.543 866.122 117.411Q860.329 121 849.511 121L816.647 121Q815.862 121 815.218 120.697Q814.77 120.486 814.391 120.128Q814.033 119.749 813.822 119.301Q813.52 118.658 813.52 117.873ZM949.383 117.873L949.383 67.9873Q949.383 67.0265 949.803 66.3127L949.803 66.3117Q949.988 65.9977 950.254 65.7314Q950.682 65.3036 951.199 65.0738Q951.796 64.8086 952.51 64.8086L963.995 64.8086Q964.876 64.8086 965.55 65.1828Q965.934 65.3963 966.25 65.7314Q966.517 65.9977 966.702 66.3117L966.702 66.3127Q967.122 67.0265 967.122 67.9873L967.122 86.3418L989.578 86.3418L989.578 67.9873Q989.578 67.0265 989.998 66.3127L989.999 66.3117Q990.184 65.9977 990.45 65.7314Q990.819 65.3625 991.262 65.1408Q991.926 64.8086 992.757 64.8086L1004.19 64.8086Q1005.07 64.8086 1005.75 65.1828Q1006.13 65.3963 1006.45 65.7314Q1006.71 65.9977 1006.9 66.3117L1006.9 66.3127Q1007.32 67.0265 1007.32 67.9873L1007.32 117.873Q1007.32 118.833 1006.9 119.547L1006.9 119.548Q1006.71 119.862 1006.45 120.128Q1006.18 120.394 1005.87 120.579L1005.86 120.58Q1005.15 121 1004.19 121L992.757 121Q991.848 121 991.138 120.624Q990.766 120.428 990.45 120.128Q990.092 119.749 989.881 119.301Q989.578 118.658 989.578 117.873L989.578 98.749L967.122 98.749L967.122 117.873Q967.122 118.754 966.748 119.428Q966.534 119.812 966.199 120.128Q965.879 120.449 965.496 120.651Q964.838 121 963.995 121L952.51 121Q951.549 121 950.836 120.58L950.834 120.579Q950.52 120.394 950.254 120.128Q949.988 119.862 949.803 119.548L949.803 119.547Q949.383 118.833 949.383 117.873ZM1019.93 117.873L1019.93 67.9873Q1019.93 67.0265 1020.35 66.3127L1020.35 66.3117Q1020.54 65.9977 1020.8 65.7314Q1021.23 65.3036 1021.75 65.0738Q1022.34 64.8086 1023.06 64.8086L1033.77 64.8086Q1034.65 64.8086 1035.33 65.1828L1035.33 65.1839Q1035.71 65.3971 1036.03 65.7314Q1036.36 66.048 1036.58 66.4322Q1036.95 67.1059 1036.95 67.9873L1036.95 101.671L1055 68.5Q1055.14 68.2325 1055.3 67.981Q1056.1 66.738 1057.51 65.8853Q1059.2 64.8086 1060.79 64.8086L1075.15 64.8086Q1076.03 64.8086 1076.7 65.1828L1076.7 65.1839Q1077.09 65.3971 1077.4 65.7314Q1077.74 66.048 1077.95 66.4322Q1078.33 67.1059 1078.33 67.9873L1078.33 117.873Q1078.33 118.754 1077.95 119.428Q1077.74 119.812 1077.4 120.128Q1077.14 120.395 1076.82 120.58Q1076.11 121 1075.15 121L1064.43 121Q1063.47 121 1062.76 120.58Q1062.44 120.395 1062.18 120.128Q1061.82 119.749 1061.61 119.301Q1061.3 118.658 1061.3 117.873L1061.3 84.2397L1043.26 117.309Q1042.44 118.795 1040.75 119.923Q1039.05 121 1037.46 121L1023.06 121Q1022.1 121 1021.38 120.58L1021.38 120.579Q1021.07 120.394 1020.8 120.128Q1020.54 119.862 1020.35 119.548L1020.35 119.547Q1019.93 118.833 1019.93 117.873ZM187.469 79.5742Q184.291 83.7271 184.291 92.853Q184.291 101.979 187.469 106.183Q188.097 107.013 188.866 107.679Q191.994 110.387 197.467 110.387Q203.033 110.387 206.176 107.627Q206.912 106.981 207.516 106.183Q210.746 101.979 210.746 92.853Q210.746 83.7271 207.516 79.5742Q206.948 78.833 206.263 78.2242L206.263 78.2237Q203.11 75.4214 197.467 75.4214Q191.917 75.4214 188.778 78.1724Q188.061 78.8014 187.469 79.5742ZM763.02 79.5742Q759.841 83.7271 759.841 92.853Q759.841 101.979 763.02 106.183Q763.647 107.013 764.417 107.679Q767.545 110.387 773.018 110.387Q778.584 110.387 781.727 107.627L781.728 107.627Q782.464 106.98 783.066 106.183Q786.296 101.979 786.296 92.853Q786.296 83.7271 783.066 79.5742Q782.499 78.8328 781.814 78.2237Q778.661 75.4214 773.018 75.4214Q767.468 75.4214 764.329 78.1724L764.328 78.1735Q763.611 78.8021 763.02 79.5742ZM1105.71 87.521L1129.55 87.521Q1129.27 81.0798 1125.92 78.0675Q1122.97 75.4214 1117.65 75.4214Q1112.39 75.4214 1109.43 78.0352Q1106.04 81.0453 1105.71 87.521ZM117.896 107.567Q124.509 109.669 129.021 109.669Q135.187 109.669 138.193 106.587L138.193 106.587Q138.611 106.158 138.967 105.67Q141.941 101.671 141.941 92.9043Q141.941 84.1372 139.121 80.1895Q138.175 78.8223 136.899 77.9226Q134.442 76.1904 130.764 76.1904Q125.227 76.1904 117.896 80.8047L117.896 107.567ZM307.696 107.567Q314.31 109.669 318.822 109.669Q324.988 109.669 327.993 106.587L327.994 106.587Q328.412 106.158 328.768 105.67Q331.742 101.671 331.742 92.9043Q331.742 84.1372 328.922 80.1895Q327.975 78.8223 326.699 77.9226Q324.243 76.1904 320.565 76.1904Q315.028 76.1904 307.696 80.8047L307.696 107.567ZM693.446 107.567Q700.06 109.669 704.572 109.669Q710.738 109.669 713.743 106.587Q714.161 106.159 714.518 105.67Q717.492 101.671 717.492 92.9043Q717.492 84.1372 714.672 80.1895Q713.725 78.8223 712.449 77.9226Q709.993 76.1904 706.315 76.1904Q700.778 76.1904 693.446 80.8047L693.446 107.567ZM831.259 86.752L846.281 86.752Q847.926 86.752 849.128 86.0223Q849.612 85.7282 850.023 85.3164Q850.534 84.8054 850.87 84.1976Q851.51 83.0367 851.51 81.5225Q851.51 79.9606 850.829 78.7981Q850.503 78.2433 850.023 77.7798Q849.56 77.2996 849.005 76.9744Q847.843 76.293 846.281 76.293L831.259 76.293L831.259 86.752ZM381.829 97.7749Q378.24 97.7749 376.138 99.5181Q375.195 100.32 374.685 101.339Q374.087 102.535 374.087 104.03Q374.087 105.367 374.589 106.476Q375.127 107.665 376.241 108.593Q378.394 110.387 382.342 110.387Q383.967 110.387 385.569 110.192L385.572 110.191Q391.748 109.436 397.569 105.773L397.569 97.7749L381.829 97.7749ZM903.243 97.7749Q899.654 97.7749 897.552 99.5181Q896.609 100.32 896.099 101.339Q895.501 102.535 895.501 104.03Q895.501 105.367 896.003 106.476Q896.541 107.665 897.655 108.593Q899.808 110.387 903.756 110.387Q905.383 110.387 906.986 110.191Q913.162 109.436 918.983 105.773L918.983 97.7749L903.243 97.7749ZM831.259 109.567L848.28 109.567Q850.744 109.567 852.19 108.354L852.194 108.351Q852.401 108.177 852.587 107.978Q852.918 107.635 853.178 107.245Q854.125 105.825 854.125 103.773Q854.125 101.722 853.178 100.302Q852.918 99.9117 852.587 99.5693Q852.401 99.3703 852.194 99.1962L852.19 99.1928Q850.744 97.98 848.28 97.98L831.259 97.98L831.259 109.567Z" fill="rgb(255,255,255)" fill-rule="evenodd" />
</svg>
