<svg viewBox="0 0 377.088 121" xmlns="http://www.w3.org/2000/svg" xmlns:xlink="http://www.w3.org/1999/xlink" width="377.087891" height="121.000000" fill="none" customFrame="#000000">
	<rect id="Ex max black (color) 12" width="377.087891" height="121.000000" x="0.000000" y="0.000000" fill="rgb(255,255,255)" fill-opacity="0" />
	<path id="Ex max black (color) 12" d="M3.87703 28.0155L1.02092 22.4802C-1.15403 18.2649 0.229996 12.9984 4.37392 10.8245C40.1818 -7.96054 74.0038 1.40645 91.4021 11.2102C94.9895 13.2316 95.9894 17.6134 93.9708 21.2611C92.9314 23.1395 91.6076 25.505 89.942 28.4479C87.5114 32.7426 82.1589 34.1553 77.7864 32.0115C56.5322 21.5908 37.9312 21.5785 16.1367 31.9746C11.6439 34.1177 6.19225 32.5026 3.87703 28.0155Z" fill="rgb(114,9,183)" fill-rule="evenodd" />
	<path id="Ex max black (color) 12" d="M320.845 82.9067C320.845 70.8755 328.467 64.8428 343.711 64.8086L373.96 64.8086C374.883 64.8086 375.635 65.1162 376.216 65.7314C376.797 66.3125 377.088 67.0645 377.088 67.9873L377.088 117.873C377.088 118.795 376.797 119.547 376.216 120.128C375.635 120.709 374.883 121 373.96 121L362.527 121C361.604 121 360.835 120.709 360.22 120.128C359.639 119.513 359.349 118.761 359.349 117.873L359.349 100.954L349.3 100.954L340.584 116.488C338.909 119.496 336.243 121 332.586 121L323.357 121C322.093 121 321.272 120.539 320.896 119.616C320.76 119.308 320.691 118.915 320.691 118.437C320.691 117.924 320.948 117.274 321.46 116.488L331.766 99.2617C324.485 96.5615 320.845 91.1099 320.845 82.9067ZM340.379 78.2412C339.183 79.3691 338.584 80.9243 338.584 82.9067C338.584 84.855 339.166 86.4102 340.328 87.5723C341.524 88.7344 343.182 89.3154 345.301 89.3154L359.349 89.3154L359.349 76.498L345.301 76.498C343.216 76.498 341.575 77.0791 340.379 78.2412Z" fill="rgb(114,9,183)" fill-rule="nonzero" />
	<path id="Ex max black (color) 12" d="M320.845 82.9067C320.845 70.8755 328.467 64.8428 343.711 64.8086L373.96 64.8086C374.883 64.8086 375.635 65.1162 376.216 65.7314C376.797 66.3125 377.088 67.0645 377.088 67.9873L377.088 117.873C377.088 118.795 376.797 119.547 376.216 120.128C375.635 120.709 374.883 121 373.96 121L362.527 121C361.604 121 360.835 120.709 360.22 120.128C359.639 119.513 359.349 118.761 359.349 117.873L359.349 100.954L349.3 100.954L340.584 116.488C338.909 119.496 336.243 121 332.586 121L323.357 121C322.093 121 321.272 120.539 320.896 119.616C320.76 119.308 320.691 118.915 320.691 118.437C320.691 117.924 320.948 117.274 321.46 116.488L331.766 99.2617C324.485 96.5615 320.845 91.1099 320.845 82.9067ZM340.379 78.2412C339.183 79.3691 338.584 80.9243 338.584 82.9067C338.584 84.855 339.166 86.4102 340.328 87.5723C341.524 88.7344 343.182 89.3154 345.301 89.3154L359.349 89.3154L359.349 76.498L345.301 76.498C343.216 76.498 341.575 77.0791 340.379 78.2412Z" fill="rgb(0,0,0)" fill-rule="nonzero" />
	<path id="Ex max black (color) 12" d="M252.402 117.873L252.402 67.9873C252.402 67.0645 252.693 66.3125 253.274 65.7314C253.889 65.1162 254.641 64.8086 255.53 64.8086L266.245 64.8086C267.168 64.8086 267.92 65.1162 268.501 65.7314C269.116 66.3125 269.424 67.0645 269.424 67.9873L269.424 101.671L287.471 68.5C288.018 67.4404 288.855 66.5688 289.983 65.8853C291.111 65.1675 292.205 64.8086 293.264 64.8086L307.62 64.8086C308.542 64.8086 309.294 65.1162 309.875 65.7314C310.491 66.3125 310.798 67.0645 310.798 67.9873L310.798 117.873C310.798 118.795 310.491 119.547 309.875 120.128C309.294 120.709 308.542 121 307.62 121L296.904 121C295.981 121 295.229 120.709 294.648 120.128C294.067 119.513 293.777 118.761 293.777 117.873L293.777 84.2397L275.73 117.309C275.183 118.3 274.346 119.171 273.218 119.923C272.09 120.641 270.996 121 269.937 121L255.53 121C254.607 121 253.855 120.709 253.274 120.128C252.693 119.547 252.402 118.795 252.402 117.873Z" fill="rgb(114,9,183)" fill-rule="nonzero" />
	<path id="Ex max black (color) 12" d="M252.402 117.873L252.402 67.9873C252.402 67.0645 252.693 66.3125 253.274 65.7314C253.889 65.1162 254.641 64.8086 255.53 64.8086L266.245 64.8086C267.168 64.8086 267.92 65.1162 268.501 65.7314C269.116 66.3125 269.424 67.0645 269.424 67.9873L269.424 101.671L287.471 68.5C288.018 67.4404 288.855 66.5688 289.983 65.8853C291.111 65.1675 292.205 64.8086 293.264 64.8086L307.62 64.8086C308.542 64.8086 309.294 65.1162 309.875 65.7314C310.491 66.3125 310.798 67.0645 310.798 67.9873L310.798 117.873C310.798 118.795 310.491 119.547 309.875 120.128C309.294 120.709 308.542 121 307.62 121L296.904 121C295.981 121 295.229 120.709 294.648 120.128C294.067 119.513 293.777 118.761 293.777 117.873L293.777 84.2397L275.73 117.309C275.183 118.3 274.346 119.171 273.218 119.923C272.09 120.641 270.996 121 269.937 121L255.53 121C254.607 121 253.855 120.709 253.274 120.128C252.693 119.547 252.402 118.795 252.402 117.873Z" fill="rgb(0,0,0)" fill-rule="nonzero" />
	<path id="Ex max black (color) 12" d="M164.012 117.873L164.012 67.9873C164.012 67.0645 164.302 66.3125 164.883 65.7314C165.499 65.1162 166.25 64.8086 167.139 64.8086L184.776 64.8086C186.792 64.8086 188.331 66.0732 189.39 68.6025L201.9 99.1592L214.41 68.6025C215.469 66.0732 217.007 64.8086 219.024 64.8086L236.661 64.8086C237.583 64.8086 238.335 65.1162 238.917 65.7314C239.532 66.3125 239.839 67.0645 239.839 67.9873L239.839 117.873C239.839 118.795 239.532 119.547 238.917 120.128C238.335 120.709 237.583 121 236.661 121L225.535 121C224.612 121 223.86 120.709 223.279 120.128C222.698 119.513 222.408 118.761 222.408 117.873L222.408 85.8291L209.283 117.411C208.223 119.804 206.6 121 204.412 121L199.388 121C197.234 121 195.628 119.804 194.568 117.411L181.443 85.8291L181.443 117.873C181.443 118.795 181.136 119.547 180.521 120.128C179.939 120.709 179.188 121 178.265 121L167.139 121C166.216 121 165.464 120.709 164.883 120.128C164.302 119.547 164.012 118.795 164.012 117.873Z" fill="rgb(114,9,183)" fill-rule="nonzero" />
	<path id="Ex max black (color) 12" d="M164.012 117.873L164.012 67.9873C164.012 67.0645 164.302 66.3125 164.883 65.7314C165.499 65.1162 166.25 64.8086 167.139 64.8086L184.776 64.8086C186.792 64.8086 188.331 66.0732 189.39 68.6025L201.9 99.1592L214.41 68.6025C215.469 66.0732 217.007 64.8086 219.024 64.8086L236.661 64.8086C237.583 64.8086 238.335 65.1162 238.917 65.7314C239.532 66.3125 239.839 67.0645 239.839 67.9873L239.839 117.873C239.839 118.795 239.532 119.547 238.917 120.128C238.335 120.709 237.583 121 236.661 121L225.535 121C224.612 121 223.86 120.709 223.279 120.128C222.698 119.513 222.408 118.761 222.408 117.873L222.408 85.8291L209.283 117.411C208.223 119.804 206.6 121 204.412 121L199.388 121C197.234 121 195.628 119.804 194.568 117.411L181.443 85.8291L181.443 117.873C181.443 118.795 181.136 119.547 180.521 120.128C179.939 120.709 179.188 121 178.265 121L167.139 121C166.216 121 165.464 120.709 164.883 120.128C164.302 119.547 164.012 118.795 164.012 117.873Z" fill="rgb(0,0,0)" fill-rule="nonzero" />
	<path id="Ex max black (color) 12" d="M93.0547 117.873L93.0547 67.9873C93.0547 67.0645 93.3452 66.3125 93.9263 65.7314C94.5415 65.1162 95.2935 64.8086 96.1821 64.8086L106.897 64.8086C107.82 64.8086 108.572 65.1162 109.153 65.7314C109.769 66.3125 110.076 67.0645 110.076 67.9873L110.076 101.671L128.123 68.5C128.67 67.4404 129.507 66.5688 130.635 65.8853C131.763 65.1675 132.857 64.8086 133.917 64.8086L148.272 64.8086C149.195 64.8086 149.947 65.1162 150.528 65.7314C151.143 66.3125 151.451 67.0645 151.451 67.9873L151.451 117.873C151.451 118.795 151.143 119.547 150.528 120.128C149.947 120.709 149.195 121 148.272 121L137.557 121C136.634 121 135.882 120.709 135.301 120.128C134.72 119.513 134.429 118.761 134.429 117.873L134.429 84.2397L116.382 117.309C115.835 118.3 114.998 119.171 113.87 119.923C112.742 120.641 111.648 121 110.589 121L96.1821 121C95.2593 121 94.5073 120.709 93.9263 120.128C93.3452 119.547 93.0547 118.795 93.0547 117.873Z" fill="rgb(114,9,183)" fill-rule="nonzero" />
	<path id="Ex max black (color) 12" d="M93.0547 117.873L93.0547 67.9873C93.0547 67.0645 93.3452 66.3125 93.9263 65.7314C94.5415 65.1162 95.2935 64.8086 96.1821 64.8086L106.897 64.8086C107.82 64.8086 108.572 65.1162 109.153 65.7314C109.769 66.3125 110.076 67.0645 110.076 67.9873L110.076 101.671L128.123 68.5C128.67 67.4404 129.507 66.5688 130.635 65.8853C131.763 65.1675 132.857 64.8086 133.917 64.8086L148.272 64.8086C149.195 64.8086 149.947 65.1162 150.528 65.7314C151.143 66.3125 151.451 67.0645 151.451 67.9873L151.451 117.873C151.451 118.795 151.143 119.547 150.528 120.128C149.947 120.709 149.195 121 148.272 121L137.557 121C136.634 121 135.882 120.709 135.301 120.128C134.72 119.513 134.429 118.761 134.429 117.873L134.429 84.2397L116.382 117.309C115.835 118.3 114.998 119.171 113.87 119.923C112.742 120.641 111.648 121 110.589 121L96.1821 121C95.2593 121 94.5073 120.709 93.9263 120.128C93.3452 119.547 93.0547 118.795 93.0547 117.873Z" fill="rgb(0,0,0)" fill-rule="nonzero" />
	<path id="Ex max black (color) 12" d="M11.8945 121C10.1855 121 9.22852 120.231 9.02344 118.693C9.02344 117.941 9.38232 117.104 10.1001 116.181L35.9399 83.2144L11.5869 52.3501C10.8691 51.4614 10.5103 50.624 10.5103 49.8379C10.5103 48.2656 11.4502 47.4795 13.3301 47.4795L24.353 47.4795C27.771 47.4795 30.7617 49.103 33.3252 52.3501L47.373 70.1919L61.4209 52.3501C63.9502 49.1372 66.9409 47.5137 70.3931 47.4795L81.416 47.4795C83.2959 47.4795 84.2358 48.2656 84.2358 49.8379C84.2358 50.5898 83.877 51.4272 83.1592 52.3501L58.8062 83.2144L84.646 116.181C85.3638 117.069 85.7227 117.787 85.7227 118.334C85.7227 118.881 85.6543 119.274 85.5176 119.513C85.1416 120.504 84.2529 121 82.8516 121L71.9312 121C68.5132 121 65.5396 119.394 63.0103 116.181L47.373 96.2368L31.7358 116.181C29.2065 119.394 26.2329 121 22.8149 121L11.8945 121Z" fill="rgb(114,9,183)" fill-rule="nonzero" />
	<path id="Ex max black (color) 12" d="M11.8945 121C10.1855 121 9.22852 120.231 9.02344 118.693C9.02344 117.941 9.38232 117.104 10.1001 116.181L35.9399 83.2144L11.5869 52.3501C10.8691 51.4614 10.5103 50.624 10.5103 49.8379C10.5103 48.2656 11.4502 47.4795 13.3301 47.4795L24.353 47.4795C27.771 47.4795 30.7617 49.103 33.3252 52.3501L47.373 70.1919L61.4209 52.3501C63.9502 49.1372 66.9409 47.5137 70.3931 47.4795L81.416 47.4795C83.2959 47.4795 84.2358 48.2656 84.2358 49.8379C84.2358 50.5898 83.877 51.4272 83.1592 52.3501L58.8062 83.2144L84.646 116.181C85.3638 117.069 85.7227 117.787 85.7227 118.334C85.7227 118.881 85.6543 119.274 85.5176 119.513C85.1416 120.504 84.2529 121 82.8516 121L71.9312 121C68.5132 121 65.5396 119.394 63.0103 116.181L47.373 96.2368L31.7358 116.181C29.2065 119.394 26.2329 121 22.8149 121L11.8945 121Z" fill="rgb(0,0,0)" fill-rule="nonzero" />
</svg>
