<svg viewBox="0 0 48 48" xmlns="http://www.w3.org/2000/svg" xmlns:xlink="http://www.w3.org/1999/xlink" width="48.000000" height="48.000000" fill="none" customFrame="#000000">
	<rect id="48px Icon color (full) 08" width="48.000000" height="48.000000" x="0.000000" y="0.000000" fill="rgb(255,255,255)" fill-opacity="0" />
	<path id="32px Icon color (full) 08" d="M0 24C0 15.5992 0 11.3988 1.6349 8.19014C3.073 5.36771 5.36771 3.073 8.19014 1.6349C11.3988 0 15.5992 0 24 0C32.4008 0 36.6012 0 39.8099 1.6349C42.6323 3.073 44.927 5.36771 46.3651 8.19014C48 11.3988 48 15.5992 48 24C48 32.4008 48 36.6012 46.3651 39.8099C44.927 42.6323 42.6323 44.927 39.8099 46.3651C36.6012 48 32.4008 48 24 48C15.5992 48 11.3988 48 8.19014 46.3651C5.36771 44.927 3.073 42.6323 1.6349 39.8099C0 36.6012 0 32.4008 0 24Z" fill="rgb(255,107,107)" fill-rule="evenodd" />
	<path id="32px Icon color (full) 08" d="M17.7179 30.7564C17.7179 30.3654 17.5625 29.9905 17.286 29.714C17.0095 29.4375 16.6346 29.2821 16.2436 29.2821C15.8526 29.2821 15.4777 29.4375 15.2012 29.714C14.9247 29.9905 14.7692 30.3654 14.7692 30.7564C14.7692 31.1474 14.9247 31.5223 15.2012 31.7988C15.4777 32.0753 15.8526 32.2308 16.2436 32.2308C16.6346 32.2308 17.0095 32.0753 17.286 31.7988C17.5625 31.5223 17.7179 31.1474 17.7179 30.7564ZM34.2308 30.7564C34.2308 30.3654 34.0753 29.9905 33.7988 29.714C33.5223 29.4375 33.1474 29.2821 32.7564 29.2821C32.3654 29.2821 31.9905 29.4375 31.714 29.714C31.4375 29.9905 31.2821 30.3654 31.2821 30.7564C31.2821 31.1474 31.4375 31.5223 31.714 31.7988C31.9905 32.0753 32.3654 32.2308 32.7564 32.2308C33.1474 32.2308 33.5223 32.0753 33.7988 31.7988C34.0753 31.5223 34.2308 31.1474 34.2308 30.7564ZM27.1538 24.859C27.1538 24.1551 26.874 23.4803 26.3764 22.9826C25.8787 22.4849 25.2038 22.2051 24.5 22.2051C23.7962 22.2051 23.1213 22.4849 22.6236 22.9826C22.126 23.4803 21.8462 24.1551 21.8462 24.859C21.8462 25.5628 22.126 26.2376 22.6236 26.7353C23.1213 27.233 23.7962 27.5128 24.5 27.5128C25.2038 27.5128 25.8787 27.233 26.3764 26.7353C26.874 26.2376 27.1538 25.5628 27.1538 24.859ZM25.9744 14.2436C25.9744 13.8526 25.8189 13.4777 25.5424 13.2012C25.2659 12.9247 24.891 12.7692 24.5 12.7692C24.109 12.7692 23.7341 12.9247 23.4576 13.2012C23.1811 13.4777 23.0256 13.8526 23.0256 14.2436C23.0256 14.6346 23.1811 15.0095 23.4576 15.286C23.7341 15.5625 24.109 15.7179 24.5 15.7179L24.6457 15.7105C24.9832 15.6769 25.3005 15.5279 25.5424 15.286C25.8189 15.0095 25.9744 14.6346 25.9744 14.2436ZM27.7436 14.2436C27.7436 15.1038 27.4016 15.9286 26.7933 16.5369C26.3985 16.9317 25.9124 17.2137 25.3846 17.3634L25.3846 20.5257C26.228 20.6979 27.0101 21.1134 27.6278 21.7311C28.4573 22.5606 28.9231 23.6859 28.9231 24.859C28.9231 25.4896 28.7872 26.1058 28.5338 26.6702L30.72 28.2316C31.294 27.7686 32.0121 27.5128 32.7564 27.5128C33.6167 27.5128 34.4414 27.8548 35.0497 28.4631C35.658 29.0714 36 29.8962 36 30.7564C36 31.6167 35.658 32.4414 35.0497 33.0497C34.4414 33.658 33.6167 34 32.7564 34C31.8962 34 31.0714 33.658 30.4631 33.0497C29.8548 32.4414 29.5128 31.6167 29.5128 30.7564C29.5128 30.3846 29.5767 30.0194 29.6983 29.6754L27.5011 28.1066C26.6855 28.8604 25.6148 29.2821 24.5 29.2821C23.385 29.2821 22.314 28.8605 21.4983 28.1066L19.3012 29.6754C19.4228 30.0194 19.4872 30.3845 19.4872 30.7564C19.4872 31.6167 19.1452 32.4414 18.5369 33.0497C17.9286 33.658 17.1038 34 16.2436 34C15.3833 34 14.5586 33.658 13.9503 33.0497C13.342 32.4414 13 31.6167 13 30.7564C13 29.8962 13.342 29.0714 13.9503 28.4631C14.5586 27.8548 15.3833 27.5128 16.2436 27.5128C16.9878 27.5128 17.7055 27.7687 18.2795 28.2316L20.4657 26.6702C20.2123 26.1059 20.0769 25.4895 20.0769 24.859C20.0769 23.6859 20.5427 22.5606 21.3722 21.7311C21.9899 21.1134 22.772 20.6979 23.6154 20.5257L23.6154 17.3634C23.0876 17.2137 22.6015 16.9317 22.2067 16.5369C21.5984 15.9286 21.2564 15.1038 21.2564 14.2436C21.2564 13.3833 21.5984 12.5586 22.2067 11.9503C22.815 11.342 23.6397 11 24.5 11C25.3603 11 26.185 11.342 26.7933 11.9503C27.4016 12.5586 27.7436 13.3833 27.7436 14.2436Z" fill="rgb(255,107,107)" fill-rule="nonzero" />
	<path id="32px Icon color (full) 08" d="M17.7179 30.7564C17.7179 30.3654 17.5625 29.9905 17.286 29.714C17.0095 29.4375 16.6346 29.2821 16.2436 29.2821C15.8526 29.2821 15.4777 29.4375 15.2012 29.714C14.9247 29.9905 14.7692 30.3654 14.7692 30.7564C14.7692 31.1474 14.9247 31.5223 15.2012 31.7988C15.4777 32.0753 15.8526 32.2308 16.2436 32.2308C16.6346 32.2308 17.0095 32.0753 17.286 31.7988C17.5625 31.5223 17.7179 31.1474 17.7179 30.7564ZM34.2308 30.7564C34.2308 30.3654 34.0753 29.9905 33.7988 29.714C33.5223 29.4375 33.1474 29.2821 32.7564 29.2821C32.3654 29.2821 31.9905 29.4375 31.714 29.714C31.4375 29.9905 31.2821 30.3654 31.2821 30.7564C31.2821 31.1474 31.4375 31.5223 31.714 31.7988C31.9905 32.0753 32.3654 32.2308 32.7564 32.2308C33.1474 32.2308 33.5223 32.0753 33.7988 31.7988C34.0753 31.5223 34.2308 31.1474 34.2308 30.7564ZM27.1538 24.859C27.1538 24.1551 26.874 23.4803 26.3764 22.9826C25.8787 22.4849 25.2038 22.2051 24.5 22.2051C23.7962 22.2051 23.1213 22.4849 22.6236 22.9826C22.126 23.4803 21.8462 24.1551 21.8462 24.859C21.8462 25.5628 22.126 26.2376 22.6236 26.7353C23.1213 27.233 23.7962 27.5128 24.5 27.5128C25.2038 27.5128 25.8787 27.233 26.3764 26.7353C26.874 26.2376 27.1538 25.5628 27.1538 24.859ZM25.9744 14.2436C25.9744 13.8526 25.8189 13.4777 25.5424 13.2012C25.2659 12.9247 24.891 12.7692 24.5 12.7692C24.109 12.7692 23.7341 12.9247 23.4576 13.2012C23.1811 13.4777 23.0256 13.8526 23.0256 14.2436C23.0256 14.6346 23.1811 15.0095 23.4576 15.286C23.7341 15.5625 24.109 15.7179 24.5 15.7179L24.6457 15.7105C24.9832 15.6769 25.3005 15.5279 25.5424 15.286C25.8189 15.0095 25.9744 14.6346 25.9744 14.2436ZM27.7436 14.2436C27.7436 15.1038 27.4016 15.9286 26.7933 16.5369C26.3985 16.9317 25.9124 17.2137 25.3846 17.3634L25.3846 20.5257C26.228 20.6979 27.0101 21.1134 27.6278 21.7311C28.4573 22.5606 28.9231 23.6859 28.9231 24.859C28.9231 25.4896 28.7872 26.1058 28.5338 26.6702L30.72 28.2316C31.294 27.7686 32.0121 27.5128 32.7564 27.5128C33.6167 27.5128 34.4414 27.8548 35.0497 28.4631C35.658 29.0714 36 29.8962 36 30.7564C36 31.6167 35.658 32.4414 35.0497 33.0497C34.4414 33.658 33.6167 34 32.7564 34C31.8962 34 31.0714 33.658 30.4631 33.0497C29.8548 32.4414 29.5128 31.6167 29.5128 30.7564C29.5128 30.3846 29.5767 30.0194 29.6983 29.6754L27.5011 28.1066C26.6855 28.8604 25.6148 29.2821 24.5 29.2821C23.385 29.2821 22.314 28.8605 21.4983 28.1066L19.3012 29.6754C19.4228 30.0194 19.4872 30.3845 19.4872 30.7564C19.4872 31.6167 19.1452 32.4414 18.5369 33.0497C17.9286 33.658 17.1038 34 16.2436 34C15.3833 34 14.5586 33.658 13.9503 33.0497C13.342 32.4414 13 31.6167 13 30.7564C13 29.8962 13.342 29.0714 13.9503 28.4631C14.5586 27.8548 15.3833 27.5128 16.2436 27.5128C16.9878 27.5128 17.7055 27.7687 18.2795 28.2316L20.4657 26.6702C20.2123 26.1059 20.0769 25.4895 20.0769 24.859C20.0769 23.6859 20.5427 22.5606 21.3722 21.7311C21.9899 21.1134 22.772 20.6979 23.6154 20.5257L23.6154 17.3634C23.0876 17.2137 22.6015 16.9317 22.2067 16.5369C21.5984 15.9286 21.2564 15.1038 21.2564 14.2436C21.2564 13.3833 21.5984 12.5586 22.2067 11.9503C22.815 11.342 23.6397 11 24.5 11C25.3603 11 26.185 11.342 26.7933 11.9503C27.4016 12.5586 27.7436 13.3833 27.7436 14.2436Z" fill="rgb(255,255,255)" fill-rule="nonzero" />
</svg>
