<svg viewBox="0 0 48 48" xmlns="http://www.w3.org/2000/svg" xmlns:xlink="http://www.w3.org/1999/xlink" width="48.000000" height="48.000000" fill="none" customFrame="#000000">
	<rect id="48px Icon color (full) 09" width="48.000000" height="48.000000" x="0.000000" y="0.000000" fill="rgb(255,255,255)" fill-opacity="0" />
	<path id="32px Icon color (full) 09" d="M0 24C0 15.5992 0 11.3988 1.6349 8.19014C3.073 5.36771 5.36771 3.073 8.19014 1.6349C11.3988 0 15.5992 0 24 0C32.4008 0 36.6012 0 39.8099 1.6349C42.6323 3.073 44.927 5.36771 46.3651 8.19014C48 11.3988 48 15.5992 48 24C48 32.4008 48 36.6012 46.3651 39.8099C44.927 42.6323 42.6323 44.927 39.8099 46.3651C36.6012 48 32.4008 48 24 48C15.5992 48 11.3988 48 8.19014 46.3651C5.36771 44.927 3.073 42.6323 1.6349 39.8099C0 36.6012 0 32.4008 0 24Z" fill="rgb(76,175,80)" fill-rule="evenodd" />
	<path id="32px Icon color (full) 09" d="M24.5 13.0009C30.8514 13.0009 36 18.1494 36 24.5009C36 29.4459 32.8789 33.6618 28.4997 35.2856C28.4257 35.3262 28.3474 35.3586 28.2663 35.3822L28.157 35.4075C26.9781 35.8016 25.7431 36.002 24.5 36.0009C18.1486 36.0009 13 30.8523 13 24.5009C13 18.1494 18.1486 13.0009 24.5 13.0009ZM27.8465 15.9288L27.6441 16.9419C27.5136 17.594 27.1975 18.1945 26.7338 18.6711C26.27 19.1477 25.6784 19.4801 25.0301 19.6283L24.569 19.7341C24.283 19.7993 24.0327 19.9714 23.8693 20.2151C23.706 20.4588 23.642 20.7557 23.6904 21.0451L23.8916 22.2503C23.9558 22.6366 23.9202 23.0329 23.7883 23.4016C23.6564 23.7703 23.4325 24.0993 23.1379 24.3572C22.8433 24.6152 22.4877 24.7937 22.1048 24.8758C21.7219 24.9579 21.3244 24.9408 20.9499 24.8263L19.4664 24.3732C18.7598 24.1572 18.1412 23.72 17.7017 23.1261C17.2622 22.5321 17.025 21.8128 17.025 21.0739L17.025 19.1361C15.9361 20.6521 15.3341 22.4634 15.2989 24.3296C15.2637 26.1958 15.797 28.0285 16.8279 29.5845C17.8588 31.1405 19.3386 32.3461 21.0708 33.0413C22.803 33.7364 24.7057 33.8883 26.5263 33.4766L25.8582 31.1398C25.8042 30.952 25.7033 30.781 25.5649 30.643L24.1412 29.2182C23.9696 29.0467 23.8361 28.8409 23.7494 28.6143C23.6628 28.3877 23.6249 28.1454 23.6382 27.9031C23.6516 27.6609 23.7159 27.4242 23.8269 27.2085C23.938 26.9928 24.0933 26.803 24.2826 26.6514L26.0824 25.2127C26.4255 24.9382 26.8401 24.7678 27.277 24.7215C27.714 24.6752 28.155 24.7551 28.548 24.9517L30.2385 25.7969C30.7464 26.0509 31.1838 26.4264 31.5118 26.89C31.8398 27.3536 32.0483 27.891 32.1188 28.4546L32.2453 29.4677C32.9801 28.3212 33.4514 27.026 33.6252 25.6754C33.799 24.3247 33.6708 22.9523 33.25 21.6572C32.8293 20.3621 32.1263 19.1765 31.1919 18.1859C30.2575 17.1953 29.1149 16.4244 27.8465 15.9288ZM27.5187 27.009L26.2215 28.0463L27.1922 29.0158C27.5465 29.3705 27.8192 29.7983 27.9914 30.2693L28.0696 30.5085L28.694 32.6912C29.0973 32.4842 29.4822 32.2496 29.8486 31.9874L30.2086 31.716L29.8372 28.7398C29.8166 28.5758 29.761 28.4182 29.6741 28.2777C29.5871 28.1372 29.471 28.0171 29.3334 27.9256L29.2092 27.8543L27.5187 27.009ZM24.5 15.3009C22.651 15.2978 20.8444 15.8546 19.3181 16.8982C19.3227 16.9396 19.325 16.9822 19.325 17.0259L19.325 21.0739C19.3248 21.3202 19.4037 21.5601 19.55 21.7582C19.6964 21.9563 19.9025 22.1022 20.1381 22.1744L21.6227 22.6275L21.4214 21.4223C21.2768 20.5547 21.469 19.6647 21.9587 18.9341C22.4484 18.2035 23.1987 17.6875 24.0561 17.4916L24.5173 17.387C24.7336 17.3375 24.931 17.2265 25.0857 17.0673C25.2404 16.9082 25.3457 16.7076 25.389 16.49L25.6143 15.3676C25.2446 15.3228 24.8725 15.3005 24.5 15.3009Z" fill="rgb(76,175,80)" fill-rule="evenodd" />
	<path id="32px Icon color (full) 09" d="M24.5 13.0009C30.8514 13.0009 36 18.1494 36 24.5009C36 29.4459 32.8789 33.6618 28.4997 35.2856C28.4257 35.3262 28.3474 35.3586 28.2663 35.3822L28.157 35.4075C26.9781 35.8016 25.7431 36.002 24.5 36.0009C18.1486 36.0009 13 30.8523 13 24.5009C13 18.1494 18.1486 13.0009 24.5 13.0009ZM27.8465 15.9288L27.6441 16.9419C27.5136 17.594 27.1975 18.1945 26.7338 18.6711C26.27 19.1477 25.6784 19.4801 25.0301 19.6283L24.569 19.7341C24.283 19.7993 24.0327 19.9714 23.8693 20.2151C23.706 20.4588 23.642 20.7557 23.6904 21.0451L23.8916 22.2503C23.9558 22.6366 23.9202 23.0329 23.7883 23.4016C23.6564 23.7703 23.4325 24.0993 23.1379 24.3572C22.8433 24.6152 22.4877 24.7937 22.1048 24.8758C21.7219 24.9579 21.3244 24.9408 20.9499 24.8263L19.4664 24.3732C18.7598 24.1572 18.1412 23.72 17.7017 23.1261C17.2622 22.5321 17.025 21.8128 17.025 21.0739L17.025 19.1361C15.9361 20.6521 15.3341 22.4634 15.2989 24.3296C15.2637 26.1958 15.797 28.0285 16.8279 29.5845C17.8588 31.1405 19.3386 32.3461 21.0708 33.0413C22.803 33.7364 24.7057 33.8883 26.5263 33.4766L25.8582 31.1398C25.8042 30.952 25.7033 30.781 25.5649 30.643L24.1412 29.2182C23.9696 29.0467 23.8361 28.8409 23.7494 28.6143C23.6628 28.3877 23.6249 28.1454 23.6382 27.9031C23.6516 27.6609 23.7159 27.4242 23.8269 27.2085C23.938 26.9928 24.0933 26.803 24.2826 26.6514L26.0824 25.2127C26.4255 24.9382 26.8401 24.7678 27.277 24.7215C27.714 24.6752 28.155 24.7551 28.548 24.9517L30.2385 25.7969C30.7464 26.0509 31.1838 26.4264 31.5118 26.89C31.8398 27.3536 32.0483 27.891 32.1188 28.4546L32.2453 29.4677C32.9801 28.3212 33.4514 27.026 33.6252 25.6754C33.799 24.3247 33.6708 22.9523 33.25 21.6572C32.8293 20.3621 32.1263 19.1765 31.1919 18.1859C30.2575 17.1953 29.1149 16.4244 27.8465 15.9288ZM27.5187 27.009L26.2215 28.0463L27.1922 29.0158C27.5465 29.3705 27.8192 29.7983 27.9914 30.2693L28.0696 30.5085L28.694 32.6912C29.0973 32.4842 29.4822 32.2496 29.8486 31.9874L30.2086 31.716L29.8372 28.7398C29.8166 28.5758 29.761 28.4182 29.6741 28.2777C29.5871 28.1372 29.471 28.0171 29.3334 27.9256L29.2092 27.8543L27.5187 27.009ZM24.5 15.3009C22.651 15.2978 20.8444 15.8546 19.3181 16.8982C19.3227 16.9396 19.325 16.9822 19.325 17.0259L19.325 21.0739C19.3248 21.3202 19.4037 21.5601 19.55 21.7582C19.6964 21.9563 19.9025 22.1022 20.1381 22.1744L21.6227 22.6275L21.4214 21.4223C21.2768 20.5547 21.469 19.6647 21.9587 18.9341C22.4484 18.2035 23.1987 17.6875 24.0561 17.4916L24.5173 17.387C24.7336 17.3375 24.931 17.2265 25.0857 17.0673C25.2404 16.9082 25.3457 16.7076 25.389 16.49L25.6143 15.3676C25.2446 15.3228 24.8725 15.3005 24.5 15.3009Z" fill="rgb(255,255,255)" fill-rule="evenodd" />
</svg>
