<svg viewBox="0 0 48 48" xmlns="http://www.w3.org/2000/svg" xmlns:xlink="http://www.w3.org/1999/xlink" width="48.000000" height="48.000000" fill="none" customFrame="#000000">
	<rect id="48px Icon color (full) 06" width="48.000000" height="48.000000" x="0.000000" y="0.000000" fill="rgb(255,255,255)" fill-opacity="0" />
	<path id="32px Icon color (full) 06" d="M0 24C0 15.5992 0 11.3988 1.6349 8.19014C3.073 5.36771 5.36771 3.073 8.19014 1.6349C11.3988 0 15.5992 0 24 0C32.4008 0 36.6012 0 39.8099 1.6349C42.6323 3.073 44.927 5.36771 46.3651 8.19014C48 11.3988 48 15.5992 48 24C48 32.4008 48 36.6012 46.3651 39.8099C44.927 42.6323 42.6323 44.927 39.8099 46.3651C36.6012 48 32.4008 48 24 48C15.5992 48 11.3988 48 8.19014 46.3651C5.36771 44.927 3.073 42.6323 1.6349 39.8099C0 36.6012 0 32.4008 0 24Z" fill="rgb(221.482,155.278,0)" fill-rule="evenodd" />
	<path id="32px Icon color (full) 06" d="M29.7538 15C31.7724 15 33.7553 15.5439 35.5035 16.5766C35.8104 16.7579 35.9999 17.0929 36 17.4556L36 32.9845C36 33.3472 35.8105 33.6827 35.5035 33.8641C35.1965 34.0453 34.8185 34.0453 34.5116 33.8641C33.0651 33.0096 31.424 32.5599 29.7538 32.5599C28.0835 32.5599 26.4424 33.0096 24.996 33.8641C24.689 34.0453 24.311 34.0453 24.004 33.8641C22.5576 33.0096 20.9165 32.5599 19.2462 32.5599C17.576 32.5599 15.9349 33.0096 14.4885 33.8641C14.1815 34.0453 13.8035 34.0453 13.4965 33.8641C13.1895 33.6827 13 33.3472 13 32.9845L13 17.4556C13.0001 17.0929 13.1896 16.7579 13.4965 16.5766C15.2447 15.5439 17.2276 15 19.2462 15C21.0764 15 22.8768 15.4482 24.5 16.3013C26.1232 15.4482 27.9236 15 29.7538 15ZM18.9333 17.0362C17.5592 17.0824 16.2124 17.4331 14.985 18.0622L14.985 31.3683C16.3361 30.8167 17.7815 30.5289 19.2462 30.5289C20.711 30.5289 22.1564 30.8167 23.5075 31.3683L23.5075 18.0622C22.187 17.3854 20.7283 17.0309 19.2462 17.0309L18.9333 17.0362ZM29.7538 17.0309C28.2717 17.0309 26.813 17.3854 25.4925 18.0622L25.4925 31.3683C26.8436 30.8167 28.289 30.5289 29.7538 30.5289C31.2185 30.5289 32.6639 30.8167 34.015 31.3683L34.015 18.0622C32.6945 17.3854 31.2358 17.0309 29.7538 17.0309Z" fill="rgb(221.482,155.278,0)" fill-rule="nonzero" />
	<path id="32px Icon color (full) 06" d="M29.7538 15C31.7724 15 33.7553 15.5439 35.5035 16.5766C35.8104 16.7579 35.9999 17.0929 36 17.4556L36 32.9845C36 33.3472 35.8105 33.6827 35.5035 33.8641C35.1965 34.0453 34.8185 34.0453 34.5116 33.8641C33.0651 33.0096 31.424 32.5599 29.7538 32.5599C28.0835 32.5599 26.4424 33.0096 24.996 33.8641C24.689 34.0453 24.311 34.0453 24.004 33.8641C22.5576 33.0096 20.9165 32.5599 19.2462 32.5599C17.576 32.5599 15.9349 33.0096 14.4885 33.8641C14.1815 34.0453 13.8035 34.0453 13.4965 33.8641C13.1895 33.6827 13 33.3472 13 32.9845L13 17.4556C13.0001 17.0929 13.1896 16.7579 13.4965 16.5766C15.2447 15.5439 17.2276 15 19.2462 15C21.0764 15 22.8768 15.4482 24.5 16.3013C26.1232 15.4482 27.9236 15 29.7538 15ZM18.9333 17.0362C17.5592 17.0824 16.2124 17.4331 14.985 18.0622L14.985 31.3683C16.3361 30.8167 17.7815 30.5289 19.2462 30.5289C20.711 30.5289 22.1564 30.8167 23.5075 31.3683L23.5075 18.0622C22.187 17.3854 20.7283 17.0309 19.2462 17.0309L18.9333 17.0362ZM29.7538 17.0309C28.2717 17.0309 26.813 17.3854 25.4925 18.0622L25.4925 31.3683C26.8436 30.8167 28.289 30.5289 29.7538 30.5289C31.2185 30.5289 32.6639 30.8167 34.015 31.3683L34.015 18.0622C32.6945 17.3854 31.2358 17.0309 29.7538 17.0309Z" fill="rgb(255,255,255)" fill-rule="nonzero" />
</svg>
