<svg viewBox="0 0 48 48" xmlns="http://www.w3.org/2000/svg" xmlns:xlink="http://www.w3.org/1999/xlink" width="48.000000" height="48.000000" fill="none" customFrame="#000000">
	<rect id="48px Icon color (full) 03" width="48.000000" height="48.000000" x="0.000000" y="0.000000" fill="rgb(255,255,255)" fill-opacity="0" />
	<path id="32px Icon color (full) 03" d="M0 24C0 15.5992 0 11.3988 1.6349 8.19014C3.073 5.36771 5.36771 3.073 8.19014 1.6349C11.3988 0 15.5992 0 24 0C32.4008 0 36.6012 0 39.8099 1.6349C42.6323 3.073 44.927 5.36771 46.3651 8.19014C48 11.3988 48 15.5992 48 24C48 32.4008 48 36.6012 46.3651 39.8099C44.927 42.6323 42.6323 44.927 39.8099 46.3651C36.6012 48 32.4008 48 24 48C15.5992 48 11.3988 48 8.19014 46.3651C5.36771 44.927 3.073 42.6323 1.6349 39.8099C0 36.6012 0 32.4008 0 24Z" fill="rgb(141,110,99)" fill-rule="evenodd" />
	<path id="32px Icon color (full) 03" d="M18 17L30 17C30.2652 17 30.5196 17.1054 30.7071 17.2929C30.8946 17.4804 31 17.7348 31 18C31 18.2652 30.8946 18.5196 30.7071 18.7071C30.5196 18.8946 30.2652 19 30 19L18 19C17.7348 19 17.4804 18.8946 17.2929 18.7071C17.1054 18.5196 17 18.2652 17 18C17 17.7348 17.1054 17.4804 17.2929 17.2929C17.4804 17.1054 17.7348 17 18 17ZM33 14L33 16L15 16L15 14L33 14ZM27 20L29 20L29 34L27 34L27 20ZM19 20L21 20L21 34L19 34L19 20ZM23 20L25 20L25 34L23 34L23 20Z" fill="rgb(141,110,99)" fill-rule="nonzero" />
	<path id="32px Icon color (full) 03" d="M18 17L30 17C30.2652 17 30.5196 17.1054 30.7071 17.2929C30.8946 17.4804 31 17.7348 31 18C31 18.2652 30.8946 18.5196 30.7071 18.7071C30.5196 18.8946 30.2652 19 30 19L18 19C17.7348 19 17.4804 18.8946 17.2929 18.7071C17.1054 18.5196 17 18.2652 17 18C17 17.7348 17.1054 17.4804 17.2929 17.2929C17.4804 17.1054 17.7348 17 18 17ZM33 14L33 16L15 16L15 14L33 14ZM27 20L29 20L29 34L27 34L27 20ZM19 20L21 20L21 34L19 34L19 20ZM23 20L25 20L25 34L23 34L23 20Z" fill="rgb(255,255,255)" fill-rule="nonzero" />
</svg>
