<svg viewBox="0 0 48 48" xmlns="http://www.w3.org/2000/svg" xmlns:xlink="http://www.w3.org/1999/xlink" width="48.000000" height="48.000000" fill="none" customFrame="#000000">
	<rect id="48px Icon color (full) 13" width="48.000000" height="48.000000" x="0.000000" y="0.000000" fill="rgb(255,255,255)" fill-opacity="0" />
	<path id="32px Icon color (full) 13" d="M0 24C0 15.5992 0 11.3988 1.6349 8.19014C3.073 5.36771 5.36771 3.073 8.19014 1.6349C11.3988 0 15.5992 0 24 0C32.4008 0 36.6012 0 39.8099 1.6349C42.6323 3.073 44.927 5.36771 46.3651 8.19014C48 11.3988 48 15.5992 48 24C48 32.4008 48 36.6012 46.3651 39.8099C44.927 42.6323 42.6323 44.927 39.8099 46.3651C36.6012 48 32.4008 48 24 48C15.5992 48 11.3988 48 8.19014 46.3651C5.36771 44.927 3.073 42.6323 1.6349 39.8099C0 36.6012 0 32.4008 0 24Z" fill="rgb(114,9,183)" fill-rule="evenodd" />
	<path id="32px Icon color (full) 13" d="M32.7713 35.487L28.0482 29.7775L28.0482 19.7691L28.6389 19.7691C29.129 19.7691 29.5259 19.3637 29.5259 18.8631C29.5259 18.3626 29.129 17.9572 28.6389 17.9572L27.1612 17.9572C26.6712 17.9572 26.2743 18.3626 26.2743 18.8631L26.2743 30.1263C26.2742 30.3506 26.3558 30.5669 26.5031 30.7333L30.1166 35.188L18.8833 35.188L22.4967 30.7333C22.6441 30.5669 22.7256 30.3506 22.7256 30.1262L22.7256 18.8632C22.7256 18.3626 22.3287 17.9572 21.8386 17.9572L20.3609 17.9572C19.8709 17.9572 19.474 18.3626 19.474 18.8632C19.474 19.3637 19.8709 19.7692 20.3609 19.7692L20.9516 19.7692L20.9516 29.7775L16.2286 35.487C16.1137 35.6171 16.0382 35.7783 16.0111 35.9513C15.9841 36.1243 16.0066 36.3016 16.076 36.4618C16.1457 36.622 16.2594 36.7581 16.4033 36.8537C16.5472 36.9492 16.7151 37 16.8867 37L32.1131 37C32.2847 37 32.4527 36.9492 32.5966 36.8537C32.7405 36.7581 32.8541 36.622 32.9238 36.4618C33.0657 36.1348 33.0063 35.7524 32.7713 35.487ZM23.613 17.0548C24.5904 17.0548 25.3825 16.2453 25.3825 15.2474C25.3825 14.2504 24.5904 13.4409 23.613 13.4409C22.6351 13.4409 21.8435 14.2504 21.8435 15.2474C21.8435 16.2453 22.6351 17.0548 23.613 17.0548ZM29.3915 14.3654C31.1202 14.3654 32.5216 12.9403 32.5216 11.1827C32.5216 9.42511 31.1206 8 29.3915 8C27.6633 8 26.2614 9.42511 26.2614 11.1827C26.2614 12.9403 27.6633 14.3654 29.3915 14.3654ZM29.3777 9.80649C30.1166 9.80649 30.7175 10.4176 30.7175 11.1691C30.7175 11.9201 30.1166 12.5317 29.3777 12.5317C28.6389 12.5317 28.038 11.9201 28.038 11.1691C28.0384 10.4176 28.6389 9.80649 29.3777 9.80649Z" fill="rgb(114,9,183)" fill-rule="nonzero" />
	<path id="32px Icon color (full) 13" d="M32.7713 35.487L28.0482 29.7775L28.0482 19.7691L28.6389 19.7691C29.129 19.7691 29.5259 19.3637 29.5259 18.8631C29.5259 18.3626 29.129 17.9572 28.6389 17.9572L27.1612 17.9572C26.6712 17.9572 26.2743 18.3626 26.2743 18.8631L26.2743 30.1263C26.2742 30.3506 26.3558 30.5669 26.5031 30.7333L30.1166 35.188L18.8833 35.188L22.4967 30.7333C22.6441 30.5669 22.7256 30.3506 22.7256 30.1262L22.7256 18.8632C22.7256 18.3626 22.3287 17.9572 21.8386 17.9572L20.3609 17.9572C19.8709 17.9572 19.474 18.3626 19.474 18.8632C19.474 19.3637 19.8709 19.7692 20.3609 19.7692L20.9516 19.7692L20.9516 29.7775L16.2286 35.487C16.1137 35.6171 16.0382 35.7783 16.0111 35.9513C15.9841 36.1243 16.0066 36.3016 16.076 36.4618C16.1457 36.622 16.2594 36.7581 16.4033 36.8537C16.5472 36.9492 16.7151 37 16.8867 37L32.1131 37C32.2847 37 32.4527 36.9492 32.5966 36.8537C32.7405 36.7581 32.8541 36.622 32.9238 36.4618C33.0657 36.1348 33.0063 35.7524 32.7713 35.487ZM23.613 17.0548C24.5904 17.0548 25.3825 16.2453 25.3825 15.2474C25.3825 14.2504 24.5904 13.4409 23.613 13.4409C22.6351 13.4409 21.8435 14.2504 21.8435 15.2474C21.8435 16.2453 22.6351 17.0548 23.613 17.0548ZM29.3915 14.3654C31.1202 14.3654 32.5216 12.9403 32.5216 11.1827C32.5216 9.42511 31.1206 8 29.3915 8C27.6633 8 26.2614 9.42511 26.2614 11.1827C26.2614 12.9403 27.6633 14.3654 29.3915 14.3654ZM29.3777 9.80649C30.1166 9.80649 30.7175 10.4176 30.7175 11.1691C30.7175 11.9201 30.1166 12.5317 29.3777 12.5317C28.6389 12.5317 28.038 11.9201 28.038 11.1691C28.0384 10.4176 28.6389 9.80649 29.3777 9.80649Z" fill="rgb(255,255,255)" fill-rule="nonzero" />
</svg>
