<svg viewBox="0 0 48 48" xmlns="http://www.w3.org/2000/svg" xmlns:xlink="http://www.w3.org/1999/xlink" width="48.000000" height="48.000000" fill="none" customFrame="#000000">
	<rect id="48px Icon color (full) 16" width="48.000000" height="48.000000" x="0.000000" y="0.000000" fill="rgb(255,255,255)" fill-opacity="0" />
	<path id="32px Icon color (full) 16" d="M0 24C0 15.5992 0 11.3988 1.6349 8.19014C3.073 5.36771 5.36771 3.073 8.19014 1.6349C11.3988 0 15.5992 0 24 0C32.4008 0 36.6012 0 39.8099 1.6349C42.6323 3.073 44.927 5.36771 46.3651 8.19014C48 11.3988 48 15.5992 48 24C48 32.4008 48 36.6012 46.3651 39.8099C44.927 42.6323 42.6323 44.927 39.8099 46.3651C36.6012 48 32.4008 48 24 48C15.5992 48 11.3988 48 8.19014 46.3651C5.36771 44.927 3.073 42.6323 1.6349 39.8099C0 36.6012 0 32.4008 0 24Z" fill="rgb(251,48,63)" fill-rule="evenodd" />
	<path id="32px Icon color (full) 16" d="M30.5019 33.2033C29.9248 33.2033 29.3645 33.1657 28.8208 33.0904C28.2856 33.0151 27.7837 32.9106 27.3154 32.7768C26.847 32.6429 26.4372 32.4924 26.0859 32.3251L26.2992 29.515C26.6756 29.7408 27.0854 29.9373 27.5287 30.1046C27.9803 30.2635 28.4487 30.3889 28.9337 30.4809C29.4188 30.5646 29.8997 30.6064 30.3765 30.6064C30.7445 30.6064 31.079 30.5771 31.3801 30.5186C31.6812 30.4517 31.9196 30.322 32.0952 30.1297C32.2792 29.9373 32.3712 29.653 32.3712 29.2766C32.3712 29.0173 32.2792 28.804 32.0952 28.6368C31.9196 28.4695 31.6268 28.3148 31.217 28.1726C30.8072 28.0304 30.2468 27.8673 29.5359 27.6833C28.825 27.4993 28.2103 27.2651 27.6917 26.9808C27.1816 26.6881 26.7885 26.3075 26.5125 25.8391C26.2448 25.3708 26.111 24.7644 26.111 24.0201C26.111 22.7655 26.5125 21.7953 27.3154 21.1095C28.1183 20.4237 29.2014 20.0808 30.5646 20.0808C31.1417 20.0808 31.7021 20.1268 32.2457 20.2188C32.7894 20.3024 33.2828 20.4154 33.7261 20.5575C34.1777 20.6914 34.5541 20.8294 34.8552 20.9715L34.6294 23.7943C34.2446 23.5517 33.8265 23.351 33.3748 23.1921C32.9232 23.0248 32.4883 22.8993 32.0701 22.8157C31.6519 22.7321 31.3048 22.6903 31.0288 22.6903C30.7194 22.6903 30.4392 22.7321 30.1883 22.8157C29.9374 22.891 29.7367 23.0206 29.5861 23.2046C29.4439 23.3886 29.3728 23.627 29.3728 23.9197C29.3728 24.1622 29.4314 24.3755 29.5485 24.5595C29.6656 24.7352 29.8872 24.8982 30.2134 25.0488C30.5479 25.1993 31.0372 25.3666 31.6812 25.5506C32.551 25.7931 33.2745 26.0482 33.8515 26.3159C34.437 26.5835 34.8761 26.939 35.1688 27.3822C35.4615 27.8171 35.6079 28.411 35.6079 29.1637C35.6079 29.9666 35.4323 30.6691 35.081 31.2713C34.7381 31.8735 34.1903 32.346 33.4375 32.6889C32.6932 33.0318 31.7146 33.2033 30.5019 33.2033Z" fill="rgb(251,48,63)" fill-rule="nonzero" />
	<path id="32px Icon color (full) 16" d="M30.5019 33.2033C29.9248 33.2033 29.3645 33.1657 28.8208 33.0904C28.2856 33.0151 27.7837 32.9106 27.3154 32.7768C26.847 32.6429 26.4372 32.4924 26.0859 32.3251L26.2992 29.515C26.6756 29.7408 27.0854 29.9373 27.5287 30.1046C27.9803 30.2635 28.4487 30.3889 28.9337 30.4809C29.4188 30.5646 29.8997 30.6064 30.3765 30.6064C30.7445 30.6064 31.079 30.5771 31.3801 30.5186C31.6812 30.4517 31.9196 30.322 32.0952 30.1297C32.2792 29.9373 32.3712 29.653 32.3712 29.2766C32.3712 29.0173 32.2792 28.804 32.0952 28.6368C31.9196 28.4695 31.6268 28.3148 31.217 28.1726C30.8072 28.0304 30.2468 27.8673 29.5359 27.6833C28.825 27.4993 28.2103 27.2651 27.6917 26.9808C27.1816 26.6881 26.7885 26.3075 26.5125 25.8391C26.2448 25.3708 26.111 24.7644 26.111 24.0201C26.111 22.7655 26.5125 21.7953 27.3154 21.1095C28.1183 20.4237 29.2014 20.0808 30.5646 20.0808C31.1417 20.0808 31.7021 20.1268 32.2457 20.2188C32.7894 20.3024 33.2828 20.4154 33.7261 20.5575C34.1777 20.6914 34.5541 20.8294 34.8552 20.9715L34.6294 23.7943C34.2446 23.5517 33.8265 23.351 33.3748 23.1921C32.9232 23.0248 32.4883 22.8993 32.0701 22.8157C31.6519 22.7321 31.3048 22.6903 31.0288 22.6903C30.7194 22.6903 30.4392 22.7321 30.1883 22.8157C29.9374 22.891 29.7367 23.0206 29.5861 23.2046C29.4439 23.3886 29.3728 23.627 29.3728 23.9197C29.3728 24.1622 29.4314 24.3755 29.5485 24.5595C29.6656 24.7352 29.8872 24.8982 30.2134 25.0488C30.5479 25.1993 31.0372 25.3666 31.6812 25.5506C32.551 25.7931 33.2745 26.0482 33.8515 26.3159C34.437 26.5835 34.8761 26.939 35.1688 27.3822C35.4615 27.8171 35.6079 28.411 35.6079 29.1637C35.6079 29.9666 35.4323 30.6691 35.081 31.2713C34.7381 31.8735 34.1903 32.346 33.4375 32.6889C32.6932 33.0318 31.7146 33.2033 30.5019 33.2033Z" fill="rgb(255,255,255)" fill-rule="nonzero" />
	<path id="32px Icon color (full) 16" d="M12 32.8895C12 31.9193 12 30.9784 12 30.0668C12 29.1552 12 28.1432 12 27.0308L12 20.9714C12 19.8339 12 18.801 12 17.8727C12 16.9443 12 15.9867 12 14.9998L23.617 14.9998L23.617 17.9228C22.8309 17.9228 21.982 17.9228 21.0703 17.9228C20.1671 17.9228 19.1007 17.9228 17.8712 17.9228L13.5556 17.9228L15.4374 15.5392C15.4374 16.5261 15.4374 17.4879 15.4374 18.4247C15.4374 19.353 15.4374 20.3859 15.4374 21.5234L15.4374 26.4788C15.4374 27.5912 15.4374 28.6032 15.4374 29.5148C15.4374 30.4264 15.4374 31.3715 15.4374 32.35L13.7814 29.9664L18.1347 29.9664C19.1634 29.9664 20.1378 29.9664 21.0578 29.9664C21.9778 29.9664 22.8601 29.9664 23.7049 29.9664L23.7049 32.8895L12 32.8895ZM14.6471 25.2368L14.6471 22.4643L17.9842 22.4643C19.1049 22.4643 20.0667 22.4643 20.8696 22.4643C21.6725 22.4643 22.4461 22.4643 23.1905 22.4643L23.1905 25.2368C22.4043 25.2368 21.6098 25.2368 20.8069 25.2368C20.004 25.2368 19.0589 25.2368 17.9716 25.2368L14.6471 25.2368Z" fill="rgb(251,48,63)" fill-rule="nonzero" />
	<path id="32px Icon color (full) 16" d="M12 32.8895C12 31.9193 12 30.9784 12 30.0668C12 29.1552 12 28.1432 12 27.0308L12 20.9714C12 19.8339 12 18.801 12 17.8727C12 16.9443 12 15.9867 12 14.9998L23.617 14.9998L23.617 17.9228C22.8309 17.9228 21.982 17.9228 21.0703 17.9228C20.1671 17.9228 19.1007 17.9228 17.8712 17.9228L13.5556 17.9228L15.4374 15.5392C15.4374 16.5261 15.4374 17.4879 15.4374 18.4247C15.4374 19.353 15.4374 20.3859 15.4374 21.5234L15.4374 26.4788C15.4374 27.5912 15.4374 28.6032 15.4374 29.5148C15.4374 30.4264 15.4374 31.3715 15.4374 32.35L13.7814 29.9664L18.1347 29.9664C19.1634 29.9664 20.1378 29.9664 21.0578 29.9664C21.9778 29.9664 22.8601 29.9664 23.7049 29.9664L23.7049 32.8895L12 32.8895ZM14.6471 25.2368L14.6471 22.4643L17.9842 22.4643C19.1049 22.4643 20.0667 22.4643 20.8696 22.4643C21.6725 22.4643 22.4461 22.4643 23.1905 22.4643L23.1905 25.2368C22.4043 25.2368 21.6098 25.2368 20.8069 25.2368C20.004 25.2368 19.0589 25.2368 17.9716 25.2368L14.6471 25.2368Z" fill="rgb(255,255,255)" fill-rule="nonzero" />
</svg>
