<svg viewBox="0 0 48 48" xmlns="http://www.w3.org/2000/svg" xmlns:xlink="http://www.w3.org/1999/xlink" width="48.000000" height="48.000000" fill="none" customFrame="#000000">
	<rect id="48px Icon color (full) 14" width="48.000000" height="48.000000" x="0.000000" y="0.000000" fill="rgb(255,255,255)" fill-opacity="0" />
	<path id="32px Icon color (full) 14" d="M0 24C0 15.5992 0 11.3988 1.6349 8.19014C3.073 5.36771 5.36771 3.073 8.19014 1.6349C11.3988 0 15.5992 0 24 0C32.4008 0 36.6012 0 39.8099 1.6349C42.6323 3.073 44.927 5.36771 46.3651 8.19014C48 11.3988 48 15.5992 48 24C48 32.4008 48 36.6012 46.3651 39.8099C44.927 42.6323 42.6323 44.927 39.8099 46.3651C36.6012 48 32.4008 48 24 48C15.5992 48 11.3988 48 8.19014 46.3651C5.36771 44.927 3.073 42.6323 1.6349 39.8099C0 36.6012 0 32.4008 0 24Z" fill="rgb(255,204,0)" fill-rule="evenodd" />
	<path id="32px Icon color (full) 14" d="M34.2851 33.2041C32.7127 33.2041 31.4247 32.9198 30.4211 32.351C29.4175 31.7823 28.6773 31.0003 28.2006 30.005C27.7238 29.0098 27.4855 27.8723 27.4855 26.5927C27.4855 25.3214 27.7113 24.1965 28.1629 23.218C28.6229 22.2311 29.2962 21.4616 30.1827 20.9096C31.0693 20.3576 32.1566 20.0816 33.4445 20.0816C34.5569 20.0816 35.5062 20.2865 36.2924 20.6963C37.0869 21.0978 37.6974 21.7042 38.124 22.5154C38.5505 23.3183 38.7638 24.3303 38.7638 25.5514C38.7638 25.8776 38.7554 26.1703 38.7387 26.4296C38.7303 26.6889 38.7052 26.944 38.6634 27.1949L35.8909 26.0783C35.9076 25.9612 35.9202 25.8441 35.9285 25.7271C35.9369 25.6016 35.9411 25.4845 35.9411 25.3758C35.9411 24.4558 35.7111 23.7365 35.2511 23.218C34.7911 22.6911 34.1973 22.4276 33.4696 22.4276C32.9176 22.4276 32.4325 22.5865 32.0144 22.9043C31.5962 23.2138 31.2658 23.6487 31.0233 24.2091C30.7807 24.7694 30.6595 25.4176 30.6595 26.1536L30.6595 26.6429C30.6595 27.4541 30.8016 28.1525 31.086 28.7379C31.3704 29.315 31.8095 29.7625 32.4033 30.0803C32.9971 30.3898 33.7456 30.5445 34.6489 30.5445C35.0002 30.5445 35.3933 30.5152 35.8282 30.4567C36.2714 30.3898 36.7189 30.2894 37.1705 30.1556C37.6222 30.0218 38.0445 29.8503 38.4376 29.6412L38.538 32.3761C38.2202 32.535 37.848 32.6772 37.4214 32.8027C36.9949 32.9281 36.5182 33.0243 35.9913 33.0912C35.4644 33.1665 34.8956 33.2041 34.2851 33.2041ZM28.74 27.1949L28.74 25.2001L36.7816 25.0621L38.6634 25.7772L38.6634 27.1949L28.74 27.1949Z" fill="rgb(255,204,0)" fill-rule="nonzero" />
	<path id="32px Icon color (full) 14" d="M34.2851 33.2041C32.7127 33.2041 31.4247 32.9198 30.4211 32.351C29.4175 31.7823 28.6773 31.0003 28.2006 30.005C27.7238 29.0098 27.4855 27.8723 27.4855 26.5927C27.4855 25.3214 27.7113 24.1965 28.1629 23.218C28.6229 22.2311 29.2962 21.4616 30.1827 20.9096C31.0693 20.3576 32.1566 20.0816 33.4445 20.0816C34.5569 20.0816 35.5062 20.2865 36.2924 20.6963C37.0869 21.0978 37.6974 21.7042 38.124 22.5154C38.5505 23.3183 38.7638 24.3303 38.7638 25.5514C38.7638 25.8776 38.7554 26.1703 38.7387 26.4296C38.7303 26.6889 38.7052 26.944 38.6634 27.1949L35.8909 26.0783C35.9076 25.9612 35.9202 25.8441 35.9285 25.7271C35.9369 25.6016 35.9411 25.4845 35.9411 25.3758C35.9411 24.4558 35.7111 23.7365 35.2511 23.218C34.7911 22.6911 34.1973 22.4276 33.4696 22.4276C32.9176 22.4276 32.4325 22.5865 32.0144 22.9043C31.5962 23.2138 31.2658 23.6487 31.0233 24.2091C30.7807 24.7694 30.6595 25.4176 30.6595 26.1536L30.6595 26.6429C30.6595 27.4541 30.8016 28.1525 31.086 28.7379C31.3704 29.315 31.8095 29.7625 32.4033 30.0803C32.9971 30.3898 33.7456 30.5445 34.6489 30.5445C35.0002 30.5445 35.3933 30.5152 35.8282 30.4567C36.2714 30.3898 36.7189 30.2894 37.1705 30.1556C37.6222 30.0218 38.0445 29.8503 38.4376 29.6412L38.538 32.3761C38.2202 32.535 37.848 32.6772 37.4214 32.8027C36.9949 32.9281 36.5182 33.0243 35.9913 33.0912C35.4644 33.1665 34.8956 33.2041 34.2851 33.2041ZM28.74 27.1949L28.74 25.2001L36.7816 25.0621L38.6634 25.7772L38.6634 27.1949L28.74 27.1949Z" fill="rgb(255,255,255)" fill-rule="nonzero" />
	<path id="32px Icon color (full) 14" d="M10.0002 32.8902C10.0002 31.92 10.0002 30.9791 10.0002 30.0675C10.0002 29.1559 10.0002 28.1439 10.0002 27.0315L10.0002 20.9846C10.0002 19.8388 10.0002 18.8017 10.0002 17.8734C10.0002 16.945 10.0002 15.9874 10.0002 15.0005C10.7195 15.0005 11.4513 15.0005 12.1957 15.0005C12.9484 15.0005 13.7095 15.0005 14.4789 15.0005C15.2568 15.0005 16.0429 15.0005 16.8375 15.0005C18.2091 15.0005 19.426 15.197 20.4882 15.5901C21.5587 15.9832 22.4578 16.5645 23.1855 17.3339C23.9214 18.095 24.4776 19.0234 24.854 20.119C25.2387 21.2146 25.4311 22.4692 25.4311 23.8826C25.4311 25.1455 25.2638 26.3248 24.9293 27.4204C24.5947 28.5077 24.0595 29.4611 23.3235 30.2808C22.5875 31.1004 21.6173 31.7402 20.4129 32.2002C19.2086 32.6602 17.7407 32.8902 16.0095 32.8902C15.2317 32.8902 14.5082 32.8902 13.8391 32.8902C13.17 32.8902 12.5219 32.8902 11.8946 32.8902C11.2757 32.8902 10.6442 32.8902 10.0002 32.8902ZM13.5255 30.0549L16.0095 30.0549C17.4313 30.0549 18.5646 29.7873 19.4093 29.252C20.254 28.7084 20.8604 27.9682 21.2284 27.0315C21.5964 26.0864 21.7804 25.0201 21.7804 23.8324C21.7804 22.9292 21.6716 22.1095 21.4542 21.3735C21.2367 20.6375 20.9022 20.0061 20.4506 19.4792C20.0073 18.9439 19.4344 18.5383 18.7318 18.2623C18.0293 17.9779 17.1971 17.8357 16.2353 17.8357L13.5255 17.8357C13.5255 18.4463 13.5255 19.061 13.5255 19.6799C13.5255 20.2988 13.5255 20.9972 13.5255 21.775L13.5255 26.2161C13.5255 26.9604 13.5255 27.6379 13.5255 28.2484C13.5255 28.8589 13.5255 29.4611 13.5255 30.0549Z" fill="rgb(255,204,0)" fill-rule="nonzero" />
	<path id="32px Icon color (full) 14" d="M10.0002 32.8902C10.0002 31.92 10.0002 30.9791 10.0002 30.0675C10.0002 29.1559 10.0002 28.1439 10.0002 27.0315L10.0002 20.9846C10.0002 19.8388 10.0002 18.8017 10.0002 17.8734C10.0002 16.945 10.0002 15.9874 10.0002 15.0005C10.7195 15.0005 11.4513 15.0005 12.1957 15.0005C12.9484 15.0005 13.7095 15.0005 14.4789 15.0005C15.2568 15.0005 16.0429 15.0005 16.8375 15.0005C18.2091 15.0005 19.426 15.197 20.4882 15.5901C21.5587 15.9832 22.4578 16.5645 23.1855 17.3339C23.9214 18.095 24.4776 19.0234 24.854 20.119C25.2387 21.2146 25.4311 22.4692 25.4311 23.8826C25.4311 25.1455 25.2638 26.3248 24.9293 27.4204C24.5947 28.5077 24.0595 29.4611 23.3235 30.2808C22.5875 31.1004 21.6173 31.7402 20.4129 32.2002C19.2086 32.6602 17.7407 32.8902 16.0095 32.8902C15.2317 32.8902 14.5082 32.8902 13.8391 32.8902C13.17 32.8902 12.5219 32.8902 11.8946 32.8902C11.2757 32.8902 10.6442 32.8902 10.0002 32.8902ZM13.5255 30.0549L16.0095 30.0549C17.4313 30.0549 18.5646 29.7873 19.4093 29.252C20.254 28.7084 20.8604 27.9682 21.2284 27.0315C21.5964 26.0864 21.7804 25.0201 21.7804 23.8324C21.7804 22.9292 21.6716 22.1095 21.4542 21.3735C21.2367 20.6375 20.9022 20.0061 20.4506 19.4792C20.0073 18.9439 19.4344 18.5383 18.7318 18.2623C18.0293 17.9779 17.1971 17.8357 16.2353 17.8357L13.5255 17.8357C13.5255 18.4463 13.5255 19.061 13.5255 19.6799C13.5255 20.2988 13.5255 20.9972 13.5255 21.775L13.5255 26.2161C13.5255 26.9604 13.5255 27.6379 13.5255 28.2484C13.5255 28.8589 13.5255 29.4611 13.5255 30.0549Z" fill="rgb(255,255,255)" fill-rule="nonzero" />
</svg>
