<svg viewBox="0 0 48 48" xmlns="http://www.w3.org/2000/svg" xmlns:xlink="http://www.w3.org/1999/xlink" width="48.000000" height="48.000000" fill="none" customFrame="#000000">
	<rect id="48px Icon color (full) 02" width="48.000000" height="48.000000" x="0.000000" y="0.000000" fill="rgb(255,255,255)" fill-opacity="0" />
	<path id="32px Icon color (full) 02" d="M0 24C0 15.5992 0 11.3988 1.6349 8.19014C3.073 5.36771 5.36771 3.073 8.19014 1.6349C11.3988 0 15.5992 0 24 0C32.4008 0 36.6012 0 39.8099 1.6349C42.6323 3.073 44.927 5.36771 46.3651 8.19014C48 11.3988 48 15.5992 48 24C48 32.4008 48 36.6012 46.3651 39.8099C44.927 42.6323 42.6323 44.927 39.8099 46.3651C36.6012 48 32.4008 48 24 48C15.5992 48 11.3988 48 8.19014 46.3651C5.36771 44.927 3.073 42.6323 1.6349 39.8099C0 36.6012 0 32.4008 0 24Z" fill="rgb(171,23,43)" fill-rule="evenodd" />
	<path id="32px Icon color (full) 02" d="M34.0324 15.0957C32.8302 14.9681 31.6189 14.9681 30.4167 15.0957C30.2772 15.1109 30.1427 15.1569 30.0232 15.2304C29.9036 15.3038 29.8019 15.403 29.7254 15.5205L27.5284 18.9282L26.4103 16.9016C26.2948 16.6917 26.1033 16.5338 25.875 16.4604C25.6467 16.387 25.3989 16.4036 25.1825 16.5068C21.7276 18.1581 18.7281 20.2898 17.2554 22.7517C16.504 24.0067 16.1283 25.3833 16.3417 26.8229C16.4821 27.6981 16.8058 28.5339 17.2915 29.2758C16.479 29.7272 15.6411 30.1312 14.7818 30.4857C14.4698 30.624 14.2238 30.8781 14.0958 31.1942C13.9679 31.5104 13.9681 31.8638 14.0963 32.1799C14.2245 32.4959 14.4708 32.7497 14.7829 32.8877C15.0951 33.0257 15.4488 33.0369 15.7691 32.9191C16.8211 32.4928 17.9512 31.9314 19.0632 31.2949C22.0072 33.7388 26.3442 32.9747 29.6052 30.3341C33.0811 27.5194 35.6253 22.4424 34.8649 15.9198C34.8405 15.708 34.7446 15.5109 34.593 15.3608C34.4414 15.2107 34.2431 15.1167 34.0309 15.0942M20.8019 30.229C22.8247 31.4345 25.7821 31.0127 28.421 28.875C31.2537 26.5827 33.4854 22.4229 33.0721 16.9001C32.3999 16.8631 31.7276 16.8701 31.0554 16.9211L28.2572 21.2655C28.1692 21.4021 28.0471 21.5135 27.903 21.5888C27.7589 21.6642 27.5977 21.7008 27.4352 21.6952C27.2726 21.6896 27.1143 21.642 26.9758 21.5569C26.8372 21.4718 26.7232 21.3523 26.6447 21.21L25.2021 18.5934C22.2341 20.1126 19.9574 21.8915 18.8664 23.7154C18.2853 24.6812 18.0629 25.6254 18.1991 26.5482C18.2818 27.1066 18.5027 27.6996 18.9084 28.321C19.3182 28.0638 19.7174 27.7996 20.1061 27.5284C21.8509 26.314 23.1838 25.11 23.7504 24.2529C23.9462 23.9709 24.2447 23.7767 24.582 23.7117C24.9193 23.6468 25.2687 23.7163 25.5554 23.9054C25.842 24.0945 26.0432 24.3881 26.116 24.7235C26.1887 25.0589 26.1271 25.4094 25.9444 25.7C25.0909 26.9925 23.4093 28.4321 21.6104 29.6841C21.3459 29.8683 21.0764 30.0499 20.8019 30.229Z" fill="rgb(171,23,43)" fill-rule="evenodd" />
	<path id="32px Icon color (full) 02" d="M34.0324 15.0957C32.8302 14.9681 31.6189 14.9681 30.4167 15.0957C30.2772 15.1109 30.1427 15.1569 30.0232 15.2304C29.9036 15.3038 29.8019 15.403 29.7254 15.5205L27.5284 18.9282L26.4103 16.9016C26.2948 16.6917 26.1033 16.5338 25.875 16.4604C25.6467 16.387 25.3989 16.4036 25.1825 16.5068C21.7276 18.1581 18.7281 20.2898 17.2554 22.7517C16.504 24.0067 16.1283 25.3833 16.3417 26.8229C16.4821 27.6981 16.8058 28.5339 17.2915 29.2758C16.479 29.7272 15.6411 30.1312 14.7818 30.4857C14.4698 30.624 14.2238 30.8781 14.0958 31.1942C13.9679 31.5104 13.9681 31.8638 14.0963 32.1799C14.2245 32.4959 14.4708 32.7497 14.7829 32.8877C15.0951 33.0257 15.4488 33.0369 15.7691 32.9191C16.8211 32.4928 17.9512 31.9314 19.0632 31.2949C22.0072 33.7388 26.3442 32.9747 29.6052 30.3341C33.0811 27.5194 35.6253 22.4424 34.8649 15.9198C34.8405 15.708 34.7446 15.5109 34.593 15.3608C34.4414 15.2107 34.2431 15.1167 34.0309 15.0942M20.8019 30.229C22.8247 31.4345 25.7821 31.0127 28.421 28.875C31.2537 26.5827 33.4854 22.4229 33.0721 16.9001C32.3999 16.8631 31.7276 16.8701 31.0554 16.9211L28.2572 21.2655C28.1692 21.4021 28.0471 21.5135 27.903 21.5888C27.7589 21.6642 27.5977 21.7008 27.4352 21.6952C27.2726 21.6896 27.1143 21.642 26.9758 21.5569C26.8372 21.4718 26.7232 21.3523 26.6447 21.21L25.2021 18.5934C22.2341 20.1126 19.9574 21.8915 18.8664 23.7154C18.2853 24.6812 18.0629 25.6254 18.1991 26.5482C18.2818 27.1066 18.5027 27.6996 18.9084 28.321C19.3182 28.0638 19.7174 27.7996 20.1061 27.5284C21.8509 26.314 23.1838 25.11 23.7504 24.2529C23.9462 23.9709 24.2447 23.7767 24.582 23.7117C24.9193 23.6468 25.2687 23.7163 25.5554 23.9054C25.842 24.0945 26.0432 24.3881 26.116 24.7235C26.1887 25.0589 26.1271 25.4094 25.9444 25.7C25.0909 26.9925 23.4093 28.4321 21.6104 29.6841C21.3459 29.8683 21.0764 30.0499 20.8019 30.229Z" fill="rgb(255,255,255)" fill-rule="evenodd" />
</svg>
