<svg viewBox="0 0 48 48" xmlns="http://www.w3.org/2000/svg" xmlns:xlink="http://www.w3.org/1999/xlink" width="48.000000" height="48.000000" fill="none" customFrame="#000000">
	<rect id="48px Icon color (contur) 17" width="48.000000" height="48.000000" x="0.000000" y="0.000000" fill="rgb(255,255,255)" fill-opacity="0" />
	<path id="48px Icon color (contur) 17" d="M0 24C0 15.5992 0 11.3988 1.6349 8.19014C3.073 5.36771 5.36771 3.073 8.19014 1.6349C11.3988 0 15.5992 0 24 0C32.4008 0 36.6012 0 39.8099 1.6349C42.6323 3.073 44.927 5.36771 46.3651 8.19014C48 11.3988 48 15.5992 48 24C48 32.4008 48 36.6012 46.3651 39.8099C44.927 42.6323 42.6323 44.927 39.8099 46.3651C36.6012 48 32.4008 48 24 48C15.5992 48 11.3988 48 8.19014 46.3651C5.36771 44.927 3.073 42.6323 1.6349 39.8099C0 36.6012 0 32.4008 0 24Z" fill="rgb(255,255,255)" fill-rule="evenodd" />
	<path id="48px Icon color (contur) 17" d="M25.7462 31.8906C25.7462 30.9873 25.7462 30.1133 25.7462 29.2686C25.7462 28.4239 25.7462 27.483 25.7462 26.4459L25.7462 25.1914C25.7462 24.2463 25.7462 23.2886 25.7462 22.3185C25.7462 21.3483 25.7462 20.3739 25.7462 19.3954L28.456 19.2323L28.5814 21.4528L28.87 21.4528C29.146 21.0514 29.4847 20.6708 29.8862 20.3112C30.296 19.9432 30.7685 19.6463 31.3038 19.4205C31.8474 19.1863 32.4663 19.0692 33.1605 19.0692C34.4401 19.0692 35.3936 19.4456 36.0209 20.1983C36.6565 20.9427 36.9743 22.0466 36.9743 23.5103C36.9743 24.0539 36.9743 24.5557 36.9743 25.0157C36.9743 25.4674 36.9743 25.9441 36.9743 26.4459C36.9743 27.4579 36.9743 28.3946 36.9743 29.2561C36.9743 30.1092 36.9743 30.9873 36.9743 31.8906L33.7878 31.8906C33.7878 30.9873 33.7878 30.1133 33.7878 29.2686C33.7878 28.4239 33.7878 27.5374 33.7878 26.609L33.7878 24.4888C33.7878 23.6692 33.6456 23.0503 33.3612 22.6321C33.0852 22.2139 32.5834 22.0048 31.8558 22.0048C31.4292 22.0048 31.0362 22.0926 30.6765 22.2683C30.3253 22.4356 30.0033 22.6656 29.7105 22.9583C29.4262 23.2426 29.1669 23.5646 28.9327 23.9243L28.9327 26.609C28.9327 27.5624 28.9327 28.4573 28.9327 29.2937C28.9327 30.1217 28.9327 30.9873 28.9327 31.8906L25.7462 31.8906Z" fill="rgb(255,255,255)" fill-rule="nonzero" />
	<path id="48px Icon color (contur) 17" d="M25.7462 31.8906C25.7462 30.9873 25.7462 30.1133 25.7462 29.2686C25.7462 28.4239 25.7462 27.483 25.7462 26.4459L25.7462 25.1914C25.7462 24.2463 25.7462 23.2886 25.7462 22.3185C25.7462 21.3483 25.7462 20.3739 25.7462 19.3954L28.456 19.2323L28.5814 21.4528L28.87 21.4528C29.146 21.0514 29.4847 20.6708 29.8862 20.3112C30.296 19.9432 30.7685 19.6463 31.3038 19.4205C31.8474 19.1863 32.4663 19.0692 33.1605 19.0692C34.4401 19.0692 35.3936 19.4456 36.0209 20.1983C36.6565 20.9427 36.9743 22.0466 36.9743 23.5103C36.9743 24.0539 36.9743 24.5557 36.9743 25.0157C36.9743 25.4674 36.9743 25.9441 36.9743 26.4459C36.9743 27.4579 36.9743 28.3946 36.9743 29.2561C36.9743 30.1092 36.9743 30.9873 36.9743 31.8906L33.7878 31.8906C33.7878 30.9873 33.7878 30.1133 33.7878 29.2686C33.7878 28.4239 33.7878 27.5374 33.7878 26.609L33.7878 24.4888C33.7878 23.6692 33.6456 23.0503 33.3612 22.6321C33.0852 22.2139 32.5834 22.0048 31.8558 22.0048C31.4292 22.0048 31.0362 22.0926 30.6765 22.2683C30.3253 22.4356 30.0033 22.6656 29.7105 22.9583C29.4262 23.2426 29.1669 23.5646 28.9327 23.9243L28.9327 26.609C28.9327 27.5624 28.9327 28.4573 28.9327 29.2937C28.9327 30.1217 28.9327 30.9873 28.9327 31.8906L25.7462 31.8906Z" fill="rgb(207,20,43)" fill-rule="nonzero" />
	<path id="48px Icon color (contur) 17" d="M11.0002 31.8897C11.0002 30.9196 11.0002 29.9787 11.0002 29.067C11.0002 28.1554 11.0002 27.1434 11.0002 26.031L11.0002 19.9716C11.0002 18.8342 11.0002 17.8013 11.0002 16.8729C11.0002 15.9445 11.0002 14.9869 11.0002 14L22.6173 14L22.6173 16.9231C21.8311 16.9231 20.9822 16.9231 20.0706 16.9231C19.1673 16.9231 18.1009 16.9231 16.8715 16.9231L12.5559 16.9231L14.4377 14.5395C14.4377 15.5264 14.4377 16.4882 14.4377 17.4249C14.4377 18.3533 14.4377 19.3862 14.4377 20.5236L14.4377 25.479C14.4377 26.5914 14.4377 27.6034 14.4377 28.515C14.4377 29.4267 14.4377 30.3717 14.4377 31.3503L12.7817 28.9667L17.1349 28.9667C18.1637 28.9667 19.138 28.9667 20.058 28.9667C20.978 28.9667 21.8604 28.9667 22.7051 28.9667L22.7051 31.8897L11.0002 31.8897ZM13.6473 24.237L13.6473 21.4645L16.9844 21.4645C18.1051 21.4645 19.0669 21.4645 19.8698 21.4645C20.6727 21.4645 21.4464 21.4645 22.1907 21.4645L22.1907 24.237C21.4046 24.237 20.61 24.237 19.8071 24.237C19.0042 24.237 18.0591 24.237 16.9718 24.237L13.6473 24.237Z" fill="rgb(255,255,255)" fill-rule="nonzero" />
	<path id="48px Icon color (contur) 17" d="M11.0002 31.8897C11.0002 30.9196 11.0002 29.9787 11.0002 29.067C11.0002 28.1554 11.0002 27.1434 11.0002 26.031L11.0002 19.9716C11.0002 18.8342 11.0002 17.8013 11.0002 16.8729C11.0002 15.9445 11.0002 14.9869 11.0002 14L22.6173 14L22.6173 16.9231C21.8311 16.9231 20.9822 16.9231 20.0706 16.9231C19.1673 16.9231 18.1009 16.9231 16.8715 16.9231L12.5559 16.9231L14.4377 14.5395C14.4377 15.5264 14.4377 16.4882 14.4377 17.4249C14.4377 18.3533 14.4377 19.3862 14.4377 20.5236L14.4377 25.479C14.4377 26.5914 14.4377 27.6034 14.4377 28.515C14.4377 29.4267 14.4377 30.3717 14.4377 31.3503L12.7817 28.9667L17.1349 28.9667C18.1637 28.9667 19.138 28.9667 20.058 28.9667C20.978 28.9667 21.8604 28.9667 22.7051 28.9667L22.7051 31.8897L11.0002 31.8897ZM13.6473 24.237L13.6473 21.4645L16.9844 21.4645C18.1051 21.4645 19.0669 21.4645 19.8698 21.4645C20.6727 21.4645 21.4464 21.4645 22.1907 21.4645L22.1907 24.237C21.4046 24.237 20.61 24.237 19.8071 24.237C19.0042 24.237 18.0591 24.237 16.9718 24.237L13.6473 24.237Z" fill="rgb(207,20,43)" fill-rule="nonzero" />
</svg>
