<svg viewBox="0 0 48 48" xmlns="http://www.w3.org/2000/svg" xmlns:xlink="http://www.w3.org/1999/xlink" width="48.000000" height="48.000000" fill="none" customFrame="#000000">
	<rect id="48px Icon color (contur) 10" width="48.000000" height="48.000000" x="0.000000" y="0.000000" fill="rgb(255,255,255)" fill-opacity="0" />
	<path id="48px Icon color (contur) 10" d="M0 24C0 15.5992 0 11.3988 1.6349 8.19014C3.073 5.36771 5.36771 3.073 8.19014 1.6349C11.3988 0 15.5992 0 24 0C32.4008 0 36.6012 0 39.8099 1.6349C42.6323 3.073 44.927 5.36771 46.3651 8.19014C48 11.3988 48 15.5992 48 24C48 32.4008 48 36.6012 46.3651 39.8099C44.927 42.6323 42.6323 44.927 39.8099 46.3651C36.6012 48 32.4008 48 24 48C15.5992 48 11.3988 48 8.19014 46.3651C5.36771 44.927 3.073 42.6323 1.6349 39.8099C0 36.6012 0 32.4008 0 24Z" fill="rgb(255,255,255)" fill-rule="evenodd" />
	<path id="48px Icon color (contur) 10" d="M16.2857 35C15.9214 35 15.6163 34.8768 15.3703 34.6304C15.1243 34.3841 15.0009 34.0795 15 33.7169C14.9991 33.3542 15.1226 33.0496 15.3703 32.8033C15.618 32.5569 15.9231 32.4337 16.2857 32.4337L21.4286 32.4337L21.4286 29.8675C19.65 29.8675 18.1341 29.2417 16.881 27.9902C15.6279 26.7388 15.0009 25.226 15 23.4518C15 22.2328 15.3107 21.1101 15.9321 20.0836C16.5536 19.0571 17.4107 18.2765 18.5036 17.7419C18.4179 18.2124 18.4341 18.6722 18.5524 19.1213C18.6707 19.5703 18.858 19.9981 19.1143 20.4044C18.6214 20.7466 18.2409 21.185 17.9726 21.7196C17.7043 22.2542 17.5706 22.8316 17.5714 23.4518C17.5714 24.5211 17.9464 25.43 18.6964 26.1785C19.4464 26.927 20.3571 27.3012 21.4286 27.3012L30.4286 27.3012C30.7929 27.3012 31.0984 27.4244 31.3453 27.6707C31.5921 27.9171 31.7151 28.2216 31.7143 28.5843C31.7134 28.947 31.59 29.252 31.344 29.4992C31.098 29.7464 30.7929 29.8692 30.4286 29.8675L25.2857 29.8675L25.2857 32.4337L31.7143 32.4337C32.0786 32.4337 32.3841 32.5569 32.631 32.8033C32.8779 33.0496 33.0009 33.3542 33 33.7169C32.9991 34.0795 32.8757 34.3845 32.6297 34.6317C32.3837 34.8789 32.0786 35.0017 31.7143 35L16.2857 35ZM26.1857 22.3612L26.1536 22.3612C25.8107 22.4895 25.4837 22.4839 25.1726 22.3445C24.8614 22.205 24.642 21.9647 24.5143 21.6234L24.3214 21.1101C24.75 20.7679 25.0821 20.3565 25.3179 19.8757C25.5536 19.395 25.6714 18.8762 25.6714 18.3193C25.6714 17.3142 25.3179 16.4643 24.6107 15.7697C23.9036 15.0751 23.0357 14.7274 22.0071 14.7265L21.8464 14.3095C21.7393 13.9673 21.7556 13.641 21.8953 13.3305C22.035 13.02 22.2759 12.801 22.6179 12.6735L22.65 12.6735C22.5214 12.3527 22.5321 12.0375 22.6821 11.7279C22.8321 11.4182 23.0893 11.1988 23.4536 11.0696C23.775 10.9627 24.0913 10.9789 24.4024 11.1184C24.7136 11.2578 24.9223 11.4982 25.0286 11.8395C25.3714 11.7112 25.7036 11.7219 26.025 11.8716C26.3464 12.0213 26.5714 12.2672 26.7 12.6094L29.3357 19.827C29.4643 20.1691 29.4591 20.4955 29.3203 20.806C29.1814 21.1165 28.9401 21.3355 28.5964 21.463L28.5643 21.463C28.6929 21.8051 28.6821 22.1366 28.5321 22.4574C28.3821 22.7782 28.125 23.0027 27.7607 23.131C27.4393 23.238 27.1234 23.2221 26.8131 23.0836C26.5029 22.945 26.2937 22.7042 26.1857 22.3612ZM22.0714 20.6289C21.4286 20.6289 20.8821 20.4044 20.4321 19.9553C19.9821 19.5062 19.7571 18.9609 19.7571 18.3193C19.7571 17.6777 19.9821 17.1324 20.4321 16.6833C20.8821 16.2342 21.4286 16.0097 22.0714 16.0097C22.7143 16.0097 23.2607 16.2342 23.7107 16.6833C24.1607 17.1324 24.3857 17.6777 24.3857 18.3193C24.3857 18.9609 24.1607 19.5062 23.7107 19.9553C23.2607 20.4044 22.7143 20.6289 22.0714 20.6289Z" fill="rgb(255,255,255)" fill-rule="nonzero" />
	<path id="48px Icon color (contur) 10" d="M16.2857 35C15.9214 35 15.6163 34.8768 15.3703 34.6304C15.1243 34.3841 15.0009 34.0795 15 33.7169C14.9991 33.3542 15.1226 33.0496 15.3703 32.8033C15.618 32.5569 15.9231 32.4337 16.2857 32.4337L21.4286 32.4337L21.4286 29.8675C19.65 29.8675 18.1341 29.2417 16.881 27.9902C15.6279 26.7388 15.0009 25.226 15 23.4518C15 22.2328 15.3107 21.1101 15.9321 20.0836C16.5536 19.0571 17.4107 18.2765 18.5036 17.7419C18.4179 18.2124 18.4341 18.6722 18.5524 19.1213C18.6707 19.5703 18.858 19.9981 19.1143 20.4044C18.6214 20.7466 18.2409 21.185 17.9726 21.7196C17.7043 22.2542 17.5706 22.8316 17.5714 23.4518C17.5714 24.5211 17.9464 25.43 18.6964 26.1785C19.4464 26.927 20.3571 27.3012 21.4286 27.3012L30.4286 27.3012C30.7929 27.3012 31.0984 27.4244 31.3453 27.6707C31.5921 27.9171 31.7151 28.2216 31.7143 28.5843C31.7134 28.947 31.59 29.252 31.344 29.4992C31.098 29.7464 30.7929 29.8692 30.4286 29.8675L25.2857 29.8675L25.2857 32.4337L31.7143 32.4337C32.0786 32.4337 32.3841 32.5569 32.631 32.8033C32.8779 33.0496 33.0009 33.3542 33 33.7169C32.9991 34.0795 32.8757 34.3845 32.6297 34.6317C32.3837 34.8789 32.0786 35.0017 31.7143 35L16.2857 35ZM26.1857 22.3612L26.1536 22.3612C25.8107 22.4895 25.4837 22.4839 25.1726 22.3445C24.8614 22.205 24.642 21.9647 24.5143 21.6234L24.3214 21.1101C24.75 20.7679 25.0821 20.3565 25.3179 19.8757C25.5536 19.395 25.6714 18.8762 25.6714 18.3193C25.6714 17.3142 25.3179 16.4643 24.6107 15.7697C23.9036 15.0751 23.0357 14.7274 22.0071 14.7265L21.8464 14.3095C21.7393 13.9673 21.7556 13.641 21.8953 13.3305C22.035 13.02 22.2759 12.801 22.6179 12.6735L22.65 12.6735C22.5214 12.3527 22.5321 12.0375 22.6821 11.7279C22.8321 11.4182 23.0893 11.1988 23.4536 11.0696C23.775 10.9627 24.0913 10.9789 24.4024 11.1184C24.7136 11.2578 24.9223 11.4982 25.0286 11.8395C25.3714 11.7112 25.7036 11.7219 26.025 11.8716C26.3464 12.0213 26.5714 12.2672 26.7 12.6094L29.3357 19.827C29.4643 20.1691 29.4591 20.4955 29.3203 20.806C29.1814 21.1165 28.9401 21.3355 28.5964 21.463L28.5643 21.463C28.6929 21.8051 28.6821 22.1366 28.5321 22.4574C28.3821 22.7782 28.125 23.0027 27.7607 23.131C27.4393 23.238 27.1234 23.2221 26.8131 23.0836C26.5029 22.945 26.2937 22.7042 26.1857 22.3612ZM22.0714 20.6289C21.4286 20.6289 20.8821 20.4044 20.4321 19.9553C19.9821 19.5062 19.7571 18.9609 19.7571 18.3193C19.7571 17.6777 19.9821 17.1324 20.4321 16.6833C20.8821 16.2342 21.4286 16.0097 22.0714 16.0097C22.7143 16.0097 23.2607 16.2342 23.7107 16.6833C24.1607 17.1324 24.3857 17.6777 24.3857 18.3193C24.3857 18.9609 24.1607 19.5062 23.7107 19.9553C23.2607 20.4044 22.7143 20.6289 22.0714 20.6289Z" fill="rgb(139,195,74)" fill-rule="nonzero" />
</svg>
