<svg viewBox="0 0 30 40" xmlns="http://www.w3.org/2000/svg" xmlns:xlink="http://www.w3.org/1999/xlink" width="30.000000" height="40.000000" fill="none" customFrame="#000000">
	<rect id="Icon contur wh 10" width="30.000000" height="40.000000" x="0.000000" y="0.000000" fill="rgb(255,255,255)" fill-opacity="0" />
	<path id="Icon contur wh 10" d="M2.14286 40C1.53572 40 1.02715 39.7947 0.61715 39.3841C0.20715 38.9735 0.00143596 38.4659 7.38915e-06 37.8614C-0.00142118 37.2569 0.204293 36.7494 0.61715 36.3388C1.03001 35.9282 1.53858 35.7229 2.14286 35.7229L10.7143 35.7229L10.7143 31.4458C7.75 31.4458 5.22358 30.4029 3.13501 28.3171C1.04644 26.2313 0.00143596 23.7099 7.38915e-06 20.753C7.38915e-06 18.7214 0.517864 16.8502 1.55358 15.1393C2.58929 13.4285 4.01786 12.1275 5.83929 11.2365C5.69643 12.0206 5.72358 12.7869 5.92072 13.5354C6.11786 14.2839 6.43 14.9968 6.85715 15.674C6.03572 16.2442 5.40143 16.9749 4.95429 17.866C4.50715 18.757 4.28429 19.7194 4.28572 20.753C4.28572 22.5351 4.91072 24.05 6.16072 25.2974C7.41072 26.5449 8.92857 27.1687 10.7143 27.1687L25.7143 27.1687C26.3214 27.1687 26.8307 27.374 27.2421 27.7846C27.6536 28.1952 27.8586 28.7027 27.8571 29.3072C27.8557 29.9117 27.65 30.42 27.24 30.832C26.83 31.244 26.3214 31.4486 25.7143 31.4458L17.1429 31.4458L17.1429 35.7229L27.8571 35.7229C28.4643 35.7229 28.9736 35.9282 29.385 36.3388C29.7964 36.7494 30.0014 37.2569 30 37.8614C29.9986 38.4659 29.7928 38.9742 29.3828 39.3862C28.9728 39.7982 28.4643 40.0028 27.8571 40L2.14286 40ZM18.6429 18.9353L18.5893 18.9353C18.0179 19.1491 17.4729 19.1398 16.9543 18.9075C16.4357 18.6751 16.07 18.2744 15.8571 17.7056L15.5357 16.8502C16.25 16.2799 16.8036 15.5941 17.1964 14.7929C17.5893 13.9916 17.7857 13.127 17.7857 12.1988C17.7857 10.5236 17.1964 9.1072 16.0179 7.94953C14.8393 6.79186 13.3929 6.21231 11.6786 6.21089L11.4107 5.51586C11.2321 4.94558 11.2593 4.40168 11.4921 3.88415C11.725 3.36662 12.1264 3.00164 12.6964 2.78921L12.75 2.78921C12.5357 2.25457 12.5536 1.7292 12.8036 1.2131C13.0536 0.696996 13.4821 0.331304 14.0893 0.116024C14.625 -0.0621888 15.1521 -0.0351003 15.6707 0.197289C16.1893 0.429678 16.5371 0.830299 16.7143 1.39915C17.2857 1.1853 17.8393 1.20312 18.375 1.45262C18.9107 1.70211 19.2857 2.112 19.5 2.68228L23.8929 14.7116C24.1071 15.2819 24.0986 15.8258 23.8671 16.3433C23.6357 16.8609 23.2336 17.2258 22.6607 17.4383L22.6071 17.4383C22.8214 18.0086 22.8036 18.561 22.5536 19.0956C22.3036 19.6303 21.875 20.0045 21.2679 20.2184C20.7321 20.3966 20.2057 20.3702 19.6886 20.1393C19.1714 19.9083 18.8229 19.507 18.6429 18.9353ZM11.7857 16.0482C10.7143 16.0482 9.80357 15.674 9.05357 14.9255C8.30357 14.177 7.92857 13.2681 7.92857 12.1988C7.92857 11.1296 8.30357 10.2207 9.05357 9.47218C9.80357 8.72369 10.7143 8.34944 11.7857 8.34944C12.8571 8.34944 13.7679 8.72369 14.5179 9.47218C15.2679 10.2207 15.6429 11.1296 15.6429 12.1988C15.6429 13.2681 15.2679 14.177 14.5179 14.9255C13.7679 15.674 12.8571 16.0482 11.7857 16.0482Z" fill="rgb(255,255,255)" fill-rule="nonzero" />
</svg>
