<svg viewBox="0 0 40 38" xmlns="http://www.w3.org/2000/svg" xmlns:xlink="http://www.w3.org/1999/xlink" width="40.000000" height="38.000000" fill="none" customFrame="#000000">
	<rect id="Icon contur wh 11" width="40.000000" height="38.000000" x="0.000000" y="0.000000" fill="rgb(255,255,255)" fill-opacity="0" />
	<path id="Icon contur wh 11" d="M28.1866 12.2002C28.1866 7.51829 24.5442 4 20 4C15.4558 4 11.8134 7.51829 11.8134 12.2002C11.8135 15.7341 13.9811 19.5242 16.4678 22.6377C17.6759 24.1503 18.889 25.4165 19.8011 26.3047C19.8687 26.3705 19.936 26.4327 20 26.4941C20.064 26.4327 20.1313 26.3705 20.1989 26.3047C21.111 25.4165 22.3241 24.1503 23.5322 22.6377C26.0189 19.5242 28.1865 15.7341 28.1866 12.2002ZM6.05635 34L33.9436 34L30.5635 26.0996L25.8555 26.0996C24.7958 27.3466 23.7824 28.3947 22.9833 29.1729C22.4837 29.6594 22.0646 30.0439 21.7676 30.3096C21.619 30.4424 21.5007 30.5465 21.4176 30.6182C21.376 30.654 21.3425 30.6823 21.3191 30.7021C21.3076 30.7119 21.2986 30.7199 21.2918 30.7256C21.2884 30.7285 21.2852 30.7306 21.283 30.7324L21.2801 30.7344L21.2791 30.7354L20 29.2002L18.7209 30.7354L18.7199 30.7344L18.717 30.7324C18.7148 30.7306 18.7116 30.7285 18.7082 30.7256C18.7014 30.7199 18.6924 30.7119 18.6809 30.7021C18.6575 30.6823 18.624 30.654 18.5824 30.6182C18.4993 30.5465 18.381 30.4424 18.2324 30.3096C17.9354 30.0439 17.5163 29.6594 17.0167 29.1729C16.2176 28.3947 15.2042 27.3466 14.1445 26.0996L9.43648 26.0996L6.05635 34ZM21.2782 30.7363L20 31.8037L18.7218 30.7363L20 29.2002L21.2782 30.7363ZM32.18 12.2002C32.1799 15.7833 30.6545 19.2312 28.8281 22.0996L33.1968 22.0996L40 38L0 38L6.80316 22.0996L11.1719 22.0996C9.34551 19.2312 7.82008 15.7833 7.82002 12.2002C7.82002 5.2643 13.2953 0 20 0C26.7047 0 32.18 5.2643 32.18 12.2002Z" fill="rgb(255,255,255)" fill-rule="nonzero" />
</svg>
