<svg viewBox="0 0 48 48" xmlns="http://www.w3.org/2000/svg" xmlns:xlink="http://www.w3.org/1999/xlink" width="48.000000" height="48.000000" fill="none" customFrame="#000000">
	<rect id="48px Icon color (contur) 11" width="48.000000" height="48.000000" x="0.000000" y="0.000000" fill="rgb(255,255,255)" fill-opacity="0" />
	<path id="48px Icon color (contur) 11" d="M0 24C0 15.5992 0 11.3988 1.6349 8.19014C3.073 5.36771 5.36771 3.073 8.19014 1.6349C11.3988 0 15.5992 0 24 0C32.4008 0 36.6012 0 39.8099 1.6349C42.6323 3.073 44.927 5.36771 46.3651 8.19014C48 11.3988 48 15.5992 48 24C48 32.4008 48 36.6012 46.3651 39.8099C44.927 42.6323 42.6323 44.927 39.8099 46.3651C36.6012 48 32.4008 48 24 48C15.5992 48 11.3988 48 8.19014 46.3651C5.36771 44.927 3.073 42.6323 1.6349 39.8099C0 36.6012 0 32.4008 0 24Z" fill="rgb(255,255,255)" fill-rule="evenodd" />
	<path id="48px Icon color (contur) 11" d="M28.912 19.3843C28.912 16.5505 26.7265 14.4211 24 14.4211C21.2735 14.4211 19.088 16.5505 19.088 19.3843C19.0881 21.5233 20.3887 23.8173 21.8807 25.7018C22.6055 26.6173 23.3334 27.3837 23.8807 27.9213C23.9212 27.9611 23.9616 27.9987 24 28.0359C24.0384 27.9987 24.0788 27.9611 24.1193 27.9213C24.6666 27.3837 25.3945 26.6173 26.1193 25.7018C27.6113 23.8173 28.9119 21.5233 28.912 19.3843ZM15.6338 32.5789L32.3662 32.5789L30.3381 27.7971L27.5133 27.7971C26.8775 28.5519 26.2694 29.1862 25.79 29.6573C25.4902 29.9518 25.2388 30.1845 25.0605 30.3453C24.9714 30.4257 24.9004 30.4886 24.8505 30.532C24.8256 30.5538 24.8055 30.5709 24.7915 30.5829C24.7846 30.5888 24.7792 30.5936 24.7751 30.5971C24.773 30.5988 24.7711 30.6001 24.7698 30.6012C24.7692 30.6017 24.7685 30.602 24.7681 30.6024L24 29.6738L23.2325 30.603C23.2321 30.6026 23.2308 30.6017 23.2302 30.6012C23.2289 30.6001 23.227 30.5988 23.2249 30.5971C23.2208 30.5936 23.2154 30.5888 23.2085 30.5829C23.1945 30.5709 23.1744 30.5538 23.1495 30.532C23.0996 30.4886 23.0286 30.4257 22.9395 30.3453C22.7612 30.1845 22.5098 29.9518 22.21 29.6573C21.7306 29.1862 21.1225 28.5519 20.4867 27.7971L17.6619 27.7971L15.6338 32.5789ZM24.7669 30.6036L24 31.2496L23.2325 30.603L24 29.6738L24.7669 30.6036ZM31.308 19.3843C31.308 21.5531 30.3927 23.6399 29.2969 25.3761L31.9181 25.3761L36 35L12 35L16.0819 25.3761L18.7031 25.3761C17.6073 23.6399 16.692 21.5531 16.692 19.3843C16.692 15.1863 19.9772 12 24 12C28.0228 12 31.308 15.1863 31.308 19.3843Z" fill="rgb(255,255,255)" fill-rule="nonzero" />
	<path id="48px Icon color (contur) 11" d="M28.912 19.3843C28.912 16.5505 26.7265 14.4211 24 14.4211C21.2735 14.4211 19.088 16.5505 19.088 19.3843C19.0881 21.5233 20.3887 23.8173 21.8807 25.7018C22.6055 26.6173 23.3334 27.3837 23.8807 27.9213C23.9212 27.9611 23.9616 27.9987 24 28.0359C24.0384 27.9987 24.0788 27.9611 24.1193 27.9213C24.6666 27.3837 25.3945 26.6173 26.1193 25.7018C27.6113 23.8173 28.9119 21.5233 28.912 19.3843ZM15.6338 32.5789L32.3662 32.5789L30.3381 27.7971L27.5133 27.7971C26.8775 28.5519 26.2694 29.1862 25.79 29.6573C25.4902 29.9518 25.2388 30.1845 25.0605 30.3453C24.9714 30.4257 24.9004 30.4886 24.8505 30.532C24.8256 30.5538 24.8055 30.5709 24.7915 30.5829C24.7846 30.5888 24.7792 30.5936 24.7751 30.5971C24.773 30.5988 24.7711 30.6001 24.7698 30.6012C24.7692 30.6017 24.7685 30.602 24.7681 30.6024L24 29.6738L23.2325 30.603C23.2321 30.6026 23.2308 30.6017 23.2302 30.6012C23.2289 30.6001 23.227 30.5988 23.2249 30.5971C23.2208 30.5936 23.2154 30.5888 23.2085 30.5829C23.1945 30.5709 23.1744 30.5538 23.1495 30.532C23.0996 30.4886 23.0286 30.4257 22.9395 30.3453C22.7612 30.1845 22.5098 29.9518 22.21 29.6573C21.7306 29.1862 21.1225 28.5519 20.4867 27.7971L17.6619 27.7971L15.6338 32.5789ZM24.7669 30.6036L24 31.2496L23.2325 30.603L24 29.6738L24.7669 30.6036ZM31.308 19.3843C31.308 21.5531 30.3927 23.6399 29.2969 25.3761L31.9181 25.3761L36 35L12 35L16.0819 25.3761L18.7031 25.3761C17.6073 23.6399 16.692 21.5531 16.692 19.3843C16.692 15.1863 19.9772 12 24 12C28.0228 12 31.308 15.1863 31.308 19.3843Z" fill="rgb(95.8496,181.013,241.337)" fill-rule="nonzero" />
</svg>
