<svg viewBox="0 0 40 40" xmlns="http://www.w3.org/2000/svg" xmlns:xlink="http://www.w3.org/1999/xlink" width="40.000000" height="40.000000" fill="none" customFrame="#000000">
	<rect id="Icon contur wh 12" width="40.000000" height="40.000000" x="0.000000" y="0.000000" fill="rgb(255,255,255)" fill-opacity="0" />
	<path id="Icon contur wh 12" d="M40 20.1331L40 19.8669C40 16.2252 40.0001 13.3279 39.75 11.0195C39.5089 8.7941 39.0182 6.90819 37.9326 5.27051L37.708 4.94629C37.0605 4.05512 36.2935 3.25827 35.4297 2.57715L35.0537 2.29199C33.3418 1.04784 31.3541 0.507161 28.9805 0.250002C26.6721 -6.67216e-05 23.7748 -3.7554e-05 20.1329 0L19.8671 0C16.2252 -3.75512e-05 13.328 -6.6717e-05 11.0195 0.250002C8.7941 0.491101 6.90819 0.981808 5.27051 2.06738L4.94629 2.29199C3.92828 3.03117 3.03303 3.92599 2.29297 4.94336L2.29199 4.94434C1.04817 6.65704 0.507173 8.64548 0.250002 11.0195C-6.55479e-05 13.3284 -3.68905e-05 16.226 0 19.8682L0 20.1329C-3.7554e-05 23.7748 -6.67141e-05 26.6721 0.250002 28.9805C0.507161 31.3541 1.04784 33.3418 2.29199 35.0537L2.57715 35.4297C3.25827 36.2935 4.05512 37.0605 4.94629 37.708L5.27051 37.9326C6.90819 39.0182 8.7941 39.5089 11.0195 39.75C13.3279 40.0001 16.2252 40 19.8669 40L20.1341 40C23.7764 40 26.6735 40.0001 28.9814 39.75C31.355 39.4928 33.3419 38.9521 35.0537 37.708L35.4297 37.4229C36.2935 36.7417 37.0605 35.9449 37.708 35.0537L37.9326 34.7295C39.0182 33.0918 39.5089 31.2059 39.75 28.9805C40.0001 26.6721 40 23.7748 40 20.1331ZM35.7725 11.4502C35.9968 13.5212 36 16.2065 36 20C36 23.7935 35.9968 26.4788 35.7725 28.5498C35.5521 30.5836 35.1374 31.7861 34.4717 32.7021C33.9783 33.3812 33.3812 33.9783 32.7021 34.4717C31.7861 35.1375 30.584 35.5521 28.5508 35.7725C26.48 35.9968 23.7946 36 20 36C16.2065 36 13.5212 35.9968 11.4502 35.7725C9.41645 35.5521 8.21389 35.1374 7.29785 34.4717C6.61881 33.9783 6.0217 33.3812 5.52832 32.7021C4.86256 31.7861 4.44787 30.5836 4.22754 28.5498C4.00317 26.4788 4 23.7935 4 20C4 16.2066 4.00319 13.5215 4.22754 11.4502C4.44775 9.41737 4.86181 8.21399 5.52735 7.29688C6.02085 6.6184 6.61893 6.02122 7.29785 5.52832C8.21389 4.86256 9.41645 4.44787 11.4502 4.22754C13.5212 4.00317 16.2065 4 20 4C23.7935 4 26.4788 4.00317 28.5498 4.22754C30.5836 4.44787 31.7861 4.86256 32.7021 5.52832C33.3812 6.0217 33.9783 6.61881 34.4717 7.29785C35.1374 8.21389 35.5521 9.41645 35.7725 11.4502ZM9.48438 7.69434C10.2053 6.85748 11.4688 6.76346 12.3057 7.48438L14.7598 9.59863L14.7617 9.60059C15.2315 10.0065 15.7432 10.4424 16.1113 10.8584C16.5057 11.3041 17 12.0129 17 13C17 13.9871 16.5057 14.6959 16.1113 15.1416C15.7432 15.5576 15.2315 15.9935 14.7617 16.3994L14.7598 16.4014L12.3057 18.5156C11.4688 19.2365 10.2053 19.1425 9.48438 18.3057C8.76346 17.4688 8.85748 16.2053 9.69434 15.4844L12.1484 13.3711C12.3103 13.2313 12.448 13.1083 12.5713 13C12.448 12.8917 12.3103 12.7688 12.1484 12.6289L9.69434 10.5156C8.85748 9.7947 8.76346 8.5312 9.48438 7.69434ZM31 15C32.1046 15 33 15.8954 33 17C33 18.1046 32.1046 19 31 19L21.5 19C20.3954 19 19.5 18.1046 19.5 17C19.5 15.8954 20.3954 15 21.5 15L31 15Z" fill="rgb(255,255,255)" fill-rule="evenodd" />
</svg>
