<svg viewBox="0 0 48 48" xmlns="http://www.w3.org/2000/svg" xmlns:xlink="http://www.w3.org/1999/xlink" width="48.000000" height="48.000000" fill="none" customFrame="#000000">
	<rect id="48px Icon color (contur) 12" width="48.000000" height="48.000000" x="0.000000" y="0.000000" fill="rgb(255,255,255)" fill-opacity="0" />
	<path id="48px Icon color (contur) 12" d="M0 24C0 15.5992 0 11.3988 1.6349 8.19014C3.073 5.36771 5.36771 3.073 8.19014 1.6349C11.3988 0 15.5992 0 24 0C32.4008 0 36.6012 0 39.8099 1.6349C42.6323 3.073 44.927 5.36771 46.3651 8.19014C48 11.3988 48 15.5992 48 24C48 32.4008 48 36.6012 46.3651 39.8099C44.927 42.6323 42.6323 44.927 39.8099 46.3651C36.6012 48 32.4008 48 24 48C15.5992 48 11.3988 48 8.19014 46.3651C5.36771 44.927 3.073 42.6323 1.6349 39.8099C0 36.6012 0 32.4008 0 24Z" fill="rgb(255,255,255)" fill-rule="evenodd" />
	<path id="48px Icon color (contur) 12" d="M17.5956 16.5395C18.0209 16.0457 18.7664 15.9903 19.2602 16.4156L20.7081 17.663L20.7092 17.6642C20.9864 17.9036 21.2883 18.1608 21.5055 18.4063C21.7382 18.6692 22.0298 19.0874 22.0298 19.6698C22.0298 20.2522 21.7382 20.6704 21.5055 20.9334C21.2883 21.1788 20.9864 21.436 20.7092 21.6755L20.7081 21.6766L19.2602 22.924C18.7664 23.3494 18.0209 23.2939 17.5956 22.8002C17.1702 22.3064 17.2257 21.5609 17.7195 21.1356L19.1674 19.8888C19.2629 19.8063 19.3441 19.7337 19.4169 19.6698C19.3441 19.6059 19.2629 19.5334 19.1674 19.4509L17.7195 18.204C17.2257 17.7787 17.1702 17.0332 17.5956 16.5395ZM30.2898 20.8498C30.9415 20.8498 31.4698 21.3781 31.4698 22.0298C31.4698 22.6815 30.9415 23.2098 30.2898 23.2098L24.6848 23.2098C24.0331 23.2098 23.5048 22.6815 23.5048 22.0298C23.5048 21.3781 24.0331 20.8498 24.6848 20.8498L30.2898 20.8498Z" fill="rgb(255,255,255)" fill-rule="nonzero" />
	<path id="48px Icon color (contur) 12" d="M17.5956 16.5395C18.0209 16.0457 18.7664 15.9903 19.2602 16.4156L20.7081 17.663L20.7092 17.6642C20.9864 17.9036 21.2883 18.1608 21.5055 18.4063C21.7382 18.6692 22.0298 19.0874 22.0298 19.6698C22.0298 20.2522 21.7382 20.6704 21.5055 20.9334C21.2883 21.1788 20.9864 21.436 20.7092 21.6755L20.7081 21.6766L19.2602 22.924C18.7664 23.3494 18.0209 23.2939 17.5956 22.8002C17.1702 22.3064 17.2257 21.5609 17.7195 21.1356L19.1674 19.8888C19.2629 19.8063 19.3441 19.7337 19.4169 19.6698C19.3441 19.6059 19.2629 19.5334 19.1674 19.4509L17.7195 18.204C17.2257 17.7787 17.1702 17.0332 17.5956 16.5395ZM30.2898 20.8498C30.9415 20.8498 31.4698 21.3781 31.4698 22.0298C31.4698 22.6815 30.9415 23.2098 30.2898 23.2098L24.6848 23.2098C24.0331 23.2098 23.5048 22.6815 23.5048 22.0298C23.5048 21.3781 24.0331 20.8498 24.6848 20.8498L30.2898 20.8498Z" fill="rgb(16.7995,16.7995,16.7995)" fill-rule="nonzero" />
	<path id="48px Icon color (contur) 12" d="M33.2399 23.7996C33.2399 21.5614 33.238 19.9771 33.1056 18.7552C32.9756 17.5553 32.731 16.8458 32.3382 16.3053C32.0471 15.9047 31.6948 15.5524 31.2942 15.2613C30.7537 14.8685 30.0442 14.6239 28.8443 14.4939C27.6224 14.3615 26.0381 14.3596 23.7999 14.3596C21.5617 14.3596 19.9774 14.3615 18.7555 14.4939C17.5556 14.6239 16.8461 14.8685 16.3056 15.2613C15.9051 15.5521 15.5522 15.9045 15.261 16.3048C14.8684 16.8459 14.6241 17.5559 14.4941 18.7552C14.3618 19.9773 14.3599 21.5615 14.3599 23.7996C14.3599 26.0378 14.3618 27.6221 14.4941 28.844C14.6241 30.0439 14.8688 30.7534 15.2616 31.2939C15.5527 31.6945 15.905 32.0468 16.3056 32.3379C16.8461 32.7307 17.5556 32.9754 18.7555 33.1054C19.9774 33.2377 21.5617 33.2396 23.7999 33.2396C26.0387 33.2396 27.6231 33.2377 28.8448 33.1054C30.0444 32.9754 30.7537 32.7307 31.2942 32.3379C31.6948 32.0468 32.0471 31.6945 32.3382 31.2939C32.731 30.7534 32.9756 30.0439 33.1056 28.844C33.238 27.6221 33.2399 26.0378 33.2399 23.7996ZM35.5999 23.7996C35.5999 25.9852 35.6017 27.7196 35.4524 29.0981C35.3101 30.4111 35.0206 31.5238 34.3801 32.49L34.2476 32.6813C33.8656 33.2071 33.4131 33.6772 32.9034 34.0791L32.6816 34.2473C31.6716 34.9813 30.4993 35.3004 29.0989 35.4521C27.7206 35.6015 25.9861 35.5996 23.7999 35.5996C21.6143 35.5996 19.8799 35.6014 18.5014 35.4521C17.1884 35.3099 16.0757 35.0203 15.1095 34.3799L14.9182 34.2473C14.3924 33.8653 13.9223 33.4128 13.5204 32.9031L13.3522 32.6813C12.6181 31.6713 12.2991 30.4986 12.1474 29.0981C11.9981 27.7196 11.9999 25.9852 11.9999 23.7996C11.9999 21.6141 11.9981 19.8797 12.1474 18.5011C12.2991 17.1004 12.6183 15.9273 13.3522 14.9168C13.7888 14.3165 14.3176 13.788 14.9182 13.3519L15.1095 13.2194C16.0757 12.5789 17.1884 12.2894 18.5014 12.1471C19.8799 11.9978 21.6143 11.9996 23.7999 11.9996C25.9854 11.9996 27.7199 11.9978 29.0984 12.1471C30.4988 12.2988 31.6715 12.6178 32.6816 13.3519L32.9034 13.5201C33.4131 13.922 33.8656 14.3921 34.2476 14.9179L34.3801 15.1092C35.0206 16.0754 35.3101 17.1881 35.4524 18.5011C35.6017 19.8796 35.5999 21.614 35.5999 23.7996Z" fill="rgb(255,255,255)" fill-rule="nonzero" />
	<path id="48px Icon color (contur) 12" d="M33.2399 23.7996C33.2399 21.5614 33.238 19.9771 33.1056 18.7552C32.9756 17.5553 32.731 16.8458 32.3382 16.3053C32.0471 15.9047 31.6948 15.5524 31.2942 15.2613C30.7537 14.8685 30.0442 14.6239 28.8443 14.4939C27.6224 14.3615 26.0381 14.3596 23.7999 14.3596C21.5617 14.3596 19.9774 14.3615 18.7555 14.4939C17.5556 14.6239 16.8461 14.8685 16.3056 15.2613C15.9051 15.5521 15.5522 15.9045 15.261 16.3048C14.8684 16.8459 14.6241 17.5559 14.4941 18.7552C14.3618 19.9773 14.3599 21.5615 14.3599 23.7996C14.3599 26.0378 14.3618 27.6221 14.4941 28.844C14.6241 30.0439 14.8688 30.7534 15.2616 31.2939C15.5527 31.6945 15.905 32.0468 16.3056 32.3379C16.8461 32.7307 17.5556 32.9754 18.7555 33.1054C19.9774 33.2377 21.5617 33.2396 23.7999 33.2396C26.0387 33.2396 27.6231 33.2377 28.8448 33.1054C30.0444 32.9754 30.7537 32.7307 31.2942 32.3379C31.6948 32.0468 32.0471 31.6945 32.3382 31.2939C32.731 30.7534 32.9756 30.0439 33.1056 28.844C33.238 27.6221 33.2399 26.0378 33.2399 23.7996ZM35.5999 23.7996C35.5999 25.9852 35.6017 27.7196 35.4524 29.0981C35.3101 30.4111 35.0206 31.5238 34.3801 32.49L34.2476 32.6813C33.8656 33.2071 33.4131 33.6772 32.9034 34.0791L32.6816 34.2473C31.6716 34.9813 30.4993 35.3004 29.0989 35.4521C27.7206 35.6015 25.9861 35.5996 23.7999 35.5996C21.6143 35.5996 19.8799 35.6014 18.5014 35.4521C17.1884 35.3099 16.0757 35.0203 15.1095 34.3799L14.9182 34.2473C14.3924 33.8653 13.9223 33.4128 13.5204 32.9031L13.3522 32.6813C12.6181 31.6713 12.2991 30.4986 12.1474 29.0981C11.9981 27.7196 11.9999 25.9852 11.9999 23.7996C11.9999 21.6141 11.9981 19.8797 12.1474 18.5011C12.2991 17.1004 12.6183 15.9273 13.3522 14.9168C13.7888 14.3165 14.3176 13.788 14.9182 13.3519L15.1095 13.2194C16.0757 12.5789 17.1884 12.2894 18.5014 12.1471C19.8799 11.9978 21.6143 11.9996 23.7999 11.9996C25.9854 11.9996 27.7199 11.9978 29.0984 12.1471C30.4988 12.2988 31.6715 12.6178 32.6816 13.3519L32.9034 13.5201C33.4131 13.922 33.8656 14.3921 34.2476 14.9179L34.3801 15.1092C35.0206 16.0754 35.3101 17.1881 35.4524 18.5011C35.6017 19.8796 35.5999 21.614 35.5999 23.7996Z" fill="rgb(16.7995,16.7995,16.7995)" fill-rule="nonzero" />
</svg>
