<svg viewBox="0 0 48 48" xmlns="http://www.w3.org/2000/svg" xmlns:xlink="http://www.w3.org/1999/xlink" width="48.000000" height="48.000000" fill="none" customFrame="#000000">
	<rect id="48px Icon color (contur) 16" width="48.000000" height="48.000000" x="0.000000" y="0.000000" fill="rgb(255,255,255)" fill-opacity="0" />
	<path id="48px Icon color (contur) 16" d="M0 24C0 15.5992 0 11.3988 1.6349 8.19014C3.073 5.36771 5.36771 3.073 8.19014 1.6349C11.3988 0 15.5992 0 24 0C32.4008 0 36.6012 0 39.8099 1.6349C42.6323 3.073 44.927 5.36771 46.3651 8.19014C48 11.3988 48 15.5992 48 24C48 32.4008 48 36.6012 46.3651 39.8099C44.927 42.6323 42.6323 44.927 39.8099 46.3651C36.6012 48 32.4008 48 24 48C15.5992 48 11.3988 48 8.19014 46.3651C5.36771 44.927 3.073 42.6323 1.6349 39.8099C0 36.6012 0 32.4008 0 24Z" fill="rgb(255,255,255)" fill-rule="evenodd" />
	<path id="48px Icon color (contur) 16" d="M30.5003 33.2031C29.9232 33.2031 29.3628 33.1654 28.8192 33.0902C28.2839 33.0149 27.7821 32.9104 27.3137 32.7765C26.8454 32.6427 26.4356 32.4922 26.0843 32.3249L26.2976 29.5147C26.6739 29.7405 27.0837 29.9371 27.527 30.1044C27.9786 30.2633 28.447 30.3887 28.9321 30.4807C29.4172 30.5644 29.8981 30.6062 30.3748 30.6062C30.7428 30.6062 31.0774 30.5769 31.3785 30.5184C31.6795 30.4515 31.9179 30.3218 32.0935 30.1295C32.2775 29.9371 32.3695 29.6527 32.3695 29.2764C32.3695 29.0171 32.2775 28.8038 32.0935 28.6366C31.9179 28.4693 31.6252 28.3146 31.2154 28.1724C30.8055 28.0302 30.2452 27.8671 29.5343 27.6831C28.8234 27.4991 28.2086 27.2649 27.6901 26.9806C27.1799 26.6878 26.7868 26.3073 26.5108 25.8389C26.2432 25.3706 26.1094 24.7642 26.1094 24.0198C26.1094 22.7653 26.5108 21.7951 27.3137 21.1093C28.1166 20.4235 29.1997 20.0806 30.563 20.0806C31.1401 20.0806 31.7004 20.1266 32.2441 20.2186C32.7877 20.3022 33.2812 20.4151 33.7244 20.5573C34.1761 20.6911 34.5524 20.8291 34.8535 20.9713L34.6277 23.794C34.243 23.5515 33.8248 23.3508 33.3732 23.1918C32.9215 23.0246 32.4866 22.8991 32.0685 22.8155C31.6503 22.7319 31.3032 22.69 31.0272 22.69C30.7177 22.69 30.4375 22.7319 30.1866 22.8155C29.9357 22.8908 29.735 23.0204 29.5845 23.2044C29.4423 23.3884 29.3712 23.6268 29.3712 23.9195C29.3712 24.162 29.4297 24.3753 29.5468 24.5593C29.6639 24.7349 29.8855 24.898 30.2117 25.0486C30.5463 25.1991 31.0355 25.3664 31.6795 25.5504C32.5494 25.7929 33.2728 26.048 33.8499 26.3157C34.4354 26.5833 34.8744 26.9387 35.1672 27.382C35.4599 27.8169 35.6063 28.4107 35.6063 29.1635C35.6063 29.9664 35.4306 30.6689 35.0793 31.2711C34.7364 31.8733 34.1886 32.3458 33.4359 32.6887C32.6915 33.0316 31.713 33.2031 30.5003 33.2031Z" fill="rgb(255,255,255)" fill-rule="nonzero" />
	<path id="48px Icon color (contur) 16" d="M30.5003 33.2031C29.9232 33.2031 29.3628 33.1654 28.8192 33.0902C28.2839 33.0149 27.7821 32.9104 27.3137 32.7765C26.8454 32.6427 26.4356 32.4922 26.0843 32.3249L26.2976 29.5147C26.6739 29.7405 27.0837 29.9371 27.527 30.1044C27.9786 30.2633 28.447 30.3887 28.9321 30.4807C29.4172 30.5644 29.8981 30.6062 30.3748 30.6062C30.7428 30.6062 31.0774 30.5769 31.3785 30.5184C31.6795 30.4515 31.9179 30.3218 32.0935 30.1295C32.2775 29.9371 32.3695 29.6527 32.3695 29.2764C32.3695 29.0171 32.2775 28.8038 32.0935 28.6366C31.9179 28.4693 31.6252 28.3146 31.2154 28.1724C30.8055 28.0302 30.2452 27.8671 29.5343 27.6831C28.8234 27.4991 28.2086 27.2649 27.6901 26.9806C27.1799 26.6878 26.7868 26.3073 26.5108 25.8389C26.2432 25.3706 26.1094 24.7642 26.1094 24.0198C26.1094 22.7653 26.5108 21.7951 27.3137 21.1093C28.1166 20.4235 29.1997 20.0806 30.563 20.0806C31.1401 20.0806 31.7004 20.1266 32.2441 20.2186C32.7877 20.3022 33.2812 20.4151 33.7244 20.5573C34.1761 20.6911 34.5524 20.8291 34.8535 20.9713L34.6277 23.794C34.243 23.5515 33.8248 23.3508 33.3732 23.1918C32.9215 23.0246 32.4866 22.8991 32.0685 22.8155C31.6503 22.7319 31.3032 22.69 31.0272 22.69C30.7177 22.69 30.4375 22.7319 30.1866 22.8155C29.9357 22.8908 29.735 23.0204 29.5845 23.2044C29.4423 23.3884 29.3712 23.6268 29.3712 23.9195C29.3712 24.162 29.4297 24.3753 29.5468 24.5593C29.6639 24.7349 29.8855 24.898 30.2117 25.0486C30.5463 25.1991 31.0355 25.3664 31.6795 25.5504C32.5494 25.7929 33.2728 26.048 33.8499 26.3157C34.4354 26.5833 34.8744 26.9387 35.1672 27.382C35.4599 27.8169 35.6063 28.4107 35.6063 29.1635C35.6063 29.9664 35.4306 30.6689 35.0793 31.2711C34.7364 31.8733 34.1886 32.3458 33.4359 32.6887C32.6915 33.0316 31.713 33.2031 30.5003 33.2031Z" fill="rgb(251,48,63)" fill-rule="nonzero" />
	<path id="48px Icon color (contur) 16" d="M12.0002 32.8892C12.0002 31.919 12.0002 30.9781 12.0002 30.0665C12.0002 29.1548 12.0002 28.1428 12.0002 27.0305L12.0002 20.971C12.0002 19.8336 12.0002 18.8007 12.0002 17.8723C12.0002 16.944 12.0002 15.9863 12.0002 14.9994L23.6173 14.9994L23.6173 17.9225C22.8311 17.9225 21.9822 17.9225 21.0706 17.9225C20.1673 17.9225 19.1009 17.9225 17.8715 17.9225L13.5559 17.9225L15.4377 15.5389C15.4377 16.5258 15.4377 17.4876 15.4377 18.4243C15.4377 19.3527 15.4377 20.3856 15.4377 21.523L15.4377 26.4785C15.4377 27.5908 15.4377 28.6028 15.4377 29.5145C15.4377 30.4261 15.4377 31.3712 15.4377 32.3497L13.7817 29.9661L18.1349 29.9661C19.1637 29.9661 20.138 29.9661 21.058 29.9661C21.978 29.9661 22.8604 29.9661 23.7051 29.9661L23.7051 32.8892L12.0002 32.8892ZM14.6473 25.2365L14.6473 22.4639L17.9844 22.4639C19.1051 22.4639 20.0669 22.4639 20.8698 22.4639C21.6727 22.4639 22.4464 22.4639 23.1907 22.4639L23.1907 25.2365C22.4046 25.2365 21.61 25.2365 20.8071 25.2365C20.0042 25.2365 19.0591 25.2365 17.9718 25.2365L14.6473 25.2365Z" fill="rgb(255,255,255)" fill-rule="nonzero" />
	<path id="48px Icon color (contur) 16" d="M12.0002 32.8892C12.0002 31.919 12.0002 30.9781 12.0002 30.0665C12.0002 29.1548 12.0002 28.1428 12.0002 27.0305L12.0002 20.971C12.0002 19.8336 12.0002 18.8007 12.0002 17.8723C12.0002 16.944 12.0002 15.9863 12.0002 14.9994L23.6173 14.9994L23.6173 17.9225C22.8311 17.9225 21.9822 17.9225 21.0706 17.9225C20.1673 17.9225 19.1009 17.9225 17.8715 17.9225L13.5559 17.9225L15.4377 15.5389C15.4377 16.5258 15.4377 17.4876 15.4377 18.4243C15.4377 19.3527 15.4377 20.3856 15.4377 21.523L15.4377 26.4785C15.4377 27.5908 15.4377 28.6028 15.4377 29.5145C15.4377 30.4261 15.4377 31.3712 15.4377 32.3497L13.7817 29.9661L18.1349 29.9661C19.1637 29.9661 20.138 29.9661 21.058 29.9661C21.978 29.9661 22.8604 29.9661 23.7051 29.9661L23.7051 32.8892L12.0002 32.8892ZM14.6473 25.2365L14.6473 22.4639L17.9844 22.4639C19.1051 22.4639 20.0669 22.4639 20.8698 22.4639C21.6727 22.4639 22.4464 22.4639 23.1907 22.4639L23.1907 25.2365C22.4046 25.2365 21.61 25.2365 20.8071 25.2365C20.0042 25.2365 19.0591 25.2365 17.9718 25.2365L14.6473 25.2365Z" fill="rgb(251,48,63)" fill-rule="nonzero" />
</svg>
