<svg viewBox="0 0 484.471 138.329" xmlns="http://www.w3.org/2000/svg" xmlns:xlink="http://www.w3.org/1999/xlink" width="484.470703" height="138.329102" fill="none" customFrame="#000000">
	<rect id="Ex max white 05" width="484.470703" height="138.329102" x="0.000000" y="0.000000" fill="rgb(255,255,255)" fill-opacity="0" />
	<path id="Ex max white 05" d="M3.87703 28.0155L1.02092 22.4802C0.331835 21.1446 0 19.7036 0 18.2889C0 15.2382 1.5429 12.3097 4.37392 10.8245C40.1818 -7.96054 74.0038 1.40645 91.4021 11.2102C93.7599 12.5388 95 14.8869 95 17.3762C95 18.6743 94.6627 20.0108 93.9708 21.2611C92.9314 23.1395 91.6076 25.505 89.942 28.4479C87.5114 32.7426 82.1589 34.1553 77.7864 32.0115C56.5322 21.5908 37.9312 21.5785 16.1367 31.9746C11.6439 34.1177 6.19225 32.5026 3.87703 28.0155ZM10.332 116.181L10.332 52.3501Q10.332 51.0457 10.8651 50.0177L10.8651 50.0176Q11.1911 49.389 11.7163 48.8638Q12.2416 48.3385 12.8702 48.0125Q13.8982 47.4795 15.2026 47.4795L24.2261 47.4795Q25.298 47.4795 26.1931 47.8773Q26.9677 48.2216 27.6099 48.8638Q28.3214 49.5499 28.6803 50.3873Q29.0454 51.2392 29.0454 52.2476L29.0454 103.568L58.2178 52.3501Q58.3271 52.1648 58.4438 51.9843Q59.587 50.2175 61.4478 48.915Q63.4985 47.4795 65.2417 47.4795L80.3662 47.4795Q81.3746 47.4795 82.2265 47.8446Q83.0638 48.2035 83.75 48.915Q84.4356 49.626 84.7817 50.4754Q85.1343 51.3409 85.1343 52.3501L85.1343 116.181Q85.1343 117.129 84.8117 117.95Q84.4538 118.861 83.6987 119.616Q82.9877 120.301 82.1383 120.647Q81.2728 121 80.2637 121L71.2402 121Q70.2311 121 69.3656 120.647Q68.5162 120.301 67.8052 119.616Q67.1196 118.905 66.7735 118.055Q66.4209 117.19 66.4209 116.181L66.4209 68.6025L39.6582 116.181Q38.479 118.18 36.3257 119.616Q34.1724 121 32.1729 121L15.2026 121Q14.1935 121 13.328 120.647Q12.4786 120.301 11.7676 119.616Q11.0125 118.861 10.6546 117.95Q10.332 117.129 10.332 116.181ZM125.996 122.025Q112.194 122.025 104.269 115.201L104.263 115.196Q103.948 114.925 103.643 114.643Q102.723 113.793 101.909 112.853L101.908 112.852Q95.6445 105.614 95.6445 92.9556Q95.6445 80.0994 102.018 72.8355L102.018 72.8351Q102.762 71.9882 103.591 71.2173Q104.097 70.7441 104.628 70.3011Q112.439 63.7832 125.688 63.7832Q139.89 63.7832 147.478 68.2949Q151.345 70.5786 153.254 73.9657Q155.117 77.2702 155.117 81.625Q155.117 82.5065 154.743 83.1801Q154.53 83.5643 154.194 83.8809Q153.928 84.1475 153.613 84.3326Q152.899 84.7524 151.938 84.7524L144.299 84.7524Q143.436 84.7524 142.64 84.5232Q140.217 83.8262 138.403 81.0098Q137.791 80.0336 136.987 79.2552Q133.821 76.1904 127.688 76.1904Q120.374 76.1904 117.243 79.8095L117.242 79.8102Q117.103 79.9706 116.973 80.1382Q113.948 84.0347 113.948 92.9043Q113.948 101.774 117.075 105.722Q117.15 105.815 117.228 105.906L117.236 105.916Q120.448 109.669 128.047 109.669Q134.431 109.669 137.623 106.477L137.623 106.477Q138.353 105.747 138.916 104.85Q140.744 101.972 143.192 101.277Q143.971 101.056 144.812 101.056L152.451 101.056Q153.333 101.056 154.006 101.43Q154.391 101.644 154.707 101.979Q155.097 102.347 155.322 102.797Q155.63 103.413 155.63 104.184Q155.63 108.538 153.767 111.843Q151.857 115.23 147.991 117.514Q140.403 122.025 125.996 122.025ZM226.791 114.643Q225.904 113.824 225.115 112.919L225.115 112.919Q218.793 105.667 218.793 92.9043Q218.793 80.0259 225.184 72.8012L225.184 72.8009Q225.943 71.9437 226.791 71.166Q234.789 63.7832 249.76 63.7832Q264.782 63.7832 272.78 71.166Q273.628 71.9438 274.387 72.8012Q280.778 80.0259 280.778 92.9043Q280.778 105.667 274.456 112.919L274.454 112.921Q273.666 113.825 272.78 114.643Q264.782 122.025 249.76 122.025Q234.789 122.025 226.791 114.643ZM290.262 135.15L290.262 67.9873Q290.262 67.0265 290.682 66.3127Q290.867 65.998 291.133 65.7314Q291.561 65.3033 292.078 65.0738Q292.675 64.8086 293.389 64.8086L303.284 64.8086Q304.054 64.8086 304.671 65.1167Q305.121 65.3418 305.489 65.7314Q305.824 66.0479 306.037 66.4322Q306.412 67.1058 306.412 67.9873L306.412 69.5254Q308.811 67.8248 311.439 66.6279L311.44 66.6275Q317.686 63.7832 325.228 63.7832Q331.023 63.7832 335.783 66.0026Q339.825 67.8869 343.121 71.3711Q343.267 71.5252 343.411 71.6819L343.43 71.7026Q350.298 79.2149 350.298 93.0068Q350.298 106.177 343.764 113.579Q343.329 114.072 342.864 114.54Q341.291 116.124 339.485 117.373Q332.761 122.025 322.818 122.025Q316.307 122.025 308.001 119.411L308.001 135.15Q308.001 136.032 307.627 136.705Q307.413 137.09 307.078 137.406Q306.71 137.796 306.26 138.021Q305.644 138.329 304.874 138.329L293.389 138.329Q292.675 138.329 292.078 138.064Q291.561 137.834 291.133 137.406Q290.867 137.14 290.682 136.825Q290.262 136.111 290.262 135.15ZM158.758 74.0884L158.758 67.9873Q158.758 67.0265 159.178 66.3127Q159.363 65.998 159.629 65.7314Q159.999 65.3623 160.441 65.1408Q161.106 64.8086 161.937 64.8086L212.437 64.8086Q213.319 64.8086 213.992 65.1828Q214.376 65.3963 214.693 65.7314Q214.959 65.998 215.145 66.3127Q215.564 67.0265 215.564 67.9873L215.564 74.0884Q215.564 74.8738 215.262 75.5169Q215.051 75.9652 214.693 76.3442Q214.426 76.6109 214.112 76.7959Q213.398 77.2158 212.437 77.2158L196.082 77.2158L196.082 117.873Q196.082 118.587 195.817 119.184Q195.587 119.7 195.159 120.128Q194.893 120.395 194.578 120.58Q193.864 121 192.903 121L181.47 121Q180.561 121 179.851 120.624Q179.48 120.428 179.163 120.128Q178.805 119.749 178.594 119.301Q178.292 118.658 178.292 117.873L178.292 77.2158L161.937 77.2158Q161.027 77.2158 160.317 76.8399Q159.946 76.6434 159.629 76.3442Q159.271 75.9652 159.06 75.5169Q158.758 74.8738 158.758 74.0884ZM359.785 117.873L359.785 67.9873Q359.785 67.0265 360.205 66.3127Q360.39 65.998 360.657 65.7314Q361.085 65.3033 361.601 65.0738Q362.198 64.8086 362.913 64.8086L373.628 64.8086Q374.509 64.8086 375.183 65.1828Q375.567 65.3964 375.884 65.7314Q376.219 66.0479 376.432 66.4322Q376.807 67.1058 376.807 67.9873L376.807 101.671L394.854 68.5Q394.992 68.2325 395.154 67.981Q395.959 66.7381 397.366 65.8853Q399.058 64.8086 400.647 64.8086L415.002 64.8086Q415.884 64.8086 416.558 65.1828Q416.942 65.3964 417.258 65.7314Q417.593 66.0479 417.807 66.4322Q418.181 67.1058 418.181 67.9873L418.181 117.873Q418.181 118.754 417.807 119.428Q417.593 119.812 417.258 120.128Q416.992 120.395 416.677 120.58Q415.963 121 415.002 121L404.287 121Q403.326 121 402.612 120.58Q402.298 120.395 402.031 120.128Q401.673 119.749 401.462 119.301Q401.16 118.658 401.16 117.873L401.16 84.2397L383.113 117.309Q382.292 118.795 380.601 119.923Q378.909 121 377.319 121L362.913 121Q361.952 121 361.238 120.58Q360.923 120.395 360.657 120.128Q360.39 119.862 360.205 119.547Q359.785 118.833 359.785 117.873ZM428.228 82.9067Q428.228 75.9846 431.592 71.71Q436.999 64.8402 451.094 64.8086L481.343 64.8086Q482.225 64.8086 482.898 65.1828Q483.283 65.3964 483.599 65.7314Q483.866 65.998 484.051 66.3127Q484.471 67.0265 484.471 67.9873L484.471 117.873Q484.471 118.833 484.051 119.547Q483.866 119.862 483.599 120.128Q483.332 120.395 483.018 120.58Q482.304 121 481.343 121L469.91 121Q469.001 121 468.291 120.624Q467.92 120.428 467.603 120.128Q467.245 119.749 467.034 119.301Q466.731 118.658 466.731 117.873L466.731 100.954L456.683 100.954L447.967 116.488Q446.858 118.479 445.17 119.592Q443.034 121 439.969 121L430.74 121Q429.441 121 428.767 120.351Q428.457 120.052 428.279 119.616Q428.074 119.154 428.074 118.437Q428.074 117.667 428.843 116.488L439.148 99.2617Q434.147 97.4067 431.436 93.8204Q428.228 89.576 428.228 82.9067ZM239.762 79.5742Q236.583 83.7271 236.583 92.853Q236.583 101.979 239.762 106.183Q240.39 107.013 241.159 107.679Q244.287 110.387 249.76 110.387Q255.326 110.387 258.469 107.627L258.47 107.627Q259.206 106.98 259.809 106.183Q263.039 101.979 263.039 92.853Q263.039 83.7271 259.809 79.5742Q259.241 78.8328 258.556 78.2237Q255.403 75.4214 249.76 75.4214Q244.21 75.4214 241.071 78.1724Q240.354 78.8014 239.762 79.5742ZM308.001 107.567Q314.615 109.669 319.126 109.669Q325.293 109.669 328.298 106.587L328.299 106.587Q328.716 106.158 329.073 105.67Q332.046 101.671 332.046 92.9043Q332.046 84.1372 329.227 80.1895Q328.28 78.8223 327.004 77.9226Q324.548 76.1904 320.87 76.1904Q315.333 76.1904 308.001 80.8047L308.001 107.567ZM447.762 78.2412Q447.374 78.607 447.07 79.0328Q445.967 80.5761 445.967 82.9067Q445.967 85.1804 447.023 86.7403Q447.324 87.1855 447.71 87.5723Q447.911 87.7674 448.13 87.9407Q449.861 89.3154 452.684 89.3154L466.731 89.3154L466.731 76.498L452.684 76.498Q449.976 76.498 448.268 77.8045Q448.003 78.0071 447.762 78.2412Z" fill="rgb(255,255,255)" fill-rule="evenodd" />
</svg>
