<svg viewBox="0 0 30 33" xmlns="http://www.w3.org/2000/svg" xmlns:xlink="http://www.w3.org/1999/xlink" width="30.000000" height="33.000000" fill="none" customFrame="#000000">
	<rect id="Icon contur wh 03" width="30.000000" height="33.000000" x="0.000000" y="0.000000" fill="rgb(255,255,255)" fill-opacity="0" />
	<path id="Icon contur wh 03" d="M5 4.95L25 4.95C25.442 4.95 25.866 5.12384 26.1785 5.43327C26.4911 5.74271 26.6667 6.16239 26.6667 6.6C26.6667 7.03761 26.4911 7.45729 26.1785 7.76673C25.866 8.07616 25.442 8.25 25 8.25L5 8.25C4.55797 8.25 4.13405 8.07616 3.82149 7.76673C3.50893 7.45729 3.33333 7.03761 3.33333 6.6C3.33333 6.16239 3.50893 5.74271 3.82149 5.43327C4.13405 5.12384 4.55797 4.95 5 4.95ZM30 0L30 3.3L0 3.3L0 0L30 0ZM20 9.9L23.3333 9.9L23.3333 33L20 33L20 9.9ZM6.66667 9.9L10 9.9L10 33L6.66667 33L6.66667 9.9ZM13.3333 9.9L16.6667 9.9L16.6667 33L13.3333 33L13.3333 9.9Z" fill="rgb(255,255,255)" fill-rule="nonzero" />
</svg>
