<svg viewBox="0 0 40 32" xmlns="http://www.w3.org/2000/svg" xmlns:xlink="http://www.w3.org/1999/xlink" width="40.000000" height="32.000000" fill="none" customFrame="#000000">
	<rect id="Icon contur wh 06" width="40.000000" height="32.000000" x="0.000000" y="0.000000" fill="rgb(255,255,255)" fill-opacity="0" />
	<path id="Icon contur wh 06" d="M29.137 2.04068e-30C32.6476 2.04068e-30 36.0962 0.916091 39.1365 2.65528C39.6703 2.96069 39.9999 3.52489 40 4.13568L40 30.2897C40 30.9006 39.6705 31.4656 39.1365 31.7711C38.6026 32.0763 37.9452 32.0763 37.4114 31.7711C34.8958 30.332 32.0418 29.5745 29.137 29.5745C26.2322 29.5745 23.3782 30.332 20.8625 31.7711C20.3287 32.0763 19.6713 32.0763 19.1375 31.7711C16.6218 30.332 13.7678 29.5745 10.863 29.5745C7.95824 29.5745 5.10423 30.332 2.58861 31.7711C2.05477 32.0763 1.39736 32.0763 0.86353 31.7711C0.329544 31.4656 0 30.9006 0 30.2897L0 4.13568C0.000148016 3.52489 0.329664 2.96069 0.86353 2.65528C3.90383 0.916091 7.35243 -2.01024e-15 10.863 2.04068e-30C14.046 2.04068e-30 17.1771 0.754861 20 2.19162C22.8229 0.754861 25.954 -1.78688e-15 29.137 2.04068e-30ZM10.3187 3.42937C7.92911 3.50728 5.58681 4.09783 3.45214 5.15732L3.45214 27.5676C5.80191 26.6386 8.31572 26.154 10.863 26.154C13.4104 26.154 15.9242 26.6386 18.2739 27.5676L18.2739 5.15732C15.9774 4.0175 13.4405 3.42053 10.863 3.42053L10.3187 3.42937ZM29.137 3.42053C26.5595 3.42053 24.0226 4.0175 21.7261 5.15732L21.7261 27.5676C24.0758 26.6386 26.5896 26.154 29.137 26.154C31.6843 26.154 34.1981 26.6386 36.5479 27.5676L36.5479 5.15732C34.2513 4.0175 31.7145 3.42053 29.137 3.42053Z" fill="rgb(255,255,255)" fill-rule="nonzero" />
</svg>
