<svg viewBox="0 0 38 31.9998" xmlns="http://www.w3.org/2000/svg" xmlns:xlink="http://www.w3.org/1999/xlink" width="38.000000" height="31.999756" fill="none" customFrame="#000000">
	<rect id="Icon contur wh 05" width="37.999847" height="31.999849" x="0.000000" y="0.000000" fill="rgb(255,255,255)" fill-opacity="0" />
	<path id="Icon contur wh 05" d="M34 0C35.1046 0 36 0.89543 36 2C36 3.10457 35.1046 4 34 4L21.5088 4L13.9229 30.5498C13.6962 31.3425 13.0064 31.9147 12.1855 31.9912C11.3643 32.0675 10.5798 31.6322 10.2109 30.8945L4.76367 20L2 20C0.89543 20 0 19.1046 0 18C0 16.8954 0.89543 16 2 16L6 16C6.75754 16 7.45028 16.4279 7.78906 17.1055L11.4893 24.5059L18.0771 1.4502L18.1289 1.29297C18.4205 0.520326 19.1628 0 20 0L34 0ZM34.5859 16.5859C35.367 15.8049 36.633 15.8049 37.4141 16.5859C38.1951 17.367 38.1951 18.633 37.4141 19.4141L32.8281 24L37.4141 28.5859C38.1951 29.367 38.1951 30.633 37.4141 31.4141C36.633 32.1951 35.367 32.1951 34.5859 31.4141L30 26.8281L25.4141 31.4141C24.633 32.1951 23.367 32.1951 22.5859 31.4141C21.8049 30.633 21.8049 29.367 22.5859 28.5859L27.1719 24L22.5859 19.4141C21.8049 18.633 21.8049 17.367 22.5859 16.5859C23.367 15.8049 24.633 15.8049 25.4141 16.5859L30 21.1719L34.5859 16.5859Z" fill="rgb(255,255,255)" fill-rule="nonzero" />
</svg>
