<svg viewBox="0 0 707.133 122.026" xmlns="http://www.w3.org/2000/svg" xmlns:xlink="http://www.w3.org/1999/xlink" width="707.132812" height="122.025879" fill="none" customFrame="#000000">
	<rect id="Ex max white 10" width="707.132324" height="122.025841" x="0.000000" y="0.000000" fill="rgb(255,255,255)" fill-opacity="0" />
	<path id="Ex max white 10" d="M3.87703 28.0155L1.02092 22.4802C0.331835 21.1446 0 19.7036 0 18.2889C0 15.2382 1.5429 12.3097 4.37392 10.8245C40.1818 -7.96054 74.0038 1.40645 91.4021 11.2102C93.7599 12.5388 95 14.8869 95 17.3762C95 18.6743 94.6627 20.0108 93.9708 21.2611C92.9314 23.1395 91.6076 25.505 89.942 28.4479C87.5114 32.7426 82.1589 34.1553 77.7864 32.0115C56.5322 21.5908 37.9312 21.5785 16.1367 31.9746C11.6439 34.1177 6.19225 32.5026 3.87703 28.0155ZM2.33203 116.078L2.33203 52.4526Q2.33203 51.205 2.8197 50.1921Q3.15366 49.4985 3.71631 48.915Q4.40248 48.2035 5.23982 47.8446Q6.09173 47.4795 7.1001 47.4795L27.9668 47.4795Q28.3566 47.4795 28.7387 47.5341L28.7388 47.5341Q30.3162 47.7594 31.7607 48.915Q33.1328 50.0127 33.8154 51.44Q34.0256 51.8795 34.1704 52.3501L49.2949 96.1343L64.4194 52.3501Q64.5642 51.8795 64.7743 51.4402L64.7744 51.44Q65.457 50.0127 66.8291 48.915Q68.2736 47.7594 69.851 47.5341Q70.2331 47.4795 70.623 47.4795L91.4897 47.4795Q92.5535 47.4795 93.4286 47.8858Q94.1984 48.2432 94.8223 48.915Q95.3849 49.4985 95.7189 50.1921Q96.2065 51.205 96.2065 52.4526L96.2065 116.078Q96.2065 117.254 95.7575 118.221Q95.4037 118.983 94.771 119.616Q94.1288 120.258 93.3542 120.602Q92.4591 121 91.3872 121L82.1587 121Q81.1496 121 80.284 120.647Q79.4347 120.301 78.7236 119.616Q78.161 119.032 77.827 118.339Q77.3394 117.326 77.3394 116.078L77.3394 65.9878L59.2412 116.386Q59.1404 116.652 59.0185 116.908L59.0183 116.909Q58.2713 118.477 56.729 119.667Q55.3391 120.699 53.8261 120.932Q53.3858 121 52.9351 121L45.6035 121Q45.1528 121 44.7124 120.932Q43.1995 120.699 41.8096 119.667Q40.3878 118.538 39.6141 117.068Q39.4392 116.736 39.2974 116.386L21.2505 65.9878L21.2505 116.078Q21.2505 117.254 20.8014 118.221Q20.4476 118.983 19.8149 119.616Q19.1728 120.258 18.3981 120.602Q17.5031 121 16.4312 121L7.20264 121Q6.19348 121 5.32796 120.647Q4.47859 120.301 3.76758 119.616Q3.13491 118.983 2.78107 118.221Q2.33203 117.254 2.33203 116.078ZM113.482 117.309Q110.439 115.188 108.765 112.279Q106.715 108.719 106.715 103.979Q106.715 99.1773 108.818 95.6186Q110.487 92.7931 113.482 90.751Q120.301 86.1367 131.017 86.1367L147.987 86.1367Q147.987 80.1382 145.475 77.7798Q142.962 75.4214 136.656 75.4214Q130.486 75.4214 127.908 78.4644Q127.873 78.5063 127.838 78.5488Q126.333 80.3913 124.406 81.1302Q123.115 81.625 121.634 81.625L113.995 81.625Q113.086 81.625 112.376 81.2491Q112.005 81.0526 111.688 80.7534Q111.33 80.3743 111.119 79.9261Q110.816 79.283 110.816 78.4976Q110.816 75.303 112.133 72.802Q116.883 63.7832 138.758 63.7832Q150.96 63.7832 158.343 69.269Q160.131 70.5847 161.485 72.2519Q165.726 77.4715 165.726 86.1367L165.726 117.873Q165.726 118.833 165.306 119.547Q165.121 119.862 164.854 120.128Q164.588 120.395 164.273 120.58Q163.559 121 162.599 121L152.704 121Q151.743 121 151.029 120.58Q150.714 120.395 150.448 120.128Q150.09 119.749 149.879 119.301Q149.576 118.658 149.576 117.873L149.576 116.283Q146.872 118.217 143.888 119.5L143.888 119.5Q137.933 122.06 130.863 122.025Q120.301 122.025 113.482 117.309ZM240.528 114.54Q239.539 113.602 238.673 112.56L238.672 112.56Q232.633 105.293 232.633 93.0068Q232.633 80.7252 238.663 73.4232Q239.555 72.3426 240.58 71.3711Q241.303 70.6805 242.077 70.0528Q249.81 63.7832 262.625 63.7832Q275.887 63.7832 283.66 70.3148L283.662 70.3168Q284.152 70.7285 284.62 71.166Q285.792 72.254 286.79 73.4831L286.791 73.4843Q292.516 80.5376 292.516 92.2378L292.516 95.1602Q292.516 95.9907 292.183 96.6552Q291.962 97.0982 291.593 97.4673Q291.326 97.7339 291.012 97.919Q290.298 98.3389 289.337 98.3389L250.731 98.3389Q251.244 104.645 254.32 107.516Q257.447 110.387 264.266 110.387Q271.085 110.387 273.597 107.311Q275.109 105.46 277.048 104.704Q278.331 104.204 279.801 104.184L287.44 104.184Q288.321 104.184 288.995 104.558Q289.379 104.771 289.696 105.106Q290.031 105.423 290.244 105.807Q290.619 106.481 290.619 107.362Q290.619 110.545 289.307 113.037Q284.553 122.066 262.574 122.025Q249.412 122.025 241.662 115.549Q241.08 115.063 240.528 114.54ZM393.928 117.309Q390.885 115.188 389.21 112.279Q387.16 108.719 387.16 103.979Q387.16 99.1772 389.263 95.6186Q390.933 92.7931 393.928 90.751Q400.747 86.1367 411.462 86.1367L428.432 86.1367Q428.432 80.1382 425.92 77.7798Q423.408 75.4214 417.102 75.4214Q410.932 75.4214 408.354 78.4644Q408.327 78.4962 408.3 78.5284L408.283 78.5488Q406.779 80.3912 404.851 81.1302Q403.56 81.625 402.08 81.625L394.44 81.625Q393.531 81.625 392.821 81.2491Q392.45 81.0526 392.133 80.7534Q391.775 80.3744 391.564 79.9261Q391.262 79.283 391.262 78.4976Q391.262 75.303 392.579 72.802Q397.328 63.7832 419.204 63.7832Q431.406 63.7832 438.789 69.269Q440.576 70.5847 441.931 72.2519Q446.171 77.4715 446.171 86.1367L446.171 117.873Q446.171 118.833 445.751 119.547Q445.566 119.862 445.3 120.128Q445.033 120.395 444.719 120.58Q444.005 121 443.044 121L433.149 121Q432.188 121 431.474 120.58Q431.16 120.395 430.893 120.128Q430.535 119.749 430.324 119.301Q430.021 118.658 430.021 117.873L430.021 116.283Q427.317 118.217 424.333 119.5Q418.378 122.06 411.308 122.025Q400.747 122.025 393.928 117.309ZM654.889 117.309Q651.846 115.188 650.171 112.279Q648.121 108.719 648.121 103.979Q648.121 99.1772 650.224 95.6186Q651.894 92.7931 654.889 90.751Q661.708 86.1367 672.423 86.1367L689.393 86.1367Q689.393 80.1382 686.881 77.7798Q684.369 75.4214 678.062 75.4214Q671.893 75.4214 669.315 78.4644Q669.279 78.5063 669.244 78.5488Q667.74 80.3912 665.812 81.1302Q664.521 81.625 663.041 81.625L655.401 81.625Q654.492 81.625 653.782 81.2491Q653.411 81.0526 653.094 80.7534Q652.736 80.3743 652.525 79.9261Q652.223 79.283 652.223 78.4976Q652.223 75.3031 653.54 72.802Q658.289 63.7832 680.165 63.7832Q692.367 63.7832 699.75 69.269Q701.536 70.5844 702.891 72.2519Q707.132 77.4715 707.132 86.1367L707.132 117.873Q707.132 118.833 706.712 119.547L706.712 119.548Q706.527 119.862 706.261 120.128Q705.995 120.394 705.681 120.579L705.68 120.58Q704.966 121 704.005 121L694.11 121Q693.149 121 692.435 120.58L692.434 120.579Q692.12 120.394 691.854 120.128Q691.496 119.749 691.285 119.301Q690.982 118.658 690.982 117.873L690.982 116.283Q688.278 118.217 685.294 119.5Q679.339 122.06 672.269 122.025Q661.708 122.025 654.889 117.309ZM172.086 74.0884L172.086 67.9873Q172.086 67.0265 172.506 66.3127Q172.691 65.998 172.958 65.7314Q173.327 65.3623 173.77 65.1408Q174.434 64.8086 175.265 64.8086L225.765 64.8086Q226.647 64.8086 227.32 65.1828Q227.704 65.3963 228.021 65.7314Q228.288 65.998 228.473 66.3127Q228.893 67.0265 228.893 67.9873L228.893 74.0884Q228.893 74.8738 228.59 75.5169Q228.379 75.9652 228.021 76.3442Q227.754 76.6109 227.44 76.7959Q226.726 77.2158 225.765 77.2158L209.41 77.2158L209.41 117.873Q209.41 118.587 209.145 119.184Q208.915 119.7 208.487 120.128Q208.221 120.395 207.906 120.58Q207.192 121 206.231 121L194.798 121Q193.889 121 193.179 120.624Q192.808 120.428 192.491 120.128Q192.133 119.749 191.922 119.301Q191.62 118.658 191.62 117.873L191.62 77.2158L175.265 77.2158Q174.356 77.2158 173.645 76.8399Q173.274 76.6434 172.958 76.3442Q172.6 75.9652 172.389 75.5169Q172.086 74.8738 172.086 74.0884ZM301.949 117.873L301.949 67.9873Q301.949 67.0265 302.369 66.3127Q302.554 65.998 302.821 65.7314Q303.249 65.3033 303.765 65.0738Q304.362 64.8086 305.077 64.8086L322.713 64.8086Q323.512 64.8086 324.21 65.0728Q326.158 65.8098 327.328 68.6025L339.837 99.1592L352.347 68.6025Q353.517 65.8098 355.465 65.0728Q356.163 64.8086 356.961 64.8086L374.598 64.8086Q375.48 64.8086 376.153 65.1828Q376.538 65.3964 376.854 65.7314Q377.189 66.0479 377.403 66.4322Q377.777 67.1058 377.777 67.9873L377.777 117.873Q377.777 118.754 377.403 119.428Q377.189 119.812 376.854 120.128Q376.587 120.395 376.273 120.58Q375.559 121 374.598 121L363.473 121Q362.512 121 361.798 120.58Q361.483 120.395 361.217 120.128Q360.859 119.749 360.648 119.301Q360.345 118.658 360.345 117.873L360.345 85.8291L347.22 117.411Q346.191 119.734 344.453 120.554Q343.507 121 342.35 121L337.325 121Q336.226 121 335.317 120.584Q333.554 119.779 332.506 117.411L319.381 85.8291L319.381 117.873Q319.381 118.754 319.007 119.428Q318.793 119.812 318.458 120.128Q318.191 120.395 317.877 120.58Q317.163 121 316.202 121L305.077 121Q304.116 121 303.402 120.58Q303.087 120.395 302.821 120.128Q302.554 119.862 302.369 119.547Q301.949 118.833 301.949 117.873ZM452.531 74.0884L452.531 67.9873Q452.531 67.0265 452.951 66.3127Q453.136 65.998 453.403 65.7314Q453.772 65.3623 454.215 65.1408Q454.879 64.8086 455.71 64.8086L506.21 64.8086Q507.092 64.8086 507.766 65.1828Q508.15 65.3964 508.466 65.7314Q508.733 65.998 508.918 66.3127Q509.338 67.0265 509.338 67.9873L509.338 74.0884Q509.338 74.8738 509.035 75.5169Q508.824 75.9652 508.466 76.3442Q508.2 76.6109 507.885 76.7959Q507.171 77.2158 506.21 77.2158L489.855 77.2158L489.855 117.873Q489.855 118.587 489.59 119.184Q489.361 119.7 488.933 120.128Q488.666 120.395 488.351 120.58Q487.638 121 486.677 121L475.244 121Q474.335 121 473.624 120.624Q473.253 120.428 472.937 120.128Q472.579 119.749 472.368 119.301Q472.065 118.658 472.065 117.873L472.065 77.2158L455.71 77.2158Q454.801 77.2158 454.091 76.8399Q453.72 76.6434 453.403 76.3442Q453.045 75.9652 452.834 75.5169Q452.531 74.8738 452.531 74.0884ZM516.77 117.873L516.77 67.9873Q516.77 67.0265 517.189 66.3127L517.19 66.3117Q517.375 65.9977 517.641 65.7314Q518.069 65.3036 518.586 65.0738Q519.182 64.8086 519.897 64.8086L530.612 64.8086Q531.494 64.8086 532.167 65.1828Q532.552 65.3963 532.868 65.7314Q533.203 66.048 533.417 66.4322Q533.791 67.1058 533.791 67.9873L533.791 101.671L551.838 68.5Q551.976 68.2325 552.139 67.981Q552.943 66.7381 554.35 65.8853Q556.042 64.8086 557.631 64.8086L571.987 64.8086Q572.868 64.8086 573.542 65.1828Q573.926 65.3963 574.243 65.7314Q574.578 66.048 574.791 66.4322Q575.166 67.1058 575.166 67.9873L575.166 117.873Q575.166 118.754 574.791 119.428Q574.578 119.812 574.243 120.128Q573.977 120.394 573.663 120.579L573.661 120.58Q572.948 121 571.987 121L561.271 121Q560.311 121 559.597 120.58L559.595 120.579Q559.282 120.394 559.016 120.128Q558.658 119.749 558.447 119.301Q558.144 118.658 558.144 117.873L558.144 84.2397L540.097 117.309Q539.277 118.795 537.585 119.923Q535.893 121 534.304 121L519.897 121Q518.936 121 518.222 120.58L518.221 120.579Q517.907 120.394 517.641 120.128Q517.375 119.862 517.19 119.548L517.189 119.547Q516.77 118.833 516.77 117.873ZM644.379 118.744Q644.379 119.685 643.915 120.234Q643.267 121 641.713 121L632.023 121Q630.244 121 628.726 120.37Q626.045 119.258 624.179 116.181L617.668 105.568Q615.559 102.147 612.495 100.442Q609.451 98.749 605.466 98.749L605.466 117.873Q605.466 118.754 605.092 119.428Q604.878 119.812 604.543 120.128Q604.223 120.449 603.84 120.651Q603.181 121 602.338 121L590.854 121Q589.893 121 589.179 120.58L589.178 120.579Q588.864 120.394 588.598 120.128Q588.332 119.862 588.147 119.548L588.146 119.547Q587.727 118.833 587.727 117.873L587.727 67.9873Q587.727 67.0265 588.146 66.3127L588.147 66.3117Q588.332 65.9977 588.598 65.7314Q589.026 65.3036 589.543 65.0738Q590.139 64.8086 590.854 64.8086L602.338 64.8086Q603.22 64.8086 603.893 65.1828Q604.278 65.3963 604.594 65.7314Q604.86 65.9977 605.045 66.3117L605.046 66.3127Q605.466 67.0265 605.466 67.9873L605.466 87.0596Q611.096 87.0596 614.48 84.3023Q616.458 82.691 617.668 80.1382L622.59 69.6792Q623.144 68.4888 623.981 67.5524Q624.695 66.7548 625.615 66.1416Q626.856 65.3141 628.216 65.0003L628.217 64.9999Q629.047 64.8086 629.921 64.8086L639.611 64.8086Q641.205 64.8086 641.808 65.5815Q642.175 66.0518 642.175 66.8081Q642.175 67.936 641.354 69.6792L634.741 83.6245Q633.838 85.4849 632.585 87.0679L632.583 87.0695Q631.489 88.4521 630.126 89.623Q627.437 91.9352 624.356 92.7273Q624.09 92.7959 623.82 92.853Q623.89 92.8741 623.96 92.8959Q630.178 94.8315 634.741 102.082L643.457 116.181Q644.328 117.667 644.379 118.744ZM250.628 87.521L274.469 87.521Q274.196 81.0797 270.843 78.0675Q267.897 75.4214 262.574 75.4214Q257.308 75.4214 254.356 78.0352Q250.958 81.0451 250.628 87.521ZM132.247 97.7749Q128.658 97.7749 126.556 99.5181Q125.613 100.32 125.103 101.339Q124.505 102.535 124.505 104.03Q124.505 105.367 125.007 106.476Q125.545 107.665 126.659 108.593Q128.812 110.387 132.76 110.387Q134.385 110.387 135.987 110.192L135.99 110.191Q142.166 109.436 147.987 105.773L147.987 97.7749L132.247 97.7749ZM412.692 97.7749Q409.104 97.7749 407.001 99.5181Q406.058 100.32 405.549 101.339Q404.951 102.535 404.951 104.03Q404.951 105.367 405.453 106.476Q405.99 107.665 407.104 108.593Q409.257 110.387 413.205 110.387Q414.831 110.387 416.432 110.192L416.435 110.191Q422.611 109.436 428.432 105.773L428.432 97.7749L412.692 97.7749ZM673.653 97.7749Q670.064 97.7749 667.962 99.5181Q667.019 100.32 666.51 101.339Q665.912 102.535 665.912 104.03Q665.912 105.367 666.414 106.476Q666.951 107.665 668.065 108.593Q670.218 110.387 674.166 110.387Q675.793 110.387 677.396 110.191Q683.572 109.436 689.393 105.773L689.393 97.7749L673.653 97.7749Z" fill="rgb(255,255,255)" fill-rule="evenodd" />
</svg>
