<svg viewBox="0 0 48 48" xmlns="http://www.w3.org/2000/svg" xmlns:xlink="http://www.w3.org/1999/xlink" width="48.000000" height="48.000000" fill="none" customFrame="#000000">
	<rect id="48px Icon color (contur) 05" width="48.000000" height="48.000000" x="0.000000" y="0.000000" fill="rgb(255,255,255)" fill-opacity="0" />
	<path id="48px Icon color (contur) 05" d="M0 24C0 15.5992 0 11.3988 1.6349 8.19014C3.073 5.36771 5.36771 3.073 8.19014 1.6349C11.3988 0 15.5992 0 24 0C32.4008 0 36.6012 0 39.8099 1.6349C42.6323 3.073 44.927 5.36771 46.3651 8.19014C48 11.3988 48 15.5992 48 24C48 32.4008 48 36.6012 46.3651 39.8099C44.927 42.6323 42.6323 44.927 39.8099 46.3651C36.6012 48 32.4008 48 24 48C15.5992 48 11.3988 48 8.19014 46.3651C5.36771 44.927 3.073 42.6323 1.6349 39.8099C0 36.6012 0 32.4008 0 24Z" fill="rgb(255,255,255)" fill-rule="evenodd" />
	<path id="48px Icon color (contur) 05" d="M32.6843 15C33.3238 15 33.8422 15.5037 33.8422 16.125C33.8422 16.7463 33.3238 17.25 32.6843 17.25L25.4525 17.25L21.0606 32.1843C20.9294 32.6302 20.5301 32.9521 20.0548 32.9951C19.5794 33.0381 19.1252 32.7932 18.9116 32.3783L15.7579 26.2501L14.1579 26.2501C13.5184 26.2501 13 25.7464 13 25.125C13 24.5037 13.5184 24 14.1579 24L16.4737 24C16.9123 24 17.3133 24.2407 17.5095 24.6219L19.6517 28.7846L23.4658 15.8157L23.4957 15.7273C23.6645 15.2927 24.0943 15 24.579 15L32.6843 15ZM33.0235 24.3296C33.4757 23.8903 34.2087 23.8903 34.6609 24.3296C35.113 24.769 35.113 25.4811 34.6609 25.9205L32.0058 28.5001L34.6609 31.0797C35.113 31.519 35.113 32.2312 34.6609 32.6705C34.2087 33.1098 33.4757 33.1098 33.0235 32.6705L30.3685 30.0909L27.7135 32.6705C27.2613 33.1098 26.5283 33.1098 26.0761 32.6705C25.6239 32.2312 25.6239 31.519 26.0761 31.0797L28.7311 28.5001L26.0761 25.9205C25.6239 25.4811 25.6239 24.769 26.0761 24.3296C26.5283 23.8903 27.2613 23.8903 27.7135 24.3296L30.3685 26.9092L33.0235 24.3296Z" fill="rgb(255,255,255)" fill-rule="nonzero" />
	<path id="48px Icon color (contur) 05" d="M32.6843 15C33.3238 15 33.8422 15.5037 33.8422 16.125C33.8422 16.7463 33.3238 17.25 32.6843 17.25L25.4525 17.25L21.0606 32.1843C20.9294 32.6302 20.5301 32.9521 20.0548 32.9951C19.5794 33.0381 19.1252 32.7932 18.9116 32.3783L15.7579 26.2501L14.1579 26.2501C13.5184 26.2501 13 25.7464 13 25.125C13 24.5037 13.5184 24 14.1579 24L16.4737 24C16.9123 24 17.3133 24.2407 17.5095 24.6219L19.6517 28.7846L23.4658 15.8157L23.4957 15.7273C23.6645 15.2927 24.0943 15 24.579 15L32.6843 15ZM33.0235 24.3296C33.4757 23.8903 34.2087 23.8903 34.6609 24.3296C35.113 24.769 35.113 25.4811 34.6609 25.9205L32.0058 28.5001L34.6609 31.0797C35.113 31.519 35.113 32.2312 34.6609 32.6705C34.2087 33.1098 33.4757 33.1098 33.0235 32.6705L30.3685 30.0909L27.7135 32.6705C27.2613 33.1098 26.5283 33.1098 26.0761 32.6705C25.6239 32.2312 25.6239 31.519 26.0761 31.0797L28.7311 28.5001L26.0761 25.9205C25.6239 25.4811 25.6239 24.769 26.0761 24.3296C26.5283 23.8903 27.2613 23.8903 27.7135 24.3296L30.3685 26.9092L33.0235 24.3296Z" fill="rgb(67,97,238)" fill-rule="nonzero" />
</svg>
