<svg viewBox="0 0 48 48" xmlns="http://www.w3.org/2000/svg" xmlns:xlink="http://www.w3.org/1999/xlink" width="48.000000" height="48.000000" fill="none" customFrame="#000000">
	<rect id="48px Icon color (contur) 04" width="48.000000" height="48.000000" x="0.000000" y="0.000000" fill="rgb(255,255,255)" fill-opacity="0" />
	<path id="48px Icon color (contur) 04" d="M0 24C0 15.5992 0 11.3988 1.6349 8.19014C3.073 5.36771 5.36771 3.073 8.19014 1.6349C11.3988 0 15.5992 0 24 0C32.4008 0 36.6012 0 39.8099 1.6349C42.6323 3.073 44.927 5.36771 46.3651 8.19014C48 11.3988 48 15.5992 48 24C48 32.4008 48 36.6012 46.3651 39.8099C44.927 42.6323 42.6323 44.927 39.8099 46.3651C36.6012 48 32.4008 48 24 48C15.5992 48 11.3988 48 8.19014 46.3651C5.36771 44.927 3.073 42.6323 1.6349 39.8099C0 36.6012 0 32.4008 0 24Z" fill="rgb(255,255,255)" fill-rule="evenodd" />
	<path id="48px Icon color (contur) 04" d="M13.0002 22.9962C13.0002 21.1464 13.6871 19.3183 14.7979 17.9408C15.9077 16.5645 17.5296 15.54 19.4239 15.5399C21.1107 15.5399 22.5713 16.3424 23.6196 17.201C24.6688 16.3413 26.1292 15.5399 27.8165 15.5399C29.7106 15.54 31.3326 16.5639 32.4425 17.9403C33.5534 19.3179 34.2401 21.1465 34.2402 22.9973C34.2402 26.8221 33.6801 29.6835 31.4193 33.0659C31.4071 33.084 31.3943 33.1021 31.3812 33.1195C30.4654 34.3377 29.3079 35.2141 27.9363 35.5008C26.5555 35.7895 25.146 35.4412 23.8155 34.5743C23.6951 34.4999 23.5423 34.501 23.4249 34.5749C22.0943 35.4405 20.6851 35.7891 19.3047 35.5008C17.9329 35.2143 16.7752 34.3379 15.8592 33.1195C15.8461 33.1021 15.8332 33.0845 15.8211 33.0665C13.56 29.685 13.0002 26.822 13.0002 22.9962ZM15.3602 22.9962C15.3602 26.4786 15.8446 28.8438 17.7623 31.7234C18.4352 32.6106 19.1332 33.0538 19.7869 33.1904C20.4313 33.325 21.216 33.2003 22.1504 32.5888L22.1682 32.5773C23.0554 32.0193 24.1852 32.0202 25.0721 32.5767C25.0787 32.5808 25.0853 32.5852 25.0917 32.5894C26.0253 33.2011 26.8094 33.3256 27.4535 33.1909C28.107 33.0543 28.8046 32.6105 29.4776 31.7234C31.3955 28.8424 31.8802 26.4784 31.8802 22.9973C31.8801 21.7084 31.3927 20.3982 30.6057 19.4222C29.8177 18.4449 28.8178 17.9 27.8165 17.8999C26.742 17.8999 25.6675 18.5023 24.8169 19.2868C24.8146 19.2889 24.8118 19.291 24.8094 19.2931C24.4838 19.5885 24.0599 19.7523 23.6202 19.7523C23.1805 19.7523 22.7566 19.5885 22.431 19.2931C22.4287 19.2911 22.4263 19.2888 22.4241 19.2868C21.5744 18.5033 20.4983 17.8999 19.4239 17.8999C18.4227 17.9 17.4228 18.4448 16.6347 19.4222C15.8475 20.3984 15.3602 21.7085 15.3602 22.9962Z" fill="rgb(255,255,255)" fill-rule="nonzero" />
	<path id="48px Icon color (contur) 04" d="M13.0002 22.9962C13.0002 21.1464 13.6871 19.3183 14.7979 17.9408C15.9077 16.5645 17.5296 15.54 19.4239 15.5399C21.1107 15.5399 22.5713 16.3424 23.6196 17.201C24.6688 16.3413 26.1292 15.5399 27.8165 15.5399C29.7106 15.54 31.3326 16.5639 32.4425 17.9403C33.5534 19.3179 34.2401 21.1465 34.2402 22.9973C34.2402 26.8221 33.6801 29.6835 31.4193 33.0659C31.4071 33.084 31.3943 33.1021 31.3812 33.1195C30.4654 34.3377 29.3079 35.2141 27.9363 35.5008C26.5555 35.7895 25.146 35.4412 23.8155 34.5743C23.6951 34.4999 23.5423 34.501 23.4249 34.5749C22.0943 35.4405 20.6851 35.7891 19.3047 35.5008C17.9329 35.2143 16.7752 34.3379 15.8592 33.1195C15.8461 33.1021 15.8332 33.0845 15.8211 33.0665C13.56 29.685 13.0002 26.822 13.0002 22.9962ZM15.3602 22.9962C15.3602 26.4786 15.8446 28.8438 17.7623 31.7234C18.4352 32.6106 19.1332 33.0538 19.7869 33.1904C20.4313 33.325 21.216 33.2003 22.1504 32.5888L22.1682 32.5773C23.0554 32.0193 24.1852 32.0202 25.0721 32.5767C25.0787 32.5808 25.0853 32.5852 25.0917 32.5894C26.0253 33.2011 26.8094 33.3256 27.4535 33.1909C28.107 33.0543 28.8046 32.6105 29.4776 31.7234C31.3955 28.8424 31.8802 26.4784 31.8802 22.9973C31.8801 21.7084 31.3927 20.3982 30.6057 19.4222C29.8177 18.4449 28.8178 17.9 27.8165 17.8999C26.742 17.8999 25.6675 18.5023 24.8169 19.2868C24.8146 19.2889 24.8118 19.291 24.8094 19.2931C24.4838 19.5885 24.0599 19.7523 23.6202 19.7523C23.1805 19.7523 22.7566 19.5885 22.431 19.2931C22.4287 19.2911 22.4263 19.2888 22.4241 19.2868C21.5744 18.5033 20.4983 17.8999 19.4239 17.8999C18.4227 17.9 17.4228 18.4448 16.6347 19.4222C15.8475 20.3984 15.3602 21.7085 15.3602 22.9962Z" fill="rgb(255,180.183,115.394)" fill-rule="nonzero" />
	<path id="48px Icon color (contur) 04" d="M16.5402 23.7999C16.5402 22.8162 16.6912 21.9271 17.0887 21.1397C17.4927 20.3396 18.1028 19.7401 18.8604 19.262C19.4116 18.9142 20.1403 19.0791 20.4881 19.6302C20.8359 20.1813 20.6711 20.9101 20.12 21.2579C19.6434 21.5586 19.3682 21.8619 19.1958 22.2033C19.0169 22.5576 18.9002 23.0491 18.9002 23.7999C18.9002 24.4516 18.3719 24.9799 17.7202 24.9799C17.0685 24.9799 16.5402 24.4516 16.5402 23.7999ZM22.4402 17.8999C22.4402 16.9854 22.7503 15.6047 23.4208 14.4256C24.0942 13.2416 25.2984 11.9999 27.1602 11.9999C27.8119 11.9999 28.3402 12.5282 28.3402 13.1799C28.3402 13.8316 27.8119 14.3599 27.1602 14.3599C26.5051 14.3599 25.9394 14.7704 25.472 15.5924C25.0018 16.4193 24.8002 17.3985 24.8002 17.8999C24.8002 18.5516 24.2719 19.0799 23.6202 19.0799C22.9685 19.0799 22.4402 18.5516 22.4402 17.8999Z" fill="rgb(255,255,255)" fill-rule="nonzero" />
	<path id="48px Icon color (contur) 04" d="M16.5402 23.7999C16.5402 22.8162 16.6912 21.9271 17.0887 21.1397C17.4927 20.3396 18.1028 19.7401 18.8604 19.262C19.4116 18.9142 20.1403 19.0791 20.4881 19.6302C20.8359 20.1813 20.6711 20.9101 20.12 21.2579C19.6434 21.5586 19.3682 21.8619 19.1958 22.2033C19.0169 22.5576 18.9002 23.0491 18.9002 23.7999C18.9002 24.4516 18.3719 24.9799 17.7202 24.9799C17.0685 24.9799 16.5402 24.4516 16.5402 23.7999ZM22.4402 17.8999C22.4402 16.9854 22.7503 15.6047 23.4208 14.4256C24.0942 13.2416 25.2984 11.9999 27.1602 11.9999C27.8119 11.9999 28.3402 12.5282 28.3402 13.1799C28.3402 13.8316 27.8119 14.3599 27.1602 14.3599C26.5051 14.3599 25.9394 14.7704 25.472 15.5924C25.0018 16.4193 24.8002 17.3985 24.8002 17.8999C24.8002 18.5516 24.2719 19.0799 23.6202 19.0799C22.9685 19.0799 22.4402 18.5516 22.4402 17.8999Z" fill="rgb(255,180.183,115.394)" fill-rule="nonzero" />
</svg>
