<svg viewBox="0 0 36 40.0007" xmlns="http://www.w3.org/2000/svg" xmlns:xlink="http://www.w3.org/1999/xlink" width="36.000000" height="40.000732" fill="none" customFrame="#000000">
	<rect id="Icon contur wh 04" width="36.000000" height="40.000725" x="0.000000" y="0.000000" fill="rgb(255,255,255)" fill-opacity="0" />
	<path id="Icon contur wh 04" d="M0 18.6377C7.55218e-05 15.5024 1.16422 12.4041 3.04688 10.0693C4.92795 7.73661 7.67693 6.00011 10.8877 6C12.9269 6 14.7709 6.69245 16.3057 7.61719C16.5732 6.47527 17.0209 5.23895 17.6621 4.11133C18.8034 2.10447 20.8444 0 24 0C25.1046 0 26 0.89543 26 2C26 3.10457 25.1046 4 24 4C22.8897 4 21.9309 4.69578 21.1387 6.08887C20.9545 6.41274 20.7951 6.75061 20.6582 7.08887C21.9796 6.44037 23.4837 6 25.1123 6C28.3227 6.00011 31.0719 7.73555 32.9531 10.0684C34.8359 12.4033 35.9999 15.5027 36 18.6396C36 25.1223 35.0507 29.9721 31.2188 35.7051C31.1982 35.7358 31.1765 35.7664 31.1543 35.7959C29.602 37.8606 27.6401 39.346 25.3154 39.832C22.9751 40.3212 20.5862 39.731 18.3311 38.2617C18.127 38.1356 17.868 38.1375 17.6689 38.2627L17.668 38.2617C15.4127 39.7289 13.0253 40.3206 10.6855 39.832C8.3605 39.3464 6.39827 37.8609 4.8457 35.7959C4.8236 35.7665 4.8017 35.7366 4.78125 35.7061C0.948834 29.9747 0 25.1221 0 18.6377ZM6 20C6 18.3326 6.25593 16.8258 6.92969 15.4912C7.61445 14.135 8.64845 13.1189 9.93262 12.3086C10.8667 11.7192 12.102 11.9985 12.6914 12.9326C13.2808 13.8667 13.0015 15.102 12.0674 15.6914C11.2596 16.2011 10.7932 16.7152 10.501 17.2939C10.1978 17.8943 10 18.7275 10 20C10 21.1046 9.10457 22 8 22C6.89543 22 6 21.1046 6 20ZM4 18.6377C4 24.5401 4.82095 28.5489 8.07129 33.4297C9.21184 34.9333 10.3948 35.6845 11.5029 35.916C12.5952 36.1441 13.925 35.9328 15.5088 34.8965L15.5391 34.877C17.0427 33.9311 18.9577 33.9326 20.4609 34.876C20.472 34.8829 20.4832 34.8903 20.4941 34.8975C22.0764 35.9342 23.4055 36.1452 24.4971 35.917C25.6048 35.6854 26.7871 34.9332 27.9277 33.4297C31.1785 28.5466 32 24.5398 32 18.6396C31.9999 16.455 31.1737 14.2344 29.8398 12.5801C28.5042 10.9238 26.8095 10.0001 25.1123 10C23.2912 10 21.47 11.021 20.0283 12.3506C20.0244 12.3542 20.0196 12.3577 20.0156 12.3613C19.4637 12.862 18.7452 13.1396 18 13.1396C17.2548 13.1396 16.5363 12.862 15.9844 12.3613C15.9806 12.3579 15.9764 12.3541 15.9727 12.3506C14.5326 11.0227 12.7086 10 10.8877 10C9.19075 10.0001 7.49594 10.9235 6.16016 12.5801C4.82596 14.2347 4.00008 16.4552 4 18.6377Z" fill="rgb(255,255,255)" fill-rule="nonzero" />
</svg>
