<svg viewBox="0 0 39 39" xmlns="http://www.w3.org/2000/svg" xmlns:xlink="http://www.w3.org/1999/xlink" width="39.000000" height="39.000000" fill="none" customFrame="#000000">
	<rect id="Icon contur wh 08" width="39.000000" height="39.000000" x="0.000000" y="0.000000" fill="rgb(255,255,255)" fill-opacity="0" />
	<path id="Icon contur wh 08" d="M8 33.5C8 32.837 7.73642 32.2013 7.26758 31.7324C6.79874 31.2636 6.16304 31 5.5 31C4.83696 31 4.20126 31.2636 3.73242 31.7324C3.26358 32.2013 3 32.837 3 33.5C3 34.163 3.26358 34.7987 3.73242 35.2676C4.20126 35.7364 4.83696 36 5.5 36C6.16304 36 6.79874 35.7364 7.26758 35.2676C7.73642 34.7987 8 34.163 8 33.5ZM36 33.5C36 32.837 35.7364 32.2013 35.2676 31.7324C34.7987 31.2636 34.163 31 33.5 31C32.837 31 32.2013 31.2636 31.7324 31.7324C31.2636 32.2013 31 32.837 31 33.5C31 34.163 31.2636 34.7987 31.7324 35.2676C32.2013 35.7364 32.837 36 33.5 36C34.163 36 34.7987 35.7364 35.2676 35.2676C35.7364 34.7987 36 34.163 36 33.5ZM24 23.5C24 22.3065 23.5256 21.1623 22.6816 20.3184C21.8377 19.4744 20.6935 19 19.5 19C18.3065 19 17.1623 19.4744 16.3184 20.3184C15.4744 21.1623 15 22.3065 15 23.5C15 24.6935 15.4744 25.8377 16.3184 26.6816C17.1623 27.5256 18.3065 28 19.5 28C20.6935 28 21.8377 27.5256 22.6816 26.6816C23.5256 25.8377 24 24.6935 24 23.5ZM22 5.5C22 4.83696 21.7364 4.20126 21.2676 3.73242C20.7987 3.26358 20.163 3 19.5 3C18.837 3 18.2013 3.26358 17.7324 3.73242C17.2636 4.20126 17 4.83696 17 5.5C17 6.16304 17.2636 6.79874 17.7324 7.26758C18.2013 7.73642 18.837 8 19.5 8L19.7471 7.9873C20.3194 7.93048 20.8573 7.67781 21.2676 7.26758C21.7364 6.79874 22 6.16304 22 5.5ZM25 5.5C25 6.95869 24.4201 8.35722 23.3887 9.38867C22.7192 10.0581 21.895 10.5362 21 10.79L21 16.1523C22.4301 16.4443 23.7562 17.1488 24.8037 18.1963C26.2102 19.6028 27 21.5109 27 23.5C27 24.5694 26.7696 25.6142 26.3398 26.5713L30.0469 29.2188C31.0202 28.4336 32.2378 28 33.5 28C34.9587 28 36.3572 28.5799 37.3887 29.6113C38.4201 30.6428 39 32.0413 39 33.5C39 34.9587 38.4201 36.3572 37.3887 37.3887C36.3572 38.4201 34.9587 39 33.5 39C32.0413 39 30.6428 38.4201 29.6113 37.3887C28.5799 36.3572 28 34.9587 28 33.5C28 32.8696 28.1083 32.2503 28.3145 31.667L24.5889 29.0068C23.2059 30.285 21.3904 31 19.5 31C17.6094 31 15.7932 30.2853 14.4102 29.0068L10.6846 31.667C10.8908 32.2504 11 32.8694 11 33.5C11 34.9587 10.4201 36.3572 9.38867 37.3887C8.35722 38.4201 6.95869 39 5.5 39C4.04131 39 2.64278 38.4201 1.61133 37.3887C0.579878 36.3572 1.33227e-15 34.9587 0 33.5C1.33227e-15 32.0413 0.579878 30.6428 1.61133 29.6113C2.64278 28.5799 4.04131 28 5.5 28C6.76192 28 7.97891 28.4339 8.95215 29.2188L12.6592 26.5713C12.2296 25.6143 12 24.5692 12 23.5C12 21.5109 12.7898 19.6028 14.1963 18.1963C15.2438 17.1488 16.5699 16.4443 18 16.1523L18 10.79C17.105 10.5362 16.2808 10.0581 15.6113 9.38867C14.5799 8.35722 14 6.95869 14 5.5C14 4.04131 14.5799 2.64278 15.6113 1.61133C16.6428 0.579878 18.0413 1.33227e-15 19.5 0C20.9587 1.33227e-15 22.3572 0.579878 23.3887 1.61133C24.4201 2.64278 25 4.04131 25 5.5Z" fill="rgb(255,255,255)" fill-rule="nonzero" />
</svg>
