<svg viewBox="0 0 994.09 122.589" xmlns="http://www.w3.org/2000/svg" xmlns:xlink="http://www.w3.org/1999/xlink" width="994.089844" height="122.589355" fill="none" customFrame="#000000">
	<rect id="Ex max white 06" width="994.089844" height="122.589355" x="0.000000" y="0.000000" fill="rgb(255,255,255)" fill-opacity="0" />
	<path id="Ex max white 06" d="M3.87703 28.0155L1.02092 22.4802C0.331835 21.1446 0 19.7036 0 18.2889C0 15.2382 1.5429 12.3097 4.37392 10.8245C40.1818 -7.96054 74.0038 1.40645 91.4021 11.2102C93.7599 12.5388 95 14.8869 95 17.3762C95 18.6743 94.6627 20.0108 93.9708 21.2611C92.9314 23.1395 91.6076 25.505 89.942 28.4479C87.5114 32.7426 82.1589 34.1553 77.7864 32.0115C56.5322 21.5908 37.9312 21.5785 16.1367 31.9746C11.6439 34.1177 6.19225 32.5026 3.87703 28.0155ZM78.1626 113.412Q67.7036 122.589 47.4009 122.589Q27.1494 122.589 16.6392 113.412Q16.1002 112.939 15.5888 112.437L15.5865 112.435Q6.12891 103.159 6.12891 84.2397Q6.12891 65.3229 15.5846 56.0924L15.5862 56.0908Q16.0988 55.5905 16.6392 55.1187Q27.1494 45.9414 47.4009 45.9414Q67.7036 45.9414 78.1626 55.1187Q78.702 55.5896 79.2137 56.089L79.2172 56.0924Q88.6729 65.3229 88.6729 84.2397Q88.6729 103.159 79.2152 112.435L79.2127 112.438Q78.7014 112.939 78.1626 113.412ZM95.0273 93.7246L95.0273 86.3418Q95.0273 68.7051 101.231 59.5278Q102.023 58.3564 102.957 57.312Q109.339 50.1739 122.354 48.9663L150.604 46.4541L151.116 46.4541Q152.021 46.4541 152.744 46.8159Q152.882 46.8848 153.013 46.9668Q153.52 47.4458 153.749 48.0332Q153.936 48.5146 153.936 49.0688L153.936 55.7852Q153.936 56.2317 153.857 56.6642Q153.638 57.8696 152.808 58.9639Q152.042 59.986 151.041 60.3323L151.041 60.3324Q150.636 60.4724 150.193 60.502L128.66 62.2964Q117.945 63.168 113.587 67.3208Q109.229 71.4224 109.229 80.5996Q111.106 77.9595 113.574 76.1052Q119.396 71.73 128.506 71.73Q141.054 71.73 148.612 77.871L148.624 77.8803Q148.873 78.0831 149.117 78.2925Q151.07 79.959 152.527 81.9827Q156.807 87.9277 156.807 96.9546Q156.807 105.698 152.684 111.524Q151.101 113.76 148.912 115.565Q141.016 122.025 125.943 122.025Q109.123 122.025 101.454 113.648Q95.0273 106.628 95.0273 93.7246ZM64.166 65.9365Q63.8604 65.5734 63.5324 65.2317L63.5314 65.2306Q58.3028 59.7842 47.4009 59.7842Q36.5895 59.7842 31.3173 65.1882Q30.9641 65.5502 30.6357 65.9365Q25.4575 72.0889 25.4575 84.291Q25.4575 96.4419 30.6357 102.594Q30.9238 102.93 31.231 103.248L31.2316 103.248Q36.5013 108.695 47.4009 108.695Q58.3903 108.695 63.6149 103.207Q63.899 102.909 64.166 102.594Q69.3442 96.4419 69.3442 84.291Q69.3442 72.0889 64.166 65.9365ZM271.396 114.54Q270.406 113.601 269.54 112.56Q263.5 105.293 263.5 93.0068Q263.5 80.7252 269.53 73.4232L269.532 73.4208Q270.424 72.3415 271.447 71.3711Q272.17 70.6805 272.944 70.0528Q280.677 63.7832 293.493 63.7832Q306.754 63.7832 314.527 70.3148L314.53 70.3168Q315.019 70.7285 315.487 71.166Q316.659 72.254 317.657 73.4831L317.658 73.4843Q323.383 80.5376 323.383 92.2378L323.383 95.1602Q323.383 95.9907 323.051 96.6552Q322.829 97.0982 322.46 97.4673Q322.193 97.7339 321.879 97.919Q321.165 98.3389 320.204 98.3389L281.598 98.3389Q282.111 104.645 285.187 107.516Q288.314 110.387 295.133 110.387Q301.952 110.387 304.464 107.311Q305.976 105.46 307.915 104.704Q309.198 104.204 310.668 104.184L318.307 104.184Q319.189 104.184 319.862 104.558Q320.247 104.771 320.563 105.106Q320.898 105.423 321.112 105.807Q321.486 106.481 321.486 107.362Q321.486 110.545 320.174 113.037Q315.42 122.066 293.441 122.025Q280.279 122.025 272.529 115.549Q271.947 115.063 271.396 114.54ZM359.988 122.025Q346.186 122.025 338.261 115.201L338.248 115.19Q337.937 114.921 337.635 114.643Q336.716 113.794 335.903 112.855L335.9 112.852Q329.637 105.614 329.637 92.9556Q329.637 80.0994 336.01 72.8355Q336.754 71.9884 337.583 71.2173Q338.087 70.746 338.616 70.3046L338.62 70.3011Q346.431 63.7832 359.681 63.7832Q373.882 63.7832 381.47 68.2949Q385.337 70.5786 387.246 73.9657Q389.109 77.2702 389.109 81.625Q389.109 82.5065 388.735 83.1801Q388.522 83.5644 388.187 83.8809Q387.92 84.1475 387.605 84.3326Q386.891 84.7524 385.931 84.7524L378.292 84.7524Q377.429 84.7524 376.632 84.5232Q374.209 83.8261 372.396 81.0098Q371.783 80.034 370.979 79.2558L370.979 79.2552Q367.813 76.1904 361.68 76.1904Q354.366 76.1904 351.235 79.8095Q351.096 79.9703 350.965 80.1382Q347.94 84.0347 347.94 92.9043Q347.94 101.774 351.067 105.722Q351.135 105.806 351.206 105.889Q351.217 105.902 351.228 105.916Q354.44 109.669 362.039 109.669Q368.423 109.669 371.615 106.477L371.615 106.477Q372.345 105.747 372.908 104.85Q374.736 101.972 377.184 101.277Q377.963 101.056 378.804 101.056L386.443 101.056Q387.325 101.056 387.998 101.43Q388.383 101.644 388.699 101.979Q389.089 102.347 389.314 102.797Q389.622 103.413 389.622 104.184Q389.622 108.538 387.759 111.843Q385.85 115.23 381.983 117.514Q374.395 122.025 359.988 122.025ZM529.178 114.643Q528.293 113.826 527.506 112.924L527.501 112.919Q521.18 105.667 521.18 92.9043Q521.18 80.0259 527.571 72.8012L527.575 72.797Q528.331 71.9419 529.178 71.166Q537.176 63.7832 552.146 63.7832Q567.168 63.7832 575.167 71.166Q576.013 71.9419 576.77 72.797L576.773 72.8012Q583.165 80.0259 583.165 92.9043Q583.165 105.667 576.843 112.919L576.838 112.924Q576.051 113.826 575.167 114.643Q567.168 122.025 552.146 122.025Q537.176 122.025 529.178 114.643ZM588.445 106.593Q588.445 105.632 588.865 104.919L588.866 104.918Q589.051 104.604 589.317 104.337Q589.696 103.979 590.144 103.768Q590.787 103.466 591.573 103.466L599.263 103.466Q600.55 103.466 601.628 103.941Q603.469 104.753 604.698 106.952Q605.072 107.595 605.572 108.117L605.573 108.119Q607.744 110.387 612.286 110.387L622.693 110.387Q627.135 110.387 628.923 108.209Q630.127 106.742 630.127 104.286Q630.127 101.827 628.919 100.367Q627.131 98.2057 622.693 98.2363L609.979 98.2363Q609.07 98.2363 608.359 97.8604Q607.988 97.6639 607.671 97.3647Q607.372 97.048 607.176 96.6769Q606.8 95.9668 606.8 95.0576L606.8 89.7256Q606.8 88.7648 607.22 88.051L607.22 88.05Q607.405 87.7359 607.671 87.4697Q608.04 87.1008 608.484 86.8791Q609.148 86.5469 609.979 86.5469L621.719 86.5469Q625.103 86.5469 626.795 85.0601Q627.468 84.466 627.882 83.7264Q628.538 82.5515 628.538 81.0098Q628.538 79.468 627.882 78.2931Q627.468 77.5535 626.795 76.9595Q625.103 75.4214 621.719 75.4214L612.286 75.4214Q610.491 75.4214 608.594 76.3442Q607.269 76.9531 606.419 77.9622L606.418 77.9635Q606.052 78.3984 605.774 78.9077Q604.503 81.1238 602.632 81.9106Q601.559 82.3615 600.289 82.3428L592.649 82.3428Q591.74 82.3428 591.03 81.9668Q590.659 81.7704 590.342 81.4712Q590.076 81.205 589.891 80.8909L589.891 80.89Q589.471 80.1761 589.471 79.2153Q589.471 76.7695 590.309 74.6564Q591.844 70.7902 596.187 68.0386Q602.955 63.7832 612.491 63.7832L622.796 63.7832Q633.614 63.7832 639.92 67.7822Q642.568 69.4268 644.114 71.7923Q646.277 75.1047 646.277 79.8306Q646.277 83.8255 644.494 86.7232Q642.662 89.7011 638.946 91.52Q643.617 93.8823 645.842 97.6784Q647.867 101.132 647.867 105.773Q647.867 111.546 645.083 115.196Q643.763 116.927 641.817 118.18Q635.818 122.025 623.924 122.025L612.491 122.025Q602.186 122.025 595.315 117.821Q590.913 115.127 589.331 111.275Q588.445 109.116 588.445 106.593ZM730.975 117.309Q727.932 115.188 726.257 112.279Q724.207 108.719 724.207 103.979Q724.207 99.1772 726.31 95.6186Q727.98 92.7931 730.975 90.751Q737.793 86.1367 748.509 86.1367L765.479 86.1367Q765.479 80.1382 762.967 77.7798Q760.455 75.4214 754.148 75.4214Q747.979 75.4214 745.4 78.4644Q745.365 78.5063 745.33 78.5488Q743.826 80.3912 741.898 81.1302Q740.607 81.625 739.126 81.625L731.487 81.625Q730.578 81.625 729.868 81.2491Q729.497 81.0526 729.18 80.7534Q728.822 80.3743 728.611 79.9261Q728.309 79.283 728.309 78.4976Q728.309 75.3031 729.626 72.802Q734.375 63.7832 756.25 63.7832Q768.453 63.7832 775.835 69.269Q777.622 70.5844 778.977 72.2519Q783.218 77.4715 783.218 86.1367L783.218 117.873Q783.218 118.833 782.798 119.547L782.798 119.548Q782.613 119.862 782.347 120.128Q782.081 120.394 781.767 120.579L781.765 120.58Q781.052 121 780.091 121L770.196 121Q769.235 121 768.521 120.58L768.52 120.579Q768.206 120.394 767.94 120.128Q767.582 119.749 767.371 119.301Q767.068 118.658 767.068 117.873L767.068 116.283Q764.364 118.217 761.38 119.5Q755.425 122.06 748.355 122.025Q737.793 122.025 730.975 117.309ZM942.103 114.54Q941.113 113.601 940.247 112.56Q934.207 105.293 934.207 93.0068Q934.207 80.7252 940.237 73.4232Q941.129 72.3426 942.154 71.3711Q942.871 70.6866 943.638 70.0638L943.651 70.0528Q951.384 63.7832 964.2 63.7832Q977.461 63.7832 985.234 70.3148L985.237 70.3168Q985.726 70.7285 986.194 71.166Q987.366 72.254 988.364 73.4831L988.365 73.4843Q994.09 80.5376 994.09 92.2378L994.09 95.1602Q994.09 95.9907 993.758 96.6552Q993.536 97.0982 993.167 97.4673Q992.901 97.7333 992.587 97.9182L992.586 97.919Q991.872 98.3389 990.911 98.3389L952.305 98.3389Q952.818 104.645 955.894 107.516Q959.021 110.387 965.84 110.387Q972.659 110.387 975.171 107.311Q976.683 105.46 978.622 104.704L978.623 104.704Q979.905 104.204 981.375 104.184L989.014 104.184Q989.895 104.184 990.569 104.558Q990.953 104.771 991.27 105.106Q991.605 105.423 991.819 105.807Q992.193 106.481 992.193 107.362Q992.193 110.545 990.881 113.037Q986.127 122.066 964.148 122.025Q950.986 122.025 943.236 115.549Q942.654 115.063 942.103 114.54ZM165.781 117.873L165.781 67.9873Q165.781 67.0265 166.201 66.3127Q166.386 65.998 166.653 65.7314Q167.081 65.3033 167.597 65.0738Q168.194 64.8086 168.909 64.8086L180.393 64.8086Q181.275 64.8086 181.948 65.1828Q182.332 65.3963 182.649 65.7314Q182.915 65.998 183.101 66.3127Q183.521 67.0265 183.521 67.9873L183.521 108.593L199.568 108.593L199.568 67.9873Q199.568 67.0265 199.988 66.3127Q200.173 65.998 200.439 65.7314Q200.809 65.3623 201.252 65.1408Q201.916 64.8086 202.747 64.8086L214.18 64.8086Q215.061 64.8086 215.735 65.1828Q216.119 65.3963 216.436 65.7314Q216.702 65.998 216.887 66.3127Q217.307 67.0265 217.307 67.9873L217.307 108.593L233.406 108.593L233.406 67.9873Q233.406 67.0265 233.826 66.3127Q234.011 65.998 234.277 65.7314Q234.705 65.3033 235.222 65.0738Q235.819 64.8086 236.533 64.8086L247.966 64.8086Q248.848 64.8086 249.521 65.1828Q249.906 65.3963 250.222 65.7314Q250.557 66.048 250.771 66.4322Q251.145 67.1058 251.145 67.9873L251.145 108.593L256.169 108.593Q257.051 108.593 257.725 108.967Q258.109 109.181 258.425 109.516Q258.76 109.832 258.974 110.216Q259.348 110.89 259.348 111.771L259.348 117.873Q259.348 118.754 258.974 119.428Q258.76 119.812 258.425 120.128Q258.159 120.395 257.844 120.58Q257.13 121 256.169 121L168.909 121Q167.948 121 167.234 120.58Q166.919 120.395 166.653 120.128Q166.386 119.862 166.201 119.547Q165.781 118.833 165.781 117.873ZM392.75 74.0884L392.75 67.9873Q392.75 67.0265 393.17 66.3127Q393.355 65.998 393.622 65.7314Q393.991 65.3623 394.434 65.1408Q395.098 64.8086 395.929 64.8086L446.429 64.8086Q447.311 64.8086 447.984 65.1828Q448.369 65.3964 448.685 65.7314Q448.952 65.998 449.137 66.3127Q449.557 67.0265 449.557 67.9873L449.557 74.0884Q449.557 74.8738 449.254 75.5169Q449.043 75.9652 448.685 76.3442Q448.418 76.6109 448.104 76.7959Q447.39 77.2158 446.429 77.2158L430.074 77.2158L430.074 117.873Q430.074 118.587 429.809 119.184Q429.579 119.7 429.151 120.128Q428.885 120.395 428.57 120.58Q427.856 121 426.896 121L415.462 121Q414.553 121 413.843 120.624Q413.472 120.428 413.155 120.128Q412.797 119.749 412.586 119.301Q412.284 118.658 412.284 117.873L412.284 77.2158L395.929 77.2158Q395.02 77.2158 394.309 76.8399Q393.938 76.6434 393.622 76.3442Q393.264 75.9652 393.053 75.5169Q392.75 74.8738 392.75 74.0884ZM456.992 117.873L456.992 67.9873Q456.992 67.0265 457.412 66.3127Q457.597 65.998 457.864 65.7314Q458.292 65.3033 458.808 65.0738Q459.405 64.8086 460.12 64.8086L490.779 64.8086Q500.571 64.8086 506.621 68.6025Q509.276 70.2537 510.776 72.6331Q512.722 75.7211 512.722 80.0356Q512.722 84.0162 510.987 86.9809Q509.414 89.6676 506.416 91.52Q511.902 94.2789 514.034 98.6673Q515.388 101.455 515.388 104.901Q515.388 111.655 512.029 115.377Q510.977 116.543 509.595 117.411Q503.801 121 492.983 121L460.12 121Q459.334 121 458.691 120.697Q458.243 120.486 457.864 120.128Q457.506 119.749 457.295 119.301Q456.992 118.658 456.992 117.873ZM656.84 117.873L656.84 67.9873Q656.84 67.0265 657.26 66.3127L657.26 66.3117Q657.445 65.9977 657.711 65.7314Q658.139 65.3036 658.656 65.0738Q659.253 64.8086 659.967 64.8086L671.452 64.8086Q672.333 64.8086 673.007 65.1828Q673.391 65.3963 673.708 65.7314Q673.974 65.9977 674.159 66.3117L674.159 66.3127Q674.579 67.0265 674.579 67.9873L674.579 86.3418L697.035 86.3418L697.035 67.9873Q697.035 67.0265 697.455 66.3127L697.456 66.3117Q697.641 65.9977 697.907 65.7314Q698.276 65.3625 698.719 65.1408Q699.383 64.8086 700.214 64.8086L711.647 64.8086Q712.528 64.8086 713.202 65.1828Q713.586 65.3963 713.903 65.7314Q714.169 65.9977 714.354 66.3117L714.355 66.3127Q714.774 67.0265 714.774 67.9873L714.774 117.873Q714.774 118.833 714.355 119.547L714.354 119.548Q714.169 119.862 713.903 120.128Q713.637 120.394 713.323 120.579L713.322 120.58Q712.608 121 711.647 121L700.214 121Q699.305 121 698.595 120.624Q698.224 120.428 697.907 120.128Q697.549 119.749 697.338 119.301Q697.035 118.658 697.035 117.873L697.035 98.749L674.579 98.749L674.579 117.873Q674.579 118.754 674.205 119.428Q673.991 119.812 673.656 120.128Q673.336 120.449 672.953 120.651Q672.295 121 671.452 121L659.967 121Q659.006 121 658.293 120.58L658.291 120.579Q657.977 120.394 657.711 120.128Q657.445 119.862 657.26 119.548L657.26 119.547Q656.84 118.833 656.84 117.873ZM795.883 117.873L795.883 67.9873Q795.883 67.0265 796.303 66.3127L796.303 66.3117Q796.488 65.9977 796.754 65.7314Q797.182 65.3036 797.699 65.0738Q798.296 64.8086 799.01 64.8086L810.495 64.8086Q811.376 64.8086 812.05 65.1828Q812.434 65.3963 812.75 65.7314Q813.017 65.9977 813.202 66.3117L813.202 66.3127Q813.622 67.0265 813.622 67.9873L813.622 86.3418L836.078 86.3418L836.078 67.9873Q836.078 67.0265 836.498 66.3127L836.499 66.3117Q836.684 65.9977 836.95 65.7314Q837.319 65.3625 837.762 65.1408Q838.426 64.8086 839.257 64.8086L850.69 64.8086Q851.571 64.8086 852.245 65.1828Q852.629 65.3963 852.946 65.7314Q853.212 65.9977 853.397 66.3117L853.398 66.3127Q853.817 67.0265 853.817 67.9873L853.817 117.873Q853.817 118.833 853.398 119.547L853.397 119.548Q853.212 119.862 852.946 120.128Q852.68 120.394 852.366 120.579L852.365 120.58Q851.651 121 850.69 121L839.257 121Q838.348 121 837.638 120.624Q837.266 120.428 836.95 120.128Q836.592 119.749 836.381 119.301Q836.078 118.658 836.078 117.873L836.078 98.749L813.622 98.749L813.622 117.873Q813.622 118.754 813.248 119.428Q813.034 119.812 812.699 120.128Q812.379 120.449 811.996 120.651Q811.338 121 810.495 121L799.01 121Q798.049 121 797.336 120.58L797.334 120.579Q797.02 120.394 796.754 120.128Q796.488 119.862 796.303 119.548L796.303 119.547Q795.883 118.833 795.883 117.873ZM866.43 117.873L866.43 67.9873Q866.43 67.0265 866.85 66.3127L866.85 66.3117Q867.035 65.9977 867.301 65.7314Q867.729 65.3036 868.246 65.0738Q868.843 64.8086 869.557 64.8086L880.272 64.8086Q881.154 64.8086 881.828 65.1828Q882.212 65.3963 882.528 65.7314Q882.864 66.048 883.077 66.4322Q883.451 67.1058 883.451 67.9873L883.451 101.671L901.498 68.5Q901.636 68.2325 901.799 67.981Q902.603 66.7381 904.01 65.8853Q905.702 64.8086 907.292 64.8086L921.647 64.8086Q922.528 64.8086 923.202 65.1828Q923.586 65.3963 923.903 65.7314Q924.238 66.048 924.451 66.4322Q924.826 67.1058 924.826 67.9873L924.826 117.873Q924.826 118.754 924.451 119.428Q924.238 119.812 923.903 120.128Q923.637 120.394 923.323 120.579L923.322 120.58Q922.608 121 921.647 121L910.932 121Q909.971 121 909.257 120.58L909.256 120.579Q908.942 120.394 908.676 120.128Q908.318 119.749 908.107 119.301Q907.804 118.658 907.804 117.873L907.804 84.2397L889.757 117.309Q888.937 118.795 887.245 119.923Q885.553 121 883.964 121L869.557 121Q868.596 121 867.883 120.58L867.881 120.579Q867.567 120.394 867.301 120.128Q867.035 119.862 866.85 119.548L866.85 119.547Q866.43 118.833 866.43 117.873ZM281.496 87.521L305.336 87.521Q305.063 81.0797 301.71 78.0675Q298.764 75.4214 293.441 75.4214Q288.175 75.4214 285.224 78.0352Q281.825 81.0451 281.496 87.521ZM542.149 79.5742Q538.97 83.7271 538.97 92.853Q538.97 101.979 542.149 106.183Q542.776 107.013 543.545 107.679Q546.674 110.387 552.146 110.387Q557.713 110.387 560.856 107.627L560.857 107.627Q561.592 106.98 562.195 106.183Q565.425 101.979 565.425 92.853Q565.425 83.7271 562.195 79.5742Q561.628 78.8328 560.943 78.2237Q557.79 75.4214 552.146 75.4214Q546.597 75.4214 543.458 78.1724L543.457 78.1735Q542.74 78.8021 542.149 79.5742ZM952.203 87.521L976.043 87.521Q975.77 81.0797 972.417 78.0675Q969.471 75.4214 964.148 75.4214Q958.882 75.4214 955.931 78.0352Q952.532 81.0451 952.203 87.521ZM474.731 86.752L489.753 86.752Q491.398 86.752 492.6 86.0223Q493.084 85.7285 493.496 85.3164Q494.007 84.8055 494.342 84.1976Q494.983 83.0367 494.983 81.5225Q494.983 79.9606 494.301 78.7981Q493.976 78.2434 493.496 77.7798Q493.032 77.2996 492.478 76.9744Q491.315 76.293 489.753 76.293L474.731 76.293L474.731 86.752ZM125.892 83.4194Q120.501 83.4194 117.205 86.0468Q116.676 86.4681 116.202 86.957Q116.021 87.1431 115.85 87.3376Q112.818 90.7881 112.818 96.9033Q112.818 103.004 115.836 106.498L115.839 106.502Q116.015 106.706 116.202 106.901Q116.623 107.329 117.088 107.704Q120.405 110.387 125.892 110.387Q131.489 110.387 134.825 107.64L134.825 107.64Q135.247 107.293 135.633 106.901Q135.88 106.647 136.109 106.377Q139.068 102.899 139.068 96.9033Q139.068 90.8917 136.093 87.4553L136.093 87.4548Q135.871 87.1988 135.633 86.957Q135.194 86.505 134.708 86.1108Q131.392 83.4194 125.892 83.4194ZM749.739 97.7749Q746.15 97.7749 744.048 99.5181Q743.105 100.32 742.596 101.339Q741.998 102.535 741.998 104.03Q741.998 105.367 742.5 106.476Q743.037 107.665 744.151 108.593Q746.304 110.387 750.252 110.387Q751.879 110.387 753.482 110.191Q759.658 109.436 765.479 105.773L765.479 97.7749L749.739 97.7749ZM474.731 109.567L491.753 109.567Q494.216 109.567 495.662 108.354Q495.872 108.179 496.06 107.978Q496.391 107.636 496.65 107.246L496.651 107.245Q497.598 105.825 497.598 103.773Q497.598 101.722 496.651 100.302L496.65 100.301Q496.391 99.9113 496.06 99.5693Q495.872 99.3684 495.662 99.1928Q494.216 97.98 491.753 97.98L474.731 97.98L474.731 109.567Z" fill="rgb(255,255,255)" fill-rule="evenodd" />
</svg>
