<svg viewBox="0 0 36 36" xmlns="http://www.w3.org/2000/svg" xmlns:xlink="http://www.w3.org/1999/xlink" width="36.000000" height="36.000000" fill="none" customFrame="#000000">
	<rect id="Icon contur wh 09" width="36.000000" height="36.000000" x="0.000000" y="0.000000" fill="rgb(255,255,255)" fill-opacity="0" />
	<path id="Icon contur wh 09" d="M18 0C27.9414 0 36 8.0586 36 18C36 25.74 31.1148 32.3388 24.2604 34.8804C24.1445 34.9441 24.022 34.9948 23.895 35.0316L23.724 35.0712C21.8787 35.6881 19.9457 36.0018 18 36C8.0586 36 0 27.9414 0 18C0 8.0586 8.0586 0 18 0ZM23.238 4.5828L22.9212 6.1686C22.717 7.18923 22.2222 8.1291 21.4963 8.87509C20.7705 9.62108 19.8445 10.1414 18.8298 10.3734L18.108 10.539C17.6603 10.6411 17.2685 10.9104 17.0129 11.2919C16.7572 11.6733 16.657 12.1381 16.7328 12.591L17.0478 14.4774C17.1482 15.0821 17.0925 15.7023 16.886 16.2794C16.6796 16.8566 16.3292 17.3714 15.868 17.7752C15.4069 18.179 14.8503 18.4584 14.251 18.5869C13.6517 18.7153 13.0295 18.6887 12.4434 18.5094L10.1214 17.8002C9.01539 17.4621 8.04715 16.7779 7.35921 15.8482C6.67127 14.9185 6.29998 13.7925 6.3 12.636L6.3 9.603C4.59568 11.9758 3.65341 14.811 3.5983 17.7319C3.54319 20.6529 4.37785 23.5216 5.99146 25.957C7.60506 28.3925 9.92128 30.2795 12.6326 31.3676C15.3439 32.4557 18.322 32.6933 21.1716 32.049L20.1258 28.3914C20.0414 28.0974 19.8834 27.8298 19.6668 27.6138L17.4384 25.3836C17.1698 25.1152 16.9609 24.7931 16.8252 24.4384C16.6896 24.0838 16.6303 23.7045 16.6511 23.3253C16.672 22.9462 16.7727 22.5757 16.9465 22.2381C17.1203 21.9004 17.3633 21.6033 17.6598 21.366L20.4768 19.1142C21.0138 18.6846 21.6627 18.4178 22.3466 18.3454C23.0305 18.273 23.7209 18.398 24.336 18.7056L26.982 20.0286C27.777 20.4262 28.4616 21.0139 28.975 21.7395C29.4884 22.4652 29.8147 23.3064 29.925 24.1884L30.123 25.7742C31.2733 23.9797 32.011 21.9524 32.2829 19.8383C32.5549 17.7243 32.3543 15.5762 31.6957 13.5491C31.0371 11.5219 29.9368 9.66617 28.4743 8.11566C27.0117 6.56516 25.2233 5.35853 23.238 4.5828ZM22.725 21.9258L20.6946 23.5494L22.2138 25.0668C22.7684 25.6221 23.1953 26.2917 23.4648 27.0288L23.5872 27.4032L24.5646 30.8196C25.1958 30.4956 25.7982 30.1284 26.3718 29.718L26.9352 29.2932L26.3538 24.6348C26.3216 24.3782 26.2346 24.1316 26.0985 23.9116C25.9625 23.6917 25.7806 23.5037 25.5654 23.3604L25.371 23.2488L22.725 21.9258ZM18 3.6C15.1059 3.59514 12.2783 4.46679 9.8892 6.1002C9.8964 6.165 9.9 6.2316 9.9 6.3L9.9 12.636C9.89966 13.0216 10.0231 13.397 10.2522 13.7072C10.4813 14.0173 10.804 14.2456 11.1726 14.3586L13.4964 15.0678L13.1814 13.1814C12.955 11.8235 13.2558 10.4303 14.0223 9.28679C14.7888 8.14323 15.9631 7.33561 17.3052 7.029L18.027 6.8652C18.3657 6.78779 18.6747 6.61404 18.9168 6.36491C19.1589 6.11579 19.3237 5.80193 19.3914 5.4612L19.7442 3.7044C19.1654 3.63433 18.583 3.59946 18 3.6Z" fill="rgb(255,255,255)" fill-rule="evenodd" />
</svg>
