<svg viewBox="0 0 1178.66 128.027" xmlns="http://www.w3.org/2000/svg" xmlns:xlink="http://www.w3.org/1999/xlink" width="1178.660156" height="128.026855" fill="none" customFrame="#000000">
	<rect id="Ex max white 01" width="1178.660156" height="128.026810" x="0.000000" y="0.000000" fill="rgb(255,255,255)" fill-opacity="0" />
	<path id="Ex max white 01" d="M3.87703 28.0155L1.02092 22.4802C0.331835 21.1446 0 19.7036 0 18.2889C0 15.2382 1.5429 12.3097 4.37392 10.8245C40.1818 -7.96054 74.0038 1.40645 91.4021 11.2102C93.7599 12.5388 95 14.8869 95 17.3762C95 18.6743 94.6627 20.0108 93.9708 21.2611C92.9314 23.1395 91.6076 25.505 89.942 28.4479C87.5114 32.7426 82.1589 34.1553 77.7864 32.0115C56.5322 21.5908 37.9312 21.5785 16.1367 31.9746C11.6439 34.1177 6.19225 32.5026 3.87703 28.0155ZM10.332 122.182L10.332 58.3511Q10.332 57.3419 10.6846 56.4764Q11.0307 55.627 11.7163 54.916Q12.4025 54.2044 13.2398 53.8456Q14.0917 53.4805 15.1001 53.4805L81.6479 53.4805Q82.6563 53.4805 83.5082 53.8456Q84.3456 54.2044 85.0317 54.916Q85.7868 55.6711 86.1447 56.5821Q86.4673 57.4033 86.4673 58.3511L86.4673 122.182Q86.4673 123.073 86.1716 123.853Q85.8042 124.821 84.9805 125.617Q84.2694 126.302 83.4201 126.648Q82.5545 127.001 81.5454 127.001L72.0093 127.001Q71.0001 127.001 70.1346 126.648Q69.2852 126.302 68.5742 125.617Q67.8192 124.862 67.4613 123.951Q67.1387 123.129 67.1387 122.182L67.1387 67.9897L29.6606 67.9897L29.6606 122.182Q29.6606 123.129 29.3381 123.951Q28.9801 124.862 28.2251 125.617Q27.5829 126.259 26.8083 126.603Q25.9132 127.001 24.8413 127.001L15.2026 127.001Q14.1935 127.001 13.328 126.648Q12.4786 126.302 11.7676 125.617Q11.0125 124.862 10.6546 123.951Q10.332 123.129 10.332 122.182ZM104.975 120.644Q104.087 119.825 103.299 118.92L103.298 118.92Q96.9766 111.668 96.9766 98.9053Q96.9766 86.0269 103.368 78.8022L103.368 78.8019Q104.126 77.9447 104.975 77.167Q112.973 69.7842 127.943 69.7842Q142.965 69.7842 150.963 77.167Q151.812 77.9447 152.57 78.8019L152.57 78.8022Q158.961 86.0269 158.961 98.9053Q158.961 111.668 152.64 118.92L152.639 118.92Q151.851 119.825 150.963 120.644Q142.965 128.026 127.943 128.026Q112.973 128.026 104.975 120.644ZM296.928 120.644Q296.042 119.826 295.254 118.922L295.251 118.92Q288.93 111.668 288.93 98.9053Q288.93 86.0269 295.321 78.8022Q296.079 77.9448 296.928 77.167Q304.926 69.7842 319.896 69.7842Q334.918 69.7842 342.917 77.167Q343.765 77.9448 344.523 78.8022Q350.915 86.0269 350.915 98.9053Q350.915 111.668 344.593 118.92L344.59 118.922Q343.802 119.826 342.917 120.644Q334.918 128.026 319.896 128.026Q304.926 128.026 296.928 120.644ZM422.127 120.644Q421.241 119.826 420.453 118.922L420.451 118.92Q414.129 111.668 414.129 98.9053Q414.129 86.0269 420.52 78.8022Q421.278 77.9448 422.127 77.167Q430.125 69.7842 445.096 69.7842Q460.118 69.7842 468.116 77.167Q468.964 77.9448 469.723 78.8022Q476.114 86.0269 476.114 98.9053Q476.114 111.668 469.792 118.92L469.79 118.922Q469.002 119.826 468.116 120.644Q460.118 128.026 445.096 128.026Q430.125 128.026 422.127 120.644ZM620.131 123.31Q617.088 121.189 615.413 118.28Q613.363 114.72 613.363 109.979Q613.363 105.178 615.466 101.62Q617.136 98.7941 620.131 96.752Q626.95 92.1377 637.665 92.1377L654.635 92.1377Q654.635 86.1392 652.123 83.7808Q649.611 81.4224 643.305 81.4224Q637.135 81.4224 634.557 84.4654Q634.521 84.5073 634.486 84.5498Q632.982 86.3921 631.054 87.1312Q629.763 87.626 628.283 87.626L620.644 87.626Q619.735 87.626 619.024 87.25Q618.653 87.0536 618.336 86.7544Q617.978 86.3753 617.767 85.927Q617.465 85.284 617.465 84.4985Q617.465 81.304 618.782 78.8029Q623.531 69.7842 645.407 69.7842Q657.609 69.7842 664.992 75.27Q666.779 76.5854 668.134 78.2529Q672.375 83.4725 672.375 92.1377L672.375 123.874Q672.375 124.834 671.955 125.548L671.954 125.549Q671.769 125.863 671.503 126.129Q671.237 126.395 670.923 126.58L670.922 126.581Q670.208 127.001 669.247 127.001L659.352 127.001Q658.391 127.001 657.677 126.581L657.676 126.58Q657.362 126.395 657.096 126.129Q656.738 125.75 656.527 125.302Q656.225 124.659 656.225 123.874L656.225 122.284Q653.52 124.218 650.536 125.501Q644.581 128.061 637.511 128.026Q626.95 128.026 620.131 123.31ZM988.658 120.644Q987.773 119.827 986.986 118.925L986.982 118.92Q980.66 111.668 980.66 98.9053Q980.66 86.0269 987.051 78.8022L987.055 78.798Q987.812 77.9429 988.658 77.167Q996.656 69.7842 1011.63 69.7842Q1026.65 69.7842 1034.65 77.167Q1035.5 77.9448 1036.25 78.8022Q1042.65 86.0269 1042.65 98.9053Q1042.65 111.668 1036.32 118.92L1036.32 118.925Q1035.53 119.827 1034.65 120.644Q1026.65 128.026 1011.63 128.026Q996.656 128.026 988.658 120.644ZM1126.67 120.541Q1125.68 119.602 1124.82 118.561Q1118.78 111.294 1118.78 99.0078Q1118.78 86.7262 1124.81 79.4242Q1125.7 78.3436 1126.72 77.3721Q1127.45 76.6815 1128.22 76.0538Q1135.95 69.7842 1148.77 69.7842Q1162.03 69.7842 1169.8 76.3157L1169.83 76.3401Q1170.31 76.7412 1170.76 77.167Q1171.94 78.2555 1172.94 79.4853Q1178.66 86.5387 1178.66 98.2388L1178.66 101.161Q1178.66 101.992 1178.33 102.656Q1178.11 103.099 1177.74 103.468Q1177.47 103.735 1177.16 103.92Q1176.44 104.34 1175.48 104.34L1136.88 104.34Q1137.39 110.646 1140.46 113.517Q1143.59 116.388 1150.41 116.388Q1157.23 116.388 1159.74 113.312Q1161.25 111.461 1163.19 110.705Q1164.48 110.205 1165.95 110.185L1173.58 110.185Q1174.47 110.185 1175.14 110.559L1175.14 110.56Q1175.52 110.773 1175.84 111.107Q1176.18 111.424 1176.39 111.808Q1176.76 112.482 1176.76 113.363Q1176.76 116.546 1175.45 119.038Q1170.7 128.067 1148.72 128.026Q1135.56 128.026 1127.81 121.55L1127.8 121.547Q1127.22 121.062 1126.67 120.541ZM161.117 123.874L161.117 117.772Q161.117 116.812 161.537 116.098Q161.722 115.783 161.989 115.517Q162.358 115.147 162.801 114.926Q163.465 114.594 164.296 114.594L168.295 114.594L175.319 86.3442Q176.504 81.6174 179.351 78.3288Q185.861 70.8096 201.056 70.8096L224.333 70.8096Q225.214 70.8096 225.888 71.1838Q226.272 71.3973 226.588 71.7324Q226.924 72.049 227.137 72.4332Q227.511 73.1068 227.511 73.9883L227.511 123.874Q227.511 124.588 227.246 125.185Q227.016 125.701 226.588 126.129Q226.322 126.396 226.007 126.581Q225.293 127.001 224.333 127.001L164.296 127.001Q163.387 127.001 162.677 126.625Q162.305 126.429 161.989 126.129Q161.631 125.75 161.42 125.302Q161.117 124.659 161.117 123.874ZM240.121 123.874L240.121 73.9883Q240.121 73.0275 240.541 72.3137Q240.726 71.999 240.993 71.7324Q241.421 71.3043 241.937 71.0748Q242.534 70.8096 243.249 70.8096L281.598 70.8096Q282.368 70.8096 282.984 71.1176Q283.435 71.3428 283.803 71.7324Q284.138 72.0489 284.351 72.4332Q284.726 73.1068 284.726 73.9883L284.726 80.0894Q284.726 80.8039 284.46 81.4007Q284.231 81.9171 283.803 82.3452Q283.482 82.6656 283.1 82.8682Q282.441 83.2168 281.598 83.2168L257.86 83.2168L257.86 123.874Q257.86 124.588 257.595 125.185Q257.366 125.701 256.938 126.129Q256.617 126.45 256.234 126.652Q255.576 127.001 254.733 127.001L243.249 127.001Q242.463 127.001 241.82 126.698Q241.372 126.487 240.993 126.129Q240.635 125.75 240.424 125.302Q240.121 124.659 240.121 123.874ZM354.094 80.0894L354.094 73.9883Q354.094 73.0275 354.514 72.3137Q354.699 71.999 354.965 71.7324Q355.334 71.3633 355.777 71.1418Q356.442 70.8096 357.272 70.8096L407.773 70.8096Q408.654 70.8096 409.328 71.1838Q409.712 71.3974 410.029 71.7324Q410.295 71.999 410.48 72.3137Q410.9 73.0275 410.9 73.9883L410.9 80.0894Q410.9 80.8748 410.598 81.5179Q410.387 81.9662 410.029 82.3452Q409.762 82.6118 409.448 82.7969Q408.734 83.2168 407.773 83.2168L391.418 83.2168L391.418 123.874Q391.418 124.588 391.153 125.185Q390.923 125.701 390.495 126.129Q390.228 126.396 389.914 126.581Q389.2 127.001 388.239 127.001L376.806 127.001Q375.897 127.001 375.187 126.625Q374.816 126.429 374.499 126.129Q374.141 125.75 373.93 125.302Q373.627 124.659 373.627 123.874L373.627 83.2168L357.272 83.2168Q356.363 83.2168 355.653 82.8409Q355.282 82.6444 354.965 82.3452Q354.607 81.9662 354.396 81.5179Q354.094 80.8748 354.094 80.0894ZM485.602 123.874L485.602 73.9883Q485.602 73.0275 486.021 72.3137Q486.207 71.999 486.473 71.7324Q486.901 71.3043 487.418 71.0748Q488.014 70.8096 488.729 70.8096L519.388 70.8096Q529.181 70.8096 535.23 74.6035Q537.886 76.2547 539.385 78.6341Q541.332 81.7221 541.332 86.0366Q541.332 90.0172 539.596 92.9818Q538.023 95.6686 535.025 97.521Q540.512 100.28 542.643 104.668Q543.998 107.456 543.998 110.902Q543.998 117.656 540.638 121.378Q539.586 122.544 538.204 123.412Q532.411 127.001 521.593 127.001L488.729 127.001Q487.944 127.001 487.301 126.698Q486.852 126.487 486.473 126.129Q486.115 125.75 485.904 125.302Q485.602 124.659 485.602 123.874ZM609.622 124.745Q609.622 125.686 609.157 126.235Q608.509 127.001 606.956 127.001L597.266 127.001Q595.486 127.001 593.968 126.371Q591.287 125.259 589.421 122.182L582.91 111.569Q580.801 108.148 577.737 106.443Q574.694 104.75 570.708 104.75L570.708 123.874Q570.708 124.755 570.334 125.429Q570.12 125.813 569.785 126.129Q569.465 126.45 569.082 126.652Q568.423 127.001 567.581 127.001L556.096 127.001Q555.135 127.001 554.422 126.581L554.42 126.58Q554.106 126.395 553.84 126.129Q553.574 125.863 553.389 125.549L553.389 125.548Q552.969 124.834 552.969 123.874L552.969 73.9883Q552.969 73.0275 553.389 72.3137L553.389 72.3127Q553.574 71.9986 553.84 71.7324Q554.268 71.3045 554.785 71.0748Q555.382 70.8096 556.096 70.8096L567.581 70.8096Q568.462 70.8096 569.136 71.1838Q569.52 71.3972 569.836 71.7324Q570.103 71.9986 570.288 72.3127L570.288 72.3137Q570.708 73.0275 570.708 73.9883L570.708 93.0605Q576.339 93.0605 579.722 90.3033Q581.7 88.692 582.91 86.1392L587.832 75.6802Q588.386 74.4898 589.224 73.5534Q589.937 72.7558 590.857 72.1426Q592.098 71.3151 593.458 71.0013L593.46 71.0009Q594.29 70.8096 595.164 70.8096L604.854 70.8096Q606.447 70.8096 607.05 71.5825Q607.417 72.0528 607.417 72.8091Q607.417 73.937 606.597 75.6802L599.983 89.6255Q599.08 91.4859 597.827 93.0688L597.826 93.0705Q596.731 94.4531 595.369 95.624Q592.679 97.9362 589.599 98.7283Q589.332 98.7968 589.062 98.854Q589.133 98.8751 589.203 98.8969Q595.42 100.832 599.983 108.083L608.699 122.182Q609.57 123.668 609.622 124.745ZM778.504 124.745Q778.504 125.686 778.04 126.235Q777.392 127.001 775.838 127.001L766.148 127.001Q764.369 127.001 762.851 126.371Q760.17 125.259 758.304 122.182L751.793 111.569Q749.684 108.148 746.62 106.443Q743.576 104.75 739.591 104.75L739.591 123.874Q739.591 124.755 739.217 125.429Q739.003 125.813 738.668 126.129Q738.348 126.45 737.965 126.652Q737.306 127.001 736.463 127.001L724.979 127.001Q724.018 127.001 723.304 126.581L723.303 126.58Q722.989 126.395 722.723 126.129Q722.457 125.863 722.272 125.549L722.271 125.548Q721.852 124.834 721.852 123.874L721.852 73.9883Q721.852 73.0275 722.271 72.3137L722.272 72.3127Q722.457 71.9986 722.723 71.7324Q723.151 71.3045 723.668 71.0748Q724.264 70.8096 724.979 70.8096L736.463 70.8096Q737.345 70.8096 738.018 71.1838Q738.403 71.3972 738.719 71.7324Q738.985 71.9986 739.17 72.3127L739.171 72.3137Q739.591 73.0275 739.591 73.9883L739.591 93.0605Q745.221 93.0605 748.605 90.3033Q750.583 88.692 751.793 86.1392L756.715 75.6802Q757.269 74.4898 758.106 73.5534Q758.82 72.7558 759.74 72.1426Q760.981 71.3151 762.341 71.0013L762.342 71.0009Q763.172 70.8096 764.046 70.8096L773.736 70.8096Q775.33 70.8096 775.933 71.5825Q776.3 72.0528 776.3 72.8091Q776.3 73.937 775.479 75.6802L768.866 89.6255Q767.963 91.4859 766.71 93.0688L766.708 93.0705Q765.614 94.4531 764.251 95.624Q761.562 97.9362 758.481 98.7283Q758.215 98.7968 757.945 98.854Q758.015 98.8751 758.085 98.8969Q764.303 100.832 768.866 108.083L777.582 122.182Q778.453 123.668 778.504 124.745ZM822.75 123.874L822.75 73.9883Q822.75 73.0275 823.17 72.3137L823.17 72.3127Q823.355 71.9986 823.622 71.7324Q824.049 71.3045 824.566 71.0748Q825.163 70.8096 825.877 70.8096L837.362 70.8096Q838.132 70.8096 838.748 71.1176Q839.198 71.3428 839.566 71.7324Q839.902 72.049 840.115 72.4332Q840.489 73.1068 840.489 73.9883L840.489 114.594L856.537 114.594L856.537 73.9883Q856.537 73.0275 856.956 72.3137L856.957 72.3127Q857.142 71.9986 857.408 71.7324Q857.777 71.3634 858.22 71.1418Q858.885 70.8096 859.715 70.8096L871.148 70.8096Q872.03 70.8096 872.704 71.1838Q873.088 71.3972 873.404 71.7324Q873.67 71.9986 873.855 72.3127L873.856 72.3137Q874.276 73.0275 874.276 73.9883L874.276 114.594L890.375 114.594L890.375 73.9883Q890.375 73.0275 890.794 72.3137L890.795 72.3127Q890.98 71.9986 891.246 71.7324Q891.674 71.3045 892.191 71.0748Q892.787 70.8096 893.502 70.8096L904.935 70.8096Q905.816 70.8096 906.49 71.1838Q906.874 71.3972 907.191 71.7324Q907.526 72.049 907.74 72.4332Q908.114 73.1068 908.114 73.9883L908.114 123.874Q908.114 124.588 907.849 125.185Q907.619 125.701 907.191 126.129Q906.925 126.395 906.611 126.58L906.61 126.581Q905.896 127.001 904.935 127.001L825.877 127.001Q825.092 127.001 824.449 126.698Q824.001 126.487 823.622 126.129Q823.264 125.75 823.053 125.302Q822.75 124.659 822.75 123.874ZM977.43 124.745Q977.43 125.686 976.966 126.235Q976.318 127.001 974.764 127.001L965.074 127.001Q963.295 127.001 961.777 126.371Q959.096 125.259 957.23 122.182L950.719 111.569Q948.61 108.148 945.546 106.443Q942.502 104.75 938.517 104.75L938.517 123.874Q938.517 124.755 938.142 125.429Q937.929 125.813 937.594 126.129Q937.273 126.45 936.891 126.652Q936.232 127.001 935.389 127.001L923.905 127.001Q922.944 127.001 922.23 126.581L922.229 126.58Q921.915 126.395 921.649 126.129Q921.383 125.863 921.198 125.549L921.197 125.548Q920.777 124.834 920.777 123.874L920.777 73.9883Q920.777 73.0275 921.197 72.3137L921.198 72.3127Q921.383 71.9986 921.649 71.7324Q922.077 71.3045 922.593 71.0748Q923.19 70.8096 923.905 70.8096L935.389 70.8096Q936.27 70.8096 936.944 71.1838Q937.328 71.3972 937.645 71.7324Q937.911 71.9986 938.096 72.3127L938.097 72.3137Q938.517 73.0275 938.517 73.9883L938.517 93.0605Q944.147 93.0605 947.531 90.3033Q949.508 88.692 950.719 86.1392L955.641 75.6802Q956.194 74.4898 957.032 73.5534Q957.746 72.7558 958.666 72.1426Q959.907 71.3151 961.267 71.0013L961.268 71.0009Q962.098 70.8096 962.972 70.8096L972.662 70.8096Q974.256 70.8096 974.859 71.5825Q975.226 72.0528 975.226 72.8091Q975.226 73.937 974.405 75.6802L967.792 89.6255Q966.889 91.4859 965.635 93.0688L965.634 93.0705Q964.539 94.4531 963.177 95.624Q960.488 97.9362 957.407 98.7283Q957.141 98.7968 956.871 98.854Q956.941 98.8751 957.011 98.8969Q963.229 100.832 967.792 108.083L976.507 122.182Q977.379 123.668 977.43 124.745ZM1047 123.617L1056.23 86.3442Q1057.42 81.618 1060.26 78.3288Q1066.77 70.8096 1081.97 70.8096L1106.22 70.8096Q1106.99 70.8096 1107.6 71.1176Q1108.05 71.3428 1108.42 71.7324Q1108.76 72.049 1108.97 72.4332Q1109.35 73.1069 1109.35 73.9883L1109.35 123.874Q1109.35 124.588 1109.08 125.185Q1108.85 125.701 1108.42 126.129Q1108.1 126.449 1107.72 126.651L1107.72 126.652Q1107.06 127.001 1106.22 127.001L1094.73 127.001Q1093.95 127.001 1093.3 126.698L1093.3 126.697Q1092.86 126.487 1092.48 126.129Q1092.12 125.75 1091.91 125.302Q1091.61 124.659 1091.61 123.874L1091.61 83.2168L1081.97 83.2168Q1078.75 83.2168 1076.6 84.7266Q1073.94 86.59 1072.89 90.7534L1064.84 123.207Q1064.61 124.053 1064.15 124.745Q1063.69 125.437 1063 125.976Q1062.05 126.705 1061 126.916Q1060.57 127.001 1060.13 127.001L1049.62 127.001Q1048.47 127.001 1047.78 126.441Q1047.64 126.323 1047.51 126.181Q1046.85 125.309 1046.85 124.694Q1046.85 124.079 1047 123.617ZM117.946 85.5752Q114.767 89.728 114.767 98.854Q114.767 107.98 117.946 112.184Q118.573 113.014 119.342 113.68L119.342 113.68Q122.47 116.388 127.943 116.388Q133.51 116.388 136.653 113.628Q137.389 112.982 137.992 112.184Q141.222 107.98 141.222 98.854Q141.222 89.728 137.992 85.5752Q137.425 84.834 136.74 84.2251L136.739 84.2247Q133.587 81.4224 127.943 81.4224Q122.393 81.4224 119.255 84.1734Q118.537 84.8024 117.946 85.5752ZM309.899 85.5752Q306.72 89.728 306.72 98.854Q306.72 107.98 309.899 112.184Q310.526 113.014 311.295 113.68Q314.423 116.388 319.896 116.388Q325.463 116.388 328.606 113.628L328.607 113.628Q329.342 112.981 329.945 112.184Q333.175 107.98 333.175 98.854Q333.175 89.728 329.945 85.5752Q329.378 84.8337 328.693 84.2247Q325.54 81.4224 319.896 81.4224Q314.347 81.4224 311.208 84.1734Q310.49 84.8026 309.899 85.5752ZM435.098 85.5752Q431.919 89.728 431.919 98.854Q431.919 107.98 435.098 112.184Q435.726 113.014 436.495 113.68Q439.623 116.388 445.096 116.388Q450.662 116.388 453.805 113.628L453.806 113.628Q454.542 112.981 455.145 112.184Q458.375 107.98 458.375 98.854Q458.375 89.728 455.145 85.5752Q454.577 84.8337 453.892 84.2247Q450.739 81.4224 445.096 81.4224Q439.546 81.4224 436.407 84.1734Q435.69 84.8026 435.098 85.5752ZM1001.63 85.5752Q998.451 89.728 998.451 98.854Q998.451 107.98 1001.63 112.184Q1002.26 113.014 1003.03 113.68Q1006.15 116.388 1011.63 116.388Q1017.19 116.388 1020.34 113.628L1020.34 113.628Q1021.07 112.981 1021.68 112.184Q1024.91 107.98 1024.91 98.854Q1024.91 89.728 1021.68 85.5752Q1021.11 84.8337 1020.42 84.2247Q1017.27 81.4224 1011.63 81.4224Q1006.08 81.4224 1002.94 84.1734L1002.94 84.1745Q1002.22 84.803 1001.63 85.5752ZM1136.77 93.522L1160.61 93.522Q1160.34 87.0807 1156.99 84.0685Q1154.04 81.4224 1148.72 81.4224Q1143.45 81.4224 1140.5 84.0362Q1137.1 87.0463 1136.77 93.522ZM503.341 92.7529L518.363 92.7529Q520.008 92.7529 521.21 92.0232Q521.694 91.7292 522.105 91.3174Q522.616 90.8064 522.952 90.1986Q523.592 89.0376 523.592 87.5234Q523.592 85.9616 522.911 84.7991Q522.585 84.2442 522.105 83.7808Q521.642 83.3005 521.087 82.9754Q519.925 82.2939 518.363 82.2939L503.341 82.2939L503.341 92.7529ZM185.06 114.594L209.772 114.594L209.772 83.2168L200.492 83.2168Q197.013 83.2168 194.725 84.8672Q192.122 86.7436 191.059 90.7534L185.06 114.594ZM638.896 103.776Q635.307 103.776 633.205 105.519Q632.261 106.321 631.752 107.34Q631.154 108.536 631.154 110.031Q631.154 111.367 631.656 112.477Q632.193 113.666 633.307 114.594Q635.46 116.388 639.408 116.388Q641.035 116.388 642.638 116.192Q648.815 115.437 654.635 111.774L654.635 103.776L638.896 103.776ZM503.341 115.568L520.362 115.568Q522.826 115.568 524.272 114.355L524.276 114.352Q524.483 114.178 524.669 113.979Q525 113.636 525.26 113.246Q526.207 111.826 526.207 109.774Q526.207 107.723 525.26 106.303Q525 105.913 524.669 105.57Q524.483 105.371 524.276 105.197L524.272 105.194Q522.826 103.981 520.362 103.981L503.341 103.981L503.341 115.568Z" fill="rgb(255,255,255)" fill-rule="evenodd" />
</svg>
