<svg viewBox="0 0 32 40" xmlns="http://www.w3.org/2000/svg" xmlns:xlink="http://www.w3.org/1999/xlink" width="32.000000" height="40.000000" fill="none" customFrame="#000000">
	<rect id="Icon contur wh 01" width="32.000000" height="40.000000" x="0.000000" y="0.000000" fill="rgb(255,255,255)" fill-opacity="0" />
	<path id="Icon contur wh 01" d="M20 30C20 29.4696 19.7891 28.961 19.4141 28.5859C19.039 28.2109 18.5304 28 18 28L14 28C13.4696 28 12.961 28.2109 12.5859 28.5859C12.2109 28.961 12 29.4696 12 30L12 36L20 36L20 30ZM18 14C19.1046 14 20 14.8954 20 16C20 17.1046 19.1046 18 18 18L14 18C12.8954 18 12 17.1046 12 16C12 14.8954 12.8954 14 14 14L18 14ZM24 36C25.0609 36 26.078 35.5783 26.8281 34.8281C27.5314 34.1248 27.9461 33.1869 27.9951 32.1982L28 32L28 20C28 17.3478 26.9467 14.8041 25.0713 12.9287C23.3132 11.1706 20.9676 10.1354 18.4961 10.0127L18 10L14 10C11.3478 10 8.80408 11.0533 6.92871 12.9287C5.05335 14.8041 4 17.3478 4 20L4 32C4 33.0609 4.42173 34.078 5.17188 34.8281C5.92202 35.5783 6.93913 36 8 36L8 30C8 28.4087 8.6326 26.883 9.75781 25.7578C10.883 24.6326 12.4087 24 14 24L18 24C19.5913 24 21.117 24.6326 22.2422 25.7578C23.3674 26.883 24 28.4087 24 30L24 36ZM17.9902 5.80273C17.9449 5.34474 17.7423 4.91422 17.4141 4.58594C17.0858 4.25765 16.6553 4.05515 16.1973 4.00977L16 4C15.4696 4 14.961 4.21086 14.5859 4.58594C14.2109 4.96101 14 5.46957 14 6L18 6L17.9902 5.80273ZM22 6.58398C24.2082 7.24242 26.2405 8.4417 27.8994 10.1006C30.5249 12.7261 32 16.287 32 20L32 32C32 34.1217 31.1575 36.1569 29.6572 37.6572C28.1569 39.1575 26.1217 40 24 40L8 40C5.87827 40 3.84306 39.1575 2.34277 37.6572C0.842483 36.1569 0 34.1217 0 32L0 20C1.9984e-15 16.287 1.47508 12.7261 4.10059 10.1006C5.75947 8.4417 7.79183 7.24242 10 6.58398L10 6C10 4.4087 10.6326 2.88303 11.7578 1.75781C12.883 0.632594 14.4087 1.33227e-15 16 0L16.2979 0.0078125C17.7807 0.0814626 19.1874 0.703003 20.2422 1.75781C21.3674 2.88303 22 4.4087 22 6L22 6.58398Z" fill="rgb(255,255,255)" fill-rule="nonzero" />
</svg>
