<svg viewBox="0 0 48 48" xmlns="http://www.w3.org/2000/svg" xmlns:xlink="http://www.w3.org/1999/xlink" width="48.000000" height="48.000000" fill="none" customFrame="#000000">
	<rect id="48px Icon color (contur) 01" width="48.000000" height="48.000000" x="0.000000" y="0.000000" fill="rgb(255,255,255)" fill-opacity="0" />
	<path id="48px Icon color (contur) 01" d="M0 24C0 15.5992 0 11.3988 1.6349 8.19014C3.073 5.36771 5.36771 3.073 8.19014 1.6349C11.3988 0 15.5992 0 24 0C32.4008 0 36.6012 0 39.8099 1.6349C42.6323 3.073 44.927 5.36771 46.3651 8.19014C48 11.3988 48 15.5992 48 24C48 32.4008 48 36.6012 46.3651 39.8099C44.927 42.6323 42.6323 44.927 39.8099 46.3651C36.6012 48 32.4008 48 24 48C15.5992 48 11.3988 48 8.19014 46.3651C5.36771 44.927 3.073 42.6323 1.6349 39.8099C0 36.6012 0 32.4008 0 24Z" fill="rgb(255,255,255)" fill-rule="evenodd" />
	<path id="48px Icon color (contur) 01" d="M32.375 24C32.375 22.1435 31.6837 20.3629 30.453 19.0501C29.2993 17.8194 27.76 17.0948 26.1381 17.0089L25.8125 17L23.1875 17C21.447 17 19.7777 17.7373 18.547 19.0501C17.3163 20.3629 16.625 22.1435 16.625 24L16.625 32.4C16.625 33.1426 16.9018 33.8546 17.394 34.3797C17.8863 34.9048 18.5538 35.2 19.25 35.2L29.75 35.2L29.8801 35.1966C30.5289 35.1623 31.1444 34.872 31.606 34.3797C32.0675 33.8874 32.3396 33.2309 32.3718 32.5388L32.375 32.4L32.375 24ZM25.8061 14.0619C25.7763 13.7413 25.6434 13.44 25.428 13.2102C25.2125 12.9804 24.93 12.8386 24.6295 12.8068L24.5 12.8C24.1519 12.8 23.8182 12.9476 23.572 13.2102C23.3259 13.4727 23.1875 13.8287 23.1875 14.2L25.8125 14.2L25.8061 14.0619ZM28.4375 14.6088C29.8866 15.0697 31.2203 15.9092 32.309 17.0704C34.032 18.9083 35 21.4009 35 24L35 32.4C35 33.8852 34.4471 35.3099 33.4626 36.3601C32.478 37.4103 31.1424 38 29.75 38L19.25 38C17.8576 38 16.522 37.4103 15.5374 36.3601C14.5529 35.3099 14 33.8852 14 32.4L14 24C14 21.4009 14.968 18.9083 16.691 17.0704C17.7797 15.9092 19.1134 15.0697 20.5625 14.6088L20.5625 14.2C20.5625 13.0861 20.9776 12.0181 21.7161 11.2305C22.4545 10.4428 23.4557 10 24.5 10L24.6955 10.0055C25.6686 10.057 26.5917 10.4921 27.2839 11.2305C28.0224 12.0181 28.4375 13.0861 28.4375 14.2L28.4375 14.6088Z" fill="rgb(255,255,255)" fill-rule="nonzero" />
	<path id="48px Icon color (contur) 01" d="M32.375 24C32.375 22.1435 31.6837 20.3629 30.453 19.0501C29.2993 17.8194 27.76 17.0948 26.1381 17.0089L25.8125 17L23.1875 17C21.447 17 19.7777 17.7373 18.547 19.0501C17.3163 20.3629 16.625 22.1435 16.625 24L16.625 32.4C16.625 33.1426 16.9018 33.8546 17.394 34.3797C17.8863 34.9048 18.5538 35.2 19.25 35.2L29.75 35.2L29.8801 35.1966C30.5289 35.1623 31.1444 34.872 31.606 34.3797C32.0675 33.8874 32.3396 33.2309 32.3718 32.5388L32.375 32.4L32.375 24ZM25.8061 14.0619C25.7763 13.7413 25.6434 13.44 25.428 13.2102C25.2125 12.9804 24.93 12.8386 24.6295 12.8068L24.5 12.8C24.1519 12.8 23.8182 12.9476 23.572 13.2102C23.3259 13.4727 23.1875 13.8287 23.1875 14.2L25.8125 14.2L25.8061 14.0619ZM28.4375 14.6088C29.8866 15.0697 31.2203 15.9092 32.309 17.0704C34.032 18.9083 35 21.4009 35 24L35 32.4C35 33.8852 34.4471 35.3099 33.4626 36.3601C32.478 37.4103 31.1424 38 29.75 38L19.25 38C17.8576 38 16.522 37.4103 15.5374 36.3601C14.5529 35.3099 14 33.8852 14 32.4L14 24C14 21.4009 14.968 18.9083 16.691 17.0704C17.7797 15.9092 19.1134 15.0697 20.5625 14.6088L20.5625 14.2C20.5625 13.0861 20.9776 12.0181 21.7161 11.2305C22.4545 10.4428 23.4557 10 24.5 10L24.6955 10.0055C25.6686 10.057 26.5917 10.4921 27.2839 11.2305C28.0224 12.0181 28.4375 13.0861 28.4375 14.2L28.4375 14.6088Z" fill="rgb(255,212,111)" fill-rule="nonzero" />
	<path id="48px Icon color (contur) 01" d="M27.25 36.5385L27.25 30.6923C27.25 30.3047 27.105 29.933 26.8472 29.659C26.5893 29.3849 26.2397 29.2308 25.875 29.2308L23.125 29.2308C22.7603 29.2308 22.4107 29.3849 22.1528 29.659C21.895 29.933 21.75 30.3047 21.75 30.6923L21.75 36.5385C21.75 37.3456 21.1344 38 20.375 38C19.6156 38 19 37.3456 19 36.5385L19 30.6923C19 29.5294 19.4349 28.4145 20.2085 27.5922C20.9821 26.77 22.031 26.3077 23.125 26.3077L25.875 26.3077C26.969 26.3077 28.0179 26.77 28.7915 27.5922C29.5651 28.4145 30 29.5294 30 30.6923L30 36.5385C30 37.3456 29.3844 38 28.625 38C27.8656 38 27.25 37.3456 27.25 36.5385ZM25.875 19C26.6344 19 27.25 19.6544 27.25 20.4615C27.25 21.2687 26.6344 21.9231 25.875 21.9231L23.125 21.9231C22.3656 21.9231 21.75 21.2687 21.75 20.4615C21.75 19.6544 22.3656 19 23.125 19L25.875 19Z" fill="rgb(255,255,255)" fill-rule="nonzero" />
	<path id="48px Icon color (contur) 01" d="M27.25 36.5385L27.25 30.6923C27.25 30.3047 27.105 29.933 26.8472 29.659C26.5893 29.3849 26.2397 29.2308 25.875 29.2308L23.125 29.2308C22.7603 29.2308 22.4107 29.3849 22.1528 29.659C21.895 29.933 21.75 30.3047 21.75 30.6923L21.75 36.5385C21.75 37.3456 21.1344 38 20.375 38C19.6156 38 19 37.3456 19 36.5385L19 30.6923C19 29.5294 19.4349 28.4145 20.2085 27.5922C20.9821 26.77 22.031 26.3077 23.125 26.3077L25.875 26.3077C26.969 26.3077 28.0179 26.77 28.7915 27.5922C29.5651 28.4145 30 29.5294 30 30.6923L30 36.5385C30 37.3456 29.3844 38 28.625 38C27.8656 38 27.25 37.3456 27.25 36.5385ZM25.875 19C26.6344 19 27.25 19.6544 27.25 20.4615C27.25 21.2687 26.6344 21.9231 25.875 21.9231L23.125 21.9231C22.3656 21.9231 21.75 21.2687 21.75 20.4615C21.75 19.6544 22.3656 19 23.125 19L25.875 19Z" fill="rgb(255,212,111)" fill-rule="nonzero" />
</svg>
