<svg viewBox="0 0 35 30" xmlns="http://www.w3.org/2000/svg" xmlns:xlink="http://www.w3.org/1999/xlink" width="35.000000" height="30.000000" fill="none" customFrame="#000000">
	<rect id="Icon contur wh 02" width="35.000000" height="30.000000" x="0.000000" y="0.000000" fill="rgb(255,255,255)" fill-opacity="0" />
	<path id="Icon contur wh 02" d="M33.3873 0.1595C31.3836 -0.0531666 29.3649 -0.0531666 27.3612 0.1595C27.1286 0.184819 26.9046 0.261484 26.7053 0.383944C26.506 0.506404 26.3365 0.671594 26.209 0.867554L22.5473 6.547L20.6838 3.16936C20.4913 2.81944 20.1721 2.55634 19.7916 2.434C19.4112 2.31165 18.9982 2.33932 18.6375 2.51134C12.8794 5.26349 7.88017 8.81627 5.42564 12.9195C4.17332 15.0111 3.54717 17.3054 3.90282 19.7048C4.13691 21.1635 4.67629 22.5566 5.48575 23.793C4.13171 24.5454 2.73512 25.2187 1.30302 25.8096C0.782932 26.04 0.372933 26.4634 0.159714 26.9904C-0.053504 27.5173 -0.0532281 28.1064 0.160484 28.6331C0.374196 29.1598 0.784591 29.5829 1.3049 29.8128C1.8252 30.0428 2.41463 30.0616 2.94856 29.8652C4.7018 29.1547 6.58528 28.219 8.4387 27.1581C13.3453 31.2313 20.5736 29.9578 26.0087 25.5569C31.8019 20.8657 36.0422 12.4041 34.7749 1.53307C34.7341 1.18006 34.5743 0.851424 34.3216 0.601295C34.069 0.351166 33.7385 0.194463 33.3848 0.156998M11.3366 25.3817C14.7078 27.3908 19.6369 26.6878 24.035 23.125C28.7562 19.3045 32.4756 12.3716 31.7868 3.16685C30.6664 3.10514 29.546 3.11681 28.4256 3.20188L23.762 10.4425C23.6153 10.6702 23.4118 10.8559 23.1717 10.9814C22.9315 11.1069 22.6629 11.168 22.392 11.1587C22.1211 11.1494 21.8572 11.0699 21.6263 10.9282C21.3954 10.7864 21.2053 10.5872 21.0745 10.35L18.6701 5.98906C13.7235 8.52104 9.92896 11.4859 8.1106 14.5257C7.14214 16.1353 6.77146 17.7091 6.99854 19.2469C7.1363 20.1777 7.50448 21.1659 8.18073 22.2017C8.86366 21.7731 9.52905 21.3327 10.1769 20.8807C13.0848 18.8566 15.3064 16.8501 16.2506 15.4214C16.577 14.9515 17.0744 14.6278 17.6366 14.5195C18.1988 14.4113 18.7811 14.5272 19.2589 14.8423C19.7367 15.1574 20.0721 15.6468 20.1933 16.2058C20.3145 16.7648 20.2118 17.349 19.9074 17.8333C18.4848 19.9875 15.6821 22.3869 12.684 24.4735C12.2432 24.7804 11.7941 25.0832 11.3366 25.3817Z" fill="rgb(255,255,255)" fill-rule="evenodd" />
</svg>
