<svg viewBox="0 0 810.906 139.354" xmlns="http://www.w3.org/2000/svg" xmlns:xlink="http://www.w3.org/1999/xlink" width="810.906250" height="139.354492" fill="none" customFrame="#000000">
	<rect id="Ex max white 03" width="810.906738" height="139.354492" x="0.000000" y="0.000000" fill="rgb(255,255,255)" fill-opacity="0" />
	<path id="Ex max white 03" d="M3.87703 28.0155L1.02092 22.4802C0.331835 21.1446 0 19.7036 0 18.2889C0 15.2382 1.5429 12.3097 4.37392 10.8245C40.1818 -7.96054 74.0038 1.40645 91.4021 11.2102C93.7599 12.5388 95 14.8869 95 17.3762C95 18.6743 94.6627 20.0108 93.9708 21.2611C92.9314 23.1395 91.6076 25.505 89.942 28.4479C87.5114 32.7426 82.1589 34.1553 77.7864 32.0115C56.5322 21.5908 37.9312 21.5785 16.1367 31.9746C11.6439 34.1177 6.19225 32.5026 3.87703 28.0155ZM437.458 45.3774Q437.458 44.192 438.048 43.544Q438.759 42.7627 440.329 42.7627L444.174 42.7627Q445.192 42.7627 445.974 43.1923Q447.122 43.8225 447.763 45.3774Q448.418 47.0052 449.603 48.0028Q451.479 49.5815 454.684 49.5815Q457.967 49.5815 459.843 47.9572Q460.985 46.9682 461.605 45.3774Q462.192 43.883 463.28 43.2427Q464.096 42.7627 465.194 42.7627L469.091 42.7627Q470.607 42.7627 471.308 43.5186Q471.911 44.1686 471.911 45.3774Q471.911 48.2081 470.849 50.5594Q469.661 53.1906 467.143 55.2212Q466.968 55.3616 466.79 55.4969Q462.094 59.0664 454.684 59.0664Q447.447 59.0664 442.74 55.6151Q442.479 55.4235 442.226 55.2212Q439.708 53.1906 438.519 50.5594Q437.458 48.2081 437.458 45.3774ZM10.332 116.181L10.332 52.3501Q10.332 51.3409 10.6846 50.4754Q11.0307 49.626 11.7163 48.915Q12.4025 48.2035 13.2398 47.8446Q14.0917 47.4795 15.1001 47.4795L54.2188 47.4795Q70.9793 47.4795 78.6833 55.8324Q85.2368 62.938 85.2368 76.0879Q85.2368 89.1888 78.7087 96.2795Q71.0069 104.645 54.2188 104.645L29.6606 104.645L29.6606 116.181Q29.6606 117.129 29.3381 117.95Q28.9801 118.861 28.2251 119.616Q27.5829 120.258 26.8083 120.602Q25.9132 121 24.8413 121L15.2026 121Q14.1935 121 13.328 120.647Q12.4786 120.301 11.7676 119.616Q11.0125 118.861 10.6546 117.95Q10.332 117.129 10.332 116.181ZM29.6606 90.1357L48.374 90.1357Q56.9873 90.1357 61.4478 87.2646Q61.8458 87.0039 62.2083 86.7007L62.2085 86.7005Q65.9082 83.6055 65.9082 76.0879Q65.9082 68.5035 62.1888 65.4508L62.1887 65.4507Q61.835 65.1604 61.4478 64.9111Q56.9873 61.9888 48.374 61.9888L29.6606 61.9888L29.6606 90.1357ZM187.211 122.025Q173.409 122.025 165.483 115.201Q165.166 114.927 164.857 114.643Q163.937 113.793 163.123 112.852Q156.859 105.614 156.859 92.9556Q156.859 80.0994 163.233 72.8355Q163.976 71.9884 164.806 71.2173Q165.312 70.7441 165.843 70.3011Q173.654 63.7832 186.903 63.7832Q201.105 63.7832 208.693 68.2949Q212.56 70.5786 214.469 73.9657Q216.332 77.2702 216.332 81.625Q216.332 82.5065 215.958 83.1801Q215.744 83.5643 215.409 83.8809Q215.143 84.1475 214.828 84.3326Q214.114 84.7524 213.153 84.7524L205.514 84.7524Q204.651 84.7524 203.854 84.5232Q201.431 83.8262 199.618 81.0098Q199.005 80.0336 198.201 79.2552Q195.036 76.1904 188.903 76.1904Q181.589 76.1904 178.457 79.8095L178.449 79.8191Q178.314 79.9753 178.188 80.1382Q175.163 84.0347 175.163 92.9043Q175.163 101.774 178.29 105.722Q178.358 105.806 178.428 105.889Q178.44 105.902 178.451 105.916Q181.663 109.669 189.262 109.669Q195.646 109.669 198.838 106.477L198.838 106.477Q199.568 105.747 200.131 104.85Q201.959 101.972 204.407 101.277Q205.185 101.056 206.027 101.056L213.666 101.056Q214.548 101.056 215.221 101.43Q215.605 101.644 215.922 101.979Q216.312 102.347 216.537 102.797Q216.845 103.413 216.845 104.184Q216.845 108.538 214.982 111.843Q213.072 115.23 209.206 117.514Q201.618 122.025 187.211 122.025ZM252.426 122.025Q238.624 122.025 230.698 115.201Q230.381 114.927 230.072 114.643Q229.152 113.793 228.338 112.852Q222.074 105.614 222.074 92.9556Q222.074 80.0994 228.448 72.8355Q229.191 71.9884 230.021 71.2173Q230.527 70.7441 231.058 70.3011Q238.868 63.7832 252.118 63.7832Q266.32 63.7832 273.908 68.2949Q277.774 70.5786 279.684 73.9657Q281.547 77.2702 281.547 81.625Q281.547 82.5065 281.173 83.1801Q280.959 83.5644 280.624 83.8809Q280.357 84.1475 280.043 84.3326Q279.329 84.7524 278.368 84.7524L270.729 84.7524Q269.866 84.7524 269.069 84.5232Q266.646 83.8261 264.833 81.0098Q264.221 80.034 263.417 79.2558L263.416 79.2552Q260.25 76.1904 254.118 76.1904Q246.803 76.1904 243.672 79.8095L243.664 79.8191Q243.529 79.9753 243.402 80.1382Q240.377 84.0347 240.377 92.9043Q240.377 101.774 243.505 105.722Q243.573 105.806 243.643 105.889Q243.654 105.902 243.666 105.916Q246.877 109.669 254.477 109.669Q260.86 109.669 264.052 106.477L264.053 106.477Q264.783 105.747 265.346 104.85Q267.174 101.972 269.622 101.277Q270.4 101.056 271.242 101.056L278.881 101.056Q279.762 101.056 280.436 101.43Q280.82 101.644 281.137 101.979Q281.526 102.347 281.751 102.797Q282.06 103.413 282.06 104.184Q282.06 108.538 280.197 111.843Q278.287 115.23 274.42 117.514Q266.833 122.025 252.426 122.025ZM595.418 106.593Q595.418 105.632 595.838 104.919L595.838 104.918Q596.023 104.604 596.29 104.337Q596.669 103.979 597.117 103.768Q597.76 103.466 598.545 103.466L606.236 103.466Q607.523 103.466 608.601 103.941Q610.442 104.753 611.67 106.952Q612.044 107.595 612.544 108.117L612.546 108.119Q614.717 110.387 619.258 110.387L629.666 110.387Q634.108 110.387 635.896 108.209Q637.1 106.742 637.1 104.286Q637.1 101.827 635.892 100.367Q634.103 98.2057 629.666 98.2363L616.951 98.2363Q616.042 98.2363 615.332 97.8604Q614.961 97.6639 614.644 97.3647Q614.345 97.048 614.148 96.6769Q613.772 95.9668 613.772 95.0576L613.772 89.7256Q613.772 88.7648 614.192 88.051L614.193 88.05Q614.378 87.7359 614.644 87.4697Q615.013 87.1008 615.456 86.8791Q616.121 86.5469 616.951 86.5469L628.692 86.5469Q632.076 86.5469 633.768 85.0601Q634.441 84.466 634.854 83.7264Q635.511 82.5515 635.511 81.0098Q635.511 79.468 634.854 78.2931Q634.441 77.5535 633.768 76.9595Q632.076 75.4214 628.692 75.4214L619.258 75.4214Q617.464 75.4214 615.567 76.3442Q614.242 76.9531 613.392 77.9622L613.391 77.9635Q613.025 78.3984 612.747 78.9077Q611.476 81.1238 609.604 81.9106Q608.531 82.3615 607.261 82.3428L599.622 82.3428Q598.713 82.3428 598.003 81.9668Q597.632 81.7704 597.315 81.4712Q597.049 81.205 596.864 80.8909L596.863 80.89Q596.443 80.1761 596.443 79.2153Q596.443 76.7695 597.282 74.6564Q598.817 70.7902 603.16 68.0386Q609.927 63.7832 619.463 63.7832L629.769 63.7832Q640.586 63.7832 646.893 67.7822Q649.541 69.4268 651.086 71.7923Q653.25 75.1047 653.25 79.8306Q653.25 83.8255 651.467 86.7232Q649.634 89.7011 645.918 91.52Q650.589 93.8823 652.815 97.6784Q654.839 101.132 654.839 105.773Q654.839 111.546 652.055 115.196Q650.735 116.927 648.79 118.18Q642.791 122.025 630.896 122.025L619.463 122.025Q609.158 122.025 602.288 117.821Q597.885 115.127 596.304 111.275Q595.418 109.116 595.418 106.593ZM104.617 126.332L111.333 127.204Q113.064 127.204 114.544 126.596Q119.25 124.663 121.434 116.591Q115.305 116.591 110.597 114.006Q108.608 112.914 106.873 111.361Q101.028 106.081 96.8242 92.6479L89.1851 67.8848Q89.0312 67.4746 89.0312 66.9619Q89.0312 66.3979 89.6465 65.6289Q89.7522 65.5069 89.8734 65.403L89.8737 65.4027Q90.5166 64.8517 91.5947 64.8086L102.31 64.8086Q102.626 64.8086 102.936 64.855Q104.08 65.0267 105.13 65.834Q106.1 66.5165 106.591 67.4507Q106.802 67.8499 106.924 68.2949L113.641 90.0332Q116.153 98.0312 118.716 101.107Q120.503 103.21 122.722 103.875Q123.749 104.184 124.869 104.184L135.071 68.2949Q135.286 67.5173 135.711 66.88L135.711 66.8798Q136.098 66.2986 136.661 65.834Q137.471 65.1584 138.393 64.9279Q138.871 64.8086 139.378 64.8086L150.196 64.8086Q151.176 64.8086 151.766 65.2883Q151.948 65.4359 152.093 65.6289Q152.708 66.4492 152.708 67.0132Q152.708 67.5259 152.605 67.8848L139.173 115.771Q135.584 128.485 130.252 133.92Q128.452 135.772 126.295 136.993Q122.123 139.354 116.614 139.354Q108.257 139.354 104.771 138.739Q101.336 138.124 100.464 137.201Q99.9629 136.7 99.7499 136.096Q99.5928 135.651 99.5928 135.15L99.5928 129.511Q99.5928 128.602 99.9687 127.892Q100.165 127.52 100.464 127.204Q100.731 126.937 101.045 126.752L101.046 126.752Q101.759 126.332 102.72 126.332L104.617 126.332ZM347.122 118.744Q347.122 119.685 346.657 120.234Q346.009 121 344.456 121L334.766 121Q332.986 121 331.468 120.37Q328.787 119.258 326.921 116.181L320.41 105.568Q318.301 102.147 315.237 100.442Q312.194 98.749 308.208 98.749L308.208 117.873Q308.208 118.754 307.834 119.428Q307.62 119.812 307.285 120.128Q306.965 120.449 306.582 120.651Q305.924 121 305.081 121L293.596 121Q292.635 121 291.922 120.58Q291.607 120.395 291.34 120.128Q291.074 119.862 290.889 119.547Q290.469 118.833 290.469 117.873L290.469 67.9873Q290.469 67.0265 290.889 66.3127Q291.074 65.998 291.34 65.7314Q291.768 65.3033 292.285 65.0738Q292.882 64.8086 293.596 64.8086L305.081 64.8086Q305.962 64.8086 306.636 65.1828Q307.02 65.3964 307.336 65.7314Q307.603 65.998 307.788 66.3127Q308.208 67.0265 308.208 67.9873L308.208 87.0596Q313.839 87.0596 317.222 84.3023Q319.2 82.691 320.41 80.1382L325.332 69.6792Q325.886 68.4888 326.724 67.5524Q327.437 66.7547 328.357 66.1416Q329.598 65.3141 330.958 65.0003Q331.789 64.8086 332.664 64.8086L342.354 64.8086Q343.947 64.8086 344.55 65.5815Q344.917 66.0518 344.917 66.8081Q344.917 67.936 344.097 69.6792L337.483 83.6245Q336.58 85.4849 335.327 87.0679Q334.232 88.4514 332.869 89.623Q330.179 91.9351 327.098 92.7273Q326.832 92.7959 326.562 92.853Q326.633 92.8741 326.702 92.8959Q332.92 94.8315 337.483 102.082L346.199 116.181Q347.07 117.667 347.122 118.744ZM354.555 117.873L354.555 67.9873Q354.555 67.0265 354.975 66.3127Q355.16 65.998 355.426 65.7314Q355.854 65.3033 356.371 65.0738Q356.968 64.8086 357.682 64.8086L368.397 64.8086Q369.279 64.8086 369.953 65.1828Q370.337 65.3964 370.653 65.7314Q370.988 66.0479 371.202 66.4322Q371.576 67.1058 371.576 67.9873L371.576 101.671L389.623 68.5Q389.761 68.2325 389.924 67.981Q390.728 66.7381 392.135 65.8853Q393.827 64.8086 395.417 64.8086L409.772 64.8086Q410.653 64.8086 411.327 65.1828Q411.711 65.3964 412.028 65.7314Q412.363 66.0479 412.576 66.4322Q412.951 67.1058 412.951 67.9873L412.951 117.873Q412.951 118.754 412.576 119.428Q412.363 119.812 412.028 120.128Q411.761 120.395 411.447 120.58Q410.733 121 409.772 121L399.057 121Q398.096 121 397.382 120.58Q397.067 120.395 396.801 120.128Q396.443 119.749 396.232 119.301Q395.929 118.658 395.929 117.873L395.929 84.2397L377.882 117.309Q377.062 118.795 375.37 119.923Q373.678 121 372.089 121L357.682 121Q356.721 121 356.008 120.58Q355.693 120.395 355.426 120.128Q355.16 119.862 354.975 119.547Q354.555 118.833 354.555 117.873ZM425.512 117.873L425.512 67.9873Q425.512 67.0265 425.932 66.3127Q426.117 65.998 426.383 65.7314Q426.811 65.3033 427.328 65.0738Q427.925 64.8086 428.639 64.8086L439.354 64.8086Q440.236 64.8086 440.91 65.1828Q441.294 65.3964 441.61 65.7314Q441.945 66.0479 442.159 66.4322Q442.533 67.1058 442.533 67.9873L442.533 101.671L460.58 68.5Q460.718 68.2325 460.881 67.981Q461.685 66.7381 463.092 65.8853Q464.784 64.8086 466.374 64.8086L480.729 64.8086Q481.611 64.8086 482.284 65.1828Q482.668 65.3964 482.985 65.7314Q483.32 66.0479 483.534 66.4322Q483.908 67.1058 483.908 67.9873L483.908 117.873Q483.908 118.754 483.534 119.428Q483.32 119.812 482.985 120.128Q482.718 120.395 482.404 120.58Q481.69 121 480.729 121L470.014 121Q469.053 121 468.339 120.58Q468.024 120.395 467.758 120.128Q467.4 119.749 467.189 119.301Q466.886 118.658 466.886 117.873L466.886 84.2397L448.839 117.309Q448.019 118.795 446.327 119.923Q444.635 121 443.046 121L428.639 121Q427.678 121 426.965 120.58Q426.65 120.395 426.383 120.128Q426.117 119.862 425.932 119.547Q425.512 118.833 425.512 117.873ZM530.767 82.9067Q530.767 75.9846 534.131 71.71Q539.538 64.8402 553.633 64.8086L583.882 64.8086Q584.764 64.8086 585.437 65.1828Q585.822 65.3963 586.138 65.7314Q586.404 65.9977 586.589 66.3117L586.59 66.3127Q587.01 67.0265 587.01 67.9873L587.01 117.873Q587.01 118.833 586.59 119.547L586.589 119.548Q586.404 119.862 586.138 120.128Q585.872 120.394 585.558 120.579L585.557 120.58Q584.843 121 583.882 121L572.449 121Q571.54 121 570.83 120.624Q570.459 120.428 570.142 120.128Q569.784 119.749 569.573 119.301Q569.271 118.658 569.271 117.873L569.271 100.954L559.222 100.954L550.506 116.488Q549.397 118.479 547.709 119.592Q545.573 121 542.508 121L533.279 121Q531.98 121 531.307 120.351Q530.996 120.052 530.818 119.616Q530.613 119.154 530.613 118.437Q530.613 117.667 531.382 116.488L541.688 99.2617Q536.686 97.4067 533.975 93.8204Q530.767 89.576 530.767 82.9067ZM663.812 117.873L663.812 67.9873Q663.812 67.0265 664.232 66.3127L664.233 66.3117Q664.418 65.9977 664.684 65.7314Q665.112 65.3036 665.629 65.0738Q666.225 64.8086 666.94 64.8086L678.424 64.8086Q679.306 64.8086 679.979 65.1828Q680.364 65.3963 680.68 65.7314Q680.946 65.9977 681.131 66.3117L681.132 66.3127Q681.552 67.0265 681.552 67.9873L681.552 83.4194L693.754 83.4194Q704.674 83.4194 710.622 87.7261Q711.519 88.3703 712.282 89.1465L712.283 89.1476Q716.62 93.5601 716.62 102.235Q716.62 110.822 712.328 115.227Q711.546 116.03 710.622 116.693Q704.674 121 693.754 121L666.94 121Q665.979 121 665.265 120.58L665.264 120.579Q664.95 120.394 664.684 120.128Q664.418 119.862 664.233 119.548L664.232 119.547Q663.812 118.833 663.812 117.873ZM723.849 117.873L723.849 67.9873Q723.849 67.0265 724.269 66.3127L724.27 66.3117Q724.455 65.9977 724.721 65.7314Q725.09 65.3625 725.533 65.1408Q726.197 64.8086 727.028 64.8086L738.461 64.8086Q739.342 64.8086 740.016 65.1828Q740.4 65.3963 740.717 65.7314Q740.983 65.9977 741.168 66.3117L741.169 66.3127Q741.588 67.0265 741.588 67.9873L741.588 117.873Q741.588 118.833 741.169 119.547L741.168 119.548Q740.983 119.862 740.717 120.128Q740.451 120.394 740.137 120.579L740.136 120.58Q739.422 121 738.461 121L727.028 121Q726.119 121 725.409 120.624Q725.037 120.428 724.721 120.128Q724.455 119.862 724.27 119.548L724.269 119.547Q723.849 118.833 723.849 117.873ZM810.907 118.744Q810.907 119.685 810.443 120.234Q809.794 121 808.241 121L798.551 121Q796.772 121 795.254 120.37Q792.573 119.258 790.707 116.181L784.195 105.568Q782.086 102.147 779.022 100.442Q775.979 98.749 771.993 98.749L771.993 117.873Q771.993 118.754 771.619 119.428Q771.406 119.812 771.07 120.128Q770.75 120.449 770.367 120.651Q769.709 121 768.866 121L757.381 121Q756.421 121 755.707 120.58L755.705 120.579Q755.391 120.394 755.125 120.128Q754.859 119.862 754.674 119.548L754.674 119.547Q754.254 118.833 754.254 117.873L754.254 67.9873Q754.254 67.0265 754.674 66.3127L754.674 66.3117Q754.859 65.9977 755.125 65.7314Q755.553 65.3036 756.07 65.0738Q756.667 64.8086 757.381 64.8086L768.866 64.8086Q769.747 64.8086 770.421 65.1828Q770.805 65.3963 771.122 65.7314Q771.388 65.9977 771.573 66.3117L771.573 66.3127Q771.993 67.0265 771.993 67.9873L771.993 87.0596Q777.624 87.0596 781.008 84.3023Q782.985 82.691 784.195 80.1382L789.117 69.6792Q789.671 68.4888 790.509 67.5524Q791.222 66.7548 792.142 66.1416Q793.383 65.3141 794.743 65.0003L794.745 64.9999Q795.575 64.8086 796.449 64.8086L806.139 64.8086Q807.732 64.8086 808.335 65.5815Q808.702 66.0518 808.702 66.8081Q808.702 67.936 807.882 69.6792L801.268 83.6245Q800.365 85.4849 799.112 87.0679L799.111 87.0695Q798.016 88.4521 796.654 89.623Q793.964 91.9352 790.884 92.7273Q790.617 92.7959 790.348 92.853Q790.418 92.8741 790.488 92.8959Q796.705 94.8315 801.268 102.082L809.984 116.181Q810.855 117.667 810.907 118.744ZM550.301 78.2412Q549.913 78.607 549.609 79.0328Q548.506 80.5761 548.506 82.9067Q548.506 85.1804 549.562 86.7403Q549.863 87.1855 550.25 87.5723Q550.45 87.7674 550.669 87.9407Q552.4 89.3154 555.223 89.3154L569.271 89.3154L569.271 76.498L555.223 76.498Q552.515 76.498 550.807 77.8045Q550.542 78.0071 550.301 78.2412ZM681.244 109.567L692.165 109.567Q695.229 109.567 696.895 108.04Q698.881 106.222 698.881 102.235Q698.881 98.1957 696.87 96.3664Q695.206 94.8525 692.165 94.8525L681.244 94.8525L681.244 109.567Z" fill="rgb(255,255,255)" fill-rule="evenodd" />
</svg>
