<svg viewBox="0 0 48 48" xmlns="http://www.w3.org/2000/svg" xmlns:xlink="http://www.w3.org/1999/xlink" width="48.000000" height="48.000000" fill="none" customFrame="#000000">
	<rect id="48px Icon color (contur) 07" width="48.000000" height="48.000000" x="0.000000" y="0.000000" fill="rgb(255,255,255)" fill-opacity="0" />
	<path id="48px Icon color (contur) 07" d="M0 24C0 15.5992 0 11.3988 1.6349 8.19014C3.073 5.36771 5.36771 3.073 8.19014 1.6349C11.3988 0 15.5992 0 24 0C32.4008 0 36.6012 0 39.8099 1.6349C42.6323 3.073 44.927 5.36771 46.3651 8.19014C48 11.3988 48 15.5992 48 24C48 32.4008 48 36.6012 46.3651 39.8099C44.927 42.6323 42.6323 44.927 39.8099 46.3651C36.6012 48 32.4008 48 24 48C15.5992 48 11.3988 48 8.19014 46.3651C5.36771 44.927 3.073 42.6323 1.6349 39.8099C0 36.6012 0 32.4008 0 24Z" fill="rgb(255,255,255)" fill-rule="evenodd" />
	<path id="48px Icon color (contur) 07" d="M28.6709 14.2668C30.3312 13.8257 32.0026 13.8586 33.0763 14.9323C34.1501 16.0061 34.183 17.6775 33.7418 19.3378C33.3247 20.9078 32.4321 22.6928 31.1803 24.5045C32.4321 26.3163 33.3247 28.1013 33.7418 29.6713C34.183 31.3316 34.1501 33.003 33.0763 34.0767C32.2788 34.8743 31.1424 35.0941 29.9645 34.9816C28.7813 34.8686 27.4387 34.4145 26.0478 33.709C25.6498 33.5071 25.4908 33.0206 25.6927 32.6226C25.8946 32.2247 26.3806 32.0658 26.7785 32.2675C28.0639 32.9195 29.2055 33.2857 30.1181 33.3728C31.0361 33.4605 31.6075 33.2603 31.9337 32.9341C32.3758 32.4919 32.5783 31.5859 32.1799 30.0864C31.8564 28.8688 31.1712 27.4217 30.1602 25.8824C29.3896 26.862 28.5606 27.7947 27.6771 28.6749C26.5298 29.8267 25.2939 30.8872 23.9802 31.8451L23.9781 31.8466C22.0055 33.2745 20.0439 34.2888 18.3374 34.7422C16.6771 35.1834 15.0057 35.1505 13.9319 34.0767C12.8581 33.003 12.8253 31.3316 13.2664 29.6713C13.6836 28.1013 14.5756 26.3158 15.8274 24.504C14.5763 22.6925 13.6841 20.9076 13.267 19.3378C12.8258 17.6777 12.8584 16.0062 13.9314 14.9323C14.729 14.1348 15.8659 13.915 17.0438 14.0275C18.2269 14.1405 19.5696 14.5946 20.9605 15.3001C21.3585 15.502 21.5175 15.9884 21.3156 16.3865C21.1137 16.7844 20.6272 16.9434 20.2292 16.7416C18.9439 16.0896 17.8027 15.7234 16.8901 15.6362C16.0295 15.5541 15.4737 15.7251 15.1388 16.0156L15.0746 16.075C14.6329 16.5172 14.4305 17.4233 14.8289 18.9227C15.1524 20.14 15.8373 21.5867 16.8475 23.1257C17.6188 22.1453 18.449 21.2119 19.3333 20.3311C20.4799 19.1801 21.7153 18.1212 23.028 17.164L23.0301 17.1624C25.0028 15.7346 26.9643 14.7203 28.6709 14.2668ZM16.8475 25.8824C15.8366 27.4216 15.1519 28.8689 14.8284 30.0864C14.43 31.5859 14.6324 32.4919 15.0746 32.9341C15.5168 33.3762 16.4229 33.5787 17.9223 33.1803C19.1397 32.8568 20.5866 32.1715 22.1258 31.1606C21.1453 30.3893 20.2115 29.5597 19.3307 28.6754C18.4472 27.7952 17.6182 26.862 16.8475 25.8824ZM23.5041 18.8244C22.4356 19.6371 21.4237 20.5222 20.476 21.4737L20.4733 21.4764C19.5218 22.4241 18.6367 23.436 17.8239 24.5045C18.6367 25.5731 19.5218 26.585 20.4733 27.5327L20.476 27.5348C21.4237 28.4863 22.4356 29.3715 23.5041 30.1842C24.5727 29.3715 25.5846 28.4863 26.5323 27.5348L26.5344 27.5327C27.4859 26.585 28.3711 25.5731 29.1838 24.5045C28.3711 23.436 27.4859 22.4241 26.5344 21.4764L26.5323 21.4737C25.5846 20.5222 24.5727 19.6371 23.5041 18.8244ZM31.9337 16.075C31.4915 15.6328 30.5855 15.4304 29.086 15.8288C27.8685 16.1523 26.4212 16.837 24.882 17.8479C25.8617 18.6186 26.7947 19.4475 27.675 20.3311C28.5593 21.2119 29.3889 22.1457 30.1602 23.1262C31.1711 21.587 31.8564 20.1401 32.1799 18.9227C32.5783 17.4233 32.3758 16.5172 31.9337 16.075Z" fill="rgb(255,255,255)" fill-rule="nonzero" />
	<path id="48px Icon color (contur) 07" d="M28.6709 14.2668C30.3312 13.8257 32.0026 13.8586 33.0763 14.9323C34.1501 16.0061 34.183 17.6775 33.7418 19.3378C33.3247 20.9078 32.4321 22.6928 31.1803 24.5045C32.4321 26.3163 33.3247 28.1013 33.7418 29.6713C34.183 31.3316 34.1501 33.003 33.0763 34.0767C32.2788 34.8743 31.1424 35.0941 29.9645 34.9816C28.7813 34.8686 27.4387 34.4145 26.0478 33.709C25.6498 33.5071 25.4908 33.0206 25.6927 32.6226C25.8946 32.2247 26.3806 32.0658 26.7785 32.2675C28.0639 32.9195 29.2055 33.2857 30.1181 33.3728C31.0361 33.4605 31.6075 33.2603 31.9337 32.9341C32.3758 32.4919 32.5783 31.5859 32.1799 30.0864C31.8564 28.8688 31.1712 27.4217 30.1602 25.8824C29.3896 26.862 28.5606 27.7947 27.6771 28.6749C26.5298 29.8267 25.2939 30.8872 23.9802 31.8451L23.9781 31.8466C22.0055 33.2745 20.0439 34.2888 18.3374 34.7422C16.6771 35.1834 15.0057 35.1505 13.9319 34.0767C12.8581 33.003 12.8253 31.3316 13.2664 29.6713C13.6836 28.1013 14.5756 26.3158 15.8274 24.504C14.5763 22.6925 13.6841 20.9076 13.267 19.3378C12.8258 17.6777 12.8584 16.0062 13.9314 14.9323C14.729 14.1348 15.8659 13.915 17.0438 14.0275C18.2269 14.1405 19.5696 14.5946 20.9605 15.3001C21.3585 15.502 21.5175 15.9884 21.3156 16.3865C21.1137 16.7844 20.6272 16.9434 20.2292 16.7416C18.9439 16.0896 17.8027 15.7234 16.8901 15.6362C16.0295 15.5541 15.4737 15.7251 15.1388 16.0156L15.0746 16.075C14.6329 16.5172 14.4305 17.4233 14.8289 18.9227C15.1524 20.14 15.8373 21.5867 16.8475 23.1257C17.6188 22.1453 18.449 21.2119 19.3333 20.3311C20.4799 19.1801 21.7153 18.1212 23.028 17.164L23.0301 17.1624C25.0028 15.7346 26.9643 14.7203 28.6709 14.2668ZM16.8475 25.8824C15.8366 27.4216 15.1519 28.8689 14.8284 30.0864C14.43 31.5859 14.6324 32.4919 15.0746 32.9341C15.5168 33.3762 16.4229 33.5787 17.9223 33.1803C19.1397 32.8568 20.5866 32.1715 22.1258 31.1606C21.1453 30.3893 20.2115 29.5597 19.3307 28.6754C18.4472 27.7952 17.6182 26.862 16.8475 25.8824ZM23.5041 18.8244C22.4356 19.6371 21.4237 20.5222 20.476 21.4737L20.4733 21.4764C19.5218 22.4241 18.6367 23.436 17.8239 24.5045C18.6367 25.5731 19.5218 26.585 20.4733 27.5327L20.476 27.5348C21.4237 28.4863 22.4356 29.3715 23.5041 30.1842C24.5727 29.3715 25.5846 28.4863 26.5323 27.5348L26.5344 27.5327C27.4859 26.585 28.3711 25.5731 29.1838 24.5045C28.3711 23.436 27.4859 22.4241 26.5344 21.4764L26.5323 21.4737C25.5846 20.5222 24.5727 19.6371 23.5041 18.8244ZM31.9337 16.075C31.4915 15.6328 30.5855 15.4304 29.086 15.8288C27.8685 16.1523 26.4212 16.837 24.882 17.8479C25.8617 18.6186 26.7947 19.4475 27.675 20.3311C28.5593 21.2119 29.3889 22.1457 30.1602 23.1262C31.1711 21.587 31.8564 20.1401 32.1799 18.9227C32.5783 17.4233 32.3758 16.5172 31.9337 16.075Z" fill="rgb(76,57,178)" fill-rule="nonzero" />
	<path id="48px Icon color (contur) 07" d="M24.8506 24.5047C24.8506 23.7609 24.2476 23.158 23.5038 23.158C22.76 23.158 22.157 23.7609 22.157 24.5047C22.157 25.2486 22.76 25.8515 23.5038 25.8515C24.2476 25.8515 24.8506 25.2486 24.8506 24.5047ZM26.4668 24.5047C26.4668 26.1411 25.1402 27.4677 23.5038 27.4677C21.8674 27.4677 20.5409 26.1411 20.5409 24.5047C20.5409 22.8684 21.8674 21.5418 23.5038 21.5418C25.1402 21.5418 26.4668 22.8684 26.4668 24.5047Z" fill="rgb(255,255,255)" fill-rule="nonzero" />
	<path id="48px Icon color (contur) 07" d="M24.8506 24.5047C24.8506 23.7609 24.2476 23.158 23.5038 23.158C22.76 23.158 22.157 23.7609 22.157 24.5047C22.157 25.2486 22.76 25.8515 23.5038 25.8515C24.2476 25.8515 24.8506 25.2486 24.8506 24.5047ZM26.4668 24.5047C26.4668 26.1411 25.1402 27.4677 23.5038 27.4677C21.8674 27.4677 20.5409 26.1411 20.5409 24.5047C20.5409 22.8684 21.8674 21.5418 23.5038 21.5418C25.1402 21.5418 26.4668 22.8684 26.4668 24.5047Z" fill="rgb(76,57,178)" fill-rule="nonzero" />
</svg>
