<svg viewBox="0 0 40 40" xmlns="http://www.w3.org/2000/svg" xmlns:xlink="http://www.w3.org/1999/xlink" width="40.000000" height="40.000000" fill="none" customFrame="#000000">
	<rect id="Icon contur wh 07" width="40.000000" height="40.000000" x="0.000000" y="0.000000" fill="rgb(255,255,255)" fill-opacity="0" />
	<path id="Icon contur wh 07" d="M29.8375 0.50804C32.9988 -0.331903 36.181 -0.269304 38.2255 1.77512C40.27 3.81954 40.3326 7.00174 39.4926 10.1629C38.6983 13.152 36.9989 16.5506 34.6155 20C36.9989 23.4494 38.6984 26.848 39.4926 29.8371C40.3326 32.9983 40.27 36.1805 38.2255 38.2249C36.7069 39.7434 34.5432 40.1618 32.3006 39.9477C30.0478 39.7326 27.4914 38.868 24.8431 37.5247C24.0853 37.1404 23.7826 36.2141 24.167 35.4564C24.5514 34.6988 25.4767 34.3961 26.2344 34.7802C28.6818 36.0216 30.8554 36.7188 32.5931 36.8847C34.341 37.0516 35.4288 36.6703 36.0499 36.0493C36.8918 35.2075 37.2773 33.4824 36.5187 30.6274C35.9027 28.3094 34.5982 25.5542 32.6732 22.6233C31.2059 24.4885 29.6275 26.2642 27.9453 27.94L27.9463 27.941C25.7618 30.1341 23.4077 32.1523 20.9065 33.9759L20.9025 33.9789C17.1465 36.6974 13.4118 38.6286 10.1625 39.492C7.00128 40.3319 3.81897 40.2692 1.77447 38.2249C-0.27002 36.1805 -0.332621 32.9983 0.507351 29.8371C1.30166 26.8479 2.99999 23.4485 5.38352 19.999C3.00132 16.55 1.30254 13.1516 0.508353 10.1629C-0.33153 7.00204 -0.269545 3.81963 1.77347 1.77512C3.29207 0.256569 5.45674 -0.161849 7.6994 0.0522922C9.9522 0.267415 12.5086 1.13199 15.1569 2.47527C15.9147 2.85965 16.2174 3.78587 15.833 4.54366C15.4486 5.30129 14.5223 5.60412 13.7646 5.21977C11.3174 3.97851 9.1445 3.28125 7.40691 3.11532C5.76821 2.95884 4.70995 3.28446 4.07232 3.8375L3.95012 3.95069C3.1092 4.79259 2.72377 6.51777 3.48233 9.37258C4.09817 11.6902 5.40228 14.4446 7.32577 17.3747C8.79431 15.5081 10.375 13.731 12.0587 12.054C14.2419 9.86266 16.594 7.84646 19.0935 6.02409L19.0975 6.02108C22.8535 3.30254 26.5882 1.37139 29.8375 0.50804ZM36.0499 3.95069C35.208 3.10884 33.4829 2.72333 30.6278 3.48192C28.3098 4.09782 25.5542 5.4015 22.6234 7.32622C24.4888 8.79362 26.2653 10.3717 27.9413 12.054C29.6251 13.731 31.2046 15.509 32.6732 17.3757C34.5979 14.4451 35.9027 11.6904 36.5187 9.37258C37.2773 6.51768 36.8917 4.79256 36.0499 3.95069ZM20 9.18527C17.9654 10.7327 16.0389 12.4179 14.2343 14.2295L14.2293 14.2345C12.4176 16.039 10.7323 17.9655 9.18489 20C10.7323 22.0345 12.4176 23.961 14.2293 25.7655L14.2343 25.7695C16.0389 27.5811 17.9654 29.2663 20 30.8137C22.0345 29.2664 23.9612 27.5811 25.7657 25.7695L25.7697 25.7655C27.5813 23.961 29.2667 22.0345 30.8141 20C29.2667 17.9655 27.5814 16.039 25.7697 14.2345L25.7657 14.2295C23.9611 12.4179 22.0346 10.7327 20 9.18527ZM19.9999 25.6412C23.1156 25.6412 25.6414 23.1155 25.6414 19.9999C25.6414 16.8844 23.1156 14.3587 19.9999 14.3587C16.8842 14.3587 14.3585 16.8844 14.3585 19.9999C14.3585 23.1155 16.8842 25.6412 19.9999 25.6412ZM19.9999 17.4357C21.4162 17.4357 22.5642 18.5838 22.5642 19.9999C22.5642 21.4161 21.4162 22.5641 19.9999 22.5641C18.5837 22.5641 17.4356 21.4161 17.4356 19.9999C17.4356 18.5838 18.5837 17.4357 19.9999 17.4357ZM7.32577 22.6233C5.40098 25.554 4.09726 28.3095 3.48133 30.6274C2.72272 33.4824 3.10824 35.2075 3.95012 36.0493C4.79202 36.8911 6.51721 37.2767 9.3722 36.5181C11.6902 35.9022 14.4449 34.5974 17.3756 32.6728C15.5088 31.2043 13.7308 29.6248 12.0537 27.941C10.3715 26.2652 8.79308 24.4885 7.32577 22.6233Z" fill="rgb(255,255,255)" fill-rule="evenodd" />
</svg>
