<svg viewBox="0 0 48 48" xmlns="http://www.w3.org/2000/svg" xmlns:xlink="http://www.w3.org/1999/xlink" width="48.000000" height="48.000000" fill="none" customFrame="#000000">
	<rect id="48px Icon color (contur) 15" width="48.000000" height="48.000000" x="0.000000" y="0.000000" fill="rgb(255,255,255)" fill-opacity="0" />
	<path id="48px Icon color (contur) 15" d="M0 24C0 15.5992 0 11.3988 1.6349 8.19014C3.073 5.36771 5.36771 3.073 8.19014 1.6349C11.3988 0 15.5992 0 24 0C32.4008 0 36.6012 0 39.8099 1.6349C42.6323 3.073 44.927 5.36771 46.3651 8.19014C48 11.3988 48 15.5992 48 24C48 32.4008 48 36.6012 46.3651 39.8099C44.927 42.6323 42.6323 44.927 39.8099 46.3651C36.6012 48 32.4008 48 24 48C15.5992 48 11.3988 48 8.19014 46.3651C5.36771 44.927 3.073 42.6323 1.6349 39.8099C0 36.6012 0 32.4008 0 24Z" fill="rgb(255,255,255)" fill-rule="evenodd" />
	<path id="48px Icon color (contur) 15" d="M27.0111 31.8915C27.0111 30.9883 27.0111 30.1143 27.0111 29.2695C27.0111 28.4248 27.0111 27.4839 27.0111 26.4468L27.0111 25.1923C27.0111 24.2472 27.0111 23.2896 27.0111 22.3194C27.0111 21.3492 27.0111 20.3748 27.0111 19.3963L29.7209 19.2332L29.8463 21.6168L30.1223 21.6168C30.4569 20.9059 30.8291 20.3707 31.2389 20.011C31.6487 19.643 32.0669 19.3963 32.4934 19.2709C32.9283 19.137 33.334 19.0701 33.7103 19.0701C33.9111 19.0701 34.1285 19.0869 34.3627 19.1203C34.6052 19.1538 34.831 19.2123 35.0401 19.2959L34.7516 22.4198C34.4505 22.3779 34.1745 22.3487 33.9236 22.3319C33.6811 22.3068 33.4092 22.2943 33.1081 22.2943C32.874 22.2943 32.6231 22.3236 32.3554 22.3821C32.0878 22.4407 31.8243 22.5578 31.5651 22.7334C31.3058 22.9007 31.0591 23.1474 30.8249 23.4736C30.5907 23.7997 30.3816 24.2263 30.1976 24.7532L30.1976 26.6099C30.1976 27.5634 30.1976 28.4583 30.1976 29.2946C30.1976 30.1226 30.1976 30.9883 30.1976 31.8915L27.0111 31.8915Z" fill="rgb(255,255,255)" fill-rule="nonzero" />
	<path id="48px Icon color (contur) 15" d="M27.0111 31.8915C27.0111 30.9883 27.0111 30.1143 27.0111 29.2695C27.0111 28.4248 27.0111 27.4839 27.0111 26.4468L27.0111 25.1923C27.0111 24.2472 27.0111 23.2896 27.0111 22.3194C27.0111 21.3492 27.0111 20.3748 27.0111 19.3963L29.7209 19.2332L29.8463 21.6168L30.1223 21.6168C30.4569 20.9059 30.8291 20.3707 31.2389 20.011C31.6487 19.643 32.0669 19.3963 32.4934 19.2709C32.9283 19.137 33.334 19.0701 33.7103 19.0701C33.9111 19.0701 34.1285 19.0869 34.3627 19.1203C34.6052 19.1538 34.831 19.2123 35.0401 19.2959L34.7516 22.4198C34.4505 22.3779 34.1745 22.3487 33.9236 22.3319C33.6811 22.3068 33.4092 22.2943 33.1081 22.2943C32.874 22.2943 32.6231 22.3236 32.3554 22.3821C32.0878 22.4407 31.8243 22.5578 31.5651 22.7334C31.3058 22.9007 31.0591 23.1474 30.8249 23.4736C30.5907 23.7997 30.3816 24.2263 30.1976 24.7532L30.1976 26.6099C30.1976 27.5634 30.1976 28.4583 30.1976 29.2946C30.1976 30.1226 30.1976 30.9883 30.1976 31.8915L27.0111 31.8915Z" fill="rgb(0,68.0603,143.931)" fill-rule="nonzero" />
	<path id="48px Icon color (contur) 15" d="M13.0002 31.8907C13.0002 30.9205 13.0002 29.9796 13.0002 29.068C13.0002 28.1563 13.0002 27.1443 13.0002 26.032L13.0002 19.9851C13.0002 18.8393 13.0002 17.8022 13.0002 16.8738C13.0002 15.9455 13.0002 14.9878 13.0002 14.0009L24.4416 14.0009L24.4416 16.9491C23.6555 16.9491 22.8066 16.9491 21.8949 16.9491C20.9917 16.9491 19.9253 16.9491 18.6959 16.9491L15.02 16.9491L16.4502 14.5404C16.4502 15.5273 16.4502 16.4849 16.4502 17.4133C16.4502 18.3416 16.4502 19.3787 16.4502 20.5245L16.4502 26.032C16.4502 27.1443 16.4502 28.1563 16.4502 29.068C16.4502 29.9796 16.4502 30.9205 16.4502 31.8907L13.0002 31.8907ZM15.572 24.4763L15.572 21.6411L18.7962 21.6411C19.9086 21.6411 20.8662 21.6411 21.6691 21.6411C22.4804 21.6411 23.2582 21.6411 24.0026 21.6411L24.0026 24.4763C23.208 24.4763 22.4093 24.4763 21.6064 24.4763C20.8118 24.4763 19.8709 24.4763 18.7837 24.4763L15.572 24.4763Z" fill="rgb(255,255,255)" fill-rule="nonzero" />
	<path id="48px Icon color (contur) 15" d="M13.0002 31.8907C13.0002 30.9205 13.0002 29.9796 13.0002 29.068C13.0002 28.1563 13.0002 27.1443 13.0002 26.032L13.0002 19.9851C13.0002 18.8393 13.0002 17.8022 13.0002 16.8738C13.0002 15.9455 13.0002 14.9878 13.0002 14.0009L24.4416 14.0009L24.4416 16.9491C23.6555 16.9491 22.8066 16.9491 21.8949 16.9491C20.9917 16.9491 19.9253 16.9491 18.6959 16.9491L15.02 16.9491L16.4502 14.5404C16.4502 15.5273 16.4502 16.4849 16.4502 17.4133C16.4502 18.3416 16.4502 19.3787 16.4502 20.5245L16.4502 26.032C16.4502 27.1443 16.4502 28.1563 16.4502 29.068C16.4502 29.9796 16.4502 30.9205 16.4502 31.8907L13.0002 31.8907ZM15.572 24.4763L15.572 21.6411L18.7962 21.6411C19.9086 21.6411 20.8662 21.6411 21.6691 21.6411C22.4804 21.6411 23.2582 21.6411 24.0026 21.6411L24.0026 24.4763C23.208 24.4763 22.4093 24.4763 21.6064 24.4763C20.8118 24.4763 19.8709 24.4763 18.7837 24.4763L15.572 24.4763Z" fill="rgb(0,68.0603,143.931)" fill-rule="nonzero" />
</svg>
