<svg viewBox="0 0 29 49" xmlns="http://www.w3.org/2000/svg" xmlns:xlink="http://www.w3.org/1999/xlink" width="29.000000" height="49.000000" fill="none" customFrame="#000000">
	<rect id="Icon contur wh 13" width="29.000000" height="49.000000" x="0.000000" y="0.000000" fill="rgb(255,255,255)" fill-opacity="0" />
	<path id="Icon contur wh 13" d="M28.6098 46.4435L20.5528 36.7964L20.5528 19.8858L21.5605 19.8858C22.3964 19.8858 23.0735 19.2007 23.0735 18.355C23.0735 17.5092 22.3964 16.8242 21.5605 16.8242L19.0398 16.8242C18.2038 16.8242 17.5267 17.5092 17.5267 18.355L17.5267 37.3858C17.5266 37.7648 17.6657 38.1304 17.9171 38.4114L24.0812 45.9383L4.91855 45.9383L11.0827 38.4114C11.334 38.1303 11.4732 37.7648 11.473 37.3857L11.473 18.355C11.473 17.5093 10.796 16.8242 9.96 16.8242L7.43923 16.8242C6.60327 16.8242 5.92618 17.5093 5.92618 18.355C5.92618 19.2008 6.60327 19.8858 7.43923 19.8858L8.44691 19.8858L8.44691 36.7965L0.389965 46.4435C0.194021 46.6633 0.0651754 46.9358 0.0189938 47.2281C-0.0271878 47.5204 0.0112705 47.82 0.129722 48.0906C0.248567 48.3613 0.442483 48.5913 0.687958 48.7527C0.933434 48.9141 1.21992 49 1.51269 49L27.4871 49C27.7798 49 28.0663 48.9141 28.3118 48.7527C28.5573 48.5913 28.7512 48.3613 28.87 48.0906C29.1121 47.538 29.0107 46.892 28.6098 46.4435ZM12.9868 15.2995C14.6542 15.2995 16.0054 13.9317 16.0054 12.2456C16.0054 10.5609 14.6542 9.19322 12.9868 9.19322C11.3187 9.19322 9.96832 10.5609 9.96832 12.2456C9.96832 13.9317 11.3187 15.2995 12.9868 15.2995ZM22.8443 10.7553C25.7932 10.7553 28.1838 8.34741 28.1838 5.37767C28.1838 2.40794 25.794 0 22.8443 0C19.8961 0 17.5048 2.40794 17.5048 5.37767C17.5048 8.34741 19.8961 10.7553 22.8443 10.7553ZM22.8208 3.05235C24.0812 3.05235 25.1063 4.08487 25.1063 5.35466C25.1063 6.62369 24.0812 7.65698 22.8208 7.65698C21.5605 7.65698 20.5354 6.62369 20.5354 5.35466C20.5362 4.08487 21.5605 3.05235 22.8208 3.05235Z" fill="rgb(255,255,255)" fill-rule="nonzero" />
</svg>
