<svg viewBox="0 0 377.088 121" xmlns="http://www.w3.org/2000/svg" xmlns:xlink="http://www.w3.org/1999/xlink" width="377.087891" height="121.000000" fill="none" customFrame="#000000">
	<rect id="Ex max white 12" width="377.087891" height="121.000000" x="0.000000" y="0.000000" fill="rgb(255,255,255)" fill-opacity="0" />
	<path id="Ex max white 12" d="M3.87703 28.0155L1.02092 22.4802C-1.15403 18.2649 0.229996 12.9984 4.37392 10.8245C40.1818 -7.96054 74.0038 1.40645 91.4021 11.2102C94.9895 13.2316 95.9894 17.6134 93.9708 21.2611C92.9314 23.1395 91.6076 25.505 89.942 28.4479C87.5114 32.7426 82.1589 34.1553 77.7864 32.0115C56.5322 21.5908 37.9312 21.5785 16.1367 31.9746C11.6439 34.1177 6.19225 32.5026 3.87703 28.0155ZM9.74284 120.288Q10.4707 121 11.8945 121L22.8149 121Q24.2163 121 25.5181 120.64Q28.9789 119.683 31.7358 116.181L47.373 96.2368L63.0103 116.181Q65.7672 119.683 69.228 120.64Q70.5298 121 71.9312 121L82.8516 121Q84.3366 121 85.054 120.258Q85.3521 119.95 85.5176 119.513Q85.7227 119.154 85.7227 118.334Q85.7227 117.514 84.646 116.181L58.8062 83.2144L83.1592 52.3501Q84.2358 50.9658 84.2358 49.8379Q84.2358 48.8672 83.7581 48.296Q83.0752 47.4795 81.416 47.4795L70.3931 47.4795Q68.9387 47.4939 67.5935 47.8844Q64.1492 48.8844 61.4209 52.3501L47.373 70.1919L33.3252 52.3501Q30.4762 48.7413 26.9235 47.8064Q25.6813 47.4795 24.353 47.4795L13.3301 47.4795Q11.6709 47.4795 10.988 48.296Q10.5103 48.8672 10.5103 49.8379Q10.5103 51.0171 11.5869 52.3501L35.9399 83.2144L10.1001 116.181Q9.02344 117.565 9.02344 118.693Q9.1602 119.719 9.74284 120.288ZM93.0547 117.873L93.0547 67.9873Q93.0547 67.0265 93.4746 66.3127L93.4748 66.3124Q93.6598 65.9979 93.9263 65.7314Q94.3544 65.3034 94.8708 65.0738Q95.4676 64.8086 96.1821 64.8086L106.897 64.8086Q107.779 64.8086 108.453 65.1828Q108.837 65.3963 109.153 65.7314Q109.489 66.048 109.702 66.4322Q110.076 67.1058 110.076 67.9873L110.076 101.671L128.123 68.5Q128.261 68.2333 128.423 67.9825L128.424 67.981Q129.228 66.7381 130.635 65.8853Q132.327 64.8086 133.917 64.8086L148.272 64.8086Q149.153 64.8086 149.827 65.1828Q150.211 65.3963 150.528 65.7314Q150.863 66.048 151.076 66.4322Q151.451 67.1058 151.451 67.9873L151.451 117.873Q151.451 118.754 151.076 119.428Q150.863 119.812 150.528 120.128Q150.261 120.395 149.947 120.58Q149.233 121 148.272 121L137.557 121Q136.596 121 135.882 120.58Q135.567 120.395 135.301 120.128Q134.943 119.749 134.732 119.301Q134.429 118.658 134.429 117.873L134.429 84.2397L116.382 117.309Q115.562 118.795 113.87 119.923Q112.178 121 110.589 121L96.1821 121Q95.2213 121 94.5075 120.58L94.5072 120.58Q94.1928 120.395 93.9263 120.128Q93.6598 119.862 93.4748 119.547L93.4746 119.547Q93.0547 118.833 93.0547 117.873ZM164.012 67.9873L164.012 117.873Q164.012 118.833 164.432 119.547L164.434 119.551Q164.619 119.864 164.883 120.128Q165.15 120.395 165.465 120.58Q166.178 121 167.139 121L178.265 121Q179.225 121 179.939 120.58Q180.254 120.395 180.521 120.128Q180.856 119.812 181.069 119.428Q181.443 118.754 181.443 117.873L181.443 85.8291L194.568 117.411Q195.617 119.779 197.379 120.584L197.38 120.584Q198.289 121 199.388 121L204.412 121Q205.569 121 206.516 120.554Q208.254 119.734 209.283 117.411L222.408 85.8291L222.408 117.873Q222.408 118.658 222.71 119.301L222.71 119.301Q222.921 119.749 223.279 120.128Q223.546 120.395 223.861 120.58Q224.574 121 225.535 121L236.661 121Q237.621 121 238.335 120.58Q238.65 120.395 238.917 120.128Q239.252 119.812 239.465 119.428Q239.839 118.754 239.839 117.873L239.839 67.9873Q239.839 67.1058 239.465 66.4322Q239.252 66.048 238.917 65.7314Q238.601 65.3969 238.217 65.1836L238.216 65.1828Q237.542 64.8086 236.661 64.8086L219.024 64.8086Q218.226 64.8086 217.528 65.0727L217.527 65.0728Q215.58 65.8099 214.41 68.6025L201.9 99.1592L189.39 68.6025Q188.22 65.8099 186.272 65.0728L186.272 65.0727Q185.574 64.8086 184.776 64.8086L167.139 64.8086Q166.425 64.8086 165.828 65.0738Q165.311 65.3033 164.883 65.7314Q164.619 65.9962 164.434 66.3084L164.432 66.3127Q164.012 67.0265 164.012 67.9873ZM252.402 117.873L252.402 67.9873Q252.402 67.0268 252.822 66.313L252.822 66.3127L252.825 66.3084Q253.009 65.9962 253.274 65.7314Q253.702 65.3033 254.218 65.0738Q254.815 64.8086 255.53 64.8086L266.245 64.8086Q267.127 64.8086 267.8 65.1828L267.807 65.1869Q268.188 65.3996 268.501 65.7314Q268.834 66.0462 269.047 66.4281L269.05 66.4322Q269.424 67.1058 269.424 67.9873L269.424 101.671L287.471 68.5Q287.609 68.2325 287.771 67.981L287.773 67.9786Q288.577 66.7371 289.983 65.8853Q291.675 64.8086 293.264 64.8086L307.62 64.8086Q308.501 64.8086 309.175 65.1828L309.182 65.1869Q309.562 65.3996 309.875 65.7314Q310.209 66.0462 310.422 66.4281L310.424 66.4322Q310.798 67.1058 310.798 67.9873L310.798 117.873Q310.798 118.754 310.424 119.428L310.422 119.432Q310.209 119.814 309.875 120.128Q309.609 120.395 309.294 120.58Q308.58 121 307.62 121L296.904 121Q295.943 121 295.23 120.58Q294.915 120.395 294.648 120.128Q294.292 119.751 294.081 119.304L294.079 119.301L294.079 119.299Q293.777 118.657 293.777 117.873L293.777 84.2397L275.73 117.309Q274.91 118.795 273.218 119.923Q271.526 121 269.937 121L255.53 121Q254.569 121 253.855 120.58Q253.541 120.395 253.274 120.128Q253.009 119.864 252.825 119.551L252.822 119.547L252.822 119.547Q252.402 118.833 252.402 117.873ZM324.209 71.71Q320.845 75.9846 320.845 82.9067Q320.845 89.5756 324.053 93.8204Q326.764 97.4067 331.766 99.2617L321.46 116.488Q320.691 117.667 320.691 118.437Q320.691 119.154 320.896 119.616Q321.074 120.052 321.385 120.351Q322.059 121 323.357 121L332.586 121Q335.651 121 337.788 119.592L337.789 119.591Q339.476 118.479 340.584 116.488L349.3 100.954L359.349 100.954L359.349 117.873Q359.349 118.657 359.65 119.299L359.651 119.301L359.654 119.306Q359.864 119.752 360.22 120.128Q360.537 120.428 360.908 120.624L360.909 120.624Q361.619 121 362.527 121L373.96 121Q374.921 121 375.635 120.58Q375.95 120.395 376.216 120.128Q376.478 119.866 376.662 119.558L376.665 119.551L376.668 119.547L376.669 119.545Q377.088 118.832 377.088 117.873L377.088 67.9873Q377.088 67.028 376.669 66.3146L376.668 66.3127L376.665 66.3084L376.662 66.3023Q376.478 65.9935 376.216 65.7314Q375.903 65.3996 375.523 65.1869L375.516 65.1828Q374.842 64.8086 373.96 64.8086L343.711 64.8086Q329.616 64.8402 324.209 71.71ZM339.687 79.0328Q339.991 78.607 340.379 78.2412Q340.62 78.0071 340.885 77.8045Q342.593 76.498 345.301 76.498L359.349 76.498L359.349 89.3154L345.301 89.3154Q342.478 89.3154 340.747 87.9407Q340.529 87.7674 340.328 87.5723Q339.953 87.1978 339.659 86.7684L339.648 86.7529L339.64 86.7403L339.639 86.7393Q338.584 85.1795 338.584 82.9067Q338.584 80.5767 339.686 79.0334L339.687 79.0328Z" fill="rgb(255,255,255)" fill-rule="evenodd" />
</svg>
