<svg viewBox="0 0 48 48" xmlns="http://www.w3.org/2000/svg" xmlns:xlink="http://www.w3.org/1999/xlink" width="48.000000" height="48.000000" fill="none" customFrame="#000000">
	<rect id="48px Icon color (contur) 18" width="48.000000" height="48.000000" x="0.000000" y="0.000000" fill="rgb(255,255,255)" fill-opacity="0" />
	<path id="48px Icon color (contur) 18" d="M0 24C0 15.5992 0 11.3988 1.6349 8.19014C3.073 5.36771 5.36771 3.073 8.19014 1.6349C11.3988 0 15.5992 0 24 0C32.4008 0 36.6012 0 39.8099 1.6349C42.6323 3.073 44.927 5.36771 46.3651 8.19014C48 11.3988 48 15.5992 48 24C48 32.4008 48 36.6012 46.3651 39.8099C44.927 42.6323 42.6323 44.927 39.8099 46.3651C36.6012 48 32.4008 48 24 48C15.5992 48 11.3988 48 8.19014 46.3651C5.36771 44.927 3.073 42.6323 1.6349 39.8099C0 36.6012 0 32.4008 0 24Z" fill="rgb(255,255,255)" fill-rule="evenodd" />
	<path id="48px Icon color (contur) 18" d="M30.2777 32.4624L30.2777 28.4869C30.2782 28.4031 30.2794 28.3377 30.2825 28.2795C30.2878 28.1795 30.2966 28.1554 30.298 28.151C30.3011 28.142 30.3149 28.1054 30.3847 27.9992C30.422 27.9425 30.4671 27.878 30.5245 27.7984L30.7379 27.5062C32.8106 24.6863 33.3591 21.8198 32.7878 19.3388C32.263 17.0597 30.8103 15.1874 28.8972 14.0443C28.7074 11.5677 27.248 10.1519 25.8587 9.43825L25.8576 9.43765C25.605 9.30837 25.2843 9.13872 24.9808 9.05814C24.5899 8.95443 24.1654 8.97572 23.7544 9.23565C23.3027 9.5204 23.0724 9.98433 22.9482 10.3628C22.8172 10.7623 22.7562 11.2127 22.7367 11.6507C22.7131 12.1788 22.7483 12.7476 22.8275 13.2877C21.3513 13.716 20.2002 14.9711 20.0132 16.3972L17.6758 18.7579L17.6256 18.8129C17.4006 19.0803 17.0694 19.4725 16.875 19.94C16.6569 20.4644 16.6108 21.0764 16.9079 21.7282C17.0896 22.1275 17.3737 22.4572 17.6173 22.7053C17.8533 22.9459 18.141 23.196 18.3039 23.3472C18.7219 23.7368 19.272 23.9532 19.8435 23.9532C20.4147 23.9532 20.9645 23.7366 21.3824 23.3472C21.5129 23.2262 21.6012 23.1427 21.692 23.0651C21.7779 22.9917 21.8353 22.9511 21.8773 22.9276C21.9142 22.907 21.9361 22.9015 21.9514 22.899C21.9673 22.8964 22.006 22.8925 22.0816 22.9073L22.084 22.9079C22.2032 22.931 22.3251 22.9587 22.4629 22.991C22.5864 23.0199 22.7261 23.0522 22.8681 23.0818C22.6416 23.8547 22.1215 24.82 21.2432 25.5896L21.1218 25.6923C19.9913 26.6266 19.1314 27.3371 18.5275 27.8558C18.2259 28.1148 17.9779 28.3348 17.787 28.5168C17.6567 28.6411 17.5205 28.7772 17.4099 28.9148L17.3089 29.0523L17.3077 29.0547C17.2569 29.1324 17.1925 29.2291 17.1613 29.2776C17.1207 29.3405 17.0718 29.4196 17.0268 29.5167C16.9819 29.6135 16.9531 29.7022 16.9312 29.7742L16.8547 30.033C16.7632 30.3413 16.73 30.6749 16.7142 31.0347C16.6983 31.3964 16.6981 31.8503 16.6981 32.4152L16.6981 32.5258C16.6981 32.8305 16.6947 32.868 16.6897 32.8951C16.6766 32.9651 16.6529 33.023 16.618 33.0762L16.6168 33.078C16.6053 33.0955 16.5879 33.1188 16.3783 33.3362C15.9344 33.7956 15.566 34.1757 15.3026 34.4902C15.054 34.7872 14.79 35.1477 14.696 35.575C14.4922 36.4998 14.8627 37.4771 15.66 38.0086L15.6624 38.0098C16.0356 38.257 16.485 38.3189 16.8612 38.3468C17.2627 38.3767 17.7823 38.3761 18.4055 38.3761L28.5786 38.3761C29.2246 38.3761 29.7634 38.377 30.1791 38.345C30.5684 38.3152 31.0354 38.2488 31.4174 37.9835C31.4199 37.9818 31.4222 37.9798 31.4246 37.9781C31.7951 37.7152 32.0804 37.3496 32.2452 36.9262C32.4089 36.5055 32.4459 36.0464 32.3527 35.6049C32.3524 35.6034 32.3524 35.6021 32.3521 35.6007C32.3518 35.5993 32.3518 35.5979 32.3515 35.5965C32.2586 35.1553 31.9842 34.7847 31.7276 34.4807C31.4537 34.1562 31.0703 33.7643 30.607 33.2902L30.604 33.2872C30.3934 33.0736 30.3706 33.042 30.3578 33.0224C30.3235 32.9693 30.3002 32.9119 30.2867 32.8437C30.2814 32.8125 30.2777 32.7618 30.2777 32.4624ZM28.4418 32.4624C28.4418 32.7098 28.4381 32.9475 28.4818 33.1832L28.483 33.191C28.541 33.4896 28.6537 33.7702 28.8201 34.0259L28.8213 34.0283C28.9544 34.2317 29.1215 34.3989 29.2964 34.5763C29.7788 35.0699 30.105 35.4041 30.3249 35.6646C30.5606 35.9438 30.5629 36.0147 30.5544 35.9736C30.555 35.9764 30.5556 35.9792 30.5562 35.982C30.5762 36.075 30.5686 36.1718 30.5341 36.2605C30.5028 36.3411 30.4498 36.4107 30.3823 36.4643C30.356 36.4717 30.2616 36.4973 30.0387 36.5145C29.7101 36.5397 29.2558 36.5402 28.5786 36.5402L18.4055 36.5402C17.7524 36.5402 17.3145 36.5398 16.9975 36.5163C16.7788 36.5 16.6875 36.475 16.6634 36.4684C16.528 36.3682 16.4432 36.1747 16.4883 35.97L16.4889 35.9688C16.4805 36.0071 16.4848 35.9385 16.7106 35.6688C16.9219 35.4164 17.2345 35.0918 17.6979 34.6122C17.8564 34.4478 18.0244 34.2799 18.1533 34.0827C18.3247 33.8212 18.4393 33.5327 18.4958 33.2262L18.4958 33.225C18.5376 32.9961 18.534 32.7635 18.534 32.5258L18.534 32.4152C18.534 31.8336 18.5347 31.4272 18.5484 31.1154C18.5621 30.8022 18.5878 30.6477 18.6147 30.5566L18.6876 30.3091C18.6901 30.301 18.692 30.2945 18.6936 30.2894C18.6964 30.285 18.6999 30.279 18.7044 30.2721C18.7398 30.2172 18.7658 30.1794 18.843 30.0611L18.8807 30.0193C18.9124 29.9849 18.9671 29.9288 19.054 29.846C19.2105 29.6967 19.4302 29.5007 19.7239 29.2483C20.3111 28.744 21.1532 28.0484 22.2902 27.1088C23.6918 25.9527 24.5134 24.3676 24.7597 23.0615C25.5524 22.8543 26.3756 22.3889 27.1885 21.5901C27.55 21.2348 27.555 20.6537 27.1999 20.292C26.8445 19.9305 26.2634 19.9254 25.9018 20.2807C25.0742 21.094 24.3744 21.3257 23.8722 21.3529L23.871 21.3529C23.6997 21.3624 23.5104 21.3403 23.268 21.2907C23.146 21.2657 23.0232 21.2367 22.8813 21.2034C22.745 21.1716 22.5923 21.136 22.4349 21.1054C21.8753 20.9958 21.3972 21.0928 20.9814 21.3254C20.7181 21.4726 20.4828 21.6777 20.2995 21.8471L20.1345 22.0013L20.1315 22.0037C20.0534 22.0767 19.9504 22.1172 19.8435 22.1172C19.7366 22.1172 19.6335 22.0767 19.5554 22.0037L19.553 22.0013C19.3152 21.7807 19.1259 21.6221 18.9273 21.4198C18.736 21.2249 18.6278 21.0768 18.5783 20.968C18.5397 20.8835 18.5339 20.8292 18.534 20.7965C18.5342 20.7615 18.5418 20.7143 18.5705 20.6452C18.6378 20.4835 18.773 20.3032 19.0098 20.0207L21.5557 17.4485C21.7257 17.2766 21.821 17.0447 21.8211 16.803C21.8211 15.9816 22.7153 14.9664 23.9218 14.9664C24.2093 14.9664 24.4804 14.8317 24.6539 14.6025C24.8272 14.3734 24.883 14.0764 24.8051 13.7998C24.6375 13.2053 24.5404 12.4122 24.5708 11.7326C24.586 11.3929 24.6315 11.1216 24.6927 10.9347C24.6953 10.9269 24.6992 10.9198 24.7017 10.9126C24.7878 10.9535 24.8884 11.0044 25.0209 11.0722C26.0402 11.5962 27.0827 12.6107 27.0827 14.5953C27.0827 14.9391 27.2744 15.2543 27.58 15.4117C29.2762 16.2851 30.5594 17.8442 30.9985 19.7506C31.4338 21.641 31.0595 23.9685 29.2587 26.4185C28.9677 26.8141 28.6938 27.1674 28.5601 27.5606C28.422 27.9668 28.4418 28.3977 28.4418 28.8049L28.4418 32.4624Z" fill="rgb(255,255,255)" fill-rule="nonzero" />
	<path id="48px Icon color (contur) 18" d="M30.2777 32.4624L30.2777 28.4869C30.2782 28.4031 30.2794 28.3377 30.2825 28.2795C30.2878 28.1795 30.2966 28.1554 30.298 28.151C30.3011 28.142 30.3149 28.1054 30.3847 27.9992C30.422 27.9425 30.4671 27.878 30.5245 27.7984L30.7379 27.5062C32.8106 24.6863 33.3591 21.8198 32.7878 19.3388C32.263 17.0597 30.8103 15.1874 28.8972 14.0443C28.7074 11.5677 27.248 10.1519 25.8587 9.43825L25.8576 9.43765C25.605 9.30837 25.2843 9.13872 24.9808 9.05814C24.5899 8.95443 24.1654 8.97572 23.7544 9.23565C23.3027 9.5204 23.0724 9.98433 22.9482 10.3628C22.8172 10.7623 22.7562 11.2127 22.7367 11.6507C22.7131 12.1788 22.7483 12.7476 22.8275 13.2877C21.3513 13.716 20.2002 14.9711 20.0132 16.3972L17.6758 18.7579L17.6256 18.8129C17.4006 19.0803 17.0694 19.4725 16.875 19.94C16.6569 20.4644 16.6108 21.0764 16.9079 21.7282C17.0896 22.1275 17.3737 22.4572 17.6173 22.7053C17.8533 22.9459 18.141 23.196 18.3039 23.3472C18.7219 23.7368 19.272 23.9532 19.8435 23.9532C20.4147 23.9532 20.9645 23.7366 21.3824 23.3472C21.5129 23.2262 21.6012 23.1427 21.692 23.0651C21.7779 22.9917 21.8353 22.9511 21.8773 22.9276C21.9142 22.907 21.9361 22.9015 21.9514 22.899C21.9673 22.8964 22.006 22.8925 22.0816 22.9073L22.084 22.9079C22.2032 22.931 22.3251 22.9587 22.4629 22.991C22.5864 23.0199 22.7261 23.0522 22.8681 23.0818C22.6416 23.8547 22.1215 24.82 21.2432 25.5896L21.1218 25.6923C19.9913 26.6266 19.1314 27.3371 18.5275 27.8558C18.2259 28.1148 17.9779 28.3348 17.787 28.5168C17.6567 28.6411 17.5205 28.7772 17.4099 28.9148L17.3089 29.0523L17.3077 29.0547C17.2569 29.1324 17.1925 29.2291 17.1613 29.2776C17.1207 29.3405 17.0718 29.4196 17.0268 29.5167C16.9819 29.6135 16.9531 29.7022 16.9312 29.7742L16.8547 30.033C16.7632 30.3413 16.73 30.6749 16.7142 31.0347C16.6983 31.3964 16.6981 31.8503 16.6981 32.4152L16.6981 32.5258C16.6981 32.8305 16.6947 32.868 16.6897 32.8951C16.6766 32.9651 16.6529 33.023 16.618 33.0762L16.6168 33.078C16.6053 33.0955 16.5879 33.1188 16.3783 33.3362C15.9344 33.7956 15.566 34.1757 15.3026 34.4902C15.054 34.7872 14.79 35.1477 14.696 35.575C14.4922 36.4998 14.8627 37.4771 15.66 38.0086L15.6624 38.0098C16.0356 38.257 16.485 38.3189 16.8612 38.3468C17.2627 38.3767 17.7823 38.3761 18.4055 38.3761L28.5786 38.3761C29.2246 38.3761 29.7634 38.377 30.1791 38.345C30.5684 38.3152 31.0354 38.2488 31.4174 37.9835C31.4199 37.9818 31.4222 37.9798 31.4246 37.9781C31.7951 37.7152 32.0804 37.3496 32.2452 36.9262C32.4089 36.5055 32.4459 36.0464 32.3527 35.6049C32.3524 35.6034 32.3524 35.6021 32.3521 35.6007C32.3518 35.5993 32.3518 35.5979 32.3515 35.5965C32.2586 35.1553 31.9842 34.7847 31.7276 34.4807C31.4537 34.1562 31.0703 33.7643 30.607 33.2902L30.604 33.2872C30.3934 33.0736 30.3706 33.042 30.3578 33.0224C30.3235 32.9693 30.3002 32.9119 30.2867 32.8437C30.2814 32.8125 30.2777 32.7618 30.2777 32.4624ZM28.4418 32.4624C28.4418 32.7098 28.4381 32.9475 28.4818 33.1832L28.483 33.191C28.541 33.4896 28.6537 33.7702 28.8201 34.0259L28.8213 34.0283C28.9544 34.2317 29.1215 34.3989 29.2964 34.5763C29.7788 35.0699 30.105 35.4041 30.3249 35.6646C30.5606 35.9438 30.5629 36.0147 30.5544 35.9736C30.555 35.9764 30.5556 35.9792 30.5562 35.982C30.5762 36.075 30.5686 36.1718 30.5341 36.2605C30.5028 36.3411 30.4498 36.4107 30.3823 36.4643C30.356 36.4717 30.2616 36.4973 30.0387 36.5145C29.7101 36.5397 29.2558 36.5402 28.5786 36.5402L18.4055 36.5402C17.7524 36.5402 17.3145 36.5398 16.9975 36.5163C16.7788 36.5 16.6875 36.475 16.6634 36.4684C16.528 36.3682 16.4432 36.1747 16.4883 35.97L16.4889 35.9688C16.4805 36.0071 16.4848 35.9385 16.7106 35.6688C16.9219 35.4164 17.2345 35.0918 17.6979 34.6122C17.8564 34.4478 18.0244 34.2799 18.1533 34.0827C18.3247 33.8212 18.4393 33.5327 18.4958 33.2262L18.4958 33.225C18.5376 32.9961 18.534 32.7635 18.534 32.5258L18.534 32.4152C18.534 31.8336 18.5347 31.4272 18.5484 31.1154C18.5621 30.8022 18.5878 30.6477 18.6147 30.5566L18.6876 30.3091C18.6901 30.301 18.692 30.2945 18.6936 30.2894C18.6964 30.285 18.6999 30.279 18.7044 30.2721C18.7398 30.2172 18.7658 30.1794 18.843 30.0611L18.8807 30.0193C18.9124 29.9849 18.9671 29.9288 19.054 29.846C19.2105 29.6967 19.4302 29.5007 19.7239 29.2483C20.3111 28.744 21.1532 28.0484 22.2902 27.1088C23.6918 25.9527 24.5134 24.3676 24.7597 23.0615C25.5524 22.8543 26.3756 22.3889 27.1885 21.5901C27.55 21.2348 27.555 20.6537 27.1999 20.292C26.8445 19.9305 26.2634 19.9254 25.9018 20.2807C25.0742 21.094 24.3744 21.3257 23.8722 21.3529L23.871 21.3529C23.6997 21.3624 23.5104 21.3403 23.268 21.2907C23.146 21.2657 23.0232 21.2367 22.8813 21.2034C22.745 21.1716 22.5923 21.136 22.4349 21.1054C21.8753 20.9958 21.3972 21.0928 20.9814 21.3254C20.7181 21.4726 20.4828 21.6777 20.2995 21.8471L20.1345 22.0013L20.1315 22.0037C20.0534 22.0767 19.9504 22.1172 19.8435 22.1172C19.7366 22.1172 19.6335 22.0767 19.5554 22.0037L19.553 22.0013C19.3152 21.7807 19.1259 21.6221 18.9273 21.4198C18.736 21.2249 18.6278 21.0768 18.5783 20.968C18.5397 20.8835 18.5339 20.8292 18.534 20.7965C18.5342 20.7615 18.5418 20.7143 18.5705 20.6452C18.6378 20.4835 18.773 20.3032 19.0098 20.0207L21.5557 17.4485C21.7257 17.2766 21.821 17.0447 21.8211 16.803C21.8211 15.9816 22.7153 14.9664 23.9218 14.9664C24.2093 14.9664 24.4804 14.8317 24.6539 14.6025C24.8272 14.3734 24.883 14.0764 24.8051 13.7998C24.6375 13.2053 24.5404 12.4122 24.5708 11.7326C24.586 11.3929 24.6315 11.1216 24.6927 10.9347C24.6953 10.9269 24.6992 10.9198 24.7017 10.9126C24.7878 10.9535 24.8884 11.0044 25.0209 11.0722C26.0402 11.5962 27.0827 12.6107 27.0827 14.5953C27.0827 14.9391 27.2744 15.2543 27.58 15.4117C29.2762 16.2851 30.5594 17.8442 30.9985 19.7506C31.4338 21.641 31.0595 23.9685 29.2587 26.4185C28.9677 26.8141 28.6938 27.1674 28.5601 27.5606C28.422 27.9668 28.4418 28.3977 28.4418 28.8049L28.4418 32.4624Z" fill="rgb(111,90,76)" fill-rule="nonzero" />
	<path id="48px Icon color (contur) 18" d="M18.3119 32.4085C17.8049 32.4086 17.3939 32.8196 17.3939 33.3265C17.3939 33.8334 17.8049 34.2444 18.3119 34.2445L29.3282 34.2445C29.8352 34.2445 30.2462 33.8335 30.2462 33.3265C30.2462 32.8195 29.8352 32.4085 29.3282 32.4085L18.3119 32.4085Z" fill="rgb(255,255,255)" fill-rule="nonzero" />
	<path id="48px Icon color (contur) 18" d="M18.3119 32.4085C17.8049 32.4086 17.3939 32.8196 17.3939 33.3265C17.3939 33.8334 17.8049 34.2444 18.3119 34.2445L29.3282 34.2445C29.8352 34.2445 30.2462 33.8335 30.2462 33.3265C30.2462 32.8195 29.8352 32.4085 29.3282 32.4085L18.3119 32.4085Z" fill="rgb(111,90,76)" fill-rule="nonzero" />
</svg>
