<svg viewBox="0 0 546.404 122.025" xmlns="http://www.w3.org/2000/svg" xmlns:xlink="http://www.w3.org/1999/xlink" width="546.404297" height="122.025391" fill="none" customFrame="#000000">
	<rect id="Ex max white 08" width="546.404297" height="122.025391" x="0.000000" y="0.000000" fill="rgb(255,255,255)" fill-opacity="0" />
	<path id="Ex max white 08" d="M3.87703 28.0155L1.02092 22.4802C0.331835 21.1446 0 19.7036 0 18.2889C0 15.2382 1.5429 12.3097 4.37392 10.8245C40.1818 -7.96054 74.0038 1.40645 91.4021 11.2102C93.7599 12.5388 95 14.8869 95 17.3762C95 18.6743 94.6627 20.0108 93.9708 21.2611C92.9314 23.1395 91.6076 25.505 89.942 28.4479C87.5114 32.7426 82.1589 34.1553 77.7864 32.0115C56.5322 21.5908 37.9312 21.5785 16.1367 31.9746C11.6439 34.1177 6.19225 32.5026 3.87703 28.0155ZM10.332 116.283L10.332 52.3501Q10.332 51.0457 10.8651 50.0177L10.8651 50.0176Q11.1911 49.389 11.7163 48.8638Q12.2416 48.3385 12.8702 48.0125Q13.8982 47.4795 15.2026 47.4795L72.9321 47.4795Q73.9405 47.4795 74.7924 47.8446Q75.6297 48.2035 76.3159 48.915Q77.071 49.6701 77.4289 50.5812Q77.7515 51.4023 77.7515 52.3501L77.7515 57.1694Q77.7515 58.1786 77.3988 59.0441Q77.0528 59.8935 76.3672 60.6045Q75.7868 61.2072 75.08 61.5475Q74.1636 61.9888 73.0347 61.9888L29.6606 61.9888L29.6606 74.396L54.9878 74.396Q67.4463 74.396 75.188 80.292Q77.3855 81.9511 78.9593 84.0728Q82.9297 89.4258 82.9297 97.7236Q82.9297 105.904 79.0365 111.248Q77.4397 113.44 75.188 115.155Q67.4463 121 54.9878 121L14.9463 121Q13.8629 121 12.9697 120.588Q12.2568 120.259 11.665 119.667Q11.0929 119.073 10.7663 118.365L10.7662 118.365Q10.332 117.424 10.332 116.283ZM168.139 114.643Q167.251 113.824 166.463 112.919L166.462 112.919Q160.141 105.667 160.141 92.9043Q160.141 80.0259 166.532 72.8012L166.532 72.8009Q167.29 71.9437 168.139 71.166Q176.137 63.7832 191.107 63.7832Q206.129 63.7832 214.127 71.166Q214.976 71.9437 215.734 72.8009L215.734 72.8012Q222.125 80.0259 222.125 92.9043Q222.125 105.667 215.804 112.919L215.803 112.919Q215.015 113.824 214.127 114.643Q206.129 122.025 191.107 122.025Q176.137 122.025 168.139 114.643ZM306.26 114.643Q305.374 113.825 304.586 112.921L304.584 112.919Q298.262 105.667 298.262 92.9043Q298.262 80.0259 304.653 72.8012Q305.411 71.9438 306.26 71.166Q314.258 63.7832 329.229 63.7832Q344.25 63.7832 352.249 71.166Q353.097 71.9438 353.855 72.8012Q360.247 80.0259 360.247 92.9043Q360.247 105.667 353.925 112.919L353.922 112.921Q353.135 113.825 352.249 114.643Q344.25 122.025 329.229 122.025Q314.258 122.025 306.26 114.643ZM92.3633 117.873L92.3633 67.9873Q92.3633 67.0265 92.7832 66.3127L92.7833 66.3124Q92.9684 65.9979 93.2349 65.7314Q93.6629 65.3034 94.1794 65.0738Q94.7761 64.8086 95.4907 64.8086L106.206 64.8086Q107.088 64.8086 107.761 65.1828Q108.145 65.3963 108.462 65.7314Q108.797 66.048 109.011 66.4322Q109.385 67.1058 109.385 67.9873L109.385 101.671L127.432 68.5Q127.57 68.2325 127.732 67.981Q128.537 66.7381 129.944 65.8853Q131.636 64.8086 133.225 64.8086L147.581 64.8086Q148.462 64.8086 149.136 65.1828Q149.52 65.3963 149.836 65.7314Q150.172 66.048 150.385 66.4322Q150.759 67.1058 150.759 67.9873L150.759 117.873Q150.759 118.754 150.385 119.428Q150.172 119.812 149.836 120.128Q149.57 120.395 149.255 120.58Q148.541 121 147.581 121L136.865 121Q135.904 121 135.191 120.58Q134.876 120.395 134.609 120.128Q134.251 119.749 134.04 119.301Q133.738 118.658 133.738 117.873L133.738 84.2397L115.691 117.309Q114.871 118.795 113.179 119.923Q111.487 121 109.897 121L95.4907 121Q94.5299 121 93.8161 120.58L93.8158 120.58Q93.5014 120.395 93.2349 120.128Q92.9684 119.862 92.7833 119.547L92.7832 119.547Q92.3633 118.833 92.3633 117.873ZM226.482 117.616L235.71 80.3433Q236.896 75.6164 239.743 72.3279Q246.253 64.8086 261.448 64.8086L285.698 64.8086Q286.468 64.8086 287.085 65.1167Q287.535 65.3418 287.903 65.7314Q288.238 66.0479 288.451 66.4322Q288.826 67.1058 288.826 67.9873L288.826 117.873Q288.826 118.587 288.56 119.184Q288.331 119.7 287.903 120.128Q287.582 120.449 287.2 120.651Q286.541 121 285.698 121L274.214 121Q273.428 121 272.785 120.697Q272.337 120.486 271.958 120.128Q271.6 119.749 271.389 119.301Q271.086 118.658 271.086 117.873L271.086 77.2158L261.448 77.2158Q258.235 77.2158 256.08 78.7256Q253.421 80.589 252.373 84.7524L244.324 117.206Q244.093 118.052 243.632 118.744Q243.17 119.436 242.478 119.975Q241.53 120.704 240.477 120.915Q240.051 121 239.607 121L229.097 121Q227.953 121 227.265 120.44L227.264 120.44Q227.119 120.322 226.995 120.18Q226.328 119.308 226.328 118.693Q226.328 118.078 226.482 117.616ZM369.73 117.873L369.73 67.9873Q369.73 67.0265 370.15 66.3127Q370.335 65.998 370.602 65.7314Q371.03 65.3033 371.547 65.0738Q372.143 64.8086 372.858 64.8086L411.208 64.8086Q411.978 64.8086 412.594 65.1167Q413.044 65.3418 413.412 65.7314Q413.747 66.0479 413.961 66.4322Q414.335 67.1058 414.335 67.9873L414.335 74.0884Q414.335 74.8029 414.07 75.3997Q413.84 75.9161 413.412 76.3442Q413.092 76.6646 412.709 76.8672Q412.051 77.2158 411.208 77.2158L387.47 77.2158L387.47 117.873Q387.47 118.587 387.204 119.184Q386.975 119.7 386.547 120.128Q386.227 120.449 385.844 120.651Q385.185 121 384.342 121L372.858 121Q372.072 121 371.429 120.697Q370.981 120.486 370.602 120.128Q370.244 119.749 370.033 119.301Q369.73 118.658 369.73 117.873ZM421.719 117.873L421.719 67.9873Q421.719 67.0265 422.139 66.3127Q422.324 65.998 422.59 65.7314Q423.018 65.3033 423.535 65.0738Q424.132 64.8086 424.846 64.8086L435.562 64.8086Q436.443 64.8086 437.117 65.1828Q437.501 65.3964 437.817 65.7314Q438.152 66.0479 438.366 66.4322Q438.74 67.1058 438.74 67.9873L438.74 101.671L456.787 68.5Q456.925 68.2325 457.088 67.981Q457.892 66.7381 459.299 65.8853Q460.991 64.8086 462.581 64.8086L476.936 64.8086Q477.818 64.8086 478.491 65.1828Q478.875 65.3964 479.192 65.7314Q479.527 66.0479 479.741 66.4322Q480.115 67.1058 480.115 67.9873L480.115 117.873Q480.115 118.754 479.741 119.428Q479.527 119.812 479.192 120.128Q478.925 120.395 478.611 120.58Q477.897 121 476.936 121L466.221 121Q465.26 121 464.546 120.58Q464.231 120.395 463.965 120.128Q463.607 119.749 463.396 119.301Q463.093 118.658 463.093 117.873L463.093 84.2397L445.046 117.309Q444.226 118.795 442.534 119.923Q440.842 121 439.253 121L424.846 121Q423.885 121 423.172 120.58Q422.857 120.395 422.59 120.128Q422.324 119.862 422.139 119.547Q421.719 118.833 421.719 117.873ZM490.162 82.9067Q490.162 75.9846 493.526 71.71Q498.932 64.8402 513.028 64.8086L543.277 64.8086Q544.158 64.8086 544.832 65.1828Q545.216 65.3963 545.533 65.7314Q545.799 65.9977 545.984 66.3117L545.984 66.3127Q546.404 67.0265 546.404 67.9873L546.404 117.873Q546.404 118.833 545.984 119.547L545.984 119.548Q545.799 119.862 545.533 120.128Q545.267 120.394 544.953 120.579L544.951 120.58Q544.238 121 543.277 121L531.844 121Q530.935 121 530.224 120.624Q529.853 120.428 529.537 120.128Q529.179 119.749 528.968 119.301Q528.665 118.658 528.665 117.873L528.665 100.954L518.616 100.954L509.9 116.488Q508.792 118.479 507.104 119.592Q504.967 121 501.902 121L492.674 121Q491.375 121 490.701 120.351Q490.391 120.052 490.213 119.616Q490.008 119.154 490.008 118.437Q490.008 117.667 490.777 116.488L501.082 99.2617Q496.081 97.4067 493.37 93.8204Q490.162 89.576 490.162 82.9067ZM181.11 79.5742Q177.931 83.7271 177.931 92.853Q177.931 101.979 181.11 106.183Q181.737 107.013 182.506 107.679Q185.634 110.387 191.107 110.387Q196.674 110.387 199.817 107.627Q200.553 106.981 201.156 106.183Q204.386 101.979 204.386 92.853Q204.386 83.7271 201.156 79.5742Q200.589 78.833 199.904 78.2242L199.903 78.2237Q196.751 75.4214 191.107 75.4214Q185.557 75.4214 182.419 78.1724Q181.701 78.8014 181.11 79.5742ZM319.231 79.5742Q316.052 83.7271 316.052 92.853Q316.052 101.979 319.231 106.183Q319.858 107.013 320.627 107.679Q323.755 110.387 329.229 110.387Q334.795 110.387 337.938 107.627L337.939 107.627Q338.674 106.98 339.277 106.183Q342.507 101.979 342.507 92.853Q342.507 83.7271 339.277 79.5742Q338.71 78.8328 338.025 78.2237Q334.872 75.4214 329.229 75.4214Q323.679 75.4214 320.54 78.1724Q319.822 78.8016 319.231 79.5742ZM509.695 78.2412Q509.307 78.607 509.003 79.0328Q507.901 80.5761 507.901 82.9067Q507.901 85.1804 508.956 86.7403Q509.257 87.1855 509.644 87.5723Q509.845 87.7674 510.063 87.9407Q511.794 89.3154 514.617 89.3154L528.665 89.3154L528.665 76.498L514.617 76.498Q511.91 76.498 510.201 77.8045Q509.936 78.0071 509.695 78.2412ZM29.6606 106.491L54.9878 106.491Q59.1931 106.491 61.3452 104.389Q63.6011 102.185 63.6011 97.6724Q63.6011 93.1595 61.3452 90.9561Q59.1931 88.854 54.9878 88.854L29.6606 88.854L29.6606 106.491Z" fill="rgb(255,255,255)" fill-rule="evenodd" />
</svg>
