<svg viewBox="0 0 546.404 122.025" xmlns="http://www.w3.org/2000/svg" xmlns:xlink="http://www.w3.org/1999/xlink" width="546.404297" height="122.025391" fill="none" customFrame="#000000">
	<rect id="Ex max black (color) 08" width="546.404297" height="122.025391" x="0.000000" y="0.000000" fill="rgb(255,255,255)" fill-opacity="0" />
	<path id="Ex max black (color) 08" d="M3.87703 28.0155L1.02092 22.4802C-1.15403 18.2649 0.229996 12.9984 4.37392 10.8245C40.1818 -7.96054 74.0038 1.40645 91.4021 11.2102C94.9895 13.2316 95.9894 17.6134 93.9708 21.2611C92.9314 23.1395 91.6076 25.505 89.942 28.4479C87.5114 32.7426 82.1589 34.1553 77.7864 32.0115C56.5322 21.5908 37.9312 21.5785 16.1367 31.9746C11.6439 34.1177 6.19225 32.5026 3.87703 28.0155Z" fill="rgb(139,195,74)" fill-rule="evenodd" />
	<path id="Ex max black (color) 08" d="M490.162 82.9067C490.162 70.8755 497.784 64.8428 513.028 64.8086L543.277 64.8086C544.2 64.8086 544.952 65.1162 545.533 65.7314C546.114 66.3125 546.404 67.0645 546.404 67.9873L546.404 117.873C546.404 118.795 546.114 119.547 545.533 120.128C544.952 120.709 544.2 121 543.277 121L531.844 121C530.921 121 530.152 120.709 529.537 120.128C528.956 119.513 528.665 118.761 528.665 117.873L528.665 100.954L518.616 100.954L509.9 116.488C508.226 119.496 505.56 121 501.902 121L492.674 121C491.409 121 490.589 120.539 490.213 119.616C490.076 119.308 490.008 118.915 490.008 118.437C490.008 117.924 490.264 117.274 490.777 116.488L501.082 99.2617C493.802 96.5615 490.162 91.1099 490.162 82.9067ZM509.695 78.2412C508.499 79.3691 507.901 80.9243 507.901 82.9067C507.901 84.855 508.482 86.4102 509.644 87.5723C510.84 88.7344 512.498 89.3154 514.617 89.3154L528.665 89.3154L528.665 76.498L514.617 76.498C512.532 76.498 510.892 77.0791 509.695 78.2412Z" fill="rgb(139,195,74)" fill-rule="nonzero" />
	<path id="Ex max black (color) 08" d="M490.162 82.9067C490.162 70.8755 497.784 64.8428 513.028 64.8086L543.277 64.8086C544.2 64.8086 544.952 65.1162 545.533 65.7314C546.114 66.3125 546.404 67.0645 546.404 67.9873L546.404 117.873C546.404 118.795 546.114 119.547 545.533 120.128C544.952 120.709 544.2 121 543.277 121L531.844 121C530.921 121 530.152 120.709 529.537 120.128C528.956 119.513 528.665 118.761 528.665 117.873L528.665 100.954L518.616 100.954L509.9 116.488C508.226 119.496 505.56 121 501.902 121L492.674 121C491.409 121 490.589 120.539 490.213 119.616C490.076 119.308 490.008 118.915 490.008 118.437C490.008 117.924 490.264 117.274 490.777 116.488L501.082 99.2617C493.802 96.5615 490.162 91.1099 490.162 82.9067ZM509.695 78.2412C508.499 79.3691 507.901 80.9243 507.901 82.9067C507.901 84.855 508.482 86.4102 509.644 87.5723C510.84 88.7344 512.498 89.3154 514.617 89.3154L528.665 89.3154L528.665 76.498L514.617 76.498C512.532 76.498 510.892 77.0791 509.695 78.2412Z" fill="rgb(0,0,0)" fill-rule="nonzero" />
	<path id="Ex max black (color) 08" d="M421.719 117.873L421.719 67.9873C421.719 67.0645 422.009 66.3125 422.59 65.7314C423.206 65.1162 423.958 64.8086 424.846 64.8086L435.562 64.8086C436.484 64.8086 437.236 65.1162 437.817 65.7314C438.433 66.3125 438.74 67.0645 438.74 67.9873L438.74 101.671L456.787 68.5C457.334 67.4404 458.171 66.5688 459.299 65.8853C460.427 65.1675 461.521 64.8086 462.581 64.8086L476.936 64.8086C477.859 64.8086 478.611 65.1162 479.192 65.7314C479.807 66.3125 480.115 67.0645 480.115 67.9873L480.115 117.873C480.115 118.795 479.807 119.547 479.192 120.128C478.611 120.709 477.859 121 476.936 121L466.221 121C465.298 121 464.546 120.709 463.965 120.128C463.384 119.513 463.093 118.761 463.093 117.873L463.093 84.2397L445.046 117.309C444.5 118.3 443.662 119.171 442.534 119.923C441.406 120.641 440.312 121 439.253 121L424.846 121C423.923 121 423.171 120.709 422.59 120.128C422.009 119.547 421.719 118.795 421.719 117.873Z" fill="rgb(139,195,74)" fill-rule="nonzero" />
	<path id="Ex max black (color) 08" d="M421.719 117.873L421.719 67.9873C421.719 67.0645 422.009 66.3125 422.59 65.7314C423.206 65.1162 423.958 64.8086 424.846 64.8086L435.562 64.8086C436.484 64.8086 437.236 65.1162 437.817 65.7314C438.433 66.3125 438.74 67.0645 438.74 67.9873L438.74 101.671L456.787 68.5C457.334 67.4404 458.171 66.5688 459.299 65.8853C460.427 65.1675 461.521 64.8086 462.581 64.8086L476.936 64.8086C477.859 64.8086 478.611 65.1162 479.192 65.7314C479.807 66.3125 480.115 67.0645 480.115 67.9873L480.115 117.873C480.115 118.795 479.807 119.547 479.192 120.128C478.611 120.709 477.859 121 476.936 121L466.221 121C465.298 121 464.546 120.709 463.965 120.128C463.384 119.513 463.093 118.761 463.093 117.873L463.093 84.2397L445.046 117.309C444.5 118.3 443.662 119.171 442.534 119.923C441.406 120.641 440.312 121 439.253 121L424.846 121C423.923 121 423.171 120.709 422.59 120.128C422.009 119.547 421.719 118.795 421.719 117.873Z" fill="rgb(0,0,0)" fill-rule="nonzero" />
	<path id="Ex max black (color) 08" d="M369.73 117.873L369.73 67.9873C369.73 67.0645 370.021 66.3125 370.602 65.7314C371.217 65.1162 371.969 64.8086 372.858 64.8086L411.208 64.8086C412.096 64.8086 412.831 65.1162 413.412 65.7314C414.027 66.3125 414.335 67.0645 414.335 67.9873L414.335 74.0884C414.335 74.9771 414.027 75.729 413.412 76.3442C412.831 76.9253 412.096 77.2158 411.208 77.2158L387.47 77.2158L387.47 117.873C387.47 118.761 387.162 119.513 386.547 120.128C385.966 120.709 385.231 121 384.342 121L372.858 121C371.969 121 371.217 120.709 370.602 120.128C370.021 119.513 369.73 118.761 369.73 117.873Z" fill="rgb(139,195,74)" fill-rule="nonzero" />
	<path id="Ex max black (color) 08" d="M369.73 117.873L369.73 67.9873C369.73 67.0645 370.021 66.3125 370.602 65.7314C371.217 65.1162 371.969 64.8086 372.858 64.8086L411.208 64.8086C412.096 64.8086 412.831 65.1162 413.412 65.7314C414.027 66.3125 414.335 67.0645 414.335 67.9873L414.335 74.0884C414.335 74.9771 414.027 75.729 413.412 76.3442C412.831 76.9253 412.096 77.2158 411.208 77.2158L387.47 77.2158L387.47 117.873C387.47 118.761 387.162 119.513 386.547 120.128C385.966 120.709 385.231 121 384.342 121L372.858 121C371.969 121 371.217 120.709 370.602 120.128C370.021 119.513 369.73 118.761 369.73 117.873Z" fill="rgb(0,0,0)" fill-rule="nonzero" />
	<path id="Ex max black (color) 08" d="M306.26 114.643C300.928 109.721 298.262 102.475 298.262 92.9043C298.262 83.2998 300.928 76.0537 306.26 71.166C311.592 66.2441 319.248 63.7832 329.229 63.7832C339.243 63.7832 346.917 66.2441 352.249 71.166C357.581 76.0537 360.247 83.2998 360.247 92.9043C360.247 102.475 357.581 109.721 352.249 114.643C346.917 119.564 339.243 122.025 329.229 122.025C319.248 122.025 311.592 119.564 306.26 114.643ZM319.231 79.5742C317.112 82.3428 316.052 86.769 316.052 92.853C316.052 98.937 317.112 103.38 319.231 106.183C321.35 108.986 324.683 110.387 329.229 110.387C333.809 110.387 337.158 108.986 339.277 106.183C341.431 103.38 342.507 98.937 342.507 92.853C342.507 86.769 341.431 82.3428 339.277 79.5742C337.158 76.8057 333.809 75.4214 329.229 75.4214C324.683 75.4214 321.35 76.8057 319.231 79.5742Z" fill="rgb(139,195,74)" fill-rule="nonzero" />
	<path id="Ex max black (color) 08" d="M306.26 114.643C300.928 109.721 298.262 102.475 298.262 92.9043C298.262 83.2998 300.928 76.0537 306.26 71.166C311.592 66.2441 319.248 63.7832 329.229 63.7832C339.243 63.7832 346.917 66.2441 352.249 71.166C357.581 76.0537 360.247 83.2998 360.247 92.9043C360.247 102.475 357.581 109.721 352.249 114.643C346.917 119.564 339.243 122.025 329.229 122.025C319.248 122.025 311.592 119.564 306.26 114.643ZM319.231 79.5742C317.112 82.3428 316.052 86.769 316.052 92.853C316.052 98.937 317.112 103.38 319.231 106.183C321.35 108.986 324.683 110.387 329.229 110.387C333.809 110.387 337.158 108.986 339.277 106.183C341.431 103.38 342.507 98.937 342.507 92.853C342.507 86.769 341.431 82.3428 339.277 79.5742C337.158 76.8057 333.809 75.4214 329.229 75.4214C324.683 75.4214 321.35 76.8057 319.231 79.5742Z" fill="rgb(0,0,0)" fill-rule="nonzero" />
	<path id="Ex max black (color) 08" d="M226.482 117.616L235.71 80.3433C238.308 69.9868 246.887 64.8086 261.448 64.8086L285.698 64.8086C286.587 64.8086 287.322 65.1162 287.903 65.7314C288.518 66.3125 288.826 67.0645 288.826 67.9873L288.826 117.873C288.826 118.761 288.518 119.513 287.903 120.128C287.322 120.709 286.587 121 285.698 121L274.214 121C273.325 121 272.573 120.709 271.958 120.128C271.377 119.513 271.086 118.761 271.086 117.873L271.086 77.2158L261.448 77.2158C256.663 77.2158 253.638 79.728 252.373 84.7524L244.324 117.206C244.016 118.334 243.401 119.257 242.478 119.975C241.589 120.658 240.632 121 239.607 121L229.097 121C228.174 121 227.473 120.727 226.995 120.18C226.55 119.599 226.328 119.103 226.328 118.693C226.328 118.283 226.379 117.924 226.482 117.616Z" fill="rgb(139,195,74)" fill-rule="nonzero" />
	<path id="Ex max black (color) 08" d="M226.482 117.616L235.71 80.3433C238.308 69.9868 246.887 64.8086 261.448 64.8086L285.698 64.8086C286.587 64.8086 287.322 65.1162 287.903 65.7314C288.518 66.3125 288.826 67.0645 288.826 67.9873L288.826 117.873C288.826 118.761 288.518 119.513 287.903 120.128C287.322 120.709 286.587 121 285.698 121L274.214 121C273.325 121 272.573 120.709 271.958 120.128C271.377 119.513 271.086 118.761 271.086 117.873L271.086 77.2158L261.448 77.2158C256.663 77.2158 253.638 79.728 252.373 84.7524L244.324 117.206C244.016 118.334 243.401 119.257 242.478 119.975C241.589 120.658 240.632 121 239.607 121L229.097 121C228.174 121 227.473 120.727 226.995 120.18C226.55 119.599 226.328 119.103 226.328 118.693C226.328 118.283 226.379 117.924 226.482 117.616Z" fill="rgb(0,0,0)" fill-rule="nonzero" />
	<path id="Ex max black (color) 08" d="M168.139 114.643C162.807 109.721 160.141 102.475 160.141 92.9043C160.141 83.2998 162.807 76.0537 168.139 71.166C173.471 66.2441 181.127 63.7832 191.107 63.7832C201.122 63.7832 208.795 66.2441 214.127 71.166C219.459 76.0537 222.125 83.2998 222.125 92.9043C222.125 102.475 219.459 109.721 214.127 114.643C208.795 119.564 201.122 122.025 191.107 122.025C181.127 122.025 173.471 119.564 168.139 114.643ZM181.11 79.5742C178.991 82.3428 177.931 86.769 177.931 92.853C177.931 98.937 178.991 103.38 181.11 106.183C183.229 108.986 186.562 110.387 191.107 110.387C195.688 110.387 199.037 108.986 201.156 106.183C203.31 103.38 204.386 98.937 204.386 92.853C204.386 86.769 203.31 82.3428 201.156 79.5742C199.037 76.8057 195.688 75.4214 191.107 75.4214C186.562 75.4214 183.229 76.8057 181.11 79.5742Z" fill="rgb(139,195,74)" fill-rule="nonzero" />
	<path id="Ex max black (color) 08" d="M168.139 114.643C162.807 109.721 160.141 102.475 160.141 92.9043C160.141 83.2998 162.807 76.0537 168.139 71.166C173.471 66.2441 181.127 63.7832 191.107 63.7832C201.122 63.7832 208.795 66.2441 214.127 71.166C219.459 76.0537 222.125 83.2998 222.125 92.9043C222.125 102.475 219.459 109.721 214.127 114.643C208.795 119.564 201.122 122.025 191.107 122.025C181.127 122.025 173.471 119.564 168.139 114.643ZM181.11 79.5742C178.991 82.3428 177.931 86.769 177.931 92.853C177.931 98.937 178.991 103.38 181.11 106.183C183.229 108.986 186.562 110.387 191.107 110.387C195.688 110.387 199.037 108.986 201.156 106.183C203.31 103.38 204.386 98.937 204.386 92.853C204.386 86.769 203.31 82.3428 201.156 79.5742C199.037 76.8057 195.688 75.4214 191.107 75.4214C186.562 75.4214 183.229 76.8057 181.11 79.5742Z" fill="rgb(0,0,0)" fill-rule="nonzero" />
	<path id="Ex max black (color) 08" d="M92.3633 117.873L92.3633 67.9873C92.3633 67.0645 92.6538 66.3125 93.2349 65.7314C93.8501 65.1162 94.6021 64.8086 95.4907 64.8086L106.206 64.8086C107.129 64.8086 107.881 65.1162 108.462 65.7314C109.077 66.3125 109.385 67.0645 109.385 67.9873L109.385 101.671L127.432 68.5C127.979 67.4404 128.816 66.5688 129.944 65.8853C131.072 65.1675 132.166 64.8086 133.225 64.8086L147.581 64.8086C148.503 64.8086 149.255 65.1162 149.836 65.7314C150.452 66.3125 150.759 67.0645 150.759 67.9873L150.759 117.873C150.759 118.795 150.452 119.547 149.836 120.128C149.255 120.709 148.503 121 147.581 121L136.865 121C135.942 121 135.19 120.709 134.609 120.128C134.028 119.513 133.738 118.761 133.738 117.873L133.738 84.2397L115.691 117.309C115.144 118.3 114.307 119.171 113.179 119.923C112.051 120.641 110.957 121 109.897 121L95.4907 121C94.5679 121 93.8159 120.709 93.2349 120.128C92.6538 119.547 92.3633 118.795 92.3633 117.873Z" fill="rgb(139,195,74)" fill-rule="nonzero" />
	<path id="Ex max black (color) 08" d="M92.3633 117.873L92.3633 67.9873C92.3633 67.0645 92.6538 66.3125 93.2349 65.7314C93.8501 65.1162 94.6021 64.8086 95.4907 64.8086L106.206 64.8086C107.129 64.8086 107.881 65.1162 108.462 65.7314C109.077 66.3125 109.385 67.0645 109.385 67.9873L109.385 101.671L127.432 68.5C127.979 67.4404 128.816 66.5688 129.944 65.8853C131.072 65.1675 132.166 64.8086 133.225 64.8086L147.581 64.8086C148.503 64.8086 149.255 65.1162 149.836 65.7314C150.452 66.3125 150.759 67.0645 150.759 67.9873L150.759 117.873C150.759 118.795 150.452 119.547 149.836 120.128C149.255 120.709 148.503 121 147.581 121L136.865 121C135.942 121 135.19 120.709 134.609 120.128C134.028 119.513 133.738 118.761 133.738 117.873L133.738 84.2397L115.691 117.309C115.144 118.3 114.307 119.171 113.179 119.923C112.051 120.641 110.957 121 109.897 121L95.4907 121C94.5679 121 93.8159 120.709 93.2349 120.128C92.6538 119.547 92.3633 118.795 92.3633 117.873Z" fill="rgb(0,0,0)" fill-rule="nonzero" />
	<path id="Ex max black (color) 08" d="M10.332 116.283L10.332 52.3501C10.332 50.9487 10.7935 49.7866 11.7163 48.8638C12.6392 47.9409 13.8013 47.4795 15.2026 47.4795L72.9321 47.4795C74.2651 47.4795 75.3931 47.958 76.3159 48.915C77.2729 49.8721 77.7515 51.0171 77.7515 52.3501L77.7515 57.1694C77.7515 58.5024 77.29 59.6475 76.3672 60.6045C75.4785 61.5273 74.3677 61.9888 73.0347 61.9888L29.6606 61.9888L29.6606 74.396L54.9878 74.396C63.2935 74.396 70.0269 76.3613 75.188 80.292C80.3491 84.1885 82.9297 89.999 82.9297 97.7236C82.9297 105.414 80.3491 111.225 75.188 115.155C70.0269 119.052 63.2935 121 54.9878 121L14.9463 121C13.6475 121 12.5537 120.556 11.665 119.667C10.7764 118.744 10.332 117.616 10.332 116.283ZM29.6606 106.491L54.9878 106.491C60.73 106.491 63.6011 103.551 63.6011 97.6724C63.6011 91.7935 60.73 88.854 54.9878 88.854L29.6606 88.854L29.6606 106.491Z" fill="rgb(139,195,74)" fill-rule="nonzero" />
	<path id="Ex max black (color) 08" d="M10.332 116.283L10.332 52.3501C10.332 50.9487 10.7935 49.7866 11.7163 48.8638C12.6392 47.9409 13.8013 47.4795 15.2026 47.4795L72.9321 47.4795C74.2651 47.4795 75.3931 47.958 76.3159 48.915C77.2729 49.8721 77.7515 51.0171 77.7515 52.3501L77.7515 57.1694C77.7515 58.5024 77.29 59.6475 76.3672 60.6045C75.4785 61.5273 74.3677 61.9888 73.0347 61.9888L29.6606 61.9888L29.6606 74.396L54.9878 74.396C63.2935 74.396 70.0269 76.3613 75.188 80.292C80.3491 84.1885 82.9297 89.999 82.9297 97.7236C82.9297 105.414 80.3491 111.225 75.188 115.155C70.0269 119.052 63.2935 121 54.9878 121L14.9463 121C13.6475 121 12.5537 120.556 11.665 119.667C10.7764 118.744 10.332 117.616 10.332 116.283ZM29.6606 106.491L54.9878 106.491C60.73 106.491 63.6011 103.551 63.6011 97.6724C63.6011 91.7935 60.73 88.854 54.9878 88.854L29.6606 88.854L29.6606 106.491Z" fill="rgb(0,0,0)" fill-rule="nonzero" />
</svg>
