<svg viewBox="0 0 82.0156 98.8633" xmlns="http://www.w3.org/2000/svg" xmlns:xlink="http://www.w3.org/1999/xlink" width="82.015625" height="98.863281" fill="none" customFrame="#000000">
	<defs>
		<linearGradient id="paint_linear_2" x1="51.9712067" x2="28.2607193" y1="29.8869991" y2="91.1596832" gradientUnits="userSpaceOnUse">
			<stop stop-color="rgb(205,255,7)" offset="0" stop-opacity="1" />
			<stop stop-color="rgb(244.72,255,204.012)" offset="1" stop-opacity="1" />
		</linearGradient>
	</defs>
	<path id="33" d="M70.1473 20.6397C74.2454 23.9344 77.4989 28.3061 79.5605 33.4094C82.8234 41.4864 82.8346 50.7328 79.5911 59.1146L69.1086 86.2036C67.2551 90.9932 63.6943 94.8976 59.2086 97.0557C54.723 99.2138 49.6799 99.4489 45.1896 97.7113L11.3284 84.6082C6.83811 82.8706 3.2669 79.302 1.40236 74.6866C-0.462169 70.0712 -0.467297 64.7869 1.38613 59.9973L11.8687 32.9083C15.1122 24.5265 21.3445 17.6961 29.1944 13.9194C34.1543 11.5331 39.503 10.4903 44.7514 10.8123L45.2615 9.49399C46.6516 5.90176 49.3231 2.97575 52.6874 1.35717C56.0516 -0.261424 59.833 -0.440008 63.2008 0.863182L63.8243 1.12474C66.8981 2.50538 69.3322 5.06045 70.6431 8.30542C72.0415 11.767 72.0475 15.7291 70.6574 19.3214L70.1473 20.6397ZM62.3438 15.5923C62.6478 14.5212 62.5953 13.3835 62.1874 12.3736C61.7794 11.3637 61.0452 10.554 60.1155 10.0764L59.7066 9.89284C58.584 9.45844 57.3235 9.51797 56.2021 10.0575C55.0807 10.597 54.1902 11.5724 53.7268 12.7698L62.1921 16.0456L62.3438 15.5923ZM71.1258 55.8388C73.4426 49.8518 73.4354 43.2469 71.1048 37.4776C68.9198 32.069 64.8602 27.8111 59.7368 25.5102L58.698 25.0752L50.2327 21.7994C44.6198 19.6275 38.3162 19.9221 32.7092 22.6197C27.1021 25.3174 22.6507 30.1971 20.334 36.1841L9.85143 63.2731C8.92472 65.6679 8.92874 68.3093 9.86101 70.617C10.6812 72.6473 12.1607 74.273 14.0335 75.2261L19.643 60.73C21.0942 56.9798 23.888 53.9271 27.4089 52.2407C30.9297 50.5544 34.8892 50.3725 38.4173 51.7378L47.2857 55.1696C50.8138 56.5348 53.6195 59.3345 55.088 62.9517C56.5566 66.5688 56.5678 70.707 55.1167 74.4571L49.5072 88.9531C51.533 89.5079 53.7204 89.3013 55.6927 88.3524C57.7954 87.3407 59.4923 85.5631 60.4597 83.3713L60.6433 82.9278L71.1258 55.8388ZM40.6229 85.5624L46.2483 71.0253C46.732 69.7753 46.7282 68.3959 46.2387 67.1902C45.7492 65.9845 44.8139 65.0512 43.6379 64.5961L34.7695 61.1643C33.5935 60.7093 32.2737 60.7699 31.1 61.332C29.9264 61.8941 28.9951 62.9117 28.5114 64.1617L22.8861 78.6988L40.6229 85.5624ZM59.0154 38.0323C60.0227 35.4292 58.8541 32.5508 56.4051 31.6031L47.5367 28.1714C45.0878 27.2237 42.2859 28.5657 41.2786 31.1688C40.2713 33.7718 41.44 36.6503 43.8889 37.5979L52.7573 41.0297C55.2063 41.9774 58.0081 40.6354 59.0154 38.0323Z" fill="url(#paint_linear_2)" fill-rule="evenodd" />
</svg>
