<svg viewBox="0 0 151.742 143.382" xmlns="http://www.w3.org/2000/svg" xmlns:xlink="http://www.w3.org/1999/xlink" width="151.742188" height="143.382324" fill="none" customFrame="#000000">
	<defs>
		<linearGradient id="paint_linear_3" x1="54.4908524" x2="97.2478409" y1="5.24726868" y2="138.135208" gradientUnits="userSpaceOnUse">
			<stop stop-color="rgb(205,255,7)" offset="0" stop-opacity="1" />
			<stop stop-color="rgb(244.72,255,204.012)" offset="1" stop-opacity="1" />
		</linearGradient>
	</defs>
	<path id="34" d="M64.0674 8.33851C63.8066 4.05803 67.1338 0.333703 71.4972 0.0209326C75.8605 -0.291331 79.6102 2.92694 79.8715 7.20751L87.6743 135.044C87.9351 139.324 84.6079 143.048 80.2445 143.361C75.8812 143.674 72.1315 140.455 71.8703 136.175L64.0674 8.33851ZM21.5992 50.8065C23.6203 46.9747 28.3998 45.4369 32.2761 47.3712C36.1524 49.3054 37.656 53.9786 35.6349 57.8104L18.5932 90.1203L51.2786 106.43C55.1548 108.365 56.6584 113.038 54.6374 116.87C52.6164 120.701 47.8368 122.239 43.9605 120.305L4.25724 100.493C0.38097 98.5586 -1.12263 93.8854 0.89841 90.0537L21.5992 50.8065ZM97.1043 26.5125C99.1254 22.6808 103.905 21.143 107.781 23.0772L147.484 42.8893C151.361 44.8236 152.864 49.4968 150.843 53.3285L130.143 92.5757C128.121 96.4075 123.342 97.9453 119.466 96.011C115.589 94.0768 114.086 89.4036 116.107 85.5718L133.149 53.2619L100.463 36.9517C96.5869 35.0175 95.0833 30.3443 97.1043 26.5125Z" fill="url(#paint_linear_3)" fill-rule="nonzero" />
</svg>
