<svg viewBox="0 0 76.2031 76.1987" xmlns="http://www.w3.org/2000/svg" xmlns:xlink="http://www.w3.org/1999/xlink" width="76.203125" height="76.198730" fill="none" customFrame="#000000">
	<defs>
		<linearGradient id="paint_linear_0" x1="42.8397827" x2="33.3499756" y1="31.0954876" y2="45.0992661" gradientUnits="userSpaceOnUse">
			<stop stop-color="rgb(205,255,7)" offset="0" stop-opacity="1" />
			<stop stop-color="rgb(244.72,255,204.012)" offset="1" stop-opacity="1" />
		</linearGradient>
	</defs>
	<path id="35" d="M66.7055 22.1802C71.3356 23.7965 75.2326 26.5508 76.0506 30.8079C76.8684 35.0649 74.2696 39.0673 70.5682 42.2845C67.0682 45.3265 62.1003 48.1155 56.2408 50.3922C56.2977 56.6782 55.5484 62.3259 54.0201 66.704C52.4037 71.3342 49.6495 75.2312 45.3924 76.0491C42.2303 76.6567 39.1929 75.3562 36.5896 73.2042C33.9744 71.0424 31.5288 67.8191 29.3717 63.9245C28.7544 62.81 29.1577 61.4057 30.2722 60.7885C31.3865 60.1715 32.7896 60.5742 33.4069 61.6882C35.4004 65.2874 37.5117 67.9809 39.5289 69.6484C41.5579 71.3256 43.2288 71.7674 44.5219 71.5189C46.2749 71.1821 48.2044 69.3652 49.6642 65.1836C50.8494 61.7884 51.5477 57.2714 51.6237 52.0146C48.2337 53.0955 44.7812 53.972 41.2837 54.6371L41.2841 54.6392C36.7282 55.524 32.109 56.0489 27.4707 56.2087L27.4632 56.209C20.5149 56.4242 14.2552 55.6799 9.49618 54.0186C4.86612 52.4023 0.969093 49.648 0.151087 45.3909C-0.666858 41.1338 1.93199 37.1315 5.63341 33.9143C9.13349 30.8723 14.1007 28.0813 19.9604 25.8045C19.9048 19.52 20.6547 13.8732 22.1828 9.49559C23.799 4.86598 26.5527 0.968124 30.808 0.148822L30.8093 0.149664C33.9714 -0.457886 37.0087 0.842589 39.6121 2.99463C42.2272 5.15642 44.6729 8.37965 46.83 12.2743C47.4472 13.3888 47.0439 14.7931 45.9294 15.4103C44.815 16.0273 43.4107 15.6241 42.7935 14.5097C40.8002 10.9108 38.6898 8.21784 36.6727 6.55043C34.7705 4.97794 33.1831 4.49202 31.9266 4.64215L31.6797 4.67986C29.9279 5.01754 27.9984 6.83465 26.5387 11.016C25.3537 14.4106 24.6555 18.9263 24.5784 24.1809C27.9711 23.0992 31.4276 22.2229 34.9279 21.5576C39.4807 20.6739 44.096 20.1498 48.731 19.9901L48.7385 19.9897C55.6868 19.7746 61.9465 20.5189 66.7055 22.1802ZM71.5204 31.6783C71.1835 29.9253 69.3667 27.9958 65.185 26.5361C61.79 25.3509 57.2733 24.6513 52.0169 24.5752C53.0979 27.9655 53.9754 31.4184 54.6407 34.9161C55.3199 38.4138 55.7849 41.9492 56.0375 45.5013C60.8913 43.4827 64.8278 41.1611 67.5418 38.8022C70.8846 35.8967 71.8571 33.4313 71.5204 31.6783ZM47.1972 24.6762C43.3704 24.8856 39.5618 25.3569 35.7984 26.0878L35.7879 26.0898C32.0216 26.8057 28.3095 27.7793 24.6776 29.003C24.887 32.8298 25.3583 36.6384 26.0892 40.4019L26.092 40.4111C26.8079 44.1774 27.7816 47.8895 29.0053 51.5213C32.832 51.312 36.6407 50.8407 40.4041 50.1098L40.4125 50.1082C44.1788 49.3923 47.891 48.4186 51.5228 47.1949C51.3134 43.3682 50.8421 39.5596 50.1112 35.7961L50.1105 35.7865C49.3946 32.0201 48.4209 28.3081 47.1972 24.6762ZM33.3495 45.099C37.2166 47.7196 42.4758 46.7091 45.0963 42.842C47.7169 38.975 46.7064 33.7158 42.8393 31.0953C38.9723 28.4747 33.7131 29.4852 31.0925 33.3522C28.472 37.2193 29.4825 42.4785 33.3495 45.099ZM20.1637 30.6954C15.3097 32.7141 11.3739 35.0376 8.65984 37.3966C5.31695 40.3021 4.34447 42.7675 4.68128 44.5205C5.01816 46.2735 6.83511 48.203 11.0166 49.6627C14.4116 50.8479 18.9281 51.5454 24.1844 51.6215C23.1026 48.2286 22.2243 44.7727 21.559 41.2723L21.5598 41.271C20.8816 37.7762 20.416 34.2446 20.1637 30.6954ZM40.2512 34.9145C42.0089 36.1056 42.4683 38.4962 41.2771 40.2539C40.086 42.0117 37.6954 42.471 35.9377 41.2798C34.1799 40.0887 33.7206 37.6981 34.9118 35.9404C36.1029 34.1826 38.4935 33.7233 40.2512 34.9145Z" fill="url(#paint_linear_0)" fill-rule="evenodd" />
</svg>
