<svg viewBox="0 0 66.7148 79.5239" xmlns="http://www.w3.org/2000/svg" xmlns:xlink="http://www.w3.org/1999/xlink" width="66.714844" height="79.523926" fill="none" customFrame="#000000">
	<defs>
		<linearGradient id="paint_linear_1" x1="12.5264988" x2="41.8383026" y1="0.149676323" y2="69.756813" gradientUnits="userSpaceOnUse">
			<stop stop-color="rgb(205,255,7)" offset="0" stop-opacity="1" />
			<stop stop-color="rgb(244.72,255,204.012)" offset="1" stop-opacity="1" />
		</linearGradient>
	</defs>
	<path id="36" d="M19.4648 79.1781C18.4083 79.623 17.3728 79.6385 16.3585 79.2244C15.3441 78.8103 14.6142 78.0778 14.1687 77.0269C13.7233 75.9761 13.7093 74.9421 14.1269 73.925C14.5445 72.908 15.279 72.178 16.3306 71.7352L31.2464 65.4541L28.1121 58.0112C22.9538 60.1834 17.7931 60.2199 12.6302 58.1208C7.46721 56.0216 3.80109 52.3998 1.6318 47.2553C0.143038 43.7199 -0.327027 40.0841 0.221604 36.348C0.770236 32.6119 2.30287 29.3011 4.81952 26.4158C5.14553 27.885 5.75431 29.1987 6.64587 30.3567C7.53742 31.5147 8.60298 32.5265 9.84254 33.392C8.83101 34.9863 8.26267 36.7226 8.13752 38.6008C8.01238 40.4791 8.32978 42.3171 9.0897 44.1147C10.3956 47.216 12.5933 49.394 15.6827 50.6488C18.772 51.9037 21.8705 51.8769 24.9779 50.5683L51.0806 39.5764C52.1371 39.1315 53.1738 39.1155 54.1906 39.5285C55.2075 39.9416 55.9362 40.6746 56.3766 41.7276C56.8171 42.7805 56.8316 43.8157 56.4201 44.8332C56.0085 45.8506 55.2734 46.5793 54.2148 47.0193L39.299 53.3004L42.4332 60.7433L61.078 52.8919C62.1345 52.447 63.1712 52.4311 64.1881 52.8441C65.2049 53.2571 65.9336 53.9901 66.3741 55.0431C66.8146 56.0961 66.829 57.1313 66.4175 58.1487C66.0059 59.1662 65.2709 59.8949 64.2122 60.3348L19.4648 79.1781ZM32.7416 30.4307L32.6484 30.4699C31.8107 31.2608 30.8555 31.6441 29.7828 31.6197C28.7101 31.5953 27.7802 31.1661 26.9929 30.3322L25.8067 29.0791C26.6318 27.5633 27.0926 25.9643 27.1891 24.2821C27.2856 22.5999 26.9938 20.9513 26.3136 19.3362C25.0861 16.421 23.0226 14.388 20.1234 13.2371C17.2241 12.0862 14.2824 12.1376 11.2982 13.3914L10.3227 12.3782C9.5941 11.5167 9.24277 10.5503 9.26874 9.47906C9.29471 8.40783 9.72581 7.47853 10.562 6.69117L10.6553 6.65192C9.89059 5.87858 9.53668 4.95126 9.59353 3.86995C9.65037 2.78864 10.1282 1.83821 11.027 1.01867C11.8286 0.315984 12.7658 -0.0231649 13.8385 0.00122748C14.9112 0.0256191 15.8101 0.467865 16.5352 1.32796C17.3729 0.537077 18.3492 0.162434 19.4643 0.204036C20.5794 0.245637 21.5323 0.684118 22.3231 1.51948L38.7825 19.2336C39.5733 20.069 39.957 21.0217 39.9335 22.0919C39.91 23.1621 39.4776 24.0919 38.6364 24.8814L38.5432 24.9206C39.334 25.756 39.7078 26.7305 39.6645 27.844C39.6212 28.9576 39.1497 29.9229 38.2499 30.74C37.4482 31.4426 36.5128 31.7825 35.4436 31.7596C34.3745 31.7366 33.4738 31.2936 32.7416 30.4307ZM18.6934 30.4316C16.8289 31.2167 14.9698 31.2328 13.1162 30.4799C11.2626 29.727 9.94401 28.4202 9.16045 26.5594C8.37689 24.6987 8.36343 22.8423 9.12007 20.9902C9.87671 19.1381 11.1873 17.8195 13.0517 17.0343C14.9162 16.2492 16.7753 16.2331 18.6289 16.986C20.4825 17.7389 21.8011 19.0457 22.5847 20.9065C23.3682 22.7672 23.3817 24.6236 22.625 26.4757C21.8684 28.3278 20.5578 29.6464 18.6934 30.4316Z" fill="url(#paint_linear_1)" fill-rule="nonzero" />
</svg>
