<svg viewBox="0 0 678.117 139.354" xmlns="http://www.w3.org/2000/svg" xmlns:xlink="http://www.w3.org/1999/xlink" width="678.117188" height="139.354492" fill="none" customFrame="#000000">
	<rect id="Ex max black (color) 04" width="678.116699" height="139.354492" x="0.000000" y="0.000000" fill="rgb(255,255,255)" fill-opacity="0" />
	<path id="Ex max black (color) 04" d="M3.87703 28.0155L1.02092 22.4802C-1.15403 18.2649 0.229996 12.9984 4.37392 10.8245C40.1818 -7.96054 74.0038 1.40645 91.4021 11.2102C94.9895 13.2316 95.9894 17.6134 93.9708 21.2611C92.9314 23.1395 91.6076 25.505 89.942 28.4479C87.5114 32.7426 82.1589 34.1553 77.7864 32.0115C56.5322 21.5908 37.9312 21.5785 16.1367 31.9746C11.6439 34.1177 6.19225 32.5026 3.87703 28.0155Z" fill="rgb(221.482,155.278,0)" fill-rule="evenodd" />
	<path id="Ex max black (color) 04" d="M625.873 117.309C621.361 114.164 619.105 109.721 619.105 103.979C619.105 98.2363 621.361 93.8271 625.873 90.751C630.419 87.6748 636.264 86.1367 643.407 86.1367L660.377 86.1367C660.377 82.1377 659.54 79.3521 657.865 77.7798C656.19 76.2075 653.251 75.4214 649.047 75.4214C644.877 75.4214 641.938 76.4639 640.229 78.5488C638.554 80.5996 636.486 81.625 634.025 81.625L626.386 81.625C625.463 81.625 624.694 81.3345 624.079 80.7534C623.498 80.1382 623.207 79.3862 623.207 78.4976C623.207 68.688 632.521 63.7832 651.149 63.7832C659.284 63.7832 665.812 65.6118 670.734 69.269C675.656 72.8921 678.117 78.5146 678.117 86.1367L678.117 117.873C678.117 118.795 677.826 119.547 677.245 120.128C676.664 120.709 675.912 121 674.989 121L665.094 121C664.171 121 663.419 120.709 662.838 120.128C662.257 119.513 661.967 118.761 661.967 117.873L661.967 116.283C656.566 120.146 650.329 122.06 643.253 122.025C636.212 122.025 630.419 120.453 625.873 117.309ZM644.638 97.7749C642.245 97.7749 640.348 98.356 638.947 99.5181C637.58 100.68 636.896 102.184 636.896 104.03C636.896 105.875 637.614 107.396 639.049 108.593C640.485 109.789 642.519 110.387 645.15 110.387C650.414 110.387 655.49 108.849 660.377 105.773L660.377 97.7749L644.638 97.7749Z" fill="rgb(221.482,155.278,0)" fill-rule="nonzero" />
	<path id="Ex max black (color) 04" d="M625.873 117.309C621.361 114.164 619.105 109.721 619.105 103.979C619.105 98.2363 621.361 93.8271 625.873 90.751C630.419 87.6748 636.264 86.1367 643.407 86.1367L660.377 86.1367C660.377 82.1377 659.54 79.3521 657.865 77.7798C656.19 76.2075 653.251 75.4214 649.047 75.4214C644.877 75.4214 641.938 76.4639 640.229 78.5488C638.554 80.5996 636.486 81.625 634.025 81.625L626.386 81.625C625.463 81.625 624.694 81.3345 624.079 80.7534C623.498 80.1382 623.207 79.3862 623.207 78.4976C623.207 68.688 632.521 63.7832 651.149 63.7832C659.284 63.7832 665.812 65.6118 670.734 69.269C675.656 72.8921 678.117 78.5146 678.117 86.1367L678.117 117.873C678.117 118.795 677.826 119.547 677.245 120.128C676.664 120.709 675.912 121 674.989 121L665.094 121C664.171 121 663.419 120.709 662.838 120.128C662.257 119.513 661.967 118.761 661.967 117.873L661.967 116.283C656.566 120.146 650.329 122.06 643.253 122.025C636.212 122.025 630.419 120.453 625.873 117.309ZM644.638 97.7749C642.245 97.7749 640.348 98.356 638.947 99.5181C637.58 100.68 636.896 102.184 636.896 104.03C636.896 105.875 637.614 107.396 639.049 108.593C640.485 109.789 642.519 110.387 645.15 110.387C650.414 110.387 655.49 108.849 660.377 105.773L660.377 97.7749L644.638 97.7749Z" fill="rgb(0,0,0)" fill-rule="nonzero" />
	<path id="Ex max black (color) 04" d="M552.762 135.15L552.762 67.9873C552.762 67.0645 553.052 66.3125 553.633 65.7314C554.249 65.1162 555 64.8086 555.889 64.8086L565.784 64.8086C566.673 64.8086 567.408 65.1162 567.989 65.7314C568.604 66.3125 568.912 67.0645 568.912 67.9873L568.912 69.5254C574.312 65.6973 580.584 63.7832 587.728 63.7832C594.871 63.7832 600.835 66.3125 605.621 71.3711C610.406 76.3955 612.798 83.6074 612.798 93.0068C612.798 102.372 610.32 109.55 605.364 114.54C600.408 119.53 593.726 122.025 585.318 122.025C580.977 122.025 576.038 121.154 570.501 119.411L570.501 135.15C570.501 136.073 570.193 136.825 569.578 137.406C568.997 138.021 568.262 138.329 567.374 138.329L555.889 138.329C555 138.329 554.249 138.021 553.633 137.406C553.052 136.825 552.762 136.073 552.762 135.15ZM570.501 107.567C574.91 108.969 578.619 109.669 581.626 109.669C586.309 109.669 589.625 108.336 591.573 105.67C593.555 103.004 594.546 98.749 594.546 92.9043C594.546 87.0596 593.606 82.8213 591.727 80.1895C589.881 77.5234 587.095 76.1904 583.37 76.1904C579.678 76.1904 575.389 77.7285 570.501 80.8047L570.501 107.567Z" fill="rgb(221.482,155.278,0)" fill-rule="nonzero" />
	<path id="Ex max black (color) 04" d="M552.762 135.15L552.762 67.9873C552.762 67.0645 553.052 66.3125 553.633 65.7314C554.249 65.1162 555 64.8086 555.889 64.8086L565.784 64.8086C566.673 64.8086 567.408 65.1162 567.989 65.7314C568.604 66.3125 568.912 67.0645 568.912 67.9873L568.912 69.5254C574.312 65.6973 580.584 63.7832 587.728 63.7832C594.871 63.7832 600.835 66.3125 605.621 71.3711C610.406 76.3955 612.798 83.6074 612.798 93.0068C612.798 102.372 610.32 109.55 605.364 114.54C600.408 119.53 593.726 122.025 585.318 122.025C580.977 122.025 576.038 121.154 570.501 119.411L570.501 135.15C570.501 136.073 570.193 136.825 569.578 137.406C568.997 138.021 568.262 138.329 567.374 138.329L555.889 138.329C555 138.329 554.249 138.021 553.633 137.406C553.052 136.825 552.762 136.073 552.762 135.15ZM570.501 107.567C574.91 108.969 578.619 109.669 581.626 109.669C586.309 109.669 589.625 108.336 591.573 105.67C593.555 103.004 594.546 98.749 594.546 92.9043C594.546 87.0596 593.606 82.8213 591.727 80.1895C589.881 77.5234 587.095 76.1904 583.37 76.1904C579.678 76.1904 575.389 77.7285 570.501 80.8047L570.501 107.567Z" fill="rgb(0,0,0)" fill-rule="nonzero" />
	<path id="Ex max black (color) 04" d="M497.34 126.332L504.056 127.204C508.875 127.204 512.242 123.666 514.156 116.591C508.346 116.591 503.492 114.848 499.596 111.361C495.699 107.841 492.35 101.603 489.547 92.6479L481.908 67.8848C481.805 67.6113 481.754 67.3037 481.754 66.9619C481.754 66.5859 481.959 66.1416 482.369 65.6289C482.813 65.1162 483.463 64.8428 484.317 64.8086L495.033 64.8086C496.024 64.8086 496.964 65.1504 497.853 65.834C498.775 66.4834 499.374 67.3037 499.647 68.2949L506.363 90.0332C508.038 95.3652 509.73 99.0566 511.439 101.107C513.182 103.158 515.233 104.184 517.591 104.184L527.794 68.2949C528.067 67.3037 528.597 66.4834 529.383 65.834C530.204 65.1504 531.109 64.8086 532.101 64.8086L542.918 64.8086C543.773 64.8086 544.405 65.082 544.815 65.6289C545.226 66.1758 545.431 66.6372 545.431 67.0132C545.431 67.355 545.396 67.6455 545.328 67.8848L531.896 115.771C529.503 124.247 526.529 130.297 522.975 133.92C519.454 137.543 514.908 139.354 509.337 139.354C503.766 139.354 499.818 139.149 497.494 138.739C495.204 138.329 493.768 137.816 493.187 137.201C492.606 136.62 492.315 135.937 492.315 135.15L492.315 129.511C492.315 128.588 492.606 127.819 493.187 127.204C493.768 126.623 494.52 126.332 495.443 126.332L497.34 126.332Z" fill="rgb(221.482,155.278,0)" fill-rule="nonzero" />
	<path id="Ex max black (color) 04" d="M497.34 126.332L504.056 127.204C508.875 127.204 512.242 123.666 514.156 116.591C508.346 116.591 503.492 114.848 499.596 111.361C495.699 107.841 492.35 101.603 489.547 92.6479L481.908 67.8848C481.805 67.6113 481.754 67.3037 481.754 66.9619C481.754 66.5859 481.959 66.1416 482.369 65.6289C482.813 65.1162 483.463 64.8428 484.317 64.8086L495.033 64.8086C496.024 64.8086 496.964 65.1504 497.853 65.834C498.775 66.4834 499.374 67.3037 499.647 68.2949L506.363 90.0332C508.038 95.3652 509.73 99.0566 511.439 101.107C513.182 103.158 515.233 104.184 517.591 104.184L527.794 68.2949C528.067 67.3037 528.597 66.4834 529.383 65.834C530.204 65.1504 531.109 64.8086 532.101 64.8086L542.918 64.8086C543.773 64.8086 544.405 65.082 544.815 65.6289C545.226 66.1758 545.431 66.6372 545.431 67.0132C545.431 67.355 545.396 67.6455 545.328 67.8848L531.896 115.771C529.503 124.247 526.529 130.297 522.975 133.92C519.454 137.543 514.908 139.354 509.337 139.354C503.766 139.354 499.818 139.149 497.494 138.739C495.204 138.329 493.768 137.816 493.187 137.201C492.606 136.62 492.315 135.937 492.315 135.15L492.315 129.511C492.315 128.588 492.606 127.819 493.187 127.204C493.768 126.623 494.52 126.332 495.443 126.332L497.34 126.332Z" fill="rgb(0,0,0)" fill-rule="nonzero" />
	<path id="Ex max black (color) 04" d="M422.18 74.0884L422.18 67.9873C422.18 67.0645 422.47 66.3125 423.051 65.7314C423.667 65.1162 424.436 64.8086 425.358 64.8086L475.859 64.8086C476.782 64.8086 477.534 65.1162 478.115 65.7314C478.696 66.3125 478.986 67.0645 478.986 67.9873L478.986 74.0884C478.986 74.9771 478.696 75.729 478.115 76.3442C477.534 76.9253 476.782 77.2158 475.859 77.2158L459.504 77.2158L459.504 117.873C459.504 118.761 459.196 119.513 458.581 120.128C458 120.709 457.248 121 456.325 121L444.892 121C443.969 121 443.2 120.709 442.585 120.128C442.004 119.513 441.713 118.761 441.713 117.873L441.713 77.2158L425.358 77.2158C424.436 77.2158 423.667 76.9253 423.051 76.3442C422.47 75.729 422.18 74.9771 422.18 74.0884Z" fill="rgb(221.482,155.278,0)" fill-rule="nonzero" />
	<path id="Ex max black (color) 04" d="M422.18 74.0884L422.18 67.9873C422.18 67.0645 422.47 66.3125 423.051 65.7314C423.667 65.1162 424.436 64.8086 425.358 64.8086L475.859 64.8086C476.782 64.8086 477.534 65.1162 478.115 65.7314C478.696 66.3125 478.986 67.0645 478.986 67.9873L478.986 74.0884C478.986 74.9771 478.696 75.729 478.115 76.3442C477.534 76.9253 476.782 77.2158 475.859 77.2158L459.504 77.2158L459.504 117.873C459.504 118.761 459.196 119.513 458.581 120.128C458 120.709 457.248 121 456.325 121L444.892 121C443.969 121 443.2 120.709 442.585 120.128C442.004 119.513 441.713 118.761 441.713 117.873L441.713 77.2158L425.358 77.2158C424.436 77.2158 423.667 76.9253 423.051 76.3442C422.47 75.729 422.18 74.9771 422.18 74.0884Z" fill="rgb(0,0,0)" fill-rule="nonzero" />
	<path id="Ex max black (color) 04" d="M363.58 117.309C359.068 114.164 356.812 109.721 356.812 103.979C356.812 98.2363 359.068 93.8271 363.58 90.751C368.126 87.6748 373.971 86.1367 381.114 86.1367L398.084 86.1367C398.084 82.1377 397.247 79.3521 395.572 77.7798C393.897 76.2075 390.958 75.4214 386.754 75.4214C382.584 75.4214 379.645 76.4639 377.936 78.5488C376.261 80.5996 374.193 81.625 371.732 81.625L364.093 81.625C363.17 81.625 362.401 81.3345 361.786 80.7534C361.205 80.1382 360.914 79.3862 360.914 78.4976C360.914 68.688 370.228 63.7832 388.856 63.7832C396.991 63.7832 403.519 65.6118 408.441 69.269C413.363 72.8921 415.824 78.5146 415.824 86.1367L415.824 117.873C415.824 118.795 415.533 119.547 414.952 120.128C414.371 120.709 413.619 121 412.696 121L402.801 121C401.878 121 401.126 120.709 400.545 120.128C399.964 119.513 399.674 118.761 399.674 117.873L399.674 116.283C394.273 120.146 388.036 122.06 380.96 122.025C373.919 122.025 368.126 120.453 363.58 117.309ZM382.345 97.7749C379.952 97.7749 378.055 98.356 376.654 99.5181C375.287 100.68 374.603 102.184 374.603 104.03C374.603 105.875 375.321 107.396 376.756 108.593C378.192 109.789 380.226 110.387 382.857 110.387C388.121 110.387 393.197 108.849 398.084 105.773L398.084 97.7749L382.345 97.7749Z" fill="rgb(221.482,155.278,0)" fill-rule="nonzero" />
	<path id="Ex max black (color) 04" d="M363.58 117.309C359.068 114.164 356.812 109.721 356.812 103.979C356.812 98.2363 359.068 93.8271 363.58 90.751C368.126 87.6748 373.971 86.1367 381.114 86.1367L398.084 86.1367C398.084 82.1377 397.247 79.3521 395.572 77.7798C393.897 76.2075 390.958 75.4214 386.754 75.4214C382.584 75.4214 379.645 76.4639 377.936 78.5488C376.261 80.5996 374.193 81.625 371.732 81.625L364.093 81.625C363.17 81.625 362.401 81.3345 361.786 80.7534C361.205 80.1382 360.914 79.3862 360.914 78.4976C360.914 68.688 370.228 63.7832 388.856 63.7832C396.991 63.7832 403.519 65.6118 408.441 69.269C413.363 72.8921 415.824 78.5146 415.824 86.1367L415.824 117.873C415.824 118.795 415.533 119.547 414.952 120.128C414.371 120.709 413.619 121 412.696 121L402.801 121C401.878 121 401.126 120.709 400.545 120.128C399.964 119.513 399.674 118.761 399.674 117.873L399.674 116.283C394.273 120.146 388.036 122.06 380.96 122.025C373.919 122.025 368.126 120.453 363.58 117.309ZM382.345 97.7749C379.952 97.7749 378.055 98.356 376.654 99.5181C375.287 100.68 374.603 102.184 374.603 104.03C374.603 105.875 375.321 107.396 376.756 108.593C378.192 109.789 380.226 110.387 382.857 110.387C388.121 110.387 393.197 108.849 398.084 105.773L398.084 97.7749L382.345 97.7749Z" fill="rgb(0,0,0)" fill-rule="nonzero" />
	<path id="Ex max black (color) 04" d="M290.469 135.15L290.469 67.9873C290.469 67.0645 290.759 66.3125 291.34 65.7314C291.956 65.1162 292.708 64.8086 293.596 64.8086L303.491 64.8086C304.38 64.8086 305.115 65.1162 305.696 65.7314C306.311 66.3125 306.619 67.0645 306.619 67.9873L306.619 69.5254C312.019 65.6973 318.291 63.7832 325.435 63.7832C332.578 63.7832 338.542 66.3125 343.328 71.3711C348.113 76.3955 350.505 83.6074 350.505 93.0068C350.505 102.372 348.027 109.55 343.071 114.54C338.115 119.53 331.433 122.025 323.025 122.025C318.684 122.025 313.745 121.154 308.208 119.411L308.208 135.15C308.208 136.073 307.9 136.825 307.285 137.406C306.704 138.021 305.969 138.329 305.081 138.329L293.596 138.329C292.708 138.329 291.956 138.021 291.34 137.406C290.759 136.825 290.469 136.073 290.469 135.15ZM308.208 107.567C312.617 108.969 316.326 109.669 319.333 109.669C324.016 109.669 327.332 108.336 329.28 105.67C331.262 103.004 332.253 98.749 332.253 92.9043C332.253 87.0596 331.313 82.8213 329.434 80.1895C327.588 77.5234 324.802 76.1904 321.077 76.1904C317.385 76.1904 313.096 77.7285 308.208 80.8047L308.208 107.567Z" fill="rgb(221.482,155.278,0)" fill-rule="nonzero" />
	<path id="Ex max black (color) 04" d="M290.469 135.15L290.469 67.9873C290.469 67.0645 290.759 66.3125 291.34 65.7314C291.956 65.1162 292.708 64.8086 293.596 64.8086L303.491 64.8086C304.38 64.8086 305.115 65.1162 305.696 65.7314C306.311 66.3125 306.619 67.0645 306.619 67.9873L306.619 69.5254C312.019 65.6973 318.291 63.7832 325.435 63.7832C332.578 63.7832 338.542 66.3125 343.328 71.3711C348.113 76.3955 350.505 83.6074 350.505 93.0068C350.505 102.372 348.027 109.55 343.071 114.54C338.115 119.53 331.433 122.025 323.025 122.025C318.684 122.025 313.745 121.154 308.208 119.411L308.208 135.15C308.208 136.073 307.9 136.825 307.285 137.406C306.704 138.021 305.969 138.329 305.081 138.329L293.596 138.329C292.708 138.329 291.956 138.021 291.34 137.406C290.759 136.825 290.469 136.073 290.469 135.15ZM308.208 107.567C312.617 108.969 316.326 109.669 319.333 109.669C324.016 109.669 327.332 108.336 329.28 105.67C331.262 103.004 332.253 98.749 332.253 92.9043C332.253 87.0596 331.313 82.8213 329.434 80.1895C327.588 77.5234 324.802 76.1904 321.077 76.1904C317.385 76.1904 313.096 77.7285 308.208 80.8047L308.208 107.567Z" fill="rgb(0,0,0)" fill-rule="nonzero" />
	<path id="Ex max black (color) 04" d="M229.048 114.54C223.784 109.55 221.152 102.372 221.152 93.0068C221.152 83.6074 223.801 76.3955 229.099 71.3711C234.397 66.3125 241.746 63.7832 251.145 63.7832C260.544 63.7832 267.876 66.2441 273.14 71.166C278.403 76.0537 281.035 83.0776 281.035 92.2378L281.035 95.1602C281.035 96.083 280.728 96.8521 280.112 97.4673C279.531 98.0483 278.779 98.3389 277.856 98.3389L239.25 98.3389C239.592 102.543 240.789 105.602 242.839 107.516C244.924 109.43 248.24 110.387 252.786 110.387C257.332 110.387 260.442 109.362 262.117 107.311C263.792 105.26 265.859 104.218 268.32 104.184L275.959 104.184C276.882 104.184 277.634 104.491 278.215 105.106C278.831 105.688 279.138 106.439 279.138 107.362C279.138 117.172 269.79 122.06 251.094 122.025C241.66 122.025 234.312 119.53 229.048 114.54ZM239.148 87.521L262.988 87.521C262.646 79.4546 258.682 75.4214 251.094 75.4214C243.54 75.4214 239.558 79.4546 239.148 87.521Z" fill="rgb(221.482,155.278,0)" fill-rule="nonzero" />
	<path id="Ex max black (color) 04" d="M229.048 114.54C223.784 109.55 221.152 102.372 221.152 93.0068C221.152 83.6074 223.801 76.3955 229.099 71.3711C234.397 66.3125 241.746 63.7832 251.145 63.7832C260.544 63.7832 267.876 66.2441 273.14 71.166C278.403 76.0537 281.035 83.0776 281.035 92.2378L281.035 95.1602C281.035 96.083 280.728 96.8521 280.112 97.4673C279.531 98.0483 278.779 98.3389 277.856 98.3389L239.25 98.3389C239.592 102.543 240.789 105.602 242.839 107.516C244.924 109.43 248.24 110.387 252.786 110.387C257.332 110.387 260.442 109.362 262.117 107.311C263.792 105.26 265.859 104.218 268.32 104.184L275.959 104.184C276.882 104.184 277.634 104.491 278.215 105.106C278.831 105.688 279.138 106.439 279.138 107.362C279.138 117.172 269.79 122.06 251.094 122.025C241.66 122.025 234.312 119.53 229.048 114.54ZM239.148 87.521L262.988 87.521C262.646 79.4546 258.682 75.4214 251.094 75.4214C243.54 75.4214 239.558 79.4546 239.148 87.521Z" fill="rgb(0,0,0)" fill-rule="nonzero" />
	<path id="Ex max black (color) 04" d="M160.602 74.0884L160.602 67.9873C160.602 67.0645 160.892 66.3125 161.473 65.7314C162.088 65.1162 162.857 64.8086 163.78 64.8086L214.281 64.8086C215.204 64.8086 215.956 65.1162 216.537 65.7314C217.118 66.3125 217.408 67.0645 217.408 67.9873L217.408 74.0884C217.408 74.9771 217.118 75.729 216.537 76.3442C215.956 76.9253 215.204 77.2158 214.281 77.2158L197.926 77.2158L197.926 117.873C197.926 118.761 197.618 119.513 197.003 120.128C196.422 120.709 195.67 121 194.747 121L183.314 121C182.391 121 181.622 120.709 181.007 120.128C180.426 119.513 180.135 118.761 180.135 117.873L180.135 77.2158L163.78 77.2158C162.857 77.2158 162.088 76.9253 161.473 76.3442C160.892 75.729 160.602 74.9771 160.602 74.0884Z" fill="rgb(221.482,155.278,0)" fill-rule="nonzero" />
	<path id="Ex max black (color) 04" d="M160.602 74.0884L160.602 67.9873C160.602 67.0645 160.892 66.3125 161.473 65.7314C162.088 65.1162 162.857 64.8086 163.78 64.8086L214.281 64.8086C215.204 64.8086 215.956 65.1162 216.537 65.7314C217.118 66.3125 217.408 67.0645 217.408 67.9873L217.408 74.0884C217.408 74.9771 217.118 75.729 216.537 76.3442C215.956 76.9253 215.204 77.2158 214.281 77.2158L197.926 77.2158L197.926 117.873C197.926 118.761 197.618 119.513 197.003 120.128C196.422 120.709 195.67 121 194.747 121L183.314 121C182.391 121 181.622 120.709 181.007 120.128C180.426 119.513 180.135 118.761 180.135 117.873L180.135 77.2158L163.78 77.2158C162.857 77.2158 162.088 76.9253 161.473 76.3442C160.892 75.729 160.602 74.9771 160.602 74.0884Z" fill="rgb(0,0,0)" fill-rule="nonzero" />
	<path id="Ex max black (color) 04" d="M94.9258 117.873L94.9258 67.9873C94.9258 67.0645 95.2163 66.3125 95.7974 65.7314C96.4126 65.1162 97.1646 64.8086 98.0532 64.8086L108.769 64.8086C109.691 64.8086 110.443 65.1162 111.024 65.7314C111.64 66.3125 111.947 67.0645 111.947 67.9873L111.947 101.671L129.994 68.5C130.541 67.4404 131.378 66.5688 132.506 65.8853C133.634 65.1675 134.728 64.8086 135.788 64.8086L150.143 64.8086C151.066 64.8086 151.818 65.1162 152.399 65.7314C153.014 66.3125 153.322 67.0645 153.322 67.9873L153.322 117.873C153.322 118.795 153.014 119.547 152.399 120.128C151.818 120.709 151.066 121 150.143 121L139.428 121C138.505 121 137.753 120.709 137.172 120.128C136.591 119.513 136.3 118.761 136.3 117.873L136.3 84.2397L118.253 117.309C117.707 118.3 116.869 119.171 115.741 119.923C114.613 120.641 113.52 121 112.46 121L98.0532 121C97.1304 121 96.3784 120.709 95.7974 120.128C95.2163 119.547 94.9258 118.795 94.9258 117.873Z" fill="rgb(221.482,155.278,0)" fill-rule="nonzero" />
	<path id="Ex max black (color) 04" d="M94.9258 117.873L94.9258 67.9873C94.9258 67.0645 95.2163 66.3125 95.7974 65.7314C96.4126 65.1162 97.1646 64.8086 98.0532 64.8086L108.769 64.8086C109.691 64.8086 110.443 65.1162 111.024 65.7314C111.64 66.3125 111.947 67.0645 111.947 67.9873L111.947 101.671L129.994 68.5C130.541 67.4404 131.378 66.5688 132.506 65.8853C133.634 65.1675 134.728 64.8086 135.788 64.8086L150.143 64.8086C151.066 64.8086 151.818 65.1162 152.399 65.7314C153.014 66.3125 153.322 67.0645 153.322 67.9873L153.322 117.873C153.322 118.795 153.014 119.547 152.399 120.128C151.818 120.709 151.066 121 150.143 121L139.428 121C138.505 121 137.753 120.709 137.172 120.128C136.591 119.513 136.3 118.761 136.3 117.873L136.3 84.2397L118.253 117.309C117.707 118.3 116.869 119.171 115.741 119.923C114.613 120.641 113.52 121 112.46 121L98.0532 121C97.1304 121 96.3784 120.709 95.7974 120.128C95.2163 119.547 94.9258 118.795 94.9258 117.873Z" fill="rgb(0,0,0)" fill-rule="nonzero" />
	<path id="Ex max black (color) 04" d="M4.28271 116.693L17.3052 67.4746C20.7915 54.1787 32.1221 47.5137 51.2969 47.4795L76.9316 47.4795C78.1279 47.4795 79.1362 47.9751 79.9565 48.9663C80.811 49.9575 81.2383 51.0854 81.2383 52.3501L81.2383 116.181C81.2383 117.514 80.7769 118.659 79.854 119.616C78.9653 120.539 77.8545 121 76.5215 121L66.729 121C65.396 121 64.251 120.539 63.2939 119.616C62.3711 118.659 61.9097 117.514 61.9097 116.181L61.9097 61.9888L49.3999 61.9888C46.1187 61.9888 43.2476 62.9287 40.7866 64.8086C38.3599 66.6543 36.7192 69.1494 35.8647 72.2939L24.124 116.181C23.7822 117.582 23.0132 118.744 21.8169 119.667C20.6206 120.556 19.356 121 18.0229 121L7.61523 121C6.41895 121 5.53027 120.624 4.94922 119.872C4.40234 119.12 4.12891 118.488 4.12891 117.975C4.16309 117.462 4.21436 117.035 4.28271 116.693Z" fill="rgb(221.482,155.278,0)" fill-rule="nonzero" />
	<path id="Ex max black (color) 04" d="M4.28271 116.693L17.3052 67.4746C20.7915 54.1787 32.1221 47.5137 51.2969 47.4795L76.9316 47.4795C78.1279 47.4795 79.1362 47.9751 79.9565 48.9663C80.811 49.9575 81.2383 51.0854 81.2383 52.3501L81.2383 116.181C81.2383 117.514 80.7769 118.659 79.854 119.616C78.9653 120.539 77.8545 121 76.5215 121L66.729 121C65.396 121 64.251 120.539 63.2939 119.616C62.3711 118.659 61.9097 117.514 61.9097 116.181L61.9097 61.9888L49.3999 61.9888C46.1187 61.9888 43.2476 62.9287 40.7866 64.8086C38.3599 66.6543 36.7192 69.1494 35.8647 72.2939L24.124 116.181C23.7822 117.582 23.0132 118.744 21.8169 119.667C20.6206 120.556 19.356 121 18.0229 121L7.61523 121C6.41895 121 5.53027 120.624 4.94922 119.872C4.40234 119.12 4.12891 118.488 4.12891 117.975C4.16309 117.462 4.21436 117.035 4.28271 116.693Z" fill="rgb(0,0,0)" fill-rule="nonzero" />
</svg>
