<svg viewBox="0 0 678.117 139.354" xmlns="http://www.w3.org/2000/svg" xmlns:xlink="http://www.w3.org/1999/xlink" width="678.116699" height="139.354492" fill="none" customFrame="#000000">
	<rect id="Ex max white 04" width="678.116699" height="139.354492" x="0.000000" y="0.000000" fill="rgb(255,255,255)" fill-opacity="0" />
	<path id="Ex max white 04" d="M3.87703 28.0155L1.02092 22.4802C0.331835 21.1446 0 19.7036 0 18.2889C0 15.2382 1.5429 12.3097 4.37392 10.8245C40.1818 -7.96054 74.0038 1.40645 91.4021 11.2102C93.7599 12.5388 95 14.8869 95 17.3762C95 18.6743 94.6627 20.0108 93.9708 21.2611C92.9314 23.1395 91.6076 25.505 89.942 28.4479C87.5114 32.7426 82.1589 34.1553 77.7864 32.0115C56.5322 21.5908 37.9312 21.5785 16.1367 31.9746C11.6439 34.1177 6.19225 32.5026 3.87703 28.0155ZM4.28271 116.693L17.3052 67.4746Q18.8124 61.7263 22.2747 57.6305Q30.8247 47.516 51.2969 47.4795L76.9316 47.4795Q77.6498 47.4795 78.2776 47.7176Q79.2185 48.0746 79.9565 48.9663Q80.6876 49.8144 81.0017 50.7959Q81.2383 51.5351 81.2383 52.3501L81.2383 116.181Q81.2383 117.19 80.8857 118.055Q80.5396 118.905 79.854 119.616Q79.2736 120.218 78.5668 120.559Q77.6504 121 76.5215 121L66.729 121Q65.7199 121 64.8543 120.647Q64.005 120.301 63.2939 119.616Q62.6083 118.905 62.2623 118.055Q61.9097 117.19 61.9097 116.181L61.9097 61.9888L49.3999 61.9888Q46.2508 61.9888 43.6054 63.1431Q42.1162 63.793 40.7866 64.8086Q39.5453 65.7527 38.5782 66.9234Q36.7094 69.1856 35.8647 72.2939L24.124 116.181Q23.9217 117.01 23.5198 117.728L23.5197 117.728Q22.9032 118.829 21.8169 119.667Q20.427 120.699 18.914 120.932L18.9139 120.932Q18.4736 121 18.0229 121L7.61523 121Q6.21611 121 5.37802 120.314Q5.14123 120.121 4.94922 119.872Q4.12891 118.744 4.12891 117.975Q4.18018 117.206 4.28271 116.693ZM229.048 114.54Q228.058 113.602 227.192 112.56L227.192 112.56Q221.152 105.293 221.152 93.0068Q221.152 80.7252 227.182 73.4232Q228.075 72.3426 229.099 71.3711Q229.822 70.6805 230.597 70.0528Q238.329 63.7832 251.145 63.7832Q264.406 63.7832 272.18 70.3148L272.182 70.3168Q272.672 70.7285 273.14 71.166Q274.311 72.254 275.309 73.4831L275.31 73.4843Q281.035 80.5376 281.035 92.2378L281.035 95.1602Q281.035 95.9907 280.703 96.6552Q280.481 97.0982 280.112 97.4673Q279.846 97.7339 279.531 97.919Q278.817 98.3389 277.856 98.3389L239.25 98.3389Q239.763 104.645 242.839 107.516Q245.967 110.387 252.786 110.387Q259.604 110.387 262.117 107.311Q263.628 105.46 265.567 104.704Q266.85 104.204 268.32 104.184L275.959 104.184Q276.841 104.184 277.515 104.558Q277.899 104.771 278.215 105.106Q278.55 105.423 278.764 105.807Q279.138 106.481 279.138 107.362Q279.138 110.545 277.826 113.037Q273.072 122.066 251.094 122.025Q237.932 122.025 230.181 115.549Q229.599 115.063 229.048 114.54ZM290.469 135.15L290.469 67.9873Q290.469 67.0265 290.889 66.3127Q291.074 65.998 291.34 65.7314Q291.768 65.3033 292.285 65.0738Q292.882 64.8086 293.596 64.8086L303.491 64.8086Q304.261 64.8086 304.878 65.1167Q305.328 65.3418 305.696 65.7314Q306.031 66.0479 306.244 66.4322Q306.619 67.1058 306.619 67.9873L306.619 69.5254Q309.018 67.8248 311.646 66.6279L311.647 66.6275Q317.893 63.7832 325.435 63.7832Q331.23 63.7832 335.99 66.0026Q340.032 67.8869 343.328 71.3711Q343.474 71.5252 343.618 71.6819L343.637 71.7026Q350.505 79.2149 350.505 93.0068Q350.505 106.177 343.971 113.579Q343.536 114.072 343.071 114.54Q341.498 116.124 339.692 117.373Q332.968 122.025 323.025 122.025Q316.514 122.025 308.208 119.411L308.208 135.15Q308.208 136.032 307.834 136.705Q307.62 137.09 307.285 137.406Q306.917 137.796 306.467 138.021Q305.851 138.329 305.081 138.329L293.596 138.329Q292.882 138.329 292.285 138.064Q291.768 137.834 291.34 137.406Q291.074 137.14 290.889 136.825Q290.469 136.111 290.469 135.15ZM363.58 117.309Q360.537 115.188 358.862 112.279Q356.812 108.719 356.812 103.979Q356.812 99.1772 358.915 95.6186Q360.585 92.7931 363.58 90.751Q370.399 86.1367 381.114 86.1367L398.084 86.1367Q398.084 80.1382 395.572 77.7798Q393.06 75.4214 386.754 75.4214Q380.584 75.4214 378.006 78.4644Q377.979 78.4962 377.952 78.5284L377.936 78.5488Q376.431 80.3912 374.503 81.1302Q373.212 81.625 371.732 81.625L364.093 81.625Q363.184 81.625 362.474 81.2491Q362.102 81.0526 361.786 80.7534Q361.428 80.3744 361.217 79.9261Q360.914 79.283 360.914 78.4976Q360.914 75.303 362.231 72.802Q366.98 63.7832 388.856 63.7832Q401.058 63.7832 408.441 69.269Q410.228 70.5847 411.583 72.2519Q415.824 77.4715 415.824 86.1367L415.824 117.873Q415.824 118.833 415.404 119.547Q415.219 119.862 414.952 120.128Q414.686 120.395 414.371 120.58Q413.657 121 412.696 121L402.801 121Q401.84 121 401.127 120.58Q400.812 120.395 400.545 120.128Q400.187 119.749 399.976 119.301Q399.674 118.658 399.674 117.873L399.674 116.283Q396.97 118.217 393.985 119.5Q388.03 122.06 380.96 122.025Q370.399 122.025 363.58 117.309ZM552.762 135.15L552.762 67.9873Q552.762 67.0265 553.182 66.3127L553.182 66.3117Q553.367 65.9977 553.633 65.7314Q554.061 65.3036 554.578 65.0738Q555.175 64.8086 555.889 64.8086L565.784 64.8086Q566.554 64.8086 567.171 65.1167Q567.621 65.3419 567.989 65.7314Q568.324 66.048 568.537 66.4322Q568.912 67.1058 568.912 67.9873L568.912 69.5254Q571.311 67.8248 573.939 66.6279L573.94 66.6275Q580.186 63.7832 587.728 63.7832Q593.523 63.7832 598.283 66.0026Q602.325 67.887 605.621 71.3711Q605.733 71.4892 605.844 71.6089Q605.887 71.6556 605.93 71.7026Q612.798 79.2149 612.798 93.0068Q612.798 106.177 606.264 113.579L606.259 113.585Q605.826 114.075 605.364 114.54Q603.791 116.124 601.985 117.373Q595.261 122.025 585.318 122.025Q578.807 122.025 570.501 119.411L570.501 135.15Q570.501 136.032 570.127 136.705Q569.913 137.09 569.578 137.406Q569.21 137.796 568.76 138.021Q568.144 138.329 567.374 138.329L555.889 138.329Q555.175 138.329 554.578 138.064Q554.061 137.834 553.633 137.406Q553.367 137.14 553.182 136.825Q552.762 136.111 552.762 135.15ZM625.873 117.309Q622.83 115.188 621.155 112.279Q619.105 108.719 619.105 103.979Q619.105 99.1772 621.208 95.6186Q622.878 92.7931 625.873 90.751Q632.692 86.1367 643.407 86.1367L660.377 86.1367Q660.377 80.1382 657.865 77.7798Q655.353 75.4214 649.047 75.4214Q642.877 75.4214 640.299 78.4644Q640.263 78.5063 640.229 78.5488Q638.724 80.3912 636.796 81.1302Q635.505 81.625 634.025 81.625L626.386 81.625Q625.477 81.625 624.766 81.2491Q624.395 81.0526 624.079 80.7534Q623.721 80.3743 623.51 79.9261Q623.207 79.283 623.207 78.4976Q623.207 75.3031 624.524 72.802Q629.273 63.7832 651.149 63.7832Q663.351 63.7832 670.734 69.269Q672.521 70.5844 673.876 72.2519Q678.117 77.4715 678.117 86.1367L678.117 117.873Q678.117 118.833 677.697 119.547L677.696 119.548Q677.511 119.862 677.245 120.128Q676.979 120.394 676.665 120.579L676.664 120.58Q675.95 121 674.989 121L665.094 121Q664.133 121 663.42 120.58L663.418 120.579Q663.104 120.394 662.838 120.128Q662.48 119.749 662.269 119.301Q661.967 118.658 661.967 117.873L661.967 116.283Q659.263 118.217 656.278 119.5Q650.323 122.06 643.253 122.025Q632.692 122.025 625.873 117.309ZM94.9258 117.873L94.9258 67.9873Q94.9258 67.0265 95.3457 66.3127L95.3458 66.3124Q95.5309 65.9979 95.7974 65.7314Q96.2254 65.3034 96.7419 65.0738Q97.3386 64.8086 98.0532 64.8086L108.769 64.8086Q109.65 64.8086 110.324 65.1828Q110.708 65.3963 111.024 65.7314Q111.36 66.048 111.573 66.4322Q111.947 67.1058 111.947 67.9873L111.947 101.671L129.994 68.5Q130.132 68.2333 130.294 67.9825L130.295 67.981Q131.099 66.7381 132.506 65.8853Q134.198 64.8086 135.788 64.8086L150.143 64.8086Q151.025 64.8086 151.698 65.1828Q152.082 65.3963 152.399 65.7314Q152.734 66.048 152.948 66.4322Q153.322 67.1058 153.322 67.9873L153.322 117.873Q153.322 118.754 152.948 119.428Q152.734 119.812 152.399 120.128Q152.132 120.395 151.818 120.58Q151.104 121 150.143 121L139.428 121Q138.467 121 137.753 120.58Q137.439 120.395 137.172 120.128Q136.814 119.749 136.603 119.301Q136.3 118.658 136.3 117.873L136.3 84.2397L118.253 117.309Q117.433 118.795 115.741 119.923Q114.049 121 112.46 121L98.0532 121Q97.0924 121 96.3786 120.58L96.3783 120.58Q96.0639 120.395 95.7974 120.128Q95.5309 119.862 95.3458 119.547L95.3457 119.547Q94.9258 118.833 94.9258 117.873ZM160.602 74.0884L160.602 67.9873Q160.602 67.0265 161.021 66.3127Q161.207 65.998 161.473 65.7314Q161.842 65.3623 162.285 65.1408Q162.95 64.8086 163.78 64.8086L214.281 64.8086Q215.162 64.8086 215.836 65.1828Q216.22 65.3963 216.537 65.7314Q216.803 65.998 216.988 66.3127Q217.408 67.0265 217.408 67.9873L217.408 74.0884Q217.408 74.8738 217.106 75.5169Q216.895 75.9652 216.537 76.3442Q216.27 76.6109 215.955 76.7959Q215.242 77.2158 214.281 77.2158L197.926 77.2158L197.926 117.873Q197.926 118.587 197.661 119.184Q197.431 119.7 197.003 120.128Q196.736 120.395 196.422 120.58Q195.708 121 194.747 121L183.314 121Q182.405 121 181.695 120.624Q181.324 120.428 181.007 120.128Q180.649 119.749 180.438 119.301Q180.135 118.658 180.135 117.873L180.135 77.2158L163.78 77.2158Q162.871 77.2158 162.161 76.8399Q161.79 76.6434 161.473 76.3442Q161.115 75.9652 160.904 75.5169Q160.602 74.8738 160.602 74.0884ZM422.18 74.0884L422.18 67.9873Q422.18 67.0265 422.6 66.3127Q422.785 65.998 423.051 65.7314Q423.42 65.3623 423.863 65.1408Q424.528 64.8086 425.358 64.8086L475.859 64.8086Q476.74 64.8086 477.414 65.1828Q477.798 65.3964 478.115 65.7314Q478.381 65.998 478.566 66.3127Q478.986 67.0265 478.986 67.9873L478.986 74.0884Q478.986 74.8738 478.684 75.5169Q478.473 75.9652 478.115 76.3442Q477.848 76.6109 477.534 76.7959Q476.82 77.2158 475.859 77.2158L459.504 77.2158L459.504 117.873Q459.504 118.587 459.239 119.184Q459.009 119.7 458.581 120.128Q458.314 120.395 458 120.58Q457.286 121 456.325 121L444.892 121Q443.983 121 443.273 120.624Q442.902 120.428 442.585 120.128Q442.227 119.749 442.016 119.301Q441.713 118.658 441.713 117.873L441.713 77.2158L425.358 77.2158Q424.449 77.2158 423.739 76.8399Q423.368 76.6434 423.051 76.3442Q422.693 75.9652 422.482 75.5169Q422.18 74.8738 422.18 74.0884ZM497.34 126.332L504.056 127.204Q505.786 127.204 507.267 126.596Q511.972 124.663 514.156 116.591Q508.028 116.591 503.319 114.006Q501.331 112.914 499.596 111.361Q493.751 106.081 489.547 92.6479L481.908 67.8848Q481.754 67.4746 481.754 66.9619Q481.754 66.3979 482.369 65.6289Q482.475 65.5068 482.596 65.4027Q483.239 64.8517 484.317 64.8086L495.033 64.8086Q495.348 64.8086 495.656 64.8546L495.658 64.855Q496.803 65.0267 497.853 65.834Q498.822 66.5165 499.314 67.4507L499.314 67.4513Q499.524 67.8502 499.647 68.2949L506.363 90.0332Q508.875 98.0312 511.439 101.107Q513.226 103.21 515.444 103.875Q516.472 104.184 517.591 104.184L527.794 68.2949Q528.008 67.5175 528.433 66.8798Q528.821 66.2986 529.383 65.834Q530.194 65.1584 531.116 64.9279Q531.593 64.8086 532.101 64.8086L542.918 64.8086Q543.899 64.8086 544.489 65.2883Q544.671 65.4359 544.815 65.6289Q545.431 66.4492 545.431 67.0132Q545.431 67.5259 545.328 67.8848L531.896 115.771Q528.307 128.485 522.975 133.92Q521.175 135.772 519.018 136.993Q514.846 139.354 509.337 139.354Q500.98 139.354 497.494 138.739Q494.059 138.124 493.187 137.201Q492.686 136.7 492.473 136.096Q492.315 135.651 492.315 135.15L492.315 129.511Q492.315 128.602 492.691 127.892Q492.888 127.52 493.187 127.204Q493.454 126.937 493.768 126.752Q494.482 126.332 495.443 126.332L497.34 126.332ZM239.148 87.521L262.988 87.521Q262.715 81.0797 259.362 78.0675Q256.416 75.4214 251.094 75.4214Q245.827 75.4214 242.876 78.0352Q239.477 81.0451 239.148 87.521ZM308.208 107.567Q314.822 109.669 319.333 109.669Q325.5 109.669 328.505 106.587L328.506 106.587Q328.923 106.158 329.28 105.67Q332.253 101.671 332.253 92.9043Q332.253 84.1372 329.434 80.1895Q328.487 78.8223 327.211 77.9226Q324.755 76.1904 321.077 76.1904Q315.54 76.1904 308.208 80.8047L308.208 107.567ZM570.501 107.567Q577.115 109.669 581.626 109.669Q587.793 109.669 590.798 106.587Q591.216 106.159 591.573 105.67Q594.546 101.671 594.546 92.9043Q594.546 84.1372 591.727 80.1895Q590.78 78.8223 589.504 77.9226Q587.047 76.1904 583.37 76.1904Q577.833 76.1904 570.501 80.8047L570.501 107.567ZM382.345 97.7749Q378.756 97.7749 376.654 99.5181Q375.71 100.32 375.201 101.339Q374.603 102.535 374.603 104.03Q374.603 105.367 375.105 106.476Q375.643 107.665 376.756 108.593Q378.91 110.387 382.857 110.387Q384.483 110.387 386.085 110.192L386.087 110.191Q392.264 109.436 398.084 105.773L398.084 97.7749L382.345 97.7749ZM644.638 97.7749Q641.049 97.7749 638.947 99.5181Q638.003 100.32 637.494 101.339Q636.896 102.535 636.896 104.03Q636.896 105.367 637.398 106.476Q637.936 107.665 639.049 108.593Q641.203 110.387 645.15 110.387Q646.777 110.387 648.38 110.191Q654.557 109.436 660.377 105.773L660.377 97.7749L644.638 97.7749Z" fill="rgb(255,255,255)" fill-rule="evenodd" />
</svg>
