<svg viewBox="0 0 156.227 58.4397" xmlns="http://www.w3.org/2000/svg" xmlns:xlink="http://www.w3.org/1999/xlink" width="156.226562" height="58.439697" fill="none" customFrame="#000000">
	<rect id="Ex mini black (color) 17" width="156.226074" height="58.439648" x="0.000000" y="0.000000" fill="rgb(255,255,255)" fill-opacity="0" />
	<path id="Ex mini black (color) 17" d="M129.507 56.5498L133.462 40.5757C134.576 36.1372 138.252 33.918 144.493 33.918L154.886 33.918C155.267 33.918 155.582 34.0498 155.831 34.3135C156.094 34.5625 156.226 34.8848 156.226 35.2803L156.226 56.6597C156.226 57.0405 156.094 57.3628 155.831 57.6265C155.582 57.8755 155.267 58 154.886 58L149.964 58C149.583 58 149.261 57.8755 148.997 57.6265C148.748 57.3628 148.624 57.0405 148.624 56.6597L148.624 39.2354L144.493 39.2354C142.442 39.2354 141.146 40.312 140.604 42.4653L137.154 56.374C137.022 56.8574 136.758 57.2529 136.363 57.5605C135.982 57.8535 135.572 58 135.132 58L130.628 58C130.232 58 129.932 57.8828 129.727 57.6484C129.537 57.3994 129.441 57.187 129.441 57.0112C129.441 56.8354 129.463 56.6816 129.507 56.5498Z" fill="rgb(0,0,0)" fill-rule="evenodd" />
	<path id="Ex mini black (color) 17" d="M103.889 56.418C101.955 55.0703 100.988 53.166 100.988 50.7051C100.988 48.2441 101.955 46.3545 103.889 45.0361C105.837 43.7178 108.342 43.0586 111.403 43.0586L118.676 43.0586C118.676 41.3447 118.317 40.1509 117.6 39.4771C116.882 38.8032 115.622 38.4663 113.82 38.4663C112.033 38.4663 110.773 38.9131 110.041 39.8066C109.323 40.6855 108.437 41.125 107.382 41.125L104.108 41.125C103.713 41.125 103.383 41.0005 103.12 40.7515C102.871 40.4878 102.746 40.1655 102.746 39.7847C102.746 35.5806 106.738 33.4785 114.721 33.4785C118.208 33.4785 121.005 34.2622 123.115 35.8296C125.224 37.3823 126.279 39.792 126.279 43.0586L126.279 56.6597C126.279 57.0552 126.154 57.3774 125.905 57.6265C125.656 57.8755 125.334 58 124.938 58L120.698 58C120.302 58 119.98 57.8755 119.731 57.6265C119.482 57.3628 119.357 57.0405 119.357 56.6597L119.357 55.9785C117.043 57.6338 114.37 58.4541 111.337 58.4395C108.32 58.4395 105.837 57.7656 103.889 56.418ZM111.931 48.0464C110.905 48.0464 110.092 48.2954 109.492 48.7935C108.906 49.2915 108.613 49.936 108.613 50.7271C108.613 51.5181 108.92 52.1699 109.536 52.6826C110.151 53.1953 111.022 53.4517 112.15 53.4517C114.406 53.4517 116.582 52.7925 118.676 51.4741L118.676 48.0464L111.931 48.0464Z" fill="rgb(0,0,0)" fill-rule="evenodd" />
	<path id="Ex mini black (color) 17" d="M103.889 56.418C101.955 55.0703 100.988 53.166 100.988 50.7051C100.988 48.2441 101.955 46.3545 103.889 45.0361C105.837 43.7178 108.342 43.0586 111.403 43.0586L118.676 43.0586C118.676 41.3447 118.317 40.1509 117.6 39.4771C116.882 38.8032 115.622 38.4663 113.82 38.4663C112.033 38.4663 110.773 38.9131 110.041 39.8066C109.323 40.6855 108.437 41.125 107.382 41.125L104.108 41.125C103.713 41.125 103.383 41.0005 103.12 40.7515C102.871 40.4878 102.746 40.1655 102.746 39.7847C102.746 35.5806 106.738 33.4785 114.721 33.4785C118.208 33.4785 121.005 34.2622 123.115 35.8296C125.224 37.3823 126.279 39.792 126.279 43.0586L126.279 56.6597C126.279 57.0552 126.154 57.3774 125.905 57.6265C125.656 57.8755 125.334 58 124.938 58L120.698 58C120.302 58 119.98 57.8755 119.731 57.6265C119.482 57.3628 119.357 57.0405 119.357 56.6597L119.357 55.9785C117.043 57.6338 114.37 58.4541 111.337 58.4395C108.32 58.4395 105.837 57.7656 103.889 56.418ZM111.931 48.0464C110.905 48.0464 110.092 48.2954 109.492 48.7935C108.906 49.2915 108.613 49.936 108.613 50.7271C108.613 51.5181 108.92 52.1699 109.536 52.6826C110.151 53.1953 111.022 53.4517 112.15 53.4517C114.406 53.4517 116.582 52.7925 118.676 51.4741L118.676 48.0464L111.931 48.0464Z" fill="rgb(0,0,0)" fill-rule="evenodd" />
	<path id="Ex mini black (color) 17" d="M99.3853 57.0332C99.3853 57.6777 99.0044 58 98.2427 58L94.0898 58C92.6836 58 91.563 57.3115 90.728 55.9346L87.9375 51.3862C86.7363 49.438 84.9932 48.4639 82.708 48.4639L82.708 56.6597C82.708 57.0552 82.5762 57.3774 82.3125 57.6265C82.0635 57.8755 81.7485 58 81.3677 58L76.4458 58C76.0503 58 75.728 57.8755 75.479 57.6265C75.23 57.3774 75.1055 57.0552 75.1055 56.6597L75.1055 35.2803C75.1055 34.8848 75.23 34.5625 75.479 34.3135C75.7427 34.0498 76.0649 33.918 76.4458 33.918L81.3677 33.918C81.7632 33.918 82.0854 34.0498 82.3345 34.3135C82.5835 34.5625 82.708 34.8848 82.708 35.2803L82.708 43.4541C85.2568 43.4541 87 42.4653 87.9375 40.4878L90.0469 36.0054C90.3398 35.3755 90.772 34.8701 91.3433 34.4893C91.9146 34.1084 92.5298 33.918 93.189 33.918L97.3418 33.918C98.0742 33.918 98.4404 34.2036 98.4404 34.7749C98.4404 35.0972 98.3232 35.5073 98.0889 36.0054L95.2544 41.9819C94.771 42.978 94.1118 43.835 93.2769 44.5527C92.4419 45.2705 91.541 45.7319 90.5742 45.937C92.376 46.479 93.936 47.7974 95.2544 49.8921L98.9897 55.9346C99.2388 56.3594 99.3706 56.7256 99.3853 57.0332Z" fill="rgb(0,0,0)" fill-rule="evenodd" />
	<path id="Ex mini black (color) 17" d="M99.3853 57.0332C99.3853 57.6777 99.0044 58 98.2427 58L94.0898 58C92.6836 58 91.563 57.3115 90.728 55.9346L87.9375 51.3862C86.7363 49.438 84.9932 48.4639 82.708 48.4639L82.708 56.6597C82.708 57.0552 82.5762 57.3774 82.3125 57.6265C82.0635 57.8755 81.7485 58 81.3677 58L76.4458 58C76.0503 58 75.728 57.8755 75.479 57.6265C75.23 57.3774 75.1055 57.0552 75.1055 56.6597L75.1055 35.2803C75.1055 34.8848 75.23 34.5625 75.479 34.3135C75.7427 34.0498 76.0649 33.918 76.4458 33.918L81.3677 33.918C81.7632 33.918 82.0854 34.0498 82.3345 34.3135C82.5835 34.5625 82.708 34.8848 82.708 35.2803L82.708 43.4541C85.2568 43.4541 87 42.4653 87.9375 40.4878L90.0469 36.0054C90.3398 35.3755 90.772 34.8701 91.3433 34.4893C91.9146 34.1084 92.5298 33.918 93.189 33.918L97.3418 33.918C98.0742 33.918 98.4404 34.2036 98.4404 34.7749C98.4404 35.0972 98.3232 35.5073 98.0889 36.0054L95.2544 41.9819C94.771 42.978 94.1118 43.835 93.2769 44.5527C92.4419 45.2705 91.541 45.7319 90.5742 45.937C92.376 46.479 93.936 47.7974 95.2544 49.8921L98.9897 55.9346C99.2388 56.3594 99.3706 56.7256 99.3853 57.0332Z" fill="rgb(0,0,0)" fill-rule="evenodd" />
	<path id="Ex mini black (color) 17" d="M47.9004 55.2754C45.6152 53.166 44.4727 50.0605 44.4727 45.959C44.4727 41.8428 45.6152 38.7373 47.9004 36.6426C50.1855 34.5332 53.4668 33.4785 57.7441 33.4785C62.0361 33.4785 65.3247 34.5332 67.6099 36.6426C69.895 38.7373 71.0376 41.8428 71.0376 45.959C71.0376 50.0605 69.895 53.166 67.6099 55.2754C65.3247 57.3848 62.0361 58.4395 57.7441 58.4395C53.4668 58.4395 50.1855 57.3848 47.9004 55.2754ZM53.4595 40.2461C52.5513 41.4326 52.0972 43.3296 52.0972 45.937C52.0972 48.5444 52.5513 50.4487 53.4595 51.6499C54.3677 52.8511 55.7959 53.4517 57.7441 53.4517C59.707 53.4517 61.1426 52.8511 62.0508 51.6499C62.9736 50.4487 63.4351 48.5444 63.4351 45.937C63.4351 43.3296 62.9736 41.4326 62.0508 40.2461C61.1426 39.0596 59.707 38.4663 57.7441 38.4663C55.7959 38.4663 54.3677 39.0596 53.4595 40.2461Z" fill="rgb(0,0,0)" fill-rule="evenodd" />
	<path id="Ex mini black (color) 17" d="M47.9004 55.2754C45.6152 53.166 44.4727 50.0605 44.4727 45.959C44.4727 41.8428 45.6152 38.7373 47.9004 36.6426C50.1855 34.5332 53.4668 33.4785 57.7441 33.4785C62.0361 33.4785 65.3247 34.5332 67.6099 36.6426C69.895 38.7373 71.0376 41.8428 71.0376 45.959C71.0376 50.0605 69.895 53.166 67.6099 55.2754C65.3247 57.3848 62.0361 58.4395 57.7441 58.4395C53.4668 58.4395 50.1855 57.3848 47.9004 55.2754ZM53.4595 40.2461C52.5513 41.4326 52.0972 43.3296 52.0972 45.937C52.0972 48.5444 52.5513 50.4487 53.4595 51.6499C54.3677 52.8511 55.7959 53.4517 57.7441 53.4517C59.707 53.4517 61.1426 52.8511 62.0508 51.6499C62.9736 50.4487 63.4351 48.5444 63.4351 45.937C63.4351 43.3296 62.9736 41.4326 62.0508 40.2461C61.1426 39.0596 59.707 38.4663 57.7441 38.4663C55.7959 38.4663 54.3677 39.0596 53.4595 40.2461Z" fill="rgb(0,0,0)" fill-rule="evenodd" />
	<path id="Ex mini black (color) 17" d="M9.14062 28.5786C9.14062 28.0073 9.3457 27.5166 9.75586 27.1064C10.166 26.6963 10.6567 26.4912 11.228 26.4912L29.0918 26.4912C33.4717 26.4912 36.7017 27.751 38.7817 30.2705C39.939 31.6621 40.5176 33.4419 40.5176 35.6099C40.5176 37.7632 39.5288 39.6455 37.5513 41.2568C40.3638 42.7656 41.77 45.1094 41.77 48.2881C41.77 51.4668 40.6421 53.8838 38.3862 55.5391C36.145 57.1797 33.3911 58 30.1245 58L11.228 58C10.6567 58 10.166 57.8022 9.75586 57.4067C9.3457 56.9966 9.14062 56.5059 9.14062 55.9346L9.14062 28.5786ZM17.4243 52.0674L29.9927 52.0674C31.1206 52.0674 31.9849 51.7305 32.5854 51.0566C33.186 50.3828 33.4863 49.46 33.4863 48.2881C33.4863 47.1162 33.186 46.1934 32.5854 45.5195C31.9849 44.8457 31.1206 44.5088 29.9927 44.5088L17.4243 44.5088L17.4243 52.0674ZM17.4243 38.73L29.1797 38.73C30.1025 38.73 30.8423 38.459 31.3989 37.917C31.9556 37.3604 32.2339 36.5913 32.2339 35.6099C32.2339 34.6138 31.9556 33.8374 31.3989 33.2808C30.8423 32.7241 30.1025 32.4458 29.1797 32.4458L17.4243 32.4458L17.4243 38.73Z" fill="rgb(0,0,0)" fill-rule="evenodd" />
	<path id="Ex mini black (color) 17" d="M9.14062 28.5786C9.14062 28.0073 9.3457 27.5166 9.75586 27.1064C10.166 26.6963 10.6567 26.4912 11.228 26.4912L29.0918 26.4912C33.4717 26.4912 36.7017 27.751 38.7817 30.2705C39.939 31.6621 40.5176 33.4419 40.5176 35.6099C40.5176 37.7632 39.5288 39.6455 37.5513 41.2568C40.3638 42.7656 41.77 45.1094 41.77 48.2881C41.77 51.4668 40.6421 53.8838 38.3862 55.5391C36.145 57.1797 33.3911 58 30.1245 58L11.228 58C10.6567 58 10.166 57.8022 9.75586 57.4067C9.3457 56.9966 9.14062 56.5059 9.14062 55.9346L9.14062 28.5786ZM17.4243 52.0674L29.9927 52.0674C31.1206 52.0674 31.9849 51.7305 32.5854 51.0566C33.186 50.3828 33.4863 49.46 33.4863 48.2881C33.4863 47.1162 33.186 46.1934 32.5854 45.5195C31.9849 44.8457 31.1206 44.5088 29.9927 44.5088L17.4243 44.5088L17.4243 52.0674ZM17.4243 38.73L29.1797 38.73C30.1025 38.73 30.8423 38.459 31.3989 37.917C31.9556 37.3604 32.2339 36.5913 32.2339 35.6099C32.2339 34.6138 31.9556 33.8374 31.3989 33.2808C30.8423 32.7241 30.1025 32.4458 29.1797 32.4458L17.4243 32.4458L17.4243 38.73Z" fill="rgb(0,0,0)" fill-rule="evenodd" />
	<path id="Ex mini black (color) 17" d="M1.99973 14.6819L0.526579 11.781C-0.595237 9.57198 0.118629 6.812 2.25602 5.67273C20.7254 -4.17183 38.1704 0.737068 47.1443 5.87485C48.9946 6.93423 49.5103 9.23057 48.4692 11.1422C47.933 12.1266 47.2503 13.3663 46.3912 14.9085C45.1375 17.1592 42.3767 17.8996 40.1214 16.7761C29.1587 11.315 19.5645 11.3085 8.32315 16.7567C6.00579 17.8799 3.1939 17.0335 1.99973 14.6819Z" fill="rgb(0,0,0)" fill-rule="nonzero" />
	<path id="Ex mini black (color) 17" d="M1.99973 14.6819L0.526579 11.781C-0.595237 9.57198 0.118629 6.812 2.25602 5.67273C20.7254 -4.17183 38.1704 0.737068 47.1443 5.87485C48.9946 6.93423 49.5103 9.23057 48.4692 11.1422C47.933 12.1266 47.2503 13.3663 46.3912 14.9085C45.1375 17.1592 42.3767 17.8996 40.1214 16.7761C29.1587 11.315 19.5645 11.3085 8.32315 16.7567C6.00579 17.8799 3.1939 17.0335 1.99973 14.6819Z" fill="rgb(255,146.478,201.094)" fill-rule="nonzero" />
</svg>
