<svg viewBox="0 0 48 48" xmlns="http://www.w3.org/2000/svg" xmlns:xlink="http://www.w3.org/1999/xlink" width="48.000000" height="48.000000" fill="none" customFrame="#000000">
	<rect id="32px Icon color (full) 21" width="48.000000" height="48.000000" x="0.000000" y="0.000000" fill="rgb(255,255,255)" fill-opacity="0" />
	<path id="32px Icon color (full) 21" d="M0 24C0 15.5992 0 11.3988 1.6349 8.19014C3.073 5.36771 5.36771 3.073 8.19014 1.6349C11.3988 0 15.5992 0 24 0C32.4008 0 36.6012 0 39.8099 1.6349C42.6323 3.073 44.927 5.36771 46.3651 8.19014C48 11.3988 48 15.5992 48 24C48 32.4008 48 36.6012 46.3651 39.8099C44.927 42.6323 42.6323 44.927 39.8099 46.3651C36.6012 48 32.4008 48 24 48C15.5992 48 11.3988 48 8.19014 46.3651C5.36771 44.927 3.073 42.6323 1.6349 39.8099C0 36.6012 0 32.4008 0 24Z" fill="rgb(255,146.478,201.094)" fill-rule="evenodd" />
	<path id="32px Icon color (full) 21" d="M20.8095 18.3568C21.2088 17.8116 21.9746 17.6929 22.5199 18.0921C23.0654 18.4913 23.1839 19.2576 22.7847 19.8031L15.448 29.8274L16.4479 30.8278L26.0604 23.4912C26.5977 23.0811 27.3655 23.1845 27.7756 23.7219C28.1857 24.2592 28.0829 25.027 27.5455 25.4371L17.9336 32.7738C17.4627 33.1334 16.8772 33.3101 16.2859 33.271C15.6944 33.2318 15.1371 32.9793 14.7177 32.5604L13.7167 31.5582C13.3037 31.1451 13.0521 30.5975 13.0073 30.015C12.9624 29.4324 13.1276 28.8526 13.4728 28.3811L20.8095 18.3568Z" fill="rgb(255,146.478,201.094)" fill-rule="nonzero" />
	<path id="32px Icon color (full) 21" d="M20.8095 18.3568C21.2088 17.8116 21.9746 17.6929 22.5199 18.0921C23.0654 18.4913 23.1839 19.2576 22.7847 19.8031L15.448 29.8274L16.4479 30.8278L26.0604 23.4912C26.5977 23.0811 27.3655 23.1845 27.7756 23.7219C28.1857 24.2592 28.0829 25.027 27.5455 25.4371L17.9336 32.7738C17.4627 33.1334 16.8772 33.3101 16.2859 33.271C15.6944 33.2318 15.1371 32.9793 14.7177 32.5604L13.7167 31.5582C13.3037 31.1451 13.0521 30.5975 13.0073 30.015C12.9624 29.4324 13.1276 28.8526 13.4728 28.3811L20.8095 18.3568Z" fill="rgb(255,255,255)" fill-rule="nonzero" />
	<path id="32px Icon color (full) 21" d="M14.2529 30.2807C14.7586 29.8322 15.5322 29.8784 15.9807 30.3841C16.4291 30.8897 16.3828 31.6633 15.8773 32.1119C15.5853 32.3709 15.3582 33.0656 15.6209 33.9616C15.8702 34.8117 16.4359 35.3826 17.1079 35.4981C17.89 35.6325 18.7252 35.2712 19.9867 34.573C20.5579 34.2568 21.2269 33.8702 21.9046 33.5767C22.5936 33.2782 23.3834 33.0322 24.2449 33.0322C26.2469 33.0323 27.8639 33.7692 29.2125 34.6782C29.7731 35.056 29.9214 35.8167 29.5436 36.3773C29.1659 36.9378 28.4051 37.0861 27.8445 36.7084C26.7454 35.9675 25.6013 35.4803 24.2449 35.4802C23.847 35.4802 23.4053 35.5946 22.8775 35.8232C22.3384 36.0568 21.8046 36.3641 21.1718 36.7143C20.0253 37.349 18.4476 38.2115 16.6937 37.9102C14.8297 37.5899 13.697 36.0988 13.2722 34.6501C12.8609 33.2472 12.9844 31.4059 14.2529 30.2807Z" fill="rgb(255,146.478,201.094)" fill-rule="nonzero" />
	<path id="32px Icon color (full) 21" d="M14.2529 30.2807C14.7586 29.8322 15.5322 29.8784 15.9807 30.3841C16.4291 30.8897 16.3828 31.6633 15.8773 32.1119C15.5853 32.3709 15.3582 33.0656 15.6209 33.9616C15.8702 34.8117 16.4359 35.3826 17.1079 35.4981C17.89 35.6325 18.7252 35.2712 19.9867 34.573C20.5579 34.2568 21.2269 33.8702 21.9046 33.5767C22.5936 33.2782 23.3834 33.0322 24.2449 33.0322C26.2469 33.0323 27.8639 33.7692 29.2125 34.6782C29.7731 35.056 29.9214 35.8167 29.5436 36.3773C29.1659 36.9378 28.4051 37.0861 27.8445 36.7084C26.7454 35.9675 25.6013 35.4803 24.2449 35.4802C23.847 35.4802 23.4053 35.5946 22.8775 35.8232C22.3384 36.0568 21.8046 36.3641 21.1718 36.7143C20.0253 37.349 18.4476 38.2115 16.6937 37.9102C14.8297 37.5899 13.697 36.0988 13.2722 34.6501C12.8609 33.2472 12.9844 31.4059 14.2529 30.2807Z" fill="rgb(255,255,255)" fill-rule="nonzero" />
	<path id="32px Icon color (full) 21" d="M32.8125 18.3447C32.8125 15.6407 30.6205 13.4488 27.9166 13.4488C25.2127 13.4488 23.0207 15.6407 23.0207 18.3447C23.0207 21.0486 25.2127 23.2406 27.9166 23.2406C30.6205 23.2406 32.8125 21.0486 32.8125 18.3447ZM35.2605 18.3447C35.2605 22.4006 31.9725 25.6885 27.9166 25.6885C23.8607 25.6885 20.5728 22.4006 20.5728 18.3447C20.5728 14.2888 23.8607 11.0008 27.9166 11.0008C31.9725 11.0008 35.2605 14.2888 35.2605 18.3447Z" fill="rgb(255,146.478,201.094)" fill-rule="nonzero" />
	<path id="32px Icon color (full) 21" d="M32.8125 18.3447C32.8125 15.6407 30.6205 13.4488 27.9166 13.4488C25.2127 13.4488 23.0207 15.6407 23.0207 18.3447C23.0207 21.0486 25.2127 23.2406 27.9166 23.2406C30.6205 23.2406 32.8125 21.0486 32.8125 18.3447ZM35.2605 18.3447C35.2605 22.4006 31.9725 25.6885 27.9166 25.6885C23.8607 25.6885 20.5728 22.4006 20.5728 18.3447C20.5728 14.2888 23.8607 11.0008 27.9166 11.0008C31.9725 11.0008 35.2605 14.2888 35.2605 18.3447Z" fill="rgb(255,255,255)" fill-rule="nonzero" />
</svg>
