<svg viewBox="0 0 196.117 65.8662" xmlns="http://www.w3.org/2000/svg" xmlns:xlink="http://www.w3.org/1999/xlink" width="196.117188" height="65.866211" fill="none" customFrame="#000000">
	<rect id="Ex mini black (color) 19" width="196.118652" height="65.866211" x="0.000000" y="0.000000" fill="rgb(255,255,255)" fill-opacity="0" />
	<path id="Ex mini black (color) 19" d="M173.729 56.418C171.795 55.0703 170.828 53.166 170.828 50.7051C170.828 48.2441 171.795 46.3545 173.729 45.0361C175.677 43.7178 178.182 43.0586 181.243 43.0586L188.516 43.0586C188.516 41.3447 188.157 40.1509 187.439 39.4771C186.722 38.8032 185.462 38.4663 183.66 38.4663C181.873 38.4663 180.613 38.9131 179.881 39.8066C179.163 40.6855 178.277 41.125 177.222 41.125L173.948 41.125C173.553 41.125 173.223 41.0005 172.959 40.7515C172.71 40.4878 172.586 40.1655 172.586 39.7847C172.586 35.5806 176.578 33.4785 184.561 33.4785C188.047 33.4785 190.845 34.2622 192.955 35.8296C195.064 37.3823 196.119 39.792 196.119 43.0586L196.119 56.6597C196.119 57.0552 195.994 57.3774 195.745 57.6265C195.496 57.8755 195.174 58 194.778 58L190.538 58C190.142 58 189.82 57.8755 189.571 57.6265C189.322 57.3628 189.197 57.0405 189.197 56.6597L189.197 55.9785C186.883 57.6338 184.209 58.4541 181.177 58.4395C178.16 58.4395 175.677 57.7656 173.729 56.418ZM181.771 48.0464C180.745 48.0464 179.932 48.2954 179.332 48.7935C178.746 49.2915 178.453 49.936 178.453 50.7271C178.453 51.5181 178.76 52.1699 179.375 52.6826C179.991 53.1953 180.862 53.4517 181.99 53.4517C184.246 53.4517 186.421 52.7925 188.516 51.4741L188.516 48.0464L181.771 48.0464Z" fill="rgb(0,0,0)" fill-rule="evenodd" />
	<path id="Ex mini black (color) 19" d="M169.221 57.0332C169.221 57.6777 168.84 58 168.079 58L163.926 58C162.52 58 161.399 57.3115 160.564 55.9346L157.773 51.3862C156.572 49.438 154.829 48.4639 152.544 48.4639L152.544 56.6597C152.544 57.0552 152.412 57.3774 152.148 57.6265C151.899 57.8755 151.584 58 151.204 58L146.282 58C145.886 58 145.564 57.8755 145.315 57.6265C145.066 57.3774 144.941 57.0552 144.941 56.6597L144.941 35.2803C144.941 34.8848 145.066 34.5625 145.315 34.3135C145.579 34.0498 145.901 33.918 146.282 33.918L151.204 33.918C151.599 33.918 151.921 34.0498 152.17 34.3135C152.419 34.5625 152.544 34.8848 152.544 35.2803L152.544 43.4541C155.093 43.4541 156.836 42.4653 157.773 40.4878L159.883 36.0054C160.176 35.3755 160.608 34.8701 161.179 34.4893C161.75 34.1084 162.366 33.918 163.025 33.918L167.178 33.918C167.91 33.918 168.276 34.2036 168.276 34.7749C168.276 35.0972 168.159 35.5073 167.925 36.0054L165.09 41.9819C164.607 42.978 163.948 43.835 163.113 44.5527C162.278 45.2705 161.377 45.7319 160.41 45.937C162.212 46.479 163.772 47.7974 165.09 49.8921L168.826 55.9346C169.075 56.3594 169.207 56.7256 169.221 57.0332Z" fill="rgb(0,0,0)" fill-rule="evenodd" />
	<path id="Ex mini black (color) 19" d="M169.221 57.0332C169.221 57.6777 168.84 58 168.079 58L163.926 58C162.52 58 161.399 57.3115 160.564 55.9346L157.773 51.3862C156.572 49.438 154.829 48.4639 152.544 48.4639L152.544 56.6597C152.544 57.0552 152.412 57.3774 152.148 57.6265C151.899 57.8755 151.584 58 151.204 58L146.282 58C145.886 58 145.564 57.8755 145.315 57.6265C145.066 57.3774 144.941 57.0552 144.941 56.6597L144.941 35.2803C144.941 34.8848 145.066 34.5625 145.315 34.3135C145.579 34.0498 145.901 33.918 146.282 33.918L151.204 33.918C151.599 33.918 151.921 34.0498 152.17 34.3135C152.419 34.5625 152.544 34.8848 152.544 35.2803L152.544 43.4541C155.093 43.4541 156.836 42.4653 157.773 40.4878L159.883 36.0054C160.176 35.3755 160.608 34.8701 161.179 34.4893C161.75 34.1084 162.366 33.918 163.025 33.918L167.178 33.918C167.91 33.918 168.276 34.2036 168.276 34.7749C168.276 35.0972 168.159 35.5073 167.925 36.0054L165.09 41.9819C164.607 42.978 163.948 43.835 163.113 44.5527C162.278 45.2705 161.377 45.7319 160.41 45.937C162.212 46.479 163.772 47.7974 165.09 49.8921L168.826 55.9346C169.075 56.3594 169.207 56.7256 169.221 57.0332Z" fill="rgb(0,0,0)" fill-rule="evenodd" />
	<path id="Ex mini black (color) 19" d="M106.184 56.6597L106.184 35.2803C106.184 34.8848 106.308 34.5625 106.557 34.3135C106.821 34.0498 107.143 33.918 107.524 33.918L112.446 33.918C112.841 33.918 113.164 34.0498 113.413 34.3135C113.662 34.5625 113.786 34.8848 113.786 35.2803L113.786 41.894L119.016 41.894C122.136 41.894 124.545 42.5093 126.245 43.7397C127.958 44.9702 128.815 47.043 128.815 49.958C128.815 52.8584 127.958 54.9238 126.245 56.1543C124.545 57.3848 122.136 58 119.016 58L107.524 58C107.128 58 106.806 57.8755 106.557 57.6265C106.308 57.3774 106.184 57.0552 106.184 56.6597ZM113.654 53.1001L118.334 53.1001C120.253 53.1001 121.213 52.0527 121.213 49.958C121.213 47.8486 120.253 46.7939 118.334 46.7939L113.654 46.7939L113.654 53.1001ZM131.914 56.6597L131.914 35.2803C131.914 34.8848 132.038 34.5625 132.287 34.3135C132.551 34.0498 132.88 33.918 133.276 33.918L138.176 33.918C138.571 33.918 138.894 34.0498 139.143 34.3135C139.392 34.5625 139.516 34.8848 139.516 35.2803L139.516 56.6597C139.516 57.0552 139.392 57.3774 139.143 57.6265C138.894 57.8755 138.571 58 138.176 58L133.276 58C132.88 58 132.551 57.8755 132.287 57.6265C132.038 57.3774 131.914 57.0552 131.914 56.6597Z" fill="rgb(0,0,0)" fill-rule="evenodd" />
	<path id="Ex mini black (color) 19" d="M106.184 56.6597L106.184 35.2803C106.184 34.8848 106.308 34.5625 106.557 34.3135C106.821 34.0498 107.143 33.918 107.524 33.918L112.446 33.918C112.841 33.918 113.164 34.0498 113.413 34.3135C113.662 34.5625 113.786 34.8848 113.786 35.2803L113.786 41.894L119.016 41.894C122.136 41.894 124.545 42.5093 126.245 43.7397C127.958 44.9702 128.815 47.043 128.815 49.958C128.815 52.8584 127.958 54.9238 126.245 56.1543C124.545 57.3848 122.136 58 119.016 58L107.524 58C107.128 58 106.806 57.8755 106.557 57.6265C106.308 57.3774 106.184 57.0552 106.184 56.6597ZM113.654 53.1001L118.334 53.1001C120.253 53.1001 121.213 52.0527 121.213 49.958C121.213 47.8486 120.253 46.7939 118.334 46.7939L113.654 46.7939L113.654 53.1001ZM131.914 56.6597L131.914 35.2803C131.914 34.8848 132.038 34.5625 132.287 34.3135C132.551 34.0498 132.88 33.918 133.276 33.918L138.176 33.918C138.571 33.918 138.894 34.0498 139.143 34.3135C139.392 34.5625 139.516 34.8848 139.516 35.2803L139.516 56.6597C139.516 57.0552 139.392 57.3774 139.143 57.6265C138.894 57.8755 138.571 58 138.176 58L133.276 58C132.88 58 132.551 57.8755 132.287 57.6265C132.038 57.3774 131.914 57.0552 131.914 56.6597Z" fill="rgb(0,0,0)" fill-rule="evenodd" />
	<path id="Ex mini black (color) 19" d="M76.8711 51.8257C76.8711 51.4302 76.9956 51.1079 77.2446 50.8589C77.5083 50.6099 77.8306 50.4854 78.2114 50.4854L81.5073 50.4854C82.5034 50.4854 83.2798 50.9834 83.8364 51.9795C84.4077 52.9609 85.4917 53.4517 87.0884 53.4517L91.5488 53.4517C93.6729 53.4517 94.7349 52.5801 94.7349 50.8369C94.7349 49.0938 93.6729 48.2295 91.5488 48.2441L86.0996 48.2441C85.7041 48.2441 85.3745 48.1196 85.1108 47.8706C84.8618 47.6069 84.7373 47.2773 84.7373 46.8818L84.7373 44.5967C84.7373 44.2012 84.8618 43.8789 85.1108 43.6299C85.3745 43.3662 85.7041 43.2344 86.0996 43.2344L91.1313 43.2344C92.0981 43.2344 92.8232 43.022 93.3066 42.5972C93.8047 42.1577 94.0537 41.5791 94.0537 40.8613C94.0537 40.1436 93.8047 39.5649 93.3066 39.1255C92.8232 38.686 92.0981 38.4663 91.1313 38.4663L87.0884 38.4663C86.5757 38.4663 86.0483 38.5981 85.5063 38.8618C84.9644 39.1108 84.5615 39.4771 84.2979 39.9604C83.7266 40.9565 82.9429 41.4473 81.9468 41.4326L78.6729 41.4326C78.2773 41.4326 77.9478 41.3081 77.6841 41.0591C77.4351 40.8101 77.3105 40.4878 77.3105 40.0923C77.3105 38.1147 78.27 36.5181 80.189 35.3022C82.1226 34.0864 84.4517 33.4785 87.1763 33.4785L91.5928 33.4785C94.6836 33.4785 97.1299 34.0498 98.9316 35.1924C100.748 36.3203 101.656 38.0415 101.656 40.356C101.656 42.6704 100.609 44.3403 98.5142 45.3657C101.063 46.6548 102.337 48.6909 102.337 51.4741C102.337 53.9058 101.473 55.6782 99.7446 56.7915C98.0308 57.8901 95.4746 58.4395 92.0762 58.4395L87.1763 58.4395C84.2319 58.4395 81.7783 57.8389 79.8154 56.6377C77.8525 55.4365 76.8711 53.8325 76.8711 51.8257Z" fill="rgb(0,0,0)" fill-rule="evenodd" />
	<path id="Ex mini black (color) 19" d="M76.8711 51.8257C76.8711 51.4302 76.9956 51.1079 77.2446 50.8589C77.5083 50.6099 77.8306 50.4854 78.2114 50.4854L81.5073 50.4854C82.5034 50.4854 83.2798 50.9834 83.8364 51.9795C84.4077 52.9609 85.4917 53.4517 87.0884 53.4517L91.5488 53.4517C93.6729 53.4517 94.7349 52.5801 94.7349 50.8369C94.7349 49.0938 93.6729 48.2295 91.5488 48.2441L86.0996 48.2441C85.7041 48.2441 85.3745 48.1196 85.1108 47.8706C84.8618 47.6069 84.7373 47.2773 84.7373 46.8818L84.7373 44.5967C84.7373 44.2012 84.8618 43.8789 85.1108 43.6299C85.3745 43.3662 85.7041 43.2344 86.0996 43.2344L91.1313 43.2344C92.0981 43.2344 92.8232 43.022 93.3066 42.5972C93.8047 42.1577 94.0537 41.5791 94.0537 40.8613C94.0537 40.1436 93.8047 39.5649 93.3066 39.1255C92.8232 38.686 92.0981 38.4663 91.1313 38.4663L87.0884 38.4663C86.5757 38.4663 86.0483 38.5981 85.5063 38.8618C84.9644 39.1108 84.5615 39.4771 84.2979 39.9604C83.7266 40.9565 82.9429 41.4473 81.9468 41.4326L78.6729 41.4326C78.2773 41.4326 77.9478 41.3081 77.6841 41.0591C77.4351 40.8101 77.3105 40.4878 77.3105 40.0923C77.3105 38.1147 78.27 36.5181 80.189 35.3022C82.1226 34.0864 84.4517 33.4785 87.1763 33.4785L91.5928 33.4785C94.6836 33.4785 97.1299 34.0498 98.9316 35.1924C100.748 36.3203 101.656 38.0415 101.656 40.356C101.656 42.6704 100.609 44.3403 98.5142 45.3657C101.063 46.6548 102.337 48.6909 102.337 51.4741C102.337 53.9058 101.473 55.6782 99.7446 56.7915C98.0308 57.8901 95.4746 58.4395 92.0762 58.4395L87.1763 58.4395C84.2319 58.4395 81.7783 57.8389 79.8154 56.6377C77.8525 55.4365 76.8711 53.8325 76.8711 51.8257Z" fill="rgb(0,0,0)" fill-rule="evenodd" />
	<path id="Ex mini black (color) 19" d="M54.9219 60.2852L57.8003 60.6587C59.8657 60.6587 61.3086 59.1426 62.1289 56.1104C59.6387 56.1104 57.5586 55.3633 55.8887 53.8691C54.2188 52.3604 52.7832 49.687 51.582 45.8491L48.3081 35.2363C48.2642 35.1191 48.2422 34.9873 48.2422 34.8408C48.2422 34.6797 48.3301 34.4893 48.5059 34.2695C48.6963 34.0498 48.9746 33.9326 49.3408 33.918L53.9331 33.918C54.3579 33.918 54.7607 34.0645 55.1416 34.3574C55.5371 34.6357 55.7935 34.9873 55.9106 35.4121L58.7891 44.7285C59.5068 47.0137 60.2319 48.5957 60.9644 49.4746C61.7114 50.3535 62.5903 50.793 63.6011 50.793L67.9736 35.4121C68.0908 34.9873 68.3179 34.6357 68.6548 34.3574C69.0063 34.0645 69.3945 33.918 69.8193 33.918L74.4556 33.918C74.8218 33.918 75.0928 34.0352 75.2686 34.2695C75.4443 34.5039 75.5322 34.7017 75.5322 34.8628C75.5322 35.0093 75.5176 35.1338 75.4883 35.2363L69.7314 55.7588C68.7061 59.3916 67.4316 61.9844 65.9082 63.5371C64.3994 65.0898 62.4512 65.8662 60.0635 65.8662C57.6758 65.8662 55.9839 65.7783 54.9878 65.6025C54.0063 65.4268 53.3911 65.207 53.1421 64.9434C52.8931 64.6943 52.7686 64.4014 52.7686 64.0645L52.7686 61.6475C52.7686 61.252 52.8931 60.9224 53.1421 60.6587C53.3911 60.4097 53.7134 60.2852 54.1089 60.2852L54.9219 60.2852Z" fill="rgb(0,0,0)" fill-rule="evenodd" />
	<path id="Ex mini black (color) 19" d="M54.9219 60.2852L57.8003 60.6587C59.8657 60.6587 61.3086 59.1426 62.1289 56.1104C59.6387 56.1104 57.5586 55.3633 55.8887 53.8691C54.2188 52.3604 52.7832 49.687 51.582 45.8491L48.3081 35.2363C48.2642 35.1191 48.2422 34.9873 48.2422 34.8408C48.2422 34.6797 48.3301 34.4893 48.5059 34.2695C48.6963 34.0498 48.9746 33.9326 49.3408 33.918L53.9331 33.918C54.3579 33.918 54.7607 34.0645 55.1416 34.3574C55.5371 34.6357 55.7935 34.9873 55.9106 35.4121L58.7891 44.7285C59.5068 47.0137 60.2319 48.5957 60.9644 49.4746C61.7114 50.3535 62.5903 50.793 63.6011 50.793L67.9736 35.4121C68.0908 34.9873 68.3179 34.6357 68.6548 34.3574C69.0063 34.0645 69.3945 33.918 69.8193 33.918L74.4556 33.918C74.8218 33.918 75.0928 34.0352 75.2686 34.2695C75.4443 34.5039 75.5322 34.7017 75.5322 34.8628C75.5322 35.0093 75.5176 35.1338 75.4883 35.2363L69.7314 55.7588C68.7061 59.3916 67.4316 61.9844 65.9082 63.5371C64.3994 65.0898 62.4512 65.8662 60.0635 65.8662C57.6758 65.8662 55.9839 65.7783 54.9878 65.6025C54.0063 65.4268 53.3911 65.207 53.1421 64.9434C52.8931 64.6943 52.7686 64.4014 52.7686 64.0645L52.7686 61.6475C52.7686 61.252 52.8931 60.9224 53.1421 60.6587C53.3911 60.4097 53.7134 60.2852 54.1089 60.2852L54.9219 60.2852Z" fill="rgb(0,0,0)" fill-rule="evenodd" />
	<path id="Ex mini black (color) 19" d="M4.14062 55.8906L4.14062 28.6226C4.14062 28.022 4.33838 27.5166 4.73389 27.1064C5.12939 26.6963 5.61279 26.4912 6.18408 26.4912L15.127 26.4912C15.6982 26.4912 16.2402 26.6963 16.7529 27.1064C17.2656 27.5166 17.6099 28.0073 17.7856 28.5786L24.2676 47.3433L30.7495 28.5786C30.9253 28.0073 31.2695 27.5166 31.7822 27.1064C32.2949 26.6963 32.8369 26.4912 33.4082 26.4912L42.3511 26.4912C42.9224 26.4912 43.3984 26.6963 43.7793 27.1064C44.1748 27.5166 44.3726 28.022 44.3726 28.6226L44.3726 55.8906C44.3726 56.4912 44.1675 56.9966 43.7573 57.4067C43.3618 57.8022 42.8784 58 42.3071 58L38.3521 58C37.7808 58 37.29 57.8022 36.8799 57.4067C36.4844 56.9966 36.2866 56.4912 36.2866 55.8906L36.2866 34.4233L28.5303 56.0225C28.3252 56.5645 27.9663 57.0332 27.4536 57.4287C26.9409 57.8096 26.3989 58 25.8276 58L22.6855 58C22.1143 58 21.5723 57.8096 21.0596 57.4287C20.5615 57.0332 20.2026 56.5645 19.9829 56.0225L12.2485 34.4233L12.2485 55.8906C12.2485 56.4912 12.0435 56.9966 11.6333 57.4067C11.2378 57.8022 10.7544 58 10.1831 58L6.22803 58C5.65674 58 5.16602 57.8022 4.75586 57.4067C4.3457 56.9966 4.14062 56.4912 4.14062 55.8906Z" fill="rgb(0,0,0)" fill-rule="evenodd" />
	<path id="Ex mini black (color) 19" d="M4.14062 55.8906L4.14062 28.6226C4.14062 28.022 4.33838 27.5166 4.73389 27.1064C5.12939 26.6963 5.61279 26.4912 6.18408 26.4912L15.127 26.4912C15.6982 26.4912 16.2402 26.6963 16.7529 27.1064C17.2656 27.5166 17.6099 28.0073 17.7856 28.5786L24.2676 47.3433L30.7495 28.5786C30.9253 28.0073 31.2695 27.5166 31.7822 27.1064C32.2949 26.6963 32.8369 26.4912 33.4082 26.4912L42.3511 26.4912C42.9224 26.4912 43.3984 26.6963 43.7793 27.1064C44.1748 27.5166 44.3726 28.022 44.3726 28.6226L44.3726 55.8906C44.3726 56.4912 44.1675 56.9966 43.7573 57.4067C43.3618 57.8022 42.8784 58 42.3071 58L38.3521 58C37.7808 58 37.29 57.8022 36.8799 57.4067C36.4844 56.9966 36.2866 56.4912 36.2866 55.8906L36.2866 34.4233L28.5303 56.0225C28.3252 56.5645 27.9663 57.0332 27.4536 57.4287C26.9409 57.8096 26.3989 58 25.8276 58L22.6855 58C22.1143 58 21.5723 57.8096 21.0596 57.4287C20.5615 57.0332 20.2026 56.5645 19.9829 56.0225L12.2485 34.4233L12.2485 55.8906C12.2485 56.4912 12.0435 56.9966 11.6333 57.4067C11.2378 57.8022 10.7544 58 10.1831 58L6.22803 58C5.65674 58 5.16602 57.8022 4.75586 57.4067C4.3457 56.9966 4.14062 56.4912 4.14062 55.8906Z" fill="rgb(0,0,0)" fill-rule="evenodd" />
	<path id="Ex mini black (color) 19" d="M1.99973 14.6819L0.526579 11.781C-0.595237 9.57198 0.118629 6.812 2.25602 5.67273C20.7254 -4.17183 38.1704 0.737068 47.1443 5.87485C48.9946 6.93423 49.5103 9.23057 48.4692 11.1422C47.933 12.1266 47.2503 13.3663 46.3912 14.9085C45.1375 17.1592 42.3767 17.8996 40.1214 16.7761C29.1587 11.315 19.5645 11.3085 8.32315 16.7567C6.00579 17.8799 3.1939 17.0335 1.99973 14.6819Z" fill="rgb(0,0,0)" fill-rule="nonzero" />
	<path id="Ex mini black (color) 19" d="M1.99973 14.6819L0.526579 11.781C-0.595237 9.57198 0.118629 6.812 2.25602 5.67273C20.7254 -4.17183 38.1704 0.737068 47.1443 5.87485C48.9946 6.93423 49.5103 9.23057 48.4692 11.1422C47.933 12.1266 47.2503 13.3663 46.3912 14.9085C45.1375 17.1592 42.3767 17.8996 40.1214 16.7761C29.1587 11.315 19.5645 11.3085 8.32315 16.7567C6.00579 17.8799 3.1939 17.0335 1.99973 14.6819Z" fill="rgb(177,143,225)" fill-rule="nonzero" />
</svg>
