<svg viewBox="0 0 48 48" xmlns="http://www.w3.org/2000/svg" xmlns:xlink="http://www.w3.org/1999/xlink" width="48.000000" height="48.000000" fill="none" customFrame="#000000">
	<rect id="32px Icon color (full) 19" width="48.000000" height="48.000000" x="0.000000" y="0.000000" fill="rgb(255,255,255)" fill-opacity="0" />
	<path id="32px Icon color (full) 19" d="M0 24C0 15.5992 0 11.3988 1.6349 8.19014C3.073 5.36771 5.36771 3.073 8.19014 1.6349C11.3988 0 15.5992 0 24 0C32.4008 0 36.6012 0 39.8099 1.6349C42.6323 3.073 44.927 5.36771 46.3651 8.19014C48 11.3988 48 15.5992 48 24C48 32.4008 48 36.6012 46.3651 39.8099C44.927 42.6323 42.6323 44.927 39.8099 46.3651C36.6012 48 32.4008 48 24 48C15.5992 48 11.3988 48 8.19014 46.3651C5.36771 44.927 3.073 42.6323 1.6349 39.8099C0 36.6012 0 32.4008 0 24Z" fill="rgb(177,143,225)" fill-rule="evenodd" />
	<path id="32px Icon color (full) 19" d="M19.4444 31.272C19.4444 30.5284 19.1491 29.8149 18.6233 29.289C18.0974 28.7632 17.384 28.4679 16.6403 28.4679C15.8966 28.4679 15.1832 28.7631 14.6573 29.289C14.1315 29.8149 13.8362 30.5283 13.8362 31.272C13.8362 32.0155 14.1316 32.7286 14.6573 33.2544C15.1832 33.7803 15.8966 34.0761 16.6403 34.0761C17.384 34.0761 18.0974 33.7803 18.6233 33.2544C19.149 32.7286 19.4444 32.0155 19.4444 31.272ZM33.0928 14.7543C33.0928 14.6132 33.0604 14.4739 32.9978 14.3473C32.9352 14.2208 32.844 14.1103 32.7318 14.0246C32.6198 13.9391 32.4895 13.8802 32.3511 13.8531C32.2127 13.8261 32.0695 13.8315 31.9334 13.8686L21.9575 16.5897C21.7633 16.6426 21.5915 16.7584 21.4693 16.9184C21.347 17.0784 21.2804 17.274 21.2804 17.4754L21.2804 20.2192L33.0928 16.9991L33.0928 14.7543ZM34.9288 28.7906C34.9288 29.2976 34.5178 29.7086 34.0108 29.7086C33.5039 29.7085 33.0928 29.2975 33.0928 28.7906L33.0928 18.9014L21.2804 22.1221L21.2804 31.272L21.2744 31.5021C21.2175 32.6489 20.7371 33.7373 19.9214 34.5531C19.0512 35.4232 17.8709 35.9121 16.6403 35.9121C15.4097 35.9121 14.2294 35.4232 13.3592 34.5531C12.4891 33.6829 12.0003 32.5025 12.0002 31.272C12.0002 30.0414 12.4891 28.8611 13.3592 27.9909C14.2294 27.1208 15.4097 26.6319 16.6403 26.6319C17.6587 26.6319 18.6422 26.9669 19.4444 27.5756L19.4444 17.4748C19.4446 16.8706 19.6435 16.2832 20.0104 15.8032C20.3773 15.3232 20.8917 14.977 21.4746 14.8183L31.4499 12.0978L31.6041 12.0602C31.9654 11.9836 32.339 11.9802 32.7026 12.0512C33.1182 12.1324 33.5099 12.3088 33.8464 12.5658C34.1829 12.8228 34.456 13.1538 34.6437 13.5334C34.8314 13.9129 34.9288 14.3309 34.9288 14.7543L34.9288 28.7906Z" fill="rgb(177,143,225)" fill-rule="nonzero" />
	<path id="32px Icon color (full) 19" d="M19.4444 31.272C19.4444 30.5284 19.1491 29.8149 18.6233 29.289C18.0974 28.7632 17.384 28.4679 16.6403 28.4679C15.8966 28.4679 15.1832 28.7631 14.6573 29.289C14.1315 29.8149 13.8362 30.5283 13.8362 31.272C13.8362 32.0155 14.1316 32.7286 14.6573 33.2544C15.1832 33.7803 15.8966 34.0761 16.6403 34.0761C17.384 34.0761 18.0974 33.7803 18.6233 33.2544C19.149 32.7286 19.4444 32.0155 19.4444 31.272ZM33.0928 14.7543C33.0928 14.6132 33.0604 14.4739 32.9978 14.3473C32.9352 14.2208 32.844 14.1103 32.7318 14.0246C32.6198 13.9391 32.4895 13.8802 32.3511 13.8531C32.2127 13.8261 32.0695 13.8315 31.9334 13.8686L21.9575 16.5897C21.7633 16.6426 21.5915 16.7584 21.4693 16.9184C21.347 17.0784 21.2804 17.274 21.2804 17.4754L21.2804 20.2192L33.0928 16.9991L33.0928 14.7543ZM34.9288 28.7906C34.9288 29.2976 34.5178 29.7086 34.0108 29.7086C33.5039 29.7085 33.0928 29.2975 33.0928 28.7906L33.0928 18.9014L21.2804 22.1221L21.2804 31.272L21.2744 31.5021C21.2175 32.6489 20.7371 33.7373 19.9214 34.5531C19.0512 35.4232 17.8709 35.9121 16.6403 35.9121C15.4097 35.9121 14.2294 35.4232 13.3592 34.5531C12.4891 33.6829 12.0003 32.5025 12.0002 31.272C12.0002 30.0414 12.4891 28.8611 13.3592 27.9909C14.2294 27.1208 15.4097 26.6319 16.6403 26.6319C17.6587 26.6319 18.6422 26.9669 19.4444 27.5756L19.4444 17.4748C19.4446 16.8706 19.6435 16.2832 20.0104 15.8032C20.3773 15.3232 20.8917 14.977 21.4746 14.8183L31.4499 12.0978L31.6041 12.0602C31.9654 11.9836 32.339 11.9802 32.7026 12.0512C33.1182 12.1324 33.5099 12.3088 33.8464 12.5658C34.1829 12.8228 34.456 13.1538 34.6437 13.5334C34.8314 13.9129 34.9288 14.3309 34.9288 14.7543L34.9288 28.7906Z" fill="rgb(255,255,255)" fill-rule="nonzero" />
	<path id="32px Icon color (full) 19" d="M33.0928 28.7893C33.0928 28.0456 32.7975 27.3322 32.2717 26.8063C31.7458 26.2804 31.0324 25.9851 30.2887 25.9851C29.545 25.9851 28.8316 26.2804 28.3057 26.8063C27.7798 27.3322 27.4845 28.0456 27.4845 28.7893C27.4845 29.1575 27.557 29.5224 27.6979 29.8626C27.8388 30.2028 28.0454 30.5119 28.3057 30.7722C28.566 31.0326 28.8752 31.2391 29.2153 31.38C29.5555 31.521 29.9204 31.5934 30.2887 31.5934C30.6569 31.5934 31.0218 31.521 31.362 31.38C31.7022 31.2391 32.0113 31.0326 32.2717 30.7722C32.532 30.5119 32.7385 30.2028 32.8795 29.8626C33.0204 29.5224 33.0928 29.1575 33.0928 28.7893ZM34.9288 28.7893C34.9288 29.3986 34.8087 30.0019 34.5756 30.5649C34.3424 31.1278 34.0006 31.6395 33.5697 32.0703C33.1389 32.5012 32.6272 32.843 32.0643 33.0762C31.5013 33.3093 30.898 33.4294 30.2887 33.4294C29.6794 33.4294 29.076 33.3093 28.5131 33.0762C27.9501 32.843 27.4385 32.5012 27.0076 32.0703C26.5767 31.6394 26.235 31.1278 26.0018 30.5649C25.7686 30.0019 25.6486 29.3986 25.6486 28.7893C25.6486 27.5586 26.1374 26.3784 27.0076 25.5082C27.8778 24.638 29.0581 24.1492 30.2887 24.1492C31.5193 24.1492 32.6996 24.638 33.5697 25.5082C34.4399 26.3784 34.9288 27.5586 34.9288 28.7893Z" fill="rgb(177,143,225)" fill-rule="nonzero" />
	<path id="32px Icon color (full) 19" d="M33.0928 28.7893C33.0928 28.0456 32.7975 27.3322 32.2717 26.8063C31.7458 26.2804 31.0324 25.9851 30.2887 25.9851C29.545 25.9851 28.8316 26.2804 28.3057 26.8063C27.7798 27.3322 27.4845 28.0456 27.4845 28.7893C27.4845 29.1575 27.557 29.5224 27.6979 29.8626C27.8388 30.2028 28.0454 30.5119 28.3057 30.7722C28.566 31.0326 28.8752 31.2391 29.2153 31.38C29.5555 31.521 29.9204 31.5934 30.2887 31.5934C30.6569 31.5934 31.0218 31.521 31.362 31.38C31.7022 31.2391 32.0113 31.0326 32.2717 30.7722C32.532 30.5119 32.7385 30.2028 32.8795 29.8626C33.0204 29.5224 33.0928 29.1575 33.0928 28.7893ZM34.9288 28.7893C34.9288 29.3986 34.8087 30.0019 34.5756 30.5649C34.3424 31.1278 34.0006 31.6395 33.5697 32.0703C33.1389 32.5012 32.6272 32.843 32.0643 33.0762C31.5013 33.3093 30.898 33.4294 30.2887 33.4294C29.6794 33.4294 29.076 33.3093 28.5131 33.0762C27.9501 32.843 27.4385 32.5012 27.0076 32.0703C26.5767 31.6394 26.235 31.1278 26.0018 30.5649C25.7686 30.0019 25.6486 29.3986 25.6486 28.7893C25.6486 27.5586 26.1374 26.3784 27.0076 25.5082C27.8778 24.638 29.0581 24.1492 30.2887 24.1492C31.5193 24.1492 32.6996 24.638 33.5697 25.5082C34.4399 26.3784 34.9288 27.5586 34.9288 28.7893Z" fill="rgb(255,255,255)" fill-rule="nonzero" />
</svg>
