<svg viewBox="0 0 48 48" xmlns="http://www.w3.org/2000/svg" xmlns:xlink="http://www.w3.org/1999/xlink" width="48.000000" height="48.000000" fill="none" customFrame="#000000">
	<rect id="32px Icon color (full) 20" width="48.000000" height="48.000000" x="0.000000" y="0.000000" fill="rgb(255,255,255)" fill-opacity="0" />
	<path id="32px Icon color (full) 20" d="M0 24C0 15.5992 0 11.3988 1.6349 8.19014C3.073 5.36771 5.36771 3.073 8.19014 1.6349C11.3988 0 15.5992 0 24 0C32.4008 0 36.6012 0 39.8099 1.6349C42.6323 3.073 44.927 5.36771 46.3651 8.19014C48 11.3988 48 15.5992 48 24C48 32.4008 48 36.6012 46.3651 39.8099C44.927 42.6323 42.6323 44.927 39.8099 46.3651C36.6012 48 32.4008 48 24 48C15.5992 48 11.3988 48 8.19014 46.3651C5.36771 44.927 3.073 42.6323 1.6349 39.8099C0 36.6012 0 32.4008 0 24Z" fill="rgb(16.7995,16.7995,16.7995)" fill-rule="evenodd" />
	<path id="32px Icon color (full) 20" d="M25.7872 13.926C25.9547 13.2712 26.6337 12.8731 27.3034 13.0368C27.973 13.2005 28.3802 13.8644 28.2128 14.5191L23.2128 34.074C23.0453 34.7288 22.3663 35.1269 21.6966 34.9632C21.027 34.7995 20.6198 34.1356 20.7872 33.4809L25.7872 13.926ZM17.3662 18.2472C17.8543 17.7699 18.6456 17.7699 19.1337 18.2472C19.6219 18.7244 19.6219 19.4981 19.1337 19.9754L15.0175 24L19.1337 28.0246C19.6219 28.5019 19.6219 29.2756 19.1337 29.7528C18.6456 30.2301 17.8543 30.2301 17.3662 29.7528L12.3661 24.8641C11.878 24.3868 11.878 23.6132 12.3661 23.1359L17.3662 18.2472ZM29.8663 18.2472C30.3544 17.7699 31.1457 17.7699 31.6338 18.2472L36.6339 23.1359C37.122 23.6132 37.122 24.3868 36.6339 24.8641L31.6338 29.7528C31.1457 30.2301 30.3544 30.2301 29.8663 29.7528C29.3781 29.2756 29.3781 28.5019 29.8663 28.0246L33.9825 24L29.8663 19.9754C29.3781 19.4981 29.3781 18.7244 29.8663 18.2472Z" fill="rgb(16.7995,16.7995,16.7995)" fill-rule="nonzero" />
	<path id="32px Icon color (full) 20" d="M25.7872 13.926C25.9547 13.2712 26.6337 12.8731 27.3034 13.0368C27.973 13.2005 28.3802 13.8644 28.2128 14.5191L23.2128 34.074C23.0453 34.7288 22.3663 35.1269 21.6966 34.9632C21.027 34.7995 20.6198 34.1356 20.7872 33.4809L25.7872 13.926ZM17.3662 18.2472C17.8543 17.7699 18.6456 17.7699 19.1337 18.2472C19.6219 18.7244 19.6219 19.4981 19.1337 19.9754L15.0175 24L19.1337 28.0246C19.6219 28.5019 19.6219 29.2756 19.1337 29.7528C18.6456 30.2301 17.8543 30.2301 17.3662 29.7528L12.3661 24.8641C11.878 24.3868 11.878 23.6132 12.3661 23.1359L17.3662 18.2472ZM29.8663 18.2472C30.3544 17.7699 31.1457 17.7699 31.6338 18.2472L36.6339 23.1359C37.122 23.6132 37.122 24.3868 36.6339 24.8641L31.6338 29.7528C31.1457 30.2301 30.3544 30.2301 29.8663 29.7528C29.3781 29.2756 29.3781 28.5019 29.8663 28.0246L33.9825 24L29.8663 19.9754C29.3781 19.4981 29.3781 18.7244 29.8663 18.2472Z" fill="rgb(255,255,255)" fill-rule="nonzero" />
</svg>
