<svg viewBox="0 0 177.969 65.8662" xmlns="http://www.w3.org/2000/svg" xmlns:xlink="http://www.w3.org/1999/xlink" width="177.968750" height="65.866211" fill="none" customFrame="#000000">
	<rect id="Ex mini black (color) 22" width="177.969238" height="65.866211" x="0.000000" y="0.000000" fill="rgb(255,255,255)" fill-opacity="0" />
	<path id="Ex mini black (color) 22" d="M151.492 46.3105L151.492 43.1465C151.492 38.1074 152.378 34.2769 154.151 31.6548C155.923 29.0327 158.941 27.5239 163.204 27.1284L175.311 26.0518C175.311 26.0518 175.384 26.0518 175.53 26.0518C175.838 26.0518 176.109 26.125 176.343 26.2715C176.607 26.5205 176.739 26.8208 176.739 27.1724L176.739 30.0508C176.739 30.5342 176.578 30.9883 176.255 31.4131C175.948 31.8232 175.574 32.043 175.135 32.0723L165.906 32.8413C162.845 33.0903 160.691 33.8081 159.446 34.9946C158.201 36.1665 157.579 38.0635 157.579 40.6855C159.38 38.1514 162.134 36.8843 165.84 36.8843C169.546 36.8843 172.491 37.8218 174.673 39.6968C176.871 41.5718 177.969 44.2378 177.969 47.6948C177.969 51.1519 176.841 53.8105 174.585 55.6709C172.33 57.5166 169.048 58.4395 164.742 58.4395C155.909 58.4395 151.492 54.3965 151.492 46.3105ZM164.72 41.894C162.933 41.894 161.548 42.3994 160.567 43.4102C159.6 44.4062 159.117 45.8271 159.117 47.6729C159.117 49.5186 159.6 50.9468 160.567 51.9575C161.548 52.9536 162.933 53.4517 164.72 53.4517C166.521 53.4517 167.913 52.9536 168.895 51.9575C169.876 50.9468 170.367 49.5186 170.367 47.6729C170.367 45.8271 169.876 44.4062 168.895 43.4102C167.913 42.3994 166.521 41.894 164.72 41.894Z" fill="rgb(0,0,0)" fill-rule="evenodd" />
	<path id="Ex mini black (color) 22" d="M129.102 60.2852L131.98 60.6587C134.045 60.6587 135.488 59.1426 136.309 56.1104C133.818 56.1104 131.738 55.3633 130.068 53.8691C128.398 52.3604 126.963 49.687 125.762 45.8491L122.488 35.2363C122.444 35.1191 122.422 34.9873 122.422 34.8408C122.422 34.6797 122.51 34.4893 122.686 34.2695C122.876 34.0498 123.154 33.9326 123.521 33.918L128.113 33.918C128.538 33.918 128.94 34.0645 129.321 34.3574C129.717 34.6357 129.973 34.9873 130.09 35.4121L132.969 44.7285C133.687 47.0137 134.412 48.5957 135.144 49.4746C135.891 50.3535 136.77 50.793 137.781 50.793L142.153 35.4121C142.271 34.9873 142.498 34.6357 142.834 34.3574C143.186 34.0645 143.574 33.918 143.999 33.918L148.635 33.918C149.001 33.918 149.272 34.0352 149.448 34.2695C149.624 34.5039 149.712 34.7017 149.712 34.8628C149.712 35.0093 149.697 35.1338 149.668 35.2363L143.911 55.7588C142.886 59.3916 141.611 61.9844 140.088 63.5371C138.579 65.0898 136.631 65.8662 134.243 65.8662C131.855 65.8662 130.164 65.7783 129.167 65.6025C128.186 65.4268 127.571 65.207 127.322 64.9434C127.073 64.6943 126.948 64.4014 126.948 64.0645L126.948 61.6475C126.948 61.252 127.073 60.9224 127.322 60.6587C127.571 60.4097 127.893 60.2852 128.289 60.2852L129.102 60.2852Z" fill="rgb(0,0,0)" fill-rule="evenodd" />
	<path id="Ex mini black (color) 22" d="M129.102 60.2852L131.98 60.6587C134.045 60.6587 135.488 59.1426 136.309 56.1104C133.818 56.1104 131.738 55.3633 130.068 53.8691C128.398 52.3604 126.963 49.687 125.762 45.8491L122.488 35.2363C122.444 35.1191 122.422 34.9873 122.422 34.8408C122.422 34.6797 122.51 34.4893 122.686 34.2695C122.876 34.0498 123.154 33.9326 123.521 33.918L128.113 33.918C128.538 33.918 128.94 34.0645 129.321 34.3574C129.717 34.6357 129.973 34.9873 130.09 35.4121L132.969 44.7285C133.687 47.0137 134.412 48.5957 135.144 49.4746C135.891 50.3535 136.77 50.793 137.781 50.793L142.153 35.4121C142.271 34.9873 142.498 34.6357 142.834 34.3574C143.186 34.0645 143.574 33.918 143.999 33.918L148.635 33.918C149.001 33.918 149.272 34.0352 149.448 34.2695C149.624 34.5039 149.712 34.7017 149.712 34.8628C149.712 35.0093 149.697 35.1338 149.668 35.2363L143.911 55.7588C142.886 59.3916 141.611 61.9844 140.088 63.5371C138.579 65.0898 136.631 65.8662 134.243 65.8662C131.855 65.8662 130.164 65.7783 129.167 65.6025C128.186 65.4268 127.571 65.207 127.322 64.9434C127.073 64.6943 126.948 64.4014 126.948 64.0645L126.948 61.6475C126.948 61.252 127.073 60.9224 127.322 60.6587C127.571 60.4097 127.893 60.2852 128.289 60.2852L129.102 60.2852Z" fill="rgb(0,0,0)" fill-rule="evenodd" />
	<path id="Ex mini black (color) 22" d="M92.2964 56.5498L96.2515 40.5757C97.3647 36.1372 101.042 33.918 107.282 33.918L117.675 33.918C118.056 33.918 118.371 34.0498 118.62 34.3135C118.883 34.5625 119.015 34.8848 119.015 35.2803L119.015 56.6597C119.015 57.0405 118.883 57.3628 118.62 57.6265C118.371 57.8755 118.056 58 117.675 58L112.753 58C112.372 58 112.05 57.8755 111.786 57.6265C111.537 57.3628 111.413 57.0405 111.413 56.6597L111.413 39.2354L107.282 39.2354C105.231 39.2354 103.935 40.312 103.393 42.4653L99.9429 56.374C99.811 56.8574 99.5474 57.2529 99.1519 57.5605C98.771 57.8535 98.3608 58 97.9214 58L93.417 58C93.0215 58 92.7212 57.8828 92.5161 57.6484C92.3257 57.3994 92.2305 57.187 92.2305 57.0112C92.2305 56.8354 92.2524 56.6816 92.2964 56.5498Z" fill="rgb(0,0,0)" fill-rule="evenodd" />
	<path id="Ex mini black (color) 22" d="M92.2964 56.5498L96.2515 40.5757C97.3647 36.1372 101.042 33.918 107.282 33.918L117.675 33.918C118.056 33.918 118.371 34.0498 118.62 34.3135C118.883 34.5625 119.015 34.8848 119.015 35.2803L119.015 56.6597C119.015 57.0405 118.883 57.3628 118.62 57.6265C118.371 57.8755 118.056 58 117.675 58L112.753 58C112.372 58 112.05 57.8755 111.786 57.6265C111.537 57.3628 111.413 57.0405 111.413 56.6597L111.413 39.2354L107.282 39.2354C105.231 39.2354 103.935 40.312 103.393 42.4653L99.9429 56.374C99.811 56.8574 99.5474 57.2529 99.1519 57.5605C98.771 57.8535 98.3608 58 97.9214 58L93.417 58C93.0215 58 92.7212 57.8828 92.5161 57.6484C92.3257 57.3994 92.2305 57.187 92.2305 57.0112C92.2305 56.8354 92.2524 56.6816 92.2964 56.5498Z" fill="rgb(0,0,0)" fill-rule="evenodd" />
	<path id="Ex mini black (color) 22" d="M91.3071 57.0332C91.3071 57.6777 90.9263 58 90.1646 58L86.0117 58C84.6055 58 83.4849 57.3115 82.6499 55.9346L79.8594 51.3862C78.6582 49.438 76.915 48.4639 74.6299 48.4639L74.6299 56.6597C74.6299 57.0552 74.498 57.3774 74.2344 57.6265C73.9854 57.8755 73.6704 58 73.2896 58L68.3677 58C67.9722 58 67.6499 57.8755 67.4009 57.6265C67.1519 57.3774 67.0273 57.0552 67.0273 56.6597L67.0273 35.2803C67.0273 34.8848 67.1519 34.5625 67.4009 34.3135C67.6646 34.0498 67.9868 33.918 68.3677 33.918L73.2896 33.918C73.6851 33.918 74.0073 34.0498 74.2563 34.3135C74.5054 34.5625 74.6299 34.8848 74.6299 35.2803L74.6299 43.4541C77.1787 43.4541 78.9219 42.4653 79.8594 40.4878L81.9688 36.0054C82.2617 35.3755 82.6938 34.8701 83.2651 34.4893C83.8364 34.1084 84.4517 33.918 85.1108 33.918L89.2637 33.918C89.9961 33.918 90.3623 34.2036 90.3623 34.7749C90.3623 35.0972 90.2451 35.5073 90.0107 36.0054L87.1763 41.9819C86.6929 42.978 86.0337 43.835 85.1987 44.5527C84.3638 45.2705 83.4629 45.7319 82.4961 45.937C84.2979 46.479 85.8579 47.7974 87.1763 49.8921L90.9116 55.9346C91.1606 56.3594 91.2925 56.7256 91.3071 57.0332Z" fill="rgb(0,0,0)" fill-rule="evenodd" />
	<path id="Ex mini black (color) 22" d="M91.3071 57.0332C91.3071 57.6777 90.9263 58 90.1646 58L86.0117 58C84.6055 58 83.4849 57.3115 82.6499 55.9346L79.8594 51.3862C78.6582 49.438 76.915 48.4639 74.6299 48.4639L74.6299 56.6597C74.6299 57.0552 74.498 57.3774 74.2344 57.6265C73.9854 57.8755 73.6704 58 73.2896 58L68.3677 58C67.9722 58 67.6499 57.8755 67.4009 57.6265C67.1519 57.3774 67.0273 57.0552 67.0273 56.6597L67.0273 35.2803C67.0273 34.8848 67.1519 34.5625 67.4009 34.3135C67.6646 34.0498 67.9868 33.918 68.3677 33.918L73.2896 33.918C73.6851 33.918 74.0073 34.0498 74.2563 34.3135C74.5054 34.5625 74.6299 34.8848 74.6299 35.2803L74.6299 43.4541C77.1787 43.4541 78.9219 42.4653 79.8594 40.4878L81.9688 36.0054C82.2617 35.3755 82.6938 34.8701 83.2651 34.4893C83.8364 34.1084 84.4517 33.918 85.1108 33.918L89.2637 33.918C89.9961 33.918 90.3623 34.2036 90.3623 34.7749C90.3623 35.0972 90.2451 35.5073 90.0107 36.0054L87.1763 41.9819C86.6929 42.978 86.0337 43.835 85.1987 44.5527C84.3638 45.2705 83.4629 45.7319 82.4961 45.937C84.2979 46.479 85.8579 47.7974 87.1763 49.8921L90.9116 55.9346C91.1606 56.3594 91.2925 56.7256 91.3071 57.0332Z" fill="rgb(0,0,0)" fill-rule="evenodd" />
	<path id="Ex mini black (color) 22" d="M16.0312 30.644L16.0312 28.5786C16.0312 27.978 16.229 27.48 16.6245 27.0845C17.02 26.689 17.5181 26.4912 18.1187 26.4912L46.002 26.4912C46.6025 26.4912 47.1006 26.689 47.4961 27.0845C47.8916 27.48 48.0894 27.978 48.0894 28.5786L48.0894 30.644C48.0894 31.2446 47.8916 31.7427 47.4961 32.1382C47.1006 32.519 46.6025 32.7095 46.002 32.7095L36.2021 32.7095L36.2021 55.9785C36.2021 56.5498 35.9971 57.0332 35.5869 57.4287C35.1914 57.8096 34.708 58 34.1367 58L29.9839 58C29.4126 58 28.9219 57.8096 28.5117 57.4287C28.1162 57.0332 27.9185 56.5498 27.9185 55.9785L27.9185 32.7095L18.1187 32.7095C17.5181 32.7095 17.02 32.519 16.6245 32.1382C16.229 31.7427 16.0312 31.2446 16.0312 30.644Z" fill="rgb(0,0,0)" fill-rule="evenodd" />
	<path id="Ex mini black (color) 22" d="M16.0312 30.644L16.0312 28.5786C16.0312 27.978 16.229 27.48 16.6245 27.0845C17.02 26.689 17.5181 26.4912 18.1187 26.4912L46.002 26.4912C46.6025 26.4912 47.1006 26.689 47.4961 27.0845C47.8916 27.48 48.0894 27.978 48.0894 28.5786L48.0894 30.644C48.0894 31.2446 47.8916 31.7427 47.4961 32.1382C47.1006 32.519 46.6025 32.7095 46.002 32.7095L36.2021 32.7095L36.2021 55.9785C36.2021 56.5498 35.9971 57.0332 35.5869 57.4287C35.1914 57.8096 34.708 58 34.1367 58L29.9839 58C29.4126 58 28.9219 57.8096 28.5117 57.4287C28.1162 57.0332 27.9185 56.5498 27.9185 55.9785L27.9185 32.7095L18.1187 32.7095C17.5181 32.7095 17.02 32.519 16.6245 32.1382C16.229 31.7427 16.0312 31.2446 16.0312 30.644Z" fill="rgb(0,0,0)" fill-rule="evenodd" />
	<path id="Ex mini black (color) 22" d="M4.14062 55.9785L4.14062 28.5786C4.14062 28.0073 4.3457 27.5166 4.75586 27.1064C5.16602 26.6963 5.65674 26.4912 6.22803 26.4912L10.3149 26.4912C10.9155 26.4912 11.4136 26.6963 11.8091 27.1064C12.2192 27.5166 12.4243 28.0073 12.4243 28.5786L12.4243 55.9346C12.4243 56.5059 12.2119 56.9966 11.7871 57.4067C11.377 57.8022 10.8862 58 10.3149 58L6.22803 58C5.65674 58 5.16602 57.8096 4.75586 57.4287C4.3457 57.0332 4.14062 56.5498 4.14062 55.9785Z" fill="rgb(0,0,0)" fill-rule="evenodd" />
	<path id="Ex mini black (color) 22" d="M4.14062 55.9785L4.14062 28.5786C4.14062 28.0073 4.3457 27.5166 4.75586 27.1064C5.16602 26.6963 5.65674 26.4912 6.22803 26.4912L10.3149 26.4912C10.9155 26.4912 11.4136 26.6963 11.8091 27.1064C12.2192 27.5166 12.4243 28.0073 12.4243 28.5786L12.4243 55.9346C12.4243 56.5059 12.2119 56.9966 11.7871 57.4067C11.377 57.8022 10.8862 58 10.3149 58L6.22803 58C5.65674 58 5.16602 57.8096 4.75586 57.4287C4.3457 57.0332 4.14062 56.5498 4.14062 55.9785Z" fill="rgb(0,0,0)" fill-rule="evenodd" />
	<path id="Ex mini black (color) 22" d="M1.99973 14.6819L0.526579 11.781C-0.595237 9.57198 0.118629 6.812 2.25602 5.67273C20.7254 -4.17183 38.1704 0.737068 47.1443 5.87485C48.9946 6.93423 49.5103 9.23057 48.4692 11.1422C47.933 12.1266 47.2503 13.3663 46.3912 14.9085C45.1375 17.1592 42.3767 17.8996 40.1214 16.7761C29.1587 11.315 19.5645 11.3085 8.32315 16.7567C6.00579 17.8799 3.1939 17.0335 1.99973 14.6819Z" fill="rgb(0,0,0)" fill-rule="nonzero" />
	<path id="Ex mini black (color) 22" d="M1.99973 14.6819L0.526579 11.781C-0.595237 9.57198 0.118629 6.812 2.25602 5.67273C20.7254 -4.17183 38.1704 0.737068 47.1443 5.87485C48.9946 6.93423 49.5103 9.23057 48.4692 11.1422C47.933 12.1266 47.2503 13.3663 46.3912 14.9085C45.1375 17.1592 42.3767 17.8996 40.1214 16.7761C29.1587 11.315 19.5645 11.3085 8.32315 16.7567C6.00579 17.8799 3.1939 17.0335 1.99973 14.6819Z" fill="rgb(16.7995,16.7995,16.7995)" fill-rule="nonzero" />
</svg>
