<svg viewBox="0 0 234.941 58.4397" xmlns="http://www.w3.org/2000/svg" xmlns:xlink="http://www.w3.org/1999/xlink" width="234.941406" height="58.439697" fill="none" customFrame="#000000">
	<rect id="Ex mini black (color) 15" width="234.941895" height="58.439648" x="0.000000" y="0.000000" fill="rgb(255,255,255)" fill-opacity="0" />
	<path id="Ex mini black (color) 15" d="M201.609 56.6597L201.609 35.2803C201.609 34.8848 201.734 34.5625 201.983 34.3135C202.247 34.0498 202.569 33.918 202.95 33.918L207.872 33.918C208.267 33.918 208.589 34.0498 208.838 34.3135C209.087 34.5625 209.212 34.8848 209.212 35.2803L209.212 41.894L214.441 41.894C217.562 41.894 219.971 42.5093 221.67 43.7397C223.384 44.9702 224.241 47.043 224.241 49.958C224.241 52.8584 223.384 54.9238 221.67 56.1543C219.971 57.3848 217.562 58 214.441 58L202.95 58C202.554 58 202.232 57.8755 201.983 57.6265C201.734 57.3774 201.609 57.0552 201.609 56.6597ZM209.08 53.1001L213.76 53.1001C215.679 53.1001 216.639 52.0527 216.639 49.958C216.639 47.8486 215.679 46.7939 213.76 46.7939L209.08 46.7939L209.08 53.1001ZM227.339 56.6597L227.339 35.2803C227.339 34.8848 227.464 34.5625 227.713 34.3135C227.977 34.0498 228.306 33.918 228.702 33.918L233.602 33.918C233.997 33.918 234.319 34.0498 234.568 34.3135C234.817 34.5625 234.942 34.8848 234.942 35.2803L234.942 56.6597C234.942 57.0552 234.817 57.3774 234.568 57.6265C234.319 57.8755 233.997 58 233.602 58L228.702 58C228.306 58 227.977 57.8755 227.713 57.6265C227.464 57.3774 227.339 57.0552 227.339 56.6597Z" fill="rgb(0,0,0)" fill-rule="evenodd" />
	<path id="Ex mini black (color) 15" d="M174.078 37.895L174.078 35.2803C174.078 34.8848 174.203 34.5625 174.452 34.3135C174.715 34.0498 175.045 33.918 175.44 33.918L197.083 33.918C197.479 33.918 197.801 34.0498 198.05 34.3135C198.299 34.5625 198.424 34.8848 198.424 35.2803L198.424 37.895C198.424 38.2759 198.299 38.5981 198.05 38.8618C197.801 39.1108 197.479 39.2354 197.083 39.2354L190.074 39.2354L190.074 56.6597C190.074 57.0405 189.942 57.3628 189.679 57.6265C189.43 57.8755 189.107 58 188.712 58L183.812 58C183.417 58 183.087 57.8755 182.823 57.6265C182.574 57.3628 182.45 57.0405 182.45 56.6597L182.45 39.2354L175.44 39.2354C175.045 39.2354 174.715 39.1108 174.452 38.8618C174.203 38.5981 174.078 38.2759 174.078 37.895Z" fill="rgb(0,0,0)" fill-rule="evenodd" />
	<path id="Ex mini black (color) 15" d="M174.078 37.895L174.078 35.2803C174.078 34.8848 174.203 34.5625 174.452 34.3135C174.715 34.0498 175.045 33.918 175.44 33.918L197.083 33.918C197.479 33.918 197.801 34.0498 198.05 34.3135C198.299 34.5625 198.424 34.8848 198.424 35.2803L198.424 37.895C198.424 38.2759 198.299 38.5981 198.05 38.8618C197.801 39.1108 197.479 39.2354 197.083 39.2354L190.074 39.2354L190.074 56.6597C190.074 57.0405 189.942 57.3628 189.679 57.6265C189.43 57.8755 189.107 58 188.712 58L183.812 58C183.417 58 183.087 57.8755 182.823 57.6265C182.574 57.3628 182.45 57.0405 182.45 56.6597L182.45 39.2354L175.44 39.2354C175.045 39.2354 174.715 39.1108 174.452 38.8618C174.203 38.5981 174.078 38.2759 174.078 37.895Z" fill="rgb(0,0,0)" fill-rule="evenodd" />
	<path id="Ex mini black (color) 15" d="M148.963 56.418C147.029 55.0703 146.062 53.166 146.062 50.7051C146.062 48.2441 147.029 46.3545 148.963 45.0361C150.911 43.7178 153.416 43.0586 156.478 43.0586L163.75 43.0586C163.75 41.3447 163.392 40.1509 162.674 39.4771C161.956 38.8032 160.696 38.4663 158.895 38.4663C157.107 38.4663 155.848 38.9131 155.115 39.8066C154.397 40.6855 153.511 41.125 152.457 41.125L149.183 41.125C148.787 41.125 148.458 41.0005 148.194 40.7515C147.945 40.4878 147.82 40.1655 147.82 39.7847C147.82 35.5806 151.812 33.4785 159.795 33.4785C163.282 33.4785 166.08 34.2622 168.189 35.8296C170.298 37.3823 171.353 39.792 171.353 43.0586L171.353 56.6597C171.353 57.0552 171.229 57.3774 170.979 57.6265C170.73 57.8755 170.408 58 170.013 58L165.772 58C165.376 58 165.054 57.8755 164.805 57.6265C164.556 57.3628 164.432 57.0405 164.432 56.6597L164.432 55.9785C162.117 57.6338 159.444 58.4541 156.412 58.4395C153.394 58.4395 150.911 57.7656 148.963 56.418ZM157.005 48.0464C155.979 48.0464 155.167 48.2954 154.566 48.7935C153.98 49.2915 153.687 49.936 153.687 50.7271C153.687 51.5181 153.995 52.1699 154.61 52.6826C155.225 53.1953 156.097 53.4517 157.225 53.4517C159.48 53.4517 161.656 52.7925 163.75 51.4741L163.75 48.0464L157.005 48.0464Z" fill="rgb(0,0,0)" fill-rule="evenodd" />
	<path id="Ex mini black (color) 15" d="M148.963 56.418C147.029 55.0703 146.062 53.166 146.062 50.7051C146.062 48.2441 147.029 46.3545 148.963 45.0361C150.911 43.7178 153.416 43.0586 156.478 43.0586L163.75 43.0586C163.75 41.3447 163.392 40.1509 162.674 39.4771C161.956 38.8032 160.696 38.4663 158.895 38.4663C157.107 38.4663 155.848 38.9131 155.115 39.8066C154.397 40.6855 153.511 41.125 152.457 41.125L149.183 41.125C148.787 41.125 148.458 41.0005 148.194 40.7515C147.945 40.4878 147.82 40.1655 147.82 39.7847C147.82 35.5806 151.812 33.4785 159.795 33.4785C163.282 33.4785 166.08 34.2622 168.189 35.8296C170.298 37.3823 171.353 39.792 171.353 43.0586L171.353 56.6597C171.353 57.0552 171.229 57.3774 170.979 57.6265C170.73 57.8755 170.408 58 170.013 58L165.772 58C165.376 58 165.054 57.8755 164.805 57.6265C164.556 57.3628 164.432 57.0405 164.432 56.6597L164.432 55.9785C162.117 57.6338 159.444 58.4541 156.412 58.4395C153.394 58.4395 150.911 57.7656 148.963 56.418ZM157.005 48.0464C155.979 48.0464 155.167 48.2954 154.566 48.7935C153.98 49.2915 153.687 49.936 153.687 50.7271C153.687 51.5181 153.995 52.1699 154.61 52.6826C155.225 53.1953 156.097 53.4517 157.225 53.4517C159.48 53.4517 161.656 52.7925 163.75 51.4741L163.75 48.0464L157.005 48.0464Z" fill="rgb(0,0,0)" fill-rule="evenodd" />
	<path id="Ex mini black (color) 15" d="M109.543 56.6597L109.543 35.2803C109.543 34.8848 109.667 34.5625 109.917 34.3135C110.18 34.0498 110.502 33.918 110.883 33.918L118.442 33.918C119.306 33.918 119.965 34.46 120.419 35.5439L125.781 48.6396L131.142 35.5439C131.596 34.46 132.255 33.918 133.12 33.918L140.678 33.918C141.074 33.918 141.396 34.0498 141.645 34.3135C141.909 34.5625 142.041 34.8848 142.041 35.2803L142.041 56.6597C142.041 57.0552 141.909 57.3774 141.645 57.6265C141.396 57.8755 141.074 58 140.678 58L135.91 58C135.515 58 135.192 57.8755 134.943 57.6265C134.694 57.3628 134.57 57.0405 134.57 56.6597L134.57 42.9268L128.945 56.4619C128.491 57.4873 127.795 58 126.857 58L124.704 58C123.781 58 123.093 57.4873 122.639 56.4619L117.014 42.9268L117.014 56.6597C117.014 57.0552 116.882 57.3774 116.618 57.6265C116.369 57.8755 116.047 58 115.651 58L110.883 58C110.488 58 110.166 57.8755 109.917 57.6265C109.667 57.3774 109.543 57.0552 109.543 56.6597Z" fill="rgb(0,0,0)" fill-rule="evenodd" />
	<path id="Ex mini black (color) 15" d="M109.543 56.6597L109.543 35.2803C109.543 34.8848 109.667 34.5625 109.917 34.3135C110.18 34.0498 110.502 33.918 110.883 33.918L118.442 33.918C119.306 33.918 119.965 34.46 120.419 35.5439L125.781 48.6396L131.142 35.5439C131.596 34.46 132.255 33.918 133.12 33.918L140.678 33.918C141.074 33.918 141.396 34.0498 141.645 34.3135C141.909 34.5625 142.041 34.8848 142.041 35.2803L142.041 56.6597C142.041 57.0552 141.909 57.3774 141.645 57.6265C141.396 57.8755 141.074 58 140.678 58L135.91 58C135.515 58 135.192 57.8755 134.943 57.6265C134.694 57.3628 134.57 57.0405 134.57 56.6597L134.57 42.9268L128.945 56.4619C128.491 57.4873 127.795 58 126.857 58L124.704 58C123.781 58 123.093 57.4873 122.639 56.4619L117.014 42.9268L117.014 56.6597C117.014 57.0552 116.882 57.3774 116.618 57.6265C116.369 57.8755 116.047 58 115.651 58L110.883 58C110.488 58 110.166 57.8755 109.917 57.6265C109.667 57.3774 109.543 57.0552 109.543 56.6597Z" fill="rgb(0,0,0)" fill-rule="evenodd" />
	<path id="Ex mini black (color) 15" d="M79.5293 57.3188C79.4707 57.1724 79.4414 56.9966 79.4414 56.7915C79.4414 56.5718 79.5586 56.3301 79.793 56.0664L87.4395 45.937L80.2983 35.8516C79.8296 35.2363 79.8003 34.6943 80.2104 34.2256C80.3862 34.0205 80.6353 33.918 80.9575 33.918L85.7256 33.918C87.1465 33.918 88.2891 34.5625 89.1533 35.8516L92.8008 41.3887L96.4482 35.8516C97.3125 34.5625 98.4551 33.918 99.876 33.918L104.644 33.918C104.966 33.918 105.215 34.0205 105.391 34.2256C105.801 34.6943 105.772 35.2363 105.303 35.8516L98.1621 45.937L105.809 56.0664C106.043 56.3301 106.16 56.5791 106.16 56.8135C106.16 57.0332 106.131 57.2017 106.072 57.3188C105.955 57.7729 105.64 58 105.127 58L100.447 58C99.0996 58 97.957 57.3555 97.0195 56.0664L92.8008 50.3535L88.5601 56.0664C87.6372 57.3555 86.502 58 85.1543 58L80.4741 58C79.9614 58 79.6465 57.7729 79.5293 57.3188Z" fill="rgb(0,0,0)" fill-rule="evenodd" />
	<path id="Ex mini black (color) 15" d="M79.5293 57.3188C79.4707 57.1724 79.4414 56.9966 79.4414 56.7915C79.4414 56.5718 79.5586 56.3301 79.793 56.0664L87.4395 45.937L80.2983 35.8516C79.8296 35.2363 79.8003 34.6943 80.2104 34.2256C80.3862 34.0205 80.6353 33.918 80.9575 33.918L85.7256 33.918C87.1465 33.918 88.2891 34.5625 89.1533 35.8516L92.8008 41.3887L96.4482 35.8516C97.3125 34.5625 98.4551 33.918 99.876 33.918L104.644 33.918C104.966 33.918 105.215 34.0205 105.391 34.2256C105.801 34.6943 105.772 35.2363 105.303 35.8516L98.1621 45.937L105.809 56.0664C106.043 56.3301 106.16 56.5791 106.16 56.8135C106.16 57.0332 106.131 57.2017 106.072 57.3188C105.955 57.7729 105.64 58 105.127 58L100.447 58C99.0996 58 97.957 57.3555 97.0195 56.0664L92.8008 50.3535L88.5601 56.0664C87.6372 57.3555 86.502 58 85.1543 58L80.4741 58C79.9614 58 79.6465 57.7729 79.5293 57.3188Z" fill="rgb(0,0,0)" fill-rule="evenodd" />
	<path id="Ex mini black (color) 15" d="M53.6465 56.418C51.7129 55.0703 50.7461 53.166 50.7461 50.7051C50.7461 48.2441 51.7129 46.3545 53.6465 45.0361C55.5947 43.7178 58.0996 43.0586 61.1611 43.0586L68.4341 43.0586C68.4341 41.3447 68.0752 40.1509 67.3574 39.4771C66.6396 38.8032 65.3799 38.4663 63.5781 38.4663C61.791 38.4663 60.5312 38.9131 59.7988 39.8066C59.0811 40.6855 58.1948 41.125 57.1401 41.125L53.8662 41.125C53.4707 41.125 53.1411 41.0005 52.8774 40.7515C52.6284 40.4878 52.5039 40.1655 52.5039 39.7847C52.5039 35.5806 56.4956 33.4785 64.479 33.4785C67.9653 33.4785 70.7632 34.2622 72.8726 35.8296C74.9819 37.3823 76.0366 39.792 76.0366 43.0586L76.0366 56.6597C76.0366 57.0552 75.9121 57.3774 75.6631 57.6265C75.4141 57.8755 75.0918 58 74.6963 58L70.4556 58C70.0601 58 69.7378 57.8755 69.4888 57.6265C69.2397 57.3628 69.1152 57.0405 69.1152 56.6597L69.1152 55.9785C66.8008 57.6338 64.1274 58.4541 61.0952 58.4395C58.0776 58.4395 55.5947 57.7656 53.6465 56.418ZM61.6885 48.0464C60.6631 48.0464 59.8501 48.2954 59.2495 48.7935C58.6636 49.2915 58.3706 49.936 58.3706 50.7271C58.3706 51.5181 58.6782 52.1699 59.2935 52.6826C59.9087 53.1953 60.7803 53.4517 61.9082 53.4517C64.1641 53.4517 66.3394 52.7925 68.4341 51.4741L68.4341 48.0464L61.6885 48.0464Z" fill="rgb(0,0,0)" fill-rule="evenodd" />
	<path id="Ex mini black (color) 15" d="M53.6465 56.418C51.7129 55.0703 50.7461 53.166 50.7461 50.7051C50.7461 48.2441 51.7129 46.3545 53.6465 45.0361C55.5947 43.7178 58.0996 43.0586 61.1611 43.0586L68.4341 43.0586C68.4341 41.3447 68.0752 40.1509 67.3574 39.4771C66.6396 38.8032 65.3799 38.4663 63.5781 38.4663C61.791 38.4663 60.5312 38.9131 59.7988 39.8066C59.0811 40.6855 58.1948 41.125 57.1401 41.125L53.8662 41.125C53.4707 41.125 53.1411 41.0005 52.8774 40.7515C52.6284 40.4878 52.5039 40.1655 52.5039 39.7847C52.5039 35.5806 56.4956 33.4785 64.479 33.4785C67.9653 33.4785 70.7632 34.2622 72.8726 35.8296C74.9819 37.3823 76.0366 39.792 76.0366 43.0586L76.0366 56.6597C76.0366 57.0552 75.9121 57.3774 75.6631 57.6265C75.4141 57.8755 75.0918 58 74.6963 58L70.4556 58C70.0601 58 69.7378 57.8755 69.4888 57.6265C69.2397 57.3628 69.1152 57.0405 69.1152 56.6597L69.1152 55.9785C66.8008 57.6338 64.1274 58.4541 61.0952 58.4395C58.0776 58.4395 55.5947 57.7656 53.6465 56.418ZM61.6885 48.0464C60.6631 48.0464 59.8501 48.2954 59.2495 48.7935C58.6636 49.2915 58.3706 49.936 58.3706 50.7271C58.3706 51.5181 58.6782 52.1699 59.2935 52.6826C59.9087 53.1953 60.7803 53.4517 61.9082 53.4517C64.1641 53.4517 66.3394 52.7925 68.4341 51.4741L68.4341 48.0464L61.6885 48.0464Z" fill="rgb(0,0,0)" fill-rule="evenodd" />
	<path id="Ex mini black (color) 15" d="M2.14062 55.9346L2.14062 28.5786C2.14062 28.0073 2.3457 27.5166 2.75586 27.1064C3.16602 26.6963 3.65674 26.4912 4.22803 26.4912L8.35889 26.4912C8.93018 26.4912 9.41357 26.689 9.80908 27.0845C10.2192 27.48 10.4243 27.9634 10.4243 28.5347L10.4243 51.7817L20.0483 51.7817L20.0483 28.5347C20.0483 27.9634 20.2534 27.48 20.6636 27.0845C21.0737 26.689 21.5645 26.4912 22.1357 26.4912L26.2666 26.4912C26.8379 26.4912 27.3213 26.6963 27.7168 27.1064C28.127 27.5166 28.332 28.0073 28.332 28.5786L28.332 51.7817L37.978 51.7817L37.978 28.5347C37.978 27.9634 38.1758 27.48 38.5713 27.0845C38.9814 26.689 39.4722 26.4912 40.0435 26.4912L44.1743 26.4912C44.7456 26.4912 45.229 26.6963 45.6245 27.1064C46.0347 27.5166 46.2397 28.0073 46.2397 28.5786L46.2397 55.9346C46.2397 56.5059 46.0347 56.9966 45.6245 57.4067C45.229 57.8022 44.7456 58 44.1743 58L4.22803 58C3.65674 58 3.16602 57.8022 2.75586 57.4067C2.3457 56.9966 2.14062 56.5059 2.14062 55.9346Z" fill="rgb(0,0,0)" fill-rule="evenodd" />
	<path id="Ex mini black (color) 15" d="M2.14062 55.9346L2.14062 28.5786C2.14062 28.0073 2.3457 27.5166 2.75586 27.1064C3.16602 26.6963 3.65674 26.4912 4.22803 26.4912L8.35889 26.4912C8.93018 26.4912 9.41357 26.689 9.80908 27.0845C10.2192 27.48 10.4243 27.9634 10.4243 28.5347L10.4243 51.7817L20.0483 51.7817L20.0483 28.5347C20.0483 27.9634 20.2534 27.48 20.6636 27.0845C21.0737 26.689 21.5645 26.4912 22.1357 26.4912L26.2666 26.4912C26.8379 26.4912 27.3213 26.6963 27.7168 27.1064C28.127 27.5166 28.332 28.0073 28.332 28.5786L28.332 51.7817L37.978 51.7817L37.978 28.5347C37.978 27.9634 38.1758 27.48 38.5713 27.0845C38.9814 26.689 39.4722 26.4912 40.0435 26.4912L44.1743 26.4912C44.7456 26.4912 45.229 26.6963 45.6245 27.1064C46.0347 27.5166 46.2397 28.0073 46.2397 28.5786L46.2397 55.9346C46.2397 56.5059 46.0347 56.9966 45.6245 57.4067C45.229 57.8022 44.7456 58 44.1743 58L4.22803 58C3.65674 58 3.16602 57.8022 2.75586 57.4067C2.3457 56.9966 2.14062 56.5059 2.14062 55.9346Z" fill="rgb(0,0,0)" fill-rule="evenodd" />
	<path id="Ex mini black (color) 15" d="M1.99973 14.6819L0.526579 11.781C-0.595237 9.57198 0.118629 6.812 2.25602 5.67273C20.7254 -4.17183 38.1704 0.737068 47.1443 5.87485C48.9946 6.93423 49.5103 9.23057 48.4692 11.1422C47.933 12.1266 47.2503 13.3663 46.3912 14.9085C45.1375 17.1592 42.3767 17.8996 40.1214 16.7761C29.1587 11.315 19.5645 11.3085 8.32315 16.7567C6.00579 17.8799 3.1939 17.0335 1.99973 14.6819Z" fill="rgb(0,0,0)" fill-rule="nonzero" />
	<path id="Ex mini black (color) 15" d="M1.99973 14.6819L0.526579 11.781C-0.595237 9.57198 0.118629 6.812 2.25602 5.67273C20.7254 -4.17183 38.1704 0.737068 47.1443 5.87485C48.9946 6.93423 49.5103 9.23057 48.4692 11.1422C47.933 12.1266 47.2503 13.3663 46.3912 14.9085C45.1375 17.1592 42.3767 17.8996 40.1214 16.7761C29.1587 11.315 19.5645 11.3085 8.32315 16.7567C6.00579 17.8799 3.1939 17.0335 1.99973 14.6819Z" fill="rgb(111,90,76)" fill-rule="nonzero" />
</svg>
