<svg viewBox="0 0 429.792 124.23" xmlns="http://www.w3.org/2000/svg" xmlns:xlink="http://www.w3.org/1999/xlink" width="429.792480" height="124.229980" fill="none" customFrame="#000000">
	<rect id="Ex max white 11" width="429.792480" height="124.229980" x="0.000000" y="0.000000" fill="rgb(255,255,255)" fill-opacity="0" />
	<path id="Ex max white 11" d="M3.87703 28.0155L1.02092 22.4802C0.331835 21.1446 0 19.7036 0 18.2889C0 15.2382 1.5429 12.3097 4.37392 10.8245C40.1818 -7.96054 74.0038 1.40645 91.4021 11.2102C93.7599 12.5388 95 14.8869 95 17.3762C95 18.6743 94.6627 20.0108 93.9708 21.2611C92.9314 23.1395 91.6076 25.505 89.942 28.4479C87.5114 32.7426 82.1589 34.1553 77.7864 32.0115C56.5322 21.5908 37.9312 21.5785 16.1367 31.9746C11.6439 34.1177 6.19225 32.5026 3.87703 28.0155ZM38.2974 54.0933L38.2974 49.0688Q38.2974 48.0605 38.6625 47.2086Q39.0213 46.3712 39.7329 45.6851Q40.3656 45.0524 41.1277 44.6986Q42.0949 44.2495 43.2705 44.2495L52.7041 44.2495Q53.9353 44.2495 54.9203 44.742Q55.6169 45.0903 56.1904 45.6851Q56.902 46.3712 57.2609 47.2086Q57.626 48.0605 57.626 49.0688L57.626 54.0933Q75.1602 54.0933 85.5166 61.3223Q88.1434 63.1428 90.104 65.5143L90.1041 65.5144Q95.873 72.4924 95.873 84.2397Q95.873 95.9736 90.1173 102.978Q88.1524 105.369 85.5166 107.208Q75.1602 114.386 57.626 114.386L57.626 119.411Q57.626 120.361 57.2903 121.172Q56.9195 122.068 56.1392 122.794Q55.3841 123.549 54.473 123.907Q53.6519 124.23 52.7041 124.23L43.2705 124.23Q42.3884 124.23 41.606 123.951Q40.615 123.597 39.7842 122.794Q39.0038 122.068 38.633 121.172Q38.2974 120.361 38.2974 119.411L38.2974 114.386Q20.7632 114.386 10.4067 107.208Q7.82963 105.401 5.89701 103.061L5.89692 103.06Q0.101563 96.0432 0.101563 84.2397Q0.101563 72.4231 5.90989 65.4322Q7.83825 63.1113 10.4067 61.3223Q20.7632 54.0933 38.2974 54.0933ZM171.035 106.593Q171.035 105.632 171.455 104.919Q171.64 104.604 171.907 104.337Q172.286 103.979 172.734 103.768Q173.377 103.466 174.163 103.466L181.853 103.466Q183.14 103.466 184.218 103.941Q186.059 104.753 187.288 106.952Q187.662 107.596 188.163 108.119Q190.334 110.387 194.875 110.387L205.283 110.387Q209.725 110.387 211.513 108.209Q212.717 106.742 212.717 104.286Q212.717 101.827 211.509 100.367Q209.721 98.2057 205.283 98.2363L192.568 98.2363Q191.659 98.2363 190.949 97.8604Q190.578 97.6639 190.261 97.3647Q189.962 97.048 189.766 96.6769Q189.39 95.9667 189.39 95.0576L189.39 89.7256Q189.39 88.7648 189.81 88.051Q189.995 87.7363 190.261 87.4697Q190.63 87.1006 191.073 86.8791Q191.738 86.5469 192.568 86.5469L204.309 86.5469Q207.693 86.5469 209.385 85.0601Q210.058 84.4659 210.471 83.7264Q211.128 82.5515 211.128 81.0098Q211.128 79.468 210.471 78.2931Q210.058 77.5536 209.385 76.9595Q207.693 75.4214 204.309 75.4214L194.875 75.4214Q193.081 75.4214 191.184 76.3442Q189.859 76.9531 189.009 77.9622L189.009 77.9626Q188.642 78.3979 188.364 78.9077Q187.093 81.1239 185.221 81.9106Q184.149 82.3615 182.878 82.3428L175.239 82.3428Q174.33 82.3428 173.62 81.9668Q173.249 81.7703 172.932 81.4712Q172.666 81.2046 172.48 80.89Q172.061 80.1761 172.061 79.2153Q172.061 76.7695 172.899 74.6564Q174.434 70.7902 178.777 68.0386Q185.544 63.7832 195.081 63.7832L205.386 63.7832Q216.204 63.7832 222.51 67.7822Q225.158 69.4269 226.703 71.7923Q228.867 75.1047 228.867 79.8306Q228.867 83.8255 227.084 86.7232Q225.251 89.7011 221.536 91.52Q226.207 93.8823 228.432 97.6784Q230.457 101.132 230.457 105.773Q230.457 111.546 227.673 115.196Q226.353 116.927 224.407 118.18Q218.408 122.025 206.514 122.025L195.081 122.025Q184.775 122.025 177.905 117.821Q173.502 115.127 171.921 111.275Q171.035 109.116 171.035 106.593ZM377.549 117.309Q374.506 115.188 372.831 112.279Q370.781 108.719 370.781 103.979Q370.781 99.1772 372.884 95.6186Q374.554 92.7931 377.549 90.751Q384.368 86.1367 395.083 86.1367L412.053 86.1367Q412.053 80.1382 409.541 77.7798Q407.029 75.4214 400.723 75.4214Q394.553 75.4214 391.975 78.4644Q391.948 78.4962 391.921 78.5284L391.904 78.5488Q390.4 80.3912 388.472 81.1302Q387.181 81.625 385.701 81.625L378.062 81.625Q377.152 81.625 376.442 81.2491Q376.071 81.0526 375.754 80.7534Q375.396 80.3744 375.185 79.9261Q374.883 79.283 374.883 78.4976Q374.883 75.303 376.2 72.802Q380.949 63.7832 402.825 63.7832Q415.027 63.7832 422.41 69.269Q424.197 70.5847 425.552 72.2519Q429.792 77.4715 429.792 86.1367L429.792 117.873Q429.792 118.833 429.373 119.547Q429.187 119.862 428.921 120.128Q428.654 120.395 428.34 120.58Q427.626 121 426.665 121L416.77 121Q415.809 121 415.095 120.58Q414.781 120.395 414.514 120.128Q414.156 119.749 413.945 119.301Q413.643 118.658 413.643 117.873L413.643 116.283Q410.938 118.217 407.954 119.5Q401.999 122.06 394.929 122.025Q384.368 122.025 377.549 117.309ZM104.281 117.873L104.281 67.9873Q104.281 67.0265 104.701 66.3127L104.701 66.3124Q104.886 65.9979 105.153 65.7314Q105.581 65.3034 106.097 65.0738Q106.694 64.8086 107.409 64.8086L118.124 64.8086Q119.006 64.8086 119.679 65.1828Q120.063 65.3963 120.38 65.7314Q120.715 66.048 120.929 66.4322Q121.303 67.1058 121.303 67.9873L121.303 101.671L139.35 68.5Q139.487 68.2333 139.649 67.9825L139.65 67.981Q140.455 66.7381 141.862 65.8853Q143.554 64.8086 145.143 64.8086L159.499 64.8086Q160.38 64.8086 161.054 65.1828Q161.438 65.3963 161.754 65.7314Q162.09 66.048 162.303 66.4322Q162.677 67.1058 162.677 67.9873L162.677 117.873Q162.677 118.754 162.303 119.428Q162.09 119.812 161.754 120.128Q161.488 120.395 161.173 120.58Q160.459 121 159.499 121L148.783 121Q147.822 121 147.109 120.58Q146.794 120.395 146.527 120.128Q146.169 119.749 145.958 119.301Q145.656 118.658 145.656 117.873L145.656 84.2397L127.609 117.309Q126.789 118.795 125.097 119.923Q123.405 121 121.815 121L107.409 121Q106.448 121 105.734 120.58L105.734 120.58Q105.419 120.395 105.153 120.128Q104.886 119.862 104.701 119.547L104.701 119.547Q104.281 118.833 104.281 117.873ZM239.43 117.873L239.43 67.9873Q239.43 67.0265 239.85 66.3127Q240.035 65.998 240.301 65.7314Q240.729 65.3033 241.246 65.0738Q241.843 64.8086 242.557 64.8086L253.272 64.8086Q254.154 64.8086 254.828 65.1828Q255.212 65.3963 255.528 65.7314Q255.864 66.048 256.077 66.4322Q256.451 67.1058 256.451 67.9873L256.451 101.671L274.498 68.5Q274.636 68.2325 274.799 67.981Q275.603 66.7381 277.01 65.8853Q278.702 64.8086 280.292 64.8086L294.647 64.8086Q295.528 64.8086 296.202 65.1828Q296.586 65.3964 296.903 65.7314Q297.238 66.0479 297.451 66.4322Q297.826 67.1058 297.826 67.9873L297.826 117.873Q297.826 118.754 297.451 119.428Q297.238 119.812 296.903 120.128Q296.636 120.395 296.322 120.58Q295.608 121 294.647 121L283.932 121Q282.971 121 282.257 120.58Q281.942 120.395 281.676 120.128Q281.318 119.749 281.107 119.301Q280.804 118.658 280.804 117.873L280.804 84.2397L262.757 117.309Q261.937 118.795 260.245 119.923Q258.553 121 256.964 121L242.557 121Q241.596 121 240.883 120.58Q240.568 120.395 240.301 120.128Q240.035 119.862 239.85 119.547Q239.43 118.833 239.43 117.873ZM367.04 118.744Q367.04 119.685 366.575 120.234Q365.927 121 364.374 121L354.684 121Q352.904 121 351.386 120.37Q348.705 119.258 346.839 116.181L340.328 105.568Q338.219 102.147 335.155 100.442Q332.112 98.749 328.126 98.749L328.126 117.873Q328.126 118.754 327.752 119.428Q327.538 119.812 327.203 120.128Q326.883 120.449 326.5 120.651Q325.842 121 324.999 121L313.514 121Q312.553 121 311.84 120.58Q311.525 120.395 311.258 120.128Q310.992 119.862 310.807 119.547Q310.387 118.833 310.387 117.873L310.387 67.9873Q310.387 67.0265 310.807 66.3127Q310.992 65.998 311.258 65.7314Q311.686 65.3033 312.203 65.0738Q312.8 64.8086 313.514 64.8086L324.999 64.8086Q325.88 64.8086 326.554 65.1828Q326.938 65.3964 327.254 65.7314Q327.521 65.998 327.706 66.3127Q328.126 67.0265 328.126 67.9873L328.126 87.0596Q333.756 87.0596 337.14 84.3023Q339.118 82.691 340.328 80.1382L345.25 69.6792Q345.804 68.4888 346.641 67.5524Q347.355 66.7547 348.275 66.1416Q349.516 65.3141 350.876 65.0003Q351.707 64.8086 352.582 64.8086L362.271 64.8086Q363.865 64.8086 364.468 65.5815Q364.835 66.0518 364.835 66.8081Q364.835 67.936 364.015 69.6792L357.401 83.6245Q356.498 85.4849 355.245 87.0679Q354.15 88.4514 352.787 89.623Q350.097 91.9351 347.016 92.7273Q346.75 92.7959 346.48 92.853Q346.551 92.8741 346.62 92.8959Q352.838 94.8315 357.401 102.082L366.117 116.181Q366.988 117.667 367.04 118.744ZM38.8613 100.543L38.8613 67.9873Q29.8379 67.9873 24.6084 72.0376Q23.4443 72.9366 22.5418 74.0482Q19.4302 77.8808 19.4302 84.2397Q19.4302 90.5822 22.5257 94.4421Q23.4339 95.5745 24.6084 96.4932Q29.8379 100.543 38.8613 100.543ZM57.1133 100.543Q66.1367 100.543 71.3149 96.4932Q72.5495 95.537 73.4926 94.3494Q76.5444 90.5063 76.5444 84.2397Q76.5444 77.9562 73.476 74.1394Q72.5387 72.9734 71.3149 72.0376Q66.1367 67.9873 57.1133 67.9873L57.1133 100.543ZM396.313 97.7749Q392.725 97.7749 390.623 99.5181Q389.679 100.32 389.17 101.339Q388.572 102.535 388.572 104.03Q388.572 105.367 389.074 106.476Q389.611 107.665 390.725 108.593Q392.878 110.387 396.826 110.387Q398.452 110.387 400.053 110.192L400.056 110.191Q406.232 109.436 412.053 105.773L412.053 97.7749L396.313 97.7749Z" fill="rgb(255,255,255)" fill-rule="evenodd" />
</svg>
