<svg viewBox="0 0 429.793 124.23" xmlns="http://www.w3.org/2000/svg" xmlns:xlink="http://www.w3.org/1999/xlink" width="429.792969" height="124.229980" fill="none" customFrame="#000000">
	<rect id="Ex max black (color) 11" width="429.792480" height="124.229980" x="0.000000" y="0.000000" fill="rgb(255,255,255)" fill-opacity="0" />
	<path id="Ex max black (color) 11" d="M3.87703 28.0155L1.02092 22.4802C-1.15403 18.2649 0.229996 12.9984 4.37392 10.8245C40.1818 -7.96054 74.0038 1.40645 91.4021 11.2102C94.9895 13.2316 95.9894 17.6134 93.9708 21.2611C92.9314 23.1395 91.6076 25.505 89.942 28.4479C87.5114 32.7426 82.1589 34.1553 77.7864 32.0115C56.5322 21.5908 37.9312 21.5785 16.1367 31.9746C11.6439 34.1177 6.19225 32.5026 3.87703 28.0155Z" fill="rgb(76,57,178)" fill-rule="evenodd" />
	<path id="Ex max black (color) 11" d="M377.549 117.309C373.037 114.164 370.781 109.721 370.781 103.979C370.781 98.2363 373.037 93.8271 377.549 90.751C382.095 87.6748 387.939 86.1367 395.083 86.1367L412.053 86.1367C412.053 82.1377 411.216 79.3521 409.541 77.7798C407.866 76.2075 404.927 75.4214 400.723 75.4214C396.553 75.4214 393.613 76.4639 391.904 78.5488C390.229 80.5996 388.162 81.625 385.701 81.625L378.062 81.625C377.139 81.625 376.37 81.3345 375.754 80.7534C375.173 80.1382 374.883 79.3862 374.883 78.4976C374.883 68.688 384.197 63.7832 402.825 63.7832C410.959 63.7832 417.488 65.6118 422.41 69.269C427.332 72.8921 429.792 78.5146 429.792 86.1367L429.792 117.873C429.792 118.795 429.502 119.547 428.921 120.128C428.34 120.709 427.588 121 426.665 121L416.77 121C415.847 121 415.095 120.709 414.514 120.128C413.933 119.513 413.643 118.761 413.643 117.873L413.643 116.283C408.242 120.146 402.004 122.06 394.929 122.025C387.888 122.025 382.095 120.453 377.549 117.309ZM396.313 97.7749C393.921 97.7749 392.024 98.356 390.623 99.5181C389.255 100.68 388.572 102.184 388.572 104.03C388.572 105.875 389.29 107.396 390.725 108.593C392.161 109.789 394.194 110.387 396.826 110.387C402.09 110.387 407.166 108.849 412.053 105.773L412.053 97.7749L396.313 97.7749Z" fill="rgb(76,57,178)" fill-rule="nonzero" />
	<path id="Ex max black (color) 11" d="M377.549 117.309C373.037 114.164 370.781 109.721 370.781 103.979C370.781 98.2363 373.037 93.8271 377.549 90.751C382.095 87.6748 387.939 86.1367 395.083 86.1367L412.053 86.1367C412.053 82.1377 411.216 79.3521 409.541 77.7798C407.866 76.2075 404.927 75.4214 400.723 75.4214C396.553 75.4214 393.613 76.4639 391.904 78.5488C390.229 80.5996 388.162 81.625 385.701 81.625L378.062 81.625C377.139 81.625 376.37 81.3345 375.754 80.7534C375.173 80.1382 374.883 79.3862 374.883 78.4976C374.883 68.688 384.197 63.7832 402.825 63.7832C410.959 63.7832 417.488 65.6118 422.41 69.269C427.332 72.8921 429.792 78.5146 429.792 86.1367L429.792 117.873C429.792 118.795 429.502 119.547 428.921 120.128C428.34 120.709 427.588 121 426.665 121L416.77 121C415.847 121 415.095 120.709 414.514 120.128C413.933 119.513 413.643 118.761 413.643 117.873L413.643 116.283C408.242 120.146 402.004 122.06 394.929 122.025C387.888 122.025 382.095 120.453 377.549 117.309ZM396.313 97.7749C393.921 97.7749 392.024 98.356 390.623 99.5181C389.255 100.68 388.572 102.184 388.572 104.03C388.572 105.875 389.29 107.396 390.725 108.593C392.161 109.789 394.194 110.387 396.826 110.387C402.09 110.387 407.166 108.849 412.053 105.773L412.053 97.7749L396.313 97.7749Z" fill="rgb(0,0,0)" fill-rule="nonzero" />
	<path id="Ex max black (color) 11" d="M367.04 118.744C367.04 120.248 366.151 121 364.374 121L354.684 121C351.402 121 348.788 119.394 346.839 116.181L340.328 105.568C337.525 101.022 333.458 98.749 328.126 98.749L328.126 117.873C328.126 118.795 327.818 119.547 327.203 120.128C326.622 120.709 325.887 121 324.999 121L313.514 121C312.591 121 311.839 120.709 311.258 120.128C310.677 119.547 310.387 118.795 310.387 117.873L310.387 67.9873C310.387 67.0645 310.677 66.3125 311.258 65.7314C311.874 65.1162 312.625 64.8086 313.514 64.8086L324.999 64.8086C325.921 64.8086 326.673 65.1162 327.254 65.7314C327.835 66.3125 328.126 67.0645 328.126 67.9873L328.126 87.0596C334.073 87.0596 338.141 84.7524 340.328 80.1382L345.25 69.6792C345.934 68.2095 346.942 67.0303 348.275 66.1416C349.608 65.2529 351.043 64.8086 352.582 64.8086L362.271 64.8086C363.98 64.8086 364.835 65.4751 364.835 66.8081C364.835 67.5601 364.562 68.5171 364.015 69.6792L357.401 83.6245C356.273 85.9487 354.735 87.9482 352.787 89.623C350.838 91.2979 348.736 92.3745 346.48 92.853C350.685 94.1177 354.325 97.1938 357.401 102.082L366.117 116.181C366.698 117.172 367.005 118.026 367.04 118.744Z" fill="rgb(76,57,178)" fill-rule="nonzero" />
	<path id="Ex max black (color) 11" d="M367.04 118.744C367.04 120.248 366.151 121 364.374 121L354.684 121C351.402 121 348.788 119.394 346.839 116.181L340.328 105.568C337.525 101.022 333.458 98.749 328.126 98.749L328.126 117.873C328.126 118.795 327.818 119.547 327.203 120.128C326.622 120.709 325.887 121 324.999 121L313.514 121C312.591 121 311.839 120.709 311.258 120.128C310.677 119.547 310.387 118.795 310.387 117.873L310.387 67.9873C310.387 67.0645 310.677 66.3125 311.258 65.7314C311.874 65.1162 312.625 64.8086 313.514 64.8086L324.999 64.8086C325.921 64.8086 326.673 65.1162 327.254 65.7314C327.835 66.3125 328.126 67.0645 328.126 67.9873L328.126 87.0596C334.073 87.0596 338.141 84.7524 340.328 80.1382L345.25 69.6792C345.934 68.2095 346.942 67.0303 348.275 66.1416C349.608 65.2529 351.043 64.8086 352.582 64.8086L362.271 64.8086C363.98 64.8086 364.835 65.4751 364.835 66.8081C364.835 67.5601 364.562 68.5171 364.015 69.6792L357.401 83.6245C356.273 85.9487 354.735 87.9482 352.787 89.623C350.838 91.2979 348.736 92.3745 346.48 92.853C350.685 94.1177 354.325 97.1938 357.401 102.082L366.117 116.181C366.698 117.172 367.005 118.026 367.04 118.744Z" fill="rgb(0,0,0)" fill-rule="nonzero" />
	<path id="Ex max black (color) 11" d="M239.43 117.873L239.43 67.9873C239.43 67.0645 239.72 66.3125 240.301 65.7314C240.917 65.1162 241.668 64.8086 242.557 64.8086L253.272 64.8086C254.195 64.8086 254.947 65.1162 255.528 65.7314C256.144 66.3125 256.451 67.0645 256.451 67.9873L256.451 101.671L274.498 68.5C275.045 67.4404 275.882 66.5688 277.01 65.8853C278.138 65.1675 279.232 64.8086 280.292 64.8086L294.647 64.8086C295.57 64.8086 296.322 65.1162 296.903 65.7314C297.518 66.3125 297.826 67.0645 297.826 67.9873L297.826 117.873C297.826 118.795 297.518 119.547 296.903 120.128C296.322 120.709 295.57 121 294.647 121L283.932 121C283.009 121 282.257 120.709 281.676 120.128C281.095 119.513 280.804 118.761 280.804 117.873L280.804 84.2397L262.757 117.309C262.21 118.3 261.373 119.171 260.245 119.923C259.117 120.641 258.023 121 256.964 121L242.557 121C241.634 121 240.882 120.709 240.301 120.128C239.72 119.547 239.43 118.795 239.43 117.873Z" fill="rgb(76,57,178)" fill-rule="nonzero" />
	<path id="Ex max black (color) 11" d="M239.43 117.873L239.43 67.9873C239.43 67.0645 239.72 66.3125 240.301 65.7314C240.917 65.1162 241.668 64.8086 242.557 64.8086L253.272 64.8086C254.195 64.8086 254.947 65.1162 255.528 65.7314C256.144 66.3125 256.451 67.0645 256.451 67.9873L256.451 101.671L274.498 68.5C275.045 67.4404 275.882 66.5688 277.01 65.8853C278.138 65.1675 279.232 64.8086 280.292 64.8086L294.647 64.8086C295.57 64.8086 296.322 65.1162 296.903 65.7314C297.518 66.3125 297.826 67.0645 297.826 67.9873L297.826 117.873C297.826 118.795 297.518 119.547 296.903 120.128C296.322 120.709 295.57 121 294.647 121L283.932 121C283.009 121 282.257 120.709 281.676 120.128C281.095 119.513 280.804 118.761 280.804 117.873L280.804 84.2397L262.757 117.309C262.21 118.3 261.373 119.171 260.245 119.923C259.117 120.641 258.023 121 256.964 121L242.557 121C241.634 121 240.882 120.709 240.301 120.128C239.72 119.547 239.43 118.795 239.43 117.873Z" fill="rgb(0,0,0)" fill-rule="nonzero" />
	<path id="Ex max black (color) 11" d="M171.035 106.593C171.035 105.67 171.326 104.918 171.907 104.337C172.522 103.756 173.274 103.466 174.163 103.466L181.853 103.466C184.177 103.466 185.989 104.628 187.288 106.952C188.621 109.242 191.15 110.387 194.875 110.387L205.283 110.387C210.239 110.387 212.717 108.354 212.717 104.286C212.717 100.219 210.239 98.2021 205.283 98.2363L192.568 98.2363C191.646 98.2363 190.876 97.9458 190.261 97.3647C189.68 96.7495 189.39 95.9805 189.39 95.0576L189.39 89.7256C189.39 88.8027 189.68 88.0508 190.261 87.4697C190.876 86.8545 191.646 86.5469 192.568 86.5469L204.309 86.5469C206.565 86.5469 208.257 86.0513 209.385 85.0601C210.547 84.0347 211.128 82.6846 211.128 81.0098C211.128 79.335 210.547 77.9849 209.385 76.9595C208.257 75.9341 206.565 75.4214 204.309 75.4214L194.875 75.4214C193.679 75.4214 192.449 75.729 191.184 76.3442C189.919 76.9253 188.979 77.7798 188.364 78.9077C187.031 81.2319 185.203 82.377 182.878 82.3428L175.239 82.3428C174.316 82.3428 173.547 82.0522 172.932 81.4712C172.351 80.8901 172.061 80.1382 172.061 79.2153C172.061 74.6011 174.299 70.8755 178.777 68.0386C183.289 65.2017 188.723 63.7832 195.081 63.7832L205.386 63.7832C212.598 63.7832 218.306 65.1162 222.51 67.7822C226.748 70.4141 228.867 74.4302 228.867 79.8306C228.867 85.231 226.423 89.1274 221.536 91.52C227.483 94.5278 230.457 99.2788 230.457 105.773C230.457 111.447 228.44 115.583 224.407 118.18C220.408 120.744 214.443 122.025 206.514 122.025L195.081 122.025C188.21 122.025 182.485 120.624 177.905 117.821C173.325 115.019 171.035 111.276 171.035 106.593Z" fill="rgb(76,57,178)" fill-rule="nonzero" />
	<path id="Ex max black (color) 11" d="M171.035 106.593C171.035 105.67 171.326 104.918 171.907 104.337C172.522 103.756 173.274 103.466 174.163 103.466L181.853 103.466C184.177 103.466 185.989 104.628 187.288 106.952C188.621 109.242 191.15 110.387 194.875 110.387L205.283 110.387C210.239 110.387 212.717 108.354 212.717 104.286C212.717 100.219 210.239 98.2021 205.283 98.2363L192.568 98.2363C191.646 98.2363 190.876 97.9458 190.261 97.3647C189.68 96.7495 189.39 95.9805 189.39 95.0576L189.39 89.7256C189.39 88.8027 189.68 88.0508 190.261 87.4697C190.876 86.8545 191.646 86.5469 192.568 86.5469L204.309 86.5469C206.565 86.5469 208.257 86.0513 209.385 85.0601C210.547 84.0347 211.128 82.6846 211.128 81.0098C211.128 79.335 210.547 77.9849 209.385 76.9595C208.257 75.9341 206.565 75.4214 204.309 75.4214L194.875 75.4214C193.679 75.4214 192.449 75.729 191.184 76.3442C189.919 76.9253 188.979 77.7798 188.364 78.9077C187.031 81.2319 185.203 82.377 182.878 82.3428L175.239 82.3428C174.316 82.3428 173.547 82.0522 172.932 81.4712C172.351 80.8901 172.061 80.1382 172.061 79.2153C172.061 74.6011 174.299 70.8755 178.777 68.0386C183.289 65.2017 188.723 63.7832 195.081 63.7832L205.386 63.7832C212.598 63.7832 218.306 65.1162 222.51 67.7822C226.748 70.4141 228.867 74.4302 228.867 79.8306C228.867 85.231 226.423 89.1274 221.536 91.52C227.483 94.5278 230.457 99.2788 230.457 105.773C230.457 111.447 228.44 115.583 224.407 118.18C220.408 120.744 214.443 122.025 206.514 122.025L195.081 122.025C188.21 122.025 182.485 120.624 177.905 117.821C173.325 115.019 171.035 111.276 171.035 106.593Z" fill="rgb(0,0,0)" fill-rule="nonzero" />
	<path id="Ex max black (color) 11" d="M104.281 117.873L104.281 67.9873C104.281 67.0645 104.572 66.3125 105.153 65.7314C105.768 65.1162 106.52 64.8086 107.409 64.8086L118.124 64.8086C119.047 64.8086 119.799 65.1162 120.38 65.7314C120.995 66.3125 121.303 67.0645 121.303 67.9873L121.303 101.671L139.35 68.5C139.896 67.4404 140.734 66.5688 141.862 65.8853C142.99 65.1675 144.083 64.8086 145.143 64.8086L159.499 64.8086C160.421 64.8086 161.173 65.1162 161.754 65.7314C162.37 66.3125 162.677 67.0645 162.677 67.9873L162.677 117.873C162.677 118.795 162.37 119.547 161.754 120.128C161.173 120.709 160.421 121 159.499 121L148.783 121C147.86 121 147.108 120.709 146.527 120.128C145.946 119.513 145.656 118.761 145.656 117.873L145.656 84.2397L127.609 117.309C127.062 118.3 126.225 119.171 125.097 119.923C123.969 120.641 122.875 121 121.815 121L107.409 121C106.486 121 105.734 120.709 105.153 120.128C104.572 119.547 104.281 118.795 104.281 117.873Z" fill="rgb(76,57,178)" fill-rule="nonzero" />
	<path id="Ex max black (color) 11" d="M104.281 117.873L104.281 67.9873C104.281 67.0645 104.572 66.3125 105.153 65.7314C105.768 65.1162 106.52 64.8086 107.409 64.8086L118.124 64.8086C119.047 64.8086 119.799 65.1162 120.38 65.7314C120.995 66.3125 121.303 67.0645 121.303 67.9873L121.303 101.671L139.35 68.5C139.896 67.4404 140.734 66.5688 141.862 65.8853C142.99 65.1675 144.083 64.8086 145.143 64.8086L159.499 64.8086C160.421 64.8086 161.173 65.1162 161.754 65.7314C162.37 66.3125 162.677 67.0645 162.677 67.9873L162.677 117.873C162.677 118.795 162.37 119.547 161.754 120.128C161.173 120.709 160.421 121 159.499 121L148.783 121C147.86 121 147.108 120.709 146.527 120.128C145.946 119.513 145.656 118.761 145.656 117.873L145.656 84.2397L127.609 117.309C127.062 118.3 126.225 119.171 125.097 119.923C123.969 120.641 122.875 121 121.815 121L107.409 121C106.486 121 105.734 120.709 105.153 120.128C104.572 119.547 104.281 118.795 104.281 117.873Z" fill="rgb(0,0,0)" fill-rule="nonzero" />
	<path id="Ex max black (color) 11" d="M38.2974 54.0933L38.2974 49.0688C38.2974 47.7358 38.7759 46.6079 39.7329 45.6851C40.6899 44.728 41.8691 44.2495 43.2705 44.2495L52.7041 44.2495C54.1055 44.2495 55.2676 44.728 56.1904 45.6851C57.1475 46.6079 57.626 47.7358 57.626 49.0688L57.626 54.0933C69.3154 54.0933 78.6123 56.5029 85.5166 61.3223C92.4209 66.1074 95.873 73.7466 95.873 84.2397C95.873 94.7329 92.4209 102.389 85.5166 107.208C78.6123 111.994 69.3154 114.386 57.626 114.386L57.626 119.411C57.626 120.744 57.1304 121.872 56.1392 122.794C55.1821 123.751 54.0371 124.23 52.7041 124.23L43.2705 124.23C41.9375 124.23 40.7754 123.751 39.7842 122.794C38.793 121.872 38.2974 120.744 38.2974 119.411L38.2974 114.386C26.6079 114.386 17.311 111.994 10.4067 107.208C3.53662 102.389 0.101562 94.7329 0.101562 84.2397C0.101562 73.7466 3.53662 66.1074 10.4067 61.3223C17.311 56.5029 26.6079 54.0933 38.2974 54.0933ZM38.8613 100.543L38.8613 67.9873C32.8457 67.9873 28.0947 69.3374 24.6084 72.0376C21.1562 74.7036 19.4302 78.771 19.4302 84.2397C19.4302 89.7085 21.1562 93.793 24.6084 96.4932C28.0947 99.1934 32.8457 100.543 38.8613 100.543ZM57.1133 100.543C63.1289 100.543 67.8628 99.1934 71.3149 96.4932C74.8013 93.793 76.5444 89.7085 76.5444 84.2397C76.5444 78.771 74.8013 74.7036 71.3149 72.0376C67.8628 69.3374 63.1289 67.9873 57.1133 67.9873L57.1133 100.543Z" fill="rgb(76,57,178)" fill-rule="nonzero" />
	<path id="Ex max black (color) 11" d="M38.2974 54.0933L38.2974 49.0688C38.2974 47.7358 38.7759 46.6079 39.7329 45.6851C40.6899 44.728 41.8691 44.2495 43.2705 44.2495L52.7041 44.2495C54.1055 44.2495 55.2676 44.728 56.1904 45.6851C57.1475 46.6079 57.626 47.7358 57.626 49.0688L57.626 54.0933C69.3154 54.0933 78.6123 56.5029 85.5166 61.3223C92.4209 66.1074 95.873 73.7466 95.873 84.2397C95.873 94.7329 92.4209 102.389 85.5166 107.208C78.6123 111.994 69.3154 114.386 57.626 114.386L57.626 119.411C57.626 120.744 57.1304 121.872 56.1392 122.794C55.1821 123.751 54.0371 124.23 52.7041 124.23L43.2705 124.23C41.9375 124.23 40.7754 123.751 39.7842 122.794C38.793 121.872 38.2974 120.744 38.2974 119.411L38.2974 114.386C26.6079 114.386 17.311 111.994 10.4067 107.208C3.53662 102.389 0.101562 94.7329 0.101562 84.2397C0.101562 73.7466 3.53662 66.1074 10.4067 61.3223C17.311 56.5029 26.6079 54.0933 38.2974 54.0933ZM38.8613 100.543L38.8613 67.9873C32.8457 67.9873 28.0947 69.3374 24.6084 72.0376C21.1562 74.7036 19.4302 78.771 19.4302 84.2397C19.4302 89.7085 21.1562 93.793 24.6084 96.4932C28.0947 99.1934 32.8457 100.543 38.8613 100.543ZM57.1133 100.543C63.1289 100.543 67.8628 99.1934 71.3149 96.4932C74.8013 93.793 76.5444 89.7085 76.5444 84.2397C76.5444 78.771 74.8013 74.7036 71.3149 72.0376C67.8628 69.3374 63.1289 67.9873 57.1133 67.9873L57.1133 100.543Z" fill="rgb(0,0,0)" fill-rule="nonzero" />
</svg>
