<svg viewBox="0 0 796.449 138.329" xmlns="http://www.w3.org/2000/svg" xmlns:xlink="http://www.w3.org/1999/xlink" width="796.449219" height="138.329102" fill="none" customFrame="#000000">
	<rect id="Ex max black (color) 13" width="796.448730" height="138.329102" x="0.000000" y="0.000000" fill="rgb(255,255,255)" fill-opacity="0" />
	<path id="Ex max black (color) 13" d="M3.87703 28.0155L1.02092 22.4802C-1.15403 18.2649 0.229996 12.9984 4.37392 10.8245C40.1818 -7.96054 74.0038 1.40645 91.4021 11.2102C94.9895 13.2316 95.9894 17.6134 93.9708 21.2611C92.9314 23.1395 91.6076 25.505 89.942 28.4479C87.5114 32.7426 82.1589 34.1553 77.7864 32.0115C56.5322 21.5908 37.9312 21.5785 16.1367 31.9746C11.6439 34.1177 6.19225 32.5026 3.87703 28.0155Z" fill="rgb(16.7995,16.7995,16.7995)" fill-rule="evenodd" />
	<path id="Ex max black (color) 13" d="M744.205 117.309C739.693 114.164 737.438 109.721 737.438 103.979C737.438 98.2363 739.693 93.8271 744.205 90.751C748.751 87.6748 754.596 86.1367 761.739 86.1367L778.709 86.1367C778.709 82.1377 777.872 79.3521 776.197 77.7798C774.522 76.2075 771.583 75.4214 767.379 75.4214C763.209 75.4214 760.27 76.4639 758.561 78.5488C756.886 80.5996 754.818 81.625 752.357 81.625L744.718 81.625C743.795 81.625 743.026 81.3345 742.411 80.7534C741.83 80.1382 741.539 79.3862 741.539 78.4976C741.539 68.688 750.853 63.7832 769.481 63.7832C777.616 63.7832 784.144 65.6118 789.066 69.269C793.988 72.8921 796.449 78.5146 796.449 86.1367L796.449 117.873C796.449 118.795 796.158 119.547 795.577 120.128C794.996 120.709 794.244 121 793.321 121L783.426 121C782.503 121 781.751 120.709 781.17 120.128C780.589 119.513 780.299 118.761 780.299 117.873L780.299 116.283C774.898 120.146 768.661 122.06 761.585 122.025C754.544 122.025 748.751 120.453 744.205 117.309ZM762.97 97.7749C760.577 97.7749 758.68 98.356 757.279 99.5181C755.912 100.68 755.228 102.184 755.228 104.03C755.228 105.875 755.946 107.396 757.381 108.593C758.817 109.789 760.851 110.387 763.482 110.387C768.746 110.387 773.822 108.849 778.709 105.773L778.709 97.7749L762.97 97.7749Z" fill="rgb(16.7995,16.7995,16.7995)" fill-rule="nonzero" />
	<path id="Ex max black (color) 13" d="M744.205 117.309C739.693 114.164 737.438 109.721 737.438 103.979C737.438 98.2363 739.693 93.8271 744.205 90.751C748.751 87.6748 754.596 86.1367 761.739 86.1367L778.709 86.1367C778.709 82.1377 777.872 79.3521 776.197 77.7798C774.522 76.2075 771.583 75.4214 767.379 75.4214C763.209 75.4214 760.27 76.4639 758.561 78.5488C756.886 80.5996 754.818 81.625 752.357 81.625L744.718 81.625C743.795 81.625 743.026 81.3345 742.411 80.7534C741.83 80.1382 741.539 79.3862 741.539 78.4976C741.539 68.688 750.853 63.7832 769.481 63.7832C777.616 63.7832 784.144 65.6118 789.066 69.269C793.988 72.8921 796.449 78.5146 796.449 86.1367L796.449 117.873C796.449 118.795 796.158 119.547 795.577 120.128C794.996 120.709 794.244 121 793.321 121L783.426 121C782.503 121 781.751 120.709 781.17 120.128C780.589 119.513 780.299 118.761 780.299 117.873L780.299 116.283C774.898 120.146 768.661 122.06 761.585 122.025C754.544 122.025 748.751 120.453 744.205 117.309ZM762.97 97.7749C760.577 97.7749 758.68 98.356 757.279 99.5181C755.912 100.68 755.228 102.184 755.228 104.03C755.228 105.875 755.946 107.396 757.381 108.593C758.817 109.789 760.851 110.387 763.482 110.387C768.746 110.387 773.822 108.849 778.709 105.773L778.709 97.7749L762.97 97.7749Z" fill="rgb(0,0,0)" fill-rule="nonzero" />
	<path id="Ex max black (color) 13" d="M733.692 118.744C733.692 120.248 732.803 121 731.026 121L721.336 121C718.055 121 715.44 119.394 713.492 116.181L706.98 105.568C704.178 101.022 700.11 98.749 694.778 98.749L694.778 117.873C694.778 118.795 694.471 119.547 693.855 120.128C693.274 120.709 692.54 121 691.651 121L680.167 121C679.244 121 678.492 120.709 677.911 120.128C677.33 119.547 677.039 118.795 677.039 117.873L677.039 67.9873C677.039 67.0645 677.33 66.3125 677.911 65.7314C678.526 65.1162 679.278 64.8086 680.167 64.8086L691.651 64.8086C692.574 64.8086 693.326 65.1162 693.907 65.7314C694.488 66.3125 694.778 67.0645 694.778 67.9873L694.778 87.0596C700.726 87.0596 704.793 84.7524 706.98 80.1382L711.902 69.6792C712.586 68.2095 713.594 67.0303 714.927 66.1416C716.26 65.2529 717.696 64.8086 719.234 64.8086L728.924 64.8086C730.633 64.8086 731.487 65.4751 731.487 66.8081C731.487 67.5601 731.214 68.5171 730.667 69.6792L724.053 83.6245C722.925 85.9487 721.387 87.9482 719.439 89.623C717.491 91.2979 715.389 92.3745 713.133 92.853C717.337 94.1177 720.977 97.1938 724.053 102.082L732.769 116.181C733.35 117.172 733.658 118.026 733.692 118.744Z" fill="rgb(16.7995,16.7995,16.7995)" fill-rule="nonzero" />
	<path id="Ex max black (color) 13" d="M733.692 118.744C733.692 120.248 732.803 121 731.026 121L721.336 121C718.055 121 715.44 119.394 713.492 116.181L706.98 105.568C704.178 101.022 700.11 98.749 694.778 98.749L694.778 117.873C694.778 118.795 694.471 119.547 693.855 120.128C693.274 120.709 692.54 121 691.651 121L680.167 121C679.244 121 678.492 120.709 677.911 120.128C677.33 119.547 677.039 118.795 677.039 117.873L677.039 67.9873C677.039 67.0645 677.33 66.3125 677.911 65.7314C678.526 65.1162 679.278 64.8086 680.167 64.8086L691.651 64.8086C692.574 64.8086 693.326 65.1162 693.907 65.7314C694.488 66.3125 694.778 67.0645 694.778 67.9873L694.778 87.0596C700.726 87.0596 704.793 84.7524 706.98 80.1382L711.902 69.6792C712.586 68.2095 713.594 67.0303 714.927 66.1416C716.26 65.2529 717.696 64.8086 719.234 64.8086L728.924 64.8086C730.633 64.8086 731.487 65.4751 731.487 66.8081C731.487 67.5601 731.214 68.5171 730.667 69.6792L724.053 83.6245C722.925 85.9487 721.387 87.9482 719.439 89.623C717.491 91.2979 715.389 92.3745 713.133 92.853C717.337 94.1177 720.977 97.1938 724.053 102.082L732.769 116.181C733.35 117.172 733.658 118.026 733.692 118.744Z" fill="rgb(0,0,0)" fill-rule="nonzero" />
	<path id="Ex max black (color) 13" d="M606.082 117.873L606.082 67.9873C606.082 67.0645 606.373 66.3125 606.954 65.7314C607.569 65.1162 608.321 64.8086 609.209 64.8086L619.925 64.8086C620.848 64.8086 621.6 65.1162 622.181 65.7314C622.796 66.3125 623.104 67.0645 623.104 67.9873L623.104 101.671L641.15 68.5C641.697 67.4404 642.535 66.5688 643.663 65.8853C644.791 65.1675 645.884 64.8086 646.944 64.8086L661.299 64.8086C662.222 64.8086 662.974 65.1162 663.555 65.7314C664.17 66.3125 664.478 67.0645 664.478 67.9873L664.478 117.873C664.478 118.795 664.17 119.547 663.555 120.128C662.974 120.709 662.222 121 661.299 121L650.584 121C649.661 121 648.909 120.709 648.328 120.128C647.747 119.513 647.457 118.761 647.457 117.873L647.457 84.2397L629.41 117.309C628.863 118.3 628.025 119.171 626.897 119.923C625.77 120.641 624.676 121 623.616 121L609.209 121C608.287 121 607.535 120.709 606.954 120.128C606.373 119.547 606.082 118.795 606.082 117.873Z" fill="rgb(16.7995,16.7995,16.7995)" fill-rule="nonzero" />
	<path id="Ex max black (color) 13" d="M606.082 117.873L606.082 67.9873C606.082 67.0645 606.373 66.3125 606.954 65.7314C607.569 65.1162 608.321 64.8086 609.209 64.8086L619.925 64.8086C620.848 64.8086 621.6 65.1162 622.181 65.7314C622.796 66.3125 623.104 67.0645 623.104 67.9873L623.104 101.671L641.15 68.5C641.697 67.4404 642.535 66.5688 643.663 65.8853C644.791 65.1675 645.884 64.8086 646.944 64.8086L661.299 64.8086C662.222 64.8086 662.974 65.1162 663.555 65.7314C664.17 66.3125 664.478 67.0645 664.478 67.9873L664.478 117.873C664.478 118.795 664.17 119.547 663.555 120.128C662.974 120.709 662.222 121 661.299 121L650.584 121C649.661 121 648.909 120.709 648.328 120.128C647.747 119.513 647.457 118.761 647.457 117.873L647.457 84.2397L629.41 117.309C628.863 118.3 628.025 119.171 626.897 119.923C625.77 120.641 624.676 121 623.616 121L609.209 121C608.287 121 607.535 120.709 606.954 120.128C606.373 119.547 606.082 118.795 606.082 117.873Z" fill="rgb(0,0,0)" fill-rule="nonzero" />
	<path id="Ex max black (color) 13" d="M541.844 74.0884L541.844 67.9873C541.844 67.0645 542.134 66.3125 542.715 65.7314C543.331 65.1162 544.1 64.8086 545.022 64.8086L595.523 64.8086C596.446 64.8086 597.198 65.1162 597.779 65.7314C598.36 66.3125 598.65 67.0645 598.65 67.9873L598.65 74.0884C598.65 74.9771 598.36 75.729 597.779 76.3442C597.198 76.9253 596.446 77.2158 595.523 77.2158L579.168 77.2158L579.168 117.873C579.168 118.761 578.86 119.513 578.245 120.128C577.664 120.709 576.912 121 575.989 121L564.556 121C563.633 121 562.864 120.709 562.249 120.128C561.668 119.513 561.377 118.761 561.377 117.873L561.377 77.2158L545.022 77.2158C544.1 77.2158 543.331 76.9253 542.715 76.3442C542.134 75.729 541.844 74.9771 541.844 74.0884Z" fill="rgb(16.7995,16.7995,16.7995)" fill-rule="nonzero" />
	<path id="Ex max black (color) 13" d="M541.844 74.0884L541.844 67.9873C541.844 67.0645 542.134 66.3125 542.715 65.7314C543.331 65.1162 544.1 64.8086 545.022 64.8086L595.523 64.8086C596.446 64.8086 597.198 65.1162 597.779 65.7314C598.36 66.3125 598.65 67.0645 598.65 67.9873L598.65 74.0884C598.65 74.9771 598.36 75.729 597.779 76.3442C597.198 76.9253 596.446 77.2158 595.523 77.2158L579.168 77.2158L579.168 117.873C579.168 118.761 578.86 119.513 578.245 120.128C577.664 120.709 576.912 121 575.989 121L564.556 121C563.633 121 562.864 120.709 562.249 120.128C561.668 119.513 561.377 118.761 561.377 117.873L561.377 77.2158L545.022 77.2158C544.1 77.2158 543.331 76.9253 542.715 76.3442C542.134 75.729 541.844 74.9771 541.844 74.0884Z" fill="rgb(0,0,0)" fill-rule="nonzero" />
	<path id="Ex max black (color) 13" d="M483.24 117.309C478.729 114.164 476.473 109.721 476.473 103.979C476.473 98.2363 478.729 93.8271 483.24 90.751C487.786 87.6748 493.631 86.1367 500.774 86.1367L517.745 86.1367C517.745 82.1377 516.907 79.3521 515.232 77.7798C513.558 76.2075 510.618 75.4214 506.414 75.4214C502.244 75.4214 499.305 76.4639 497.596 78.5488C495.921 80.5996 493.853 81.625 491.392 81.625L483.753 81.625C482.83 81.625 482.061 81.3345 481.446 80.7534C480.865 80.1382 480.574 79.3862 480.574 78.4976C480.574 68.688 489.888 63.7832 508.516 63.7832C516.651 63.7832 523.179 65.6118 528.101 69.269C533.023 72.8921 535.484 78.5146 535.484 86.1367L535.484 117.873C535.484 118.795 535.193 119.547 534.612 120.128C534.031 120.709 533.279 121 532.356 121L522.461 121C521.539 121 520.787 120.709 520.206 120.128C519.625 119.513 519.334 118.761 519.334 117.873L519.334 116.283C513.934 120.146 507.696 122.06 500.621 122.025C493.58 122.025 487.786 120.453 483.24 117.309ZM502.005 97.7749C499.612 97.7749 497.715 98.356 496.314 99.5181C494.947 100.68 494.263 102.184 494.263 104.03C494.263 105.875 494.981 107.396 496.417 108.593C497.852 109.789 499.886 110.387 502.518 110.387C507.781 110.387 512.857 108.849 517.745 105.773L517.745 97.7749L502.005 97.7749Z" fill="rgb(16.7995,16.7995,16.7995)" fill-rule="nonzero" />
	<path id="Ex max black (color) 13" d="M483.24 117.309C478.729 114.164 476.473 109.721 476.473 103.979C476.473 98.2363 478.729 93.8271 483.24 90.751C487.786 87.6748 493.631 86.1367 500.774 86.1367L517.745 86.1367C517.745 82.1377 516.907 79.3521 515.232 77.7798C513.558 76.2075 510.618 75.4214 506.414 75.4214C502.244 75.4214 499.305 76.4639 497.596 78.5488C495.921 80.5996 493.853 81.625 491.392 81.625L483.753 81.625C482.83 81.625 482.061 81.3345 481.446 80.7534C480.865 80.1382 480.574 79.3862 480.574 78.4976C480.574 68.688 489.888 63.7832 508.516 63.7832C516.651 63.7832 523.179 65.6118 528.101 69.269C533.023 72.8921 535.484 78.5146 535.484 86.1367L535.484 117.873C535.484 118.795 535.193 119.547 534.612 120.128C534.031 120.709 533.279 121 532.356 121L522.461 121C521.539 121 520.787 120.709 520.206 120.128C519.625 119.513 519.334 118.761 519.334 117.873L519.334 116.283C513.934 120.146 507.696 122.06 500.621 122.025C493.58 122.025 487.786 120.453 483.24 117.309ZM502.005 97.7749C499.612 97.7749 497.715 98.356 496.314 99.5181C494.947 100.68 494.263 102.184 494.263 104.03C494.263 105.875 494.981 107.396 496.417 108.593C497.852 109.789 499.886 110.387 502.518 110.387C507.781 110.387 512.857 108.849 517.745 105.773L517.745 97.7749L502.005 97.7749Z" fill="rgb(0,0,0)" fill-rule="nonzero" />
	<path id="Ex max black (color) 13" d="M391.266 117.873L391.266 67.9873C391.266 67.0645 391.556 66.3125 392.137 65.7314C392.752 65.1162 393.504 64.8086 394.393 64.8086L412.03 64.8086C414.046 64.8086 415.584 66.0732 416.644 68.6025L429.154 99.1592L441.664 68.6025C442.723 66.0732 444.261 64.8086 446.278 64.8086L463.915 64.8086C464.837 64.8086 465.589 65.1162 466.17 65.7314C466.786 66.3125 467.093 67.0645 467.093 67.9873L467.093 117.873C467.093 118.795 466.786 119.547 466.17 120.128C465.589 120.709 464.837 121 463.915 121L452.789 121C451.866 121 451.114 120.709 450.533 120.128C449.952 119.513 449.662 118.761 449.662 117.873L449.662 85.8291L436.537 117.411C435.477 119.804 433.854 121 431.666 121L426.642 121C424.488 121 422.882 119.804 421.822 117.411L408.697 85.8291L408.697 117.873C408.697 118.795 408.39 119.547 407.774 120.128C407.193 120.709 406.441 121 405.519 121L394.393 121C393.47 121 392.718 120.709 392.137 120.128C391.556 119.547 391.266 118.795 391.266 117.873Z" fill="rgb(16.7995,16.7995,16.7995)" fill-rule="nonzero" />
	<path id="Ex max black (color) 13" d="M391.266 117.873L391.266 67.9873C391.266 67.0645 391.556 66.3125 392.137 65.7314C392.752 65.1162 393.504 64.8086 394.393 64.8086L412.03 64.8086C414.046 64.8086 415.584 66.0732 416.644 68.6025L429.154 99.1592L441.664 68.6025C442.723 66.0732 444.261 64.8086 446.278 64.8086L463.915 64.8086C464.837 64.8086 465.589 65.1162 466.17 65.7314C466.786 66.3125 467.093 67.0645 467.093 67.9873L467.093 117.873C467.093 118.795 466.786 119.547 466.17 120.128C465.589 120.709 464.837 121 463.915 121L452.789 121C451.866 121 451.114 120.709 450.533 120.128C449.952 119.513 449.662 118.761 449.662 117.873L449.662 85.8291L436.537 117.411C435.477 119.804 433.854 121 431.666 121L426.642 121C424.488 121 422.882 119.804 421.822 117.411L408.697 85.8291L408.697 117.873C408.697 118.795 408.39 119.547 407.774 120.128C407.193 120.709 406.441 121 405.519 121L394.393 121C393.47 121 392.718 120.709 392.137 120.128C391.556 119.547 391.266 118.795 391.266 117.873Z" fill="rgb(0,0,0)" fill-rule="nonzero" />
	<path id="Ex max black (color) 13" d="M321.742 135.15L321.742 67.9873C321.742 67.0645 322.033 66.3125 322.614 65.7314C323.229 65.1162 323.981 64.8086 324.87 64.8086L334.765 64.8086C335.653 64.8086 336.388 65.1162 336.969 65.7314C337.584 66.3125 337.892 67.0645 337.892 67.9873L337.892 69.5254C343.292 65.6973 349.564 63.7832 356.708 63.7832C363.852 63.7832 369.816 66.3125 374.601 71.3711C379.386 76.3955 381.779 83.6074 381.779 93.0068C381.779 102.372 379.301 109.55 374.345 114.54C369.389 119.53 362.707 122.025 354.298 122.025C349.958 122.025 345.019 121.154 339.481 119.411L339.481 135.15C339.481 136.073 339.174 136.825 338.559 137.406C337.978 138.021 337.243 138.329 336.354 138.329L324.87 138.329C323.981 138.329 323.229 138.021 322.614 137.406C322.033 136.825 321.742 136.073 321.742 135.15ZM339.481 107.567C343.891 108.969 347.599 109.669 350.607 109.669C355.29 109.669 358.605 108.336 360.553 105.67C362.536 103.004 363.527 98.749 363.527 92.9043C363.527 87.0596 362.587 82.8213 360.707 80.1895C358.861 77.5234 356.076 76.1904 352.35 76.1904C348.659 76.1904 344.369 77.7285 339.481 80.8047L339.481 107.567Z" fill="rgb(16.7995,16.7995,16.7995)" fill-rule="nonzero" />
	<path id="Ex max black (color) 13" d="M321.742 135.15L321.742 67.9873C321.742 67.0645 322.033 66.3125 322.614 65.7314C323.229 65.1162 323.981 64.8086 324.87 64.8086L334.765 64.8086C335.653 64.8086 336.388 65.1162 336.969 65.7314C337.584 66.3125 337.892 67.0645 337.892 67.9873L337.892 69.5254C343.292 65.6973 349.564 63.7832 356.708 63.7832C363.852 63.7832 369.816 66.3125 374.601 71.3711C379.386 76.3955 381.779 83.6074 381.779 93.0068C381.779 102.372 379.301 109.55 374.345 114.54C369.389 119.53 362.707 122.025 354.298 122.025C349.958 122.025 345.019 121.154 339.481 119.411L339.481 135.15C339.481 136.073 339.174 136.825 338.559 137.406C337.978 138.021 337.243 138.329 336.354 138.329L324.87 138.329C323.981 138.329 323.229 138.021 322.614 137.406C322.033 136.825 321.742 136.073 321.742 135.15ZM339.481 107.567C343.891 108.969 347.599 109.669 350.607 109.669C355.29 109.669 358.605 108.336 360.553 105.67C362.536 103.004 363.527 98.749 363.527 92.9043C363.527 87.0596 362.587 82.8213 360.707 80.1895C358.861 77.5234 356.076 76.1904 352.35 76.1904C348.659 76.1904 344.369 77.7285 339.481 80.8047L339.481 107.567Z" fill="rgb(0,0,0)" fill-rule="nonzero" />
	<path id="Ex max black (color) 13" d="M258.271 114.643C252.939 109.721 250.273 102.475 250.273 92.9043C250.273 83.2998 252.939 76.0537 258.271 71.166C263.604 66.2441 271.26 63.7832 281.24 63.7832C291.255 63.7832 298.928 66.2441 304.26 71.166C309.592 76.0537 312.258 83.2998 312.258 92.9043C312.258 102.475 309.592 109.721 304.26 114.643C298.928 119.564 291.255 122.025 281.24 122.025C271.26 122.025 263.604 119.564 258.271 114.643ZM271.243 79.5742C269.124 82.3428 268.064 86.769 268.064 92.853C268.064 98.937 269.124 103.38 271.243 106.183C273.362 108.986 276.694 110.387 281.24 110.387C285.82 110.387 289.17 108.986 291.289 106.183C293.442 103.38 294.519 98.937 294.519 92.853C294.519 86.769 293.442 82.3428 291.289 79.5742C289.17 76.8057 285.82 75.4214 281.24 75.4214C276.694 75.4214 273.362 76.8057 271.243 79.5742Z" fill="rgb(16.7995,16.7995,16.7995)" fill-rule="nonzero" />
	<path id="Ex max black (color) 13" d="M258.271 114.643C252.939 109.721 250.273 102.475 250.273 92.9043C250.273 83.2998 252.939 76.0537 258.271 71.166C263.604 66.2441 271.26 63.7832 281.24 63.7832C291.255 63.7832 298.928 66.2441 304.26 71.166C309.592 76.0537 312.258 83.2998 312.258 92.9043C312.258 102.475 309.592 109.721 304.26 114.643C298.928 119.564 291.255 122.025 281.24 122.025C271.26 122.025 263.604 119.564 258.271 114.643ZM271.243 79.5742C269.124 82.3428 268.064 86.769 268.064 92.853C268.064 98.937 269.124 103.38 271.243 106.183C273.362 108.986 276.694 110.387 281.24 110.387C285.82 110.387 289.17 108.986 291.289 106.183C293.442 103.38 294.519 98.937 294.519 92.853C294.519 86.769 293.442 82.3428 291.289 79.5742C289.17 76.8057 285.82 75.4214 281.24 75.4214C276.694 75.4214 273.362 76.8057 271.243 79.5742Z" fill="rgb(0,0,0)" fill-rule="nonzero" />
	<path id="Ex max black (color) 13" d="M173.111 113.515C167.813 108.764 165.164 101.876 165.164 92.853C165.164 83.8296 167.813 76.9766 173.111 72.2939C178.443 67.6113 186.15 65.1162 196.233 64.8086L196.233 50.6582C196.233 49.7354 196.524 48.9834 197.105 48.4023C197.72 47.7871 198.489 47.4795 199.412 47.4795L210.845 47.4795C211.768 47.4795 212.52 47.7871 213.101 48.4023C213.682 48.9834 213.973 49.7354 213.973 50.6582L213.973 64.8086C224.056 65.082 231.746 67.5771 237.044 72.2939C242.376 76.9766 245.042 83.8296 245.042 92.853C245.042 101.876 242.376 108.764 237.044 113.515C231.746 118.231 224.056 120.727 213.973 121L213.973 135.15C213.973 136.073 213.665 136.825 213.05 137.406C212.469 138.021 211.734 138.329 210.845 138.329L199.412 138.329C198.489 138.329 197.72 138.021 197.105 137.406C196.524 136.825 196.233 136.073 196.233 135.15L196.233 121C186.15 120.727 178.443 118.231 173.111 113.515ZM186.236 80.1382C184.014 82.8042 182.903 87.0425 182.903 92.853C182.903 98.6636 184.014 102.919 186.236 105.619C188.492 108.319 191.927 109.704 196.541 109.772L196.541 76.0366C191.927 76.105 188.492 77.4722 186.236 80.1382ZM213.665 109.772C218.279 109.704 221.697 108.319 223.919 105.619C226.175 102.919 227.303 98.6636 227.303 92.853C227.303 87.0425 226.175 82.8213 223.919 80.1895C221.697 77.5234 218.279 76.1392 213.665 76.0366L213.665 109.772Z" fill="rgb(16.7995,16.7995,16.7995)" fill-rule="nonzero" />
	<path id="Ex max black (color) 13" d="M173.111 113.515C167.813 108.764 165.164 101.876 165.164 92.853C165.164 83.8296 167.813 76.9766 173.111 72.2939C178.443 67.6113 186.15 65.1162 196.233 64.8086L196.233 50.6582C196.233 49.7354 196.524 48.9834 197.105 48.4023C197.72 47.7871 198.489 47.4795 199.412 47.4795L210.845 47.4795C211.768 47.4795 212.52 47.7871 213.101 48.4023C213.682 48.9834 213.973 49.7354 213.973 50.6582L213.973 64.8086C224.056 65.082 231.746 67.5771 237.044 72.2939C242.376 76.9766 245.042 83.8296 245.042 92.853C245.042 101.876 242.376 108.764 237.044 113.515C231.746 118.231 224.056 120.727 213.973 121L213.973 135.15C213.973 136.073 213.665 136.825 213.05 137.406C212.469 138.021 211.734 138.329 210.845 138.329L199.412 138.329C198.489 138.329 197.72 138.021 197.105 137.406C196.524 136.825 196.233 136.073 196.233 135.15L196.233 121C186.15 120.727 178.443 118.231 173.111 113.515ZM186.236 80.1382C184.014 82.8042 182.903 87.0425 182.903 92.853C182.903 98.6636 184.014 102.919 186.236 105.619C188.492 108.319 191.927 109.704 196.541 109.772L196.541 76.0366C191.927 76.105 188.492 77.4722 186.236 80.1382ZM213.665 109.772C218.279 109.704 221.697 108.319 223.919 105.619C226.175 102.919 227.303 98.6636 227.303 92.853C227.303 87.0425 226.175 82.8213 223.919 80.1895C221.697 77.5234 218.279 76.1392 213.665 76.0366L213.665 109.772Z" fill="rgb(0,0,0)" fill-rule="nonzero" />
	<path id="Ex max black (color) 13" d="M98.8242 117.873L98.8242 67.9873C98.8242 67.0645 99.1147 66.3125 99.6958 65.7314C100.311 65.1162 101.063 64.8086 101.952 64.8086L113.436 64.8086C114.359 64.8086 115.111 65.1162 115.692 65.7314C116.273 66.3125 116.563 67.0645 116.563 67.9873L116.563 86.3418L139.02 86.3418L139.02 67.9873C139.02 67.0645 139.31 66.3125 139.891 65.7314C140.506 65.1162 141.275 64.8086 142.198 64.8086L153.631 64.8086C154.554 64.8086 155.306 65.1162 155.887 65.7314C156.468 66.3125 156.759 67.0645 156.759 67.9873L156.759 117.873C156.759 118.795 156.468 119.547 155.887 120.128C155.306 120.709 154.554 121 153.631 121L142.198 121C141.275 121 140.506 120.709 139.891 120.128C139.31 119.513 139.02 118.761 139.02 117.873L139.02 98.749L116.563 98.749L116.563 117.873C116.563 118.795 116.256 119.547 115.641 120.128C115.06 120.709 114.325 121 113.436 121L101.952 121C101.029 121 100.277 120.709 99.6958 120.128C99.1147 119.547 98.8242 118.795 98.8242 117.873Z" fill="rgb(16.7995,16.7995,16.7995)" fill-rule="nonzero" />
	<path id="Ex max black (color) 13" d="M98.8242 117.873L98.8242 67.9873C98.8242 67.0645 99.1147 66.3125 99.6958 65.7314C100.311 65.1162 101.063 64.8086 101.952 64.8086L113.436 64.8086C114.359 64.8086 115.111 65.1162 115.692 65.7314C116.273 66.3125 116.563 67.0645 116.563 67.9873L116.563 86.3418L139.02 86.3418L139.02 67.9873C139.02 67.0645 139.31 66.3125 139.891 65.7314C140.506 65.1162 141.275 64.8086 142.198 64.8086L153.631 64.8086C154.554 64.8086 155.306 65.1162 155.887 65.7314C156.468 66.3125 156.759 67.0645 156.759 67.9873L156.759 117.873C156.759 118.795 156.468 119.547 155.887 120.128C155.306 120.709 154.554 121 153.631 121L142.198 121C141.275 121 140.506 120.709 139.891 120.128C139.31 119.513 139.02 118.761 139.02 117.873L139.02 98.749L116.563 98.749L116.563 117.873C116.563 118.795 116.256 119.547 115.641 120.128C115.06 120.709 114.325 121 113.436 121L101.952 121C101.029 121 100.277 120.709 99.6958 120.128C99.1147 119.547 98.8242 118.795 98.8242 117.873Z" fill="rgb(0,0,0)" fill-rule="nonzero" />
	<path id="Ex max black (color) 13" d="M10.332 116.181L10.332 52.3501C10.332 50.9487 10.7935 49.7866 11.7163 48.8638C12.6392 47.9409 13.8013 47.4795 15.2026 47.4795L24.2261 47.4795C25.5591 47.4795 26.687 47.9409 27.6099 48.8638C28.5669 49.7866 29.0454 50.9146 29.0454 52.2476L29.0454 103.568L58.2178 52.3501C59.0039 51.0171 60.0806 49.8721 61.4478 48.915C62.8149 47.958 64.0796 47.4795 65.2417 47.4795L80.3662 47.4795C81.6992 47.4795 82.8271 47.958 83.75 48.915C84.6729 49.8721 85.1343 51.0171 85.1343 52.3501L85.1343 116.181C85.1343 117.514 84.6558 118.659 83.6987 119.616C82.7417 120.539 81.5967 121 80.2637 121L71.2402 121C69.9072 121 68.7622 120.539 67.8052 119.616C66.8823 118.659 66.4209 117.514 66.4209 116.181L66.4209 68.6025L39.6582 116.181C38.8721 117.514 37.7612 118.659 36.3257 119.616C34.8901 120.539 33.5059 121 32.1729 121L15.2026 121C13.8696 121 12.7246 120.539 11.7676 119.616C10.8105 118.659 10.332 117.514 10.332 116.181Z" fill="rgb(16.7995,16.7995,16.7995)" fill-rule="nonzero" />
	<path id="Ex max black (color) 13" d="M10.332 116.181L10.332 52.3501C10.332 50.9487 10.7935 49.7866 11.7163 48.8638C12.6392 47.9409 13.8013 47.4795 15.2026 47.4795L24.2261 47.4795C25.5591 47.4795 26.687 47.9409 27.6099 48.8638C28.5669 49.7866 29.0454 50.9146 29.0454 52.2476L29.0454 103.568L58.2178 52.3501C59.0039 51.0171 60.0806 49.8721 61.4478 48.915C62.8149 47.958 64.0796 47.4795 65.2417 47.4795L80.3662 47.4795C81.6992 47.4795 82.8271 47.958 83.75 48.915C84.6729 49.8721 85.1343 51.0171 85.1343 52.3501L85.1343 116.181C85.1343 117.514 84.6558 118.659 83.6987 119.616C82.7417 120.539 81.5967 121 80.2637 121L71.2402 121C69.9072 121 68.7622 120.539 67.8052 119.616C66.8823 118.659 66.4209 117.514 66.4209 116.181L66.4209 68.6025L39.6582 116.181C38.8721 117.514 37.7612 118.659 36.3257 119.616C34.8901 120.539 33.5059 121 32.1729 121L15.2026 121C13.8696 121 12.7246 120.539 11.7676 119.616C10.8105 118.659 10.332 117.514 10.332 116.181Z" fill="rgb(0,0,0)" fill-rule="nonzero" />
</svg>
