<svg viewBox="0 0 796.449 138.329" xmlns="http://www.w3.org/2000/svg" xmlns:xlink="http://www.w3.org/1999/xlink" width="796.448730" height="138.329102" fill="none" customFrame="#000000">
	<rect id="Ex max white 13" width="796.448730" height="138.329102" x="0.000000" y="0.000000" fill="rgb(255,255,255)" fill-opacity="0" />
	<path id="Ex max white 13" d="M3.87703 28.0155L1.02092 22.4802C0.331835 21.1446 0 19.7036 0 18.2889C0 15.2382 1.5429 12.3097 4.37392 10.8245C40.1818 -7.96054 74.0038 1.40645 91.4021 11.2102C93.7599 12.5388 95 14.8869 95 17.3762C95 18.6743 94.6627 20.0108 93.9708 21.2611C92.9314 23.1395 91.6076 25.505 89.942 28.4479C87.5114 32.7426 82.1589 34.1553 77.7864 32.0115C56.5322 21.5908 37.9312 21.5785 16.1367 31.9746C11.6439 34.1177 6.19225 32.5026 3.87703 28.0155ZM10.332 116.181L10.332 52.3501Q10.332 51.0457 10.8651 50.0177L10.8651 50.0176Q11.1911 49.389 11.7163 48.8638Q12.2416 48.3385 12.8702 48.0125Q13.8982 47.4795 15.2026 47.4795L24.2261 47.4795Q25.298 47.4795 26.1931 47.8773Q26.9677 48.2216 27.6099 48.8638Q28.3214 49.5499 28.6803 50.3873Q29.0454 51.2392 29.0454 52.2476L29.0454 103.568L58.2178 52.3501Q58.3271 52.1648 58.4438 51.9843Q59.587 50.2175 61.4478 48.915Q63.4985 47.4795 65.2417 47.4795L80.3662 47.4795Q81.3746 47.4795 82.2265 47.8446Q83.0638 48.2035 83.75 48.915Q84.4356 49.626 84.7817 50.4754Q85.1343 51.3409 85.1343 52.3501L85.1343 116.181Q85.1343 117.129 84.8117 117.95Q84.4538 118.861 83.6987 119.616Q82.9877 120.301 82.1383 120.647Q81.2728 121 80.2637 121L71.2402 121Q70.2311 121 69.3656 120.647Q68.5162 120.301 67.8052 119.616Q67.1196 118.905 66.7735 118.055Q66.4209 117.19 66.4209 116.181L66.4209 68.6025L39.6582 116.181Q38.479 118.18 36.3257 119.616Q34.1724 121 32.1729 121L15.2026 121Q14.1935 121 13.328 120.647Q12.4786 120.301 11.7676 119.616Q11.0125 118.861 10.6546 117.95Q10.332 117.129 10.332 116.181ZM173.111 113.515Q171.778 112.319 170.669 110.944Q165.164 104.118 165.164 92.853Q165.164 81.5514 170.705 74.7893Q171.799 73.453 173.111 72.2939Q181.109 65.27 196.233 64.8086L196.233 50.6582Q196.233 49.6974 196.653 48.9836Q196.838 48.669 197.105 48.4023Q197.474 48.0332 197.917 47.8117Q198.582 47.4795 199.412 47.4795L210.845 47.4795Q211.727 47.4795 212.4 47.8537Q212.785 48.0672 213.101 48.4023Q213.368 48.669 213.553 48.9836Q213.973 49.6974 213.973 50.6582L213.973 64.8086Q229.097 65.2188 237.044 72.2939Q238.415 73.4981 239.551 74.8936Q245.042 81.6382 245.042 92.853Q245.042 104.03 239.588 110.837Q238.437 112.273 237.044 113.515Q229.097 120.59 213.973 121L213.973 135.15Q213.973 136.032 213.598 136.705Q213.385 137.09 213.05 137.406Q212.682 137.796 212.232 138.021Q211.615 138.329 210.845 138.329L199.412 138.329Q198.582 138.329 197.917 137.997Q197.474 137.775 197.105 137.406Q196.838 137.14 196.653 136.825Q196.233 136.111 196.233 135.15L196.233 121Q181.109 120.59 173.111 113.515ZM258.271 114.643Q257.385 113.825 256.598 112.921L256.595 112.919Q250.273 105.667 250.273 92.9043Q250.273 80.0259 256.665 72.8012Q257.423 71.9438 258.271 71.166Q266.27 63.7832 281.24 63.7832Q296.262 63.7832 304.26 71.166Q305.109 71.9438 305.867 72.8012Q312.258 80.0259 312.258 92.9043Q312.258 105.667 305.936 112.919L305.934 112.921Q305.146 113.825 304.26 114.643Q296.262 122.025 281.24 122.025Q266.27 122.025 258.271 114.643ZM321.742 135.15L321.742 67.9873Q321.742 67.0265 322.162 66.3127Q322.347 65.998 322.614 65.7314Q323.042 65.3033 323.558 65.0738Q324.155 64.8086 324.87 64.8086L334.765 64.8086Q335.535 64.8086 336.151 65.1167Q336.601 65.3418 336.969 65.7314Q337.304 66.0479 337.518 66.4322Q337.892 67.1058 337.892 67.9873L337.892 69.5254Q340.291 67.8248 342.919 66.6279L342.92 66.6275Q349.167 63.7832 356.708 63.7832Q362.503 63.7832 367.263 66.0026Q371.305 67.8869 374.601 71.3711Q374.748 71.5252 374.892 71.6819L374.91 71.7026Q381.779 79.2149 381.779 93.0068Q381.779 106.177 375.245 113.579Q374.809 114.072 374.345 114.54Q372.771 116.124 370.966 117.373Q364.241 122.025 354.298 122.025Q347.787 122.025 339.481 119.411L339.481 135.15Q339.481 136.032 339.107 136.705Q338.894 137.09 338.559 137.406Q338.191 137.796 337.74 138.021Q337.124 138.329 336.354 138.329L324.87 138.329Q324.155 138.329 323.558 138.064Q323.042 137.834 322.614 137.406Q322.347 137.14 322.162 136.825Q321.742 136.111 321.742 135.15ZM483.24 117.309Q480.197 115.188 478.522 112.279Q476.473 108.719 476.473 103.979Q476.473 99.1772 478.576 95.6186Q480.245 92.7931 483.24 90.751Q490.059 86.1367 500.774 86.1367L517.745 86.1367Q517.745 80.1382 515.232 77.7798Q512.72 75.4214 506.414 75.4214Q500.244 75.4214 497.666 78.4644Q497.639 78.4962 497.613 78.5284L497.596 78.5488Q496.091 80.3912 494.163 81.1302Q492.873 81.625 491.392 81.625L483.753 81.625Q482.844 81.625 482.134 81.2491Q481.763 81.0526 481.446 80.7534Q481.088 80.3744 480.877 79.9261Q480.574 79.283 480.574 78.4976Q480.574 75.303 481.891 72.802Q486.641 63.7832 508.516 63.7832Q520.718 63.7832 528.101 69.269Q529.888 70.5844 531.243 72.2519Q535.484 77.4715 535.484 86.1367L535.484 117.873Q535.484 118.833 535.064 119.547L535.063 119.548Q534.878 119.862 534.612 120.128Q534.346 120.394 534.032 120.579L534.031 120.58Q533.317 121 532.356 121L522.461 121Q521.501 121 520.787 120.58L520.785 120.579Q520.472 120.394 520.206 120.128Q519.848 119.749 519.637 119.301Q519.334 118.658 519.334 117.873L519.334 116.283Q516.63 118.217 513.646 119.5Q507.691 122.06 500.621 122.025Q490.059 122.025 483.24 117.309ZM744.205 117.309Q741.162 115.188 739.487 112.279Q737.438 108.719 737.438 103.979Q737.438 99.1772 739.54 95.6186Q741.21 92.7931 744.205 90.751Q751.024 86.1367 761.739 86.1367L778.709 86.1367Q778.709 80.1382 776.197 77.7798Q773.685 75.4214 767.379 75.4214Q761.209 75.4214 758.631 78.4644Q758.595 78.5063 758.561 78.5488Q757.056 80.3912 755.128 81.1302Q753.837 81.625 752.357 81.625L744.718 81.625Q743.809 81.625 743.099 81.2491Q742.727 81.0526 742.411 80.7534Q742.053 80.3743 741.842 79.9261Q741.539 79.283 741.539 78.4976Q741.539 75.3031 742.856 72.802Q747.605 63.7832 769.481 63.7832Q781.683 63.7832 789.066 69.269Q790.853 70.5844 792.208 72.2519Q796.449 77.4715 796.449 86.1367L796.449 117.873Q796.449 118.833 796.029 119.547L796.028 119.548Q795.843 119.862 795.577 120.128Q795.311 120.394 794.997 120.579L794.996 120.58Q794.282 121 793.321 121L783.426 121Q782.465 121 781.752 120.58L781.75 120.579Q781.436 120.394 781.17 120.128Q780.812 119.749 780.601 119.301Q780.299 118.658 780.299 117.873L780.299 116.283Q777.595 118.217 774.61 119.5Q768.655 122.06 761.585 122.025Q751.024 122.025 744.205 117.309ZM98.8242 117.873L98.8242 67.9873Q98.8242 67.0265 99.2441 66.3127L99.2443 66.3124Q99.4293 65.9979 99.6958 65.7314Q100.124 65.3034 100.64 65.0738Q101.237 64.8086 101.952 64.8086L113.436 64.8086Q114.318 64.8086 114.991 65.1828Q115.375 65.3963 115.692 65.7314Q115.958 65.9979 116.143 66.3124L116.144 66.3127Q116.563 67.0265 116.563 67.9873L116.563 86.3418L139.02 86.3418L139.02 67.9873Q139.02 67.0265 139.439 66.3127Q139.625 65.998 139.891 65.7314Q140.26 65.3623 140.703 65.1408Q141.368 64.8086 142.198 64.8086L153.631 64.8086Q154.513 64.8086 155.186 65.1828Q155.571 65.3963 155.887 65.7314Q156.154 65.998 156.339 66.3127Q156.759 67.0265 156.759 67.9873L156.759 117.873Q156.759 118.833 156.339 119.547Q156.154 119.862 155.887 120.128Q155.621 120.395 155.306 120.58Q154.592 121 153.631 121L142.198 121Q141.289 121 140.579 120.624Q140.208 120.428 139.891 120.128Q139.533 119.749 139.322 119.301Q139.02 118.658 139.02 117.873L139.02 98.749L116.563 98.749L116.563 117.873Q116.563 118.754 116.189 119.428Q115.976 119.812 115.641 120.128Q115.32 120.449 114.938 120.651Q114.279 121 113.436 121L101.952 121Q100.991 121 100.277 120.58L100.277 120.58Q99.9623 120.395 99.6958 120.128Q99.4293 119.862 99.2443 119.547L99.2441 119.547Q98.8242 118.833 98.8242 117.873ZM391.266 117.873L391.266 67.9873Q391.266 67.0265 391.686 66.3127Q391.871 65.998 392.137 65.7314Q392.565 65.3033 393.082 65.0738Q393.679 64.8086 394.393 64.8086L412.03 64.8086Q412.828 64.8086 413.526 65.0728Q415.474 65.8098 416.644 68.6025L429.154 99.1592L441.664 68.6025Q442.833 65.8098 444.781 65.0728Q445.48 64.8086 446.278 64.8086L463.915 64.8086Q464.796 64.8086 465.47 65.1828Q465.854 65.3964 466.17 65.7314Q466.505 66.0479 466.719 66.4322Q467.093 67.1058 467.093 67.9873L467.093 117.873Q467.093 118.754 466.719 119.428Q466.505 119.812 466.17 120.128Q465.904 120.395 465.589 120.58Q464.875 121 463.915 121L452.789 121Q451.828 121 451.114 120.58Q450.8 120.395 450.533 120.128Q450.175 119.749 449.964 119.301Q449.662 118.658 449.662 117.873L449.662 85.8291L436.537 117.411Q435.508 119.734 433.77 120.554Q432.823 121 431.666 121L426.642 121Q425.543 121 424.633 120.584Q422.871 119.779 421.822 117.411L408.697 85.8291L408.697 117.873Q408.697 118.754 408.323 119.428Q408.109 119.812 407.774 120.128Q407.508 120.395 407.193 120.58Q406.479 121 405.519 121L394.393 121Q393.432 121 392.718 120.58Q392.404 120.395 392.137 120.128Q391.871 119.862 391.686 119.547Q391.266 118.833 391.266 117.873ZM541.844 74.0884L541.844 67.9873Q541.844 67.0265 542.264 66.3127L542.264 66.3117Q542.449 65.9977 542.715 65.7314Q543.084 65.3625 543.527 65.1408Q544.192 64.8086 545.022 64.8086L595.523 64.8086Q596.404 64.8086 597.078 65.1828Q597.462 65.3963 597.779 65.7314Q598.045 65.9977 598.23 66.3117L598.231 66.3127Q598.65 67.0265 598.65 67.9873L598.65 74.0884Q598.65 74.8738 598.348 75.5169Q598.137 75.9652 597.779 76.3442Q597.513 76.6103 597.199 76.7951L597.198 76.7959Q596.484 77.2158 595.523 77.2158L579.168 77.2158L579.168 117.873Q579.168 118.587 578.903 119.184Q578.673 119.7 578.245 120.128Q577.979 120.394 577.665 120.579L577.664 120.58Q576.95 121 575.989 121L564.556 121Q563.647 121 562.937 120.624Q562.566 120.428 562.249 120.128Q561.891 119.749 561.68 119.301Q561.377 118.658 561.377 117.873L561.377 77.2158L545.022 77.2158Q544.113 77.2158 543.403 76.8399Q543.032 76.6434 542.715 76.3442Q542.357 75.9652 542.146 75.5169Q541.844 74.8738 541.844 74.0884ZM606.082 117.873L606.082 67.9873Q606.082 67.0265 606.502 66.3127L606.503 66.3117Q606.687 65.9977 606.954 65.7314Q607.381 65.3036 607.898 65.0738Q608.495 64.8086 609.209 64.8086L619.925 64.8086Q620.806 64.8086 621.48 65.1828Q621.864 65.3963 622.181 65.7314Q622.516 66.048 622.729 66.4322Q623.104 67.1058 623.104 67.9873L623.104 101.671L641.15 68.5Q641.288 68.2325 641.451 67.981Q642.255 66.7381 643.663 65.8853Q645.354 64.8086 646.944 64.8086L661.299 64.8086Q662.181 64.8086 662.854 65.1828Q663.239 65.3963 663.555 65.7314Q663.89 66.048 664.104 66.4322Q664.478 67.1058 664.478 67.9873L664.478 117.873Q664.478 118.754 664.104 119.428Q663.89 119.812 663.555 120.128Q663.289 120.394 662.975 120.579L662.974 120.58Q662.26 121 661.299 121L650.584 121Q649.623 121 648.909 120.58L648.908 120.579Q648.594 120.394 648.328 120.128Q647.97 119.749 647.759 119.301Q647.457 118.658 647.457 117.873L647.457 84.2397L629.41 117.309Q628.589 118.795 626.897 119.923Q625.206 121 623.616 121L609.209 121Q608.249 121 607.535 120.58L607.533 120.579Q607.22 120.394 606.954 120.128Q606.687 119.862 606.503 119.548L606.502 119.547Q606.082 118.833 606.082 117.873ZM733.692 118.744Q733.692 119.685 733.228 120.234Q732.58 121 731.026 121L721.336 121Q719.557 121 718.039 120.37Q715.358 119.258 713.492 116.181L706.98 105.568Q704.872 102.147 701.808 100.442Q698.764 98.749 694.778 98.749L694.778 117.873Q694.778 118.754 694.404 119.428Q694.191 119.812 693.855 120.128Q693.535 120.449 693.152 120.651Q692.494 121 691.651 121L680.167 121Q679.206 121 678.492 120.58L678.49 120.579Q678.177 120.394 677.911 120.128Q677.644 119.862 677.46 119.548L677.459 119.547Q677.039 118.833 677.039 117.873L677.039 67.9873Q677.039 67.0265 677.459 66.3127L677.46 66.3117Q677.644 65.9977 677.911 65.7314Q678.339 65.3036 678.855 65.0738Q679.452 64.8086 680.167 64.8086L691.651 64.8086Q692.532 64.8086 693.206 65.1828Q693.59 65.3963 693.907 65.7314Q694.173 65.9977 694.358 66.3117L694.358 66.3127Q694.778 67.0265 694.778 67.9873L694.778 87.0596Q700.409 87.0596 703.793 84.3023Q705.77 82.691 706.98 80.1382L711.902 69.6792Q712.456 68.4888 713.294 67.5524Q714.007 66.7548 714.927 66.1416Q716.169 65.3141 717.528 65.0003L717.53 64.9999Q718.36 64.8086 719.234 64.8086L728.924 64.8086Q730.518 64.8086 731.12 65.5815Q731.487 66.0518 731.487 66.8081Q731.487 67.936 730.667 69.6792L724.053 83.6245Q723.15 85.4849 721.897 87.0679L721.896 87.0695Q720.801 88.4521 719.439 89.623Q716.749 91.9352 713.669 92.7273Q713.402 92.7959 713.133 92.853Q713.203 92.8741 713.273 92.8959Q719.49 94.8315 724.053 102.082L732.769 116.181Q733.641 117.667 733.692 118.744ZM271.243 79.5742Q268.064 83.7271 268.064 92.853Q268.064 101.979 271.243 106.183Q271.87 107.013 272.639 107.679Q275.767 110.387 281.24 110.387Q286.806 110.387 289.95 107.627L289.951 107.627Q290.686 106.98 291.289 106.183Q294.519 101.979 294.519 92.853Q294.519 83.7271 291.289 79.5742Q290.722 78.8328 290.036 78.2237Q286.884 75.4214 281.24 75.4214Q275.69 75.4214 272.552 78.1724Q271.834 78.8016 271.243 79.5742ZM186.236 80.1382Q182.903 84.1372 182.903 92.853Q182.903 101.569 186.236 105.619Q186.72 106.198 187.276 106.697Q190.61 109.684 196.541 109.772L196.541 76.0366Q190.522 76.1258 187.178 79.1615Q186.677 79.6167 186.236 80.1382ZM213.665 109.772Q219.607 109.684 222.903 106.687Q223.447 106.193 223.919 105.619Q227.303 101.569 227.303 92.853Q227.303 84.1372 223.919 80.1895Q223.507 79.6955 223.041 79.2602Q219.732 76.1714 213.665 76.0366L213.665 109.772ZM339.481 107.567Q346.095 109.669 350.607 109.669Q356.773 109.669 359.779 106.587L359.779 106.587Q360.197 106.158 360.553 105.67Q363.527 101.671 363.527 92.9043Q363.527 84.1372 360.707 80.1895Q359.761 78.8223 358.485 77.9226Q356.028 76.1904 352.35 76.1904Q346.813 76.1904 339.481 80.8047L339.481 107.567ZM502.005 97.7749Q498.416 97.7749 496.314 99.5181Q495.371 100.32 494.861 101.339Q494.263 102.535 494.263 104.03Q494.263 105.367 494.765 106.476Q495.303 107.665 496.417 108.593Q498.57 110.387 502.518 110.387Q504.143 110.387 505.745 110.192L505.747 110.191Q511.924 109.436 517.745 105.773L517.745 97.7749L502.005 97.7749ZM762.97 97.7749Q759.381 97.7749 757.279 99.5181Q756.335 100.32 755.826 101.339Q755.228 102.535 755.228 104.03Q755.228 105.367 755.73 106.476Q756.268 107.665 757.381 108.593Q759.535 110.387 763.482 110.387Q765.109 110.387 766.712 110.191Q772.889 109.436 778.709 105.773L778.709 97.7749L762.97 97.7749Z" fill="rgb(255,255,255)" fill-rule="evenodd" />
</svg>
