<svg viewBox="0 0 543.202 122.026" xmlns="http://www.w3.org/2000/svg" xmlns:xlink="http://www.w3.org/1999/xlink" width="543.201660" height="122.025879" fill="none" customFrame="#000000">
	<rect id="Ex max white 15" width="543.201660" height="122.025841" x="0.000000" y="0.000000" fill="rgb(255,255,255)" fill-opacity="0" />
	<path id="Ex max white 15" d="M6.545 28.0155L3.68889 22.4802C2.9998 21.1446 2.66797 19.7036 2.66797 18.2889C2.66797 15.2382 4.21087 12.3097 7.04188 10.8245C42.8498 -7.96054 76.6718 1.40645 94.0701 11.2102C96.4279 12.5388 97.668 14.8869 97.668 17.3762C97.668 18.6743 97.3307 20.0108 96.6388 21.2611C95.5994 23.1395 94.2756 25.505 92.61 28.4479C90.1794 32.7426 84.8268 34.1553 80.4544 32.0115C59.2002 21.5908 40.5992 21.5785 18.8047 31.9746C14.3118 34.1177 8.86022 32.5026 6.545 28.0155ZM0 116.181L0 52.3501Q0 51.4023 0.322567 50.5812L0.322578 50.5812Q0.680497 49.6701 1.43555 48.915Q2.1906 48.16 3.10166 47.8021Q3.92277 47.4795 4.87061 47.4795L14.5093 47.4795Q15.5812 47.4795 16.4763 47.8773Q17.2509 48.2216 17.8931 48.8638Q18.6046 49.5499 18.9635 50.3873Q19.3286 51.2392 19.3286 52.2476L19.3286 106.491L41.7847 106.491L41.7847 52.2476Q41.7847 51.2392 42.1498 50.3873Q42.5086 49.5499 43.2202 48.8638Q43.9312 48.1782 44.7806 47.8321Q45.6461 47.4795 46.6553 47.4795L56.2939 47.4795Q57.3023 47.4795 58.1542 47.8446Q58.9916 48.2035 59.6777 48.915Q60.4328 49.6701 60.7907 50.5812Q61.1133 51.4023 61.1133 52.3501L61.1133 106.491L83.6206 106.491L83.6206 52.2476Q83.6206 51.1757 84.0184 50.2806Q84.3627 49.5059 85.0049 48.8638Q85.7159 48.1781 86.5653 47.8321Q87.4308 47.4795 88.4399 47.4795L98.0786 47.4795Q99.087 47.4795 99.9389 47.8446Q100.776 48.2035 101.462 48.915Q102.217 49.6701 102.575 50.5812Q102.898 51.4023 102.898 52.3501L102.898 116.181Q102.898 117.129 102.575 117.95Q102.217 118.861 101.462 119.616Q100.82 120.258 100.046 120.602Q99.1505 121 98.0786 121L4.87061 121Q3.86145 121 2.99593 120.647Q2.14656 120.301 1.43555 119.616Q0.680497 118.861 0.322578 117.95Q0 117.129 0 116.181ZM120.174 117.309Q117.131 115.188 115.456 112.279Q113.406 108.719 113.406 103.979Q113.406 99.1773 115.509 95.6186Q117.179 92.7931 120.174 90.751Q126.993 86.1367 137.708 86.1367L154.678 86.1367Q154.678 80.1382 152.166 77.7798Q149.654 75.4214 143.348 75.4214Q137.178 75.4214 134.6 78.4644Q134.564 78.5063 134.529 78.5488Q133.025 80.3913 131.097 81.1302Q129.806 81.625 128.326 81.625L120.687 81.625Q119.777 81.625 119.067 81.2491Q118.696 81.0526 118.379 80.7534Q118.021 80.3743 117.81 79.9261Q117.508 79.283 117.508 78.4976Q117.508 75.303 118.825 72.802Q123.574 63.7832 145.45 63.7832Q157.652 63.7832 165.035 69.269Q166.822 70.5847 168.177 72.2519Q172.417 77.4715 172.417 86.1367L172.417 117.873Q172.417 118.833 171.998 119.547Q171.812 119.862 171.546 120.128Q171.279 120.395 170.965 120.58Q170.251 121 169.29 121L159.395 121Q158.434 121 157.72 120.58Q157.406 120.395 157.139 120.128Q156.781 119.749 156.57 119.301Q156.268 118.658 156.268 117.873L156.268 116.283Q153.564 118.217 150.58 119.5L150.579 119.5Q144.624 122.06 137.554 122.025Q126.993 122.025 120.174 117.309ZM342.584 117.309Q339.541 115.188 337.866 112.279Q335.816 108.719 335.816 103.979Q335.816 99.1772 337.919 95.6186Q339.589 92.7931 342.584 90.751Q349.403 86.1367 360.118 86.1367L377.088 86.1367Q377.088 80.1382 374.576 77.7798Q372.064 75.4214 365.758 75.4214Q359.588 75.4214 357.01 78.4644Q356.983 78.4962 356.956 78.5284L356.939 78.5488Q355.435 80.3912 353.507 81.1302Q352.216 81.625 350.736 81.625L343.097 81.625Q342.188 81.625 341.477 81.2491Q341.106 81.0526 340.79 80.7534Q340.432 80.3744 340.221 79.9261Q339.918 79.283 339.918 78.4976Q339.918 75.303 341.235 72.802Q345.984 63.7832 367.86 63.7832Q380.062 63.7832 387.445 69.269Q389.232 70.5847 390.587 72.2519Q394.828 77.4715 394.828 86.1367L394.828 117.873Q394.828 118.833 394.408 119.547Q394.223 119.862 393.956 120.128Q393.689 120.395 393.375 120.58Q392.661 121 391.7 121L381.805 121Q380.844 121 380.131 120.58Q379.816 120.395 379.549 120.128Q379.191 119.749 378.98 119.301Q378.678 118.658 378.678 117.873L378.678 116.283Q375.974 118.217 372.989 119.5Q367.034 122.06 359.964 122.025Q349.403 122.025 342.584 117.309ZM180.572 119.411Q180.367 118.898 180.367 118.18Q180.367 117.411 181.188 116.488L199.029 92.853L182.367 69.3203Q181.492 68.1719 181.492 67.1693Q181.492 66.983 181.522 66.8017Q181.634 66.1294 182.162 65.5264Q182.319 65.3422 182.511 65.2053L182.511 65.2051Q183.066 64.8086 183.905 64.8086L195.03 64.8086Q197.025 64.8086 198.707 65.5347Q201.217 66.6186 203.028 69.3203L211.539 82.2402L220.05 69.3203Q221.861 66.6186 224.371 65.5347Q226.053 64.8086 228.048 64.8086L239.173 64.8086Q240.012 64.8086 240.567 65.2051L240.567 65.2053Q240.759 65.3422 240.917 65.5264Q241.444 66.1294 241.556 66.8017Q241.586 66.983 241.586 67.1693Q241.586 68.1719 240.711 69.3203L224.049 92.853L241.891 116.488Q242.711 117.411 242.711 118.231Q242.711 119 242.506 119.411Q242.325 120.111 241.875 120.503Q241.305 121 240.301 121L229.381 121Q227.956 121 226.662 120.588Q223.673 119.637 221.383 116.488L211.539 103.158L201.644 116.488Q199.418 119.598 196.485 120.564Q195.163 121 193.697 121L182.777 121Q181.773 121 181.203 120.503Q180.753 120.111 180.572 119.411ZM250.605 117.873L250.605 67.9873Q250.605 67.0265 251.025 66.3127Q251.21 65.998 251.477 65.7314Q251.905 65.3033 252.422 65.0738Q253.018 64.8086 253.733 64.8086L271.37 64.8086Q272.168 64.8086 272.866 65.0728Q274.814 65.8098 275.984 68.6025L288.494 99.1592L301.003 68.6025Q302.173 65.8098 304.121 65.0728Q304.819 64.8086 305.618 64.8086L323.254 64.8086Q324.136 64.8086 324.809 65.1828Q325.194 65.3964 325.51 65.7314Q325.845 66.0479 326.059 66.4322Q326.433 67.1058 326.433 67.9873L326.433 117.873Q326.433 118.754 326.059 119.428Q325.845 119.812 325.51 120.128Q325.244 120.395 324.929 120.58Q324.215 121 323.254 121L312.129 121Q311.168 121 310.454 120.58Q310.14 120.395 309.873 120.128Q309.515 119.749 309.304 119.301Q309.001 118.658 309.001 117.873L309.001 85.8291L295.876 117.411Q294.848 119.734 293.11 120.554Q292.163 121 291.006 121L285.981 121Q284.882 121 283.973 120.584Q282.211 119.779 281.162 117.411L268.037 85.8291L268.037 117.873Q268.037 118.754 267.663 119.428Q267.449 119.812 267.114 120.128Q266.848 120.395 266.533 120.58Q265.819 121 264.858 121L253.733 121Q252.772 121 252.058 120.58Q251.744 120.395 251.477 120.128Q251.21 119.862 251.025 119.547Q250.605 118.833 250.605 117.873ZM401.184 74.0884L401.184 67.9873Q401.184 67.0265 401.603 66.3127Q401.789 65.998 402.055 65.7314Q402.424 65.3623 402.867 65.1408Q403.532 64.8086 404.362 64.8086L454.863 64.8086Q455.744 64.8086 456.418 65.1828Q456.802 65.3964 457.119 65.7314Q457.385 65.998 457.57 66.3127Q457.99 67.0265 457.99 67.9873L457.99 74.0884Q457.99 74.8738 457.688 75.5169Q457.477 75.9652 457.119 76.3442Q456.852 76.6109 456.537 76.7959Q455.824 77.2158 454.863 77.2158L438.508 77.2158L438.508 117.873Q438.508 118.587 438.243 119.184Q438.013 119.7 437.585 120.128Q437.318 120.395 437.004 120.58Q436.29 121 435.329 121L423.896 121Q422.987 121 422.277 120.624Q421.906 120.428 421.589 120.128Q421.231 119.749 421.02 119.301Q420.717 118.658 420.717 117.873L420.717 77.2158L404.362 77.2158Q403.453 77.2158 402.743 76.8399Q402.372 76.6434 402.055 76.3442Q401.697 75.9652 401.486 75.5169Q401.184 74.8738 401.184 74.0884ZM465.426 117.873L465.426 67.9873Q465.426 67.0265 465.846 66.3127Q466.031 65.998 466.297 65.7314Q466.725 65.3033 467.242 65.0738Q467.839 64.8086 468.553 64.8086L480.038 64.8086Q480.919 64.8086 481.593 65.1828Q481.977 65.3964 482.293 65.7314Q482.56 65.998 482.745 66.3127Q483.165 67.0265 483.165 67.9873L483.165 83.4194L495.367 83.4194Q506.288 83.4194 512.235 87.7261Q513.132 88.3703 513.895 89.1465L513.896 89.1476Q518.233 93.5601 518.233 102.235Q518.233 110.822 513.941 115.227Q513.159 116.03 512.235 116.693Q506.288 121 495.367 121L468.553 121Q467.592 121 466.879 120.58Q466.564 120.395 466.297 120.128Q466.031 119.862 465.846 119.547Q465.426 118.833 465.426 117.873ZM525.462 117.873L525.462 67.9873Q525.462 67.0265 525.882 66.3127L525.883 66.3117Q526.068 65.9977 526.334 65.7314Q526.703 65.3625 527.146 65.1408Q527.811 64.8086 528.641 64.8086L540.074 64.8086Q540.956 64.8086 541.629 65.1828Q542.013 65.3963 542.33 65.7314Q542.596 65.9977 542.781 66.3117L542.782 66.3127Q543.202 67.0265 543.202 67.9873L543.202 117.873Q543.202 118.833 542.782 119.547L542.781 119.548Q542.596 119.862 542.33 120.128Q542.064 120.394 541.75 120.579L541.749 120.58Q541.035 121 540.074 121L528.641 121Q527.732 121 527.022 120.624Q526.651 120.428 526.334 120.128Q526.068 119.862 525.883 119.548L525.882 119.547Q525.462 118.833 525.462 117.873ZM482.857 109.567L493.778 109.567Q496.842 109.567 498.509 108.04Q500.494 106.222 500.494 102.235Q500.494 98.1957 498.483 96.3664Q496.819 94.8525 493.778 94.8525L482.857 94.8525L482.857 109.567ZM138.938 97.7749Q135.35 97.7749 133.248 99.5181Q132.304 100.32 131.795 101.339Q131.197 102.535 131.197 104.03Q131.197 105.367 131.699 106.476Q132.236 107.665 133.35 108.593Q135.503 110.387 139.451 110.387Q141.077 110.387 142.678 110.192L142.681 110.191Q148.857 109.436 154.678 105.773L154.678 97.7749L138.938 97.7749ZM361.349 97.7749Q357.76 97.7749 355.658 99.5181Q354.714 100.32 354.205 101.339Q353.607 102.535 353.607 104.03Q353.607 105.367 354.109 106.476Q354.647 107.665 355.76 108.593Q357.914 110.387 361.861 110.387Q363.487 110.387 365.089 110.192L365.091 110.191Q371.268 109.436 377.088 105.773L377.088 97.7749L361.349 97.7749Z" fill="rgb(255,255,255)" fill-rule="evenodd" />
</svg>
