<svg viewBox="0 0 543.201 122.026" xmlns="http://www.w3.org/2000/svg" xmlns:xlink="http://www.w3.org/1999/xlink" width="543.201172" height="122.025879" fill="none" customFrame="#000000">
	<rect id="Ex max black (color) 15" width="543.201660" height="122.025841" x="0.000000" y="0.000000" fill="rgb(255,255,255)" fill-opacity="0" />
	<path id="Ex max black (color) 15" d="M6.545 28.0155L3.68889 22.4802C1.51394 18.2649 2.89796 12.9984 7.04188 10.8245C42.8498 -7.96054 76.6718 1.40645 94.0701 11.2102C97.6575 13.2316 98.6574 17.6134 96.6388 21.2611C95.5994 23.1395 94.2756 25.505 92.61 28.4479C90.1794 32.7426 84.8268 34.1553 80.4544 32.0115C59.2002 21.5908 40.5992 21.5785 18.8047 31.9746C14.3118 34.1177 8.86022 32.5026 6.545 28.0155Z" fill="rgb(111,90,76)" fill-rule="evenodd" />
	<path id="Ex max black (color) 15" d="M465.426 117.873L465.426 67.9873C465.426 67.0645 465.716 66.3125 466.297 65.7314C466.913 65.1162 467.665 64.8086 468.553 64.8086L480.038 64.8086C480.96 64.8086 481.712 65.1162 482.293 65.7314C482.875 66.3125 483.165 67.0645 483.165 67.9873L483.165 83.4194L495.367 83.4194C502.647 83.4194 508.27 84.855 512.235 87.7261C516.234 90.5972 518.233 95.4336 518.233 102.235C518.233 109.003 516.234 113.822 512.235 116.693C508.27 119.564 502.647 121 495.367 121L468.553 121C467.63 121 466.878 120.709 466.297 120.128C465.716 119.547 465.426 118.795 465.426 117.873ZM482.857 109.567L493.778 109.567C498.255 109.567 500.494 107.123 500.494 102.235C500.494 97.3135 498.255 94.8525 493.778 94.8525L482.857 94.8525L482.857 109.567ZM525.462 117.873L525.462 67.9873C525.462 67.0645 525.753 66.3125 526.334 65.7314C526.949 65.1162 527.718 64.8086 528.641 64.8086L540.074 64.8086C540.997 64.8086 541.749 65.1162 542.33 65.7314C542.911 66.3125 543.202 67.0645 543.202 67.9873L543.202 117.873C543.202 118.795 542.911 119.547 542.33 120.128C541.749 120.709 540.997 121 540.074 121L528.641 121C527.718 121 526.949 120.709 526.334 120.128C525.753 119.547 525.462 118.795 525.462 117.873Z" fill="rgb(111,90,76)" fill-rule="nonzero" />
	<path id="Ex max black (color) 15" d="M465.426 117.873L465.426 67.9873C465.426 67.0645 465.716 66.3125 466.297 65.7314C466.913 65.1162 467.665 64.8086 468.553 64.8086L480.038 64.8086C480.96 64.8086 481.712 65.1162 482.293 65.7314C482.875 66.3125 483.165 67.0645 483.165 67.9873L483.165 83.4194L495.367 83.4194C502.647 83.4194 508.27 84.855 512.235 87.7261C516.234 90.5972 518.233 95.4336 518.233 102.235C518.233 109.003 516.234 113.822 512.235 116.693C508.27 119.564 502.647 121 495.367 121L468.553 121C467.63 121 466.878 120.709 466.297 120.128C465.716 119.547 465.426 118.795 465.426 117.873ZM482.857 109.567L493.778 109.567C498.255 109.567 500.494 107.123 500.494 102.235C500.494 97.3135 498.255 94.8525 493.778 94.8525L482.857 94.8525L482.857 109.567ZM525.462 117.873L525.462 67.9873C525.462 67.0645 525.753 66.3125 526.334 65.7314C526.949 65.1162 527.718 64.8086 528.641 64.8086L540.074 64.8086C540.997 64.8086 541.749 65.1162 542.33 65.7314C542.911 66.3125 543.202 67.0645 543.202 67.9873L543.202 117.873C543.202 118.795 542.911 119.547 542.33 120.128C541.749 120.709 540.997 121 540.074 121L528.641 121C527.718 121 526.949 120.709 526.334 120.128C525.753 119.547 525.462 118.795 525.462 117.873Z" fill="rgb(0,0,0)" fill-rule="nonzero" />
	<path id="Ex max black (color) 15" d="M401.184 74.0884L401.184 67.9873C401.184 67.0645 401.474 66.3125 402.055 65.7314C402.67 65.1162 403.439 64.8086 404.362 64.8086L454.863 64.8086C455.786 64.8086 456.538 65.1162 457.119 65.7314C457.7 66.3125 457.99 67.0645 457.99 67.9873L457.99 74.0884C457.99 74.9771 457.7 75.729 457.119 76.3442C456.538 76.9253 455.786 77.2158 454.863 77.2158L438.508 77.2158L438.508 117.873C438.508 118.761 438.2 119.513 437.585 120.128C437.004 120.709 436.252 121 435.329 121L423.896 121C422.973 121 422.204 120.709 421.589 120.128C421.008 119.513 420.717 118.761 420.717 117.873L420.717 77.2158L404.362 77.2158C403.439 77.2158 402.67 76.9253 402.055 76.3442C401.474 75.729 401.184 74.9771 401.184 74.0884Z" fill="rgb(111,90,76)" fill-rule="nonzero" />
	<path id="Ex max black (color) 15" d="M401.184 74.0884L401.184 67.9873C401.184 67.0645 401.474 66.3125 402.055 65.7314C402.67 65.1162 403.439 64.8086 404.362 64.8086L454.863 64.8086C455.786 64.8086 456.538 65.1162 457.119 65.7314C457.7 66.3125 457.99 67.0645 457.99 67.9873L457.99 74.0884C457.99 74.9771 457.7 75.729 457.119 76.3442C456.538 76.9253 455.786 77.2158 454.863 77.2158L438.508 77.2158L438.508 117.873C438.508 118.761 438.2 119.513 437.585 120.128C437.004 120.709 436.252 121 435.329 121L423.896 121C422.973 121 422.204 120.709 421.589 120.128C421.008 119.513 420.717 118.761 420.717 117.873L420.717 77.2158L404.362 77.2158C403.439 77.2158 402.67 76.9253 402.055 76.3442C401.474 75.729 401.184 74.9771 401.184 74.0884Z" fill="rgb(0,0,0)" fill-rule="nonzero" />
	<path id="Ex max black (color) 15" d="M342.584 117.309C338.072 114.164 335.816 109.721 335.816 103.979C335.816 98.2363 338.072 93.8271 342.584 90.751C347.13 87.6748 352.975 86.1367 360.118 86.1367L377.088 86.1367C377.088 82.1377 376.251 79.3521 374.576 77.7798C372.901 76.2075 369.962 75.4214 365.758 75.4214C361.588 75.4214 358.648 76.4639 356.939 78.5488C355.265 80.5996 353.197 81.625 350.736 81.625L343.097 81.625C342.174 81.625 341.405 81.3345 340.79 80.7534C340.208 80.1382 339.918 79.3862 339.918 78.4976C339.918 68.688 349.232 63.7832 367.86 63.7832C375.995 63.7832 382.523 65.6118 387.445 69.269C392.367 72.8921 394.828 78.5146 394.828 86.1367L394.828 117.873C394.828 118.795 394.537 119.547 393.956 120.128C393.375 120.709 392.623 121 391.7 121L381.805 121C380.882 121 380.13 120.709 379.549 120.128C378.968 119.513 378.678 118.761 378.678 117.873L378.678 116.283C373.277 120.146 367.04 122.06 359.964 122.025C352.923 122.025 347.13 120.453 342.584 117.309ZM361.349 97.7749C358.956 97.7749 357.059 98.356 355.658 99.5181C354.291 100.68 353.607 102.184 353.607 104.03C353.607 105.875 354.325 107.396 355.76 108.593C357.196 109.789 359.229 110.387 361.861 110.387C367.125 110.387 372.201 108.849 377.088 105.773L377.088 97.7749L361.349 97.7749Z" fill="rgb(111,90,76)" fill-rule="nonzero" />
	<path id="Ex max black (color) 15" d="M342.584 117.309C338.072 114.164 335.816 109.721 335.816 103.979C335.816 98.2363 338.072 93.8271 342.584 90.751C347.13 87.6748 352.975 86.1367 360.118 86.1367L377.088 86.1367C377.088 82.1377 376.251 79.3521 374.576 77.7798C372.901 76.2075 369.962 75.4214 365.758 75.4214C361.588 75.4214 358.648 76.4639 356.939 78.5488C355.265 80.5996 353.197 81.625 350.736 81.625L343.097 81.625C342.174 81.625 341.405 81.3345 340.79 80.7534C340.208 80.1382 339.918 79.3862 339.918 78.4976C339.918 68.688 349.232 63.7832 367.86 63.7832C375.995 63.7832 382.523 65.6118 387.445 69.269C392.367 72.8921 394.828 78.5146 394.828 86.1367L394.828 117.873C394.828 118.795 394.537 119.547 393.956 120.128C393.375 120.709 392.623 121 391.7 121L381.805 121C380.882 121 380.13 120.709 379.549 120.128C378.968 119.513 378.678 118.761 378.678 117.873L378.678 116.283C373.277 120.146 367.04 122.06 359.964 122.025C352.923 122.025 347.13 120.453 342.584 117.309ZM361.349 97.7749C358.956 97.7749 357.059 98.356 355.658 99.5181C354.291 100.68 353.607 102.184 353.607 104.03C353.607 105.875 354.325 107.396 355.76 108.593C357.196 109.789 359.229 110.387 361.861 110.387C367.125 110.387 372.201 108.849 377.088 105.773L377.088 97.7749L361.349 97.7749Z" fill="rgb(0,0,0)" fill-rule="nonzero" />
	<path id="Ex max black (color) 15" d="M250.605 117.873L250.605 67.9873C250.605 67.0645 250.896 66.3125 251.477 65.7314C252.092 65.1162 252.844 64.8086 253.733 64.8086L271.37 64.8086C273.386 64.8086 274.924 66.0732 275.984 68.6025L288.494 99.1592L301.003 68.6025C302.063 66.0732 303.601 64.8086 305.618 64.8086L323.254 64.8086C324.177 64.8086 324.929 65.1162 325.51 65.7314C326.125 66.3125 326.433 67.0645 326.433 67.9873L326.433 117.873C326.433 118.795 326.125 119.547 325.51 120.128C324.929 120.709 324.177 121 323.254 121L312.129 121C311.206 121 310.454 120.709 309.873 120.128C309.292 119.513 309.001 118.761 309.001 117.873L309.001 85.8291L295.876 117.411C294.817 119.804 293.193 121 291.006 121L285.981 121C283.828 121 282.222 119.804 281.162 117.411L268.037 85.8291L268.037 117.873C268.037 118.795 267.729 119.547 267.114 120.128C266.533 120.709 265.781 121 264.858 121L253.733 121C252.81 121 252.058 120.709 251.477 120.128C250.896 119.547 250.605 118.795 250.605 117.873Z" fill="rgb(111,90,76)" fill-rule="nonzero" />
	<path id="Ex max black (color) 15" d="M250.605 117.873L250.605 67.9873C250.605 67.0645 250.896 66.3125 251.477 65.7314C252.092 65.1162 252.844 64.8086 253.733 64.8086L271.37 64.8086C273.386 64.8086 274.924 66.0732 275.984 68.6025L288.494 99.1592L301.003 68.6025C302.063 66.0732 303.601 64.8086 305.618 64.8086L323.254 64.8086C324.177 64.8086 324.929 65.1162 325.51 65.7314C326.125 66.3125 326.433 67.0645 326.433 67.9873L326.433 117.873C326.433 118.795 326.125 119.547 325.51 120.128C324.929 120.709 324.177 121 323.254 121L312.129 121C311.206 121 310.454 120.709 309.873 120.128C309.292 119.513 309.001 118.761 309.001 117.873L309.001 85.8291L295.876 117.411C294.817 119.804 293.193 121 291.006 121L285.981 121C283.828 121 282.222 119.804 281.162 117.411L268.037 85.8291L268.037 117.873C268.037 118.795 267.729 119.547 267.114 120.128C266.533 120.709 265.781 121 264.858 121L253.733 121C252.81 121 252.058 120.709 251.477 120.128C250.896 119.547 250.605 118.795 250.605 117.873Z" fill="rgb(0,0,0)" fill-rule="nonzero" />
	<path id="Ex max black (color) 15" d="M180.572 119.411C180.436 119.069 180.367 118.659 180.367 118.18C180.367 117.667 180.641 117.104 181.188 116.488L199.029 92.853L182.367 69.3203C181.273 67.8848 181.205 66.6201 182.162 65.5264C182.572 65.0479 183.153 64.8086 183.905 64.8086L195.03 64.8086C198.346 64.8086 201.012 66.3125 203.028 69.3203L211.539 82.2402L220.05 69.3203C222.066 66.3125 224.732 64.8086 228.048 64.8086L239.173 64.8086C239.925 64.8086 240.506 65.0479 240.917 65.5264C241.874 66.6201 241.805 67.8848 240.711 69.3203L224.049 92.853L241.891 116.488C242.438 117.104 242.711 117.685 242.711 118.231C242.711 118.744 242.643 119.137 242.506 119.411C242.232 120.47 241.498 121 240.301 121L229.381 121C226.236 121 223.57 119.496 221.383 116.488L211.539 103.158L201.644 116.488C199.491 119.496 196.842 121 193.697 121L182.777 121C181.581 121 180.846 120.47 180.572 119.411Z" fill="rgb(111,90,76)" fill-rule="nonzero" />
	<path id="Ex max black (color) 15" d="M180.572 119.411C180.436 119.069 180.367 118.659 180.367 118.18C180.367 117.667 180.641 117.104 181.188 116.488L199.029 92.853L182.367 69.3203C181.273 67.8848 181.205 66.6201 182.162 65.5264C182.572 65.0479 183.153 64.8086 183.905 64.8086L195.03 64.8086C198.346 64.8086 201.012 66.3125 203.028 69.3203L211.539 82.2402L220.05 69.3203C222.066 66.3125 224.732 64.8086 228.048 64.8086L239.173 64.8086C239.925 64.8086 240.506 65.0479 240.917 65.5264C241.874 66.6201 241.805 67.8848 240.711 69.3203L224.049 92.853L241.891 116.488C242.438 117.104 242.711 117.685 242.711 118.231C242.711 118.744 242.643 119.137 242.506 119.411C242.232 120.47 241.498 121 240.301 121L229.381 121C226.236 121 223.57 119.496 221.383 116.488L211.539 103.158L201.644 116.488C199.491 119.496 196.842 121 193.697 121L182.777 121C181.581 121 180.846 120.47 180.572 119.411Z" fill="rgb(0,0,0)" fill-rule="nonzero" />
	<path id="Ex max black (color) 15" d="M120.174 117.309C115.662 114.164 113.406 109.721 113.406 103.979C113.406 98.2363 115.662 93.8271 120.174 90.751C124.72 87.6748 130.564 86.1367 137.708 86.1367L154.678 86.1367C154.678 82.1377 153.841 79.3521 152.166 77.7798C150.491 76.2075 147.552 75.4214 143.348 75.4214C139.178 75.4214 136.238 76.4639 134.529 78.5488C132.854 80.5996 130.787 81.625 128.326 81.625L120.687 81.625C119.764 81.625 118.995 81.3345 118.379 80.7534C117.798 80.1382 117.508 79.3862 117.508 78.4976C117.508 68.688 126.822 63.7832 145.45 63.7832C153.584 63.7832 160.113 65.6118 165.035 69.269C169.957 72.8921 172.417 78.5146 172.417 86.1367L172.417 117.873C172.417 118.795 172.127 119.547 171.546 120.128C170.965 120.709 170.213 121 169.29 121L159.395 121C158.472 121 157.72 120.709 157.139 120.128C156.558 119.513 156.268 118.761 156.268 117.873L156.268 116.283C150.867 120.146 144.629 122.06 137.554 122.025C130.513 122.025 124.72 120.453 120.174 117.309ZM138.938 97.7749C136.546 97.7749 134.649 98.356 133.248 99.5181C131.88 100.68 131.197 102.184 131.197 104.03C131.197 105.875 131.915 107.396 133.35 108.593C134.786 109.789 136.819 110.387 139.451 110.387C144.715 110.387 149.791 108.849 154.678 105.773L154.678 97.7749L138.938 97.7749Z" fill="rgb(111,90,76)" fill-rule="nonzero" />
	<path id="Ex max black (color) 15" d="M120.174 117.309C115.662 114.164 113.406 109.721 113.406 103.979C113.406 98.2363 115.662 93.8271 120.174 90.751C124.72 87.6748 130.564 86.1367 137.708 86.1367L154.678 86.1367C154.678 82.1377 153.841 79.3521 152.166 77.7798C150.491 76.2075 147.552 75.4214 143.348 75.4214C139.178 75.4214 136.238 76.4639 134.529 78.5488C132.854 80.5996 130.787 81.625 128.326 81.625L120.687 81.625C119.764 81.625 118.995 81.3345 118.379 80.7534C117.798 80.1382 117.508 79.3862 117.508 78.4976C117.508 68.688 126.822 63.7832 145.45 63.7832C153.584 63.7832 160.113 65.6118 165.035 69.269C169.957 72.8921 172.417 78.5146 172.417 86.1367L172.417 117.873C172.417 118.795 172.127 119.547 171.546 120.128C170.965 120.709 170.213 121 169.29 121L159.395 121C158.472 121 157.72 120.709 157.139 120.128C156.558 119.513 156.268 118.761 156.268 117.873L156.268 116.283C150.867 120.146 144.629 122.06 137.554 122.025C130.513 122.025 124.72 120.453 120.174 117.309ZM138.938 97.7749C136.546 97.7749 134.649 98.356 133.248 99.5181C131.88 100.68 131.197 102.184 131.197 104.03C131.197 105.875 131.915 107.396 133.35 108.593C134.786 109.789 136.819 110.387 139.451 110.387C144.715 110.387 149.791 108.849 154.678 105.773L154.678 97.7749L138.938 97.7749Z" fill="rgb(0,0,0)" fill-rule="nonzero" />
	<path id="Ex max black (color) 15" d="M0 116.181L0 52.3501C0 51.0171 0.478516 49.8721 1.43555 48.915C2.39258 47.958 3.5376 47.4795 4.87061 47.4795L14.5093 47.4795C15.8423 47.4795 16.9702 47.9409 17.8931 48.8638C18.8501 49.7866 19.3286 50.9146 19.3286 52.2476L19.3286 106.491L41.7847 106.491L41.7847 52.2476C41.7847 50.9146 42.2632 49.7866 43.2202 48.8638C44.1772 47.9409 45.3223 47.4795 46.6553 47.4795L56.2939 47.4795C57.627 47.4795 58.7549 47.958 59.6777 48.915C60.6348 49.8721 61.1133 51.0171 61.1133 52.3501L61.1133 106.491L83.6206 106.491L83.6206 52.2476C83.6206 50.9146 84.082 49.7866 85.0049 48.8638C85.9619 47.9409 87.1069 47.4795 88.4399 47.4795L98.0786 47.4795C99.4116 47.4795 100.54 47.958 101.462 48.915C102.419 49.8721 102.898 51.0171 102.898 52.3501L102.898 116.181C102.898 117.514 102.419 118.659 101.462 119.616C100.54 120.539 99.4116 121 98.0786 121L4.87061 121C3.5376 121 2.39258 120.539 1.43555 119.616C0.478516 118.659 0 117.514 0 116.181Z" fill="rgb(111,90,76)" fill-rule="nonzero" />
	<path id="Ex max black (color) 15" d="M0 116.181L0 52.3501C0 51.0171 0.478516 49.8721 1.43555 48.915C2.39258 47.958 3.5376 47.4795 4.87061 47.4795L14.5093 47.4795C15.8423 47.4795 16.9702 47.9409 17.8931 48.8638C18.8501 49.7866 19.3286 50.9146 19.3286 52.2476L19.3286 106.491L41.7847 106.491L41.7847 52.2476C41.7847 50.9146 42.2632 49.7866 43.2202 48.8638C44.1772 47.9409 45.3223 47.4795 46.6553 47.4795L56.2939 47.4795C57.627 47.4795 58.7549 47.958 59.6777 48.915C60.6348 49.8721 61.1133 51.0171 61.1133 52.3501L61.1133 106.491L83.6206 106.491L83.6206 52.2476C83.6206 50.9146 84.082 49.7866 85.0049 48.8638C85.9619 47.9409 87.1069 47.4795 88.4399 47.4795L98.0786 47.4795C99.4116 47.4795 100.54 47.958 101.462 48.915C102.419 49.8721 102.898 51.0171 102.898 52.3501L102.898 116.181C102.898 117.514 102.419 118.659 101.462 119.616C100.54 120.539 99.4116 121 98.0786 121L4.87061 121C3.5376 121 2.39258 120.539 1.43555 119.616C0.478516 118.659 0 117.514 0 116.181Z" fill="rgb(0,0,0)" fill-rule="nonzero" />
</svg>
