<svg viewBox="0 0 959.277 122.026" xmlns="http://www.w3.org/2000/svg" xmlns:xlink="http://www.w3.org/1999/xlink" width="959.277344" height="122.025879" fill="none" customFrame="#000000">
	<rect id="Ex max black (color) 20" width="959.277832" height="122.025841" x="0.000000" y="0.000000" fill="rgb(255,255,255)" fill-opacity="0" />
	<path id="Ex max black (color) 20" d="M3.87703 28.0155L1.02092 22.4802C-1.15403 18.2649 0.229996 12.9984 4.37392 10.8245C40.1818 -7.96054 74.0038 1.40645 91.4021 11.2102C94.9895 13.2316 95.9894 17.6134 93.9708 21.2611C92.9314 23.1395 91.6076 25.505 89.942 28.4479C87.5114 32.7426 82.1589 34.1553 77.7864 32.0115C56.5322 21.5908 37.9312 21.5785 16.1367 31.9746C11.6439 34.1177 6.19225 32.5026 3.87703 28.0155Z" fill="rgb(186,0,17)" fill-rule="evenodd" />
	<path id="Ex max black (color) 20" d="M959.278 118.744C959.278 120.248 958.389 121 956.612 121L946.922 121C943.641 121 941.026 119.394 939.078 116.181L932.566 105.568C929.764 101.022 925.696 98.749 920.364 98.749L920.364 117.873C920.364 118.795 920.057 119.547 919.441 120.128C918.86 120.709 918.125 121 917.237 121L905.752 121C904.83 121 904.078 120.709 903.497 120.128C902.916 119.547 902.625 118.795 902.625 117.873L902.625 67.9873C902.625 67.0645 902.916 66.3125 903.497 65.7314C904.112 65.1162 904.864 64.8086 905.752 64.8086L917.237 64.8086C918.16 64.8086 918.912 65.1162 919.493 65.7314C920.074 66.3125 920.364 67.0645 920.364 67.9873L920.364 87.0596C926.312 87.0596 930.379 84.7524 932.566 80.1382L937.488 69.6792C938.172 68.2095 939.18 67.0303 940.513 66.1416C941.846 65.2529 943.282 64.8086 944.82 64.8086L954.51 64.8086C956.219 64.8086 957.073 65.4751 957.073 66.8081C957.073 67.5601 956.8 68.5171 956.253 69.6792L949.639 83.6245C948.511 85.9487 946.973 87.9482 945.025 89.623C943.077 91.2979 940.975 92.3745 938.719 92.853C942.923 94.1177 946.563 97.1938 949.639 102.082L958.355 116.181C958.936 117.172 959.244 118.026 959.278 118.744Z" fill="rgb(186,0,17)" fill-rule="nonzero" />
	<path id="Ex max black (color) 20" d="M959.278 118.744C959.278 120.248 958.389 121 956.612 121L946.922 121C943.641 121 941.026 119.394 939.078 116.181L932.566 105.568C929.764 101.022 925.696 98.749 920.364 98.749L920.364 117.873C920.364 118.795 920.057 119.547 919.441 120.128C918.86 120.709 918.125 121 917.237 121L905.752 121C904.83 121 904.078 120.709 903.497 120.128C902.916 119.547 902.625 118.795 902.625 117.873L902.625 67.9873C902.625 67.0645 902.916 66.3125 903.497 65.7314C904.112 65.1162 904.864 64.8086 905.752 64.8086L917.237 64.8086C918.16 64.8086 918.912 65.1162 919.493 65.7314C920.074 66.3125 920.364 67.0645 920.364 67.9873L920.364 87.0596C926.312 87.0596 930.379 84.7524 932.566 80.1382L937.488 69.6792C938.172 68.2095 939.18 67.0303 940.513 66.1416C941.846 65.2529 943.282 64.8086 944.82 64.8086L954.51 64.8086C956.219 64.8086 957.073 65.4751 957.073 66.8081C957.073 67.5601 956.8 68.5171 956.253 69.6792L949.639 83.6245C948.511 85.9487 946.973 87.9482 945.025 89.623C943.077 91.2979 940.975 92.3745 938.719 92.853C942.923 94.1177 946.563 97.1938 949.639 102.082L958.355 116.181C958.936 117.172 959.244 118.026 959.278 118.744Z" fill="rgb(0,0,0)" fill-rule="nonzero" />
	<path id="Ex max black (color) 20" d="M812.188 117.873L812.188 67.9873C812.188 67.0645 812.478 66.3125 813.059 65.7314C813.674 65.1162 814.426 64.8086 815.315 64.8086L826.799 64.8086C827.722 64.8086 828.474 65.1162 829.055 65.7314C829.636 66.3125 829.927 67.0645 829.927 67.9873L829.927 83.4194L842.129 83.4194C849.409 83.4194 855.032 84.855 858.997 87.7261C862.996 90.5972 864.995 95.4336 864.995 102.235C864.995 109.003 862.996 113.822 858.997 116.693C855.032 119.564 849.409 121 842.129 121L815.315 121C814.392 121 813.64 120.709 813.059 120.128C812.478 119.547 812.188 118.795 812.188 117.873ZM829.619 109.567L840.54 109.567C845.017 109.567 847.256 107.123 847.256 102.235C847.256 97.3135 845.017 94.8525 840.54 94.8525L829.619 94.8525L829.619 109.567ZM872.224 117.873L872.224 67.9873C872.224 67.0645 872.515 66.3125 873.096 65.7314C873.711 65.1162 874.48 64.8086 875.403 64.8086L886.836 64.8086C887.759 64.8086 888.511 65.1162 889.092 65.7314C889.673 66.3125 889.963 67.0645 889.963 67.9873L889.963 117.873C889.963 118.795 889.673 119.547 889.092 120.128C888.511 120.709 887.759 121 886.836 121L875.403 121C874.48 121 873.711 120.709 873.096 120.128C872.515 119.547 872.224 118.795 872.224 117.873Z" fill="rgb(186,0,17)" fill-rule="nonzero" />
	<path id="Ex max black (color) 20" d="M812.188 117.873L812.188 67.9873C812.188 67.0645 812.478 66.3125 813.059 65.7314C813.674 65.1162 814.426 64.8086 815.315 64.8086L826.799 64.8086C827.722 64.8086 828.474 65.1162 829.055 65.7314C829.636 66.3125 829.927 67.0645 829.927 67.9873L829.927 83.4194L842.129 83.4194C849.409 83.4194 855.032 84.855 858.997 87.7261C862.996 90.5972 864.995 95.4336 864.995 102.235C864.995 109.003 862.996 113.822 858.997 116.693C855.032 119.564 849.409 121 842.129 121L815.315 121C814.392 121 813.64 120.709 813.059 120.128C812.478 119.547 812.188 118.795 812.188 117.873ZM829.619 109.567L840.54 109.567C845.017 109.567 847.256 107.123 847.256 102.235C847.256 97.3135 845.017 94.8525 840.54 94.8525L829.619 94.8525L829.619 109.567ZM872.224 117.873L872.224 67.9873C872.224 67.0645 872.515 66.3125 873.096 65.7314C873.711 65.1162 874.48 64.8086 875.403 64.8086L886.836 64.8086C887.759 64.8086 888.511 65.1162 889.092 65.7314C889.673 66.3125 889.963 67.0645 889.963 67.9873L889.963 117.873C889.963 118.795 889.673 119.547 889.092 120.128C888.511 120.709 887.759 121 886.836 121L875.403 121C874.48 121 873.711 120.709 873.096 120.128C872.515 119.547 872.224 118.795 872.224 117.873Z" fill="rgb(0,0,0)" fill-rule="nonzero" />
	<path id="Ex max black (color) 20" d="M743.793 106.593C743.793 105.67 744.083 104.918 744.665 104.337C745.28 103.756 746.032 103.466 746.92 103.466L754.611 103.466C756.935 103.466 758.747 104.628 760.045 106.952C761.378 109.242 763.908 110.387 767.633 110.387L778.041 110.387C782.997 110.387 785.475 108.354 785.475 104.286C785.475 100.219 782.997 98.2021 778.041 98.2363L765.326 98.2363C764.403 98.2363 763.634 97.9458 763.019 97.3647C762.438 96.7495 762.147 95.9805 762.147 95.0576L762.147 89.7256C762.147 88.8027 762.438 88.0508 763.019 87.4697C763.634 86.8545 764.403 86.5469 765.326 86.5469L777.067 86.5469C779.323 86.5469 781.015 86.0513 782.143 85.0601C783.305 84.0347 783.886 82.6846 783.886 81.0098C783.886 79.335 783.305 77.9849 782.143 76.9595C781.015 75.9341 779.323 75.4214 777.067 75.4214L767.633 75.4214C766.437 75.4214 765.207 75.729 763.942 76.3442C762.677 76.9253 761.737 77.7798 761.122 78.9077C759.789 81.2319 757.96 82.377 755.636 82.3428L747.997 82.3428C747.074 82.3428 746.305 82.0522 745.69 81.4712C745.109 80.8901 744.818 80.1382 744.818 79.2153C744.818 74.6011 747.057 70.8755 751.535 68.0386C756.046 65.2017 761.481 63.7832 767.838 63.7832L778.144 63.7832C785.355 63.7832 791.063 65.1162 795.268 67.7822C799.506 70.4141 801.625 74.4302 801.625 79.8306C801.625 85.231 799.181 89.1274 794.293 91.52C800.241 94.5278 803.214 99.2788 803.214 105.773C803.214 111.447 801.198 115.583 797.165 118.18C793.166 120.744 787.201 122.025 779.271 122.025L767.838 122.025C760.968 122.025 755.243 120.624 750.663 117.821C746.083 115.019 743.793 111.276 743.793 106.593Z" fill="rgb(186,0,17)" fill-rule="nonzero" />
	<path id="Ex max black (color) 20" d="M743.793 106.593C743.793 105.67 744.083 104.918 744.665 104.337C745.28 103.756 746.032 103.466 746.92 103.466L754.611 103.466C756.935 103.466 758.747 104.628 760.045 106.952C761.378 109.242 763.908 110.387 767.633 110.387L778.041 110.387C782.997 110.387 785.475 108.354 785.475 104.286C785.475 100.219 782.997 98.2021 778.041 98.2363L765.326 98.2363C764.403 98.2363 763.634 97.9458 763.019 97.3647C762.438 96.7495 762.147 95.9805 762.147 95.0576L762.147 89.7256C762.147 88.8027 762.438 88.0508 763.019 87.4697C763.634 86.8545 764.403 86.5469 765.326 86.5469L777.067 86.5469C779.323 86.5469 781.015 86.0513 782.143 85.0601C783.305 84.0347 783.886 82.6846 783.886 81.0098C783.886 79.335 783.305 77.9849 782.143 76.9595C781.015 75.9341 779.323 75.4214 777.067 75.4214L767.633 75.4214C766.437 75.4214 765.207 75.729 763.942 76.3442C762.677 76.9253 761.737 77.7798 761.122 78.9077C759.789 81.2319 757.96 82.377 755.636 82.3428L747.997 82.3428C747.074 82.3428 746.305 82.0522 745.69 81.4712C745.109 80.8901 744.818 80.1382 744.818 79.2153C744.818 74.6011 747.057 70.8755 751.535 68.0386C756.046 65.2017 761.481 63.7832 767.838 63.7832L778.144 63.7832C785.355 63.7832 791.063 65.1162 795.268 67.7822C799.506 70.4141 801.625 74.4302 801.625 79.8306C801.625 85.231 799.181 89.1274 794.293 91.52C800.241 94.5278 803.214 99.2788 803.214 105.773C803.214 111.447 801.198 115.583 797.165 118.18C793.166 120.744 787.201 122.025 779.271 122.025L767.838 122.025C760.968 122.025 755.243 120.624 750.663 117.821C746.083 115.019 743.793 111.276 743.793 106.593Z" fill="rgb(0,0,0)" fill-rule="nonzero" />
	<path id="Ex max black (color) 20" d="M679.142 82.9067C679.142 70.8755 686.764 64.8428 702.008 64.8086L732.257 64.8086C733.18 64.8086 733.932 65.1162 734.513 65.7314C735.094 66.3125 735.385 67.0645 735.385 67.9873L735.385 117.873C735.385 118.795 735.094 119.547 734.513 120.128C733.932 120.709 733.18 121 732.257 121L720.824 121C719.901 121 719.132 120.709 718.517 120.128C717.936 119.513 717.646 118.761 717.646 117.873L717.646 100.954L707.597 100.954L698.881 116.488C697.206 119.496 694.54 121 690.883 121L681.654 121C680.39 121 679.569 120.539 679.193 119.616C679.057 119.308 678.988 118.915 678.988 118.437C678.988 117.924 679.245 117.274 679.757 116.488L690.062 99.2617C682.782 96.5615 679.142 91.1099 679.142 82.9067ZM698.676 78.2412C697.479 79.3691 696.881 80.9243 696.881 82.9067C696.881 84.855 697.462 86.4102 698.625 87.5723C699.821 88.7344 701.479 89.3154 703.598 89.3154L717.646 89.3154L717.646 76.498L703.598 76.498C701.513 76.498 699.872 77.0791 698.676 78.2412Z" fill="rgb(186,0,17)" fill-rule="nonzero" />
	<path id="Ex max black (color) 20" d="M679.142 82.9067C679.142 70.8755 686.764 64.8428 702.008 64.8086L732.257 64.8086C733.18 64.8086 733.932 65.1162 734.513 65.7314C735.094 66.3125 735.385 67.0645 735.385 67.9873L735.385 117.873C735.385 118.795 735.094 119.547 734.513 120.128C733.932 120.709 733.18 121 732.257 121L720.824 121C719.901 121 719.132 120.709 718.517 120.128C717.936 119.513 717.646 118.761 717.646 117.873L717.646 100.954L707.597 100.954L698.881 116.488C697.206 119.496 694.54 121 690.883 121L681.654 121C680.39 121 679.569 120.539 679.193 119.616C679.057 119.308 678.988 118.915 678.988 118.437C678.988 117.924 679.245 117.274 679.757 116.488L690.062 99.2617C682.782 96.5615 679.142 91.1099 679.142 82.9067ZM698.676 78.2412C697.479 79.3691 696.881 80.9243 696.881 82.9067C696.881 84.855 697.462 86.4102 698.625 87.5723C699.821 88.7344 701.479 89.3154 703.598 89.3154L717.646 89.3154L717.646 76.498L703.598 76.498C701.513 76.498 699.872 77.0791 698.676 78.2412Z" fill="rgb(0,0,0)" fill-rule="nonzero" />
	<path id="Ex max black (color) 20" d="M573.887 117.873L573.887 67.9873C573.887 67.0645 574.177 66.3125 574.758 65.7314C575.374 65.1162 576.125 64.8086 577.014 64.8086L587.729 64.8086C588.652 64.8086 589.404 65.1162 589.985 65.7314C590.601 66.3125 590.908 67.0645 590.908 67.9873L590.908 101.671L608.955 68.5C609.502 67.4404 610.339 66.5688 611.467 65.8853C612.595 65.1675 613.689 64.8086 614.749 64.8086L629.104 64.8086C630.027 64.8086 630.779 65.1162 631.36 65.7314C631.975 66.3125 632.283 67.0645 632.283 67.9873L632.283 117.873C632.283 118.795 631.975 119.547 631.36 120.128C630.779 120.709 630.027 121 629.104 121L618.389 121C617.466 121 616.714 120.709 616.133 120.128C615.552 119.513 615.261 118.761 615.261 117.873L615.261 84.2397L597.214 117.309C596.667 118.3 595.83 119.171 594.702 119.923C593.574 120.641 592.48 121 591.421 121L577.014 121C576.091 121 575.339 120.709 574.758 120.128C574.177 119.547 573.887 118.795 573.887 117.873ZM585.833 45.3774C585.833 43.6343 586.79 42.7627 588.704 42.7627L592.549 42.7627C594.224 42.7627 595.42 43.6343 596.138 45.3774C597.266 48.1802 599.573 49.5815 603.059 49.5815C606.58 49.5815 608.887 48.1802 609.98 45.3774C610.664 43.6343 611.86 42.7627 613.569 42.7627L617.466 42.7627C619.346 42.7627 620.286 43.6343 620.286 45.3774C620.286 49.3765 618.696 52.6577 615.518 55.2212C612.339 57.7847 608.186 59.0664 603.059 59.0664C597.966 59.0664 593.813 57.7847 590.601 55.2212C587.422 52.6577 585.833 49.3765 585.833 45.3774Z" fill="rgb(186,0,17)" fill-rule="nonzero" />
	<path id="Ex max black (color) 20" d="M573.887 117.873L573.887 67.9873C573.887 67.0645 574.177 66.3125 574.758 65.7314C575.374 65.1162 576.125 64.8086 577.014 64.8086L587.729 64.8086C588.652 64.8086 589.404 65.1162 589.985 65.7314C590.601 66.3125 590.908 67.0645 590.908 67.9873L590.908 101.671L608.955 68.5C609.502 67.4404 610.339 66.5688 611.467 65.8853C612.595 65.1675 613.689 64.8086 614.749 64.8086L629.104 64.8086C630.027 64.8086 630.779 65.1162 631.36 65.7314C631.975 66.3125 632.283 67.0645 632.283 67.9873L632.283 117.873C632.283 118.795 631.975 119.547 631.36 120.128C630.779 120.709 630.027 121 629.104 121L618.389 121C617.466 121 616.714 120.709 616.133 120.128C615.552 119.513 615.261 118.761 615.261 117.873L615.261 84.2397L597.214 117.309C596.667 118.3 595.83 119.171 594.702 119.923C593.574 120.641 592.48 121 591.421 121L577.014 121C576.091 121 575.339 120.709 574.758 120.128C574.177 119.547 573.887 118.795 573.887 117.873ZM585.833 45.3774C585.833 43.6343 586.79 42.7627 588.704 42.7627L592.549 42.7627C594.224 42.7627 595.42 43.6343 596.138 45.3774C597.266 48.1802 599.573 49.5815 603.059 49.5815C606.58 49.5815 608.887 48.1802 609.98 45.3774C610.664 43.6343 611.86 42.7627 613.569 42.7627L617.466 42.7627C619.346 42.7627 620.286 43.6343 620.286 45.3774C620.286 49.3765 618.696 52.6577 615.518 55.2212C612.339 57.7847 608.186 59.0664 603.059 59.0664C597.966 59.0664 593.813 57.7847 590.601 55.2212C587.422 52.6577 585.833 49.3765 585.833 45.3774Z" fill="rgb(0,0,0)" fill-rule="nonzero" />
	<path id="Ex max black (color) 20" d="M502.93 117.873L502.93 67.9873C502.93 67.0645 503.22 66.3125 503.801 65.7314C504.417 65.1162 505.168 64.8086 506.057 64.8086L516.772 64.8086C517.695 64.8086 518.447 65.1162 519.028 65.7314C519.644 66.3125 519.951 67.0645 519.951 67.9873L519.951 101.671L537.998 68.5C538.545 67.4404 539.382 66.5688 540.51 65.8853C541.638 65.1675 542.732 64.8086 543.792 64.8086L558.147 64.8086C559.07 64.8086 559.822 65.1162 560.403 65.7314C561.018 66.3125 561.326 67.0645 561.326 67.9873L561.326 117.873C561.326 118.795 561.018 119.547 560.403 120.128C559.822 120.709 559.07 121 558.147 121L547.432 121C546.509 121 545.757 120.709 545.176 120.128C544.595 119.513 544.304 118.761 544.304 117.873L544.304 84.2397L526.257 117.309C525.71 118.3 524.873 119.171 523.745 119.923C522.617 120.641 521.523 121 520.464 121L506.057 121C505.134 121 504.382 120.709 503.801 120.128C503.22 119.547 502.93 118.795 502.93 117.873Z" fill="rgb(186,0,17)" fill-rule="nonzero" />
	<path id="Ex max black (color) 20" d="M502.93 117.873L502.93 67.9873C502.93 67.0645 503.22 66.3125 503.801 65.7314C504.417 65.1162 505.168 64.8086 506.057 64.8086L516.772 64.8086C517.695 64.8086 518.447 65.1162 519.028 65.7314C519.644 66.3125 519.951 67.0645 519.951 67.9873L519.951 101.671L537.998 68.5C538.545 67.4404 539.382 66.5688 540.51 65.8853C541.638 65.1675 542.732 64.8086 543.792 64.8086L558.147 64.8086C559.07 64.8086 559.822 65.1162 560.403 65.7314C561.018 66.3125 561.326 67.0645 561.326 67.9873L561.326 117.873C561.326 118.795 561.018 119.547 560.403 120.128C559.822 120.709 559.07 121 558.147 121L547.432 121C546.509 121 545.757 120.709 545.176 120.128C544.595 119.513 544.304 118.761 544.304 117.873L544.304 84.2397L526.257 117.309C525.71 118.3 524.873 119.171 523.745 119.923C522.617 120.641 521.523 121 520.464 121L506.057 121C505.134 121 504.382 120.709 503.801 120.128C503.22 119.547 502.93 118.795 502.93 117.873Z" fill="rgb(0,0,0)" fill-rule="nonzero" />
	<path id="Ex max black (color) 20" d="M495.497 118.744C495.497 120.248 494.608 121 492.831 121L483.141 121C479.859 121 477.245 119.394 475.296 116.181L468.785 105.568C465.982 101.022 461.915 98.749 456.583 98.749L456.583 117.873C456.583 118.795 456.275 119.547 455.66 120.128C455.079 120.709 454.344 121 453.456 121L441.971 121C441.048 121 440.296 120.709 439.715 120.128C439.134 119.547 438.844 118.795 438.844 117.873L438.844 67.9873C438.844 67.0645 439.134 66.3125 439.715 65.7314C440.331 65.1162 441.083 64.8086 441.971 64.8086L453.456 64.8086C454.378 64.8086 455.13 65.1162 455.711 65.7314C456.292 66.3125 456.583 67.0645 456.583 67.9873L456.583 87.0596C462.53 87.0596 466.598 84.7524 468.785 80.1382L473.707 69.6792C474.391 68.2095 475.399 67.0303 476.732 66.1416C478.065 65.2529 479.5 64.8086 481.039 64.8086L490.729 64.8086C492.438 64.8086 493.292 65.4751 493.292 66.8081C493.292 67.5601 493.019 68.5171 492.472 69.6792L485.858 83.6245C484.73 85.9487 483.192 87.9482 481.244 89.623C479.295 91.2979 477.193 92.3745 474.938 92.853C479.142 94.1177 482.782 97.1938 485.858 102.082L494.574 116.181C495.155 117.172 495.462 118.026 495.497 118.744Z" fill="rgb(186,0,17)" fill-rule="nonzero" />
	<path id="Ex max black (color) 20" d="M495.497 118.744C495.497 120.248 494.608 121 492.831 121L483.141 121C479.859 121 477.245 119.394 475.296 116.181L468.785 105.568C465.982 101.022 461.915 98.749 456.583 98.749L456.583 117.873C456.583 118.795 456.275 119.547 455.66 120.128C455.079 120.709 454.344 121 453.456 121L441.971 121C441.048 121 440.296 120.709 439.715 120.128C439.134 119.547 438.844 118.795 438.844 117.873L438.844 67.9873C438.844 67.0645 439.134 66.3125 439.715 65.7314C440.331 65.1162 441.083 64.8086 441.971 64.8086L453.456 64.8086C454.378 64.8086 455.13 65.1162 455.711 65.7314C456.292 66.3125 456.583 67.0645 456.583 67.9873L456.583 87.0596C462.53 87.0596 466.598 84.7524 468.785 80.1382L473.707 69.6792C474.391 68.2095 475.399 67.0303 476.732 66.1416C478.065 65.2529 479.5 64.8086 481.039 64.8086L490.729 64.8086C492.438 64.8086 493.292 65.4751 493.292 66.8081C493.292 67.5601 493.019 68.5171 492.472 69.6792L485.858 83.6245C484.73 85.9487 483.192 87.9482 481.244 89.623C479.295 91.2979 477.193 92.3745 474.938 92.853C479.142 94.1177 482.782 97.1938 485.858 102.082L494.574 116.181C495.155 117.172 495.462 118.026 495.497 118.744Z" fill="rgb(0,0,0)" fill-rule="nonzero" />
	<path id="Ex max black (color) 20" d="M400.801 122.025C391.23 122.025 383.779 119.564 378.447 114.643C373.115 109.721 370.449 102.492 370.449 92.9556C370.449 83.3853 373.098 76.1392 378.396 71.2173C383.694 66.2612 391.06 63.7832 400.493 63.7832C409.961 63.7832 417.224 65.2871 422.283 68.2949C427.375 71.3027 429.922 75.7461 429.922 81.625C429.922 82.5479 429.614 83.2998 428.999 83.8809C428.418 84.4619 427.666 84.7524 426.743 84.7524L419.104 84.7524C416.78 84.7524 414.814 83.5049 413.208 81.0098C411.191 77.7969 407.62 76.1904 402.493 76.1904C397.4 76.1904 393.828 77.5063 391.777 80.1382C389.761 82.7358 388.752 86.9912 388.752 92.9043C388.752 98.8174 389.795 103.09 391.88 105.722C393.999 108.354 397.656 109.669 402.852 109.669C408.081 109.669 411.704 108.063 413.721 104.85C415.327 102.321 417.292 101.056 419.617 101.056L427.256 101.056C428.179 101.056 428.931 101.364 429.512 101.979C430.127 102.56 430.435 103.295 430.435 104.184C430.435 110.062 427.888 114.506 422.795 117.514C417.737 120.521 410.405 122.025 400.801 122.025Z" fill="rgb(186,0,17)" fill-rule="nonzero" />
	<path id="Ex max black (color) 20" d="M400.801 122.025C391.23 122.025 383.779 119.564 378.447 114.643C373.115 109.721 370.449 102.492 370.449 92.9556C370.449 83.3853 373.098 76.1392 378.396 71.2173C383.694 66.2612 391.06 63.7832 400.493 63.7832C409.961 63.7832 417.224 65.2871 422.283 68.2949C427.375 71.3027 429.922 75.7461 429.922 81.625C429.922 82.5479 429.614 83.2998 428.999 83.8809C428.418 84.4619 427.666 84.7524 426.743 84.7524L419.104 84.7524C416.78 84.7524 414.814 83.5049 413.208 81.0098C411.191 77.7969 407.62 76.1904 402.493 76.1904C397.4 76.1904 393.828 77.5063 391.777 80.1382C389.761 82.7358 388.752 86.9912 388.752 92.9043C388.752 98.8174 389.795 103.09 391.88 105.722C393.999 108.354 397.656 109.669 402.852 109.669C408.081 109.669 411.704 108.063 413.721 104.85C415.327 102.321 417.292 101.056 419.617 101.056L427.256 101.056C428.179 101.056 428.931 101.364 429.512 101.979C430.127 102.56 430.435 103.295 430.435 104.184C430.435 110.062 427.888 114.506 422.795 117.514C417.737 120.521 410.405 122.025 400.801 122.025Z" fill="rgb(0,0,0)" fill-rule="nonzero" />
	<path id="Ex max black (color) 20" d="M303.082 117.873L303.082 67.9873C303.082 67.0645 303.373 66.3125 303.954 65.7314C304.569 65.1162 305.321 64.8086 306.209 64.8086L317.694 64.8086C318.617 64.8086 319.369 65.1162 319.95 65.7314C320.531 66.3125 320.821 67.0645 320.821 67.9873L320.821 86.3418L343.277 86.3418L343.277 67.9873C343.277 67.0645 343.568 66.3125 344.149 65.7314C344.764 65.1162 345.533 64.8086 346.456 64.8086L357.889 64.8086C358.812 64.8086 359.564 65.1162 360.145 65.7314C360.726 66.3125 361.017 67.0645 361.017 67.9873L361.017 117.873C361.017 118.795 360.726 119.547 360.145 120.128C359.564 120.709 358.812 121 357.889 121L346.456 121C345.533 121 344.764 120.709 344.149 120.128C343.568 119.513 343.277 118.761 343.277 117.873L343.277 98.749L320.821 98.749L320.821 117.873C320.821 118.795 320.514 119.547 319.898 120.128C319.317 120.709 318.583 121 317.694 121L306.209 121C305.287 121 304.535 120.709 303.954 120.128C303.373 119.547 303.082 118.795 303.082 117.873Z" fill="rgb(186,0,17)" fill-rule="nonzero" />
	<path id="Ex max black (color) 20" d="M303.082 117.873L303.082 67.9873C303.082 67.0645 303.373 66.3125 303.954 65.7314C304.569 65.1162 305.321 64.8086 306.209 64.8086L317.694 64.8086C318.617 64.8086 319.369 65.1162 319.95 65.7314C320.531 66.3125 320.821 67.0645 320.821 67.9873L320.821 86.3418L343.277 86.3418L343.277 67.9873C343.277 67.0645 343.568 66.3125 344.149 65.7314C344.764 65.1162 345.533 64.8086 346.456 64.8086L357.889 64.8086C358.812 64.8086 359.564 65.1162 360.145 65.7314C360.726 66.3125 361.017 67.0645 361.017 67.9873L361.017 117.873C361.017 118.795 360.726 119.547 360.145 120.128C359.564 120.709 358.812 121 357.889 121L346.456 121C345.533 121 344.764 120.709 344.149 120.128C343.568 119.513 343.277 118.761 343.277 117.873L343.277 98.749L320.821 98.749L320.821 117.873C320.821 118.795 320.514 119.547 319.898 120.128C319.317 120.709 318.583 121 317.694 121L306.209 121C305.287 121 304.535 120.709 303.954 120.128C303.373 119.547 303.082 118.795 303.082 117.873Z" fill="rgb(0,0,0)" fill-rule="nonzero" />
	<path id="Ex max black (color) 20" d="M238.174 117.309C233.662 114.164 231.406 109.721 231.406 103.979C231.406 98.2363 233.662 93.8271 238.174 90.751C242.72 87.6748 248.564 86.1367 255.708 86.1367L272.678 86.1367C272.678 82.1377 271.841 79.3521 270.166 77.7798C268.491 76.2075 265.552 75.4214 261.348 75.4214C257.178 75.4214 254.238 76.4639 252.529 78.5488C250.854 80.5996 248.787 81.625 246.326 81.625L238.687 81.625C237.764 81.625 236.995 81.3345 236.379 80.7534C235.798 80.1382 235.508 79.3862 235.508 78.4976C235.508 68.688 244.822 63.7832 263.45 63.7832C271.584 63.7832 278.113 65.6118 283.035 69.269C287.957 72.8921 290.417 78.5146 290.417 86.1367L290.417 117.873C290.417 118.795 290.127 119.547 289.546 120.128C288.965 120.709 288.213 121 287.29 121L277.395 121C276.472 121 275.72 120.709 275.139 120.128C274.558 119.513 274.268 118.761 274.268 117.873L274.268 116.283C268.867 120.146 262.629 122.06 255.554 122.025C248.513 122.025 242.72 120.453 238.174 117.309ZM256.938 97.7749C254.546 97.7749 252.649 98.356 251.248 99.5181C249.88 100.68 249.197 102.184 249.197 104.03C249.197 105.875 249.915 107.396 251.35 108.593C252.786 109.789 254.819 110.387 257.451 110.387C262.715 110.387 267.791 108.849 272.678 105.773L272.678 97.7749L256.938 97.7749Z" fill="rgb(186,0,17)" fill-rule="nonzero" />
	<path id="Ex max black (color) 20" d="M238.174 117.309C233.662 114.164 231.406 109.721 231.406 103.979C231.406 98.2363 233.662 93.8271 238.174 90.751C242.72 87.6748 248.564 86.1367 255.708 86.1367L272.678 86.1367C272.678 82.1377 271.841 79.3521 270.166 77.7798C268.491 76.2075 265.552 75.4214 261.348 75.4214C257.178 75.4214 254.238 76.4639 252.529 78.5488C250.854 80.5996 248.787 81.625 246.326 81.625L238.687 81.625C237.764 81.625 236.995 81.3345 236.379 80.7534C235.798 80.1382 235.508 79.3862 235.508 78.4976C235.508 68.688 244.822 63.7832 263.45 63.7832C271.584 63.7832 278.113 65.6118 283.035 69.269C287.957 72.8921 290.417 78.5146 290.417 86.1367L290.417 117.873C290.417 118.795 290.127 119.547 289.546 120.128C288.965 120.709 288.213 121 287.29 121L277.395 121C276.472 121 275.72 120.709 275.139 120.128C274.558 119.513 274.268 118.761 274.268 117.873L274.268 116.283C268.867 120.146 262.629 122.06 255.554 122.025C248.513 122.025 242.72 120.453 238.174 117.309ZM256.938 97.7749C254.546 97.7749 252.649 98.356 251.248 99.5181C249.88 100.68 249.197 102.184 249.197 104.03C249.197 105.875 249.915 107.396 251.35 108.593C252.786 109.789 254.819 110.387 257.451 110.387C262.715 110.387 267.791 108.849 272.678 105.773L272.678 97.7749L256.938 97.7749Z" fill="rgb(0,0,0)" fill-rule="nonzero" />
	<path id="Ex max black (color) 20" d="M164.039 117.873L164.039 67.9873C164.039 67.0645 164.33 66.3125 164.911 65.7314C165.526 65.1162 166.278 64.8086 167.167 64.8086L218.846 64.8086C219.769 64.8086 220.521 65.1162 221.102 65.7314C221.683 66.3125 221.974 67.0645 221.974 67.9873L221.974 117.873C221.974 118.795 221.683 119.547 221.102 120.128C220.521 120.709 219.769 121 218.846 121L207.413 121C206.49 121 205.721 120.709 205.106 120.128C204.525 119.513 204.234 118.761 204.234 117.873L204.234 77.2158L181.778 77.2158L181.778 117.873C181.778 118.795 181.471 119.547 180.855 120.128C180.274 120.709 179.54 121 178.651 121L167.167 121C166.244 121 165.492 120.709 164.911 120.128C164.33 119.547 164.039 118.795 164.039 117.873Z" fill="rgb(186,0,17)" fill-rule="nonzero" />
	<path id="Ex max black (color) 20" d="M164.039 117.873L164.039 67.9873C164.039 67.0645 164.33 66.3125 164.911 65.7314C165.526 65.1162 166.278 64.8086 167.167 64.8086L218.846 64.8086C219.769 64.8086 220.521 65.1162 221.102 65.7314C221.683 66.3125 221.974 67.0645 221.974 67.9873L221.974 117.873C221.974 118.795 221.683 119.547 221.102 120.128C220.521 120.709 219.769 121 218.846 121L207.413 121C206.49 121 205.721 120.709 205.106 120.128C204.525 119.513 204.234 118.761 204.234 117.873L204.234 77.2158L181.778 77.2158L181.778 117.873C181.778 118.795 181.471 119.547 180.855 120.128C180.274 120.709 179.54 121 178.651 121L167.167 121C166.244 121 165.492 120.709 164.911 120.128C164.33 119.547 164.039 118.795 164.039 117.873Z" fill="rgb(0,0,0)" fill-rule="nonzero" />
	<path id="Ex max black (color) 20" d="M125.996 122.025C116.426 122.025 108.975 119.564 103.643 114.643C98.3105 109.721 95.6445 102.492 95.6445 92.9556C95.6445 83.3853 98.2935 76.1392 103.591 71.2173C108.889 66.2612 116.255 63.7832 125.688 63.7832C135.156 63.7832 142.419 65.2871 147.478 68.2949C152.571 71.3027 155.117 75.7461 155.117 81.625C155.117 82.5479 154.81 83.2998 154.194 83.8809C153.613 84.4619 152.861 84.7524 151.938 84.7524L144.299 84.7524C141.975 84.7524 140.01 83.5049 138.403 81.0098C136.387 77.7969 132.815 76.1904 127.688 76.1904C122.595 76.1904 119.023 77.5063 116.973 80.1382C114.956 82.7358 113.948 86.9912 113.948 92.9043C113.948 98.8174 114.99 103.09 117.075 105.722C119.194 108.354 122.852 109.669 128.047 109.669C133.276 109.669 136.899 108.063 138.916 104.85C140.522 102.321 142.488 101.056 144.812 101.056L152.451 101.056C153.374 101.056 154.126 101.364 154.707 101.979C155.322 102.56 155.63 103.295 155.63 104.184C155.63 110.062 153.083 114.506 147.991 117.514C142.932 120.521 135.601 122.025 125.996 122.025Z" fill="rgb(186,0,17)" fill-rule="nonzero" />
	<path id="Ex max black (color) 20" d="M125.996 122.025C116.426 122.025 108.975 119.564 103.643 114.643C98.3105 109.721 95.6445 102.492 95.6445 92.9556C95.6445 83.3853 98.2935 76.1392 103.591 71.2173C108.889 66.2612 116.255 63.7832 125.688 63.7832C135.156 63.7832 142.419 65.2871 147.478 68.2949C152.571 71.3027 155.117 75.7461 155.117 81.625C155.117 82.5479 154.81 83.2998 154.194 83.8809C153.613 84.4619 152.861 84.7524 151.938 84.7524L144.299 84.7524C141.975 84.7524 140.01 83.5049 138.403 81.0098C136.387 77.7969 132.815 76.1904 127.688 76.1904C122.595 76.1904 119.023 77.5063 116.973 80.1382C114.956 82.7358 113.948 86.9912 113.948 92.9043C113.948 98.8174 114.99 103.09 117.075 105.722C119.194 108.354 122.852 109.669 128.047 109.669C133.276 109.669 136.899 108.063 138.916 104.85C140.522 102.321 142.488 101.056 144.812 101.056L152.451 101.056C153.374 101.056 154.126 101.364 154.707 101.979C155.322 102.56 155.63 103.295 155.63 104.184C155.63 110.062 153.083 114.506 147.991 117.514C142.932 120.521 135.601 122.025 125.996 122.025Z" fill="rgb(0,0,0)" fill-rule="nonzero" />
	<path id="Ex max black (color) 20" d="M10.332 116.181L10.332 52.3501C10.332 50.9487 10.7935 49.7866 11.7163 48.8638C12.6392 47.9409 13.8013 47.4795 15.2026 47.4795L24.2261 47.4795C25.5591 47.4795 26.687 47.9409 27.6099 48.8638C28.5669 49.7866 29.0454 50.9146 29.0454 52.2476L29.0454 103.568L58.2178 52.3501C59.0039 51.0171 60.0806 49.8721 61.4478 48.915C62.8149 47.958 64.0796 47.4795 65.2417 47.4795L80.3662 47.4795C81.6992 47.4795 82.8271 47.958 83.75 48.915C84.6729 49.8721 85.1343 51.0171 85.1343 52.3501L85.1343 116.181C85.1343 117.514 84.6558 118.659 83.6987 119.616C82.7417 120.539 81.5967 121 80.2637 121L71.2402 121C69.9072 121 68.7622 120.539 67.8052 119.616C66.8823 118.659 66.4209 117.514 66.4209 116.181L66.4209 68.6025L39.6582 116.181C38.8721 117.514 37.7612 118.659 36.3257 119.616C34.8901 120.539 33.5059 121 32.1729 121L15.2026 121C13.8696 121 12.7246 120.539 11.7676 119.616C10.8105 118.659 10.332 117.514 10.332 116.181Z" fill="rgb(186,0,17)" fill-rule="nonzero" />
	<path id="Ex max black (color) 20" d="M10.332 116.181L10.332 52.3501C10.332 50.9487 10.7935 49.7866 11.7163 48.8638C12.6392 47.9409 13.8013 47.4795 15.2026 47.4795L24.2261 47.4795C25.5591 47.4795 26.687 47.9409 27.6099 48.8638C28.5669 49.7866 29.0454 50.9146 29.0454 52.2476L29.0454 103.568L58.2178 52.3501C59.0039 51.0171 60.0806 49.8721 61.4478 48.915C62.8149 47.958 64.0796 47.4795 65.2417 47.4795L80.3662 47.4795C81.6992 47.4795 82.8271 47.958 83.75 48.915C84.6729 49.8721 85.1343 51.0171 85.1343 52.3501L85.1343 116.181C85.1343 117.514 84.6558 118.659 83.6987 119.616C82.7417 120.539 81.5967 121 80.2637 121L71.2402 121C69.9072 121 68.7622 120.539 67.8052 119.616C66.8823 118.659 66.4209 117.514 66.4209 116.181L66.4209 68.6025L39.6582 116.181C38.8721 117.514 37.7612 118.659 36.3257 119.616C34.8901 120.539 33.5059 121 32.1729 121L15.2026 121C13.8696 121 12.7246 120.539 11.7676 119.616C10.8105 118.659 10.332 117.514 10.332 116.181Z" fill="rgb(0,0,0)" fill-rule="nonzero" />
</svg>
