<svg viewBox="0 0 959.278 122.026" xmlns="http://www.w3.org/2000/svg" xmlns:xlink="http://www.w3.org/1999/xlink" width="959.277832" height="122.025879" fill="none" customFrame="#000000">
	<rect id="Ex max white 20" width="959.277832" height="122.025841" x="0.000000" y="0.000000" fill="rgb(255,255,255)" fill-opacity="0" />
	<path id="Ex max white 20" d="M3.87703 28.0155L1.02092 22.4802C0.331835 21.1446 0 19.7036 0 18.2889C0 15.2382 1.5429 12.3097 4.37392 10.8245C40.1818 -7.96054 74.0038 1.40645 91.4021 11.2102C93.7599 12.5388 95 14.8869 95 17.3762C95 18.6743 94.6627 20.0108 93.9708 21.2611C92.9314 23.1395 91.6076 25.505 89.942 28.4479C87.5114 32.7426 82.1589 34.1553 77.7864 32.0115C56.5322 21.5908 37.9312 21.5785 16.1367 31.9746C11.6439 34.1177 6.19225 32.5026 3.87703 28.0155ZM585.833 45.3774Q585.833 44.192 586.423 43.544Q587.134 42.7627 588.704 42.7627L592.549 42.7627Q593.567 42.7627 594.349 43.1923Q595.497 43.8225 596.138 45.3774Q596.793 47.0052 597.978 48.0028Q599.854 49.5815 603.059 49.5815Q606.342 49.5815 608.218 47.9572Q609.36 46.9683 609.98 45.3774Q610.567 43.883 611.655 43.2427Q612.471 42.7627 613.569 42.7627L617.466 42.7627Q618.982 42.7627 619.683 43.5186Q620.286 44.1686 620.286 45.3774Q620.286 48.2082 619.224 50.5594Q618.036 53.1906 615.518 55.2212Q615.353 55.3541 615.185 55.4823L615.166 55.4969Q610.469 59.0664 603.059 59.0664Q595.822 59.0664 591.115 55.6151Q591.087 55.5942 591.059 55.5733Q590.826 55.4015 590.601 55.2212Q588.083 53.1906 586.894 50.5594Q585.833 48.2082 585.833 45.3774ZM10.332 116.181L10.332 52.3501Q10.332 51.0457 10.8651 50.0177L10.8651 50.0176Q11.1911 49.389 11.7163 48.8638Q12.2416 48.3385 12.8702 48.0125Q13.8982 47.4795 15.2026 47.4795L24.2261 47.4795Q25.298 47.4795 26.1931 47.8773Q26.9677 48.2216 27.6099 48.8638Q28.3214 49.5499 28.6803 50.3873Q29.0454 51.2392 29.0454 52.2476L29.0454 103.568L58.2178 52.3501Q58.3271 52.1648 58.4438 51.9843Q59.587 50.2175 61.4478 48.915Q63.4985 47.4795 65.2417 47.4795L80.3662 47.4795Q81.3746 47.4795 82.2265 47.8446Q83.0638 48.2035 83.75 48.915Q84.4356 49.626 84.7817 50.4754Q85.1343 51.3409 85.1343 52.3501L85.1343 116.181Q85.1343 117.129 84.8117 117.95Q84.4538 118.861 83.6987 119.616Q82.9877 120.301 82.1383 120.647Q81.2728 121 80.2637 121L71.2402 121Q70.2311 121 69.3656 120.647Q68.5162 120.301 67.8052 119.616Q67.1196 118.905 66.7735 118.055Q66.4209 117.19 66.4209 116.181L66.4209 68.6025L39.6582 116.181Q38.479 118.18 36.3257 119.616Q34.1724 121 32.1729 121L15.2026 121Q14.1935 121 13.328 120.647Q12.4786 120.301 11.7676 119.616Q11.0125 118.861 10.6546 117.95Q10.332 117.129 10.332 116.181ZM125.996 122.025Q112.194 122.025 104.269 115.201L104.263 115.196Q103.948 114.925 103.643 114.643Q102.723 113.793 101.909 112.853L101.908 112.852Q95.6445 105.614 95.6445 92.9556Q95.6445 80.0994 102.018 72.8355L102.018 72.8351Q102.762 71.9882 103.591 71.2173Q104.097 70.7441 104.628 70.3011Q112.439 63.7832 125.688 63.7832Q139.89 63.7832 147.478 68.2949Q151.345 70.5786 153.254 73.9657Q155.117 77.2702 155.117 81.625Q155.117 82.5065 154.743 83.1801Q154.53 83.5643 154.194 83.8809Q153.928 84.1475 153.613 84.3326Q152.899 84.7524 151.938 84.7524L144.299 84.7524Q143.436 84.7524 142.64 84.5232Q140.217 83.8262 138.403 81.0098Q137.791 80.0336 136.987 79.2552Q133.821 76.1904 127.688 76.1904Q120.374 76.1904 117.243 79.8095L117.242 79.8102Q117.103 79.9706 116.973 80.1382Q113.948 84.0347 113.948 92.9043Q113.948 101.774 117.075 105.722Q117.15 105.815 117.228 105.906L117.236 105.916Q120.448 109.669 128.047 109.669Q134.431 109.669 137.623 106.477L137.623 106.477Q138.353 105.747 138.916 104.85Q140.744 101.972 143.192 101.277Q143.971 101.056 144.812 101.056L152.451 101.056Q153.333 101.056 154.006 101.43Q154.391 101.644 154.707 101.979Q155.097 102.347 155.322 102.797Q155.63 103.413 155.63 104.184Q155.63 108.538 153.767 111.843Q151.857 115.23 147.991 117.514Q140.403 122.025 125.996 122.025ZM238.174 117.309Q235.131 115.188 233.456 112.279Q231.406 108.719 231.406 103.979Q231.406 99.1773 233.509 95.6186Q235.179 92.7931 238.174 90.751Q244.993 86.1367 255.708 86.1367L272.678 86.1367Q272.678 80.1382 270.166 77.7798Q267.654 75.4214 261.348 75.4214Q255.178 75.4214 252.6 78.4644Q252.564 78.5063 252.529 78.5488Q251.025 80.3913 249.097 81.1302Q247.806 81.625 246.326 81.625L238.687 81.625Q237.777 81.625 237.067 81.2491Q236.696 81.0525 236.379 80.7534Q236.021 80.3743 235.81 79.9261Q235.508 79.283 235.508 78.4976Q235.508 75.303 236.825 72.802Q241.574 63.7832 263.45 63.7832Q275.652 63.7832 283.035 69.269Q284.822 70.5847 286.177 72.2519Q290.417 77.4715 290.417 86.1367L290.417 117.873Q290.417 118.833 289.998 119.547Q289.812 119.862 289.546 120.128Q289.279 120.395 288.965 120.58Q288.251 121 287.29 121L277.395 121Q276.434 121 275.72 120.58Q275.406 120.395 275.139 120.128Q274.781 119.749 274.57 119.301Q274.268 118.658 274.268 117.873L274.268 116.283Q271.563 118.217 268.579 119.5Q262.624 122.06 255.554 122.025Q244.993 122.025 238.174 117.309ZM400.801 122.025Q386.999 122.025 379.073 115.201L379.061 115.19Q378.749 114.921 378.447 114.643Q377.528 113.794 376.715 112.855L376.713 112.852Q370.449 105.614 370.449 92.9556Q370.449 80.0994 376.823 72.8355Q377.566 71.9884 378.396 71.2173Q378.9 70.746 379.428 70.3046L379.433 70.3011Q387.243 63.7832 400.493 63.7832Q414.695 63.7832 422.283 68.2949Q426.149 70.5786 428.059 73.9657Q429.922 77.2702 429.922 81.625Q429.922 82.5065 429.548 83.1801Q429.334 83.5644 428.999 83.8809Q428.732 84.1475 428.418 84.3326Q427.704 84.7524 426.743 84.7524L419.104 84.7524Q418.241 84.7524 417.444 84.5232Q415.021 83.8261 413.208 81.0098Q412.596 80.034 411.792 79.2558L411.791 79.2552Q408.625 76.1904 402.493 76.1904Q395.178 76.1904 392.047 79.8095Q391.908 79.9703 391.777 80.1382Q388.752 84.0347 388.752 92.9043Q388.752 101.774 391.88 105.722Q391.948 105.806 392.018 105.889Q392.029 105.902 392.041 105.916Q395.252 109.669 402.852 109.669Q409.235 109.669 412.427 106.477L412.428 106.477Q413.158 105.747 413.721 104.85Q415.549 101.972 417.997 101.277Q418.775 101.056 419.617 101.056L427.256 101.056Q428.137 101.056 428.811 101.43Q429.195 101.644 429.512 101.979Q429.901 102.347 430.126 102.797Q430.435 103.413 430.435 104.184Q430.435 108.538 428.572 111.843Q426.662 115.23 422.795 117.514Q415.208 122.025 400.801 122.025ZM743.793 106.593Q743.793 105.632 744.213 104.919L744.213 104.918Q744.398 104.604 744.665 104.337Q745.044 103.979 745.492 103.768Q746.135 103.466 746.92 103.466L754.611 103.466Q755.898 103.466 756.976 103.941Q758.817 104.753 760.045 106.952Q760.419 107.595 760.919 108.117L760.921 108.119Q763.092 110.387 767.633 110.387L778.041 110.387Q782.483 110.387 784.271 108.209Q785.475 106.742 785.475 104.286Q785.475 101.827 784.267 100.367Q782.478 98.2057 778.041 98.2363L765.326 98.2363Q764.417 98.2363 763.707 97.8604Q763.336 97.6639 763.019 97.3647Q762.72 97.048 762.523 96.6769Q762.147 95.9668 762.147 95.0576L762.147 89.7256Q762.147 88.7648 762.567 88.051L762.568 88.05Q762.753 87.7359 763.019 87.4697Q763.388 87.1008 763.831 86.8791Q764.496 86.5469 765.326 86.5469L777.067 86.5469Q780.451 86.5469 782.143 85.0601Q782.816 84.466 783.229 83.7264Q783.886 82.5515 783.886 81.0098Q783.886 79.468 783.229 78.2931Q782.816 77.5535 782.143 76.9595Q780.451 75.4214 777.067 75.4214L767.633 75.4214Q765.839 75.4214 763.942 76.3442Q762.617 76.9531 761.767 77.9622L761.766 77.9635Q761.4 78.3984 761.122 78.9077Q759.851 81.1238 757.979 81.9106Q756.906 82.3615 755.636 82.3428L747.997 82.3428Q747.088 82.3428 746.378 81.9668Q746.007 81.7704 745.69 81.4712Q745.424 81.205 745.239 80.8909L745.238 80.89Q744.818 80.1761 744.818 79.2153Q744.818 76.7695 745.657 74.6564Q747.192 70.7902 751.535 68.0386Q758.302 63.7832 767.838 63.7832L778.144 63.7832Q788.961 63.7832 795.268 67.7822Q797.916 69.4268 799.461 71.7923Q801.625 75.1047 801.625 79.8306Q801.625 83.8255 799.842 86.7232Q798.009 89.7011 794.293 91.52Q798.964 93.8823 801.19 97.6784Q803.214 101.132 803.214 105.773Q803.214 111.546 800.43 115.196Q799.11 116.927 797.165 118.18Q791.166 122.025 779.271 122.025L767.838 122.025Q757.533 122.025 750.663 117.821Q746.26 115.127 744.679 111.275Q743.793 109.116 743.793 106.593ZM164.039 117.873L164.039 67.9873Q164.039 67.0265 164.459 66.3127Q164.644 65.998 164.911 65.7314Q165.339 65.3033 165.855 65.0738Q166.452 64.8086 167.167 64.8086L218.846 64.8086Q219.728 64.8086 220.401 65.1828Q220.786 65.3963 221.102 65.7314Q221.369 65.998 221.554 66.3127Q221.974 67.0265 221.974 67.9873L221.974 117.873Q221.974 118.833 221.554 119.547Q221.369 119.862 221.102 120.128Q220.835 120.395 220.521 120.58Q219.807 121 218.846 121L207.413 121Q206.504 121 205.794 120.624Q205.423 120.428 205.106 120.128Q204.748 119.749 204.537 119.301Q204.234 118.658 204.234 117.873L204.234 77.2158L181.778 77.2158L181.778 117.873Q181.778 118.754 181.404 119.428Q181.191 119.812 180.855 120.128Q180.535 120.449 180.153 120.651L180.152 120.651Q179.494 121 178.651 121L167.167 121Q166.206 121 165.492 120.58Q165.177 120.395 164.911 120.128Q164.644 119.862 164.459 119.547Q164.039 118.833 164.039 117.873ZM303.082 117.873L303.082 67.9873Q303.082 67.0265 303.502 66.3127Q303.687 65.998 303.954 65.7314Q304.382 65.3033 304.898 65.0738Q305.495 64.8086 306.209 64.8086L317.694 64.8086Q318.575 64.8086 319.249 65.1828Q319.633 65.3964 319.95 65.7314Q320.216 65.998 320.401 66.3127Q320.821 67.0265 320.821 67.9873L320.821 86.3418L343.277 86.3418L343.277 67.9873Q343.277 67.0265 343.697 66.3127Q343.882 65.998 344.149 65.7314Q344.518 65.3623 344.961 65.1408Q345.626 64.8086 346.456 64.8086L357.889 64.8086Q358.771 64.8086 359.444 65.1828Q359.829 65.3964 360.145 65.7314Q360.412 65.998 360.597 66.3127Q361.017 67.0265 361.017 67.9873L361.017 117.873Q361.017 118.833 360.597 119.547Q360.412 119.862 360.145 120.128Q359.878 120.395 359.564 120.58Q358.85 121 357.889 121L346.456 121Q345.547 121 344.837 120.624Q344.466 120.428 344.149 120.128Q343.791 119.749 343.58 119.301Q343.277 118.658 343.277 117.873L343.277 98.749L320.821 98.749L320.821 117.873Q320.821 118.754 320.447 119.428Q320.234 119.812 319.898 120.128Q319.578 120.449 319.195 120.651Q318.537 121 317.694 121L306.209 121Q305.249 121 304.535 120.58Q304.22 120.395 303.954 120.128Q303.687 119.862 303.502 119.547Q303.082 118.833 303.082 117.873ZM495.497 118.744Q495.497 119.685 495.032 120.234Q494.384 121 492.831 121L483.141 121Q481.361 121 479.843 120.37Q477.162 119.258 475.296 116.181L468.785 105.568Q466.676 102.147 463.612 100.442Q460.569 98.749 456.583 98.749L456.583 117.873Q456.583 118.754 456.209 119.428Q455.995 119.812 455.66 120.128Q455.34 120.449 454.957 120.651Q454.299 121 453.456 121L441.971 121Q441.01 121 440.297 120.58Q439.982 120.395 439.715 120.128Q439.449 119.862 439.264 119.547Q438.844 118.833 438.844 117.873L438.844 67.9873Q438.844 67.0265 439.264 66.3127Q439.449 65.998 439.715 65.7314Q440.143 65.3033 440.66 65.0738Q441.257 64.8086 441.971 64.8086L453.456 64.8086Q454.337 64.8086 455.011 65.1828Q455.395 65.3964 455.711 65.7314Q455.978 65.998 456.163 66.3127Q456.583 67.0265 456.583 67.9873L456.583 87.0596Q462.214 87.0596 465.597 84.3023Q467.575 82.691 468.785 80.1382L473.707 69.6792Q474.261 68.4888 475.099 67.5524Q475.812 66.7547 476.732 66.1416Q477.973 65.3141 479.333 65.0003Q480.164 64.8086 481.039 64.8086L490.729 64.8086Q492.322 64.8086 492.925 65.5815Q493.292 66.0518 493.292 66.8081Q493.292 67.936 492.472 69.6792L485.858 83.6245Q484.955 85.4849 483.702 87.0679Q482.607 88.4514 481.244 89.623Q478.554 91.9351 475.473 92.7273Q475.207 92.7959 474.938 92.853Q475.008 92.8741 475.077 92.8959Q481.295 94.8315 485.858 102.082L494.574 116.181Q495.445 117.667 495.497 118.744ZM502.93 117.873L502.93 67.9873Q502.93 67.0265 503.35 66.3127Q503.535 65.998 503.801 65.7314Q504.229 65.3033 504.746 65.0738Q505.343 64.8086 506.057 64.8086L516.772 64.8086Q517.654 64.8086 518.328 65.1828Q518.712 65.3963 519.028 65.7314Q519.364 66.048 519.577 66.4322Q519.951 67.1058 519.951 67.9873L519.951 101.671L537.998 68.5Q538.136 68.2325 538.299 67.981Q539.103 66.7381 540.51 65.8853Q542.202 64.8086 543.792 64.8086L558.147 64.8086Q559.028 64.8086 559.702 65.1828Q560.086 65.3963 560.403 65.7314Q560.738 66.048 560.951 66.4322Q561.326 67.1058 561.326 67.9873L561.326 117.873Q561.326 118.754 560.951 119.428Q560.738 119.812 560.403 120.128Q560.137 120.394 559.823 120.579L559.822 120.58Q559.108 121 558.147 121L547.432 121Q546.471 121 545.757 120.58L545.756 120.579Q545.442 120.394 545.176 120.128Q544.818 119.749 544.607 119.301Q544.304 118.658 544.304 117.873L544.304 84.2397L526.257 117.309Q525.437 118.795 523.745 119.923Q522.053 121 520.464 121L506.057 121Q505.096 121 504.383 120.58Q504.068 120.395 503.801 120.128Q503.535 119.862 503.35 119.547Q502.93 118.833 502.93 117.873ZM573.887 117.873L573.887 67.9873Q573.887 67.0265 574.307 66.3127L574.307 66.3117Q574.492 65.9977 574.758 65.7314Q575.186 65.3036 575.703 65.0738Q576.3 64.8086 577.014 64.8086L587.729 64.8086Q588.611 64.8086 589.285 65.1828Q589.669 65.3963 589.985 65.7314Q590.321 66.048 590.534 66.4322Q590.908 67.1058 590.908 67.9873L590.908 101.671L608.955 68.5Q609.093 68.2325 609.256 67.981Q610.06 66.7381 611.467 65.8853Q613.159 64.8086 614.749 64.8086L629.104 64.8086Q629.985 64.8086 630.659 65.1828Q631.043 65.3963 631.36 65.7314Q631.695 66.048 631.909 66.4322Q632.283 67.1058 632.283 67.9873L632.283 117.873Q632.283 118.754 631.909 119.428Q631.695 119.812 631.36 120.128Q631.094 120.394 630.78 120.579L630.779 120.58Q630.065 121 629.104 121L618.389 121Q617.428 121 616.714 120.58L616.713 120.579Q616.399 120.394 616.133 120.128Q615.775 119.749 615.564 119.301Q615.261 118.658 615.261 117.873L615.261 84.2397L597.214 117.309Q596.394 118.795 594.702 119.923Q593.01 121 591.421 121L577.014 121Q576.053 121 575.34 120.58L575.338 120.579Q575.024 120.394 574.758 120.128Q574.492 119.862 574.307 119.548L574.307 119.547Q573.887 118.833 573.887 117.873ZM679.142 82.9067Q679.142 75.9846 682.506 71.71Q687.913 64.8402 702.008 64.8086L732.257 64.8086Q733.139 64.8086 733.812 65.1828Q734.197 65.3963 734.513 65.7314Q734.779 65.9977 734.964 66.3117L734.965 66.3127Q735.385 67.0265 735.385 67.9873L735.385 117.873Q735.385 118.833 734.965 119.547L734.964 119.548Q734.779 119.862 734.513 120.128Q734.247 120.394 733.933 120.579L733.932 120.58Q733.218 121 732.257 121L720.824 121Q719.915 121 719.205 120.624Q718.834 120.428 718.517 120.128Q718.159 119.749 717.948 119.301Q717.646 118.658 717.646 117.873L717.646 100.954L707.597 100.954L698.881 116.488Q697.772 118.479 696.084 119.592Q693.948 121 690.883 121L681.654 121Q680.355 121 679.682 120.351Q679.371 120.052 679.193 119.616Q678.988 119.154 678.988 118.437Q678.988 117.667 679.757 116.488L690.062 99.2617Q685.061 97.4067 682.35 93.8204Q679.142 89.576 679.142 82.9067ZM812.188 117.873L812.188 67.9873Q812.188 67.0265 812.607 66.3127L812.608 66.3117Q812.793 65.9977 813.059 65.7314Q813.487 65.3036 814.004 65.0738Q814.6 64.8086 815.315 64.8086L826.799 64.8086Q827.681 64.8086 828.354 65.1828Q828.739 65.3963 829.055 65.7314Q829.321 65.9977 829.506 66.3117L829.507 66.3127Q829.927 67.0265 829.927 67.9873L829.927 83.4194L842.129 83.4194Q853.049 83.4194 858.997 87.7261Q859.894 88.3703 860.657 89.1465L860.658 89.1476Q864.995 93.5601 864.995 102.235Q864.995 110.822 860.703 115.227Q859.921 116.03 858.997 116.693Q853.049 121 842.129 121L815.315 121Q814.354 121 813.64 120.58L813.639 120.579Q813.325 120.394 813.059 120.128Q812.793 119.862 812.608 119.548L812.607 119.547Q812.188 118.833 812.188 117.873ZM872.224 117.873L872.224 67.9873Q872.224 67.0265 872.644 66.3127L872.645 66.3117Q872.83 65.9977 873.096 65.7314Q873.465 65.3625 873.908 65.1408Q874.572 64.8086 875.403 64.8086L886.836 64.8086Q887.717 64.8086 888.391 65.1828Q888.775 65.3963 889.092 65.7314Q889.358 65.9977 889.543 66.3117L889.544 66.3127Q889.963 67.0265 889.963 67.9873L889.963 117.873Q889.963 118.833 889.544 119.547L889.543 119.548Q889.358 119.862 889.092 120.128Q888.826 120.394 888.512 120.579L888.511 120.58Q887.797 121 886.836 121L875.403 121Q874.494 121 873.784 120.624Q873.412 120.428 873.096 120.128Q872.83 119.862 872.645 119.548L872.644 119.547Q872.224 118.833 872.224 117.873ZM959.278 118.744Q959.278 119.685 958.814 120.234Q958.165 121 956.612 121L946.922 121Q945.143 121 943.625 120.37Q940.944 119.258 939.078 116.181L932.566 105.568Q930.457 102.147 927.394 100.442Q924.35 98.749 920.364 98.749L920.364 117.873Q920.364 118.754 919.99 119.428Q919.777 119.812 919.441 120.128Q919.121 120.449 918.738 120.651Q918.08 121 917.237 121L905.752 121Q904.792 121 904.078 120.58L904.076 120.579Q903.763 120.394 903.497 120.128Q903.23 119.862 903.045 119.548L903.045 119.547Q902.625 118.833 902.625 117.873L902.625 67.9873Q902.625 67.0265 903.045 66.3127L903.045 66.3117Q903.23 65.9977 903.497 65.7314Q903.924 65.3036 904.441 65.0738Q905.038 64.8086 905.752 64.8086L917.237 64.8086Q918.118 64.8086 918.792 65.1828Q919.176 65.3963 919.493 65.7314Q919.759 65.9977 919.944 66.3117L919.944 66.3127Q920.364 67.0265 920.364 67.9873L920.364 87.0596Q925.995 87.0596 929.379 84.3023Q931.356 82.691 932.566 80.1382L937.488 69.6792Q938.042 68.4888 938.88 67.5524Q939.593 66.7548 940.513 66.1416Q941.754 65.3141 943.114 65.0003L943.116 64.9999Q943.946 64.8086 944.82 64.8086L954.51 64.8086Q956.104 64.8086 956.706 65.5815Q957.073 66.0518 957.073 66.8081Q957.073 67.936 956.253 69.6792L949.639 83.6245Q948.736 85.4849 947.483 87.0679L947.482 87.0695Q946.387 88.4521 945.025 89.623Q942.335 91.9352 939.255 92.7273Q938.988 92.7959 938.719 92.853Q938.789 92.8741 938.859 92.8959Q945.076 94.8315 949.639 102.082L958.355 116.181Q959.227 117.667 959.278 118.744ZM698.676 78.2412Q698.288 78.607 697.984 79.0328Q696.881 80.5761 696.881 82.9067Q696.881 85.1804 697.937 86.7403Q698.238 87.1855 698.625 87.5723Q698.825 87.7674 699.044 87.9407Q700.775 89.3154 703.598 89.3154L717.646 89.3154L717.646 76.498L703.598 76.498Q700.89 76.498 699.182 77.8045Q698.917 78.0071 698.676 78.2412ZM829.619 109.567L840.54 109.567Q843.604 109.567 845.27 108.04Q847.256 106.222 847.256 102.235Q847.256 98.1957 845.245 96.3664Q843.581 94.8525 840.54 94.8525L829.619 94.8525L829.619 109.567ZM256.938 97.7749Q253.35 97.7749 251.248 99.5181Q250.304 100.32 249.795 101.339Q249.197 102.535 249.197 104.03Q249.197 105.367 249.699 106.476Q250.236 107.665 251.35 108.593Q253.503 110.387 257.451 110.387Q259.077 110.387 260.678 110.192L260.681 110.191Q266.857 109.436 272.678 105.773L272.678 97.7749L256.938 97.7749Z" fill="rgb(255,255,255)" fill-rule="evenodd" />
</svg>
