<svg viewBox="0 0 1032.29 122.026" xmlns="http://www.w3.org/2000/svg" xmlns:xlink="http://www.w3.org/1999/xlink" width="1032.288574" height="122.025841" fill="none" customFrame="#000000">
	<rect id="Ex max white 02" width="1032.288574" height="122.025841" x="0.000000" y="0.000000" fill="rgb(255,255,255)" fill-opacity="0" />
	<path id="Ex max white 02" d="M3.87703 28.0155L1.02092 22.4802C0.331835 21.1446 0 19.7036 0 18.2889C0 15.2382 1.5429 12.3097 4.37392 10.8245C40.1818 -7.96054 74.0038 1.40645 91.4021 11.2102C93.7599 12.5388 95 14.8869 95 17.3762C95 18.6743 94.6627 20.0108 93.9708 21.2611C92.9314 23.1395 91.6076 25.505 89.942 28.4479C87.5114 32.7426 82.1589 34.1553 77.7864 32.0115C56.5322 21.5908 37.9312 21.5785 16.1367 31.9746C11.6439 34.1177 6.19225 32.5026 3.87703 28.0155ZM10.332 116.181L10.332 52.3501Q10.332 51.4023 10.6546 50.5812Q11.0125 49.6701 11.7676 48.915Q12.4002 48.2824 13.1624 47.9285Q14.1295 47.4795 15.3052 47.4795L24.8413 47.4795Q25.8497 47.4795 26.7016 47.8446Q27.5389 48.2035 28.2251 48.915Q28.9801 49.6701 29.3381 50.5812Q29.6606 51.4023 29.6606 52.3501L29.6606 75.4214L64.9341 75.4214L64.9341 52.3501Q64.9341 51.4023 65.2567 50.5812Q65.6146 49.6701 66.3696 48.915Q67.1247 48.16 68.0357 47.8021Q68.8568 47.4795 69.8047 47.4795L79.3408 47.4795Q80.572 47.4795 81.557 47.972Q82.2537 48.3203 82.8271 48.915Q83.5822 49.6701 83.9401 50.5812Q84.2627 51.4023 84.2627 52.3501L84.2627 116.181Q84.2627 117.072 83.967 117.852Q83.5997 118.82 82.7759 119.616Q82.0649 120.301 81.2155 120.647Q80.35 121 79.3408 121L69.8047 121Q68.7285 121 67.8155 120.614Q67.0324 120.282 66.3696 119.667Q65.658 118.981 65.2992 118.143Q64.9341 117.292 64.9341 116.283L64.9341 89.9307L29.6606 89.9307L29.6606 116.283Q29.6606 117.292 29.2955 118.143Q28.9367 118.981 28.2251 119.667Q27.6309 120.239 26.9233 120.566Q25.9825 121 24.8413 121L15.3052 121Q14.3645 121 13.5373 120.694Q12.6062 120.349 11.8188 119.616Q10.9951 118.82 10.6277 117.852Q10.332 117.072 10.332 116.181ZM101.592 117.309Q98.5487 115.188 96.874 112.279Q94.8242 108.719 94.8242 103.979Q94.8242 99.1773 96.9271 95.6186Q98.5966 92.7931 101.592 90.751Q108.411 86.1367 119.126 86.1367L136.096 86.1367Q136.096 80.1382 133.584 77.7798Q131.072 75.4214 124.766 75.4214Q118.596 75.4214 116.018 78.4644Q115.982 78.5063 115.947 78.5488Q114.443 80.3913 112.515 81.1302Q111.224 81.625 109.744 81.625L102.104 81.625Q101.195 81.625 100.485 81.2491Q100.114 81.0526 99.7974 80.7534Q99.4393 80.3743 99.2284 79.9261Q98.9258 79.283 98.9258 78.4976Q98.9258 75.303 100.243 72.802Q104.992 63.7832 126.868 63.7832Q139.07 63.7832 146.453 69.269Q148.24 70.5847 149.595 72.2519Q153.835 77.4715 153.835 86.1367L153.835 117.873Q153.835 118.833 153.416 119.547Q153.23 119.862 152.964 120.128Q152.697 120.395 152.383 120.58Q151.669 121 150.708 121L140.813 121Q139.852 121 139.138 120.58Q138.824 120.395 138.557 120.128Q138.199 119.749 137.988 119.301Q137.686 118.658 137.686 117.873L137.686 116.283Q134.982 118.217 131.998 119.5L131.997 119.5Q126.042 122.06 118.972 122.025Q108.411 122.025 101.592 117.309ZM235.201 117.309Q232.158 115.188 230.483 112.279Q228.434 108.719 228.434 103.979Q228.434 99.1773 230.536 95.6186Q232.206 92.7931 235.201 90.751Q242.02 86.1367 252.735 86.1367L269.706 86.1367Q269.706 80.1382 267.193 77.7798Q264.681 75.4214 258.375 75.4214Q252.205 75.4214 249.627 78.4644Q249.591 78.5063 249.557 78.5488Q248.052 80.3913 246.124 81.1302Q244.834 81.625 243.353 81.625L235.714 81.625Q234.805 81.625 234.095 81.2491Q233.723 81.0525 233.407 80.7534Q233.049 80.3743 232.838 79.9261Q232.535 79.283 232.535 78.4976Q232.535 75.303 233.852 72.802Q238.602 63.7832 260.477 63.7832Q272.679 63.7832 280.062 69.269Q281.849 70.5847 283.204 72.2519Q287.445 77.4715 287.445 86.1367L287.445 117.873Q287.445 118.833 287.025 119.547Q286.84 119.862 286.573 120.128Q286.307 120.395 285.992 120.58Q285.278 121 284.317 121L274.422 121Q273.462 121 272.748 120.58Q272.433 120.395 272.167 120.128Q271.809 119.749 271.598 119.301Q271.295 118.658 271.295 117.873L271.295 116.283Q268.591 118.217 265.607 119.5Q259.651 122.06 252.582 122.025Q242.02 122.025 235.201 117.309ZM509.186 117.309Q506.142 115.188 504.468 112.279Q502.418 108.719 502.418 103.979Q502.418 99.1772 504.521 95.6186Q506.19 92.7931 509.186 90.751Q516.004 86.1367 526.72 86.1367L543.69 86.1367Q543.69 80.1382 541.178 77.7798Q538.666 75.4214 532.359 75.4214Q526.189 75.4214 523.611 78.4644Q523.576 78.5063 523.541 78.5488Q522.036 80.3912 520.109 81.1302Q518.818 81.625 517.337 81.625L509.698 81.625Q508.789 81.625 508.079 81.2491Q507.708 81.0526 507.391 80.7534Q507.033 80.3744 506.822 79.9261Q506.52 79.283 506.52 78.4976Q506.52 75.303 507.837 72.802Q512.586 63.7832 534.461 63.7832Q546.664 63.7832 554.046 69.269Q555.833 70.5844 557.188 72.2519Q561.429 77.4715 561.429 86.1367L561.429 117.873Q561.429 118.833 561.009 119.547L561.009 119.548Q560.824 119.862 560.558 120.128Q560.292 120.394 559.978 120.579L559.976 120.58Q559.263 121 558.302 121L548.407 121Q547.446 121 546.732 120.58L546.731 120.579Q546.417 120.394 546.151 120.128Q545.793 119.749 545.582 119.301Q545.279 118.658 545.279 117.873L545.279 116.283Q542.575 118.217 539.591 119.5Q533.635 122.06 526.566 122.025Q516.004 122.025 509.186 117.309ZM843.154 114.643Q842.269 113.826 841.482 112.924L841.478 112.919Q835.156 105.667 835.156 92.9043Q835.156 80.0259 841.547 72.8012L841.551 72.797Q842.308 71.9419 843.154 71.166Q851.152 63.7832 866.123 63.7832Q881.145 63.7832 889.143 71.166Q889.989 71.9419 890.746 72.797L890.75 72.8012Q897.141 80.0259 897.141 92.9043Q897.141 105.667 890.819 112.919L890.815 112.924Q890.028 113.826 889.143 114.643Q881.145 122.025 866.123 122.025Q851.152 122.025 843.154 114.643ZM980.045 117.309Q977.002 115.188 975.327 112.279Q973.277 108.719 973.277 103.979Q973.277 99.1772 975.38 95.6186Q977.05 92.7931 980.045 90.751Q986.864 86.1367 997.579 86.1367L1014.55 86.1367Q1014.55 80.1382 1012.04 77.7798Q1009.52 75.4214 1003.22 75.4214Q997.049 75.4214 994.471 78.4644Q994.435 78.5063 994.4 78.5488Q992.896 80.3912 990.968 81.1302Q989.677 81.625 988.197 81.625L980.558 81.625Q979.649 81.625 978.938 81.2491Q978.567 81.0526 978.25 80.7534Q977.892 80.3743 977.682 79.9261Q977.379 79.283 977.379 78.4976Q977.379 75.3031 978.696 72.802Q983.445 63.7832 1005.32 63.7832Q1017.52 63.7832 1024.91 69.269Q1026.69 70.5847 1028.05 72.2519Q1032.29 77.4715 1032.29 86.1367L1032.29 117.873Q1032.29 118.833 1031.87 119.547Q1031.68 119.862 1031.42 120.128Q1031.15 120.395 1030.84 120.58Q1030.12 121 1029.16 121L1019.27 121Q1018.31 121 1017.59 120.58L1017.59 120.579Q1017.28 120.394 1017.01 120.128Q1016.65 119.749 1016.44 119.301Q1016.14 118.658 1016.14 117.873L1016.14 116.283Q1013.43 118.217 1010.45 119.5Q1004.49 122.06 997.425 122.025Q986.864 122.025 980.045 117.309ZM163.32 67.9873Q163.32 67.0265 163.74 66.3127Q163.925 65.998 164.192 65.7314Q164.561 65.3623 165.004 65.1408Q165.668 64.8086 166.499 64.8086L177.932 64.8086Q178.814 64.8086 179.487 65.1828Q179.871 65.3963 180.188 65.7314Q180.523 66.048 180.737 66.4322Q181.111 67.1058 181.111 67.9873L181.111 83.1118Q181.111 86.9014 183.003 88.6992Q183.031 88.7255 183.059 88.7515Q183.433 89.087 183.848 89.3598Q185.653 90.5459 188.237 90.5459L201.26 90.5459L201.26 67.9873Q201.26 67.0265 201.68 66.3127Q201.865 65.998 202.131 65.7314Q202.559 65.3033 203.076 65.0738Q203.673 64.8086 204.387 64.8086L215.82 64.8086Q216.702 64.8086 217.375 65.1828Q217.76 65.3963 218.076 65.7314Q218.411 66.048 218.625 66.4322Q218.999 67.1058 218.999 67.9873L218.999 117.873Q218.999 118.587 218.734 119.184Q218.504 119.7 218.076 120.128Q217.81 120.395 217.495 120.58Q216.781 121 215.82 121L204.387 121Q203.602 121 202.959 120.697Q202.51 120.486 202.131 120.128Q201.773 119.749 201.562 119.301Q201.26 118.658 201.26 117.873L201.26 102.953L188.237 102.953Q175.42 102.953 169.37 98.4927Q168.769 98.0493 168.227 97.5422Q163.32 92.9468 163.32 83.1118L163.32 67.9873ZM294.982 117.616L304.21 80.3433Q305.396 75.6164 308.243 72.3279Q314.753 64.8086 329.948 64.8086L354.198 64.8086Q354.968 64.8086 355.585 65.1167Q356.035 65.3418 356.403 65.7314Q356.738 66.0479 356.951 66.4322Q357.326 67.1058 357.326 67.9873L357.326 117.873Q357.326 118.587 357.06 119.184Q356.831 119.7 356.403 120.128Q356.082 120.449 355.7 120.651Q355.041 121 354.198 121L342.714 121Q341.928 121 341.285 120.697Q340.837 120.486 340.458 120.128Q340.1 119.749 339.889 119.301Q339.586 118.658 339.586 117.873L339.586 77.2158L329.948 77.2158Q326.735 77.2158 324.58 78.7256Q321.921 80.589 320.873 84.7524L312.824 117.206Q312.593 118.052 312.132 118.744Q311.67 119.436 310.978 119.975Q310.03 120.704 308.977 120.915L308.976 120.915Q308.55 121 308.107 121L297.597 121Q296.453 121 295.765 120.44L295.763 120.439Q295.619 120.322 295.495 120.18Q294.828 119.308 294.828 118.693Q294.828 118.078 294.982 117.616ZM369.938 117.873L369.938 67.9873Q369.938 67.0265 370.357 66.3127Q370.543 65.998 370.809 65.7314Q371.237 65.3033 371.754 65.0738Q372.35 64.8086 373.065 64.8086L384.549 64.8086Q385.319 64.8086 385.936 65.1167Q386.386 65.3418 386.754 65.7314Q387.089 66.0479 387.303 66.4322Q387.677 67.1058 387.677 67.9873L387.677 83.4194L403.211 83.4194Q414.132 83.4194 420.13 87.7261Q421.028 88.3707 421.792 89.1476Q426.129 93.56 426.129 102.235Q426.129 110.822 421.837 115.227L421.836 115.228Q421.055 116.03 420.13 116.693Q414.132 121 403.211 121L373.065 121Q372.279 121 371.636 120.697Q371.188 120.486 370.809 120.128Q370.451 119.749 370.24 119.301Q369.938 118.658 369.938 117.873ZM435.047 117.873L435.047 67.9873Q435.047 67.0265 435.467 66.3127Q435.652 65.998 435.918 65.7314Q436.347 65.3033 436.863 65.0738Q437.46 64.8086 438.174 64.8086L449.659 64.8086Q450.54 64.8086 451.214 65.1828Q451.598 65.3964 451.915 65.7314Q452.181 65.998 452.366 66.3127Q452.786 67.0265 452.786 67.9873L452.786 86.3418L475.242 86.3418L475.242 67.9873Q475.242 67.0265 475.662 66.3127Q475.847 65.998 476.114 65.7314Q476.483 65.3623 476.926 65.1408Q477.59 64.8086 478.421 64.8086L489.854 64.8086Q490.736 64.8086 491.409 65.1828Q491.793 65.3964 492.11 65.7314Q492.376 65.998 492.562 66.3127Q492.981 67.0265 492.981 67.9873L492.981 117.873Q492.981 118.833 492.562 119.547Q492.376 119.862 492.11 120.128Q491.843 120.395 491.529 120.58Q490.815 121 489.854 121L478.421 121Q477.512 121 476.802 120.624Q476.431 120.428 476.114 120.128Q475.756 119.749 475.545 119.301Q475.242 118.658 475.242 117.873L475.242 98.749L452.786 98.749L452.786 117.873Q452.786 118.754 452.412 119.428Q452.198 119.812 451.863 120.128Q451.543 120.449 451.16 120.651Q450.502 121 449.659 121L438.174 121Q437.214 121 436.5 120.58Q436.185 120.395 435.918 120.128Q435.652 119.862 435.467 119.547Q435.047 118.833 435.047 117.873ZM571.58 82.9067Q571.58 75.9846 574.944 71.71Q580.35 64.8402 594.446 64.8086L624.695 64.8086Q625.576 64.8086 626.25 65.1828Q626.634 65.3963 626.951 65.7314Q627.217 65.9977 627.402 66.3117L627.402 66.3127Q627.822 67.0265 627.822 67.9873L627.822 117.873Q627.822 118.833 627.402 119.547L627.402 119.548Q627.217 119.862 626.951 120.128Q626.685 120.394 626.371 120.579L626.369 120.58Q625.656 121 624.695 121L613.262 121Q612.353 121 611.642 120.624Q611.271 120.428 610.955 120.128Q610.597 119.749 610.386 119.301Q610.083 118.658 610.083 117.873L610.083 100.954L600.034 100.954L591.318 116.488Q590.21 118.479 588.522 119.592Q586.385 121 583.32 121L574.092 121Q572.793 121 572.119 120.351Q571.809 120.052 571.631 119.616Q571.426 119.154 571.426 118.437Q571.426 117.667 572.195 116.488L582.5 99.2617Q577.499 97.4067 574.788 93.8204Q571.58 89.576 571.58 82.9067ZM677.246 117.873L677.246 67.9873Q677.246 67.0265 677.666 66.3127L677.667 66.3117Q677.852 65.9977 678.118 65.7314Q678.546 65.3036 679.062 65.0738Q679.659 64.8086 680.374 64.8086L691.858 64.8086Q692.628 64.8086 693.244 65.1167Q693.695 65.3419 694.062 65.7314Q694.398 66.048 694.611 66.4322Q694.985 67.1058 694.985 67.9873L694.985 108.593L711.033 108.593L711.033 67.9873Q711.033 67.0265 711.453 66.3127L711.453 66.3117Q711.638 65.9977 711.904 65.7314Q712.273 65.3625 712.716 65.1408Q713.381 64.8086 714.211 64.8086L725.645 64.8086Q726.526 64.8086 727.2 65.1828Q727.584 65.3963 727.9 65.7314Q728.167 65.9977 728.352 66.3117L728.352 66.3127Q728.772 67.0265 728.772 67.9873L728.772 108.593L744.871 108.593L744.871 67.9873Q744.871 67.0265 745.29 66.3127L745.291 66.3117Q745.476 65.9977 745.742 65.7314Q746.17 65.3036 746.687 65.0738Q747.284 64.8086 747.998 64.8086L759.431 64.8086Q760.312 64.8086 760.986 65.1828Q761.37 65.3963 761.687 65.7314Q762.022 66.048 762.236 66.4322Q762.61 67.1058 762.61 67.9873L762.61 117.873Q762.61 118.587 762.345 119.184Q762.115 119.7 761.687 120.128Q761.421 120.394 761.107 120.579L761.106 120.58Q760.392 121 759.431 121L680.374 121Q679.588 121 678.945 120.697Q678.497 120.486 678.118 120.128Q677.76 119.749 677.549 119.301Q677.246 118.658 677.246 117.873ZM831.926 118.744Q831.926 119.685 831.462 120.234Q830.814 121 829.26 121L819.57 121Q817.791 121 816.273 120.37Q813.592 119.258 811.726 116.181L805.215 105.568Q803.106 102.147 800.042 100.442Q796.998 98.749 793.013 98.749L793.013 117.873Q793.013 118.754 792.638 119.428Q792.425 119.812 792.09 120.128Q791.769 120.449 791.387 120.651Q790.728 121 789.885 121L778.401 121Q777.44 121 776.726 120.58L776.725 120.579Q776.411 120.394 776.145 120.128Q775.879 119.862 775.694 119.548L775.693 119.547Q775.273 118.833 775.273 117.873L775.273 67.9873Q775.273 67.0265 775.693 66.3127L775.694 66.3117Q775.879 65.9977 776.145 65.7314Q776.573 65.3036 777.09 65.0738Q777.686 64.8086 778.401 64.8086L789.885 64.8086Q790.767 64.8086 791.44 65.1828Q791.825 65.3963 792.141 65.7314Q792.407 65.9977 792.592 66.3117L792.593 66.3127Q793.013 67.0265 793.013 67.9873L793.013 87.0596Q798.643 87.0596 802.027 84.3023Q804.005 82.691 805.215 80.1382L810.137 69.6792Q810.69 68.4888 811.528 67.5524Q812.242 66.7548 813.162 66.1416Q814.403 65.3141 815.763 65.0003L815.764 64.9999Q816.594 64.8086 817.468 64.8086L827.158 64.8086Q828.752 64.8086 829.355 65.5815Q829.722 66.0518 829.722 66.8081Q829.722 67.936 828.901 69.6792L822.288 83.6245Q821.385 85.4849 820.132 87.0679L820.13 87.0695Q819.035 88.4521 817.673 89.623Q814.984 91.9352 811.903 92.7273Q811.637 92.7959 811.367 92.853Q811.437 92.8741 811.507 92.8959Q817.725 94.8315 822.288 102.082L831.003 116.181Q831.875 117.667 831.926 118.744ZM901.498 117.616L910.726 80.3433Q911.912 75.6164 914.759 72.3279Q921.268 64.8086 936.463 64.8086L960.714 64.8086Q961.484 64.8086 962.1 65.1167Q962.551 65.3419 962.918 65.7314Q963.254 66.048 963.467 66.4322Q963.841 67.1058 963.841 67.9873L963.841 117.873Q963.841 118.587 963.576 119.184Q963.346 119.7 962.918 120.128Q962.598 120.449 962.215 120.651Q961.557 121 960.714 121L949.229 121Q948.444 121 947.801 120.697Q947.353 120.486 946.974 120.128Q946.616 119.749 946.405 119.301Q946.102 118.658 946.102 117.873L946.102 77.2158L936.463 77.2158Q933.251 77.2158 931.096 78.7256Q928.437 80.5891 927.389 84.7524L919.339 117.206Q919.109 118.052 918.647 118.744Q918.186 119.436 917.494 119.975Q916.545 120.704 915.493 120.915L915.491 120.915Q915.065 121 914.623 121L904.112 121Q902.969 121 902.28 120.44Q902.135 120.323 902.01 120.18Q901.344 119.308 901.344 118.693Q901.344 118.078 901.498 117.616ZM856.125 79.5742Q852.947 83.7271 852.947 92.853Q852.947 101.979 856.125 106.183Q856.753 107.013 857.522 107.679Q860.65 110.387 866.123 110.387Q871.689 110.387 874.832 107.627L874.833 107.627Q875.569 106.98 876.172 106.183Q879.402 101.979 879.402 92.853Q879.402 83.7271 876.172 79.5742Q875.604 78.8328 874.919 78.2237Q871.767 75.4214 866.123 75.4214Q860.573 75.4214 857.435 78.1724L857.433 78.1735Q856.716 78.8021 856.125 79.5742ZM591.113 78.2412Q590.725 78.607 590.421 79.0328Q589.319 80.5761 589.319 82.9067Q589.319 85.1804 590.374 86.7403Q590.675 87.1855 591.062 87.5723Q591.263 87.7674 591.481 87.9407Q593.212 89.3154 596.035 89.3154L610.083 89.3154L610.083 76.498L596.035 76.498Q593.328 76.498 591.619 77.8045Q591.354 78.0071 591.113 78.2412ZM387.677 109.362L401.622 109.362Q404.275 109.362 405.928 108.076Q406.256 107.821 406.544 107.516Q406.632 107.425 406.716 107.331L406.718 107.328Q408.338 105.499 408.338 102.235Q408.338 98.8622 406.659 97.0249Q406.602 96.9632 406.544 96.9033Q406.256 96.5981 405.928 96.3433Q404.275 95.0576 401.622 95.0576L387.677 95.0576L387.677 109.362ZM120.356 97.7749Q116.768 97.7749 114.666 99.5181Q113.722 100.32 113.213 101.339Q112.615 102.535 112.615 104.03Q112.615 105.367 113.117 106.476Q113.654 107.665 114.768 108.593Q116.921 110.387 120.869 110.387Q122.496 110.387 124.099 110.191Q130.275 109.436 136.096 105.773L136.096 97.7749L120.356 97.7749ZM253.966 97.7749Q250.377 97.7749 248.275 99.5181Q247.332 100.32 246.822 101.339Q246.224 102.535 246.224 104.03Q246.224 105.367 246.726 106.476Q247.264 107.665 248.377 108.593Q250.531 110.387 254.479 110.387Q256.104 110.387 257.706 110.192L257.708 110.191Q263.885 109.436 269.706 105.773L269.706 97.7749L253.966 97.7749ZM527.95 97.7749Q524.361 97.7749 522.259 99.5181Q521.316 100.32 520.807 101.339Q520.208 102.535 520.208 104.03Q520.208 105.367 520.71 106.476Q521.248 107.665 522.362 108.593Q524.515 110.387 528.463 110.387Q530.09 110.387 531.693 110.191Q537.869 109.436 543.69 105.773L543.69 97.7749L527.95 97.7749ZM998.81 97.7749Q995.221 97.7749 993.119 99.5181Q992.175 100.32 991.666 101.339Q991.068 102.535 991.068 104.03Q991.068 105.367 991.57 106.476Q992.108 107.665 993.221 108.593Q995.375 110.387 999.322 110.387Q1000.95 110.387 1002.55 110.191Q1008.73 109.436 1014.55 105.773L1014.55 97.7749L998.81 97.7749Z" fill="rgb(255,255,255)" fill-rule="evenodd" />
</svg>
