<svg viewBox="0 0 448.121 58.4404" xmlns="http://www.w3.org/2000/svg" xmlns:xlink="http://www.w3.org/1999/xlink" width="448.121094" height="58.440430" fill="none" customFrame="#000000">
	<rect id="Ex mini black (color) 02" width="448.122559" height="58.440624" x="0.000000" y="0.000000" fill="rgb(255,255,255)" fill-opacity="0" />
	<path id="Ex mini black (color) 02" d="M425.732 56.4189C423.799 55.0713 422.832 53.167 422.832 50.7061C422.832 48.2451 423.799 46.3555 425.732 45.0371C427.681 43.7188 430.186 43.0596 433.247 43.0596L440.52 43.0596C440.52 41.3457 440.161 40.1519 439.443 39.478C438.726 38.8042 437.466 38.4673 435.664 38.4673C433.877 38.4673 432.617 38.9141 431.885 39.8076C431.167 40.6865 430.281 41.126 429.226 41.126L425.952 41.126C425.557 41.126 425.227 41.0015 424.963 40.7524C424.714 40.4888 424.59 40.1665 424.59 39.7856C424.59 35.5815 428.582 33.4795 436.565 33.4795C440.051 33.4795 442.849 34.2632 444.958 35.8306C447.068 37.3833 448.123 39.793 448.123 43.0596L448.123 56.6606C448.123 57.0562 447.998 57.3784 447.749 57.6274C447.5 57.8765 447.178 58.001 446.782 58.001L442.542 58.001C442.146 58.001 441.824 57.8765 441.575 57.6274C441.326 57.3638 441.201 57.0415 441.201 56.6606L441.201 55.9795C438.887 57.6348 436.213 58.4551 433.181 58.4404C430.164 58.4404 427.681 57.7666 425.732 56.4189ZM433.774 48.0474C432.749 48.0474 431.936 48.2964 431.335 48.7944C430.75 49.2925 430.457 49.937 430.457 50.728C430.457 51.519 430.764 52.1709 431.379 52.6836C431.995 53.1963 432.866 53.4526 433.994 53.4526C436.25 53.4526 438.425 52.7935 440.52 51.4751L440.52 48.0474L433.774 48.0474Z" fill="rgb(0,0,0)" fill-rule="nonzero" />
	<path id="Ex mini black (color) 02" d="M392.07 56.5508L396.025 40.5767C397.138 36.1382 400.815 33.9189 407.055 33.9189L417.448 33.9189C417.829 33.9189 418.144 34.0508 418.393 34.3145C418.657 34.5635 418.789 34.8857 418.789 35.2812L418.789 56.6606C418.789 57.0415 418.657 57.3638 418.393 57.6274C418.144 57.8765 417.829 58.001 417.448 58.001L412.526 58.001C412.146 58.001 411.823 57.8765 411.56 57.6274C411.311 57.3638 411.186 57.0415 411.186 56.6606L411.186 39.2363L407.055 39.2363C405.004 39.2363 403.708 40.313 403.166 42.4663L399.716 56.375C399.584 56.8584 399.321 57.2539 398.925 57.5615C398.544 57.8545 398.134 58.001 397.695 58.001L393.19 58.001C392.795 58.001 392.495 57.8838 392.29 57.6494C392.099 57.4004 392.004 57.188 392.004 57.0122C392.004 56.8364 392.026 56.6826 392.07 56.5508Z" fill="rgb(0,0,0)" fill-rule="nonzero" />
	<path id="Ex mini black (color) 02" d="M392.07 56.5508L396.025 40.5767C397.138 36.1382 400.815 33.9189 407.055 33.9189L417.448 33.9189C417.829 33.9189 418.144 34.0508 418.393 34.3145C418.657 34.5635 418.789 34.8857 418.789 35.2812L418.789 56.6606C418.789 57.0415 418.657 57.3638 418.393 57.6274C418.144 57.8765 417.829 58.001 417.448 58.001L412.526 58.001C412.146 58.001 411.823 57.8765 411.56 57.6274C411.311 57.3638 411.186 57.0415 411.186 56.6606L411.186 39.2363L407.055 39.2363C405.004 39.2363 403.708 40.313 403.166 42.4663L399.716 56.375C399.584 56.8584 399.321 57.2539 398.925 57.5615C398.544 57.8545 398.134 58.001 397.695 58.001L393.19 58.001C392.795 58.001 392.495 57.8838 392.29 57.6494C392.099 57.4004 392.004 57.188 392.004 57.0122C392.004 56.8364 392.026 56.6826 392.07 56.5508Z" fill="rgb(0,0,0)" fill-rule="nonzero" />
	<path id="Ex mini black (color) 02" d="M367.064 55.2764C364.779 53.167 363.637 50.0615 363.637 45.96C363.637 41.8438 364.779 38.7383 367.064 36.6436C369.35 34.5342 372.631 33.4795 376.908 33.4795C381.2 33.4795 384.489 34.5342 386.774 36.6436C389.059 38.7383 390.202 41.8438 390.202 45.96C390.202 50.0615 389.059 53.167 386.774 55.2764C384.489 57.3857 381.2 58.4404 376.908 58.4404C372.631 58.4404 369.35 57.3857 367.064 55.2764ZM372.624 40.2471C371.715 41.4336 371.261 43.3306 371.261 45.938C371.261 48.5454 371.715 50.4497 372.624 51.6509C373.532 52.8521 374.96 53.4526 376.908 53.4526C378.871 53.4526 380.307 52.8521 381.215 51.6509C382.138 50.4497 382.599 48.5454 382.599 45.938C382.599 43.3306 382.138 41.4336 381.215 40.2471C380.307 39.0605 378.871 38.4673 376.908 38.4673C374.96 38.4673 373.532 39.0605 372.624 40.2471Z" fill="rgb(0,0,0)" fill-rule="nonzero" />
	<path id="Ex mini black (color) 02" d="M367.064 55.2764C364.779 53.167 363.637 50.0615 363.637 45.96C363.637 41.8438 364.779 38.7383 367.064 36.6436C369.35 34.5342 372.631 33.4795 376.908 33.4795C381.2 33.4795 384.489 34.5342 386.774 36.6436C389.059 38.7383 390.202 41.8438 390.202 45.96C390.202 50.0615 389.059 53.167 386.774 55.2764C384.489 57.3857 381.2 58.4404 376.908 58.4404C372.631 58.4404 369.35 57.3857 367.064 55.2764ZM372.624 40.2471C371.715 41.4336 371.261 43.3306 371.261 45.938C371.261 48.5454 371.715 50.4497 372.624 51.6509C373.532 52.8521 374.96 53.4526 376.908 53.4526C378.871 53.4526 380.307 52.8521 381.215 51.6509C382.138 50.4497 382.599 48.5454 382.599 45.938C382.599 43.3306 382.138 41.4336 381.215 40.2471C380.307 39.0605 378.871 38.4673 376.908 38.4673C374.96 38.4673 373.532 39.0605 372.624 40.2471Z" fill="rgb(0,0,0)" fill-rule="nonzero" />
	<path id="Ex mini black (color) 02" d="M362.252 57.0342C362.252 57.6787 361.872 58.001 361.11 58.001L356.957 58.001C355.551 58.001 354.43 57.3125 353.595 55.9355L350.805 51.3872C349.604 49.439 347.86 48.4648 345.575 48.4648L345.575 56.6606C345.575 57.0562 345.443 57.3784 345.18 57.6274C344.931 57.8765 344.616 58.001 344.235 58.001L339.313 58.001C338.917 58.001 338.595 57.8765 338.346 57.6274C338.097 57.3784 337.973 57.0562 337.973 56.6606L337.973 35.2812C337.973 34.8857 338.097 34.5635 338.346 34.3145C338.61 34.0508 338.932 33.9189 339.313 33.9189L344.235 33.9189C344.63 33.9189 344.953 34.0508 345.202 34.3145C345.451 34.5635 345.575 34.8857 345.575 35.2812L345.575 43.4551C348.124 43.4551 349.867 42.4663 350.805 40.4888L352.914 36.0063C353.207 35.3765 353.639 34.8711 354.21 34.4902C354.782 34.1094 355.397 33.9189 356.056 33.9189L360.209 33.9189C360.941 33.9189 361.308 34.2046 361.308 34.7759C361.308 35.0981 361.19 35.5083 360.956 36.0063L358.122 41.9829C357.638 42.979 356.979 43.8359 356.144 44.5537C355.309 45.2715 354.408 45.7329 353.441 45.938C355.243 46.48 356.803 47.7983 358.122 49.8931L361.857 55.9355C362.106 56.3604 362.238 56.7266 362.252 57.0342Z" fill="rgb(0,0,0)" fill-rule="nonzero" />
	<path id="Ex mini black (color) 02" d="M362.252 57.0342C362.252 57.6787 361.872 58.001 361.11 58.001L356.957 58.001C355.551 58.001 354.43 57.3125 353.595 55.9355L350.805 51.3872C349.604 49.439 347.86 48.4648 345.575 48.4648L345.575 56.6606C345.575 57.0562 345.443 57.3784 345.18 57.6274C344.931 57.8765 344.616 58.001 344.235 58.001L339.313 58.001C338.917 58.001 338.595 57.8765 338.346 57.6274C338.097 57.3784 337.973 57.0562 337.973 56.6606L337.973 35.2812C337.973 34.8857 338.097 34.5635 338.346 34.3145C338.61 34.0508 338.932 33.9189 339.313 33.9189L344.235 33.9189C344.63 33.9189 344.953 34.0508 345.202 34.3145C345.451 34.5635 345.575 34.8857 345.575 35.2812L345.575 43.4551C348.124 43.4551 349.867 42.4663 350.805 40.4888L352.914 36.0063C353.207 35.3765 353.639 34.8711 354.21 34.4902C354.782 34.1094 355.397 33.9189 356.056 33.9189L360.209 33.9189C360.941 33.9189 361.308 34.2046 361.308 34.7759C361.308 35.0981 361.19 35.5083 360.956 36.0063L358.122 41.9829C357.638 42.979 356.979 43.8359 356.144 44.5537C355.309 45.2715 354.408 45.7329 353.441 45.938C355.243 46.48 356.803 47.7983 358.122 49.8931L361.857 55.9355C362.106 56.3604 362.238 56.7266 362.252 57.0342Z" fill="rgb(0,0,0)" fill-rule="nonzero" />
	<path id="Ex mini black (color) 02" d="M295.961 56.6606L295.961 35.2812C295.961 34.8857 296.085 34.5635 296.334 34.3145C296.598 34.0508 296.92 33.9189 297.301 33.9189L302.223 33.9189C302.604 33.9189 302.919 34.0508 303.168 34.3145C303.432 34.5635 303.563 34.8857 303.563 35.2812L303.563 52.6836L310.441 52.6836L310.441 35.2812C310.441 34.8857 310.565 34.5635 310.814 34.3145C311.078 34.0508 311.408 33.9189 311.803 33.9189L316.703 33.9189C317.099 33.9189 317.421 34.0508 317.67 34.3145C317.919 34.5635 318.043 34.8857 318.043 35.2812L318.043 52.6836L324.943 52.6836L324.943 35.2812C324.943 34.8857 325.067 34.5635 325.316 34.3145C325.58 34.0508 325.902 33.9189 326.283 33.9189L331.183 33.9189C331.579 33.9189 331.901 34.0508 332.15 34.3145C332.414 34.5635 332.545 34.8857 332.545 35.2812L332.545 56.6606C332.545 57.0415 332.414 57.3638 332.15 57.6274C331.901 57.8765 331.579 58.001 331.183 58.001L297.301 58.001C296.92 58.001 296.598 57.8765 296.334 57.6274C296.085 57.3638 295.961 57.0415 295.961 56.6606Z" fill="rgb(0,0,0)" fill-rule="nonzero" />
	<path id="Ex mini black (color) 02" d="M295.961 56.6606L295.961 35.2812C295.961 34.8857 296.085 34.5635 296.334 34.3145C296.598 34.0508 296.92 33.9189 297.301 33.9189L302.223 33.9189C302.604 33.9189 302.919 34.0508 303.168 34.3145C303.432 34.5635 303.563 34.8857 303.563 35.2812L303.563 52.6836L310.441 52.6836L310.441 35.2812C310.441 34.8857 310.565 34.5635 310.814 34.3145C311.078 34.0508 311.408 33.9189 311.803 33.9189L316.703 33.9189C317.099 33.9189 317.421 34.0508 317.67 34.3145C317.919 34.5635 318.043 34.8857 318.043 35.2812L318.043 52.6836L324.943 52.6836L324.943 35.2812C324.943 34.8857 325.067 34.5635 325.316 34.3145C325.58 34.0508 325.902 33.9189 326.283 33.9189L331.183 33.9189C331.579 33.9189 331.901 34.0508 332.15 34.3145C332.414 34.5635 332.545 34.8857 332.545 35.2812L332.545 56.6606C332.545 57.0415 332.414 57.3638 332.15 57.6274C331.901 57.8765 331.579 58.001 331.183 58.001L297.301 58.001C296.92 58.001 296.598 57.8765 296.334 57.6274C296.085 57.3638 295.961 57.0415 295.961 56.6606Z" fill="rgb(0,0,0)" fill-rule="nonzero" />
	<path id="Ex mini black (color) 02" d="M250.675 41.6753C250.675 36.519 253.942 33.9336 260.475 33.9189L273.439 33.9189C273.834 33.9189 274.157 34.0508 274.406 34.3145C274.655 34.5635 274.779 34.8857 274.779 35.2812L274.779 56.6606C274.779 57.0562 274.655 57.3784 274.406 57.6274C274.157 57.8765 273.834 58.001 273.439 58.001L268.539 58.001C268.144 58.001 267.814 57.8765 267.55 57.6274C267.301 57.3638 267.177 57.0415 267.177 56.6606L267.177 49.4097L262.87 49.4097L259.135 56.0674C258.417 57.3564 257.274 58.001 255.707 58.001L251.752 58.001C251.21 58.001 250.858 57.8032 250.697 57.4077C250.639 57.2759 250.609 57.1074 250.609 56.9023C250.609 56.6826 250.719 56.4043 250.939 56.0674L255.355 48.6846C252.235 47.5273 250.675 45.1909 250.675 41.6753ZM259.047 39.6758C258.534 40.1592 258.278 40.8257 258.278 41.6753C258.278 42.5103 258.527 43.1768 259.025 43.6748C259.538 44.1729 260.248 44.4219 261.156 44.4219L267.177 44.4219L267.177 38.9287L261.156 38.9287C260.263 38.9287 259.56 39.1777 259.047 39.6758Z" fill="rgb(0,0,0)" fill-rule="nonzero" />
	<path id="Ex mini black (color) 02" d="M250.675 41.6753C250.675 36.519 253.942 33.9336 260.475 33.9189L273.439 33.9189C273.834 33.9189 274.157 34.0508 274.406 34.3145C274.655 34.5635 274.779 34.8857 274.779 35.2812L274.779 56.6606C274.779 57.0562 274.655 57.3784 274.406 57.6274C274.157 57.8765 273.834 58.001 273.439 58.001L268.539 58.001C268.144 58.001 267.814 57.8765 267.55 57.6274C267.301 57.3638 267.177 57.0415 267.177 56.6606L267.177 49.4097L262.87 49.4097L259.135 56.0674C258.417 57.3564 257.274 58.001 255.707 58.001L251.752 58.001C251.21 58.001 250.858 57.8032 250.697 57.4077C250.639 57.2759 250.609 57.1074 250.609 56.9023C250.609 56.6826 250.719 56.4043 250.939 56.0674L255.355 48.6846C252.235 47.5273 250.675 45.1909 250.675 41.6753ZM259.047 39.6758C258.534 40.1592 258.278 40.8257 258.278 41.6753C258.278 42.5103 258.527 43.1768 259.025 43.6748C259.538 44.1729 260.248 44.4219 261.156 44.4219L267.177 44.4219L267.177 38.9287L261.156 38.9287C260.263 38.9287 259.56 39.1777 259.047 39.6758Z" fill="rgb(0,0,0)" fill-rule="nonzero" />
	<path id="Ex mini black (color) 02" d="M223.936 56.4189C222.002 55.0713 221.035 53.167 221.035 50.7061C221.035 48.2451 222.002 46.3555 223.936 45.0371C225.884 43.7188 228.389 43.0596 231.45 43.0596L238.723 43.0596C238.723 41.3457 238.364 40.1519 237.646 39.478C236.929 38.8042 235.669 38.4673 233.867 38.4673C232.08 38.4673 230.82 38.9141 230.088 39.8076C229.37 40.6865 228.484 41.126 227.429 41.126L224.155 41.126C223.76 41.126 223.43 41.0015 223.167 40.7524C222.917 40.4888 222.793 40.1665 222.793 39.7856C222.793 35.5815 226.785 33.4795 234.768 33.4795C238.254 33.4795 241.052 34.2632 243.162 35.8306C245.271 37.3833 246.326 39.793 246.326 43.0596L246.326 56.6606C246.326 57.0562 246.201 57.3784 245.952 57.6274C245.703 57.8765 245.381 58.001 244.985 58.001L240.745 58.001C240.349 58.001 240.027 57.8765 239.778 57.6274C239.529 57.3638 239.404 57.0415 239.404 56.6606L239.404 55.9795C237.09 57.6348 234.417 58.4551 231.384 58.4404C228.367 58.4404 225.884 57.7666 223.936 56.4189ZM231.978 48.0474C230.952 48.0474 230.139 48.2964 229.539 48.7944C228.953 49.2925 228.66 49.937 228.66 50.728C228.66 51.519 228.967 52.1709 229.583 52.6836C230.198 53.1963 231.069 53.4526 232.197 53.4526C234.453 53.4526 236.628 52.7935 238.723 51.4751L238.723 48.0474L231.978 48.0474Z" fill="rgb(0,0,0)" fill-rule="nonzero" />
	<path id="Ex mini black (color) 02" d="M223.936 56.4189C222.002 55.0713 221.035 53.167 221.035 50.7061C221.035 48.2451 222.002 46.3555 223.936 45.0371C225.884 43.7188 228.389 43.0596 231.45 43.0596L238.723 43.0596C238.723 41.3457 238.364 40.1519 237.646 39.478C236.929 38.8042 235.669 38.4673 233.867 38.4673C232.08 38.4673 230.82 38.9141 230.088 39.8076C229.37 40.6865 228.484 41.126 227.429 41.126L224.155 41.126C223.76 41.126 223.43 41.0015 223.167 40.7524C222.917 40.4888 222.793 40.1665 222.793 39.7856C222.793 35.5815 226.785 33.4795 234.768 33.4795C238.254 33.4795 241.052 34.2632 243.162 35.8306C245.271 37.3833 246.326 39.793 246.326 43.0596L246.326 56.6606C246.326 57.0562 246.201 57.3784 245.952 57.6274C245.703 57.8765 245.381 58.001 244.985 58.001L240.745 58.001C240.349 58.001 240.027 57.8765 239.778 57.6274C239.529 57.3638 239.404 57.0415 239.404 56.6606L239.404 55.9795C237.09 57.6348 234.417 58.4551 231.384 58.4404C228.367 58.4404 225.884 57.7666 223.936 56.4189ZM231.978 48.0474C230.952 48.0474 230.139 48.2964 229.539 48.7944C228.953 49.2925 228.66 49.937 228.66 50.728C228.66 51.519 228.967 52.1709 229.583 52.6836C230.198 53.1963 231.069 53.4526 232.197 53.4526C234.453 53.4526 236.628 52.7935 238.723 51.4751L238.723 48.0474L231.978 48.0474Z" fill="rgb(0,0,0)" fill-rule="nonzero" />
	<path id="Ex mini black (color) 02" d="M192.164 56.6606L192.164 35.2812C192.164 34.8857 192.289 34.5635 192.538 34.3145C192.801 34.0508 193.124 33.9189 193.504 33.9189L198.426 33.9189C198.822 33.9189 199.144 34.0508 199.393 34.3145C199.642 34.5635 199.767 34.8857 199.767 35.2812L199.767 43.1475L209.391 43.1475L209.391 35.2812C209.391 34.8857 209.515 34.5635 209.764 34.3145C210.028 34.0508 210.357 33.9189 210.753 33.9189L215.653 33.9189C216.048 33.9189 216.371 34.0508 216.62 34.3145C216.869 34.5635 216.993 34.8857 216.993 35.2812L216.993 56.6606C216.993 57.0562 216.869 57.3784 216.62 57.6274C216.371 57.8765 216.048 58.001 215.653 58.001L210.753 58.001C210.357 58.001 210.028 57.8765 209.764 57.6274C209.515 57.3638 209.391 57.0415 209.391 56.6606L209.391 48.4648L199.767 48.4648L199.767 56.6606C199.767 57.0562 199.635 57.3784 199.371 57.6274C199.122 57.8765 198.807 58.001 198.426 58.001L193.504 58.001C193.109 58.001 192.787 57.8765 192.538 57.6274C192.289 57.3784 192.164 57.0562 192.164 56.6606Z" fill="rgb(0,0,0)" fill-rule="nonzero" />
	<path id="Ex mini black (color) 02" d="M192.164 56.6606L192.164 35.2812C192.164 34.8857 192.289 34.5635 192.538 34.3145C192.801 34.0508 193.124 33.9189 193.504 33.9189L198.426 33.9189C198.822 33.9189 199.144 34.0508 199.393 34.3145C199.642 34.5635 199.767 34.8857 199.767 35.2812L199.767 43.1475L209.391 43.1475L209.391 35.2812C209.391 34.8857 209.515 34.5635 209.764 34.3145C210.028 34.0508 210.357 33.9189 210.753 33.9189L215.653 33.9189C216.048 33.9189 216.371 34.0508 216.62 34.3145C216.869 34.5635 216.993 34.8857 216.993 35.2812L216.993 56.6606C216.993 57.0562 216.869 57.3784 216.62 57.6274C216.371 57.8765 216.048 58.001 215.653 58.001L210.753 58.001C210.357 58.001 210.028 57.8765 209.764 57.6274C209.515 57.3638 209.391 57.0415 209.391 56.6606L209.391 48.4648L199.767 48.4648L199.767 56.6606C199.767 57.0562 199.635 57.3784 199.371 57.6274C199.122 57.8765 198.807 58.001 198.426 58.001L193.504 58.001C193.109 58.001 192.787 57.8765 192.538 57.6274C192.289 57.3784 192.164 57.0562 192.164 56.6606Z" fill="rgb(0,0,0)" fill-rule="nonzero" />
	<path id="Ex mini black (color) 02" d="M164.258 56.6606L164.258 35.2812C164.258 34.8857 164.382 34.5635 164.631 34.3145C164.895 34.0508 165.217 33.9189 165.598 33.9189L170.52 33.9189C170.901 33.9189 171.216 34.0508 171.465 34.3145C171.729 34.5635 171.86 34.8857 171.86 35.2812L171.86 41.895L178.518 41.895C181.638 41.895 184.055 42.5103 185.769 43.7407C187.483 44.9712 188.34 47.0439 188.34 49.959C188.34 52.8594 187.483 54.9248 185.769 56.1553C184.055 57.3857 181.638 58.001 178.518 58.001L165.598 58.001C165.217 58.001 164.895 57.8765 164.631 57.6274C164.382 57.3638 164.258 57.0415 164.258 56.6606ZM171.86 53.0132L177.837 53.0132C178.745 53.0132 179.448 52.7495 179.946 52.2222C180.459 51.6948 180.715 50.9404 180.715 49.959C180.715 48.9629 180.459 48.2012 179.946 47.6738C179.448 47.1465 178.745 46.8828 177.837 46.8828L171.86 46.8828L171.86 53.0132Z" fill="rgb(0,0,0)" fill-rule="nonzero" />
	<path id="Ex mini black (color) 02" d="M164.258 56.6606L164.258 35.2812C164.258 34.8857 164.382 34.5635 164.631 34.3145C164.895 34.0508 165.217 33.9189 165.598 33.9189L170.52 33.9189C170.901 33.9189 171.216 34.0508 171.465 34.3145C171.729 34.5635 171.86 34.8857 171.86 35.2812L171.86 41.895L178.518 41.895C181.638 41.895 184.055 42.5103 185.769 43.7407C187.483 44.9712 188.34 47.0439 188.34 49.959C188.34 52.8594 187.483 54.9248 185.769 56.1553C184.055 57.3857 181.638 58.001 178.518 58.001L165.598 58.001C165.217 58.001 164.895 57.8765 164.631 57.6274C164.382 57.3638 164.258 57.0415 164.258 56.6606ZM171.86 53.0132L177.837 53.0132C178.745 53.0132 179.448 52.7495 179.946 52.2222C180.459 51.6948 180.715 50.9404 180.715 49.959C180.715 48.9629 180.459 48.2012 179.946 47.6738C179.448 47.1465 178.745 46.8828 177.837 46.8828L171.86 46.8828L171.86 53.0132Z" fill="rgb(0,0,0)" fill-rule="nonzero" />
	<path id="Ex mini black (color) 02" d="M132.136 56.5508L136.091 40.5767C137.205 36.1382 140.881 33.9189 147.122 33.9189L157.515 33.9189C157.896 33.9189 158.21 34.0508 158.459 34.3145C158.723 34.5635 158.855 34.8857 158.855 35.2812L158.855 56.6606C158.855 57.0415 158.723 57.3638 158.459 57.6274C158.21 57.8765 157.896 58.001 157.515 58.001L152.593 58.001C152.212 58.001 151.89 57.8765 151.626 57.6274C151.377 57.3638 151.252 57.0415 151.252 56.6606L151.252 39.2363L147.122 39.2363C145.071 39.2363 143.774 40.313 143.232 42.4663L139.783 56.375C139.651 56.8584 139.387 57.2539 138.992 57.5615C138.611 57.8545 138.201 58.001 137.761 58.001L133.257 58.001C132.861 58.001 132.561 57.8838 132.356 57.6494C132.166 57.4004 132.07 57.188 132.07 57.0122C132.07 56.8364 132.092 56.6826 132.136 56.5508Z" fill="rgb(0,0,0)" fill-rule="nonzero" />
	<path id="Ex mini black (color) 02" d="M132.136 56.5508L136.091 40.5767C137.205 36.1382 140.881 33.9189 147.122 33.9189L157.515 33.9189C157.896 33.9189 158.21 34.0508 158.459 34.3145C158.723 34.5635 158.855 34.8857 158.855 35.2812L158.855 56.6606C158.855 57.0415 158.723 57.3638 158.459 57.6274C158.21 57.8765 157.896 58.001 157.515 58.001L152.593 58.001C152.212 58.001 151.89 57.8765 151.626 57.6274C151.377 57.3638 151.252 57.0415 151.252 56.6606L151.252 39.2363L147.122 39.2363C145.071 39.2363 143.774 40.313 143.232 42.4663L139.783 56.375C139.651 56.8584 139.387 57.2539 138.992 57.5615C138.611 57.8545 138.201 58.001 137.761 58.001L133.257 58.001C132.861 58.001 132.561 57.8838 132.356 57.6494C132.166 57.4004 132.07 57.188 132.07 57.0122C132.07 56.8364 132.092 56.6826 132.136 56.5508Z" fill="rgb(0,0,0)" fill-rule="nonzero" />
	<path id="Ex mini black (color) 02" d="M106.514 56.4189C104.58 55.0713 103.613 53.167 103.613 50.7061C103.613 48.2451 104.58 46.3555 106.514 45.0371C108.462 43.7188 110.967 43.0596 114.028 43.0596L121.301 43.0596C121.301 41.3457 120.942 40.1519 120.225 39.478C119.507 38.8042 118.247 38.4673 116.445 38.4673C114.658 38.4673 113.398 38.9141 112.666 39.8076C111.948 40.6865 111.062 41.126 110.007 41.126L106.733 41.126C106.338 41.126 106.008 41.0015 105.745 40.7524C105.496 40.4888 105.371 40.1665 105.371 39.7856C105.371 35.5815 109.363 33.4795 117.346 33.4795C120.833 33.4795 123.63 34.2632 125.74 35.8306C127.849 37.3833 128.904 39.793 128.904 43.0596L128.904 56.6606C128.904 57.0562 128.779 57.3784 128.53 57.6274C128.281 57.8765 127.959 58.001 127.563 58.001L123.323 58.001C122.927 58.001 122.605 57.8765 122.356 57.6274C122.107 57.3638 121.982 57.0415 121.982 56.6606L121.982 55.9795C119.668 57.6348 116.995 58.4551 113.962 58.4404C110.945 58.4404 108.462 57.7666 106.514 56.4189ZM114.556 48.0474C113.53 48.0474 112.717 48.2964 112.117 48.7944C111.531 49.2925 111.238 49.937 111.238 50.728C111.238 51.519 111.545 52.1709 112.161 52.6836C112.776 53.1963 113.647 53.4526 114.775 53.4526C117.031 53.4526 119.207 52.7935 121.301 51.4751L121.301 48.0474L114.556 48.0474Z" fill="rgb(0,0,0)" fill-rule="nonzero" />
	<path id="Ex mini black (color) 02" d="M106.514 56.4189C104.58 55.0713 103.613 53.167 103.613 50.7061C103.613 48.2451 104.58 46.3555 106.514 45.0371C108.462 43.7188 110.967 43.0596 114.028 43.0596L121.301 43.0596C121.301 41.3457 120.942 40.1519 120.225 39.478C119.507 38.8042 118.247 38.4673 116.445 38.4673C114.658 38.4673 113.398 38.9141 112.666 39.8076C111.948 40.6865 111.062 41.126 110.007 41.126L106.733 41.126C106.338 41.126 106.008 41.0015 105.745 40.7524C105.496 40.4888 105.371 40.1665 105.371 39.7856C105.371 35.5815 109.363 33.4795 117.346 33.4795C120.833 33.4795 123.63 34.2632 125.74 35.8306C127.849 37.3833 128.904 39.793 128.904 43.0596L128.904 56.6606C128.904 57.0562 128.779 57.3784 128.53 57.6274C128.281 57.8765 127.959 58.001 127.563 58.001L123.323 58.001C122.927 58.001 122.605 57.8765 122.356 57.6274C122.107 57.3638 121.982 57.0415 121.982 56.6606L121.982 55.9795C119.668 57.6348 116.995 58.4551 113.962 58.4404C110.945 58.4404 108.462 57.7666 106.514 56.4189ZM114.556 48.0474C113.53 48.0474 112.717 48.2964 112.117 48.7944C111.531 49.2925 111.238 49.937 111.238 50.728C111.238 51.519 111.545 52.1709 112.161 52.6836C112.776 53.1963 113.647 53.4526 114.775 53.4526C117.031 53.4526 119.207 52.7935 121.301 51.4751L121.301 48.0474L114.556 48.0474Z" fill="rgb(0,0,0)" fill-rule="nonzero" />
	<path id="Ex mini black (color) 02" d="M75.707 35.2812C75.707 34.8857 75.8315 34.5635 76.0806 34.3145C76.3442 34.0508 76.6738 33.9189 77.0693 33.9189L81.9692 33.9189C82.3647 33.9189 82.687 34.0508 82.936 34.3145C83.1997 34.5635 83.3315 34.8857 83.3315 35.2812L83.3315 41.7632C83.3315 42.8618 83.6099 43.6675 84.1665 44.1802C84.7378 44.6929 85.4775 44.9492 86.3857 44.9492L91.9668 44.9492L91.9668 35.2812C91.9668 34.8857 92.0913 34.5635 92.3403 34.3145C92.604 34.0508 92.9263 33.9189 93.3071 33.9189L98.207 33.9189C98.6025 33.9189 98.9248 34.0508 99.1738 34.3145C99.4375 34.5635 99.5693 34.8857 99.5693 35.2812L99.5693 56.6606C99.5693 57.0415 99.4375 57.3638 99.1738 57.6274C98.9248 57.8765 98.6025 58.001 98.207 58.001L93.3071 58.001C92.9263 58.001 92.604 57.8765 92.3403 57.6274C92.0913 57.3638 91.9668 57.0415 91.9668 56.6606L91.9668 50.2666L86.3857 50.2666C82.7236 50.2666 80.0283 49.6294 78.2998 48.355C76.5713 47.0806 75.707 44.8833 75.707 41.7632L75.707 35.2812Z" fill="rgb(0,0,0)" fill-rule="nonzero" />
	<path id="Ex mini black (color) 02" d="M75.707 35.2812C75.707 34.8857 75.8315 34.5635 76.0806 34.3145C76.3442 34.0508 76.6738 33.9189 77.0693 33.9189L81.9692 33.9189C82.3647 33.9189 82.687 34.0508 82.936 34.3145C83.1997 34.5635 83.3315 34.8857 83.3315 35.2812L83.3315 41.7632C83.3315 42.8618 83.6099 43.6675 84.1665 44.1802C84.7378 44.6929 85.4775 44.9492 86.3857 44.9492L91.9668 44.9492L91.9668 35.2812C91.9668 34.8857 92.0913 34.5635 92.3403 34.3145C92.604 34.0508 92.9263 33.9189 93.3071 33.9189L98.207 33.9189C98.6025 33.9189 98.9248 34.0508 99.1738 34.3145C99.4375 34.5635 99.5693 34.8857 99.5693 35.2812L99.5693 56.6606C99.5693 57.0415 99.4375 57.3638 99.1738 57.6274C98.9248 57.8765 98.6025 58.001 98.207 58.001L93.3071 58.001C92.9263 58.001 92.604 57.8765 92.3403 57.6274C92.0913 57.3638 91.9668 57.0415 91.9668 56.6606L91.9668 50.2666L86.3857 50.2666C82.7236 50.2666 80.0283 49.6294 78.2998 48.355C76.5713 47.0806 75.707 44.8833 75.707 41.7632L75.707 35.2812Z" fill="rgb(0,0,0)" fill-rule="nonzero" />
	<path id="Ex mini black (color) 02" d="M49.252 56.4189C47.3184 55.0713 46.3516 53.167 46.3516 50.7061C46.3516 48.2451 47.3184 46.3555 49.252 45.0371C51.2002 43.7188 53.7051 43.0596 56.7666 43.0596L64.0396 43.0596C64.0396 41.3457 63.6807 40.1519 62.9629 39.478C62.2451 38.8042 60.9854 38.4673 59.1836 38.4673C57.3965 38.4673 56.1367 38.9141 55.4043 39.8076C54.6865 40.6865 53.8003 41.126 52.7456 41.126L49.4717 41.126C49.0762 41.126 48.7466 41.0015 48.4829 40.7524C48.2339 40.4888 48.1094 40.1665 48.1094 39.7856C48.1094 35.5815 52.1011 33.4795 60.0845 33.4795C63.5708 33.4795 66.3687 34.2632 68.478 35.8306C70.5874 37.3833 71.6421 39.793 71.6421 43.0596L71.6421 56.6606C71.6421 57.0562 71.5176 57.3784 71.2686 57.6274C71.0195 57.8765 70.6973 58.001 70.3018 58.001L66.061 58.001C65.6655 58.001 65.3433 57.8765 65.0942 57.6274C64.8452 57.3638 64.7207 57.0415 64.7207 56.6606L64.7207 55.9795C62.4062 57.6348 59.7329 58.4551 56.7007 58.4404C53.6831 58.4404 51.2002 57.7666 49.252 56.4189ZM57.2939 48.0474C56.2686 48.0474 55.4556 48.2964 54.855 48.7944C54.269 49.2925 53.9761 49.937 53.9761 50.728C53.9761 51.519 54.2837 52.1709 54.8989 52.6836C55.5142 53.1963 56.3857 53.4526 57.5137 53.4526C59.7695 53.4526 61.9448 52.7935 64.0396 51.4751L64.0396 48.0474L57.2939 48.0474Z" fill="rgb(0,0,0)" fill-rule="nonzero" />
	<path id="Ex mini black (color) 02" d="M49.252 56.4189C47.3184 55.0713 46.3516 53.167 46.3516 50.7061C46.3516 48.2451 47.3184 46.3555 49.252 45.0371C51.2002 43.7188 53.7051 43.0596 56.7666 43.0596L64.0396 43.0596C64.0396 41.3457 63.6807 40.1519 62.9629 39.478C62.2451 38.8042 60.9854 38.4673 59.1836 38.4673C57.3965 38.4673 56.1367 38.9141 55.4043 39.8076C54.6865 40.6865 53.8003 41.126 52.7456 41.126L49.4717 41.126C49.0762 41.126 48.7466 41.0015 48.4829 40.7524C48.2339 40.4888 48.1094 40.1665 48.1094 39.7856C48.1094 35.5815 52.1011 33.4795 60.0845 33.4795C63.5708 33.4795 66.3687 34.2632 68.478 35.8306C70.5874 37.3833 71.6421 39.793 71.6421 43.0596L71.6421 56.6606C71.6421 57.0562 71.5176 57.3784 71.2686 57.6274C71.0195 57.8765 70.6973 58.001 70.3018 58.001L66.061 58.001C65.6655 58.001 65.3433 57.8765 65.0942 57.6274C64.8452 57.3638 64.7207 57.0415 64.7207 56.6606L64.7207 55.9795C62.4062 57.6348 59.7329 58.4551 56.7007 58.4404C53.6831 58.4404 51.2002 57.7666 49.252 56.4189ZM57.2939 48.0474C56.2686 48.0474 55.4556 48.2964 54.855 48.7944C54.269 49.2925 53.9761 49.937 53.9761 50.728C53.9761 51.519 54.2837 52.1709 54.8989 52.6836C55.5142 53.1963 56.3857 53.4526 57.5137 53.4526C59.7695 53.4526 61.9448 52.7935 64.0396 51.4751L64.0396 48.0474L57.2939 48.0474Z" fill="rgb(0,0,0)" fill-rule="nonzero" />
	<path id="Ex mini black (color) 02" d="M10.1406 55.9355L10.1406 28.5796C10.1406 28.0083 10.3457 27.5176 10.7559 27.1074C11.166 26.6973 11.6714 26.4922 12.272 26.4922L16.3589 26.4922C16.9302 26.4922 17.4136 26.6973 17.8091 27.1074C18.2192 27.5176 18.4243 28.0083 18.4243 28.5796L18.4243 38.4673L33.5415 38.4673L33.5415 28.5796C33.5415 28.0083 33.7466 27.5176 34.1567 27.1074C34.5669 26.6973 35.0576 26.4922 35.6289 26.4922L39.7158 26.4922C40.3164 26.4922 40.8145 26.6973 41.21 27.1074C41.6201 27.5176 41.8252 28.0083 41.8252 28.5796L41.8252 55.9355C41.8252 56.5068 41.6128 56.9976 41.188 57.4077C40.7778 57.8032 40.2871 58.001 39.7158 58.001L35.6289 58.001C35.0576 58.001 34.5669 57.8105 34.1567 57.4297C33.7466 57.0342 33.5415 56.5508 33.5415 55.9795L33.5415 44.6855L18.4243 44.6855L18.4243 55.9795C18.4243 56.5508 18.2192 57.0342 17.8091 57.4297C17.4136 57.8105 16.9302 58.001 16.3589 58.001L12.272 58.001C11.7007 58.001 11.2026 57.8032 10.7778 57.4077C10.353 56.9976 10.1406 56.5068 10.1406 55.9355Z" fill="rgb(0,0,0)" fill-rule="nonzero" />
	<path id="Ex mini black (color) 02" d="M10.1406 55.9355L10.1406 28.5796C10.1406 28.0083 10.3457 27.5176 10.7559 27.1074C11.166 26.6973 11.6714 26.4922 12.272 26.4922L16.3589 26.4922C16.9302 26.4922 17.4136 26.6973 17.8091 27.1074C18.2192 27.5176 18.4243 28.0083 18.4243 28.5796L18.4243 38.4673L33.5415 38.4673L33.5415 28.5796C33.5415 28.0083 33.7466 27.5176 34.1567 27.1074C34.5669 26.6973 35.0576 26.4922 35.6289 26.4922L39.7158 26.4922C40.3164 26.4922 40.8145 26.6973 41.21 27.1074C41.6201 27.5176 41.8252 28.0083 41.8252 28.5796L41.8252 55.9355C41.8252 56.5068 41.6128 56.9976 41.188 57.4077C40.7778 57.8032 40.2871 58.001 39.7158 58.001L35.6289 58.001C35.0576 58.001 34.5669 57.8105 34.1567 57.4297C33.7466 57.0342 33.5415 56.5508 33.5415 55.9795L33.5415 44.6855L18.4243 44.6855L18.4243 55.9795C18.4243 56.5508 18.2192 57.0342 17.8091 57.4297C17.4136 57.8105 16.9302 58.001 16.3589 58.001L12.272 58.001C11.7007 58.001 11.2026 57.8032 10.7778 57.4077C10.353 56.9976 10.1406 56.5068 10.1406 55.9355Z" fill="rgb(0,0,0)" fill-rule="nonzero" />
	<path id="Ex mini black (color) 02" d="M1.99973 14.6819L0.526579 11.781C-0.595237 9.57198 0.118629 6.812 2.25602 5.67273C20.7254 -4.17183 38.1704 0.737068 47.1443 5.87485C48.9946 6.93423 49.5103 9.23057 48.4692 11.1422C47.933 12.1266 47.2503 13.3663 46.3912 14.9085C45.1375 17.1592 42.3767 17.8996 40.1214 16.7761C29.1587 11.315 19.5645 11.3085 8.32315 16.7567C6.00579 17.8799 3.1939 17.0335 1.99973 14.6819Z" fill="rgb(0,0,0)" fill-rule="nonzero" />
	<path id="Ex mini black (color) 02" d="M1.99973 14.6819L0.526579 11.781C-0.595237 9.57198 0.118629 6.812 2.25602 5.67273C20.7254 -4.17183 38.1704 0.737068 47.1443 5.87485C48.9946 6.93423 49.5103 9.23057 48.4692 11.1422C47.933 12.1266 47.2503 13.3663 46.3912 14.9085C45.1375 17.1592 42.3767 17.8996 40.1214 16.7761C29.1587 11.315 19.5645 11.3085 8.32315 16.7567C6.00579 17.8799 3.1939 17.0335 1.99973 14.6819Z" fill="rgb(255,180.183,115.394)" fill-rule="nonzero" />
</svg>
