<svg viewBox="0 0 355.529 122.026" xmlns="http://www.w3.org/2000/svg" xmlns:xlink="http://www.w3.org/1999/xlink" width="355.528809" height="122.025879" fill="none" customFrame="#000000">
	<rect id="Ex max white 17" width="355.528809" height="122.025841" x="0.000000" y="0.000000" fill="rgb(255,255,255)" fill-opacity="0" />
	<path id="Ex max white 17" d="M3.87703 28.0155L1.02092 22.4802C-1.15403 18.2649 0.229996 12.9984 4.37392 10.8245C40.1818 -7.96054 74.0038 1.40645 91.4021 11.2102C94.9895 13.2316 95.9894 17.6134 93.9708 21.2611C92.9314 23.1395 91.6076 25.505 89.942 28.4479C87.5114 32.7426 82.1589 34.1553 77.7864 32.0115C56.5322 21.5908 37.9312 21.5785 16.1367 31.9746C11.6439 34.1177 6.19225 32.5026 3.87703 28.0155ZM12.6546 50.5812Q12.332 51.4023 12.332 52.3501L12.332 116.181Q12.332 117.129 12.6546 117.95Q13.0125 118.861 13.7676 119.616Q14.4786 120.301 15.328 120.647Q16.1935 121 17.2026 121L61.2944 121Q71.5255 121 78.8827 116.402Q79.7471 115.862 80.5718 115.258Q83.3073 113.251 85.095 110.603Q88.4673 105.61 88.4673 98.3389Q88.4673 92.819 86.0441 88.7378Q83.5833 84.5933 78.6235 81.9326Q83.6236 77.8585 85.0116 72.7943Q85.5449 70.8484 85.5449 68.7563Q85.5449 62.1796 82.5022 57.6442Q82.0344 56.9469 81.4946 56.2979Q80.516 55.1125 79.392 54.0865Q72.1538 47.4795 58.8848 47.4795L17.2026 47.4795Q16.2548 47.4795 15.4337 47.8021Q14.5226 48.16 13.7676 48.915Q13.0125 49.6701 12.6546 50.5812ZM59.0898 76.0366L31.6606 76.0366L31.6606 61.3735L59.0898 61.3735Q61.5486 61.3735 63.2647 62.5025Q63.8029 62.8566 64.2681 63.3218Q64.5207 63.5745 64.7406 63.853Q66.2163 65.7222 66.2163 68.7563Q66.2163 71.6773 64.8076 73.5231Q64.5597 73.8481 64.2681 74.1396Q63.8587 74.5383 63.3927 74.8531Q61.6411 76.0366 59.0898 76.0366ZM101.096 112.919L101.095 112.919Q94.7734 105.667 94.7734 92.9043Q94.7734 80.0259 101.165 72.8012L101.165 72.8009Q101.923 71.9437 102.771 71.166Q110.77 63.7832 125.74 63.7832Q140.762 63.7832 148.76 71.166Q149.609 71.9437 150.367 72.8009L150.367 72.8012Q156.758 80.0259 156.758 92.9043Q156.758 105.667 150.436 112.919L150.436 112.919Q149.647 113.824 148.76 114.643Q140.762 122.025 125.74 122.025Q110.77 122.025 102.771 114.643Q101.884 113.824 101.096 112.919ZM233.404 117.309Q230.361 115.188 228.686 112.279L228.686 112.278Q226.637 108.718 226.637 103.979Q226.637 99.1781 228.739 95.6197L228.74 95.6186Q230.409 92.7931 233.404 90.751Q240.223 86.1367 250.938 86.1367L267.909 86.1367Q267.909 80.1382 265.396 77.7798Q262.884 75.4214 256.578 75.4214Q250.408 75.4214 247.83 78.4644Q247.795 78.5063 247.76 78.5488Q246.255 80.3913 244.327 81.1302Q243.037 81.625 241.556 81.625L233.917 81.625Q233.009 81.625 232.299 81.2497L232.298 81.2491L232.296 81.248L232.295 81.2478Q231.926 81.0516 231.61 80.7534Q231.252 80.3743 231.041 79.9261L231.041 79.9258Q230.738 79.2829 230.738 78.4976Q230.738 75.303 232.055 72.802Q236.805 63.7832 258.68 63.7832Q270.882 63.7832 278.265 69.269Q280.052 70.5847 281.407 72.2519Q285.648 77.4716 285.648 86.1367L285.648 117.873Q285.648 118.833 285.228 119.547L285.226 119.551Q285.041 119.864 284.776 120.128Q284.51 120.395 284.195 120.58Q283.481 121 282.521 121L272.625 121Q271.665 121 270.951 120.58Q270.636 120.395 270.37 120.128Q270.013 119.751 269.802 119.304L269.801 119.301L269.8 119.299Q269.498 118.657 269.498 117.873L269.498 116.283Q266.794 118.217 263.81 119.5Q257.855 122.06 250.785 122.025Q240.223 122.025 233.404 117.309ZM222.431 120.234Q222.895 119.685 222.895 118.744Q222.844 117.667 221.972 116.181L213.256 102.082Q208.693 94.8315 202.476 92.8959Q202.406 92.8741 202.336 92.853Q202.589 92.7993 202.84 92.7356L202.861 92.7301L202.872 92.7273Q205.952 91.9352 208.642 89.623Q210.005 88.4517 211.1 87.0686L211.1 87.0679Q212.354 85.4849 213.256 83.6245L219.87 69.6792Q220.69 67.936 220.69 66.8081Q220.69 66.0518 220.324 65.5815Q219.721 64.8086 218.127 64.8086L208.437 64.8086Q207.562 64.8086 206.731 65.0003Q205.372 65.3141 204.13 66.1416Q203.211 66.7547 202.497 67.5522L202.497 67.5524L202.495 67.5545Q201.659 68.4901 201.105 69.6792L196.184 80.1382Q194.973 82.691 192.996 84.3023Q189.612 87.0596 183.981 87.0596L183.981 67.9873Q183.981 67.0265 183.562 66.3127L183.559 66.3084Q183.375 65.9962 183.11 65.7314Q182.794 65.3969 182.411 65.1836L182.409 65.1828Q181.736 64.8086 180.854 64.8086L169.37 64.8086Q168.655 64.8086 168.058 65.0738Q167.542 65.3033 167.114 65.7314Q166.849 65.9962 166.665 66.3084L166.662 66.3127Q166.242 67.0265 166.242 67.9873L166.242 117.873Q166.242 118.833 166.662 119.547L166.665 119.551Q166.849 119.864 167.114 120.128Q167.38 120.395 167.695 120.58Q168.409 121 169.37 121L180.854 121Q181.697 121 182.356 120.651L182.356 120.651Q182.738 120.449 183.059 120.128Q183.394 119.812 183.607 119.428Q183.981 118.754 183.981 117.873L183.981 98.749Q187.967 98.749 191.011 100.442Q194.075 102.147 196.184 105.568L202.695 116.181Q204.561 119.258 207.242 120.37Q208.76 121 210.539 121L220.229 121Q221.783 121 222.431 120.234ZM302.414 80.3433L293.185 117.616Q293.031 118.078 293.031 118.693Q293.031 119.308 293.698 120.18Q293.817 120.316 293.954 120.429L293.956 120.431L293.967 120.439L293.968 120.44Q294.657 121 295.8 121L306.31 121Q306.743 121 307.16 120.919L307.177 120.915L307.179 120.915L307.18 120.915Q308.233 120.704 309.181 119.975Q309.873 119.436 310.335 118.744Q310.796 118.052 311.027 117.206L319.076 84.7524Q320.124 80.589 322.784 78.7256Q324.938 77.2158 328.151 77.2158L337.79 77.2158L337.79 117.873Q337.79 118.657 338.091 119.299L338.092 119.301L338.095 119.306Q338.305 119.752 338.661 120.128Q339.04 120.486 339.488 120.697Q340.132 121 340.917 121L352.401 121Q353.244 121 353.903 120.651Q354.286 120.449 354.606 120.128Q355.034 119.701 355.263 119.184L355.264 119.184L355.264 119.182Q355.529 118.586 355.529 117.873L355.529 67.9873Q355.529 67.1058 355.155 66.4322L355.152 66.4281L355.151 66.4266Q354.939 66.0456 354.606 65.7314Q354.238 65.3418 353.788 65.1167L353.787 65.1163Q353.171 64.8086 352.401 64.8086L328.151 64.8086Q312.956 64.8086 306.446 72.3279Q303.599 75.6164 302.414 80.3433ZM115.743 79.5742Q112.564 83.7271 112.564 92.853Q112.564 101.979 115.743 106.183Q116.37 107.013 117.139 107.679L117.139 107.679Q120.267 110.387 125.74 110.387Q131.306 110.387 134.45 107.627Q135.186 106.981 135.789 106.183Q139.019 101.979 139.019 92.853Q139.019 83.7271 135.789 79.5742Q135.222 78.833 134.537 78.2242L134.536 78.2237Q131.384 75.4214 125.74 75.4214Q120.19 75.4214 117.052 78.1724Q116.334 78.8014 115.743 79.5742ZM60.9868 107.157L31.6606 107.157L31.6606 89.5205L60.9868 89.5205Q64.1941 89.5205 66.1831 91.0771Q66.6423 91.4365 67.0366 91.8789Q67.1233 91.9762 67.2064 92.0764Q69.1387 94.4065 69.1387 98.3389Q69.1387 102.271 67.2064 104.601Q67.1233 104.702 67.0366 104.799Q66.6423 105.241 66.1831 105.601Q64.1941 107.157 60.9868 107.157ZM252.169 97.7749Q248.58 97.7749 246.478 99.5181Q245.535 100.32 245.025 101.339Q244.427 102.535 244.427 104.03Q244.427 105.366 244.929 106.475L244.929 106.476L244.93 106.477Q245.468 107.665 246.581 108.593Q248.734 110.387 252.682 110.387Q254.306 110.387 255.907 110.192L255.908 110.192L255.909 110.192L255.912 110.191Q262.088 109.436 267.909 105.773L267.909 97.7749L252.169 97.7749Z" fill="rgb(255,255,255)" fill-rule="evenodd" />
</svg>
