<svg viewBox="0 0 355.529 122.026" xmlns="http://www.w3.org/2000/svg" xmlns:xlink="http://www.w3.org/1999/xlink" width="355.529297" height="122.025879" fill="none" customFrame="#000000">
	<rect id="Ex max black (color) 17" width="355.528809" height="122.025841" x="0.000000" y="0.000000" fill="rgb(255,255,255)" fill-opacity="0" />
	<path id="Ex max black (color) 17" d="M3.87703 28.0155L1.02092 22.4802C-1.15403 18.2649 0.229996 12.9984 4.37392 10.8245C40.1818 -7.96054 74.0038 1.40645 91.4021 11.2102C94.9895 13.2316 95.9894 17.6134 93.9708 21.2611C92.9314 23.1395 91.6076 25.505 89.942 28.4479C87.5114 32.7426 82.1589 34.1553 77.7864 32.0115C56.5322 21.5908 37.9312 21.5785 16.1367 31.9746C11.6439 34.1177 6.19225 32.5026 3.87703 28.0155Z" fill="rgb(255,146.478,201.094)" fill-rule="evenodd" />
	<path id="Ex max black (color) 17" d="M293.185 117.616L302.414 80.3433C305.011 69.9868 313.59 64.8086 328.151 64.8086L352.401 64.8086C353.29 64.8086 354.025 65.1162 354.606 65.7314C355.221 66.3125 355.529 67.0645 355.529 67.9873L355.529 117.873C355.529 118.761 355.221 119.513 354.606 120.128C354.025 120.709 353.29 121 352.401 121L340.917 121C340.028 121 339.276 120.709 338.661 120.128C338.08 119.513 337.79 118.761 337.79 117.873L337.79 77.2158L328.151 77.2158C323.366 77.2158 320.341 79.728 319.076 84.7524L311.027 117.206C310.719 118.334 310.104 119.257 309.181 119.975C308.292 120.658 307.335 121 306.31 121L295.8 121C294.877 121 294.176 120.727 293.698 120.18C293.253 119.599 293.031 119.103 293.031 118.693C293.031 118.283 293.083 117.924 293.185 117.616Z" fill="rgb(255,146.478,201.094)" fill-rule="nonzero" />
	<path id="Ex max black (color) 17" d="M293.185 117.616L302.414 80.3433C305.011 69.9868 313.59 64.8086 328.151 64.8086L352.401 64.8086C353.29 64.8086 354.025 65.1162 354.606 65.7314C355.221 66.3125 355.529 67.0645 355.529 67.9873L355.529 117.873C355.529 118.761 355.221 119.513 354.606 120.128C354.025 120.709 353.29 121 352.401 121L340.917 121C340.028 121 339.276 120.709 338.661 120.128C338.08 119.513 337.79 118.761 337.79 117.873L337.79 77.2158L328.151 77.2158C323.366 77.2158 320.341 79.728 319.076 84.7524L311.027 117.206C310.719 118.334 310.104 119.257 309.181 119.975C308.292 120.658 307.335 121 306.31 121L295.8 121C294.877 121 294.176 120.727 293.698 120.18C293.253 119.599 293.031 119.103 293.031 118.693C293.031 118.283 293.083 117.924 293.185 117.616Z" fill="rgb(0,0,0)" fill-rule="nonzero" />
	<path id="Ex max black (color) 17" d="M233.404 117.309C228.893 114.164 226.637 109.721 226.637 103.979C226.637 98.2363 228.893 93.8271 233.404 90.751C237.95 87.6748 243.795 86.1367 250.938 86.1367L267.909 86.1367C267.909 82.1377 267.071 79.3521 265.396 77.7798C263.722 76.2075 260.782 75.4214 256.578 75.4214C252.408 75.4214 249.469 76.4639 247.76 78.5488C246.085 80.5996 244.017 81.625 241.556 81.625L233.917 81.625C232.994 81.625 232.225 81.3345 231.61 80.7534C231.029 80.1382 230.738 79.3862 230.738 78.4976C230.738 68.688 240.052 63.7832 258.68 63.7832C266.815 63.7832 273.343 65.6118 278.265 69.269C283.187 72.8921 285.648 78.5146 285.648 86.1367L285.648 117.873C285.648 118.795 285.357 119.547 284.776 120.128C284.195 120.709 283.443 121 282.521 121L272.625 121C271.703 121 270.951 120.709 270.37 120.128C269.789 119.513 269.498 118.761 269.498 117.873L269.498 116.283C264.098 120.146 257.86 122.06 250.785 122.025C243.744 122.025 237.95 120.453 233.404 117.309ZM252.169 97.7749C249.776 97.7749 247.879 98.356 246.478 99.5181C245.111 100.68 244.427 102.184 244.427 104.03C244.427 105.875 245.145 107.396 246.581 108.593C248.016 109.789 250.05 110.387 252.682 110.387C257.945 110.387 263.021 108.849 267.909 105.773L267.909 97.7749L252.169 97.7749Z" fill="rgb(255,146.478,201.094)" fill-rule="nonzero" />
	<path id="Ex max black (color) 17" d="M233.404 117.309C228.893 114.164 226.637 109.721 226.637 103.979C226.637 98.2363 228.893 93.8271 233.404 90.751C237.95 87.6748 243.795 86.1367 250.938 86.1367L267.909 86.1367C267.909 82.1377 267.071 79.3521 265.396 77.7798C263.722 76.2075 260.782 75.4214 256.578 75.4214C252.408 75.4214 249.469 76.4639 247.76 78.5488C246.085 80.5996 244.017 81.625 241.556 81.625L233.917 81.625C232.994 81.625 232.225 81.3345 231.61 80.7534C231.029 80.1382 230.738 79.3862 230.738 78.4976C230.738 68.688 240.052 63.7832 258.68 63.7832C266.815 63.7832 273.343 65.6118 278.265 69.269C283.187 72.8921 285.648 78.5146 285.648 86.1367L285.648 117.873C285.648 118.795 285.357 119.547 284.776 120.128C284.195 120.709 283.443 121 282.521 121L272.625 121C271.703 121 270.951 120.709 270.37 120.128C269.789 119.513 269.498 118.761 269.498 117.873L269.498 116.283C264.098 120.146 257.86 122.06 250.785 122.025C243.744 122.025 237.95 120.453 233.404 117.309ZM252.169 97.7749C249.776 97.7749 247.879 98.356 246.478 99.5181C245.111 100.68 244.427 102.184 244.427 104.03C244.427 105.875 245.145 107.396 246.581 108.593C248.016 109.789 250.05 110.387 252.682 110.387C257.945 110.387 263.021 108.849 267.909 105.773L267.909 97.7749L252.169 97.7749Z" fill="rgb(0,0,0)" fill-rule="nonzero" />
	<path id="Ex max black (color) 17" d="M222.895 118.744C222.895 120.248 222.006 121 220.229 121L210.539 121C207.258 121 204.643 119.394 202.695 116.181L196.184 105.568C193.381 101.022 189.313 98.749 183.981 98.749L183.981 117.873C183.981 118.795 183.674 119.547 183.059 120.128C182.478 120.709 181.743 121 180.854 121L169.37 121C168.447 121 167.695 120.709 167.114 120.128C166.533 119.547 166.242 118.795 166.242 117.873L166.242 67.9873C166.242 67.0645 166.533 66.3125 167.114 65.7314C167.729 65.1162 168.481 64.8086 169.37 64.8086L180.854 64.8086C181.777 64.8086 182.529 65.1162 183.11 65.7314C183.691 66.3125 183.981 67.0645 183.981 67.9873L183.981 87.0596C189.929 87.0596 193.996 84.7524 196.184 80.1382L201.105 69.6792C201.789 68.2095 202.797 67.0303 204.13 66.1416C205.463 65.2529 206.899 64.8086 208.437 64.8086L218.127 64.8086C219.836 64.8086 220.69 65.4751 220.69 66.8081C220.69 67.5601 220.417 68.5171 219.87 69.6792L213.256 83.6245C212.128 85.9487 210.59 87.9482 208.642 89.623C206.694 91.2979 204.592 92.3745 202.336 92.853C206.54 94.1177 210.18 97.1938 213.256 102.082L221.972 116.181C222.553 117.172 222.861 118.026 222.895 118.744Z" fill="rgb(255,146.478,201.094)" fill-rule="nonzero" />
	<path id="Ex max black (color) 17" d="M222.895 118.744C222.895 120.248 222.006 121 220.229 121L210.539 121C207.258 121 204.643 119.394 202.695 116.181L196.184 105.568C193.381 101.022 189.313 98.749 183.981 98.749L183.981 117.873C183.981 118.795 183.674 119.547 183.059 120.128C182.478 120.709 181.743 121 180.854 121L169.37 121C168.447 121 167.695 120.709 167.114 120.128C166.533 119.547 166.242 118.795 166.242 117.873L166.242 67.9873C166.242 67.0645 166.533 66.3125 167.114 65.7314C167.729 65.1162 168.481 64.8086 169.37 64.8086L180.854 64.8086C181.777 64.8086 182.529 65.1162 183.11 65.7314C183.691 66.3125 183.981 67.0645 183.981 67.9873L183.981 87.0596C189.929 87.0596 193.996 84.7524 196.184 80.1382L201.105 69.6792C201.789 68.2095 202.797 67.0303 204.13 66.1416C205.463 65.2529 206.899 64.8086 208.437 64.8086L218.127 64.8086C219.836 64.8086 220.69 65.4751 220.69 66.8081C220.69 67.5601 220.417 68.5171 219.87 69.6792L213.256 83.6245C212.128 85.9487 210.59 87.9482 208.642 89.623C206.694 91.2979 204.592 92.3745 202.336 92.853C206.54 94.1177 210.18 97.1938 213.256 102.082L221.972 116.181C222.553 117.172 222.861 118.026 222.895 118.744Z" fill="rgb(0,0,0)" fill-rule="nonzero" />
	<path id="Ex max black (color) 17" d="M102.771 114.643C97.4395 109.721 94.7734 102.475 94.7734 92.9043C94.7734 83.2998 97.4395 76.0537 102.771 71.166C108.104 66.2441 115.76 63.7832 125.74 63.7832C135.755 63.7832 143.428 66.2441 148.76 71.166C154.092 76.0537 156.758 83.2998 156.758 92.9043C156.758 102.475 154.092 109.721 148.76 114.643C143.428 119.564 135.755 122.025 125.74 122.025C115.76 122.025 108.104 119.564 102.771 114.643ZM115.743 79.5742C113.624 82.3428 112.564 86.769 112.564 92.853C112.564 98.937 113.624 103.38 115.743 106.183C117.862 108.986 121.194 110.387 125.74 110.387C130.32 110.387 133.67 108.986 135.789 106.183C137.942 103.38 139.019 98.937 139.019 92.853C139.019 86.769 137.942 82.3428 135.789 79.5742C133.67 76.8057 130.32 75.4214 125.74 75.4214C121.194 75.4214 117.862 76.8057 115.743 79.5742Z" fill="rgb(255,146.478,201.094)" fill-rule="nonzero" />
	<path id="Ex max black (color) 17" d="M102.771 114.643C97.4395 109.721 94.7734 102.475 94.7734 92.9043C94.7734 83.2998 97.4395 76.0537 102.771 71.166C108.104 66.2441 115.76 63.7832 125.74 63.7832C135.755 63.7832 143.428 66.2441 148.76 71.166C154.092 76.0537 156.758 83.2998 156.758 92.9043C156.758 102.475 154.092 109.721 148.76 114.643C143.428 119.564 135.755 122.025 125.74 122.025C115.76 122.025 108.104 119.564 102.771 114.643ZM115.743 79.5742C113.624 82.3428 112.564 86.769 112.564 92.853C112.564 98.937 113.624 103.38 115.743 106.183C117.862 108.986 121.194 110.387 125.74 110.387C130.32 110.387 133.67 108.986 135.789 106.183C137.942 103.38 139.019 98.937 139.019 92.853C139.019 86.769 137.942 82.3428 135.789 79.5742C133.67 76.8057 130.32 75.4214 125.74 75.4214C121.194 75.4214 117.862 76.8057 115.743 79.5742Z" fill="rgb(0,0,0)" fill-rule="nonzero" />
	<path id="Ex max black (color) 17" d="M12.332 52.3501C12.332 51.0171 12.8105 49.8721 13.7676 48.915C14.7246 47.958 15.8696 47.4795 17.2026 47.4795L58.8848 47.4795C69.1045 47.4795 76.6411 50.4189 81.4946 56.2979C84.1948 59.5449 85.5449 63.6978 85.5449 68.7563C85.5449 73.7808 83.2378 78.1729 78.6235 81.9326C85.186 85.4531 88.4673 90.9219 88.4673 98.3389C88.4673 105.756 85.8354 111.396 80.5718 115.258C75.3423 119.086 68.9165 121 61.2944 121L17.2026 121C15.8696 121 14.7246 120.539 13.7676 119.616C12.8105 118.659 12.332 117.514 12.332 116.181L12.332 52.3501ZM31.6606 107.157L60.9868 107.157C63.6187 107.157 65.6353 106.371 67.0366 104.799C68.438 103.227 69.1387 101.073 69.1387 98.3389C69.1387 95.6045 68.438 93.4512 67.0366 91.8789C65.6353 90.3066 63.6187 89.5205 60.9868 89.5205L31.6606 89.5205L31.6606 107.157ZM31.6606 76.0366L59.0898 76.0366C61.2432 76.0366 62.9692 75.4043 64.2681 74.1396C65.5669 72.8408 66.2163 71.0464 66.2163 68.7563C66.2163 66.4321 65.5669 64.6206 64.2681 63.3218C62.9692 62.0229 61.2432 61.3735 59.0898 61.3735L31.6606 61.3735L31.6606 76.0366Z" fill="rgb(255,146.478,201.094)" fill-rule="nonzero" />
	<path id="Ex max black (color) 17" d="M12.332 52.3501C12.332 51.0171 12.8105 49.8721 13.7676 48.915C14.7246 47.958 15.8696 47.4795 17.2026 47.4795L58.8848 47.4795C69.1045 47.4795 76.6411 50.4189 81.4946 56.2979C84.1948 59.5449 85.5449 63.6978 85.5449 68.7563C85.5449 73.7808 83.2378 78.1729 78.6235 81.9326C85.186 85.4531 88.4673 90.9219 88.4673 98.3389C88.4673 105.756 85.8354 111.396 80.5718 115.258C75.3423 119.086 68.9165 121 61.2944 121L17.2026 121C15.8696 121 14.7246 120.539 13.7676 119.616C12.8105 118.659 12.332 117.514 12.332 116.181L12.332 52.3501ZM31.6606 107.157L60.9868 107.157C63.6187 107.157 65.6353 106.371 67.0366 104.799C68.438 103.227 69.1387 101.073 69.1387 98.3389C69.1387 95.6045 68.438 93.4512 67.0366 91.8789C65.6353 90.3066 63.6187 89.5205 60.9868 89.5205L31.6606 89.5205L31.6606 107.157ZM31.6606 76.0366L59.0898 76.0366C61.2432 76.0366 62.9692 75.4043 64.2681 74.1396C65.5669 72.8408 66.2163 71.0464 66.2163 68.7563C66.2163 66.4321 65.5669 64.6206 64.2681 63.3218C62.9692 62.0229 61.2432 61.3735 59.0898 61.3735L31.6606 61.3735L31.6606 76.0366Z" fill="rgb(0,0,0)" fill-rule="nonzero" />
</svg>
