<svg viewBox="0 0 449.273 139.354" xmlns="http://www.w3.org/2000/svg" xmlns:xlink="http://www.w3.org/1999/xlink" width="449.273438" height="139.354492" fill="none" customFrame="#000000">
	<rect id="Ex max black (color) 19" width="449.272949" height="139.354492" x="0.000000" y="0.000000" fill="rgb(255,255,255)" fill-opacity="0" />
	<path id="Ex max black (color) 19" d="M3.87703 28.0155L1.02092 22.4802C-1.15403 18.2649 0.229996 12.9984 4.37392 10.8245C40.1818 -7.96054 74.0038 1.40645 91.4021 11.2102C94.9895 13.2316 95.9894 17.6134 93.9708 21.2611C92.9314 23.1395 91.6076 25.505 89.942 28.4479C87.5114 32.7426 82.1589 34.1553 77.7864 32.0115C56.5322 21.5908 37.9312 21.5785 16.1367 31.9746C11.6439 34.1177 6.19225 32.5026 3.87703 28.0155Z" fill="rgb(177,143,225)" fill-rule="evenodd" />
	<path id="Ex max black (color) 19" d="M397.029 117.309C392.518 114.164 390.262 109.721 390.262 103.979C390.262 98.2363 392.518 93.8271 397.029 90.751C401.575 87.6748 407.42 86.1367 414.563 86.1367L431.534 86.1367C431.534 82.1377 430.696 79.3521 429.021 77.7798C427.347 76.2075 424.407 75.4214 420.203 75.4214C416.033 75.4214 413.094 76.4639 411.385 78.5488C409.71 80.5996 407.642 81.625 405.181 81.625L397.542 81.625C396.619 81.625 395.85 81.3345 395.235 80.7534C394.654 80.1382 394.363 79.3862 394.363 78.4976C394.363 68.688 403.677 63.7832 422.305 63.7832C430.44 63.7832 436.968 65.6118 441.89 69.269C446.812 72.8921 449.273 78.5146 449.273 86.1367L449.273 117.873C449.273 118.795 448.982 119.547 448.401 120.128C447.82 120.709 447.068 121 446.146 121L436.25 121C435.328 121 434.576 120.709 433.995 120.128C433.414 119.513 433.123 118.761 433.123 117.873L433.123 116.283C427.723 120.146 421.485 122.06 414.41 122.025C407.369 122.025 401.575 120.453 397.029 117.309ZM415.794 97.7749C413.401 97.7749 411.504 98.356 410.103 99.5181C408.736 100.68 408.052 102.184 408.052 104.03C408.052 105.875 408.77 107.396 410.206 108.593C411.641 109.789 413.675 110.387 416.307 110.387C421.57 110.387 426.646 108.849 431.534 105.773L431.534 97.7749L415.794 97.7749Z" fill="rgb(177,143,225)" fill-rule="nonzero" />
	<path id="Ex max black (color) 19" d="M397.029 117.309C392.518 114.164 390.262 109.721 390.262 103.979C390.262 98.2363 392.518 93.8271 397.029 90.751C401.575 87.6748 407.42 86.1367 414.563 86.1367L431.534 86.1367C431.534 82.1377 430.696 79.3521 429.021 77.7798C427.347 76.2075 424.407 75.4214 420.203 75.4214C416.033 75.4214 413.094 76.4639 411.385 78.5488C409.71 80.5996 407.642 81.625 405.181 81.625L397.542 81.625C396.619 81.625 395.85 81.3345 395.235 80.7534C394.654 80.1382 394.363 79.3862 394.363 78.4976C394.363 68.688 403.677 63.7832 422.305 63.7832C430.44 63.7832 436.968 65.6118 441.89 69.269C446.812 72.8921 449.273 78.5146 449.273 86.1367L449.273 117.873C449.273 118.795 448.982 119.547 448.401 120.128C447.82 120.709 447.068 121 446.146 121L436.25 121C435.328 121 434.576 120.709 433.995 120.128C433.414 119.513 433.123 118.761 433.123 117.873L433.123 116.283C427.723 120.146 421.485 122.06 414.41 122.025C407.369 122.025 401.575 120.453 397.029 117.309ZM415.794 97.7749C413.401 97.7749 411.504 98.356 410.103 99.5181C408.736 100.68 408.052 102.184 408.052 104.03C408.052 105.875 408.77 107.396 410.206 108.593C411.641 109.789 413.675 110.387 416.307 110.387C421.57 110.387 426.646 108.849 431.534 105.773L431.534 97.7749L415.794 97.7749Z" fill="rgb(0,0,0)" fill-rule="nonzero" />
	<path id="Ex max black (color) 19" d="M386.52 118.744C386.52 120.248 385.631 121 383.854 121L374.164 121C370.883 121 368.268 119.394 366.32 116.181L359.809 105.568C357.006 101.022 352.938 98.749 347.606 98.749L347.606 117.873C347.606 118.795 347.299 119.547 346.684 120.128C346.103 120.709 345.368 121 344.479 121L332.995 121C332.072 121 331.32 120.709 330.739 120.128C330.158 119.547 329.867 118.795 329.867 117.873L329.867 67.9873C329.867 67.0645 330.158 66.3125 330.739 65.7314C331.354 65.1162 332.106 64.8086 332.995 64.8086L344.479 64.8086C345.402 64.8086 346.154 65.1162 346.735 65.7314C347.316 66.3125 347.606 67.0645 347.606 67.9873L347.606 87.0596C353.554 87.0596 357.621 84.7524 359.809 80.1382L364.73 69.6792C365.414 68.2095 366.422 67.0303 367.755 66.1416C369.088 65.2529 370.524 64.8086 372.062 64.8086L381.752 64.8086C383.461 64.8086 384.315 65.4751 384.315 66.8081C384.315 67.5601 384.042 68.5171 383.495 69.6792L376.881 83.6245C375.753 85.9487 374.215 87.9482 372.267 89.623C370.319 91.2979 368.217 92.3745 365.961 92.853C370.165 94.1177 373.805 97.1938 376.881 102.082L385.597 116.181C386.178 117.172 386.486 118.026 386.52 118.744Z" fill="rgb(177,143,225)" fill-rule="nonzero" />
	<path id="Ex max black (color) 19" d="M386.52 118.744C386.52 120.248 385.631 121 383.854 121L374.164 121C370.883 121 368.268 119.394 366.32 116.181L359.809 105.568C357.006 101.022 352.938 98.749 347.606 98.749L347.606 117.873C347.606 118.795 347.299 119.547 346.684 120.128C346.103 120.709 345.368 121 344.479 121L332.995 121C332.072 121 331.32 120.709 330.739 120.128C330.158 119.547 329.867 118.795 329.867 117.873L329.867 67.9873C329.867 67.0645 330.158 66.3125 330.739 65.7314C331.354 65.1162 332.106 64.8086 332.995 64.8086L344.479 64.8086C345.402 64.8086 346.154 65.1162 346.735 65.7314C347.316 66.3125 347.606 67.0645 347.606 67.9873L347.606 87.0596C353.554 87.0596 357.621 84.7524 359.809 80.1382L364.73 69.6792C365.414 68.2095 366.422 67.0303 367.755 66.1416C369.088 65.2529 370.524 64.8086 372.062 64.8086L381.752 64.8086C383.461 64.8086 384.315 65.4751 384.315 66.8081C384.315 67.5601 384.042 68.5171 383.495 69.6792L376.881 83.6245C375.753 85.9487 374.215 87.9482 372.267 89.623C370.319 91.2979 368.217 92.3745 365.961 92.853C370.165 94.1177 373.805 97.1938 376.881 102.082L385.597 116.181C386.178 117.172 386.486 118.026 386.52 118.744Z" fill="rgb(0,0,0)" fill-rule="nonzero" />
	<path id="Ex max black (color) 19" d="M239.426 117.873L239.426 67.9873C239.426 67.0645 239.716 66.3125 240.297 65.7314C240.913 65.1162 241.665 64.8086 242.553 64.8086L254.038 64.8086C254.96 64.8086 255.712 65.1162 256.293 65.7314C256.875 66.3125 257.165 67.0645 257.165 67.9873L257.165 83.4194L269.367 83.4194C276.647 83.4194 282.27 84.855 286.235 87.7261C290.234 90.5972 292.233 95.4336 292.233 102.235C292.233 109.003 290.234 113.822 286.235 116.693C282.27 119.564 276.647 121 269.367 121L242.553 121C241.63 121 240.878 120.709 240.297 120.128C239.716 119.547 239.426 118.795 239.426 117.873ZM256.857 109.567L267.778 109.567C272.255 109.567 274.494 107.123 274.494 102.235C274.494 97.3135 272.255 94.8525 267.778 94.8525L256.857 94.8525L256.857 109.567ZM299.462 117.873L299.462 67.9873C299.462 67.0645 299.753 66.3125 300.334 65.7314C300.949 65.1162 301.718 64.8086 302.641 64.8086L314.074 64.8086C314.997 64.8086 315.749 65.1162 316.33 65.7314C316.911 66.3125 317.202 67.0645 317.202 67.9873L317.202 117.873C317.202 118.795 316.911 119.547 316.33 120.128C315.749 120.709 314.997 121 314.074 121L302.641 121C301.718 121 300.949 120.709 300.334 120.128C299.753 119.547 299.462 118.795 299.462 117.873Z" fill="rgb(177,143,225)" fill-rule="nonzero" />
	<path id="Ex max black (color) 19" d="M239.426 117.873L239.426 67.9873C239.426 67.0645 239.716 66.3125 240.297 65.7314C240.913 65.1162 241.665 64.8086 242.553 64.8086L254.038 64.8086C254.96 64.8086 255.712 65.1162 256.293 65.7314C256.875 66.3125 257.165 67.0645 257.165 67.9873L257.165 83.4194L269.367 83.4194C276.647 83.4194 282.27 84.855 286.235 87.7261C290.234 90.5972 292.233 95.4336 292.233 102.235C292.233 109.003 290.234 113.822 286.235 116.693C282.27 119.564 276.647 121 269.367 121L242.553 121C241.63 121 240.878 120.709 240.297 120.128C239.716 119.547 239.426 118.795 239.426 117.873ZM256.857 109.567L267.778 109.567C272.255 109.567 274.494 107.123 274.494 102.235C274.494 97.3135 272.255 94.8525 267.778 94.8525L256.857 94.8525L256.857 109.567ZM299.462 117.873L299.462 67.9873C299.462 67.0645 299.753 66.3125 300.334 65.7314C300.949 65.1162 301.718 64.8086 302.641 64.8086L314.074 64.8086C314.997 64.8086 315.749 65.1162 316.33 65.7314C316.911 66.3125 317.202 67.0645 317.202 67.9873L317.202 117.873C317.202 118.795 316.911 119.547 316.33 120.128C315.749 120.709 314.997 121 314.074 121L302.641 121C301.718 121 300.949 120.709 300.334 120.128C299.753 119.547 299.462 118.795 299.462 117.873Z" fill="rgb(0,0,0)" fill-rule="nonzero" />
	<path id="Ex max black (color) 19" d="M171.035 106.593C171.035 105.67 171.326 104.918 171.907 104.337C172.522 103.756 173.274 103.466 174.163 103.466L181.853 103.466C184.177 103.466 185.989 104.628 187.288 106.952C188.621 109.242 191.15 110.387 194.875 110.387L205.283 110.387C210.239 110.387 212.717 108.354 212.717 104.286C212.717 100.219 210.239 98.2021 205.283 98.2363L192.568 98.2363C191.646 98.2363 190.876 97.9458 190.261 97.3647C189.68 96.7495 189.39 95.9805 189.39 95.0576L189.39 89.7256C189.39 88.8027 189.68 88.0508 190.261 87.4697C190.876 86.8545 191.646 86.5469 192.568 86.5469L204.309 86.5469C206.565 86.5469 208.257 86.0513 209.385 85.0601C210.547 84.0347 211.128 82.6846 211.128 81.0098C211.128 79.335 210.547 77.9849 209.385 76.9595C208.257 75.9341 206.565 75.4214 204.309 75.4214L194.875 75.4214C193.679 75.4214 192.449 75.729 191.184 76.3442C189.919 76.9253 188.979 77.7798 188.364 78.9077C187.031 81.2319 185.203 82.377 182.878 82.3428L175.239 82.3428C174.316 82.3428 173.547 82.0522 172.932 81.4712C172.351 80.8901 172.061 80.1382 172.061 79.2153C172.061 74.6011 174.299 70.8755 178.777 68.0386C183.289 65.2017 188.723 63.7832 195.081 63.7832L205.386 63.7832C212.598 63.7832 218.306 65.1162 222.51 67.7822C226.748 70.4141 228.867 74.4302 228.867 79.8306C228.867 85.231 226.423 89.1274 221.536 91.52C227.483 94.5278 230.457 99.2788 230.457 105.773C230.457 111.447 228.44 115.583 224.407 118.18C220.408 120.744 214.443 122.025 206.514 122.025L195.081 122.025C188.21 122.025 182.485 120.624 177.905 117.821C173.325 115.019 171.035 111.276 171.035 106.593Z" fill="rgb(177,143,225)" fill-rule="nonzero" />
	<path id="Ex max black (color) 19" d="M171.035 106.593C171.035 105.67 171.326 104.918 171.907 104.337C172.522 103.756 173.274 103.466 174.163 103.466L181.853 103.466C184.177 103.466 185.989 104.628 187.288 106.952C188.621 109.242 191.15 110.387 194.875 110.387L205.283 110.387C210.239 110.387 212.717 108.354 212.717 104.286C212.717 100.219 210.239 98.2021 205.283 98.2363L192.568 98.2363C191.646 98.2363 190.876 97.9458 190.261 97.3647C189.68 96.7495 189.39 95.9805 189.39 95.0576L189.39 89.7256C189.39 88.8027 189.68 88.0508 190.261 87.4697C190.876 86.8545 191.646 86.5469 192.568 86.5469L204.309 86.5469C206.565 86.5469 208.257 86.0513 209.385 85.0601C210.547 84.0347 211.128 82.6846 211.128 81.0098C211.128 79.335 210.547 77.9849 209.385 76.9595C208.257 75.9341 206.565 75.4214 204.309 75.4214L194.875 75.4214C193.679 75.4214 192.449 75.729 191.184 76.3442C189.919 76.9253 188.979 77.7798 188.364 78.9077C187.031 81.2319 185.203 82.377 182.878 82.3428L175.239 82.3428C174.316 82.3428 173.547 82.0522 172.932 81.4712C172.351 80.8901 172.061 80.1382 172.061 79.2153C172.061 74.6011 174.299 70.8755 178.777 68.0386C183.289 65.2017 188.723 63.7832 195.081 63.7832L205.386 63.7832C212.598 63.7832 218.306 65.1162 222.51 67.7822C226.748 70.4141 228.867 74.4302 228.867 79.8306C228.867 85.231 226.423 89.1274 221.536 91.52C227.483 94.5278 230.457 99.2788 230.457 105.773C230.457 111.447 228.44 115.583 224.407 118.18C220.408 120.744 214.443 122.025 206.514 122.025L195.081 122.025C188.21 122.025 182.485 120.624 177.905 117.821C173.325 115.019 171.035 111.276 171.035 106.593Z" fill="rgb(0,0,0)" fill-rule="nonzero" />
	<path id="Ex max black (color) 19" d="M119.816 126.332L126.533 127.204C131.352 127.204 134.719 123.666 136.633 116.591C130.822 116.591 125.969 114.848 122.072 111.361C118.176 107.841 114.826 101.603 112.023 92.6479L104.384 67.8848C104.282 67.6113 104.23 67.3037 104.23 66.9619C104.23 66.5859 104.436 66.1416 104.846 65.6289C105.29 65.1162 105.939 64.8428 106.794 64.8086L117.509 64.8086C118.5 64.8086 119.44 65.1504 120.329 65.834C121.252 66.4834 121.85 67.3037 122.124 68.2949L128.84 90.0332C130.515 95.3652 132.207 99.0566 133.916 101.107C135.659 103.158 137.709 104.184 140.068 104.184L150.271 68.2949C150.544 67.3037 151.074 66.4834 151.86 65.834C152.68 65.1504 153.586 64.8086 154.577 64.8086L165.395 64.8086C166.25 64.8086 166.882 65.082 167.292 65.6289C167.702 66.1758 167.907 66.6372 167.907 67.0132C167.907 67.355 167.873 67.6455 167.805 67.8848L154.372 115.771C151.979 124.247 149.006 130.297 145.451 133.92C141.931 137.543 137.385 139.354 131.813 139.354C126.242 139.354 122.294 139.149 119.97 138.739C117.68 138.329 116.245 137.816 115.664 137.201C115.083 136.62 114.792 135.937 114.792 135.15L114.792 129.511C114.792 128.588 115.083 127.819 115.664 127.204C116.245 126.623 116.997 126.332 117.919 126.332L119.816 126.332Z" fill="rgb(177,143,225)" fill-rule="nonzero" />
	<path id="Ex max black (color) 19" d="M119.816 126.332L126.533 127.204C131.352 127.204 134.719 123.666 136.633 116.591C130.822 116.591 125.969 114.848 122.072 111.361C118.176 107.841 114.826 101.603 112.023 92.6479L104.384 67.8848C104.282 67.6113 104.23 67.3037 104.23 66.9619C104.23 66.5859 104.436 66.1416 104.846 65.6289C105.29 65.1162 105.939 64.8428 106.794 64.8086L117.509 64.8086C118.5 64.8086 119.44 65.1504 120.329 65.834C121.252 66.4834 121.85 67.3037 122.124 68.2949L128.84 90.0332C130.515 95.3652 132.207 99.0566 133.916 101.107C135.659 103.158 137.709 104.184 140.068 104.184L150.271 68.2949C150.544 67.3037 151.074 66.4834 151.86 65.834C152.68 65.1504 153.586 64.8086 154.577 64.8086L165.395 64.8086C166.25 64.8086 166.882 65.082 167.292 65.6289C167.702 66.1758 167.907 66.6372 167.907 67.0132C167.907 67.355 167.873 67.6455 167.805 67.8848L154.372 115.771C151.979 124.247 149.006 130.297 145.451 133.92C141.931 137.543 137.385 139.354 131.813 139.354C126.242 139.354 122.294 139.149 119.97 138.739C117.68 138.329 116.245 137.816 115.664 137.201C115.083 136.62 114.792 135.937 114.792 135.15L114.792 129.511C114.792 128.588 115.083 127.819 115.664 127.204C116.245 126.623 116.997 126.332 117.919 126.332L119.816 126.332Z" fill="rgb(0,0,0)" fill-rule="nonzero" />
	<path id="Ex max black (color) 19" d="M1.33203 116.078L1.33203 52.4526C1.33203 51.0513 1.79346 49.8721 2.71631 48.915C3.63916 47.958 4.76709 47.4795 6.1001 47.4795L26.9668 47.4795C28.2998 47.4795 29.5645 47.958 30.7607 48.915C31.957 49.8721 32.7603 51.0171 33.1704 52.3501L48.2949 96.1343L63.4194 52.3501C63.8296 51.0171 64.6328 49.8721 65.8291 48.915C67.0254 47.958 68.29 47.4795 69.623 47.4795L90.4897 47.4795C91.8228 47.4795 92.9336 47.958 93.8223 48.915C94.7451 49.8721 95.2065 51.0513 95.2065 52.4526L95.2065 116.078C95.2065 117.479 94.728 118.659 93.771 119.616C92.8481 120.539 91.7202 121 90.3872 121L81.1587 121C79.8257 121 78.6807 120.539 77.7236 119.616C76.8008 118.659 76.3394 117.479 76.3394 116.078L76.3394 65.9878L58.2412 116.386C57.7627 117.65 56.9253 118.744 55.729 119.667C54.5327 120.556 53.2681 121 51.9351 121L44.6035 121C43.2705 121 42.0059 120.556 40.8096 119.667C39.6475 118.744 38.8101 117.65 38.2974 116.386L20.2505 65.9878L20.2505 116.078C20.2505 117.479 19.772 118.659 18.8149 119.616C17.8921 120.539 16.7642 121 15.4312 121L6.20264 121C4.86963 121 3.72461 120.539 2.76758 119.616C1.81055 118.659 1.33203 117.479 1.33203 116.078Z" fill="rgb(177,143,225)" fill-rule="nonzero" />
	<path id="Ex max black (color) 19" d="M1.33203 116.078L1.33203 52.4526C1.33203 51.0513 1.79346 49.8721 2.71631 48.915C3.63916 47.958 4.76709 47.4795 6.1001 47.4795L26.9668 47.4795C28.2998 47.4795 29.5645 47.958 30.7607 48.915C31.957 49.8721 32.7603 51.0171 33.1704 52.3501L48.2949 96.1343L63.4194 52.3501C63.8296 51.0171 64.6328 49.8721 65.8291 48.915C67.0254 47.958 68.29 47.4795 69.623 47.4795L90.4897 47.4795C91.8228 47.4795 92.9336 47.958 93.8223 48.915C94.7451 49.8721 95.2065 51.0513 95.2065 52.4526L95.2065 116.078C95.2065 117.479 94.728 118.659 93.771 119.616C92.8481 120.539 91.7202 121 90.3872 121L81.1587 121C79.8257 121 78.6807 120.539 77.7236 119.616C76.8008 118.659 76.3394 117.479 76.3394 116.078L76.3394 65.9878L58.2412 116.386C57.7627 117.65 56.9253 118.744 55.729 119.667C54.5327 120.556 53.2681 121 51.9351 121L44.6035 121C43.2705 121 42.0059 120.556 40.8096 119.667C39.6475 118.744 38.8101 117.65 38.2974 116.386L20.2505 65.9878L20.2505 116.078C20.2505 117.479 19.772 118.659 18.8149 119.616C17.8921 120.539 16.7642 121 15.4312 121L6.20264 121C4.86963 121 3.72461 120.539 2.76758 119.616C1.81055 118.659 1.33203 117.479 1.33203 116.078Z" fill="rgb(0,0,0)" fill-rule="nonzero" />
</svg>
