<svg viewBox="0 0 449.273 139.354" xmlns="http://www.w3.org/2000/svg" xmlns:xlink="http://www.w3.org/1999/xlink" width="449.272949" height="139.354492" fill="none" customFrame="#000000">
	<rect id="Ex max white 19" width="449.272949" height="139.354492" x="0.000000" y="0.000000" fill="rgb(255,255,255)" fill-opacity="0" />
	<path id="Ex max white 19" d="M3.87703 28.0155L1.02092 22.4802C0.331835 21.1446 0 19.7036 0 18.2889C0 15.2382 1.5429 12.3097 4.37392 10.8245C40.1818 -7.96054 74.0038 1.40645 91.4021 11.2102C93.7599 12.5388 95 14.8869 95 17.3762C95 18.6743 94.6627 20.0108 93.9708 21.2611C92.9314 23.1395 91.6076 25.505 89.942 28.4479C87.5114 32.7426 82.1589 34.1553 77.7864 32.0115C56.5322 21.5908 37.9312 21.5785 16.1367 31.9746C11.6439 34.1177 6.19225 32.5026 3.87703 28.0155ZM1.33203 116.078L1.33203 52.4526Q1.33203 51.205 1.8197 50.1921Q2.15366 49.4985 2.71631 48.915Q3.40248 48.2035 4.23982 47.8446Q5.09173 47.4795 6.1001 47.4795L26.9668 47.4795Q27.3566 47.4795 27.7387 47.5341L27.7388 47.5341Q29.3162 47.7594 30.7607 48.915Q32.1328 50.0127 32.8154 51.44Q33.0256 51.8795 33.1704 52.3501L48.2949 96.1343L63.4194 52.3501Q63.5642 51.8795 63.7744 51.44Q64.4571 50.0127 65.8291 48.915Q67.2736 47.7594 68.851 47.5341Q69.2331 47.4795 69.623 47.4795L90.4897 47.4795Q91.5535 47.4795 92.4286 47.8858Q93.1984 48.2432 93.8223 48.915Q94.3849 49.4985 94.7189 50.1921Q95.2065 51.205 95.2065 52.4526L95.2065 116.078Q95.2065 117.254 94.7575 118.221Q94.4037 118.983 93.771 119.616Q93.1288 120.258 92.3542 120.602Q91.4591 121 90.3872 121L81.1587 121Q80.1496 121 79.284 120.647Q78.4347 120.301 77.7236 119.616Q77.161 119.032 76.827 118.339Q76.3394 117.326 76.3394 116.078L76.3394 65.9878L58.2412 116.386Q58.1404 116.652 58.0185 116.908L58.0183 116.909Q57.2713 118.477 55.729 119.667Q54.3391 120.699 52.8261 120.932Q52.3858 121 51.9351 121L44.6035 121Q44.1528 121 43.7124 120.932Q42.1995 120.699 40.8096 119.667Q39.3878 118.538 38.6141 117.068Q38.4392 116.736 38.2974 116.386L20.2505 65.9878L20.2505 116.078Q20.2505 117.254 19.8014 118.221Q19.4476 118.983 18.8149 119.616Q18.1728 120.258 17.3981 120.602Q16.5031 121 15.4312 121L6.20264 121Q5.19348 121 4.32796 120.647Q3.47859 120.301 2.76758 119.616Q2.13491 118.983 1.78107 118.221Q1.33203 117.254 1.33203 116.078ZM171.035 106.593Q171.035 105.632 171.455 104.919Q171.64 104.604 171.907 104.337Q172.286 103.979 172.734 103.768Q173.377 103.466 174.163 103.466L181.853 103.466Q183.14 103.466 184.218 103.941Q186.059 104.753 187.288 106.952Q187.662 107.596 188.163 108.119Q190.334 110.387 194.875 110.387L205.283 110.387Q209.725 110.387 211.513 108.209Q212.717 106.742 212.717 104.286Q212.717 101.827 211.509 100.367Q209.721 98.2057 205.283 98.2363L192.568 98.2363Q191.659 98.2363 190.949 97.8604Q190.578 97.6639 190.261 97.3647Q189.962 97.048 189.766 96.6769Q189.39 95.9667 189.39 95.0576L189.39 89.7256Q189.39 88.7648 189.81 88.051Q189.995 87.7363 190.261 87.4697Q190.63 87.1006 191.073 86.8791Q191.738 86.5469 192.568 86.5469L204.309 86.5469Q207.693 86.5469 209.385 85.0601Q210.058 84.4659 210.471 83.7264Q211.128 82.5515 211.128 81.0098Q211.128 79.468 210.471 78.2931Q210.058 77.5536 209.385 76.9595Q207.693 75.4214 204.309 75.4214L194.875 75.4214Q193.081 75.4214 191.184 76.3442Q189.859 76.9531 189.009 77.9622L189.009 77.9626Q188.642 78.3979 188.364 78.9077Q187.093 81.1239 185.221 81.9106Q184.149 82.3615 182.878 82.3428L175.239 82.3428Q174.33 82.3428 173.62 81.9668Q173.249 81.7703 172.932 81.4712Q172.666 81.2046 172.48 80.89Q172.061 80.1761 172.061 79.2153Q172.061 76.7695 172.899 74.6564Q174.434 70.7902 178.777 68.0386Q185.544 63.7832 195.081 63.7832L205.386 63.7832Q216.204 63.7832 222.51 67.7822Q225.158 69.4269 226.703 71.7923Q228.867 75.1047 228.867 79.8306Q228.867 83.8255 227.084 86.7232Q225.251 89.7011 221.536 91.52Q226.207 93.8823 228.432 97.6784Q230.457 101.132 230.457 105.773Q230.457 111.546 227.673 115.196Q226.353 116.927 224.407 118.18Q218.408 122.025 206.514 122.025L195.081 122.025Q184.775 122.025 177.905 117.821Q173.502 115.127 171.921 111.275Q171.035 109.116 171.035 106.593ZM397.029 117.309Q393.986 115.188 392.311 112.279Q390.262 108.719 390.262 103.979Q390.262 99.1772 392.365 95.6186Q394.034 92.7931 397.029 90.751Q403.848 86.1367 414.563 86.1367L431.534 86.1367Q431.534 80.1382 429.021 77.7798Q426.509 75.4214 420.203 75.4214Q414.033 75.4214 411.455 78.4644Q411.428 78.4962 411.402 78.5284L411.385 78.5488Q409.88 80.3912 407.952 81.1302Q406.662 81.625 405.181 81.625L397.542 81.625Q396.633 81.625 395.923 81.2491Q395.552 81.0526 395.235 80.7534Q394.877 80.3744 394.666 79.9261Q394.363 79.283 394.363 78.4976Q394.363 75.303 395.68 72.802Q400.43 63.7832 422.305 63.7832Q434.507 63.7832 441.89 69.269Q443.677 70.5847 445.032 72.2519Q449.273 77.4715 449.273 86.1367L449.273 117.873Q449.273 118.833 448.853 119.547Q448.668 119.862 448.401 120.128Q448.135 120.395 447.82 120.58Q447.106 121 446.146 121L436.25 121Q435.29 121 434.576 120.58Q434.261 120.395 433.995 120.128Q433.637 119.749 433.426 119.301Q433.123 118.658 433.123 117.873L433.123 116.283Q430.419 118.217 427.435 119.5Q421.48 122.06 414.41 122.025Q403.848 122.025 397.029 117.309ZM119.816 126.332L126.533 127.204Q128.263 127.204 129.744 126.596Q134.449 124.663 136.633 116.591Q130.505 116.591 125.796 114.006Q123.808 112.914 122.072 111.361Q116.228 106.081 112.023 92.6479L104.384 67.8848Q104.23 67.4746 104.23 66.9619Q104.23 66.3979 104.846 65.6289Q104.951 65.5069 105.073 65.403L105.073 65.4027Q105.716 64.8517 106.794 64.8086L117.509 64.8086Q117.826 64.8086 118.135 64.855Q119.28 65.0267 120.329 65.834Q121.299 66.5165 121.791 67.4507Q122.001 67.8499 122.124 68.2949L128.84 90.0332Q131.352 98.0312 133.916 101.107Q135.703 103.21 137.921 103.875Q138.948 104.184 140.068 104.184L150.271 68.2949Q150.485 67.5173 150.91 66.88L150.91 66.8798Q151.297 66.2986 151.86 65.834Q152.671 65.1584 153.592 64.9279Q154.07 64.8086 154.577 64.8086L165.395 64.8086Q166.375 64.8086 166.966 65.2883Q167.147 65.4359 167.292 65.6289Q167.907 66.4492 167.907 67.0132Q167.907 67.5259 167.805 67.8848L154.372 115.771Q150.783 128.485 145.451 133.92Q143.652 135.772 141.495 136.993Q137.322 139.354 131.813 139.354Q123.457 139.354 119.97 138.739Q116.535 138.124 115.664 137.201Q115.162 136.7 114.949 136.096Q114.792 135.651 114.792 135.15L114.792 129.511Q114.792 128.602 115.168 127.892Q115.364 127.52 115.664 127.204Q115.93 126.937 116.245 126.752L116.245 126.752Q116.959 126.332 117.919 126.332L119.816 126.332ZM239.426 117.873L239.426 67.9873Q239.426 67.0265 239.846 66.3127Q240.031 65.998 240.297 65.7314Q240.725 65.3033 241.242 65.0738Q241.839 64.8086 242.553 64.8086L254.038 64.8086Q254.919 64.8086 255.593 65.1828Q255.977 65.3963 256.293 65.7314Q256.56 65.998 256.745 66.3127Q257.165 67.0265 257.165 67.9873L257.165 83.4194L269.367 83.4194Q280.288 83.4194 286.235 87.7261Q287.133 88.3707 287.896 89.1476Q292.233 93.56 292.233 102.235Q292.233 110.822 287.941 115.227L287.941 115.228Q287.159 116.03 286.235 116.693Q280.288 121 269.367 121L242.553 121Q241.592 121 240.879 120.58Q240.564 120.395 240.297 120.128Q240.031 119.862 239.846 119.547Q239.426 118.833 239.426 117.873ZM299.462 117.873L299.462 67.9873Q299.462 67.0265 299.882 66.3127Q300.067 65.998 300.334 65.7314Q300.703 65.3623 301.146 65.1408Q301.811 64.8086 302.641 64.8086L314.074 64.8086Q314.956 64.8086 315.629 65.1828Q316.014 65.3964 316.33 65.7314Q316.597 65.998 316.782 66.3127Q317.202 67.0265 317.202 67.9873L317.202 117.873Q317.202 118.833 316.782 119.547Q316.597 119.862 316.33 120.128Q316.063 120.395 315.749 120.58Q315.035 121 314.074 121L302.641 121Q301.732 121 301.022 120.624Q300.651 120.428 300.334 120.128Q300.067 119.862 299.882 119.547Q299.462 118.833 299.462 117.873ZM386.52 118.744Q386.52 119.685 386.056 120.234Q385.408 121 383.854 121L374.164 121Q372.385 121 370.867 120.37Q368.186 119.258 366.32 116.181L359.809 105.568Q357.7 102.147 354.636 100.442Q351.592 98.749 347.606 98.749L347.606 117.873Q347.606 118.754 347.232 119.428Q347.019 119.812 346.684 120.128Q346.363 120.449 345.981 120.651Q345.322 121 344.479 121L332.995 121Q332.034 121 331.32 120.58Q331.005 120.395 330.739 120.128Q330.472 119.862 330.287 119.547Q329.867 118.833 329.867 117.873L329.867 67.9873Q329.867 67.0265 330.287 66.3127Q330.472 65.998 330.739 65.7314Q331.167 65.3033 331.683 65.0738Q332.28 64.8086 332.995 64.8086L344.479 64.8086Q345.361 64.8086 346.034 65.1828Q346.418 65.3964 346.735 65.7314Q347.001 65.998 347.187 66.3127Q347.606 67.0265 347.606 67.9873L347.606 87.0596Q353.237 87.0596 356.621 84.3023Q358.598 82.691 359.809 80.1382L364.73 69.6792Q365.284 68.4888 366.122 67.5524Q366.836 66.7547 367.755 66.1416Q368.997 65.3141 370.356 65.0003Q371.187 64.8086 372.062 64.8086L381.752 64.8086Q383.346 64.8086 383.949 65.5815Q384.315 66.0518 384.315 66.8081Q384.315 67.936 383.495 69.6792L376.881 83.6245Q375.979 85.4849 374.725 87.0679Q373.63 88.4514 372.267 89.623Q369.578 91.9351 366.497 92.7273Q366.23 92.7959 365.961 92.853Q366.031 92.8741 366.101 92.8959Q372.318 94.8315 376.881 102.082L385.597 116.181Q386.469 117.667 386.52 118.744ZM256.857 109.567L267.778 109.567Q270.842 109.567 272.509 108.04Q274.494 106.222 274.494 102.235Q274.494 98.1957 272.483 96.3664Q270.819 94.8525 267.778 94.8525L256.857 94.8525L256.857 109.567ZM415.794 97.7749Q412.205 97.7749 410.103 99.5181Q409.16 100.32 408.65 101.339Q408.052 102.535 408.052 104.03Q408.052 105.367 408.554 106.476Q409.092 107.665 410.206 108.593Q412.359 110.387 416.307 110.387Q417.932 110.387 419.534 110.192L419.537 110.191Q425.713 109.436 431.534 105.773L431.534 97.7749L415.794 97.7749Z" fill="rgb(255,255,255)" fill-rule="evenodd" />
</svg>
