<svg viewBox="0 0 48 41" xmlns="http://www.w3.org/2000/svg" xmlns:xlink="http://www.w3.org/1999/xlink" width="48.000000" height="41.000000" fill="none" customFrame="#000000">
	<path id="Vector" d="M23.1332 0.117275C23.6757 -0.0390915 24.2495 -0.0390915 24.792 0.117275C25.9485 0.445643 27.1139 0.74944 28.2838 1.05547C33.7783 2.48734 39.3576 3.94378 44.3229 7.98919L46.6091 9.85217C47.5356 10.6072 48 11.7286 48 12.8455L48 28.4821C48 28.9264 47.8236 29.3525 47.5096 29.6667C47.1955 29.9809 46.7696 30.1574 46.3255 30.1574C45.8814 30.1574 45.4555 29.9809 45.1415 29.6667C44.8275 29.3525 44.6511 28.9264 44.6511 28.4821L44.6511 17.4404L44.2872 17.7375C42.6423 19.0718 40.8452 20.2063 38.9334 21.1172C39.0227 21.3213 39.0681 21.5424 39.0696 21.7807L39.0696 31.3726C39.0695 32.6094 38.6963 33.8174 37.9988 34.8385C37.3013 35.8596 36.312 36.6463 35.1603 37.0956L26.2298 40.5803C24.7955 41.1399 23.2034 41.1399 21.7691 40.5803L12.8386 37.0956C11.6869 36.6463 10.6976 35.8596 10.0001 34.8385C9.30258 33.8174 8.92938 32.6094 8.92932 31.3726L8.92932 21.7807C8.93081 21.5379 8.97844 21.3116 9.07221 21.1016C7.21914 20.2103 5.41073 19.1135 3.67599 17.7017L1.3898 15.8388C-0.463267 14.3265 -0.463267 11.3645 1.3898 9.85217L3.71171 7.95345C8.63908 3.9326 14.1804 2.48287 19.6347 1.0577C20.8043 0.757029 21.9705 0.443534 23.1332 0.117275ZM44.6511 12.8477C44.6511 12.6467 44.5707 12.5126 44.4948 12.4501L42.2086 10.5871C37.3951 7.26097 33.104 5.79336 27.6609 4.3615C26.4254 4.04103 25.193 3.70892 23.9637 3.36522C22.6911 3.72486 21.4543 4.051 20.2531 4.3682C14.8502 5.78889 10.1416 7.02865 5.83046 10.5514L3.50631 12.4479C3.42817 12.5104 3.3478 12.6422 3.3478 12.8432C3.3478 13.0443 3.42817 13.1783 3.50408 13.2409L5.79251 15.1038C10.1416 18.6489 14.8926 19.8976 20.338 21.3294C21.5361 21.6392 22.7685 21.9713 24.0352 22.3257C25.3078 21.9661 26.5446 21.6399 27.7458 21.3227C33.1487 19.902 37.8573 18.6623 42.1684 15.1418L44.4926 13.2431C44.5707 13.1805 44.6511 13.0487 44.6511 12.8477ZM28.3664 24.6332C30.8223 23.9921 33.2938 23.3443 35.7206 22.462L35.7206 31.3726C35.7206 32.523 35.0151 33.555 33.9435 33.975L25.013 37.4575C24.3612 37.7117 23.6377 37.7117 22.9858 37.4575L14.0554 33.9727C13.5321 33.7686 13.0824 33.4113 12.7654 32.9474C12.4483 32.4835 12.2785 31.9346 12.2782 31.3726L12.2782 22.4419C14.7319 23.3354 17.2324 23.9877 19.7128 24.6355C20.885 24.9415 22.0504 25.2453 23.2069 25.5737C23.7494 25.73 24.3232 25.73 24.8657 25.5737C26.0244 25.2431 27.1921 24.9393 28.3664 24.6332Z" fill="rgb(0,0,0)" fill-rule="evenodd" />
</svg>
