<svg viewBox="0 0 810.906 139.354" xmlns="http://www.w3.org/2000/svg" xmlns:xlink="http://www.w3.org/1999/xlink" width="810.906250" height="139.354492" fill="none" customFrame="#000000">
	<rect id="Ex max black (color) 03" width="810.906738" height="139.354492" x="0.000000" y="0.000002" fill="rgb(255,255,255)" fill-opacity="0" />
	<path id="Ex max black (color) 03" d="M3.87703 28.0155L1.02092 22.4802C-1.15403 18.2649 0.229996 12.9984 4.37392 10.8245C40.1818 -7.96053 74.0038 1.40645 91.4021 11.2102C94.9895 13.2316 95.9894 17.6134 93.9708 21.2611C92.9314 23.1395 91.6076 25.505 89.942 28.4479C87.5114 32.7426 82.1589 34.1553 77.7864 32.0115C56.5322 21.5908 37.9312 21.5785 16.1367 31.9746C11.6439 34.1177 6.19225 32.5026 3.87703 28.0155Z" fill="rgb(122.754,0,2.0459)" fill-rule="evenodd" />
	<path id="Ex max black (color) 03" d="M810.907 118.744C810.907 120.248 810.018 121 808.241 121L798.551 121C795.27 121 792.655 119.394 790.707 116.181L784.195 105.568C781.393 101.022 777.325 98.749 771.993 98.749L771.993 117.873C771.993 118.795 771.686 119.547 771.07 120.128C770.489 120.709 769.754 121 768.866 121L757.381 121C756.458 121 755.707 120.709 755.125 120.128C754.544 119.547 754.254 118.795 754.254 117.873L754.254 67.9873C754.254 67.0645 754.544 66.3125 755.125 65.7314C755.741 65.1162 756.493 64.8086 757.381 64.8086L768.866 64.8086C769.789 64.8086 770.541 65.1162 771.122 65.7314C771.703 66.3125 771.993 67.0645 771.993 67.9873L771.993 87.0596C777.94 87.0596 782.008 84.7524 784.195 80.1382L789.117 69.6792C789.801 68.2095 790.809 67.0303 792.142 66.1416C793.475 65.2529 794.911 64.8086 796.449 64.8086L806.139 64.8086C807.848 64.8086 808.702 65.4751 808.702 66.8081C808.702 67.5601 808.429 68.5171 807.882 69.6792L801.268 83.6245C800.14 85.9487 798.602 87.9482 796.654 89.623C794.706 91.2979 792.604 92.3745 790.348 92.853C794.552 94.1177 798.192 97.1938 801.268 102.082L809.984 116.181C810.565 117.172 810.873 118.026 810.907 118.744Z" fill="rgb(122.754,0,2.0459)" fill-rule="nonzero" />
	<path id="Ex max black (color) 03" d="M810.907 118.744C810.907 120.248 810.018 121 808.241 121L798.551 121C795.27 121 792.655 119.394 790.707 116.181L784.195 105.568C781.393 101.022 777.325 98.749 771.993 98.749L771.993 117.873C771.993 118.795 771.686 119.547 771.07 120.128C770.489 120.709 769.754 121 768.866 121L757.381 121C756.458 121 755.707 120.709 755.125 120.128C754.544 119.547 754.254 118.795 754.254 117.873L754.254 67.9873C754.254 67.0645 754.544 66.3125 755.125 65.7314C755.741 65.1162 756.493 64.8086 757.381 64.8086L768.866 64.8086C769.789 64.8086 770.541 65.1162 771.122 65.7314C771.703 66.3125 771.993 67.0645 771.993 67.9873L771.993 87.0596C777.94 87.0596 782.008 84.7524 784.195 80.1382L789.117 69.6792C789.801 68.2095 790.809 67.0303 792.142 66.1416C793.475 65.2529 794.911 64.8086 796.449 64.8086L806.139 64.8086C807.848 64.8086 808.702 65.4751 808.702 66.8081C808.702 67.5601 808.429 68.5171 807.882 69.6792L801.268 83.6245C800.14 85.9487 798.602 87.9482 796.654 89.623C794.706 91.2979 792.604 92.3745 790.348 92.853C794.552 94.1177 798.192 97.1938 801.268 102.082L809.984 116.181C810.565 117.172 810.873 118.026 810.907 118.744Z" fill="rgb(0,0,0)" fill-rule="nonzero" />
	<path id="Ex max black (color) 03" d="M663.812 117.873L663.812 67.9873C663.812 67.0645 664.103 66.3125 664.684 65.7314C665.299 65.1162 666.051 64.8086 666.94 64.8086L678.424 64.8086C679.347 64.8086 680.099 65.1162 680.68 65.7314C681.261 66.3125 681.552 67.0645 681.552 67.9873L681.552 83.4194L693.754 83.4194C701.034 83.4194 706.657 84.855 710.622 87.7261C714.621 90.5972 716.62 95.4336 716.62 102.235C716.62 109.003 714.621 113.822 710.622 116.693C706.657 119.564 701.034 121 693.754 121L666.94 121C666.017 121 665.265 120.709 664.684 120.128C664.103 119.547 663.812 118.795 663.812 117.873ZM681.244 109.567L692.165 109.567C696.642 109.567 698.881 107.123 698.881 102.235C698.881 97.3135 696.642 94.8525 692.165 94.8525L681.244 94.8525L681.244 109.567ZM723.849 117.873L723.849 67.9873C723.849 67.0645 724.14 66.3125 724.721 65.7314C725.336 65.1162 726.105 64.8086 727.028 64.8086L738.461 64.8086C739.384 64.8086 740.136 65.1162 740.717 65.7314C741.298 66.3125 741.588 67.0645 741.588 67.9873L741.588 117.873C741.588 118.795 741.298 119.547 740.717 120.128C740.136 120.709 739.384 121 738.461 121L727.028 121C726.105 121 725.336 120.709 724.721 120.128C724.14 119.547 723.849 118.795 723.849 117.873Z" fill="rgb(122.754,0,2.0459)" fill-rule="nonzero" />
	<path id="Ex max black (color) 03" d="M663.812 117.873L663.812 67.9873C663.812 67.0645 664.103 66.3125 664.684 65.7314C665.299 65.1162 666.051 64.8086 666.94 64.8086L678.424 64.8086C679.347 64.8086 680.099 65.1162 680.68 65.7314C681.261 66.3125 681.552 67.0645 681.552 67.9873L681.552 83.4194L693.754 83.4194C701.034 83.4194 706.657 84.855 710.622 87.7261C714.621 90.5972 716.62 95.4336 716.62 102.235C716.62 109.003 714.621 113.822 710.622 116.693C706.657 119.564 701.034 121 693.754 121L666.94 121C666.017 121 665.265 120.709 664.684 120.128C664.103 119.547 663.812 118.795 663.812 117.873ZM681.244 109.567L692.165 109.567C696.642 109.567 698.881 107.123 698.881 102.235C698.881 97.3135 696.642 94.8525 692.165 94.8525L681.244 94.8525L681.244 109.567ZM723.849 117.873L723.849 67.9873C723.849 67.0645 724.14 66.3125 724.721 65.7314C725.336 65.1162 726.105 64.8086 727.028 64.8086L738.461 64.8086C739.384 64.8086 740.136 65.1162 740.717 65.7314C741.298 66.3125 741.588 67.0645 741.588 67.9873L741.588 117.873C741.588 118.795 741.298 119.547 740.717 120.128C740.136 120.709 739.384 121 738.461 121L727.028 121C726.105 121 725.336 120.709 724.721 120.128C724.14 119.547 723.849 118.795 723.849 117.873Z" fill="rgb(0,0,0)" fill-rule="nonzero" />
	<path id="Ex max black (color) 03" d="M595.418 106.593C595.418 105.67 595.708 104.918 596.29 104.337C596.905 103.756 597.657 103.466 598.545 103.466L606.236 103.466C608.56 103.466 610.372 104.628 611.67 106.952C613.003 109.242 615.533 110.387 619.258 110.387L629.666 110.387C634.622 110.387 637.1 108.354 637.1 104.286C637.1 100.219 634.622 98.2021 629.666 98.2363L616.951 98.2363C616.028 98.2363 615.259 97.9458 614.644 97.3647C614.063 96.7495 613.772 95.9805 613.772 95.0576L613.772 89.7256C613.772 88.8027 614.063 88.0508 614.644 87.4697C615.259 86.8545 616.028 86.5469 616.951 86.5469L628.692 86.5469C630.948 86.5469 632.64 86.0513 633.768 85.0601C634.93 84.0347 635.511 82.6846 635.511 81.0098C635.511 79.335 634.93 77.9849 633.768 76.9595C632.64 75.9341 630.948 75.4214 628.692 75.4214L619.258 75.4214C618.062 75.4214 616.832 75.729 615.567 76.3442C614.302 76.9253 613.362 77.7798 612.747 78.9077C611.414 81.2319 609.585 82.377 607.261 82.3428L599.622 82.3428C598.699 82.3428 597.93 82.0522 597.315 81.4712C596.734 80.8901 596.443 80.1382 596.443 79.2153C596.443 74.6011 598.682 70.8755 603.16 68.0386C607.671 65.2017 613.106 63.7832 619.463 63.7832L629.769 63.7832C636.98 63.7832 642.688 65.1162 646.893 67.7822C651.131 70.4141 653.25 74.4302 653.25 79.8306C653.25 85.231 650.806 89.1274 645.918 91.52C651.866 94.5278 654.839 99.2788 654.839 105.773C654.839 111.447 652.823 115.583 648.79 118.18C644.791 120.744 638.826 122.025 630.896 122.025L619.463 122.025C612.593 122.025 606.868 120.624 602.288 117.821C597.708 115.019 595.418 111.276 595.418 106.593Z" fill="rgb(122.754,0,2.0459)" fill-rule="nonzero" />
	<path id="Ex max black (color) 03" d="M595.418 106.593C595.418 105.67 595.708 104.918 596.29 104.337C596.905 103.756 597.657 103.466 598.545 103.466L606.236 103.466C608.56 103.466 610.372 104.628 611.67 106.952C613.003 109.242 615.533 110.387 619.258 110.387L629.666 110.387C634.622 110.387 637.1 108.354 637.1 104.286C637.1 100.219 634.622 98.2021 629.666 98.2363L616.951 98.2363C616.028 98.2363 615.259 97.9458 614.644 97.3647C614.063 96.7495 613.772 95.9805 613.772 95.0576L613.772 89.7256C613.772 88.8027 614.063 88.0508 614.644 87.4697C615.259 86.8545 616.028 86.5469 616.951 86.5469L628.692 86.5469C630.948 86.5469 632.64 86.0513 633.768 85.0601C634.93 84.0347 635.511 82.6846 635.511 81.0098C635.511 79.335 634.93 77.9849 633.768 76.9595C632.64 75.9341 630.948 75.4214 628.692 75.4214L619.258 75.4214C618.062 75.4214 616.832 75.729 615.567 76.3442C614.302 76.9253 613.362 77.7798 612.747 78.9077C611.414 81.2319 609.585 82.377 607.261 82.3428L599.622 82.3428C598.699 82.3428 597.93 82.0522 597.315 81.4712C596.734 80.8901 596.443 80.1382 596.443 79.2153C596.443 74.6011 598.682 70.8755 603.16 68.0386C607.671 65.2017 613.106 63.7832 619.463 63.7832L629.769 63.7832C636.98 63.7832 642.688 65.1162 646.893 67.7822C651.131 70.4141 653.25 74.4302 653.25 79.8306C653.25 85.231 650.806 89.1274 645.918 91.52C651.866 94.5278 654.839 99.2788 654.839 105.773C654.839 111.447 652.823 115.583 648.79 118.18C644.791 120.744 638.826 122.025 630.896 122.025L619.463 122.025C612.593 122.025 606.868 120.624 602.288 117.821C597.708 115.019 595.418 111.276 595.418 106.593Z" fill="rgb(0,0,0)" fill-rule="nonzero" />
	<path id="Ex max black (color) 03" d="M530.767 82.9067C530.767 70.8755 538.389 64.8428 553.633 64.8086L583.882 64.8086C584.805 64.8086 585.557 65.1162 586.138 65.7314C586.719 66.3125 587.01 67.0645 587.01 67.9873L587.01 117.873C587.01 118.795 586.719 119.547 586.138 120.128C585.557 120.709 584.805 121 583.882 121L572.449 121C571.526 121 570.757 120.709 570.142 120.128C569.561 119.513 569.271 118.761 569.271 117.873L569.271 100.954L559.222 100.954L550.506 116.488C548.831 119.496 546.165 121 542.508 121L533.279 121C532.015 121 531.194 120.539 530.818 119.616C530.682 119.308 530.613 118.915 530.613 118.437C530.613 117.924 530.87 117.274 531.382 116.488L541.688 99.2617C534.407 96.5615 530.767 91.1099 530.767 82.9067ZM550.301 78.2412C549.104 79.3691 548.506 80.9243 548.506 82.9067C548.506 84.855 549.087 86.4102 550.25 87.5723C551.446 88.7344 553.104 89.3154 555.223 89.3154L569.271 89.3154L569.271 76.498L555.223 76.498C553.138 76.498 551.497 77.0791 550.301 78.2412Z" fill="rgb(122.754,0,2.0459)" fill-rule="nonzero" />
	<path id="Ex max black (color) 03" d="M530.767 82.9067C530.767 70.8755 538.389 64.8428 553.633 64.8086L583.882 64.8086C584.805 64.8086 585.557 65.1162 586.138 65.7314C586.719 66.3125 587.01 67.0645 587.01 67.9873L587.01 117.873C587.01 118.795 586.719 119.547 586.138 120.128C585.557 120.709 584.805 121 583.882 121L572.449 121C571.526 121 570.757 120.709 570.142 120.128C569.561 119.513 569.271 118.761 569.271 117.873L569.271 100.954L559.222 100.954L550.506 116.488C548.831 119.496 546.165 121 542.508 121L533.279 121C532.015 121 531.194 120.539 530.818 119.616C530.682 119.308 530.613 118.915 530.613 118.437C530.613 117.924 530.87 117.274 531.382 116.488L541.688 99.2617C534.407 96.5615 530.767 91.1099 530.767 82.9067ZM550.301 78.2412C549.104 79.3691 548.506 80.9243 548.506 82.9067C548.506 84.855 549.087 86.4102 550.25 87.5723C551.446 88.7344 553.104 89.3154 555.223 89.3154L569.271 89.3154L569.271 76.498L555.223 76.498C553.138 76.498 551.497 77.0791 550.301 78.2412Z" fill="rgb(0,0,0)" fill-rule="nonzero" />
	<path id="Ex max black (color) 03" d="M425.512 117.873L425.512 67.9873C425.512 67.0645 425.802 66.3125 426.383 65.7314C426.999 65.1162 427.75 64.8086 428.639 64.8086L439.354 64.8086C440.277 64.8086 441.029 65.1162 441.61 65.7314C442.226 66.3125 442.533 67.0645 442.533 67.9873L442.533 101.671L460.58 68.5C461.127 67.4404 461.964 66.5688 463.092 65.8853C464.22 65.1675 465.314 64.8086 466.374 64.8086L480.729 64.8086C481.652 64.8086 482.404 65.1162 482.985 65.7314C483.6 66.3125 483.908 67.0645 483.908 67.9873L483.908 117.873C483.908 118.795 483.6 119.547 482.985 120.128C482.404 120.709 481.652 121 480.729 121L470.014 121C469.091 121 468.339 120.709 467.758 120.128C467.177 119.513 466.886 118.761 466.886 117.873L466.886 84.2397L448.839 117.309C448.292 118.3 447.455 119.171 446.327 119.923C445.199 120.641 444.105 121 443.046 121L428.639 121C427.716 121 426.964 120.709 426.383 120.128C425.802 119.547 425.512 118.795 425.512 117.873ZM437.458 45.3774C437.458 43.6343 438.415 42.7627 440.329 42.7627L444.174 42.7627C445.849 42.7627 447.045 43.6343 447.763 45.3774C448.891 48.1802 451.198 49.5815 454.684 49.5815C458.205 49.5815 460.512 48.1802 461.605 45.3774C462.289 43.6343 463.485 42.7627 465.194 42.7627L469.091 42.7627C470.971 42.7627 471.911 43.6343 471.911 45.3774C471.911 49.3765 470.321 52.6577 467.143 55.2212C463.964 57.7847 459.811 59.0664 454.684 59.0664C449.591 59.0664 445.438 57.7847 442.226 55.2212C439.047 52.6577 437.458 49.3765 437.458 45.3774Z" fill="rgb(122.754,0,2.0459)" fill-rule="nonzero" />
	<path id="Ex max black (color) 03" d="M425.512 117.873L425.512 67.9873C425.512 67.0645 425.802 66.3125 426.383 65.7314C426.999 65.1162 427.75 64.8086 428.639 64.8086L439.354 64.8086C440.277 64.8086 441.029 65.1162 441.61 65.7314C442.226 66.3125 442.533 67.0645 442.533 67.9873L442.533 101.671L460.58 68.5C461.127 67.4404 461.964 66.5688 463.092 65.8853C464.22 65.1675 465.314 64.8086 466.374 64.8086L480.729 64.8086C481.652 64.8086 482.404 65.1162 482.985 65.7314C483.6 66.3125 483.908 67.0645 483.908 67.9873L483.908 117.873C483.908 118.795 483.6 119.547 482.985 120.128C482.404 120.709 481.652 121 480.729 121L470.014 121C469.091 121 468.339 120.709 467.758 120.128C467.177 119.513 466.886 118.761 466.886 117.873L466.886 84.2397L448.839 117.309C448.292 118.3 447.455 119.171 446.327 119.923C445.199 120.641 444.105 121 443.046 121L428.639 121C427.716 121 426.964 120.709 426.383 120.128C425.802 119.547 425.512 118.795 425.512 117.873ZM437.458 45.3774C437.458 43.6343 438.415 42.7627 440.329 42.7627L444.174 42.7627C445.849 42.7627 447.045 43.6343 447.763 45.3774C448.891 48.1802 451.198 49.5815 454.684 49.5815C458.205 49.5815 460.512 48.1802 461.605 45.3774C462.289 43.6343 463.485 42.7627 465.194 42.7627L469.091 42.7627C470.971 42.7627 471.911 43.6343 471.911 45.3774C471.911 49.3765 470.321 52.6577 467.143 55.2212C463.964 57.7847 459.811 59.0664 454.684 59.0664C449.591 59.0664 445.438 57.7847 442.226 55.2212C439.047 52.6577 437.458 49.3765 437.458 45.3774Z" fill="rgb(0,0,0)" fill-rule="nonzero" />
	<path id="Ex max black (color) 03" d="M354.555 117.873L354.555 67.9873C354.555 67.0645 354.845 66.3125 355.426 65.7314C356.042 65.1162 356.793 64.8086 357.682 64.8086L368.397 64.8086C369.32 64.8086 370.072 65.1162 370.653 65.7314C371.269 66.3125 371.576 67.0645 371.576 67.9873L371.576 101.671L389.623 68.5C390.17 67.4404 391.007 66.5688 392.135 65.8853C393.263 65.1675 394.357 64.8086 395.417 64.8086L409.772 64.8086C410.695 64.8086 411.447 65.1162 412.028 65.7314C412.643 66.3125 412.951 67.0645 412.951 67.9873L412.951 117.873C412.951 118.795 412.643 119.547 412.028 120.128C411.447 120.709 410.695 121 409.772 121L399.057 121C398.134 121 397.382 120.709 396.801 120.128C396.22 119.513 395.929 118.761 395.929 117.873L395.929 84.2397L377.882 117.309C377.335 118.3 376.498 119.171 375.37 119.923C374.242 120.641 373.148 121 372.089 121L357.682 121C356.759 121 356.007 120.709 355.426 120.128C354.845 119.547 354.555 118.795 354.555 117.873Z" fill="rgb(122.754,0,2.0459)" fill-rule="nonzero" />
	<path id="Ex max black (color) 03" d="M354.555 117.873L354.555 67.9873C354.555 67.0645 354.845 66.3125 355.426 65.7314C356.042 65.1162 356.793 64.8086 357.682 64.8086L368.397 64.8086C369.32 64.8086 370.072 65.1162 370.653 65.7314C371.269 66.3125 371.576 67.0645 371.576 67.9873L371.576 101.671L389.623 68.5C390.17 67.4404 391.007 66.5688 392.135 65.8853C393.263 65.1675 394.357 64.8086 395.417 64.8086L409.772 64.8086C410.695 64.8086 411.447 65.1162 412.028 65.7314C412.643 66.3125 412.951 67.0645 412.951 67.9873L412.951 117.873C412.951 118.795 412.643 119.547 412.028 120.128C411.447 120.709 410.695 121 409.772 121L399.057 121C398.134 121 397.382 120.709 396.801 120.128C396.22 119.513 395.929 118.761 395.929 117.873L395.929 84.2397L377.882 117.309C377.335 118.3 376.498 119.171 375.37 119.923C374.242 120.641 373.148 121 372.089 121L357.682 121C356.759 121 356.007 120.709 355.426 120.128C354.845 119.547 354.555 118.795 354.555 117.873Z" fill="rgb(0,0,0)" fill-rule="nonzero" />
	<path id="Ex max black (color) 03" d="M347.122 118.744C347.122 120.248 346.233 121 344.456 121L334.766 121C331.484 121 328.87 119.394 326.921 116.181L320.41 105.568C317.607 101.022 313.54 98.749 308.208 98.749L308.208 117.873C308.208 118.795 307.9 119.547 307.285 120.128C306.704 120.709 305.969 121 305.081 121L293.596 121C292.673 121 291.921 120.709 291.34 120.128C290.759 119.547 290.469 118.795 290.469 117.873L290.469 67.9873C290.469 67.0645 290.759 66.3125 291.34 65.7314C291.956 65.1162 292.708 64.8086 293.596 64.8086L305.081 64.8086C306.003 64.8086 306.755 65.1162 307.336 65.7314C307.917 66.3125 308.208 67.0645 308.208 67.9873L308.208 87.0596C314.155 87.0596 318.223 84.7524 320.41 80.1382L325.332 69.6792C326.016 68.2095 327.024 67.0303 328.357 66.1416C329.69 65.2529 331.125 64.8086 332.664 64.8086L342.354 64.8086C344.062 64.8086 344.917 65.4751 344.917 66.8081C344.917 67.5601 344.644 68.5171 344.097 69.6792L337.483 83.6245C336.355 85.9487 334.817 87.9482 332.869 89.623C330.92 91.2979 328.818 92.3745 326.562 92.853C330.767 94.1177 334.407 97.1938 337.483 102.082L346.199 116.181C346.78 117.172 347.087 118.026 347.122 118.744Z" fill="rgb(122.754,0,2.0459)" fill-rule="nonzero" />
	<path id="Ex max black (color) 03" d="M347.122 118.744C347.122 120.248 346.233 121 344.456 121L334.766 121C331.484 121 328.87 119.394 326.921 116.181L320.41 105.568C317.607 101.022 313.54 98.749 308.208 98.749L308.208 117.873C308.208 118.795 307.9 119.547 307.285 120.128C306.704 120.709 305.969 121 305.081 121L293.596 121C292.673 121 291.921 120.709 291.34 120.128C290.759 119.547 290.469 118.795 290.469 117.873L290.469 67.9873C290.469 67.0645 290.759 66.3125 291.34 65.7314C291.956 65.1162 292.708 64.8086 293.596 64.8086L305.081 64.8086C306.003 64.8086 306.755 65.1162 307.336 65.7314C307.917 66.3125 308.208 67.0645 308.208 67.9873L308.208 87.0596C314.155 87.0596 318.223 84.7524 320.41 80.1382L325.332 69.6792C326.016 68.2095 327.024 67.0303 328.357 66.1416C329.69 65.2529 331.125 64.8086 332.664 64.8086L342.354 64.8086C344.062 64.8086 344.917 65.4751 344.917 66.8081C344.917 67.5601 344.644 68.5171 344.097 69.6792L337.483 83.6245C336.355 85.9487 334.817 87.9482 332.869 89.623C330.92 91.2979 328.818 92.3745 326.562 92.853C330.767 94.1177 334.407 97.1938 337.483 102.082L346.199 116.181C346.78 117.172 347.087 118.026 347.122 118.744Z" fill="rgb(0,0,0)" fill-rule="nonzero" />
	<path id="Ex max black (color) 03" d="M252.426 122.025C242.855 122.025 235.404 119.564 230.072 114.643C224.74 109.721 222.074 102.492 222.074 92.9556C222.074 83.3853 224.723 76.1392 230.021 71.2173C235.319 66.2612 242.685 63.7832 252.118 63.7832C261.586 63.7832 268.849 65.2871 273.908 68.2949C279 71.3027 281.547 75.7461 281.547 81.625C281.547 82.5479 281.239 83.2998 280.624 83.8809C280.043 84.4619 279.291 84.7524 278.368 84.7524L270.729 84.7524C268.405 84.7524 266.439 83.5049 264.833 81.0098C262.816 77.7969 259.245 76.1904 254.118 76.1904C249.025 76.1904 245.453 77.5063 243.402 80.1382C241.386 82.7358 240.377 86.9912 240.377 92.9043C240.377 98.8174 241.42 103.09 243.505 105.722C245.624 108.354 249.281 109.669 254.477 109.669C259.706 109.669 263.329 108.063 265.346 104.85C266.952 102.321 268.917 101.056 271.242 101.056L278.881 101.056C279.804 101.056 280.556 101.364 281.137 101.979C281.752 102.56 282.06 103.295 282.06 104.184C282.06 110.062 279.513 114.506 274.42 117.514C269.362 120.521 262.03 122.025 252.426 122.025Z" fill="rgb(122.754,0,2.0459)" fill-rule="nonzero" />
	<path id="Ex max black (color) 03" d="M252.426 122.025C242.855 122.025 235.404 119.564 230.072 114.643C224.74 109.721 222.074 102.492 222.074 92.9556C222.074 83.3853 224.723 76.1392 230.021 71.2173C235.319 66.2612 242.685 63.7832 252.118 63.7832C261.586 63.7832 268.849 65.2871 273.908 68.2949C279 71.3027 281.547 75.7461 281.547 81.625C281.547 82.5479 281.239 83.2998 280.624 83.8809C280.043 84.4619 279.291 84.7524 278.368 84.7524L270.729 84.7524C268.405 84.7524 266.439 83.5049 264.833 81.0098C262.816 77.7969 259.245 76.1904 254.118 76.1904C249.025 76.1904 245.453 77.5063 243.402 80.1382C241.386 82.7358 240.377 86.9912 240.377 92.9043C240.377 98.8174 241.42 103.09 243.505 105.722C245.624 108.354 249.281 109.669 254.477 109.669C259.706 109.669 263.329 108.063 265.346 104.85C266.952 102.321 268.917 101.056 271.242 101.056L278.881 101.056C279.804 101.056 280.556 101.364 281.137 101.979C281.752 102.56 282.06 103.295 282.06 104.184C282.06 110.062 279.513 114.506 274.42 117.514C269.362 120.521 262.03 122.025 252.426 122.025Z" fill="rgb(0,0,0)" fill-rule="nonzero" />
	<path id="Ex max black (color) 03" d="M187.211 122.025C177.641 122.025 170.189 119.564 164.857 114.643C159.525 109.721 156.859 102.492 156.859 92.9556C156.859 83.3853 159.508 76.1392 164.806 71.2173C170.104 66.2612 177.47 63.7832 186.903 63.7832C196.371 63.7832 203.634 65.2871 208.693 68.2949C213.786 71.3027 216.332 75.7461 216.332 81.625C216.332 82.5479 216.024 83.2998 215.409 83.8809C214.828 84.4619 214.076 84.7524 213.153 84.7524L205.514 84.7524C203.19 84.7524 201.225 83.5049 199.618 81.0098C197.602 77.7969 194.03 76.1904 188.903 76.1904C183.81 76.1904 180.238 77.5063 178.188 80.1382C176.171 82.7358 175.163 86.9912 175.163 92.9043C175.163 98.8174 176.205 103.09 178.29 105.722C180.409 108.354 184.066 109.669 189.262 109.669C194.491 109.669 198.114 108.063 200.131 104.85C201.737 102.321 203.703 101.056 206.027 101.056L213.666 101.056C214.589 101.056 215.341 101.364 215.922 101.979C216.537 102.56 216.845 103.295 216.845 104.184C216.845 110.062 214.298 114.506 209.206 117.514C204.147 120.521 196.815 122.025 187.211 122.025Z" fill="rgb(122.754,0,2.0459)" fill-rule="nonzero" />
	<path id="Ex max black (color) 03" d="M187.211 122.025C177.641 122.025 170.189 119.564 164.857 114.643C159.525 109.721 156.859 102.492 156.859 92.9556C156.859 83.3853 159.508 76.1392 164.806 71.2173C170.104 66.2612 177.47 63.7832 186.903 63.7832C196.371 63.7832 203.634 65.2871 208.693 68.2949C213.786 71.3027 216.332 75.7461 216.332 81.625C216.332 82.5479 216.024 83.2998 215.409 83.8809C214.828 84.4619 214.076 84.7524 213.153 84.7524L205.514 84.7524C203.19 84.7524 201.225 83.5049 199.618 81.0098C197.602 77.7969 194.03 76.1904 188.903 76.1904C183.81 76.1904 180.238 77.5063 178.188 80.1382C176.171 82.7358 175.163 86.9912 175.163 92.9043C175.163 98.8174 176.205 103.09 178.29 105.722C180.409 108.354 184.066 109.669 189.262 109.669C194.491 109.669 198.114 108.063 200.131 104.85C201.737 102.321 203.703 101.056 206.027 101.056L213.666 101.056C214.589 101.056 215.341 101.364 215.922 101.979C216.537 102.56 216.845 103.295 216.845 104.184C216.845 110.062 214.298 114.506 209.206 117.514C204.147 120.521 196.815 122.025 187.211 122.025Z" fill="rgb(0,0,0)" fill-rule="nonzero" />
	<path id="Ex max black (color) 03" d="M104.617 126.332L111.333 127.204C116.153 127.204 119.52 123.666 121.434 116.591C115.623 116.591 110.77 114.848 106.873 111.361C102.977 107.841 99.627 101.603 96.8242 92.6479L89.1851 67.8848C89.0825 67.6113 89.0312 67.3037 89.0312 66.9619C89.0312 66.5859 89.2363 66.1416 89.6465 65.6289C90.0908 65.1162 90.7402 64.8428 91.5947 64.8086L102.31 64.8086C103.301 64.8086 104.241 65.1504 105.13 65.834C106.053 66.4834 106.651 67.3037 106.924 68.2949L113.641 90.0332C115.315 95.3652 117.007 99.0566 118.716 101.107C120.459 103.158 122.51 104.184 124.869 104.184L135.071 68.2949C135.345 67.3037 135.875 66.4834 136.661 65.834C137.481 65.1504 138.387 64.8086 139.378 64.8086L150.196 64.8086C151.05 64.8086 151.683 65.082 152.093 65.6289C152.503 66.1758 152.708 66.6372 152.708 67.0132C152.708 67.355 152.674 67.6455 152.605 67.8848L139.173 115.771C136.78 124.247 133.807 130.297 130.252 133.92C126.731 137.543 122.186 139.354 116.614 139.354C111.043 139.354 107.095 139.149 104.771 138.739C102.481 138.329 101.045 137.816 100.464 137.201C99.8833 136.62 99.5928 135.937 99.5928 135.15L99.5928 129.511C99.5928 128.588 99.8833 127.819 100.464 127.204C101.045 126.623 101.797 126.332 102.72 126.332L104.617 126.332Z" fill="rgb(122.754,0,2.0459)" fill-rule="nonzero" />
	<path id="Ex max black (color) 03" d="M104.617 126.332L111.333 127.204C116.153 127.204 119.52 123.666 121.434 116.591C115.623 116.591 110.77 114.848 106.873 111.361C102.977 107.841 99.627 101.603 96.8242 92.6479L89.1851 67.8848C89.0825 67.6113 89.0312 67.3037 89.0312 66.9619C89.0312 66.5859 89.2363 66.1416 89.6465 65.6289C90.0908 65.1162 90.7402 64.8428 91.5947 64.8086L102.31 64.8086C103.301 64.8086 104.241 65.1504 105.13 65.834C106.053 66.4834 106.651 67.3037 106.924 68.2949L113.641 90.0332C115.315 95.3652 117.007 99.0566 118.716 101.107C120.459 103.158 122.51 104.184 124.869 104.184L135.071 68.2949C135.345 67.3037 135.875 66.4834 136.661 65.834C137.481 65.1504 138.387 64.8086 139.378 64.8086L150.196 64.8086C151.05 64.8086 151.683 65.082 152.093 65.6289C152.503 66.1758 152.708 66.6372 152.708 67.0132C152.708 67.355 152.674 67.6455 152.605 67.8848L139.173 115.771C136.78 124.247 133.807 130.297 130.252 133.92C126.731 137.543 122.186 139.354 116.614 139.354C111.043 139.354 107.095 139.149 104.771 138.739C102.481 138.329 101.045 137.816 100.464 137.201C99.8833 136.62 99.5928 135.937 99.5928 135.15L99.5928 129.511C99.5928 128.588 99.8833 127.819 100.464 127.204C101.045 126.623 101.797 126.332 102.72 126.332L104.617 126.332Z" fill="rgb(0,0,0)" fill-rule="nonzero" />
	<path id="Ex max black (color) 03" d="M10.332 116.181L10.332 52.3501C10.332 51.0171 10.7935 49.8721 11.7163 48.915C12.6392 47.958 13.7671 47.4795 15.1001 47.4795L54.2188 47.4795C74.8975 47.4795 85.2368 57.0156 85.2368 76.0879C85.2368 95.126 74.8975 104.645 54.2188 104.645L29.6606 104.645L29.6606 116.181C29.6606 117.514 29.1821 118.659 28.2251 119.616C27.3022 120.539 26.1743 121 24.8413 121L15.2026 121C13.8696 121 12.7246 120.539 11.7676 119.616C10.8105 118.659 10.332 117.514 10.332 116.181ZM29.6606 90.1357L48.374 90.1357C54.1162 90.1357 58.4741 89.1787 61.4478 87.2646C64.4214 85.3164 65.9082 81.5908 65.9082 76.0879C65.9082 70.5508 64.4214 66.8252 61.4478 64.9111C58.4741 62.9629 54.1162 61.9888 48.374 61.9888L29.6606 61.9888L29.6606 90.1357Z" fill="rgb(122.754,0,2.0459)" fill-rule="nonzero" />
	<path id="Ex max black (color) 03" d="M10.332 116.181L10.332 52.3501C10.332 51.0171 10.7935 49.8721 11.7163 48.915C12.6392 47.958 13.7671 47.4795 15.1001 47.4795L54.2188 47.4795C74.8975 47.4795 85.2368 57.0156 85.2368 76.0879C85.2368 95.126 74.8975 104.645 54.2188 104.645L29.6606 104.645L29.6606 116.181C29.6606 117.514 29.1821 118.659 28.2251 119.616C27.3022 120.539 26.1743 121 24.8413 121L15.2026 121C13.8696 121 12.7246 120.539 11.7676 119.616C10.8105 118.659 10.332 117.514 10.332 116.181ZM29.6606 90.1357L48.374 90.1357C54.1162 90.1357 58.4741 89.1787 61.4478 87.2646C64.4214 85.3164 65.9082 81.5908 65.9082 76.0879C65.9082 70.5508 64.4214 66.8252 61.4478 64.9111C58.4741 62.9629 54.1162 61.9888 48.374 61.9888L29.6606 61.9888L29.6606 90.1357Z" fill="rgb(0,0,0)" fill-rule="nonzero" />
</svg>
