<svg viewBox="0 0 611.057 138.329" xmlns="http://www.w3.org/2000/svg" xmlns:xlink="http://www.w3.org/1999/xlink" width="611.056641" height="138.329102" fill="none" customFrame="#000000">
	<rect id="Ex max black (color) 09" width="611.056641" height="138.329102" x="0.000000" y="0.000000" fill="rgb(255,255,255)" fill-opacity="0" />
	<path id="Ex max black (color) 09" d="M3.87703 28.0155L1.02092 22.4802C-1.15403 18.2649 0.229996 12.9984 4.37392 10.8245C40.1818 -7.96054 74.0038 1.40645 91.4021 11.2102C94.9895 13.2316 95.9894 17.6134 93.9708 21.2611C92.9314 23.1395 91.6076 25.505 89.942 28.4479C87.5114 32.7426 82.1589 34.1553 77.7864 32.0115C56.5322 21.5908 37.9312 21.5785 16.1367 31.9746C11.6439 34.1177 6.19225 32.5026 3.87703 28.0155Z" fill="rgb(95.8496,181.013,241.337)" fill-rule="evenodd" />
	<path id="Ex max black (color) 09" d="M554.814 82.9067C554.814 70.8755 562.436 64.8428 577.68 64.8086L607.929 64.8086C608.852 64.8086 609.604 65.1162 610.185 65.7314C610.766 66.3125 611.057 67.0645 611.057 67.9873L611.057 117.873C611.057 118.795 610.766 119.547 610.185 120.128C609.604 120.709 608.852 121 607.929 121L596.496 121C595.573 121 594.804 120.709 594.189 120.128C593.608 119.513 593.317 118.761 593.317 117.873L593.317 100.954L583.269 100.954L574.553 116.488C572.878 119.496 570.212 121 566.555 121L557.326 121C556.062 121 555.241 120.539 554.865 119.616C554.729 119.308 554.66 118.915 554.66 118.437C554.66 117.924 554.917 117.274 555.429 116.488L565.734 99.2617C558.454 96.5615 554.814 91.1099 554.814 82.9067ZM574.348 78.2412C573.151 79.3691 572.553 80.9243 572.553 82.9067C572.553 84.855 573.134 86.4102 574.296 87.5723C575.493 88.7344 577.15 89.3154 579.27 89.3154L593.317 89.3154L593.317 76.498L579.27 76.498C577.185 76.498 575.544 77.0791 574.348 78.2412Z" fill="rgb(95.8496,181.013,241.337)" fill-rule="nonzero" />
	<path id="Ex max black (color) 09" d="M554.814 82.9067C554.814 70.8755 562.436 64.8428 577.68 64.8086L607.929 64.8086C608.852 64.8086 609.604 65.1162 610.185 65.7314C610.766 66.3125 611.057 67.0645 611.057 67.9873L611.057 117.873C611.057 118.795 610.766 119.547 610.185 120.128C609.604 120.709 608.852 121 607.929 121L596.496 121C595.573 121 594.804 120.709 594.189 120.128C593.608 119.513 593.317 118.761 593.317 117.873L593.317 100.954L583.269 100.954L574.553 116.488C572.878 119.496 570.212 121 566.555 121L557.326 121C556.062 121 555.241 120.539 554.865 119.616C554.729 119.308 554.66 118.915 554.66 118.437C554.66 117.924 554.917 117.274 555.429 116.488L565.734 99.2617C558.454 96.5615 554.814 91.1099 554.814 82.9067ZM574.348 78.2412C573.151 79.3691 572.553 80.9243 572.553 82.9067C572.553 84.855 573.134 86.4102 574.296 87.5723C575.493 88.7344 577.15 89.3154 579.27 89.3154L593.317 89.3154L593.317 76.498L579.27 76.498C577.185 76.498 575.544 77.0791 574.348 78.2412Z" fill="rgb(0,0,0)" fill-rule="nonzero" />
	<path id="Ex max black (color) 09" d="M486.371 117.873L486.371 67.9873C486.371 67.0645 486.662 66.3125 487.243 65.7314C487.858 65.1162 488.61 64.8086 489.499 64.8086L500.214 64.8086C501.137 64.8086 501.889 65.1162 502.47 65.7314C503.085 66.3125 503.393 67.0645 503.393 67.9873L503.393 101.671L521.439 68.5C521.986 67.4404 522.824 66.5688 523.952 65.8853C525.08 65.1675 526.173 64.8086 527.233 64.8086L541.588 64.8086C542.511 64.8086 543.263 65.1162 543.844 65.7314C544.459 66.3125 544.767 67.0645 544.767 67.9873L544.767 117.873C544.767 118.795 544.459 119.547 543.844 120.128C543.263 120.709 542.511 121 541.588 121L530.873 121C529.95 121 529.198 120.709 528.617 120.128C528.036 119.513 527.746 118.761 527.746 117.873L527.746 84.2397L509.699 117.309C509.152 118.3 508.314 119.171 507.187 119.923C506.059 120.641 504.965 121 503.905 121L489.499 121C488.576 121 487.824 120.709 487.243 120.128C486.662 119.547 486.371 118.795 486.371 117.873Z" fill="rgb(95.8496,181.013,241.337)" fill-rule="nonzero" />
	<path id="Ex max black (color) 09" d="M486.371 117.873L486.371 67.9873C486.371 67.0645 486.662 66.3125 487.243 65.7314C487.858 65.1162 488.61 64.8086 489.499 64.8086L500.214 64.8086C501.137 64.8086 501.889 65.1162 502.47 65.7314C503.085 66.3125 503.393 67.0645 503.393 67.9873L503.393 101.671L521.439 68.5C521.986 67.4404 522.824 66.5688 523.952 65.8853C525.08 65.1675 526.173 64.8086 527.233 64.8086L541.588 64.8086C542.511 64.8086 543.263 65.1162 543.844 65.7314C544.459 66.3125 544.767 67.0645 544.767 67.9873L544.767 117.873C544.767 118.795 544.459 119.547 543.844 120.128C543.263 120.709 542.511 121 541.588 121L530.873 121C529.95 121 529.198 120.709 528.617 120.128C528.036 119.513 527.746 118.761 527.746 117.873L527.746 84.2397L509.699 117.309C509.152 118.3 508.314 119.171 507.187 119.923C506.059 120.641 504.965 121 503.905 121L489.499 121C488.576 121 487.824 120.709 487.243 120.128C486.662 119.547 486.371 118.795 486.371 117.873Z" fill="rgb(0,0,0)" fill-rule="nonzero" />
	<path id="Ex max black (color) 09" d="M406.033 113.515C400.735 108.764 398.086 101.876 398.086 92.853C398.086 83.8296 400.735 76.9766 406.033 72.2939C411.365 67.6113 419.072 65.1162 429.155 64.8086L429.155 50.6582C429.155 49.7354 429.446 48.9834 430.027 48.4023C430.642 47.7871 431.411 47.4795 432.334 47.4795L443.767 47.4795C444.69 47.4795 445.442 47.7871 446.023 48.4023C446.604 48.9834 446.895 49.7354 446.895 50.6582L446.895 64.8086C456.978 65.082 464.668 67.5771 469.966 72.2939C475.298 76.9766 477.964 83.8296 477.964 92.853C477.964 101.876 475.298 108.764 469.966 113.515C464.668 118.231 456.978 120.727 446.895 121L446.895 135.15C446.895 136.073 446.587 136.825 445.972 137.406C445.391 138.021 444.656 138.329 443.767 138.329L432.334 138.329C431.411 138.329 430.642 138.021 430.027 137.406C429.446 136.825 429.155 136.073 429.155 135.15L429.155 121C419.072 120.727 411.365 118.231 406.033 113.515ZM419.158 80.1382C416.936 82.8042 415.825 87.0425 415.825 92.853C415.825 98.6636 416.936 102.919 419.158 105.619C421.414 108.319 424.849 109.704 429.463 109.772L429.463 76.0366C424.849 76.105 421.414 77.4722 419.158 80.1382ZM446.587 109.772C451.201 109.704 454.619 108.319 456.841 105.619C459.097 102.919 460.225 98.6636 460.225 92.853C460.225 87.0425 459.097 82.8213 456.841 80.1895C454.619 77.5234 451.201 76.1392 446.587 76.0366L446.587 109.772Z" fill="rgb(95.8496,181.013,241.337)" fill-rule="nonzero" />
	<path id="Ex max black (color) 09" d="M406.033 113.515C400.735 108.764 398.086 101.876 398.086 92.853C398.086 83.8296 400.735 76.9766 406.033 72.2939C411.365 67.6113 419.072 65.1162 429.155 64.8086L429.155 50.6582C429.155 49.7354 429.446 48.9834 430.027 48.4023C430.642 47.7871 431.411 47.4795 432.334 47.4795L443.767 47.4795C444.69 47.4795 445.442 47.7871 446.023 48.4023C446.604 48.9834 446.895 49.7354 446.895 50.6582L446.895 64.8086C456.978 65.082 464.668 67.5771 469.966 72.2939C475.298 76.9766 477.964 83.8296 477.964 92.853C477.964 101.876 475.298 108.764 469.966 113.515C464.668 118.231 456.978 120.727 446.895 121L446.895 135.15C446.895 136.073 446.587 136.825 445.972 137.406C445.391 138.021 444.656 138.329 443.767 138.329L432.334 138.329C431.411 138.329 430.642 138.021 430.027 137.406C429.446 136.825 429.155 136.073 429.155 135.15L429.155 121C419.072 120.727 411.365 118.231 406.033 113.515ZM419.158 80.1382C416.936 82.8042 415.825 87.0425 415.825 92.853C415.825 98.6636 416.936 102.919 419.158 105.619C421.414 108.319 424.849 109.704 429.463 109.772L429.463 76.0366C424.849 76.105 421.414 77.4722 419.158 80.1382ZM446.587 109.772C451.201 109.704 454.619 108.319 456.841 105.619C459.097 102.919 460.225 98.6636 460.225 92.853C460.225 87.0425 459.097 82.8213 456.841 80.1895C454.619 77.5234 451.201 76.1392 446.587 76.0366L446.587 109.772Z" fill="rgb(0,0,0)" fill-rule="nonzero" />
	<path id="Ex max black (color) 09" d="M337.381 117.309C332.869 114.164 330.613 109.721 330.613 103.979C330.613 98.2363 332.869 93.8271 337.381 90.751C341.927 87.6748 347.771 86.1367 354.915 86.1367L371.885 86.1367C371.885 82.1377 371.048 79.3521 369.373 77.7798C367.698 76.2075 364.759 75.4214 360.555 75.4214C356.385 75.4214 353.445 76.4639 351.736 78.5488C350.062 80.5996 347.994 81.625 345.533 81.625L337.894 81.625C336.971 81.625 336.202 81.3345 335.586 80.7534C335.005 80.1382 334.715 79.3862 334.715 78.4976C334.715 68.688 344.029 63.7832 362.657 63.7832C370.792 63.7832 377.32 65.6118 382.242 69.269C387.164 72.8921 389.625 78.5146 389.625 86.1367L389.625 117.873C389.625 118.795 389.334 119.547 388.753 120.128C388.172 120.709 387.42 121 386.497 121L376.602 121C375.679 121 374.927 120.709 374.346 120.128C373.765 119.513 373.475 118.761 373.475 117.873L373.475 116.283C368.074 120.146 361.836 122.06 354.761 122.025C347.72 122.025 341.927 120.453 337.381 117.309ZM356.146 97.7749C353.753 97.7749 351.856 98.356 350.455 99.5181C349.087 100.68 348.404 102.184 348.404 104.03C348.404 105.875 349.122 107.396 350.557 108.593C351.993 109.789 354.026 110.387 356.658 110.387C361.922 110.387 366.998 108.849 371.885 105.773L371.885 97.7749L356.146 97.7749Z" fill="rgb(95.8496,181.013,241.337)" fill-rule="nonzero" />
	<path id="Ex max black (color) 09" d="M337.381 117.309C332.869 114.164 330.613 109.721 330.613 103.979C330.613 98.2363 332.869 93.8271 337.381 90.751C341.927 87.6748 347.771 86.1367 354.915 86.1367L371.885 86.1367C371.885 82.1377 371.048 79.3521 369.373 77.7798C367.698 76.2075 364.759 75.4214 360.555 75.4214C356.385 75.4214 353.445 76.4639 351.736 78.5488C350.062 80.5996 347.994 81.625 345.533 81.625L337.894 81.625C336.971 81.625 336.202 81.3345 335.586 80.7534C335.005 80.1382 334.715 79.3862 334.715 78.4976C334.715 68.688 344.029 63.7832 362.657 63.7832C370.792 63.7832 377.32 65.6118 382.242 69.269C387.164 72.8921 389.625 78.5146 389.625 86.1367L389.625 117.873C389.625 118.795 389.334 119.547 388.753 120.128C388.172 120.709 387.42 121 386.497 121L376.602 121C375.679 121 374.927 120.709 374.346 120.128C373.765 119.513 373.475 118.761 373.475 117.873L373.475 116.283C368.074 120.146 361.836 122.06 354.761 122.025C347.72 122.025 341.927 120.453 337.381 117.309ZM356.146 97.7749C353.753 97.7749 351.856 98.356 350.455 99.5181C349.087 100.68 348.404 102.184 348.404 104.03C348.404 105.875 349.122 107.396 350.557 108.593C351.993 109.789 354.026 110.387 356.658 110.387C361.922 110.387 366.998 108.849 371.885 105.773L371.885 97.7749L356.146 97.7749Z" fill="rgb(0,0,0)" fill-rule="nonzero" />
	<path id="Ex max black (color) 09" d="M264.27 135.15L264.27 67.9873C264.27 67.0645 264.56 66.3125 265.141 65.7314C265.756 65.1162 266.508 64.8086 267.397 64.8086L277.292 64.8086C278.181 64.8086 278.916 65.1162 279.497 65.7314C280.112 66.3125 280.419 67.0645 280.419 67.9873L280.419 69.5254C285.82 65.6973 292.092 63.7832 299.235 63.7832C306.379 63.7832 312.343 66.3125 317.128 71.3711C321.914 76.3955 324.306 83.6074 324.306 93.0068C324.306 102.372 321.828 109.55 316.872 114.54C311.916 119.53 305.234 122.025 296.826 122.025C292.485 122.025 287.546 121.154 282.009 119.411L282.009 135.15C282.009 136.073 281.701 136.825 281.086 137.406C280.505 138.021 279.77 138.329 278.881 138.329L267.397 138.329C266.508 138.329 265.756 138.021 265.141 137.406C264.56 136.825 264.27 136.073 264.27 135.15ZM282.009 107.567C286.418 108.969 290.126 109.669 293.134 109.669C297.817 109.669 301.132 108.336 303.081 105.67C305.063 103.004 306.054 98.749 306.054 92.9043C306.054 87.0596 305.114 82.8213 303.234 80.1895C301.389 77.5234 298.603 76.1904 294.877 76.1904C291.186 76.1904 286.896 77.7285 282.009 80.8047L282.009 107.567Z" fill="rgb(95.8496,181.013,241.337)" fill-rule="nonzero" />
	<path id="Ex max black (color) 09" d="M264.27 135.15L264.27 67.9873C264.27 67.0645 264.56 66.3125 265.141 65.7314C265.756 65.1162 266.508 64.8086 267.397 64.8086L277.292 64.8086C278.181 64.8086 278.916 65.1162 279.497 65.7314C280.112 66.3125 280.419 67.0645 280.419 67.9873L280.419 69.5254C285.82 65.6973 292.092 63.7832 299.235 63.7832C306.379 63.7832 312.343 66.3125 317.128 71.3711C321.914 76.3955 324.306 83.6074 324.306 93.0068C324.306 102.372 321.828 109.55 316.872 114.54C311.916 119.53 305.234 122.025 296.826 122.025C292.485 122.025 287.546 121.154 282.009 119.411L282.009 135.15C282.009 136.073 281.701 136.825 281.086 137.406C280.505 138.021 279.77 138.329 278.881 138.329L267.397 138.329C266.508 138.329 265.756 138.021 265.141 137.406C264.56 136.825 264.27 136.073 264.27 135.15ZM282.009 107.567C286.418 108.969 290.126 109.669 293.134 109.669C297.817 109.669 301.132 108.336 303.081 105.67C305.063 103.004 306.054 98.749 306.054 92.9043C306.054 87.0596 305.114 82.8213 303.234 80.1895C301.389 77.5234 298.603 76.1904 294.877 76.1904C291.186 76.1904 286.896 77.7285 282.009 80.8047L282.009 107.567Z" fill="rgb(0,0,0)" fill-rule="nonzero" />
	<path id="Ex max black (color) 09" d="M212.285 117.873L212.285 67.9873C212.285 67.0645 212.576 66.3125 213.157 65.7314C213.772 65.1162 214.524 64.8086 215.413 64.8086L253.762 64.8086C254.651 64.8086 255.386 65.1162 255.967 65.7314C256.582 66.3125 256.89 67.0645 256.89 67.9873L256.89 74.0884C256.89 74.9771 256.582 75.729 255.967 76.3442C255.386 76.9253 254.651 77.2158 253.762 77.2158L230.024 77.2158L230.024 117.873C230.024 118.761 229.717 119.513 229.102 120.128C228.521 120.709 227.786 121 226.897 121L215.413 121C214.524 121 213.772 120.709 213.157 120.128C212.576 119.513 212.285 118.761 212.285 117.873Z" fill="rgb(95.8496,181.013,241.337)" fill-rule="nonzero" />
	<path id="Ex max black (color) 09" d="M212.285 117.873L212.285 67.9873C212.285 67.0645 212.576 66.3125 213.157 65.7314C213.772 65.1162 214.524 64.8086 215.413 64.8086L253.762 64.8086C254.651 64.8086 255.386 65.1162 255.967 65.7314C256.582 66.3125 256.89 67.0645 256.89 67.9873L256.89 74.0884C256.89 74.9771 256.582 75.729 255.967 76.3442C255.386 76.9253 254.651 77.2158 253.762 77.2158L230.024 77.2158L230.024 117.873C230.024 118.761 229.717 119.513 229.102 120.128C228.521 120.709 227.786 121 226.897 121L215.413 121C214.524 121 213.772 120.709 213.157 120.128C212.576 119.513 212.285 118.761 212.285 117.873Z" fill="rgb(0,0,0)" fill-rule="nonzero" />
	<path id="Ex max black (color) 09" d="M148.811 114.643C143.479 109.721 140.812 102.475 140.812 92.9043C140.812 83.2998 143.479 76.0537 148.811 71.166C154.143 66.2441 161.799 63.7832 171.779 63.7832C181.794 63.7832 189.467 66.2441 194.799 71.166C200.131 76.0537 202.797 83.2998 202.797 92.9043C202.797 102.475 200.131 109.721 194.799 114.643C189.467 119.564 181.794 122.025 171.779 122.025C161.799 122.025 154.143 119.564 148.811 114.643ZM161.782 79.5742C159.663 82.3428 158.603 86.769 158.603 92.853C158.603 98.937 159.663 103.38 161.782 106.183C163.901 108.986 167.233 110.387 171.779 110.387C176.359 110.387 179.709 108.986 181.828 106.183C183.981 103.38 185.058 98.937 185.058 92.853C185.058 86.769 183.981 82.3428 181.828 79.5742C179.709 76.8057 176.359 75.4214 171.779 75.4214C167.233 75.4214 163.901 76.8057 161.782 79.5742Z" fill="rgb(95.8496,181.013,241.337)" fill-rule="nonzero" />
	<path id="Ex max black (color) 09" d="M148.811 114.643C143.479 109.721 140.812 102.475 140.812 92.9043C140.812 83.2998 143.479 76.0537 148.811 71.166C154.143 66.2441 161.799 63.7832 171.779 63.7832C181.794 63.7832 189.467 66.2441 194.799 71.166C200.131 76.0537 202.797 83.2998 202.797 92.9043C202.797 102.475 200.131 109.721 194.799 114.643C189.467 119.564 181.794 122.025 171.779 122.025C161.799 122.025 154.143 119.564 148.811 114.643ZM161.782 79.5742C159.663 82.3428 158.603 86.769 158.603 92.853C158.603 98.937 159.663 103.38 161.782 106.183C163.901 108.986 167.233 110.387 171.779 110.387C176.359 110.387 179.709 108.986 181.828 106.183C183.981 103.38 185.058 98.937 185.058 92.853C185.058 86.769 183.981 82.3428 181.828 79.5742C179.709 76.8057 176.359 75.4214 171.779 75.4214C167.233 75.4214 163.901 76.8057 161.782 79.5742Z" fill="rgb(0,0,0)" fill-rule="nonzero" />
	<path id="Ex max black (color) 09" d="M82.5713 114.54C77.3076 109.55 74.6758 102.372 74.6758 93.0068C74.6758 83.6074 77.3247 76.3955 82.6226 71.3711C87.9204 66.3125 95.269 63.7832 104.668 63.7832C114.068 63.7832 121.399 66.2441 126.663 71.166C131.927 76.0537 134.559 83.0776 134.559 92.2378L134.559 95.1602C134.559 96.083 134.251 96.8521 133.636 97.4673C133.055 98.0483 132.303 98.3389 131.38 98.3389L92.7739 98.3389C93.1157 102.543 94.312 105.602 96.3628 107.516C98.4478 109.43 101.763 110.387 106.309 110.387C110.855 110.387 113.965 109.362 115.64 107.311C117.315 105.26 119.383 104.218 121.844 104.184L129.483 104.184C130.406 104.184 131.158 104.491 131.739 105.106C132.354 105.688 132.662 106.439 132.662 107.362C132.662 117.172 123.313 122.06 104.617 122.025C95.1836 122.025 87.835 119.53 82.5713 114.54ZM92.6714 87.521L116.512 87.521C116.17 79.4546 112.205 75.4214 104.617 75.4214C97.0635 75.4214 93.0815 79.4546 92.6714 87.521Z" fill="rgb(95.8496,181.013,241.337)" fill-rule="nonzero" />
	<path id="Ex max black (color) 09" d="M82.5713 114.54C77.3076 109.55 74.6758 102.372 74.6758 93.0068C74.6758 83.6074 77.3247 76.3955 82.6226 71.3711C87.9204 66.3125 95.269 63.7832 104.668 63.7832C114.068 63.7832 121.399 66.2441 126.663 71.166C131.927 76.0537 134.559 83.0776 134.559 92.2378L134.559 95.1602C134.559 96.083 134.251 96.8521 133.636 97.4673C133.055 98.0483 132.303 98.3389 131.38 98.3389L92.7739 98.3389C93.1157 102.543 94.312 105.602 96.3628 107.516C98.4478 109.43 101.763 110.387 106.309 110.387C110.855 110.387 113.965 109.362 115.64 107.311C117.315 105.26 119.383 104.218 121.844 104.184L129.483 104.184C130.406 104.184 131.158 104.491 131.739 105.106C132.354 105.688 132.662 106.439 132.662 107.362C132.662 117.172 123.313 122.06 104.617 122.025C95.1836 122.025 87.835 119.53 82.5713 114.54ZM92.6714 87.521L116.512 87.521C116.17 79.4546 112.205 75.4214 104.617 75.4214C97.0635 75.4214 93.0815 79.4546 92.6714 87.521Z" fill="rgb(0,0,0)" fill-rule="nonzero" />
	<path id="Ex max black (color) 09" d="M16.332 116.283L16.332 52.3501C16.332 50.9487 16.7935 49.7866 17.7163 48.8638C18.6392 47.9409 19.8013 47.4795 21.2026 47.4795L70.729 47.4795C72.1304 47.4795 73.2754 47.9409 74.1641 48.8638C75.0869 49.7866 75.5483 50.9487 75.5483 52.3501L75.5483 57.1694C75.5483 58.5708 75.0869 59.7329 74.1641 60.6558C73.2754 61.5444 72.1304 61.9888 70.729 61.9888L35.6606 61.9888L35.6606 116.283C35.6606 117.616 35.1821 118.744 34.2251 119.667C33.3022 120.556 32.1743 121 30.8413 121L21.2026 121C19.8696 121 18.7246 120.556 17.7676 119.667C16.8105 118.744 16.332 117.616 16.332 116.283Z" fill="rgb(95.8496,181.013,241.337)" fill-rule="nonzero" />
	<path id="Ex max black (color) 09" d="M16.332 116.283L16.332 52.3501C16.332 50.9487 16.7935 49.7866 17.7163 48.8638C18.6392 47.9409 19.8013 47.4795 21.2026 47.4795L70.729 47.4795C72.1304 47.4795 73.2754 47.9409 74.1641 48.8638C75.0869 49.7866 75.5483 50.9487 75.5483 52.3501L75.5483 57.1694C75.5483 58.5708 75.0869 59.7329 74.1641 60.6558C73.2754 61.5444 72.1304 61.9888 70.729 61.9888L35.6606 61.9888L35.6606 116.283C35.6606 117.616 35.1821 118.744 34.2251 119.667C33.3022 120.556 32.1743 121 30.8413 121L21.2026 121C19.8696 121 18.7246 120.556 17.7676 119.667C16.8105 118.744 16.332 117.616 16.332 116.283Z" fill="rgb(0,0,0)" fill-rule="nonzero" />
</svg>
