<svg viewBox="0 0 611.057 138.329" xmlns="http://www.w3.org/2000/svg" xmlns:xlink="http://www.w3.org/1999/xlink" width="611.056641" height="138.329102" fill="none" customFrame="#000000">
	<rect id="Ex max white 09" width="611.056641" height="138.329102" x="0.000000" y="0.000000" fill="rgb(255,255,255)" fill-opacity="0" />
	<path id="Ex max white 09" d="M3.87703 28.0155L1.02092 22.4802C0.331835 21.1446 0 19.7036 0 18.2889C0 15.2382 1.5429 12.3097 4.37392 10.8245C40.1818 -7.96054 74.0038 1.40645 91.4021 11.2102C93.7599 12.5388 95 14.8869 95 17.3762C95 18.6743 94.6627 20.0108 93.9708 21.2611C92.9314 23.1395 91.6076 25.505 89.942 28.4479C87.5114 32.7426 82.1589 34.1553 77.7864 32.0115C56.5322 21.5908 37.9312 21.5785 16.1367 31.9746C11.6439 34.1177 6.19225 32.5026 3.87703 28.0155ZM16.332 116.283L16.332 52.3501Q16.332 51.0457 16.8651 50.0177L16.8651 50.0176Q17.1911 49.389 17.7163 48.8638Q18.2416 48.3385 18.8702 48.0125Q19.8982 47.4795 21.2026 47.4795L70.729 47.4795Q72.0841 47.4795 73.1196 48.0548Q73.6904 48.3719 74.1641 48.8638Q74.6893 49.389 75.0153 50.0177Q75.5483 51.0457 75.5483 52.3501L75.5483 57.1694Q75.5483 58.4738 75.0153 59.5019Q74.6893 60.1305 74.1641 60.6558Q73.7409 61.0789 73.2403 61.3677Q72.1638 61.9888 70.729 61.9888L35.6606 61.9888L35.6606 116.283Q35.6606 117.292 35.2955 118.143Q34.9367 118.981 34.2251 119.667Q33.6309 120.239 32.9233 120.566Q31.9825 121 30.8413 121L21.2026 121Q20.1264 121 19.2135 120.614Q18.4304 120.282 17.7676 119.667Q17.056 118.981 16.6971 118.143Q16.332 117.292 16.332 116.283ZM406.033 113.515Q404.7 112.319 403.591 110.944Q398.086 104.118 398.086 92.853Q398.086 81.5514 403.626 74.7893Q404.721 73.453 406.033 72.2939Q414.031 65.27 429.155 64.8086L429.155 50.6582Q429.155 49.6974 429.575 48.9836Q429.76 48.669 430.027 48.4023Q430.396 48.0332 430.839 47.8117Q431.503 47.4795 432.334 47.4795L443.767 47.4795Q444.649 47.4795 445.322 47.8537Q445.707 48.0673 446.023 48.4023Q446.29 48.669 446.475 48.9836Q446.895 49.6974 446.895 50.6582L446.895 64.8086Q462.019 65.2188 469.966 72.2939Q471.337 73.4979 472.473 74.8936Q477.964 81.6382 477.964 92.853Q477.964 104.03 472.51 110.837Q471.359 112.273 469.966 113.515Q462.019 120.59 446.895 121L446.895 135.15Q446.895 136.032 446.52 136.705Q446.307 137.09 445.972 137.406Q445.604 137.796 445.153 138.021Q444.537 138.329 443.767 138.329L432.334 138.329Q431.503 138.329 430.839 137.997Q430.396 137.775 430.027 137.406Q429.76 137.14 429.575 136.825Q429.155 136.111 429.155 135.15L429.155 121Q414.031 120.59 406.033 113.515ZM82.5713 114.54Q81.5816 113.602 80.7159 112.56L80.7154 112.56Q74.6758 105.293 74.6758 93.0068Q74.6758 80.7252 80.7058 73.4232L80.7067 73.4222Q81.5987 72.3421 82.6226 71.3711Q83.3449 70.6814 84.1181 70.0543L84.12 70.0528Q91.8525 63.7832 104.668 63.7832Q117.93 63.7832 125.703 70.3148Q126.194 70.7273 126.663 71.166Q127.835 72.2545 128.834 73.4843Q134.559 80.5376 134.559 92.2378L134.559 95.1602Q134.559 95.9907 134.226 96.6552Q134.005 97.0982 133.636 97.4673Q133.369 97.7339 133.055 97.919Q132.341 98.3389 131.38 98.3389L92.7739 98.3389Q93.2866 104.645 96.3628 107.516Q99.4902 110.387 106.309 110.387Q113.128 110.387 115.64 107.311Q117.152 105.46 119.091 104.704L119.091 104.704Q120.374 104.204 121.844 104.184L129.483 104.184Q130.364 104.184 131.038 104.558Q131.422 104.771 131.739 105.106Q132.074 105.423 132.287 105.807Q132.662 106.481 132.662 107.362Q132.662 110.545 131.35 113.037Q126.596 122.066 104.617 122.025Q91.455 122.025 83.7045 115.549Q83.1227 115.063 82.5713 114.54ZM148.811 114.643Q147.923 113.824 147.135 112.919L147.134 112.919Q140.812 105.667 140.812 92.9043Q140.812 80.0259 147.204 72.8012L147.204 72.8009Q147.962 71.9437 148.811 71.166Q156.809 63.7832 171.779 63.7832Q186.801 63.7832 194.799 71.166Q195.648 71.9437 196.406 72.8009L196.406 72.8012Q202.797 80.0259 202.797 92.9043Q202.797 105.667 196.476 112.919L196.475 112.919Q195.687 113.824 194.799 114.643Q186.801 122.025 171.779 122.025Q156.809 122.025 148.811 114.643ZM264.27 135.15L264.27 67.9873Q264.27 67.0265 264.689 66.3127Q264.875 65.998 265.141 65.7314Q265.569 65.3033 266.086 65.0738Q266.682 64.8086 267.397 64.8086L277.292 64.8086Q278.062 64.8086 278.678 65.1167Q279.129 65.3418 279.497 65.7314Q279.832 66.0479 280.045 66.4322Q280.419 67.1058 280.419 67.9873L280.419 69.5254Q282.818 67.8248 285.447 66.6279L285.448 66.6275Q291.694 63.7832 299.235 63.7832Q305.03 63.7832 309.791 66.0026Q313.833 67.8869 317.128 71.3711Q317.275 71.5252 317.419 71.6819L317.438 71.7026Q324.306 79.2149 324.306 93.0068Q324.306 106.177 317.772 113.579Q317.336 114.072 316.872 114.54Q315.299 116.124 313.493 117.373Q306.768 122.025 296.826 122.025Q290.314 122.025 282.009 119.411L282.009 135.15Q282.009 136.032 281.635 136.705Q281.421 137.09 281.086 137.406Q280.718 137.796 280.268 138.021Q279.651 138.329 278.881 138.329L267.397 138.329Q266.682 138.329 266.086 138.064Q265.569 137.834 265.141 137.406Q264.874 137.14 264.689 136.825Q264.27 136.111 264.27 135.15ZM337.381 117.309Q334.338 115.188 332.663 112.279Q330.613 108.719 330.613 103.979Q330.613 99.1772 332.716 95.6186Q334.386 92.7931 337.381 90.751Q344.2 86.1367 354.915 86.1367L371.885 86.1367Q371.885 80.1382 369.373 77.7798Q366.861 75.4214 360.555 75.4214Q354.385 75.4214 351.807 78.4644Q351.78 78.4962 351.753 78.5284L351.736 78.5488Q350.232 80.3912 348.304 81.1302Q347.013 81.625 345.533 81.625L337.894 81.625Q336.984 81.625 336.274 81.2491Q335.903 81.0526 335.586 80.7534Q335.228 80.3744 335.017 79.9261Q334.715 79.283 334.715 78.4976Q334.715 75.303 336.032 72.802Q340.781 63.7832 362.657 63.7832Q374.859 63.7832 382.242 69.269Q384.029 70.5847 385.384 72.2519Q389.625 77.4715 389.625 86.1367L389.625 117.873Q389.625 118.833 389.205 119.547Q389.02 119.862 388.753 120.128Q388.486 120.395 388.172 120.58Q387.458 121 386.497 121L376.602 121Q375.641 121 374.927 120.58Q374.613 120.395 374.346 120.128Q373.988 119.749 373.777 119.301Q373.475 118.658 373.475 117.873L373.475 116.283Q370.77 118.217 367.786 119.5Q361.831 122.06 354.761 122.025Q344.2 122.025 337.381 117.309ZM212.285 117.873L212.285 67.9873Q212.285 67.0265 212.705 66.3127Q212.89 65.998 213.157 65.7314Q213.585 65.3033 214.101 65.0738Q214.698 64.8086 215.413 64.8086L253.762 64.8086Q254.532 64.8086 255.149 65.1167Q255.599 65.3419 255.967 65.7314Q256.302 66.0479 256.515 66.4322Q256.89 67.1058 256.89 67.9873L256.89 74.0884Q256.89 74.8029 256.624 75.3997Q256.395 75.9161 255.967 76.3442Q255.647 76.6645 255.264 76.867L255.264 76.8672Q254.605 77.2158 253.762 77.2158L230.024 77.2158L230.024 117.873Q230.024 118.587 229.759 119.184Q229.53 119.7 229.102 120.128Q228.781 120.449 228.399 120.651L228.398 120.651Q227.74 121 226.897 121L215.413 121Q214.627 121 213.984 120.697Q213.536 120.486 213.157 120.128Q212.799 119.749 212.588 119.301Q212.285 118.658 212.285 117.873ZM486.371 117.873L486.371 67.9873Q486.371 67.0265 486.791 66.3127Q486.976 65.998 487.243 65.7314Q487.671 65.3033 488.187 65.0738Q488.784 64.8086 489.499 64.8086L500.214 64.8086Q501.095 64.8086 501.769 65.1828Q502.153 65.3964 502.47 65.7314Q502.805 66.0479 503.018 66.4322Q503.393 67.1058 503.393 67.9873L503.393 101.671L521.439 68.5Q521.578 68.2325 521.74 67.981Q522.544 66.7381 523.952 65.8853Q525.644 64.8086 527.233 64.8086L541.588 64.8086Q542.47 64.8086 543.143 65.1828Q543.528 65.3963 543.844 65.7314Q544.179 66.048 544.393 66.4322Q544.767 67.1058 544.767 67.9873L544.767 117.873Q544.767 118.754 544.393 119.428Q544.179 119.812 543.844 120.128Q543.578 120.394 543.264 120.579L543.263 120.58Q542.549 121 541.588 121L530.873 121Q529.912 121 529.198 120.58L529.197 120.579Q528.883 120.394 528.617 120.128Q528.259 119.749 528.048 119.301Q527.746 118.658 527.746 117.873L527.746 84.2397L509.699 117.309Q508.878 118.795 507.187 119.923Q505.495 121 503.905 121L489.499 121Q488.538 121 487.824 120.58Q487.509 120.395 487.243 120.128Q486.976 119.862 486.791 119.547Q486.371 118.833 486.371 117.873ZM554.814 82.9067Q554.814 75.9846 558.178 71.71Q563.585 64.8402 577.68 64.8086L607.929 64.8086Q608.81 64.8086 609.484 65.1828Q609.868 65.3963 610.185 65.7314Q610.451 65.9977 610.636 66.3117L610.637 66.3127Q611.057 67.0265 611.057 67.9873L611.057 117.873Q611.057 118.833 610.637 119.547L610.636 119.548Q610.451 119.862 610.185 120.128Q609.919 120.394 609.605 120.579L609.604 120.58Q608.89 121 607.929 121L596.496 121Q595.587 121 594.877 120.624Q594.506 120.428 594.189 120.128Q593.831 119.749 593.62 119.301Q593.317 118.658 593.317 117.873L593.317 100.954L583.269 100.954L574.553 116.488Q573.444 118.479 571.756 119.592Q569.62 121 566.555 121L557.326 121Q556.027 121 555.353 120.351Q555.043 120.052 554.865 119.616Q554.66 119.154 554.66 118.437Q554.66 117.667 555.429 116.488L565.734 99.2617Q560.733 97.4067 558.022 93.8204Q554.814 89.576 554.814 82.9067ZM92.6714 87.521L116.512 87.521Q116.239 81.0797 112.886 78.0675Q109.94 75.4214 104.617 75.4214Q99.3509 75.4214 96.3994 78.0352Q93.0007 81.0451 92.6714 87.521ZM161.782 79.5742Q158.603 83.7271 158.603 92.853Q158.603 101.979 161.782 106.183Q162.409 107.013 163.178 107.679Q166.306 110.387 171.779 110.387Q177.346 110.387 180.489 107.627Q181.225 106.981 181.828 106.183Q185.058 101.979 185.058 92.853Q185.058 83.7271 181.828 79.5742Q181.261 78.833 180.576 78.2242L180.575 78.2237Q177.423 75.4214 171.779 75.4214Q166.229 75.4214 163.091 78.1724Q162.373 78.8014 161.782 79.5742ZM419.158 80.1382Q415.825 84.1372 415.825 92.853Q415.825 101.569 419.158 105.619Q419.641 106.198 420.197 106.696L420.198 106.697Q423.531 109.684 429.463 109.772L429.463 76.0366Q423.444 76.1258 420.1 79.1615L420.098 79.1633Q419.598 79.6177 419.158 80.1382ZM446.587 109.772Q452.528 109.684 455.825 106.687Q456.369 106.193 456.841 105.619Q460.225 101.569 460.225 92.853Q460.225 84.1372 456.841 80.1895Q456.429 79.6955 455.963 79.2602Q452.653 76.1714 446.587 76.0366L446.587 109.772ZM282.009 107.567Q288.623 109.669 293.134 109.669Q299.301 109.669 302.306 106.587L302.307 106.587Q302.724 106.158 303.081 105.67Q306.054 101.671 306.054 92.9043Q306.054 84.1372 303.234 80.1895Q302.288 78.8223 301.012 77.9226Q298.555 76.1904 294.877 76.1904Q289.34 76.1904 282.009 80.8047L282.009 107.567ZM574.348 78.2412Q573.96 78.607 573.656 79.0328Q572.553 80.5761 572.553 82.9067Q572.553 85.1804 573.608 86.7403Q573.91 87.1855 574.296 87.5723Q574.497 87.7674 574.715 87.9407Q576.447 89.3154 579.27 89.3154L593.317 89.3154L593.317 76.498L579.27 76.498Q576.562 76.498 574.854 77.8045Q574.589 78.0071 574.348 78.2412ZM356.146 97.7749Q352.557 97.7749 350.455 99.5181Q349.511 100.32 349.002 101.339Q348.404 102.535 348.404 104.03Q348.404 105.367 348.906 106.476Q349.443 107.665 350.557 108.593Q352.71 110.387 356.658 110.387Q358.284 110.387 359.885 110.192L359.888 110.191Q366.064 109.436 371.885 105.773L371.885 97.7749L356.146 97.7749Z" fill="rgb(255,255,255)" fill-rule="evenodd" />
</svg>
